<svg xmlns="http://www.w3.org/2000/svg" width="300" height="104"><path fill="#000" d="M3.5-.146h19.079c3.765 0 7.072 1.4 9.92 4.2 1.376 1.545 2.329 3.029 2.859 4.453.652 1.762.978 3.368.978 4.815 0 4.032-1.498 7.495-4.489 10.391-.241.314-.362.628-.362.941 0 .772.555 1.399 1.666 1.883 2.486 1.642 4.284 3.875 5.394 6.698.602 1.69.905 3.344.905 4.96 0 2.414-.712 4.815-2.136 7.205-1.739 2.703-4.115 4.575-7.133 5.611-1.424.506-2.92.76-4.489.76H3.499c-1.063 0-1.955-.579-2.68-1.738-.217-.506-.325-.929-.325-1.267V2.858c0-1.061.579-1.955 1.738-2.679.506-.217.928-.325 1.268-.325zm3.257 8.037v13.034c0 1.182.591 1.774 1.775 1.774h14.626c.701 0 1.786-.422 3.259-1.267 1.327-1.014 2.171-1.906 2.534-2.68.82-1.327 1.231-2.69 1.231-4.09v-.507c0-1.859-.701-3.632-2.1-5.322C26.9 7.65 25.97 6.974 25.294 6.804c-.966-.458-1.678-.688-2.136-.688H8.532c-1.184.001-1.775.592-1.775 1.775zm0 22.809v13.034c0 1.182.64 1.774 1.919 1.774h17.595c.845-.049 1.955-.483 3.331-1.304 2.461-1.834 3.692-4.176 3.692-7.023 0-2.462-1.013-4.622-3.041-6.481-1.497-1.086-2.824-1.665-3.982-1.738H8.531c-1.183 0-1.774.58-1.774 1.738zM60.351-.146c1.207 0 2.112.652 2.716 1.955.096.411.145.892.145 1.448v45.112c0 1.593-.567 2.642-1.701 3.15-.241.122-.628.205-1.159.253-1.207 0-2.124-.651-2.751-1.955-.097-.386-.145-.869-.145-1.447V3.258c0-1.593.578-2.63 1.738-3.113.215-.146.601-.242 1.157-.291zM71.94-.146c1.207 0 2.112.652 2.716 1.955.095.411.145.892.145 1.448v45.112c0 1.593-.567 2.642-1.701 3.15-.241.122-.628.205-1.159.253-1.207 0-2.124-.651-2.751-1.955-.097-.386-.145-.869-.145-1.447V3.258c0-1.593.579-2.63 1.738-3.113.216-.146.602-.242 1.157-.291zM47.745 16.327h.217c1.231 0 2.282.579 3.15 1.738.41.652.616 1.304.616 1.955v.398c0 1.183-.579 2.197-1.738 3.042-.701.435-1.376.652-2.028.652h-.252c-1.183 0-2.209-.555-3.078-1.665-.458-.748-.688-1.497-.688-2.246 0-.819.29-1.629.87-2.425.844-.965 1.822-1.449 2.931-1.449zm-.072 27.696h.363c1.254 0 2.317.628 3.186 1.882.337.652.506 1.267.506 1.847v.289c0 1.231-.592 2.269-1.774 3.114-.651.411-1.291.616-1.918.616h-.363c-1.23 0-2.281-.602-3.15-1.81-.386-.748-.579-1.436-.579-2.063 0-.845.29-1.678.87-2.499.892-.916 1.846-1.376 2.859-1.376z"/><g fill="#000"><path d="M146.802 66.653h9.342c2.895 0 5.574 1.014 8.037 3.041 1.231 1.183 2.028 2.124 2.39 2.824 1.253 2.077 1.882 4.226 1.882 6.444v21.688c0 .989-.482 1.847-1.448 2.57-.577.313-1.122.471-1.628.471-1.352 0-2.331-.64-2.935-1.919-.314-.869-.856-1.304-1.629-1.304-.339 0-1.062.351-2.172 1.051-.94.507-2.015.953-3.222 1.34-1.954.557-3.681.832-5.177.832h-.471c-3.234 0-6.131-1.243-8.689-3.727-1.086-1.231-1.811-2.247-2.172-3.041-.869-1.835-1.303-3.597-1.303-5.289v-.397c0-3.16 1.218-6.046 3.656-8.65 2.607-2.317 5.407-3.477 8.4-3.477h10.246c.892 0 1.459-.231 1.7-.688.192-.24.289-.506.289-.796v-.146c-.072-.699-.52-1.545-1.34-2.534-.893-.869-1.653-1.398-2.281-1.594-.604-.313-1.69-.47-3.258-.47H146.8c-.845 0-1.617-.399-2.317-1.195-.435-.602-.652-1.181-.652-1.737v-.254c0-1.014.458-1.858 1.375-2.534.558-.34 1.09-.509 1.596-.509zm-2.969 24.766c0 1.664.7 3.175 2.1 4.526 1.254.989 2.486 1.483 3.692 1.483h.616c2.051 0 4.139-.64 6.264-1.918 2.366-1.497 4.057-3.657 5.069-6.481.217-.844.373-1.522.471-2.026v-.184c0-.602-.351-1.071-1.051-1.41-.169-.024-.302-.036-.4-.036h-10.969c-1.448 0-2.836.64-4.163 1.917-1.086 1.281-1.629 2.656-1.629 4.129zM178.445 51.773h.289c1.037 0 1.907.543 2.607 1.631.265.409.397 1.098.397 2.064v9.592c0 .772.435 1.281 1.305 1.522h7.929c.048 0 .071.022.071.07v4.854c-.096.456-.34.832-.724 1.122-.289.169-.712.254-1.268.254h-4.127c-1.328 0-2.305.604-2.933 1.81-.169.435-.254.795-.254 1.086v18.754c0 1.038.592 1.907 1.774 2.606.459.17.82.254 1.086.254h2.499c.072 0 .108.022.108.071v6.156c0 .048-.036.072-.108.072h-2.969c-2.052 0-3.609-.338-4.67-1.014-1.615-.821-2.822-2.293-3.622-4.417-.265-.771-.397-1.907-.397-3.403v-39.39c0-1.45.397-2.439 1.195-2.97.556-.482 1.16-.724 1.812-.724zM208.784 66.583c1.567 0 3.137.457 4.705 1.376 2.222 1.521 3.331 3.053 3.331 4.598 0 1.086-.543 1.979-1.629 2.679-.507.266-1.039.4-1.593.4-.822 0-1.608-.386-2.354-1.159-.651-1.062-1.474-1.594-2.462-1.594h-.146c-1.086 0-1.908.569-2.462 1.701-.146.387-.219.736-.219 1.052 0 1.108.64 2.016 1.92 2.716 4.684 3.111 7.3 4.888 7.855 5.322.87.75 1.483 1.363 1.849 1.846 1.566 2.148 2.351 4.394 2.351 6.734 0 3.789-1.532 6.88-4.598 9.269-2.052 1.448-4.296 2.17-6.733 2.17-2.316 0-4.515-.722-6.589-2.17-1.352-1.036-2.353-2.124-3.005-3.259-.652-1.11-.978-2.027-.978-2.751v-.073c0-.917.448-1.737 1.34-2.462.602-.363 1.183-.543 1.739-.543 1.158 0 2.076.533 2.753 1.594.337.675.651 1.207.941 1.592 1.107 1.209 2.388 1.812 3.837 1.812 1.618 0 2.97-.665 4.058-1.993.651-.94.974-1.953.974-3.041 0-1.953-1.073-3.546-3.222-4.778-4.515-3.018-6.965-4.671-7.351-4.961-2.268-1.904-3.403-4.294-3.403-7.168 0-2.245.857-4.309 2.57-6.191 1.887-1.813 4.06-2.718 6.521-2.718zM243.469 66.583h.616c3.812 0 7.517 1.303 11.115 3.909 1.642 1.376 2.787 2.56 3.439 3.549 2.463 3.379 3.693 7.084 3.693 11.115 0 4.873-1.774 9.22-5.322 13.031-1.908 1.812-3.716 3.066-5.431 3.766-2.582 1.158-5.083 1.737-7.494 1.737h-.615c-3.861 0-7.579-1.313-11.15-3.945-1.328-1.087-2.366-2.136-3.114-3.15-2.654-3.428-3.98-7.253-3.98-11.479 0-4.586 1.594-8.725 4.778-12.418 1.643-1.665 2.825-2.68 3.549-3.041 3.23-2.049 6.535-3.074 9.916-3.074zm-11.948 18.573v.253c0 3.112 1.232 5.975 3.694 8.579 2.556 2.269 5.334 3.404 8.326 3.404h.472c3.33 0 6.311-1.352 8.941-4.055 2.053-2.486 3.078-5.127 3.078-7.929v-.253c0-3.452-1.267-6.432-3.802-8.943-1.399-1.254-2.836-2.136-4.309-2.644-1.399-.456-2.667-.687-3.802-.687h-.688c-2.027 0-4.102.627-6.227 1.882-.725.435-1.63 1.207-2.716 2.318-1.279 1.616-2.078 3.053-2.39 4.31-.383 1.038-.577 2.293-.577 3.765zM270.804 66.619c1.035 0 1.904.471 2.605 1.412.408.651.928.975 1.558.975.266 0 .832-.238 1.701-.724 2.293-1.108 4.647-1.663 7.058-1.663 4.78 0 8.871 1.858 12.274 5.575 1.23 1.569 2.052 2.884 2.462 3.946.966 1.907 1.448 4.415 1.448 7.529v16.365c0 1.475-.41 2.465-1.229 2.97-.558.458-1.209.688-1.955.688-.796 0-1.545-.336-2.245-1.012-.557-.533-.835-1.411-.835-2.644V83.818c0-2.316-.302-4.043-.904-5.177-1.159-2.462-3.054-4.2-5.686-5.214-1.157-.362-2.244-.541-3.258-.541-2.85 0-5.31 1.109-7.387 3.329-1.137 1.305-1.882 2.836-2.244 4.598-.146.629-.218 1.629-.218 3.005v16.219c0 1.475-.409 2.465-1.231 2.972-.53.457-1.182.688-1.954.688-.796 0-1.544-.338-2.244-1.014-.555-.531-.834-1.411-.834-2.644V70.277c0-1.252.302-2.147.905-2.679.679-.653 1.416-.979 2.213-.979z"/></g><path fill="#000" d="M90.801 59.981c.955 3.789 2.314 9.246 4.076 16.377.023.048 1.05 4.113 3.077 12.2.313.651.725.978 1.231.978h.289c.652 0 1.255-.711 1.811-2.136 4.295-8.521 6.48-12.816 6.552-12.889.676-.772 1.448-1.159 2.317-1.159 1.449 0 2.535.976 3.259 2.933l6.409 12.744c.362.338.7.507 1.013.507h.29c.82 0 1.351-.856 1.593-2.569l8.436-33.31c.337-.676.795-1.171 1.375-1.485.217-.121.627-.229 1.23-.326 1.472 0 2.462.76 2.969 2.282.048.313.084.506.108.579 0 .482-.749 3.596-2.245 9.339-2.945 11.853-6.094 24.438-9.45 37.763-.603 1.255-1.534 1.881-2.788 1.881-1.448 0-2.558-1.012-3.33-3.039-5.118-10.21-7.711-15.351-7.785-15.425-.362-.314-.676-.471-.941-.471h-.289c-.652 0-1.231.675-1.739 2.026l-7.82 15.496c-.628.941-1.498 1.412-2.606 1.412-1.28 0-2.196-.71-2.752-2.135-2.84-11.293-5.565-22.192-8.174-32.693"/><path fill="#000" d="M91.773 57.744c1.472-3.21 2.209-5.081 2.209-5.61v-.181c0-.579-.447-1.846-1.34-3.801-8.231-18.901-12.431-28.579-12.599-29.038-.169-.363-.253-.724-.253-1.086v-.253c0-1.182.652-2.124 1.955-2.824.579-.145.978-.217 1.195-.217 1.568 0 2.715 1.063 3.439 3.186 6.468 14.965 9.823 22.688 10.064 23.171.386.435.809.652 1.267.652.844 0 1.448-.627 1.811-1.883l10.209-23.425c.7-1.135 1.642-1.701 2.824-1.701 1.327 0 2.317.736 2.969 2.209.096.362.146.639.146.833v.253c0 .506-.507 1.823-1.521 3.946-11.513 26.598-17.487 40.332-17.921 41.201-.941 1.617-2.402 2.765-4.38 3.441"/><path fill="#000" d="M101.438 51.303c-8.226 18.902-12.45 28.571-12.671 29.006-.149.37-.357.68-.622.925l-.185.173c-.866.807-1.999.97-3.4.493-.5-.324-.824-.566-.973-.727-1.069-1.148-1.072-2.711-.012-4.688 6.548-14.931 9.914-22.649 10.104-23.154"/><path fill="#000" d="M91.993 72.837c-8.226 18.9-12.45 28.568-12.671 29.003-.149.371-.358.681-.622.927l-.185.172c-.865.807-1.999.97-3.399.493-.5-.324-.824-.567-.973-.727-1.069-1.149-1.072-2.712-.012-4.688 6.548-14.931 9.51-21.608 9.699-22.115l8.163-3.065zM106.067 40.662c-8.226 18.9-12.45 28.569-12.671 29.006-.149.368-.358.68-.622.926l-.186.171c-.865.806-1.998.971-3.399.494-.5-.325-.824-.568-.973-.726-1.069-1.15-1.072-2.713-.012-4.69 6.547-14.931 9.914-22.649 10.104-23.154"/><path fill="#EDCD2F" d="M126.257 16.327h.217c1.424 0 2.546.712 3.367 2.136.266.506.398 1.05.398 1.629v.363c0 1.376-.736 2.486-2.209 3.331-.531.241-1.086.362-1.665.362-1.642 0-2.849-.819-3.621-2.462-.169-.435-.253-.844-.253-1.23v-.326c0-1.642.869-2.837 2.606-3.584.436-.147.822-.219 1.16-.219z"/><path fill="#478D34" d="M122.31 25.52h.217c1.424 0 2.547.712 3.368 2.135.266.507.398 1.051.398 1.63v.362c0 1.376-.736 2.486-2.209 3.33-.531.242-1.086.363-1.665.363-1.642 0-2.849-.82-3.621-2.462-.168-.435-.253-.844-.253-1.23v-.326c0-1.641.869-2.836 2.606-3.583.435-.148.82-.219 1.159-.219z"/><path fill="#255485" d="M118.317 34.712h.217c1.424 0 2.546.712 3.368 2.136.265.506.398 1.05.398 1.629v.362c0 1.376-.736 2.486-2.209 3.33-.531.241-1.086.363-1.665.363-1.642 0-2.848-.82-3.621-2.462-.169-.435-.254-.844-.254-1.231v-.326c0-1.641.87-2.836 2.607-3.584.435-.143.821-.217 1.159-.217z"/><path fill="#74160D" d="M114.322 43.952h.218c1.424 0 2.546.711 3.367 2.135.266.507.399 1.051.399 1.629v.363c0 1.376-.736 2.486-2.209 3.331-.532.241-1.087.362-1.666.362-1.642 0-2.849-.819-3.621-2.462-.169-.435-.253-.845-.253-1.231v-.325c0-1.642.869-2.836 2.606-3.583.436-.148.822-.219 1.159-.219z"/></svg>
