<svg version="1.1" id="Layer_1" xmlns="http://www.w3.org/2000/svg" x="0" y="0" viewBox="0 0 100 214" xml:space="preserve"><style>.st0{fill:#e5ada3}.st1{fill:#1d1d1b}.st2{fill:#010101}</style><path class="st0" d="M60.5 70.1c.2.3.4.6.5.8.2-.5 0-.8-.5-.8zM22.2 121.8c.1-.1.2-.3.3-.5-.7.5-1.4.6-1.8.2l-1-1c-.1-.1-.2-.1-.4-.1.1.7.5 1 .9 1.5.6.7 1.2.6 2-.1zM44.9 157.6c.1.3.2.5.2.8 0 .4-.2.7-.3 1.1h.1c.7-.9.7-1.7 0-2.4-.6-.6-1.4-.7-1.8-.3.4.2.8.4 1.2.4.3.2.5.1.6.4zM41.5 49.9l-1-1c-.1-.1-.2-.1-.4-.1.1.7.5 1 .9 1.5.7.8 1.2.6 2-.1.1-.1.2-.3.3-.5-.6.5-1.3.7-1.8.2zM46.9 136.3c.2.3.4.6.5.8.3-.6.1-.8-.5-.8z"/><path class="st0" d="M100 208.8h-.1c-1.1-.4-2-1.1-1.9-2.4 0-1.4.2-2.8 1.2-3.9.3-.4.5-.3.8-.1v-15.7l-.6 1.2c-.1.2-.3.6-.8.3-.2-.1-.4 0-.7 0-.8.1-1.1-.5-1.3-1-.2-.4-.3-.9-.5-1.5.2-.8.4-1.7.8-2.5.1-.2.5-.3.8-.4.1 0 .3.2.4.3.3.5.8.2 1.2.5l.6.3v-8.6c-.4-.2-.7-.5-1-.8-.2-.2-.2-.6-.1-.9.2-.5.4-1 1.1-.8v-27.1c-.4.4-1 .7-1.3.7-.2-.1-.5-.2-.7-.4-.4-.2-.7-.5-1.1-.5-.3 0-.3-.1-.3-.3 0-.2-.1-.4-.2-.5-.4-.3-.2-.7-.1-.9.4-.4.9-.9 1.4-.9.8-.1 1.8 0 2.3.8v-9c-.9-.2-1.6-.5-2-1.4l-.4-.4c.2-.5.3-1 .5-1.5s1.2-1.2 1.8-1.2h.1v-24.1c-.2.1-.3.1-.5.2s-.6 0-.7-.1c-.4-.5-1-.6-1.2-1.2-.5-1.1-.6-1.6.3-2.3.7-.5 1.5-.5 2.2-.1V85.2c-.1 0-.1-.1-.2-.1-.5-.1-.6-.5-.5-.7.1-.5.3-1.2.7-1.5v-23c-.2 0-.4-.1-.5-.2-.4-.5-.8-1.1-1.2-1.7-.1-.1-.1-.3-.2-.6.2-.5.3-1 .5-1.6.1-.2 0-.4.1-.6 0-.1.1-.1.2-.2s.3-.2.3-.3c.2-.5.5-.4.9-.4V0H0h1c.1.1.2.1.3.2-.5.3-.7.9-1.3.9v35.2l.9.3c.2.1.4 0 .6.1.1 0 .1.1.2.2s.2.3.3.3c.5.2.4.6.3 1 0 .3-.3.6-.1 1.1.1.3-.3 1-.6 1.3-.5.4-1 .5-1.6.4v8.8c.3-.2.6-.3.9-.4H1c1 .1 2 0 2.9.6.1.1.3.3.3.4.2.9.2 1.8-.4 2.6-.6.8-1.6 1.3-2.7 1.2-.4-.1-.8-.3-1.2-.5v22.1c.2 0 .5.1.7.2.3.1.5.4.8.7-.4.4-.8.7-.7 1.3 0 .3-.4.6-.8.8v6.4c.5.2.9.6 1.4.8l.3.3c-.3.1-.4.3-.6.3-.3 0-.4.1-.5.4-.1.3-.3.6-.5.7v8.7l.6.3c.3.1.5.3.9.5 0 .1 0 .4.1.6.2.4.1.8 0 1.3-.2.9-.9 1.5-1.4 2.2l-.3.3v50c.2.3.4.7.5 1 .1.4 0 .7-.3.8-.1.1-.2.1-.3.2V179c.6.2.9.7 1.1 1.2.1.2.2.3.3.4 0 .2 0 .4-.1.6-.1.2-.2.4-.3.4-.5.3-.9.5-.8 1.3.1.4-.1.7-.3 1v29.6c.3.1.6.3.9.5H0h100v-5.2zm-85.9-13.5c-.5-.2-1.1-.6-1.1-1.3 0-.4-.5-.7-.3-1.2.6-1.3 1.7-2.1 3.2-1.4.3.2.7.3 1 .5.8.6 1 .8.8 1.9v.6c0 .6-.4 1-1 1.2-.2.1-.5.2-.8.3 0-.2.1-.3.1-.3-.6-.1-1.3-.1-1.9-.3zm-3-163.8c.3.1.7.2.9.4.2.3.4.7.5 1 .1.5-.2 1-.3 1.5-.1.5-.4.9-.8 1.2-.6.5-1.8.6-2.3.1-.5-.4-.9-1-1.3-1.5l-.6-.6c-.1-.9.4-1.7 1.2-2.2.8-.4 1.8-.4 2.7.1zM8.5 8.9c-.1 0-.5 0-.6-.2-.4-.6-1.1-1-1.5-1.7-.4-.7-.2-1.2.2-1.8.2-.2.5-.4.8-.6.3-.2.6-.3 1-.3.9-.1 1.6.5 2.4.9.1.1.2.4.2.6 0 .6-.1 1.1-.2 1.7-.4 1.2-1.1 1.3-2.3 1.4zm79.1 184.3c-.9-.4-1.9-.5-2.5-1.3-.2-.4-.7-.5-.9-.9-.8-1-1-2.1-.3-3.2.2-.3.4-.7.6-1 .4-.6 1-.9 1.7-1 1.5-.3 3-.2 4.3.8 1.1.8 1.4 2 .7 3.1-.5.8-.9 1.7-1.6 2.4-.5.6-1.3.8-2 1.1zm1.4 13c0 .4-.3.8-.6 1.1-.5.6-1.1 1-1.7 1.4-.5.4-.7.1-1.1 0-.9-.3-1.4-1-1.6-1.9-.1-.3-.1-.5-.1-.8 0-1.2.9-2.5 1.9-2.7.4-.1 1.1-.1 1.4.2.6.4 1.1 1 1.5 1.5.2.3.3.8.3 1.2zM75.3 202c-.5-.2-1.1-.6-1.1-1.3 0-.4-.5-.7-.3-1.2.6-1.3 1.7-2.1 3.2-1.4.3.2.7.3 1 .5.8.6 1 .8.8 1.9v.6c0 .6-.4 1-1 1.2-.2.1-.5.2-.8.3 0-.2.1-.3.1-.3-.7-.1-1.4-.1-1.9-.3zm-3.7-10.4c-.5.8-1.4.8-2.3.7-.4 0-1-.1-1.3-.4-.6-.5-1.1-1.2-1.6-1.8-.3-.5.1-1.5.4-2 .4-.6 1.1-.8 1.6-1.1 1.2-.8 2.1-.3 3.2.1.3.1.6.3.9.4 0 .1 0 .4.2.6.3.4.1.8.1 1.3-.1.8-.8 1.4-1.2 2.2zm.9 16.8c-.2 1-.9 1.9-1.3 2.9-.1.2-.3.5-.8.3-.2-.1-.4 0-.7 0-.8.1-1-.5-1.3-1.1-.2-.4-.3-.9-.4-1.5.3-.8.5-1.7.9-2.5.1-.2.5-.3.8-.4.1 0 .3.2.4.4.3.5.8.2 1.2.5.3.2.8.3 1 .6.2.1.3.5.2.8zM65.7 154c-.5-.4-.8-1.5-.5-1.9.2-.3.6-.5 1-.5.8 0 1.6-.1 2.2.4.2.2.4.3.2.7-.2.5-.2 1-.3 1.5-.2.9-.4 1-1.2.6-.2-.1-.4-.3-.6-.4-.1.1-.2.2-.4.3l.2-.2c-.2-.2-.4-.3-.6-.5zm-5.3 52.6c-.2.2-.4.6-.6.8-.3.3-.6.6-1 .9-.7-.5-1.4-.9-2-1.5-.3-.2-.5-.6-.4-1 .1-.2 0-.4.1-.6.3-1.2 1.4-1.6 2.4-2 .3-.1.7 0 1.1 0 .3.9 1.4.9 2.2 1.6-.5.3-.7.9-1.4.8 0 0-.2.2-.1.3 0 .3 0 .5-.3.7zm-13.1 3.2c-.5-.2-1.1-.6-1.1-1.3 0-.4-.5-.7-.3-1.2.6-1.4 1.7-2.1 3.2-1.4.3.2.7.3 1 .5.8.6 1 .8.8 1.9v.6c0 .6-.4 1-1 1.2-.2.1-.5.2-.8.3 0-.2.1-.3.1-.3-.7-.1-1.3-.1-1.9-.3zm-15-64.5c-.2-.6.2-1.3.7-1.6 1.1-.5 2.2-.5 3.3-.2.8.2 1.1.7 1.3 1.4 0 .1 0 .1-.1.2-.1.5-.2 1.1-.3 1.6-.1.6-.7.8-1.2 1-.9.3-1.5-.1-2.2-.5-.4-.2-.9-.2-1.3-.6-.2-.2-.2-.4-.3-.7.1-.2.1-.4.1-.6zM19.4 97.4c1 .9 1.3 2 .5 3.2-.5.8-1 1.7-1.8 2.3-.6.5-1.4.7-2.1 1-.9-.5-1.9-.6-2.4-1.5-.2-.4-.6-.6-.9-.9-.8-1.1-.8-2.1-.1-3.2.2-.3.4-.7.7-1 .4-.6 1.1-.8 1.7-.9 1.7-.2 3.2 0 4.4 1zm0-11.6c.2-.5.5-1 1.3-.7v-.2c.6.3 1.1.5 1.7.8.1.1.2.3.2.4 0 .5-.9 1.6-1.4 1.7-.1 0-.3 0-.4-.1-.5-.3-.9-.6-1.3-1.1-.2-.1-.2-.6-.1-.8zM17 68.9c-.7.8-1.5 1.3-2.5 1.5-.3 0-.5-.1-.8-.2-.2-.1-.3-.2-.5-.2-.5-.1-.9-.4-1.1-.9-.2-.4-.5-.8-.3-1.4 0-.1-.1-.2-.2-.3.1-.2.3-.3.3-.4.2-1 1-1 1.7-1.3.3-.1.6-.5 1.1-.3.9.4 1.8.8 2.5 1.7.5.8.6 1-.2 1.8zm-4.1 17.3c.2.1.3.4.5.7-.3.1-.5.1-.6.1-.3.9-.5 1.6-.8 2.4l-.1-.1c-.3.1-.6.2-.9.2-.7 0-1.3-.1-1.9-.6-.2-.2-.5-.4-.7-.7-1-1.5-.1-2.2 1.2-2.7 1.3-.4 2.3.2 3.3.7zm.2 59.4c.1.1.3.1.4.1.8.2 1.1.7 1 1.5v.3c.2.8-.2 1.3-.6 1.9-.1.1-.4.1-.6.1-.6 0-1.2.2-1.8-.1-.2-.1-.5-.2-.6-.3-.4-.5-1.2-.9-1-1.7 0-.6.1-1.3.7-1.6.7-.5 1.6-.7 2.5-.2zm1.2-10.3c0-.3.3-.7.5-.9.7-.6 1.5-.7 2.4-.6.1 0 .2.1.3.1 1.4.2 1.3.2 1.5 1.7 0 1-.6 1.8-1.3 2.6-.3.2-.8.2-1.3.2-.2 0-.5-.3-.7-.5-.1-.1-.1-.3-.2-.3-.9-.5-1.1-1.4-1.2-2.3zm4.5-12.6c-.1-.2-.4-.3-.6-.5l-.3-.3c-.3-.8-.6-1.6-.8-2.4-.3-1.4 1-3.1 2.4-3.2.3 0 .6-.1.8-.1 1.5.1 2.7.5 3.5 1.6.5.7.7 1.6.3 2.5 0 .1-.1.1-.1.1-.2 1.7-1.4 2.5-2.8 3.1-.4.2-.9.1-1.3 0-.4 0-.9-.2-1.1-.8zm5.1 17.3c.8-.6 1.7-.4 2.5-.2.2 0 .3.1.5.1.7.2.9.7.6 1.4-.2.5-.5.9-.6 1.3-.3.1-.6.1-.8.2-.6.2-1.1.1-1.5-.4-.2-.2-.5-.4-.8-.6-.6-.5-.5-1.4.1-1.8zm3.3-64c.1-.5.1-1.2.5-1.6.5-.5 1.1-.9 1.9-.8 0 0 0-.1.1-.2.9.3 1.8.7 2.7 1.1.3.1.3.6 0 .7-.7.2-.8.9-1.2 1.5-.3.4-.5.8-.8 1.2-.3.3-.7.4-1.1 0l-1.1-1.1c-.1-.1-.3-.1-.4-.3-.3-.1-.6-.4-.6-.5zm5.4 11.3c.7 0 1.4.2 2 .7.3.3.7.5.7 1 0 .3-.2.6-.2.9-.1 1.1-.8 1.6-1.7 1.9-.2.1-.4-.1-.6-.1-.5 0-.9.1-1.4 0-.3 0-.5-.3-.8-.5-.3-.3-.5-.6-.7-.9-.1-.1-.1-.2-.1-.3.1-.3.1-.6.3-.9.7-.8 1.3-1.7 2.5-1.8zm-1.9 15.6c.1 0 .1-.1.2-.1 1.1.1 2.3-.2 3.3.3.5.2 1 .6 1.4 1 .3.4.4.9.4 1.4 0 .6 0 1.1-.3 1.5-.6.8-1.3 1.7-2 2.4-.4.4-.9.8-1.5.3-.1-.1-.5 0-.6-.1-.3-.2-.6-.5-.9-.8-.4-.5-.6-1.1-1.1-1.5-.4-.3-.4-1.1-.5-1.7h.2c-.4-1.3.6-2 1.4-2.7zm-.7 20.2c.3-1.1 1.3-.9 2.3-.9.4 0 .9.1 1.4.2.5.1 1 .8.9 1.3-.1.5-.3.9-.5 1.3-.4.9-1.4 1.1-2.2.6-.5-.3-1-.6-1.4-.9-.2-.2-.6-.4-.7-.6 0-.3.1-.7.2-1zm7.3-56.3c-.2 0-.5-.3-.7-.5-.1-.1-.1-.3-.2-.3-1-.4-1.2-1.3-1.2-2.2 0-.3.3-.7.5-.9.7-.6 1.5-.7 2.4-.6.1 0 .2.1.3.1 1.4.2 1.3.2 1.5 1.7.1 1-.6 1.8-1.3 2.6-.3.2-.8.2-1.3.1zM60.2 9.7c0-.8.6-1 1.1-1.2.4-.2.9-.2 1.5-.4.8.3 1.6.6 2.5 1 .2.1.3.5.3.8 0 .1-.2.3-.4.4-.5.2-.3.8-.5 1.2-.2.3-.3.8-.6 1-.2.2-.6.2-.9.1-1-.3-1.9-.9-2.8-1.4-.2-.1-.5-.4-.2-.8.1-.1 0-.4 0-.7zm22.1 79.5c.3.4.4.9.6 1.4h-.2c-.1.1-.2.2-.2.3 0 .2.1.4.1.6 0 .5-.7 1.1-1.1 1.3-.9.4-1.7 0-2.5-.4-.1-.1-.2-.2-.2-.3-.5-.5-.9-1-1.4-1.5-.3-.3-.4-.6-.2-1 .4-.8.8-1.4 1.7-1.7.9-.2 1.8-.5 2.8-.7.4-.1.5.2.5.5-.4.7-.2 1.1.1 1.5zm9.5-7.4c.4.4.1.7-.1 1-.2.2-.5.4-.8.6h-.1c-1.1.1-2.2.1-3.2-.3-.4-.2-.5-.4-.4-.8.2-.5-.1-1.2.5-1.6.5-.3 1.1-.6 1.7-.8.3-.1.6-.5 1-.2.3.2.7.3.9.5.2.2.6.4.3.8-.1.2 0 .6.2.8zm-.1-43.7c0 .4-.2 1-.4 1.3-.5.6-1.2 1.1-1.9 1.5-.5.3-1.5-.2-2-.5-.6-.4-.7-1.1-1.1-1.6-.8-1.2-.2-2.1.2-3.2.1-.3.3-.6.4-.9.1 0 .4 0 .6-.2.4-.3.8-.1 1.3 0 .9.2 1.5.8 2.2 1.3.8.5.8 1.5.7 2.3zM85.9 55c.9-.2 1.8-.5 2.8-.7.4-.1.5.2.5.5-.1.5.1.9.4 1.4.3.4.4.9.6 1.4H90c-.1.1-.2.2-.2.3 0 .2.1.4.1.6 0 .5-.7 1.1-1.1 1.3-.9.4-1.7 0-2.5-.4-.1-.1-.2-.2-.2-.3-.5-.5-.9-1-1.4-1.5-.3-.3-.4-.6-.2-1 .1-.7.5-1.4 1.4-1.6zm-1.7 11.5c1-.6 2-.6 2.9 0 .1.1.1.3.1.5 0 .4-.1.8 0 1.1.1.6-.3 1-.6 1.3-.4.5-1.6.6-2.1.3l-.6-.3c-.3-.2-.9-.5-.8-.7.1-.8.1-1.8 1.1-2.2zm-2 83.8c.1.5-.1 1-.2 1.5-.1 0-.1-.1-.2-.1s-.3.1-.4.1c-.1.2-.1.4-.3.6-.3.4-1.2.6-1.6.6-1-.1-1.5-.8-2-1.6-.1-.1 0-.3-.1-.4-.2-.7-.3-1.4-.5-2-.1-.4 0-.7.3-1 .7-.5 1.4-.8 2.3-.6.9.3 1.8.5 2.7.8.4.1.4.4.1.7-.1.4-.1.8-.1 1.4zm-1.9 9c.1.5-.2.9-.8.9-.5 0-.7.3-.9.7-.1.4-.5.8-.7 1.2-1-.6-1.9-1.1-2.7-1.6-.1-.4-.1-.7-.2-1-.2-.5.1-.8.3-1 .8-.5 1.7-.9 2.7-.7.6.1 1.2.2 1.7.3.5.1.8.4.6 1-.1 0-.2 0-.3-.1.2.1.3.2.3.3zm-.3 7c-.3.6-.3 1.3-1 1.6-.3.1-.5.3-.7.4-.9 0-1.4-.6-1.9-1.1-.4-.3-.6-.7-.9-1.1-.1-.2-.1-.5 0-.7.6-.8 2-1.2 2.9-.8.4.2.7.3 1.1.5.6.4.7.7.5 1.2zm-6.4-57.1c-.6-.1-1.5-.9-1.4-1.4 0-.3.3-.7.6-.9.6-.4 1.3-.9 2.1-.8.3 0 .5.1.5.5.1.5.3.9.5 1.4.3.8.2 1.1-.7 1.2-.2 0-.5 0-.8-.1-.1.1-.1.3-.2.4 0-.1 0-.2.1-.3h-.7zm5.3-83.7c0 .7 0 1.3-.5 1.9-.2.3-.4.5-.7.7-1.5 1-2.2.2-2.8-1.1-.5-1.1.1-2.2.5-3.2.1-.2.4-.3.7-.5.1.3.1.5.2.6.9.2 1.7.5 2.5.7l-.1.1c0 .2.2.5.2.8zm-.7 28.8c-.9.4-1.5.3-2-.6-.2-.5-.6-.9-.7-1.4-.1-1.2.1-2.4 1-3.2.1-.1.6-.1.7 0 .7.5 1.6.8 2 1.7.2.4.3.7.5 1.1.1.7-.8 2.1-1.5 2.4zm1.7 17.8c.2.5.3 1.1.5 1.6.2.6-.4 1.8-1.1 2.1-.3.2-.6.2-1 .1-.5-.2-1-.2-1.4-.5-.7-.3-.9-.9-1-1.6-.1-.6.8-1.6 1.5-1.7.7-.1 1.4-.5 2.1 0 0 .1.3 0 .4 0zm-5-35.5c.2-.5.5-.9.8-1.4l.3-.3c.1.2.3.4.3.6 0 .3.2.4.4.5.7.2 1 .8 1.3 1.4.1.2 0 .6-.1.8-.4.7-.8 1.5-1.7 1.6-.4 0-.8-.3-1.1-.6-.6-.7-.6-1.7-.2-2.6zm1.3 62.2l1.8.3c.2 0 .4.3.4.5-.1.7-.2 1.3-.4 1.9-.2.7-.9.4-1.3.6-1.1-.1-1.9-.7-2.5-1.4-.1-.1-.1-.4-.1-.5.2-.8 1.2-1.5 2.1-1.4zm2.6 16.6c-.1.3-.2.6-.2.9 0 .4-.4.4-.6.5-.3.1-.6.1-.9.2-.5.1-1 .2-1.3-.4-.1-.1-.3-.2-.6-.2-.1-.5-.1-1-.2-1.6 0-.6.9-1.3 1.4-1.3.7 0 1.4.1 2 .5.5.2.7.9.4 1.4zm3.7 10.4c-.3-.4-.7-.7-1-1.1-.4-.6-.3-1.3-.1-1.9.2-.5 1.5-1 2.1-.8.7.2 1.4.3 1.8 1.1 0 .1.3.1.4.2-.1.5-.2 1.1-.4 1.6-.2.6-1.3 1.3-2 1.3-.2 0-.5-.1-.8-.4zm1.2-17.7c.2.1.4.2.7.4-.1.5-.3 1.1-.4 1.6-.1.3-.8.4-1.3.3-.4-.1-.8-.3-1.1-.4-.7-.2-.9-.6-.6-1.3.5-1.1 1-1.1 2-.9.2.1.5.2.7.3zm-3.3-103c0 .3-.3.6-.5.8-.2.3-.6.5-.8.7-.1.1-.2.1-.3.1-.3-.1-.6-.1-.9-.3C77 5.8 76.1 5.2 76 4c-.1-.7.1-1.4.6-2 .3-.3.5-.7 1-.7.3 0 .6.2.9.2 1.1.1 1.6.8 2 1.6.1.2-.1.4-.1.6 0 .5.1.9 0 1.4zm-3.6 10.3v.4c-.3.5-.6 1-1 1.3-.2.2-.6.2-.9.1-.5-.2-1-.5-.8-1.3h-.2c.2-.6.5-1.1.7-1.7.1-.1.3-.2.4-.2.6 0 1.7.9 1.8 1.4zm-2.3 46c0 .2.1.5.2.7.4.8-.2 1.2-.6 1.7-.1.2-.5.2-.8.2h-.2c-.9.4-1.4-.4-2-.6-.2-.1-.3-.6-.2-.8.3-.5.2-1.3.9-1.6l1.2-.6c.6-.2 1.4.3 1.5 1zm-2.9 20.5c.8-.2 1.5.3 1.8.8.3.4.1 1.2 0 1.8-.1.4-.4.6-.9.6-.1 0-.3 0-.4-.1-.1 0-.2-.1-.2-.1-.3.1-1.4-.2-1.7-.4-.2-.1-.4-.3-.6-.4v-.2c.1-.5 0-1.2.2-1.4.5-.3 1.2-.5 1.8-.6zm-.8 86.3c.1.4-.8 1-1.2 1-.6-.1-1.2-.3-1.7-.8-.4-.4-.4-.8-.1-1.2.6-.9 1.7-1.3 2.8-1 .3.1.5.4.8.6-.3.5-.7.8-.6 1.4zm1.1 8c.1 0 .1.1.3.3-.2.1-.4.3-.6.3-.3 0-.4.2-.5.5-.2.7-.8 1-1.4 1.4-.2.1-.6 0-.8-.1-.7-.4-1.6-.7-1.6-1.7 0-.3.3-.8.6-1.1.8-.7 1.7-.7 2.6-.3.4.1.9.5 1.4.7zm-6.7-34.7c0-.2-.1-.4 0-.5.7-.6 1.4-1.4 2.5-1.3.7 0 1.4.2 1.8.9.2.3.5.6.7.9 0 .1.1.2 0 .3-.5.6-.5 1.3-.7 2-.2.5-.6.7-1.2.6-.3 0-.6-.3-.9 0-.3-.3-.7-.5-1-.8-.2-.2-.4-.4-.6-.5-.3-.2-.7-.3-.5-.8.1-.3-.1-.6-.1-.8zm-14.5-24.8c0 .5-.1 1-.1 1.5-.6.2-1.2.6-1.8.7-.5.1-1.1 0-1.7-.1-.3 0-.6-.2-1-.2H46c-.4-.6-1-1.1-1.3-1.7-.2-.4 0-1 .2-1.5.5-1 1.1-1.9 2.4-1.8 1.4.1 2.8.3 3.9 1.4.4.3.3.6.1.9-.4-.2-.7-.7-1.2-.3.4.2.7.6.6 1.1zm-2.6 22c-.2.5-.4 1-.9 1.3-.9.6-1.8.8-2.8.2-.4-.2-.8-.3-1.1-.7-.3-.3-.3-.8-.4-1.2-.1-.2-.1-.5-.3-.6-.7-.6-.8-1.5-.4-2.3.2-.3.3-.6.5-.8.6-.7 1.5-.8 2.3-.6.9.2 1.8.7 2.7 1 .6.2.8.7.8 1.3 0 .3-.3.7-.6 1.1.4.3.5.7.2 1.3zm-6.4-12.5c.3-.5.2-1.3.9-1.6l1.2-.6c.6-.2 1.4.3 1.5.9 0 .2.1.5.2.7.4.8-.2 1.2-.6 1.7-.1.2-.5.2-.8.2h-.2c-.9.4-1.4-.4-2-.6-.1 0-.3-.5-.2-.7zm-.2-27.9c-.4-.6-.1-.7.1-1.1.4-.9 1.1-1.3 2-1.5.3-.1.6-.1.8-.1 1.2.1 2.5 1 2.7 2 .1.4 0 1.1-.2 1.4-.4.6-1 1-1.6 1.4-.3.2-.8.3-1.2.3-.4-.1-.8-.3-1.1-.6-.7-.5-1.1-1.1-1.5-1.8zm9.8-8.8h-.2c-.9.4-1.4-.4-2-.6-.2-.1-.3-.6-.2-.8.3-.5.2-1.3.9-1.6l1.2-.6c.6-.2 1.4.3 1.5.9 0 .2.1.5.2.7.4.8-.2 1.2-.6 1.6-.2.4-.6.4-.8.4zm-.4-37.9c.3-1.1 1.3-.9 2.3-.9.4 0 .9.1 1.4.2.5.1 1 .8.9 1.3-.1.5-.3.9-.5 1.3-.4.9-1.3 1.1-2.2.5-.5-.3-1-.6-1.4-.9-.2-.2-.6-.4-.7-.6 0-.3.1-.6.2-.9zm1.5 51.5c.5-.5 1.1-.9 1.9-.8 0-.1 0-.1.1-.2.9.3 1.8.7 2.7 1.1.3.1.3.6 0 .7-.7.2-.8 1-1.2 1.5-.3.4-.5.8-.8 1.2-.3.3-.7.4-1.1.1l-1.1-1.1c-.1-.1-.3-.1-.4-.2-.2-.2-.5-.4-.5-.6 0-.7 0-1.3.4-1.7zm5.1 33.9c.6-.2 1.4.3 1.5.9 0 .2.1.5.2.7.4.8-.2 1.2-.6 1.7-.1.2-.5.2-.8.2h-.2c-.9.4-1.4-.4-2-.6-.2-.1-.3-.6-.2-.8.3-.5.2-1.3.9-1.6.4-.1.8-.3 1.2-.5zm-.2 21.9c.5-.3.9-.6 1.4-.7 1.2-.2 2.4.1 3.3 1 .1.1.1.6 0 .7-.5.7-.8 1.6-1.6 2.1-.4.2-.7.4-1.1.5-.8 0-2.2-.9-2.5-1.6-.5-.9-.4-1.5.5-2zm1.9-63c-.3 0-.7.1-.8-.4-.1-.2-.4-.4-.5-.6-.1-.1-.2-.3-.2-.4.3-.9.5-1.9 1.5-2.4.6-.4 1.3-.5 2-.1.3.2.7.3 1.1.4.1 0 .2.1.2.2-.1.8.2 1.4.4 2.1.1.6-.2.9-.8 1.1-.2.1-.7 0-.7.5-.4-.1-.9-.1-1.3-.2-.3-.1-.6-.2-.9-.2zm3.1-8.9c-.4.1-.9-.1-1.3.2-.1.1-.5-.2-.8-.3-.3-.1-.7-.2-1-.3-.7-.2-1.3-1.6-.9-2.3.2-.3.3-.7.4-1 .6-1 1.5-1.4 2.5-1.5h1.6c.6 0 .7.3.9 1 .2.7-.1.8-.7 1 .1.4.2.8.2 1.2 0 .6.3 1.3-.4 1.7-.1.2-.3.2-.5.3zm4.6-56.5c-.3.4-.7.6-1.1.8-.2.1-.5.1-.7 0-.8-.6-1.2-2-.7-3 .2-.4.4-.7.5-1.1.2-.5.5-.6 1.1-.3.6.3 1.3.3 1.6 1 .1.3.3.5.4.7 0 .9-.7 1.4-1.1 1.9zm1.7 6.8c-.1.6-.3 1.2-.8 1.7-.4.4-.8.3-1.2.1-.9-.7-1.3-1.8-.9-2.8.1-.3.4-.5.7-.8.4.4.7.8 1.3.6.3-.1 1 .8.9 1.2zm-3.7 10c1.4.1 2.8.3 3.9 1.4.4.3.3.6.1.9-.4-.2-.7-.7-1.2-.3.2.5.5.9.5 1.4 0 .5-.1 1-.1 1.5-.6.2-1.2.6-1.8.7-.5.1-1.1 0-1.7-.1-.3 0-.6-.2-1-.3h-.1c-.4-.6-1-1.1-1.3-1.7-.2-.4 0-1 .2-1.5.5-1.2 1.2-2.1 2.5-2zm-2.5 11.3c.2-.3.5-.5.8-.6.3-.2.7-.3 1-.3.9-.1 1.6.5 2.4.9.1.1.2.4.2.6 0 .6-.1 1.1-.2 1.7-.3 1.3-1 1.4-2.2 1.5-.1 0-.5 0-.6-.2-.4-.6-1.1-1-1.5-1.7-.5-.9-.3-1.4.1-1.9zm1.1 48.3c1.1-1 3.2-1.2 4.6-.3-.2.6-.5 1.2-.7 1.8l-.3 1.2c-.2.6-1 .8-1.5.4-.3-.2-.7-.3-1.1-.5-.8-.4-1.3-1-1.2-1.9 0-.2 0-.5.2-.7zm6-87.6c-.7.2-.8 1-1.2 1.5-.3.4-.5.8-.8 1.2-.3.3-.7.4-1.1 0-.4-.3-.7-.7-1.1-1.1-.1-.1-.3-.1-.4-.2-.2-.2-.5-.4-.5-.6.1-.5.1-1.2.5-1.6.5-.5 1.1-.9 1.9-.8 0-.1 0-.1.1-.2.9.3 1.8.7 2.7 1.1.3.1.3.6-.1.7zm-8.2 49.5c.6.2.8.7.8 1.3 0 .3-.3.7-.6 1.1.3.4.4.8.1 1.4-.2.5-.4 1-.9 1.3-.9.6-1.8.7-2.8.2-.4-.2-.8-.4-1.1-.7-.3-.3-.3-.8-.4-1.2-.1-.2-.1-.5-.3-.6-.7-.6-.8-1.5-.4-2.3.2-.3.3-.6.5-.8.6-.7 1.5-.8 2.3-.6 1 .1 1.9.6 2.8.9zm-4.8-33.3c-.6.8-1.3 1.7-2 2.4-.4.4-.8.8-1.5.3-.1-.1-.5 0-.6-.1-.3-.2-.6-.5-.9-.8-.4-.5-.6-1.1-1.1-1.5-.4-.3-.4-1.1-.6-1.7h.2c-.3-1.4.7-2 1.5-2.8.1 0 .1-.1.2-.1 1.1.1 2.3-.2 3.3.3.5.2 1 .6 1.4 1 .3.4.4.9.4 1.4.1.7.1 1.1-.3 1.6zM56 18.4c-.1 1.1-.8 1.6-1.7 1.9-.2.1-.4-.1-.6-.1-.5 0-.9.1-1.4 0-.3 0-.5-.3-.8-.5-.3-.3-.5-.6-.7-.9-.1-.1-.1-.2-.1-.3.1-.3.1-.6.3-.9.6-.9 1.3-1.8 2.5-1.8.7 0 1.4.2 2 .7.3.3.7.5.7 1 0 .3-.2.6-.2.9zM51.1 5.9c-.4.6-1 1-1.6 1.4-.3.2-.8.3-1.2.3-.4-.1-.8-.3-1.1-.6-.6-.5-1-1.1-1.4-1.8-.4-.6-.1-.7.1-1.1.4-.9 1.1-1.3 2-1.5.3-.1.6-.1.8-.1 1.2.1 2.5 1 2.7 2 0 .5-.1 1.1-.3 1.4zm-3.8 62.4c.2 0 .3.1.5.1.7.2.9.7.6 1.4-.2.5-.5.9-.6 1.3-.3.1-.6.1-.8.2-.6.2-1.1.1-1.5-.4-.2-.3-.5-.4-.8-.6-.5-.4-.4-1.4.2-1.7.7-.7 1.5-.5 2.4-.3zm-2.2-19.6c0 .1-.1.1-.1.1-.2 1.7-1.4 2.5-2.8 3.1-.4.2-.9.1-1.3 0-.5-.1-1-.3-1.2-.8-.1-.2-.4-.3-.6-.5l-.3-.3c-.3-.8-.6-1.6-.8-2.4-.3-1.4 1-3.1 2.4-3.2.3 0 .6-.1.8-.1 1.5.1 2.7.5 3.5 1.6.6.8.8 1.7.4 2.5zM39.3 82c.1-.2.1-.4 0-.7 0-.8.6-1 1.1-1.2.4-.2.9-.2 1.5-.4.8.3 1.6.6 2.5 1 .2.1.3.5.3.8 0 .1-.2.3-.4.4-.5.2-.3.8-.5 1.2-.2.3-.3.8-.6 1-.2.2-.6.2-.9.1-1-.3-1.9-.9-2.8-1.4-.2-.2-.5-.4-.2-.8zm3.5 71.8c.5-.1 1 0 1.5.2.8.3 1.5.6 2.2 1 .3.2.8 1.9.8 2.2.2.9-.5 1.6-.6 2.5 0 .2-.1.5-.1.8-.1-.3-.1-.3-.2-.5-.3.4-.5.8-.8 1.1-.6.7-1.8 1-2.7.6-1-.4-1.8-1.1-2.2-2-.4-.8-.6-1.8-.6-2.8-.1-1.2 1.4-2.9 2.7-3.1zm0 43.6l.3-.9c.2-.8.6-1.6 1.5-1.9.2-.1.5-.1.7 0 .7.4 1.6.6 1.9 1.5.1.2.3.4.3.6.1.6-.1 1.1-.1 1.7v.5c.1.3-.5 1.1-.8 1.1h-.7c-.2-.3-.4-.2-.8 0-.9.4-1.2.5-1.8-.3-.4-.4-.9-.9-.8-1.5.2-.3.2-.6.3-.8zm7.2-13.2c-.2.2-.5.2-.7.2l-.9-.3c-.5-.1-1.1-.1-1.6-.3-.3-.1-.5-.4-.8-.6-.2-.2-.3-.4-.5-.6h-.2c.1-.6.2-1.1.4-1.7l.1.1c.2-.3.4-.7.7-.9 1.2-.9 2-.7 3.3 0 .5.3 1 .8 1.3 1.3.2.5.3 1.2.1 1.6-.2.5-.7.8-1.2 1.2zm.8-16.8c-.2-.1-.3-.2-.4-.4-.5-.8-1.1-1.5-1.6-2.3.3-1.3 1.1-2 2.5-1.9 1.2.1 2.2.6 2.8 1.8-.1.1-.2.3-.2.5-.1 0-.2-.1-.3-.1-.3.6-.6 1.1-1 1.7-.3.4-1.4.8-1.8.7zm2.5-17.7c-.1.1-.1.2-.2.3-.7.6-1.9.3-2.4-.5-.2-.2-.4-.5-.7-.6-.7-.4-.6-1.6.2-2.1.4-.3.9-.5 1.4-.5.5 0 1 .2 1.4.5.5.3.9.8 1.5 1.3-.2 0-.4 0-.4.1-.3.4-.5.9-.8 1.5zm.4-18.4c-.1 0-.5 0-.6-.2-.4-.6-1.1-1-1.5-1.7-.4-.8-.2-1.2.2-1.8.2-.3.5-.5.8-.6.3-.2.6-.3 1-.3.9-.1 1.6.5 2.4.9.1.1.2.4.2.6 0 .6-.1 1.1-.2 1.7-.4 1.2-1.1 1.3-2.3 1.4zm2.2 42.3c.5-.2.9-.6 1.4-.7 1.2-.2 2.4.1 3.3 1 .1.1.1.6 0 .7-.5.7-.8 1.6-1.6 2.1-.4.2-.7.4-1.1.5-.8-.1-2.2-.9-2.5-1.6-.5-.9-.4-1.5.5-2zm4 24.6c-.5-.4-.9-.9-1.4-1.4-.2-.2-.4-.3-.6-.5-.1-.9.3-1.8 1-2.2.8-.5 1.8-.6 2.8-.2.3.1.7.2.9.4.3.2.4.6.5 1 .1.5-.1 1-.2 1.5s-.3.9-.7 1.3c-.5.5-1.7.6-2.3.1zm1.8-13c-.4.2-.7.4-1.1.5-.8 0-2.2-.9-2.5-1.6-.5-.9-.3-1.5.6-2 .5-.2.9-.6 1.4-.7 1.2-.2 2.4.1 3.3 1 .1.1.1.6 0 .7-.6.7-.9 1.6-1.7 2.1zm1.4-57.9c-.4-.1-.7-.5-1.2-.5-.2 0-.4-.4-.6-.6-.2-.3-.5-.5-.8-.7-.5-.5-.3-2 .3-2.4.3-.2.6-.5.9-.7 1-.5 2-.5 3 0 .5.2.9.5 1.4.8.5.3.4.7.2 1.3-.2.7-.5.7-1.1.5-.1.4-.2.8-.4 1.1-.3.5-.4 1.3-1.2 1.3-.1 0-.3-.1-.5-.1zm9.8 3.5l-.3-.3c-.1-.1-.1-.2-.2-.2-.3-.1-1.2-.9-1.3-1.2-.1-.2-.2-.4-.3-.7l.1-.1c.3-.4.5-1 .9-1.1.6-.1 1.3.1 1.9.3.8.2 1.1 1 1.2 1.7 0 .5-.5 1.1-.9 1.6-.3.3-.8.3-1.1 0zm7.3 44.5c1.1-.5 2.2.1 3.2.5.2.1.3.4.6.6-.3.1-.5.1-.6.2-.2.9-.4 1.7-.6 2.5l-.1-.1c-.3.1-.6.2-.9.2-.7 0-1.3 0-1.9-.4-.3-.2-.5-.4-.7-.7-1.1-1.5-.3-2.2 1-2.8zm7.2-27.1c.1-.3.1-.5.2-.7.3-.6 1-.9 1.8-.6.4.2.9.4 1.3.6h.4c.2 1-.4 1.5-1.1 2-.1 0-.2.1-.2.1-.6-.5-1.5-.2-1.9-1-.2-.3-.4-.4-.5-.4zM91 193c.1-.3.6-.3.7 0 .3.7 1 .8 1.5 1.1.4.2.9.5 1.2.8.3.3.4.7.1 1.1-.3.4-.7.8-1.1 1.2-.1.1-.1.3-.2.4-.2.2-.4.5-.6.5-.5-.1-1.2-.1-1.6-.4-.5-.5-.9-1.1-.9-1.9-.1 0-.1 0-.2-.1.5-.8.8-1.8 1.1-2.7zm.7-16.1h-.4c-.5-.3-1-.6-1.3-1-.2-.2-.2-.6-.1-.9.2-.5.5-1.1 1.2-.8v-.2c.6.2 1.1.4 1.7.7.1.1.2.3.2.4.1.5-.8 1.7-1.3 1.8zm-.4-40c-.2.1-.3.5-.2.7.2.5-.2.7-.5.8-.3.1-.6.1-1 .1h-.1c-1-.5-1.9-1-2.6-1.9-.3-.3-.3-.6 0-.9.4-.4.5-1.1 1.2-1.1.6 0 1.2 0 1.8.1.3.1.8-.2 1 .4.1.3.4.6.5.9.1.3.4.7-.1.9zm-.3-13.3l-.3-.6c-.2-.3-.5-.9-.4-1 .5-.6 1-1.5 2-1.3h.1c1.1 0 1.9.5 2.4 1.5.1.1 0 .3-.1.5-.2.3-.5.6-.6.9-.2.6-.7.7-1.2.9-.6.1-1.6-.4-1.9-.9zm.3-25c-.8.2-1.2.3-1.7-.3-.2-.3-.5-.4-.8-.7-.3-.2-.5-.6-.5-1 0-.2-.1-.4-.2-.6v-.3c.8-.7 1.5-1.5 2.9-1.5.6 0 1.2.4 1.8.8.1.1.2.3.3.5.1.3.2.7.2 1-.1.5-.3 1-.7 1.4-.4.4-.9.6-1.3.7zm1.8-52.8c.1-.3.2-.7.4-.9.3-.2.6-.4 1-.5.5-.1 1 .2 1.5.3.5.1.9.4 1.3.7.5.5.6 1.8.1 2.3-.4.5-1 .9-1.4 1.3-.2.2-.3.4-.6.6-.9.1-1.8-.3-2.2-1.1-.5-.7-.5-1.8-.1-2.7zm-1.4-23.4c-.4.2-.5.6-.9.9-1 .8-2.1.9-3.2.2-.3-.2-.7-.4-1-.7-.6-.4-.9-1.1-1-1.7-.2-1.5-.1-3 .9-4.3.9-1.1 2-1.4 3.2-.7.8.5 1.7 1 2.3 1.7.5.5.7 1.4 1 2.1-.4.9-.4 1.9-1.3 2.5zm-51.4-8.2c.2-.5.5-1 1.3-.7v-.2c.6.3 1.1.5 1.7.8.1.1.2.3.2.4 0 .5-.9 1.6-1.4 1.7-.1 0-.3 0-.4-.1-.5-.3-.9-.6-1.3-1.1-.2-.1-.2-.5-.1-.8zm0 11.7c1 .9 1.3 2 .5 3.2-.5.8-1 1.7-1.8 2.3-.6.5-1.4.7-2.1 1-.9-.5-1.9-.6-2.4-1.5-.2-.4-.6-.6-.9-.9-.8-1.1-.8-2.1-.1-3.2.2-.3.5-.7.7-1 .4-.6 1.1-.8 1.7-.9 1.7-.2 3.2-.1 4.4 1zm-6.6-10.5c-.3.9-.5 1.6-.8 2.4l-.1-.1c-.3.1-.6.2-.9.2-.7 0-1.3-.1-1.9-.6-.2-.2-.5-.4-.7-.7-1-1.5-.1-2.2 1.2-2.7 1.2-.5 2.2.2 3.2.6.2.1.3.4.5.7-.2.2-.4.2-.5.2zM31 5c-.3.6-.3 1.3-1.1 1.6-.3.1-.5.3-.7.4-.9-.1-1.3-.7-1.8-1.2-.3-.3-.6-.7-.8-1.1-.1-.2 0-.5.1-.7.6-.8 2-1.1 3-.6.4.2.7.4 1.1.6.3.2.4.5.2 1zm-4 36.3c.3-.4.8-.8 1.2-.8.9-.1 1.7.2 2.5.6.3.2.6.4.8.6.7.5.7.9.4 1.6-.2.4-.3.8-.5 1.1-.2.3-.4.6-.6.8-.2.2-.5.4-.8.6-.8.6-1.5.4-2.2 0-.5-.3-1.4-2.2-1.4-2.9.1-.4.2-1.1.6-1.6zm-.5 10.1c.2-.3.5-.5.8-.6.3-.2.6-.3 1-.3.9-.1 1.6.5 2.4.9.1.1.2.4.2.6 0 .6-.1 1.1-.2 1.7-.3 1.3-1 1.4-2.2 1.5-.1 0-.5 0-.6-.2-.4-.6-1.1-1-1.5-1.7-.5-.8-.3-1.3.1-1.9zm1.3 9.1c0 .1.1.1.1.2 0 .6-.1 1.2-.2 1.7-.1.7-1.2 1.2-1.9.9-1-.4-1.6-1.2-2.1-2.1-.1-.2-.1-.5 0-.7l.9-1.2c.2-.1.5-.1.8-.1 1.1 0 1.8.6 2.4 1.3zM22.9 5.4c-.7-.2-1.3-.6-2.2-.8-.2-.4-.7-.8-1.4-.9 0-.4 0-.7-.1-1-.1-.7.4-1 1-1.2 1-.6 1.8-.5 2.7 0 .1.1.2 0 .4 0 0 .1 0 .2.1.4h.5c.4 1.4 0 2.6-1 3.5zm-2 8.2c.5.2.9.6 1.4.8.1 0 .1.1.3.3-.3.1-.4.3-.6.3-.3 0-.4.1-.5.4-.2.7-.9 1-1.4 1.3-.2.1-.6 0-.8-.1-.7-.4-1.5-.8-1.5-1.8 0-.4.4-.8.7-1 .6-.7 1.5-.6 2.4-.2zm-2.5 11.3c1.2-.8 2.1-.2 3.1.3.3.1.5.3.9.5 0 .1 0 .4.1.6.2.4.1.8 0 1.3-.2.9-.9 1.5-1.4 2.2-.5.8-1.5.7-2.3.6-.4-.1-1-.2-1.2-.5-.6-.6-1-1.2-1.5-1.9-.3-.5.2-1.5.5-2 .6-.7 1.2-.8 1.8-1.1zm-1.7 18.8c.6.1 1.2.4 1.8.6.1 0 .2.2.2.3.1.3.1.5.1.8.1 1-.2 1.9-1.1 2.4-.5.2-1 .4-1.6.4-.3 0-.6-.4-.9-.7-.6-.5-1.1-1.1-1.2-1.9 0-.2 0-.5.1-.7.5-1.3 1.4-1.4 2.6-1.2zm-2.2 11.4c.3 0 .7.8.7 1.3-.1.7-.5 1.3-1.1 1.8-.4.3-.8.3-1.2 0-.3-.3-.6-.4-1 0-.2-.4-.3-.7-.4-1.1 0-.2 0-.5.1-.6.2-.3.5-.5.6-.8.2-.5.6-.5.9-.5.4-.2.9-.1 1.4-.1zM8.7 74.9c.4.2.7.4 1.1.6.4.3.6.6.3 1.1-.3.6-.3 1.3-1.1 1.6-.3.1-.5.3-.7.4-.9-.1-1.3-.7-1.8-1.2-.3-.3-.6-.7-.8-1.2-.1-.2 0-.5.1-.6.5-.8 1.9-1.1 2.9-.7zm-2.6 38c.3-.4.8-.8 1.2-.8.9-.1 1.7.2 2.5.6.3.2.6.4.8.6.7.5.7.9.4 1.6-.2.4-.3.8-.5 1.1-.2.3-.4.6-.6.8-.2.2-.5.4-.8.6-.8.6-1.5.4-2.2 0-.5-.3-1.4-2.2-1.4-2.9.1-.5.2-1.1.6-1.6zm.9 19.2c0 .1.1.1.1.2 0 .6-.1 1.2-.2 1.7-.1.7-1.2 1.2-1.9.9-1-.4-1.6-1.2-2.1-2.1-.1-.2-.1-.5 0-.7l.9-1.2c.2-.2.5-.1.8-.1 1 0 1.7.5 2.4 1.3zm-3.9 68.5c.5-.3.8-1 1.5-.9.5 0 .9.1 1.4.1.6.1 1.1 1 .8 1.6-.1.2-.2.5-.2.7 0 .9-.8.9-1.3 1.1-.2.1-.5-.1-.8-.2-.1 0-.1-.1-.2-.1-1-.1-1-1-1.4-1.5-.2-.1 0-.7.2-.8zm2.6-13.4c-.4-.4-.8-.9-.8-1.5 0-.1-.2-.2-.4-.4.2-.5.3-1.1.7-1.6.3-.4.8-.8 1.2-1.1 1.1-.7 1.9-.4 2.6.8.4.8.8 1.5.7 2.4l-.1-.1c-.2.2-.5.3-.5.5-.3 1.1-1.1 1.3-2.1 1.5-.6.1-1-.1-1.3-.5zm1.4-18c-.9-1-1.2-2.3-1.2-3.6 0-1 .4-1.7 1.2-2.3.8-.6 1.5-.5 2.3-.5.9.1 1.9.1 2.5 1 .3.4.3.9.4 1.4.1.3-.1.6 0 .9.1.5.2.9.1 1.4-.1.6-.7 2.2-1.1 2.4-.5.3-1 .4-1.5.5-1.2.3-2-.4-2.7-1.2zm5.1 39.5c.6-.5 1.1-.8 1.9-.7.2 0 .5.2.7.3.7.6.8 1.4.8 2.2 0 .1-.2.2-.2.3-.2.2-.6.3-.5.8l-.1.1c-.4.1-.8.2-1.1.3-.4.1-.6-.1-.8-.4-.4-.6-.5-.6-1-.3-.8-.8-.6-1.8.3-2.6zm5.3-48.8c0-.1 0-.2-.1-.3-.6-.4-.3-1.1-.5-1.6-.1-.2.1-.5.3-.7.7-.8 1.5-1.2 2.6-1.3 1-.1 1.8 0 2.7.5.5.3.9.6 1.3 1 .2.2-.2 1.3-.4 1.5-.2.2-.4.4-.5.6-.2 1.1-1 1.8-1.7 2.5-.1.1-.3.1-.4.2v-.2c-.9.7-1-.2-1.5-.5-.4-.3-.9-.6-1.3-1-.3-.1-.4-.4-.5-.7zm4.6 18.1c.5-.6 1-1.4 1.8-1.4 1.6-.2 3.1 0 4.4 1.1.1.1.2.3.3.5.1.2.2.3.4.6.1 1.1-.4 2-1.6 2.5-.1 0-.3-.1-.5-.2v.5c.3 1.1-.1 2.1-.6 3.1-.3.6-1.4.6-2.1.3-1.1-.4-1.6-1.3-1.9-2.3-.2-.7-.4-1.3-.5-2-.2-1-.2-1.9.3-2.7zm2.3 21.1c.1-.3.2-.6.4-.8 0-.1.1-.2.2-.2.8-.5 1.6-.6 2.5-.3.6.2 1 .8.9 1.5-.2 0-.3-.1-.5-.1.2.8 0 1.4-.4 2-.1.1-.3.3-.5.3-.4.2-.9.3-1.3.4-.3-.2-.6-.4-.8-.7-.3-.3-.5-.6-.7-.9-.4-.6.1-.8.2-1.2zm1.7 9.7c.8-.8 1.6-.7 2.4.1.3.3.8.6.7 1.2v.2c-.4.6-.7 1.1-1.3 1.5-.1.1-.5 0-.6-.1-.4-.5-.8-1-1.4-1.4-.2-.1-.2-.6-.3-1l.5-.5zm3.3-49.6c.2-.2.5-.5.6-.8.1-.6.6-.6 1-.6.7-.1 1.5 0 2.2 0 .3 0 .7.2 1 .3l-.1.1.3.6c.1.2.3.4 0 .7-.1.1-.1.4-.2.6-.1.1-.1.4-.2.4-.5.1-.7.4-.9.8-.3.6-1 .6-1.5.7-.4.1-.9-.2-1.3-.4-.3-.2-.6-.6-.8-.9-.5-.5-.4-1.1-.1-1.5zm4 15.1c.1-.3.2-.7.1-1-.3-1 .3-1.6.8-2.2.5-.6 1-.7 1.8-.7 1.6 0 2.9.8 4 1.8.4.3.7.8 1 1.2.3.5-.2.6-.4.9-.2.2-.5.2-.7.3-.1.5-.1 1.1-.4 1.6-.4.5-.9 1.1-1.5 1.2-.7.2-1.4-.1-2.1-.2-.8-.1-1.5-.6-2.2-1.2-.5-.5-.6-1.1-.4-1.7zm6 13.9c.2 0 .5.1.6.2.4.5 1.2.7.9 1.4 0 1-.7 1.6-1.5 1.6s-2.1-.8-2.1-1.3c0-1.1 1-2 2.1-1.9zm56.9-28c.2.2.4.4.7.5.5.3.5.5.2 1-.3.4-.4.8-.6 1.3-.1.3-.1.7-.2 1-.1.5-.7.8-1.4.7h-.8c.2-.3.4-.4 0-.6-.5-.2-.9-.4-1.3-.8-.2-.2-.3-.6-.3-.9 0-.5.1-.9.2-1.4 0-.2-.1-.5-.1-.5.5-.4 1-.9 1.6-1 .7-.2 1.4.1 2 .7zM95 112.5c-1 .6-1.7.4-2.4-.5-.4-.4-.3-.8-.5-1.2 0-.9 1.3-1.8 2.2-1.5.5.2.9.4 1.4.6.1 0 .3 0 .3.1.1.1.3.3.3.5-.2.8-.6 1.5-1.3 2zm1.6-20c0 .1-.1.2-.2.2-.7-.1-1.4.6-2.1.1-.1-.1-.4 0-.5 0-.1-.2-.2-.5-.2-.7-.1-.7.4-1.3 1.2-1.4.5-.1.9-.1 1.4-.2.1 0 .2-.1.4-.2.6.6.4 1.4 0 2.2zm1.8-21.9c.2.7.2 1.4.3 2 0 .2 0 .3.1.5.2.7-.1 1.3-.8 1.5-.9.3-1.7.4-2.5-.2-.1-.1-.3-.1-.6-.1l-.3-1.5c-.1-.6.4-1.6 1-1.9.5-.3 1.1-.5 1.7-.8.3-.1 1 .1 1.1.5zM94.8 0c.3 0 .5.1.8.3.8.6 1.7 1.2 2.5 1.9.4.3.8.8.3 1.5-.1.1 0 .5 0 .6-.2.3-.5.7-.8.9-.5.4-1.1.6-1.5 1.2-.3.3-1.1.4-1.7.6v-.2c-1.3.3-2.1-.6-2.8-1.4 0 0-.1-.1-.1-.2 0-1.1-.2-2.3.2-3.3.2-.5.5-1 .9-1.4.4-.4.9-.4 1.5-.5h.7zM38 0c-.5.8-1 1-2 .6-.5-.2-1-.3-1.4-.6H38zM3.1 16.3c-.4-.9-.2-1.5.7-2 .5-.2.9-.6 1.4-.6 1.2-.1 2.3.2 3.2 1.2.1.1.1.6 0 .7-.5.7-.9 1.6-1.7 2-.4.1-.7.3-1.1.4-.9-.1-2.1-1-2.5-1.7zM1.9 61c.1-.8 1-1.4 2-1.4.3.2.8.5 1.3.8l.1.1c-.3.6-.1 1.5-1 1.7-.1 0-.1.1-.2.1-.5.5-.8.5-1.2 0-.2-.3-.4-.6-.7-.7-.5-.1-.3-.3-.3-.6zm32.7 152.9c-.3-.3-.4-.7-.6-1.1-.5-1.6.3-2.5 1.8-2.8 1.5-.4 2.6.1 3.7 1.1.3.3.6.6 1 .9-.6.7-1 1.5-2.1 1.4-.1 0-.1.1-.2.2s-.1.2-.2.3h-3.4z"/><path class="st0" d="M99.7 203.6c.1-.1.2-.1.3-.2v-.9c-.2.4-.6.6-.3 1.1z"/><path class="st1" d="M89.7 16.2c-1.2-.7-2.3-.4-3.2.7-1 1.3-1.1 2.8-.9 4.3.1.6.4 1.3 1 1.7.3.2.7.4 1 .7 1.1.7 2.2.6 3.2-.2.4-.3.5-.7.9-.9.9-.6.9-1.5 1.4-2.5-.3-.7-.5-1.5-1-2.1-.7-.7-1.6-1.2-2.4-1.7zM92.6.5c-.4.4-.7.9-.9 1.4-.5 1.1-.2 2.2-.2 3.3 0 .1 0 .1.1.2.8.8 1.5 1.7 2.8 1.4V7c.6-.2 1.3-.2 1.6-.6.4-.5 1-.8 1.5-1.2.3-.2.6-.6.8-.9.1-.2-.1-.5 0-.6.5-.6.1-1.1-.3-1.5-.8-.7-1.6-1.3-2.5-1.9-.2-.2-.4-.3-.7-.3h-.7c-.6.1-1.1.1-1.5.5zM91 35.8c-.7-.4-1.3-1.1-2.2-1.3-.5-.1-.8-.2-1.3 0-.2.1-.5.1-.6.2-.2.4-.3.6-.4.9-.5 1-1 2-.2 3.2.4.5.5 1.2 1.1 1.6.5.3 1.5.8 2 .5.7-.4 1.3-.9 1.9-1.5.3-.3.4-.8.4-1.3.1-.8.1-1.8-.7-2.3zM99.1 54.8c0 .1-.2.2-.3.3-.1.1-.2.1-.2.2 0 .2 0 .4-.1.6-.2.5-.3 1.1-.5 1.6.1.3.1.5.2.6.4.6.8 1.2 1.2 1.7.1.1.3.2.5.2v-5.5c-.3-.1-.6-.2-.8.3zM95.5 49.7c.2-.3.4-.5.6-.6.5-.4 1-.9 1.4-1.3.5-.6.4-1.8-.1-2.3-.4-.4-.7-.6-1.3-.7-.5-.1-1-.4-1.5-.3-.4.1-.7.3-1 .5-.2.2-.3.6-.4.9-.4.9-.4 2 .1 2.8.4.6 1.3 1 2.2 1zM80.4 3.1c-.4-.9-.9-1.6-2-1.6-.3 0-.6-.2-.9-.2-.5 0-.7.4-1 .7-.5.6-.7 1.3-.6 2 .1 1.2 1 1.8 1.9 2.4.2.2.6.2.9.3.1 0 .2 0 .3-.1.3-.2.6-.4.8-.7.2-.2.4-.5.5-.8.1-.4 0-.9-.1-1.4.2-.2.3-.5.2-.6zM77.3 49c-.2-.1-.6-.1-.7 0-.9.9-1.2 2-1 3.2.1.5.4.9.7 1.4.5.9 1.1 1.1 2 .6.7-.3 1.6-1.7 1.7-2.5-.2-.4-.3-.8-.5-1.1-.6-.7-1.5-1.1-2.2-1.6zM76.3 23.8c0-.1-.1-.3-.2-.6-.3.2-.6.3-.7.5-.4 1-1 2-.5 3.2.6 1.3 1.3 2.2 2.8 1.1.3-.2.5-.4.7-.7.5-.5.5-1.2.5-1.9 0-.3-.1-.6-.2-.9l.1-.1c-.8-.2-1.6-.4-2.5-.6zM66 26.9c-.5-.3-.8-.1-1.1.3-.2.4-.4.7-.5 1.1-.4 1-.1 2.3.7 3 .2.1.5.1.7 0 .4-.2.8-.5 1.1-.8.4-.5 1.1-1 1.1-1.9-.1-.2-.3-.5-.4-.7-.3-.7-1-.7-1.6-1zM75.2 39.3c.3.3.7.7 1.1.6.9-.1 1.3-.9 1.7-1.6.1-.2.2-.6.1-.8-.3-.6-.6-1.2-1.3-1.4-.3-.1-.4-.2-.4-.5 0-.2-.2-.4-.3-.6l-.3.3c-.3.5-.6.9-.8 1.4-.5.8-.5 1.8.2 2.6zM66.3 35.4c-.2.3-.5.5-.7.8-.4 1.1 0 2.2.9 2.8.4.3.8.3 1.2-.1.5-.5.7-1 .8-1.7.1-.4-.6-1.3-1-1.2-.5.2-.8-.2-1.2-.6zM74.7 14.2c-.3.5-.5 1.1-.7 1.7h.2c-.3.8.2 1.1.8 1.3.3.1.7.1.9-.1.4-.4.7-.9 1-1.3.1-.1.1-.3 0-.4-.1-.5-1.3-1.4-1.7-1.4-.3 0-.5.1-.5.2zM91.3 189.8c.7-1.2.4-2.3-.7-3.1-1.3-1-2.8-1.1-4.3-.8-.6.1-1.3.4-1.7 1-.2.3-.4.7-.6 1-.7 1.1-.6 2.2.3 3.2.3.4.7.5.9.9.6.9 1.6.9 2.5 1.3.7-.3 1.5-.6 2-1.1.6-.7 1.1-1.6 1.6-2.4zM72.8 188c-.1-.2-.1-.5-.2-.6-.4-.2-.6-.3-.9-.4-1-.4-2-1-3.2-.1-.5.4-1.2.5-1.6 1.1-.3.5-.7 1.5-.4 2 .4.7 1 1.3 1.6 1.8.3.3.8.4 1.3.4.8.1 1.8.1 2.3-.7.4-.7 1.1-1.4 1.2-2.3.1-.4.2-.7-.1-1.2zM63 196.8c.1-.5.4-1 .2-1.5-.1-.4-.3-.7-.5-1-.2-.2-.6-.3-.9-.4-1-.4-2-.3-2.8.2-.7.5-1.1 1.4-1 2.2.3.2.5.4.6.5.5.5.9 1 1.4 1.4.6.5 1.8.3 2.3-.2.3-.3.5-.7.7-1.2zM63.2 182.4c-.9-.9-2.1-1.1-3.3-1-.5.1-.9.5-1.4.7-.9.5-1 1.1-.6 2 .4.7 1.7 1.5 2.5 1.6.4-.2.7-.3 1.1-.5.8-.5 1.1-1.4 1.6-2.1.3-.2.3-.6.1-.7zM57.9 177.2c.4-.2.7-.3 1.1-.5.8-.5 1.1-1.3 1.6-2.1.1-.2.1-.6 0-.7-.9-.9-2.1-1.1-3.3-1-.5.1-.9.5-1.4.7-.9.5-1 1.1-.6 2 .4.7 1.8 1.6 2.6 1.6zM59.3 162.5c.4-.2.8-.3 1.1-.5.8-.5 1.1-1.4 1.6-2.1.1-.2.1-.6 0-.7-.9-.9-2.1-1.1-3.3-1-.5.1-.9.5-1.4.7-.9.5-1 1.1-.6 2 .4.7 1.7 1.6 2.6 1.6zM79.8 178.7c.6.4 1.2.5 1.9.4.3 0 .6-.2.9-.2l.1.1c.2-.8.4-1.6.6-2.5.1 0 .3-.1.6-.2-.2-.3-.3-.6-.6-.6-1-.4-2.1-1-3.2-.5-1.3.6-2.1 1.3-1.1 2.8.3.3.6.5.8.7zM79.6 165.3c-.4-.2-.7-.4-1.1-.5-1-.4-2.3 0-2.9.8-.1.2-.1.5 0 .7.2.4.5.8.9 1.1.6.4 1 1 1.9 1.1.2-.1.5-.3.7-.4.7-.3.7-1.1 1-1.6.1-.7 0-1-.5-1.2zM67.8 175.8c-.3.3-.6.7-.6 1.1.1.9.9 1.3 1.6 1.7.2.1.6.2.8.1.6-.3 1.2-.6 1.4-1.4.1-.3.2-.4.5-.5.2 0 .4-.2.6-.3l-.3-.3c-.5-.3-.9-.6-1.4-.8-.9-.3-1.8-.3-2.6.4zM98.2 183.1c-.1-.2-.3-.4-.4-.3-.3.1-.7.2-.8.4-.3.8-.5 1.7-.8 2.5.2.6.3 1.1.5 1.5.3.5.5 1.1 1.3 1 .2 0 .5-.1.7 0 .4.2.7-.1.8-.3l.6-1.2v-2.9l-.6-.3c-.5-.2-1.1.1-1.3-.4zM70.6 166.2c-1.1-.3-2.2.1-2.8 1-.2.4-.2.8.1 1.2.5.5 1.1.7 1.7.8.4 0 1.3-.6 1.2-1-.1-.6.2-.9.6-1.3-.3-.3-.5-.6-.8-.7zM81.5 87.3c-.9.2-1.8.5-2.8.7-.9.2-1.4.9-1.7 1.7-.2.4-.1.7.2 1 .5.5 1 1 1.4 1.5.1.1.1.3.2.3.8.4 1.6.8 2.5.4.4-.2 1.1-.9 1.1-1.3 0-.2-.1-.4-.1-.6 0-.1.2-.2.2-.3h.2c-.2-.5-.3-1-.6-1.4-.3-.4-.5-.8-.4-1.4.3-.4.1-.7-.2-.6zM84.2 56.7c-.2.4-.1.7.2 1 .5.5 1 1 1.4 1.5.1.1.1.3.2.3.8.4 1.6.8 2.5.4.4-.2 1.1-.9 1.1-1.3 0-.2-.1-.4-.1-.6 0-.1.2-.2.2-.3h.2c-.2-.5-.3-1-.6-1.4-.3-.4-.5-.8-.4-1.4.1-.4-.1-.6-.5-.5-.9.2-1.8.5-2.8.7-.6.1-1 .8-1.4 1.6zM63.3 85.1c0-.4-.1-.8-.2-1.2.5-.2.8-.3.7-1-.2-.7-.3-1-.9-1h-1.6c-1.1.1-2 .5-2.5 1.5-.2.3-.3.7-.4 1-.3.6.2 2.1.9 2.3.3.1.7.2 1 .3.3.1.7.4.8.3.4-.3.9-.1 1.3-.2.2 0 .4-.1.5-.2.7-.5.4-1.2.4-1.8zM62.1 95.8c.6-.2.9-.5.8-1.1-.2-.7-.5-1.4-.4-2.1 0-.1-.1-.2-.2-.2-.3-.1-.7-.2-1.1-.4-.7-.4-1.4-.2-2 .1-1 .5-1.2 1.5-1.5 2.4 0 .1.1.3.2.4.2.2.5.4.5.6.1.5.5.4.8.4.3 0 .5.1.8.1.4.1.9.1 1.3.2.1-.4.5-.3.8-.4zM97.2 70.1c-.6.2-1.1.5-1.7.8-.6.3-1.1 1.3-1 1.9.1.5.2 1.1.3 1.5.3.1.5 0 .6.1.8.6 1.6.4 2.5.2.7-.2 1-.8.8-1.5 0-.2-.1-.3-.1-.5-.1-.7-.2-1.4-.3-2 0-.4-.7-.6-1.1-.5zM77.4 72.1c-.6.1-1.5 1.2-1.5 1.7.1.6.4 1.3 1 1.6.5.2 1 .3 1.4.5.4.1.7.1 1-.1.6-.3 1.2-1.5 1.1-2.1-.2-.5-.3-1.1-.5-1.6-.2 0-.4.1-.5 0-.6-.4-1.3-.1-2 0zM91.3 80.3c-.3-.3-.7-.3-.9-.5-.4-.4-.7 0-1 .2-.6.2-1.1.5-1.7.8-.6.4-.3 1.1-.5 1.6-.1.4 0 .6.4.8 1 .4 2.1.4 3.2.3h.1c.3-.2.6-.4.8-.6.2-.3.5-.6.1-1-.2-.2-.3-.6-.2-.7.2-.6-.2-.8-.3-.9zM83.1 68.7c0 .2.5.5.8.7l.6.3c.5.3 1.7.2 2.1-.3.3-.4.7-.7.6-1.3-.1-.4 0-.7 0-1.1 0-.2 0-.4-.1-.5-.9-.6-1.9-.6-2.8-.1 0 0-.1 0-.1.1-1 .4-1 1.4-1.1 2.2zM99.8 85.1c.1 0 .1 0 .2.1v-2.3c-.4.3-.5 1-.7 1.5 0 .2.1.6.5.7zM73 60.4l-1.2.6c-.7.3-.6 1-.9 1.6-.1.2 0 .8.2.8.7.2 1.2 1 2 .6h.2c.3-.1.6-.1.8-.2.3-.5 1-.9.6-1.7-.1-.2-.2-.5-.2-.7-.1-.7-.9-1.2-1.5-1zM52.6 87.7c-.1-.2-.2-.5-.2-.7-.1-.6-.9-1.2-1.5-.9l-1.2.6c-.7.3-.6 1-.9 1.6-.1.2 0 .8.2.8.7.2 1.2 1 2 .6h.2c.3-.1.6-.1.8-.2.4-.7 1-1.1.6-1.8zM44 127.6h.2c.3-.1.6-.1.8-.2.3-.5 1-.9.6-1.7-.1-.2-.2-.5-.2-.7-.1-.6-.9-1.2-1.5-.9l-1.2.6c-.7.3-.6 1-.9 1.6-.1.2 0 .8.2.8.6.1 1.1.9 2 .5zM55.4 139.2c-.1.2 0 .8.2.8.7.2 1.2 1 2 .6h.2c.3-.1.6 0 .8-.2.3-.5 1-.9.6-1.7-.1-.2-.2-.5-.2-.7-.1-.6-.9-1.2-1.5-.9l-1.2.6c-.7.2-.6.9-.9 1.5zM69.6 84v.2c.2.2.4.3.6.4.3.2 1.4.5 1.7.4.1 0 .2.1.2.1.1 0 .3.1.4.1.4 0 .8-.2.9-.6.1-.6.3-1.4 0-1.8-.3-.5-1-1.1-1.8-.8-.6.2-1.3.3-1.8.7-.2.1-.1.8-.2 1.3zM74.5 109c.3 0 .5.1.8.1.9-.1 1-.3.7-1.2-.2-.5-.4-.9-.5-1.4-.1-.4-.2-.4-.5-.5-.9-.1-1.5.4-2.1.8-.3.2-.6.6-.6.9-.1.6.8 1.4 1.4 1.4h.7c0 .1 0 .2-.1.3 0-.1.1-.3.2-.4zM96.2 90.4c-.5.1-.9.1-1.4.2-.7.1-1.3.8-1.2 1.4 0 .2.1.5.2.7h.5c.7.5 1.4-.2 2.1-.1l.2-.2c.4-.8.6-1.5-.1-2.3 0 .2-.2.3-.3.3zM92.8 174.7c-.6-.3-1.1-.5-1.7-.7v.2c-.8-.2-1.1.3-1.2.8-.1.3-.1.7.1.9.4.4.9.7 1.3 1 .1.1.3.1.4 0 .5-.1 1.3-1.3 1.3-1.8 0-.1-.1-.4-.2-.4zM98.9 173.5c-.1.3-.1.7.1.9.3.3.7.5 1 .8v-2.5c-.7-.2-1 .3-1.1.8zM99.2 202.5c-1 1.1-1.2 2.5-1.2 3.9 0 1.3.9 1.9 1.9 2.4h.1v-5.4c-.1.1-.2.1-.3.2-.3-.5.1-.7.3-1.1v-.1c-.3-.2-.5-.2-.8.1zM87.2 203.5c-.4-.2-1-.3-1.4-.2-1 .2-1.9 1.5-1.9 2.7 0 .3.1.6.1.8.2.9.7 1.6 1.6 1.9.4.1.6.4 1.1 0 .6-.4 1.3-.8 1.7-1.4.3-.3.5-.7.6-1.1 0-.4-.1-.9-.3-1.2-.4-.6-.9-1.1-1.5-1.5zM70.1 206.4c-.1-.2-.3-.4-.4-.4-.3.1-.7.2-.8.4-.4.8-.6 1.7-.9 2.5.2.6.2 1.1.4 1.5.2.5.5 1.1 1.3 1.1.2 0 .5-.1.7 0 .4.3.7-.1.8-.3.5-.9 1.1-1.8 1.3-2.9.1-.3 0-.7-.2-.9-.3-.3-.7-.3-1-.6-.4-.2-1 .1-1.2-.4zM91.1 197.7c.4.3 1 .4 1.6.4.2 0 .4-.3.6-.5.1-.1.1-.3.2-.4.3-.4.7-.8 1.1-1.2.3-.4.2-.8-.1-1.1-.3-.3-.8-.5-1.2-.8-.5-.3-1.2-.4-1.5-1.1-.1-.3-.6-.3-.7 0-.3.9-.6 1.8-1 2.8.1 0 .1 0 .2.1-.1.7.3 1.4.8 1.8z"/><path class="st2" d="M15.2 96.4c-.7.1-1.3.3-1.7.9-.2.3-.5.7-.7 1-.8 1.1-.7 2.1.1 3.2.3.4.7.6.9.9.5.9 1.5 1 2.4 1.5.7-.3 1.5-.5 2.1-1 .7-.6 1.2-1.5 1.8-2.3.8-1.1.5-2.3-.5-3.2-1.4-1-2.9-1.2-4.4-1zM22.3 182.6c.3 1.1.9 1.9 1.9 2.3.7.3 1.8.2 2.1-.3.5-.9.9-1.9.6-3.1-.1-.2 0-.4 0-.5.2.1.4.2.5.2 1.2-.5 1.7-1.4 1.6-2.5-.2-.3-.3-.4-.4-.6-.1-.2-.1-.3-.3-.5-1.3-1.1-2.8-1.3-4.4-1.1-.8.1-1.3.8-1.8 1.4-.6.8-.5 1.7-.4 2.6.2.8.4 1.5.6 2.1zM42.9 161.7c.9.4 2.1.1 2.7-.6.3-.3.5-.7.8-1.1.1.2.1.2.2.5.1-.4.1-.6.1-.8.1-.8.8-1.5.6-2.5-.1-.3-.5-2-.8-2.2-.7-.4-1.5-.7-2.2-1-.5-.2-1-.2-1.5-.2-1.2.2-2.8 1.8-2.8 3.1 0 .9.2 1.9.6 2.8.5.9 1.3 1.5 2.3 2zm2-4.5c.7.6.7 1.4 0 2.4h-.1c.1-.4.3-.7.3-1.1 0-.3-.1-.5-.2-.8-.1-.3-.3-.2-.6-.3-.4-.1-.8-.3-1.2-.4.4-.5 1.2-.4 1.8.2zM11.3 169.9c.5-.3 1-1.8 1.1-2.4.1-.5 0-.9-.1-1.4-.1-.3 0-.6 0-.9-.1-.5-.2-1-.4-1.4-.6-.8-1.6-.9-2.5-1-.8-.1-1.5-.1-2.3.5-.8.6-1.2 1.3-1.2 2.3 0 1.3.2 2.6 1.2 3.6.7.8 1.5 1.5 2.8 1.2.5-.2 1-.3 1.4-.5zM36 177.2c.7.1 1.5.3 2.1.2.6-.2 1.1-.7 1.5-1.2.3-.4.3-1.1.4-1.6.2-.1.5-.1.7-.3.2-.2.7-.4.4-.9-.3-.4-.6-.9-1-1.2-1.2-1-2.4-1.7-4-1.8-.7 0-1.3.1-1.8.7s-1.1 1.2-.8 2.2c.1.3 0 .7-.1 1-.2.7-.1 1.2.4 1.7.7.5 1.3 1 2.2 1.2zM21.3 123.5c1.4-.6 2.6-1.4 2.8-3.1 0-.1.1-.1.1-.1.4-.9.2-1.8-.3-2.5-.8-1.1-2-1.5-3.5-1.6-.2 0-.5.1-.8.1-1.4.1-2.8 1.9-2.4 3.2.2.8.5 1.6.8 2.4 0 .1.2.2.3.3.2.2.5.3.6.5.2.6.7.7 1.2.8.3.1.8.2 1.2 0zm-1.7-3c.4.3.7.7 1 1 .4.4 1.1.3 1.8-.2-.1.2-.2.4-.3.5-.8.7-1.3.8-2 .1-.4-.4-.8-.8-.9-1.5.2 0 .3 0 .4.1zM29.6 107.3c.5.5.7 1 1.1 1.5.2.3.6.6.9.8.2.1.5 0 .6.1.6.5 1.1.1 1.5-.3.7-.8 1.3-1.6 2-2.4.3-.4.4-.9.3-1.5 0-.5-.1-1.1-.4-1.4-.4-.4-.9-.7-1.4-1-1.1-.5-2.2-.3-3.3-.3-.1 0-.1 0-.2.1-.8.8-1.8 1.4-1.5 2.8H29c.2.5.2 1.3.6 1.6zM47.8 135c-.9-.3-1.8-.8-2.7-1-.8-.2-1.6-.1-2.3.6-.2.3-.4.5-.5.8-.5.8-.3 1.6.4 2.3.2.1.2.4.3.6.1.4.2.9.4 1.2.3.3.7.4 1.1.7 1 .6 1.9.4 2.8-.2.5-.3.6-.8.9-1.3.3-.6.2-1-.1-1.4.2-.4.6-.7.6-1.1-.1-.5-.4-1-.9-1.2zm-.3 2.1c-.2-.3-.4-.5-.5-.8.5 0 .7.2.5.8zM19.2 161.7c.4.3.6 1.2 1.5.5v.2c.1-.1.3-.1.4-.2.8-.7 1.5-1.4 1.7-2.5 0-.2.3-.5.5-.6.2-.2.6-1.4.4-1.5-.4-.4-.8-.7-1.3-1-.8-.5-1.7-.5-2.7-.5-1.1.1-1.9.5-2.6 1.3-.2.2-.3.5-.3.7.2.5-.2 1.2.5 1.6.1 0 0 .2.1.3.1.3.2.6.5.8.4.2.9.5 1.3.9zM.3 101.3c.5-.7 1.1-1.3 1.4-2.2.1-.4.3-.8 0-1.3-.1-.2-.1-.5-.1-.6-.3-.2-.6-.3-.9-.5l-.6-.3v5.1l.2-.2zM51.4 115.7c.2-.3.3-.6-.1-.9-1.1-1-2.5-1.3-3.9-1.4-1.3-.1-2 .8-2.4 1.8-.2.5-.4 1.1-.2 1.5.3.6.8 1.2 1.3 1.7h.1c.3.1.6.2 1 .2.6.1 1.2.2 1.7.1.6-.1 1.3-.5 1.8-.7.1-.6.1-1.1.1-1.5 0-.5-.3-.9-.5-1.4.4-.1.7.4 1.1.6zM6.9 117.4c.7.4 1.5.7 2.2 0 .3-.2.6-.4.8-.6.2-.2.5-.5.6-.8.2-.3.3-.8.5-1.1.4-.7.3-1.1-.4-1.6-.3-.2-.5-.5-.8-.6-.8-.4-1.6-.7-2.5-.6-.5.1-1 .4-1.2.8-.3.5-.4 1.2-.6 1.6 0 .7.9 2.6 1.4 2.9zM1.1 181.6c.1-.1.3-.3.3-.4.1-.2 0-.4.1-.6-.1-.1-.3-.3-.3-.4-.3-.5-.5-1-1.1-1.2v4.9c.2-.3.4-.6.3-1-.2-.8.2-1 .7-1.3zM.5 152.7c-.1-.4-.3-.7-.5-1v2c.1 0 .2-.1.3-.2.2-.2.3-.4.2-.8zM38.3 213.6c0-.1.1-.2.2-.2 1.1.1 1.5-.7 2.1-1.4-.4-.3-.7-.6-1-.9-1-1-2.2-1.4-3.7-1.1-1.5.4-2.3 1.2-1.8 2.8.1.4.2.9.5 1.1h3.5c0-.1.1-.2.2-.3zM51.2 181.3c-.3-.5-.8-1-1.3-1.3-1.3-.7-2.1-.9-3.3 0-.3.2-.5.6-.7.9l-.1-.1c-.1.6-.2 1.1-.4 1.7h.2c.1.2.3.4.5.6.2.2.5.5.8.6.5.2 1.1.2 1.6.3l.9.3c.2 0 .5 0 .7-.2.4-.4 1-.7 1.2-1.2.1-.4.1-1.1-.1-1.6zM43.9 100.7c.4.1.9-.1 1.2-.3.6-.4 1.2-.9 1.6-1.4.3-.3.3-1 .2-1.4-.2-1.1-1.5-2-2.7-2-.3 0-.6 0-.8.1-.9.2-1.6.6-2 1.5-.2.4-.4.6-.1 1.1.4.6.8 1.3 1.4 1.8.4.3.8.6 1.2.6zM45.3 199.9c.3-.2.6-.2.8 0h.7c.3 0 .9-.8.8-1.1-.1-.1-.1-.3 0-.5 0-.6.2-1.1.1-1.7l-.3-.6c-.3-.9-1.2-1.1-1.9-1.5-.2-.1-.5 0-.7 0-.9.3-1.3 1-1.5 1.9l-.3.9c-.1.2-.1.5-.2.7-.1.7.4 1.1.8 1.5.5.9.8.8 1.7.4zM9 186.1c0-.2.3-.3.5-.5l.1.1c.1-.9-.3-1.6-.7-2.4-.6-1.1-1.5-1.4-2.6-.8-.5.3-.9.7-1.2 1.1-.3.5-.5 1.1-.7 1.6.2.2.4.3.4.4 0 .6.4 1 .8 1.5.3.4.7.6 1.3.4 1-.1 1.9-.3 2.1-1.4zM32.6 146.5c.3.4.9.3 1.3.6.7.4 1.3.8 2.2.5.5-.2 1.1-.4 1.2-1 .1-.5.2-1.1.3-1.6 0-.1.1-.1.1-.2-.3-.6-.5-1.2-1.3-1.4-1.2-.3-2.2-.3-3.3.2-.6.3-.9 1-.7 1.6v.5c0 .4.1.7.2.8zM30.2 89.2c-.2.2-.2.6-.3.9 0 .1 0 .2.1.3.2.3.4.6.7.9.2.2.5.5.8.5.4.1.9 0 1.4 0 .2 0 .5.2.6.1.9-.3 1.6-.9 1.7-1.9 0-.3.2-.6.2-.9 0-.5-.4-.7-.7-1-.5-.5-1.3-.7-2-.7-1.3 0-1.9.9-2.5 1.8zM16.7 195.5c.5-.2.9-.7 1-1.2v-.6c.2-1 0-1.3-.8-1.9-.3-.2-.7-.3-1-.5-1.4-.7-2.6.1-3.2 1.4-.2.5.3.8.3 1.2 0 .7.6 1.1 1.1 1.3.6.2 1.2.2 1.9.3 0 0 0 .1-.1.3.3-.1.5-.2.8-.3zM39.5 82.7c.9.5 1.8 1.2 2.8 1.4.3.1.7 0 .9-.1.3-.3.4-.7.6-1 .3-.4 0-.9.5-1.2.2-.1.4-.3.4-.4 0-.3-.1-.7-.3-.8-.8-.4-1.7-.7-2.5-1-.6.1-1.1.2-1.5.4-.6.2-1.2.5-1.1 1.2 0 .2.1.5 0 .7-.3.5 0 .7.2.8zM0 213.5v.5h.9c-.3-.2-.6-.4-.9-.5zM55.9 129.8c.1-.5.2-1.1.2-1.7 0-.2 0-.5-.2-.6-.7-.4-1.4-1-2.4-.9-.3 0-.7.2-1 .3-.3.2-.6.4-.8.6-.4.5-.6 1-.2 1.8.4.7 1.1 1.1 1.5 1.7.1.2.4.1.6.2 1.3 0 2-.1 2.3-1.4zM15.6 137.5c.1 0 .1.2.2.3.2.2.4.5.7.5.4 0 1 .1 1.3-.2.8-.7 1.4-1.6 1.3-2.6-.2-1.6-.1-1.5-1.5-1.7-.1 0-.2-.1-.3-.1-.9-.1-1.7 0-2.4.6-.3.2-.6.6-.5.9 0 1 .2 1.9 1.2 2.3zM30.2 161.5c.4.2.9.6 1.3.4.5-.1 1.1-.1 1.5-.7.2-.4.5-.7.9-.8.1 0 .2-.3.2-.4.1-.2 0-.5.2-.6.3-.3 0-.5 0-.7l-.3-.6.1-.1c-.3-.1-.6-.3-1-.3-.7-.1-1.5-.1-2.2 0-.4 0-.8.1-1 .6-.1.3-.4.6-.6.8-.3.4-.4 1-.1 1.4.4.4.6.8 1 1zM9.8 147.3c-.1.9.6 1.2 1 1.7.1.2.4.2.6.3.6.3 1.2.1 1.8.1.2 0 .5 0 .6-.1.4-.6.8-1.1.6-1.9v-.3c.2-.8-.2-1.3-1-1.5-.1 0-.3-.1-.4-.1-.9-.4-1.8-.3-2.6.1-.5.4-.6 1.1-.6 1.7zM52.5 166.7c.3-.6.6-1.1 1-1.7.1 0 .2.1.3.1.1-.2.2-.3.2-.5-.5-1.2-1.5-1.7-2.8-1.8-1.4-.1-2.2.6-2.5 1.9.5.8 1.1 1.6 1.6 2.3.1.2.3.3.4.4.5.1 1.6-.3 1.8-.7zM52.4 105.2c.1.1.3.1.4.2l1.1 1.1c.4.3.8.2 1.1-.1.3-.3.6-.8.8-1.2.3-.5.4-1.2 1.2-1.5.3-.1.3-.6 0-.7-.9-.4-1.8-.7-2.7-1.1 0 0 0 .1-.1.2-.8-.1-1.5.3-1.9.8-.3.4-.4 1-.5 1.6.1.3.4.6.6.7zM9.8 85.5c-1.3.5-2.2 1.2-1.2 2.7.2.3.4.5.7.7.5.5 1.2.6 1.9.6.3 0 .6-.1.9-.2l.1.1c.3-.8.5-1.6.8-2.4.1 0 .3-.1.6-.1-.2-.3-.3-.6-.5-.7-1.2-.5-2.2-1.1-3.3-.7zM3.8 130.9c-.4.3-.7.7-.9 1.2-.1.2-.1.5 0 .7.5.9 1.1 1.7 2.1 2.1.7.3 1.8-.2 1.9-.9.1-.6.1-1.1.2-1.7 0-.1 0-.1-.1-.2-.6-.7-1.3-1.3-2.4-1.3-.3 0-.6-.1-.8.1zM30.6 124.6c.5.3 1 .6 1.4.9.8.6 1.8.3 2.2-.6.2-.4.3-.9.5-1.3.1-.5-.4-1.2-.9-1.3-.5-.1-1.1-.1-1.4-.2-1 0-1.9-.2-2.3.9-.1.3-.2.7-.1.9 0 .4.3.6.6.7zM24.9 201.1c.3.3.6.5.8.7.4-.1.9-.2 1.3-.4.2-.1.4-.2.5-.3.4-.6.6-1.2.4-2 .2 0 .4.1.5.1.1-.7-.3-1.3-.9-1.5-.9-.3-1.7-.1-2.5.3-.1 0-.2.1-.2.2-.1.3-.2.6-.4.8-.2.3-.6.6-.2 1.1.2.4.4.7.7 1zM54.5 148c-.6-.5-1-1-1.5-1.3-.4-.3-.9-.5-1.4-.5-.5 0-1 .3-1.4.5-.8.5-.8 1.7-.2 2.1.2.2.5.4.7.6.5.8 1.7 1.1 2.4.5.1-.1.2-.2.2-.3.3-.5.5-1 .8-1.6h.4zM12.7 211.7c.2.3.4.5.8.4.4-.1.8-.2 1.1-.3l.1-.1c-.1-.4.3-.5.5-.8.1-.1.2-.2.2-.3 0-.8-.1-1.6-.8-2.2-.2-.2-.4-.3-.7-.3-.7-.1-1.3.2-1.9.7-.9.8-1.1 1.8-.5 2.7.8-.3.8-.3 1.2.2zM5.7 75.6c-.1.1-.2.5-.1.6.2.4.4.9.8 1.2.5.4 1 1.1 1.8 1.2.2-.1.5-.3.7-.4.7-.3.8-1 1.1-1.6.3-.5.1-.8-.3-1.1-.4-.2-.7-.4-1.1-.6-.9-.4-2.3-.1-2.9.7zM.5 87c.1-.3.2-.4.5-.4.2 0 .4-.2.6-.3-.1-.2-.1-.3-.2-.3-.5-.3-.9-.6-1.4-.8v2.6c.2-.3.4-.5.5-.8zM4.3 203c.1 0 .1.1.2.1.3.1.6.3.8.2.5-.2 1.3-.3 1.3-1.1 0-.2.1-.5.2-.7.3-.6-.2-1.5-.8-1.6-.4-.1-.9-.1-1.4-.1-.7-.1-1 .6-1.5.9-.2.1-.4.7-.2.8.4.5.4 1.4 1.4 1.5zM24.5 142.4c.4.5.9.6 1.5.4.2-.1.5-.1.8-.2.2-.4.4-.8.6-1.3.3-.6.1-1.2-.6-1.4-.2 0-.3-.1-.5-.1-.9-.2-1.7-.4-2.5.2-.5.4-.7 1.3-.2 1.7.4.3.7.5.9.7zM39.4 191.5c.8 0 1.5-.7 1.5-1.6.4-.8-.5-1-.9-1.4-.1-.2-.4-.2-.6-.2-1.1-.1-2.1.9-2.1 2 0 .4 1.3 1.2 2.1 1.2zM27.3 211.7c.1.1.5.2.6.1.5-.4.9-.9 1.3-1.5v-.2c.1-.6-.4-.8-.7-1.2-.8-.8-1.6-.9-2.4-.1l-.6.6c.1.4.1.8.3 1 .7.3 1.1.8 1.5 1.3zM.8 77.9c-.1-.6.3-.9.7-1.3-.3-.3-.5-.6-.8-.7-.2-.1-.5-.1-.7-.2v2.9c.4-.1.8-.5.8-.7zM20.8 87.7c.1.1.3.1.4.1.5-.1 1.4-1.2 1.4-1.7 0-.1-.1-.4-.2-.4-.5-.3-1.1-.5-1.7-.8v.2c-.8-.3-1.1.2-1.3.7-.1.3-.1.7 0 .9.4.4.9.7 1.4 1zM82.4 148.2c-.9-.3-1.8-.5-2.7-.8-.9-.3-1.6.1-2.3.6-.4.2-.4.6-.3 1 .2.7.3 1.3.5 2 0 .1 0 .3.1.4.5.8.9 1.5 2 1.6.5 0 1.4-.2 1.6-.6.1-.2.1-.4.3-.6.1-.1.2-.1.4-.1.1 0 .1.1.2.1.1-.5.3-1 .2-1.5-.1-.5 0-1 .3-1.4.1-.3.1-.6-.3-.7zM64.8 126.1c.2-.4.3-.8.4-1.1.6.1.9.1 1.1-.5.2-.7.3-1-.2-1.3-.4-.3-.9-.6-1.4-.8-1-.5-2-.5-3 0-.3.2-.6.4-.9.7-.6.4-.8 1.9-.3 2.4.2.3.5.5.8.7.2.2.4.7.6.6.5-.1.8.3 1.2.5.2.1.4.1.6.1.8 0 .9-.8 1.1-1.3zM94.3 159.5c-.6.2-1.1.7-1.6 1-.1.1.1.4.1.5 0 .5-.2.9-.2 1.4 0 .3.1.7.3.9.4.3.8.6 1.3.8.4.2.3.3 0 .6.3 0 .6-.1.8 0 .6.1 1.2-.2 1.4-.7.1-.3.1-.7.2-1 .1-.4.3-.9.6-1.3.3-.5.3-.7-.2-1-.2-.1-.5-.3-.7-.5-.6-.6-1.3-.9-2-.7zM49.8 210c.5-.2.9-.7 1-1.2v-.6c.2-1 0-1.3-.8-1.9-.3-.2-.7-.3-1-.5-1.4-.7-2.6.1-3.2 1.4-.2.5.3.8.3 1.2 0 .7.6 1.1 1.1 1.3.6.2 1.2.2 1.8.3 0 0 0 .1-.1.3.5-.1.7-.2.9-.3zM77.8 202.2c.5-.2.9-.7 1-1.2v-.6c.2-1 0-1.3-.8-1.9-.3-.2-.7-.3-1-.5-1.4-.7-2.6.1-3.2 1.4-.2.5.3.8.3 1.2 0 .7.6 1.1 1.1 1.3.6.2 1.2.2 1.9.3 0 0 0 .1-.1.3.4-.1.6-.2.8-.3zM65.9 143c.2.2.4.3.6.5.3.3.7.6 1 .8.3-.4.6-.1.9 0 .6.1 1 0 1.2-.6.2-.7.2-1.4.7-2v-.3c-.2-.3-.5-.6-.7-.9-.4-.7-1.1-.9-1.8-.9-1.1-.1-1.8.7-2.5 1.3-.1.1-.1.3 0 .5 0 .3.2.6.2.8-.3.6.1.6.4.8zM60.8 205.6c.7.1.9-.6 1.4-.8-.7-.7-1.9-.7-2.2-1.6-.4 0-.8-.1-1.1 0-1 .4-2.1.7-2.4 2 0 .2 0 .4-.1.6-.2.5.1.8.4 1 .6.5 1.3 1 2 1.5.3-.3.7-.5 1-.9.2-.2.3-.6.6-.8.3-.2.3-.4.2-.7 0-.1.1-.3.2-.3zM93.2 96.6c.1-.3-.1-.7-.2-1 0-.2-.1-.4-.3-.5-.6-.4-1.2-.8-1.8-.8-1.4-.1-2.1.8-2.9 1.5v.3c.1.2.2.4.2.6 0 .4.1.7.5 1 .3.2.6.4.8.7.5.6.9.6 1.7.3.5-.1 1-.3 1.3-.6.4-.5.6-1 .7-1.5zM98.1 131.3c-.2.5-.4 1-.5 1.5.2.2.4.3.4.4.4.9 1.2 1.2 2 1.4v-4.4h-.1c-.7-.1-1.6.6-1.8 1.1zM79.9 158.1c-.6-.2-1.2-.2-1.7-.3-1-.2-1.9.2-2.7.7-.3.2-.5.6-.3 1 .1.3.1.6.2 1 .8.5 1.7 1 2.7 1.6.2-.4.5-.8.7-1.2.1-.5.3-.7.9-.7.6 0 .8-.3.8-.9 0-.1-.1-.2-.1-.3.1 0 .2 0 .3.1 0-.6-.4-.9-.8-1zM64.5 109.5c.4.2.8.3 1.1.5.6.4 1.3.2 1.5-.4l.3-1.2c.2-.6.5-1.2.7-1.8-1.4-.9-3.6-.7-4.6.3-.2.2-.2.5-.2.7-.1.9.4 1.5 1.2 1.9zM85.4 124.9c.1-.5.3-1.1.4-1.6-.1-.1-.4-.1-.4-.2-.4-.8-1.1-.8-1.8-1.1-.6-.2-1.9.2-2.1.8-.2.6-.3 1.3.1 1.9.3.4.7.7 1 1.1.2.3.5.4.9.4.6.1 1.7-.7 1.9-1.3zM90.9 135.2c-.2-.5-.6-.3-1-.4-.6-.1-1.2-.1-1.8-.1-.7 0-.8.8-1.2 1.1-.3.2-.3.5 0 .9.7.9 1.6 1.4 2.6 1.9h.1c.4 0 .7 0 1-.1.3-.1.7-.2.5-.8-.1-.2 0-.6.2-.7.5-.3.2-.6.1-.9 0-.4-.3-.6-.5-.9zM97.8 102.7c-.9.7-.8 1.2-.3 2.3.3.6.9.7 1.2 1.2.1.1.5.2.7.1.2 0 .4-.1.5-.2v-3.6c-.6-.3-1.4-.4-2.1.2zM92.9 124.4c.5-.2 1-.3 1.2-.9.1-.3.4-.6.6-.9.1-.1.2-.4.1-.5-.5-1-1.3-1.5-2.4-1.5h-.1c-1.1-.2-1.5.7-2 1.3-.1.1.2.7.4 1l.3.6c.3.6 1.3 1.1 1.9.9zM75 114.9c0 .6.1 1.1.2 1.6.2.1.5.1.6.2.3.6.8.5 1.3.4.3-.1.6-.1.9-.2.2-.1.6-.1.6-.5 0-.3.1-.7.2-.9.3-.5.1-1.1-.4-1.4-.6-.3-1.3-.5-2-.5-.5-.1-1.4.7-1.4 1.3zM74.1 100.2c0 .2 0 .4.1.5.7.7 1.4 1.3 2.5 1.4.3-.2 1.1.1 1.3-.6.2-.6.3-1.3.4-1.9 0-.1-.2-.4-.4-.5l-1.8-.3c-.9-.1-1.9.6-2.1 1.4zM95.7 109.9c-.5-.2-.9-.5-1.4-.6-.9-.3-2.2.6-2.2 1.5.1.4.1.8.5 1.2.8.8 1.5 1.1 2.4.5.7-.5 1-1.2 1.3-2 0-.1-.2-.3-.3-.5-.1 0-.2 0-.3-.1zM97.7 142.7c-.5 0-1 .5-1.4.9-.2.2-.3.6.1.9.1.1.1.3.2.5 0 .2 0 .3.3.3.4 0 .7.4 1.1.5.2.1.5.2.7.4.3 0 .9-.4 1.3-.7v-2c-.5-.8-1.5-.8-2.3-.8zM73.9 130.7c.4-.5.9-1 .9-1.6 0-.6-.3-1.4-1.2-1.7-.6-.2-1.3-.4-1.9-.3-.4.1-.6.7-.9 1.1 0 .1-.1.1-.1.1.1.3.2.5.3.7.1.4 1 1.1 1.3 1.2.1 0 .1.1.2.2l.3.3c.4.4.9.4 1.1 0zM66.5 154.3c.2.2.4.3.6.4.8.4 1 .3 1.2-.6.1-.5.1-1 .3-1.5.1-.4 0-.5-.2-.7-.7-.5-1.5-.4-2.2-.4-.3 0-.8.2-1 .5-.3.5 0 1.6.5 1.9.2.1.4.2.6.4l-.2.2c.2 0 .3-.1.4-.2zM80.9 108.7c-.3.6-.1 1.1.6 1.3.4.1.8.2 1.1.4.5.2 1.2 0 1.3-.3.2-.5.3-1.1.4-1.6-.3-.1-.5-.3-.7-.4-.2-.1-.5-.2-.8-.3-.8-.2-1.4-.2-1.9.9zM89.7 149.4s.2 0 .2-.1c.7-.5 1.3-1 1.1-2h-.4c-.4-.2-.9-.4-1.3-.6-.7-.3-1.5 0-1.8.6-.1.2-.1.5-.2.7.1.1.3.1.4.3.5.9 1.4.6 2 1.1zM36.1 24.8c-.6.1-1.3.3-1.7.9-.2.3-.5.7-.7 1-.8 1.1-.7 2.1.1 3.2.3.4.7.6.9.9.5.9 1.5 1 2.4 1.5.7-.3 1.5-.5 2.1-1 .7-.6 1.2-1.5 1.8-2.3.8-1.2.5-2.3-.5-3.2-1.4-1-2.9-1.1-4.4-1zM41.3 44.7c-.2 0-.5.1-.8.1-1.5.1-2.8 1.8-2.5 3.2.2.8.5 1.6.8 2.4 0 .1.2.2.3.3.2.2.5.3.6.5.2.6.7.7 1.2.8.4.1.9.1 1.3 0 1.4-.6 2.6-1.4 2.8-3.1 0-.1.1-.1.1-.1.4-.9.2-1.8-.3-2.5-.8-1.2-2.1-1.5-3.5-1.6zm1.7 5.5c-.8.7-1.3.8-2 .1-.4-.4-.8-.8-.9-1.5.2.1.3.1.4.1.4.3.7.7 1 1 .4.4 1.1.3 1.8-.2 0 .2-.1.4-.3.5zM56.5 32.5c-.4-.4-.9-.7-1.4-1-1.1-.5-2.2-.3-3.3-.3-.1 0-.1 0-.2.1-.8.8-1.8 1.4-1.5 2.8h-.2c.2.6.2 1.3.6 1.7.5.5.7 1 1.1 1.5.2.3.6.6.9.8.2.1.5 0 .6.1.6.5 1.1.1 1.5-.3.7-.8 1.3-1.6 2-2.4.3-.4.4-.9.3-1.5-.1-.5-.1-1.1-.4-1.5zM56.4 68.4c-.2.3-.4.5-.5.8-.5.8-.3 1.6.4 2.3.2.1.2.4.3.6.1.4.2.9.4 1.2.3.3.7.4 1.1.7 1 .6 1.9.4 2.8-.2.5-.3.6-.8.9-1.3.3-.6.2-1-.1-1.4.2-.4.6-.7.6-1.1 0-.5-.3-1-.8-1.3-.9-.3-1.8-.8-2.7-1-1-.1-1.8 0-2.4.7zM61 71c-.2-.3-.3-.5-.5-.8.5-.1.7.2.5.8zM16.7 25.9c-.3.5-.8 1.5-.5 2 .4.7.9 1.4 1.5 1.9.3.3.8.4 1.2.5.8.1 1.8.2 2.3-.6.5-.7 1.1-1.3 1.4-2.2.1-.4.3-.8 0-1.3-.1-.2-.1-.5-.1-.6-.3-.2-.6-.3-.9-.5-1-.5-1.9-1.1-3.1-.3-.7.4-1.3.5-1.8 1.1zM62.4 49.1c-.2.5-.4 1.1-.2 1.5.3.6.8 1.2 1.3 1.7h.1c.3.1.6.2 1 .3.6.1 1.2.2 1.7.1.6-.1 1.3-.4 1.8-.7.1-.6.1-1.1.1-1.5 0-.5-.3-.9-.5-1.4.5-.3.7.2 1.2.3.2-.3.3-.6-.1-.9-1.1-1-2.5-1.3-3.9-1.4-1.3.1-2 1-2.5 2zM27.8 45.8c.7.4 1.5.7 2.2 0 .3-.2.6-.4.8-.6.2-.2.5-.5.6-.8.2-.3.3-.8.5-1.1.4-.7.3-1.1-.4-1.6-.3-.2-.5-.5-.8-.6-.8-.4-1.6-.7-2.5-.6-.5.1-1 .4-1.2.8-.3.5-.4 1.2-.6 1.6 0 .8.9 2.6 1.4 2.9zM3.9 53c.6-.8.5-1.7.4-2.6 0-.2-.2-.3-.3-.4-1-.6-2-.6-3-.7H.9c-.3.1-.6.2-.9.4v3.9c.4.2.8.4 1.2.5 1.1.2 2.1-.3 2.7-1.1zM48.7 2.5c-.3 0-.6 0-.8.1-.9.2-1.6.6-2 1.5-.2.4-.4.6-.1 1.1.4.6.8 1.3 1.4 1.8.3.3.7.6 1.1.6.4.1.9-.1 1.2-.3.6-.4 1.2-.9 1.6-1.4.3-.3.3-1 .2-1.4-.2-1.1-1.5-1.9-2.6-2zM14.7 65.5c-.5-.2-.8.2-1.1.3-.6.2-1.5.3-1.6 1.3 0 .1-.2.3-.3.4.1.1.2.2.2.3-.2.5.1.9.3 1.4.2.5.6.7 1.1.9.2.1.3.2.5.2.3.1.6.2.8.2 1-.2 1.8-.8 2.5-1.5.7-.8.7-1 .2-1.8-.7-.9-1.7-1.2-2.6-1.7zM1.6 40.6c.3-.3.8-1.1.6-1.3-.3-.5 0-.8.1-1.1.1-.4.2-.8-.3-1-.1 0-.2-.2-.3-.3-.1-.1-.1-.2-.2-.2-.2 0-.4 0-.6-.1l-.9-.3V41c.6.1 1.1 0 1.6-.4zM7.2 33.7c.3.2.4.4.6.6.4.5.8 1 1.3 1.5.6.5 1.8.4 2.3-.1.4-.3.6-.7.8-1.2.1-.5.4-1 .3-1.5-.1-.4-.2-.8-.5-1-.2-.2-.6-.3-.9-.4-.9-.5-1.9-.5-2.8 0-.7.4-1.2 1.2-1.1 2.1zM55.5 16.5c-.5-.5-1.3-.7-2-.7-1.2.1-1.8 1-2.5 1.8-.2.2-.2.6-.3.9 0 .1 0 .2.1.3.2.3.4.6.7.9.2.2.5.5.8.5.4.1.9 0 1.4 0 .2 0 .5.1.6.1.9-.3 1.6-.9 1.7-1.9 0-.3.2-.6.2-.9 0-.5-.4-.8-.7-1zM60.4 11.2c.9.5 1.8 1.2 2.8 1.4.3.1.7 0 .9-.1.3-.3.4-.7.6-1 .3-.4 0-.9.5-1.2.2-.1.4-.3.4-.4 0-.3-.1-.7-.3-.8-.8-.4-1.7-.7-2.5-1-.6.1-1.1.2-1.5.4-.6.2-1.2.5-1.1 1.2 0 .2.1.5 0 .7-.3.4 0 .7.2.8zM6.7 17.5c.8-.4 1.2-1.3 1.7-2 .1-.2.1-.6 0-.7-.9-.9-2-1.3-3.2-1.2-.5 0-.9.4-1.4.6-.9.4-1.1 1.1-.7 2 .4.8 1.6 1.7 2.5 1.8.4-.1.7-.3 1.1-.5zM14.1 44.9c-.1.2-.1.5-.1.7.1.8.6 1.4 1.2 1.9.3.2.6.7.9.7.5 0 1.1-.2 1.6-.4.9-.5 1.2-1.4 1.1-2.4 0-.3 0-.5-.1-.8 0-.1-.1-.3-.2-.3-.6-.2-1.2-.5-1.8-.6-1.2-.2-2.1-.1-2.6 1.2zM62.2 60.4c.4.7 1.1 1.1 1.5 1.7.1.2.4.1.6.2 1.2-.1 1.9-.2 2.2-1.5.1-.5.2-1.1.2-1.7 0-.2 0-.5-.2-.6-.8-.4-1.4-1-2.4-.9-.3 0-.7.2-1 .3-.3.2-.6.4-.8.6-.3.6-.5 1.1-.1 1.9zM10.9 5.8c0-.2 0-.5-.2-.6-.7-.4-1.4-1-2.4-.9-.3 0-.7.2-1 .3-.2.2-.5.4-.7.6-.4.6-.6 1.1-.2 1.8.4.7 1.1 1.1 1.5 1.7.1.2.5.2.6.2 1.2-.1 1.9-.2 2.2-1.5.1-.5.2-1.1.2-1.6zM26.3 53.2c.4.7 1.1 1.1 1.5 1.7.1.2.4.1.6.2 1.2-.1 1.9-.2 2.2-1.5.1-.5.2-1.1.2-1.7 0-.2 0-.5-.2-.6-.7-.4-1.4-1-2.4-.9-.3 0-.7.2-1 .3-.3.2-.6.4-.8.6-.3.7-.5 1.2-.1 1.9zM38.6 66.7c.8-.7 1.4-1.6 1.3-2.6-.2-1.6-.1-1.5-1.5-1.7-.1 0-.2-.1-.3-.1-.9-.1-1.7 0-2.4.6-.3.2-.6.6-.5.9.1.9.3 1.8 1.2 2.2.1 0 .1.2.2.3.2.2.4.5.7.5.5.1 1 .1 1.3-.1zM28.1 76.8l1.1 1.1c.4.3.8.2 1.1 0 .3-.3.6-.8.8-1.2.3-.5.4-1.2 1.2-1.5.3-.1.3-.6 0-.7-.9-.4-1.8-.7-2.7-1.1 0 .1 0 .1-.1.2-.8-.1-1.5.3-1.9.8-.3.4-.4 1-.5 1.6 0 .2.3.4.5.6.2 0 .4.1.5.2zM69.5 18.6c-.9-.4-1.8-.7-2.7-1.1 0 .1 0 .1-.1.2-.8-.1-1.4.3-1.9.8-.3.4-.4 1-.5 1.6 0 .2.3.4.5.6.1.1.3.1.4.2l1.1 1.1c.4.3.8.2 1.1 0 .3-.3.6-.8.8-1.2.3-.5.4-1.2 1.2-1.5.5-.1.5-.6.1-.7zM33.8 14.6c-1-.5-2-1.1-3.2-.6-1.4.5-2.2 1.2-1.2 2.7.2.3.4.5.7.7.5.5 1.2.6 1.9.6.3 0 .6-.1.9-.2l.1.1c.3-.8.5-1.6.8-2.4.1 0 .3-.1.6-.1-.3-.4-.4-.7-.6-.8zM24.7 59.3c-.4.3-.7.7-.9 1.2-.1.2-.1.5 0 .7.5.9 1.1 1.7 2.1 2.1.7.3 1.8-.2 1.9-.9.1-.6.1-1.1.2-1.7 0-.1 0-.1-.1-.2-.6-.7-1.3-1.3-2.4-1.3-.3 0-.6 0-.8.1zM51.5 53.1c.5.3 1 .6 1.4.9.8.6 1.8.3 2.2-.5.2-.4.3-.9.5-1.3.1-.5-.4-1.2-.9-1.3-.5-.1-1.1-.1-1.4-.2-1 0-1.9-.2-2.3.9-.1.3-.2.6-.1.9 0 .2.3.4.6.6zM30.7 4c-.4-.2-.7-.4-1.1-.6-.9-.5-2.3-.2-3 .6-.1.1-.2.5-.1.7.2.4.4.9.8 1.1.5.4 1 1.1 1.8 1.2.2-.1.5-.3.7-.4.7-.3.8-1 1.1-1.6.3-.5.2-.8-.2-1zM17.6 14.8c0 .9.9 1.3 1.5 1.8.2.1.6.2.8.1.6-.3 1.2-.5 1.4-1.3.1-.3.2-.4.5-.4.2 0 .4-.2.6-.3l-.3-.3c-.5-.3-.9-.6-1.4-.8-.9-.4-1.8-.5-2.6.2-.1.2-.5.7-.5 1zM44.6 70.2c.3.2.6.4.8.6.4.5.9.6 1.5.4.3-.1.5-.1.8-.2.2-.4.4-.8.6-1.3.3-.6.1-1.2-.6-1.4-.2 0-.3-.1-.5-.1-.9-.2-1.7-.3-2.5.2-.5.5-.6 1.4-.1 1.8zM13.1 55.1c-.3.1-.7 0-.9.5-.1.3-.5.5-.6.8-.1.2-.1.4-.1.6.1.3.2.7.4 1.1.4-.3.7-.3 1 0 .3.3.8.4 1.2 0 .5-.5 1-1 1.1-1.8.1-.5-.3-1.3-.7-1.3-.5.1-1 0-1.4.1zM2.1 61.7c.3.1.5.4.7.7.5.5.7.5 1.2 0 .1-.1.1-.1.2-.1.9-.2.7-1.1 1-1.7 0 0 0-.1-.1-.1-.5-.3-1-.6-1.3-.8-1 0-1.9.6-2 1.4.1.2-.1.4.3.6zM41.7 16.2c.1.1.3.1.4.1.5-.1 1.4-1.2 1.4-1.7 0-.1-.1-.4-.2-.4-.5-.3-1.1-.5-1.7-.8v.2c-.8-.3-1.1.2-1.3.7-.1.3-.1.7 0 .9.4.3.9.6 1.4 1zM38 0h-3.4c.4.3.9.4 1.4.6 1 .4 1.5.2 2-.6zM1.3.2C1.2.1 1.1.1 1 0H0v1c.6.1.8-.5 1.3-.8zM23.3 1.9c0-.2 0-.3-.1-.4h-.4c-.8-.5-1.6-.6-2.6-.1-.6.3-1 .5-1 1.2 0 .3 0 .7.1 1 .7.1 1.2.5 1.4.9.9.2 1.5.6 2.2.8 1-.9 1.3-2.1.9-3.5-.1.1-.3.1-.5.1z"/></svg>