<svg xmlns="http://www.w3.org/2000/svg" xmlns:xlink="http://www.w3.org/1999/xlink" width="99.993" height="213.951" viewBox="0.008 -0.004 99.993 213.951"><defs><path id="a" d="M.008-.004h99.993v213.951H.008z"/></defs><clipPath id="b"><use xlink:href="#a" overflow="visible"/></clipPath><path clip-path="url(#b)" fill="#B4DBD0" d="M100.001-31.516V68.951c-.319-.836-.646-1.654-.978-2.479a65.78 65.78 0 00-.703-1.67c-.487-1.143-1-2.289-1.534-3.405-.228-.49-.468-.979-.707-1.47A106.654 106.654 0 0080.54 36.571a98.935 98.935 0 00-2.67-2.933c-.451-.479-.906-.967-1.371-1.432a79.682 79.682 0 00-1.847-1.832 151.642 151.642 0 00-1.883-1.801c-.586-.537-1.182-1.086-1.776-1.611a72.29 72.29 0 00-1.75-1.522c-.349-.3-.691-.587-1.039-.871a94.782 94.782 0 00-3.409-2.705c-.598-.453-1.192-.906-1.789-1.347-.164-.12-.332-.252-.512-.37-.597-.416-1.181-.835-1.774-1.24a35.834 35.834 0 00-1.572-1.07c-.357-.24-.703-.477-1.062-.707a124.11 124.11 0 00-3.906-2.418c-.49-.285-.979-.572-1.479-.844-.467-.277-.932-.525-1.396-.775a96.635 96.635 0 00-4.729-2.455 49.346 49.346 0 00-1.646-.774 99.138 99.138 0 00-4.576-1.99 27.192 27.192 0 00-1.096-.439 38.473 38.473 0 00-1.717-.657 73.242 73.242 0 00-2.74-.988 66.692 66.692 0 00-2.527-.836c-.82-.26-1.645-.51-2.467-.75a3.117 3.117 0 01-.154-.035 45.195 45.195 0 00-1.932-.537c-.428-.117-.846-.238-1.275-.332a46.905 46.905 0 00-1.93-.479c-.716-.167-1.419-.335-2.146-.478a23.668 23.668 0 00-1.229-.25 4.113 4.113 0 00-.535-.106c-.596-.119-1.18-.238-1.775-.334a60.658 60.658 0 00-2.289-.381c-.785-.134-1.586-.24-2.383-.349L13.36.817a66.892 66.892 0 00-2.254-.248 93.055 93.055 0 00-4.91-.394A39.079 39.079 0 004.932.114 70.568 70.568 0 003.479.052C3.108.04 2.729.031 2.346.031A78.433 78.433 0 00.008-.004H-99.995v213.953H-.003v-.049c45.693 0 84.68-28.642 100.004-68.947v68.994h99.994v-345.459c0 55.229-44.766 99.996-99.994 99.996M-.003 196.906c-49.686 0-89.957-40.273-89.957-89.959 0-49.688 40.271-89.972 89.957-89.972s89.971 40.283 89.971 89.972c0 49.686-40.285 89.959-89.971 89.959"/></svg>