<svg version="1.1" id="Layer_1" xmlns="http://www.w3.org/2000/svg" x="0" y="0" viewBox="0 0 99.3 148.3" xml:space="preserve"><style>.st0{fill:none}.st1,.st2{fill:none;stroke:#000;stroke-width:0;stroke-linecap:round;stroke-linejoin:round}.st2{stroke:#edc9c9}.st3{fill:#edc9c9}</style><path class="st0" d="M47.6 85.1c.2-.4.6-.7.6-1.1 0 .3-.3.7-.6 1.1zM53.9 50.1c0-.1 0-.1.1-.2-.1.1-.1.1-.1.2zM53.5 54.3l-1.1-1.1c-.1-.1-.3-.1-.4-.2-.2-.2-.5-.4-.5-.6.1-.5.1-1.2.5-1.6-.3.4-.4 1-.5 1.6 0 .2.3.4.5.6.1.1.3.1.4.2l1.1 1.1c.3.3.6.3.9.1-.3.2-.6.2-.9-.1zM54.7 54.3l-.1.1s0-.1.1-.1zM55.7 52.7c.2-.4.4-.8.9-1 .1 0 .1-.1.2-.1 0 .1-.1.1-.2.1-.5.1-.7.6-.9 1zM90.7 121.7v0zM91.7 124.4zM68 141.4c.5.2.9.4 1.3.6-.4-.2-.9-.4-1.3-.6zM44.9 72.5zM44.6 63c-.2.5-.4 1.1-.2 1.5.3.6.8 1.2 1.3 1.7h.1c.3.1.6.2 1 .3.3 0 .6.1.9.1-.3 0-.6-.1-.9-.1-.3 0-.6-.2-1-.3h-.1c-.4-.6-1-1.1-1.3-1.7-.2-.4 0-1 .2-1.5.5-1 1.1-1.9 2.4-1.8-1.2-.1-1.9.8-2.4 1.8zM50.2 63c.3 0 .5.3.8.5-.3-.2-.5-.5-.8-.5zM50.5 33.7l-1.2.6c-.7.3-.6 1-.9 1.6-.1.2 0 .8.2.8.3.1.7.4 1 .6-.3-.2-.6-.5-1-.6-.2-.1-.3-.6-.2-.8.3-.5.2-1.3.9-1.6l1.2-.6c.2-.1.3-.1.5 0h-.5zM64.5 139.6s0 .1 0 0c.5.3.9.5 1.4.7h.1c-.5-.2-1-.4-1.5-.7zM60.2 121.6c-.2-.2-.5-.4-.7-.6.2.2.5.4.7.6.1.1.1.6 0 .7-.5.7-.8 1.6-1.6 2.1-.4.2-.7.4-1.1.5-.1 0-.2 0-.3-.1.1 0 .2 0 .3.1.4-.2.7-.3 1.1-.5.8-.5 1.1-1.3 1.6-2.1.1-.1.1-.6 0-.7zM49.7 96.6c-.7-.4-.6-1.6.2-2.1.4-.3.9-.5 1.4-.5-.5 0-1 .3-1.4.5-.8.5-.9 1.7-.2 2.1.2.2.5.4.7.6.1.1.1.2.2.3-.1-.1-.2-.2-.2-.3-.2-.2-.5-.5-.7-.6zM90.6 82.9c.1.3.4.6.5.9.1.3.3.6-.1.9-.2.1-.3.5-.2.7.2.5-.2.7-.5.8-.3.1-.6.1-1 .1.4 0 .7 0 1-.1.3-.1.7-.2.5-.8-.1-.2 0-.6.2-.7.5-.3.2-.6.1-.9-.1-.3-.4-.5-.5-.9-.1-.3-.3-.4-.6-.4.2.1.4.1.6.4zM64.5 73.9c.2-.4.3-.8.4-1.1-.2.3-.3.7-.4 1.1-.2.5-.4 1.1-.9 1.2.5-.2.6-.8.9-1.2zM91.8 124.3c.2-.2.4-.5.6-.8-.2.3-.4.6-.6.8zM41.7 83.6c-.2.7 0 1.3.5 1.9-.5-.6-.7-1.2-.5-1.9zM87.7 82.4c.6 0 1.2 0 1.8.1h0c-.5 0-1.2-.1-1.8-.1zM89.6 123.6c-.2-.2-.2-.6-.1-.9.2-.5.4-1 1-.9-.6-.1-.9.4-1 .9-.1.3-.1.7.1.9.4.4.9.7 1.3 1 .1 0 .1.1.2.1-.1 0-.1 0-.2-.1-.4-.3-.9-.6-1.3-1zM46.8 87.8c.5-.3.6-.8.9-1.3-.2.5-.4.9-.9 1.3zM45.4 81.9c.5.2.9.4 1.3.5-.4-.1-.9-.3-1.3-.5zM44.7 81.7c-.8-.2-1.7-.1-2.3.6.6-.7 1.5-.8 2.3-.6zM41.9 83.2c.2-.3.3-.6.5-.8-.2.2-.4.5-.5.8zM41.5 74.8c.7.2 1.2 1 2 .6h.2c.3-.1.6-.1.8-.2.3-.4.7-.7.7-1.1 0 .5-.4.8-.7 1.1-.1.2-.5.2-.8.2h-.2c-.8.4-1.3-.4-2-.6-.1 0-.3-.5-.2-.7 0 .2.1.6.2.7zM82.8 55.6c.2.1.4.1.5.2-.1 0-.3-.1-.5-.2zM50.8 129.1c-.3-.5-.8-1-1.3-1.3l-.6-.3.6.3c.5.2 1 .8 1.3 1.3.2.4.2.9.1 1.3.1-.5.1-1-.1-1.3zM74.9 64.2c-.1 0-.1 0 0 0-.2-.5-.2-1.1-.3-1.6 0-.6.9-1.3 1.4-1.3.4 0 .8 0 1.1.1-.4-.1-.7-.1-1.1-.1-.6 0-1.4.8-1.4 1.3 0 .6.1 1.1.3 1.6-.1 0-.1 0 0 0zM80.8 57.5c-.2-.1-.3-.4-.3-.6-.1.3 0 .5.3.6zM40.9 119.9l.2.2c.2.2.3.4.5.6 0 .1.1.1.1.2-.3-.4-.5-.7-.8-1zM79.9 107c.1.5-.2.9-.8.9-.5 0-.7.3-.9.7-.1.4-.5.8-.7 1.2.2-.4.5-.8.7-1.2.2-.5.3-.7.9-.7.6 0 .8-.3.8-.9 0-.1-.1-.2-.1-.3 0 .2.1.3.1.3zM79.5 105.8c.5.1.8.4.6 1 .2-.5-.2-.8-.6-1-.6-.2-1.2-.2-1.7-.3h-.4.4c.5.1 1.1.2 1.7.3zM81.6 55.5c-.4 0-.8.3-1.1 1 .3-.7.7-1 1.1-1zM82.3 58.1l-.9-.3.9.3zM75.3 64.4c.2.4.5.5.8.5-.3 0-.6-.1-.8-.5zM80.4 56.9c0-.1 0-.3.1-.4 0 .1 0 .3-.1.4zM55.5 77.6c.1-.5.2-1.1.2-1.7 0-.2 0-.5-.2-.6-.7-.4-1.3-.9-2-.9.8 0 1.4.5 2 .9.1.1.2.4.2.6 0 .6 0 1.1-.2 1.7-.3 1.3-1 1.4-2.2 1.5 1.2-.2 1.9-.2 2.2-1.5zM56.9 88.5c-.7.1-1.1-.5-1.7-.7-.2-.1-.3-.6-.2-.8.3-.5.2-1.3.9-1.6l1.2-.6c.1 0 .1 0 .2-.1-.1 0-.2 0-.2.1l-1.2.6c-.7.3-.6 1-.9 1.6-.1.2 0 .8.2.8.6.1 1 .8 1.7.7zM70.2 114c-.8-.3-1.6-.1-2.2.4.6-.5 1.4-.7 2.2-.4.3.1.5.4.8.6-.4.4-.8.7-.6 1.3 0 .2-.2.5-.4.7.3-.2.5-.5.4-.7-.1-.6.2-.9.6-1.3-.2-.2-.5-.5-.8-.6zM61.3 137.8c.4.2.8.4 1.1.6.1 0 .1.1.2.1-.5-.2-.9-.4-1.3-.7zM51.5 77.5l.6.6c-.3-.2-.4-.4-.6-.6zM57 135.1l.1.1c.4.3.8.5 1.1.8h.1c-.4-.3-.8-.6-1.3-.9zM51.1 130.5s.1.1 0 0c.4.3.7.6 1.1.9l.2.2c-.5-.4-.9-.7-1.3-1.1zM61.6 107.6c.1-.1.1-.4 0-.6.1.2.1.5 0 .6-.5.7-.8 1.6-1.6 2.1-.4.2-.7.4-1.1.5-.7 0-1.9-.7-2.4-1.3.5.6 1.6 1.3 2.4 1.3.4-.2.7-.3 1.1-.5.8-.4 1.1-1.3 1.6-2.1zM57.5 42.7c.2.2.5.4.5.6.1.5.5.4.8.4.3 0 .5.1.8.1.4.1.9.1 1.3.2.1-.4.5-.4.7-.5.4-.2.7-.4.8-.7-.1.3-.3.5-.8.7-.2.1-.7 0-.7.5-.4-.1-.9-.1-1.3-.2-.3 0-.5-.1-.8-.1-.3 0-.7.1-.8-.4 0-.3-.3-.4-.5-.6-.1-.1-.2-.3-.2-.4-.1.1.1.3.2.4zM62 40.9v-.5.5zM54 132.8c0 .1.1.1 0 0 .5.4.9.7 1.3 1 0 0 .1 0 .1.1-.5-.4-1-.7-1.4-1.1zM65.5 90.8c.2.2.4.3.6.5.3.3.7.6 1 .8l.1-.1-.1.1c-.3-.3-.7-.6-1-.8-.2-.2-.4-.4-.6-.5-.2-.1-.5-.2-.5-.5 0 .3.3.3.5.5zM95.9 58.3c0-.1-.2-.3-.3-.5-.1-.1-.2-.1-.3-.1-.5-.2-.9-.5-1.4-.6-.1 0-.2-.1-.4-.1.1 0 .2 0 .4.1.5.2.9.4 1.4.6.1 0 .3 0 .3.1.1.1.4.3.3.5-.2.8-.6 1.5-1.3 2-.4.2-.7.3-1 .4.3 0 .6-.1 1-.4.8-.5 1.1-1.3 1.3-2zM88.8 2.6c-.1.5.1.9.4 1.4.3.4.4.9.6 1.4-.2-.5-.3-1-.6-1.4-.3-.5-.5-.9-.4-1.4.1-.3-.1-.5-.3-.5.2 0 .3.2.3.5zM89.3 5.6c0 .2.1.4.1.6 0 .5-.7 1.1-1.1 1.3-.2.1-.5.2-.7.2.2 0 .4-.1.7-.2.4-.2 1.1-.9 1.1-1.3 0-.1-.1-.4-.1-.6 0-.1.2-.2.3-.3-.2.1-.3.2-.3.3zM83.9 14.2c.3-.2.6-.3.9-.4-.3.1-.6.2-.9.4zM89.8 27.4c.1 0 .1.1.2.1.1.1.2.1.3.2-.1-.1-.2-.1-.3-.2-.1 0-.1-.1-.2-.1zM94.3 70.2V70c.1 0 .1.1 0 .2zM83.6 73.9h-.1.1zM83.3 74h-.2.2zM95.2 18.7c.5-.3 1.1-.5 1.7-.8.4-.2 1.1.1 1.2.5.2.7.2 1.4.3 2 0 .2 0 .3.1.5.1.5 0 1-.4 1.3.4-.3.5-.7.4-1.3 0-.2-.1-.3-.1-.5-.1-.7-.2-1.4-.3-2-.1-.4-.7-.7-1.2-.5-.6.2-1.2.5-1.7.8-.1 0-.1.1-.2.1 0 0 .1-.1.2-.1zM84.7 73.2c-.3.3-.7.6-1.1.7.4-.2.9-.5 1.1-.7zM83.8 14.3c-.7.3-.9.8-1 1.4.1-.6.3-1.2 1-1.4zM88.6 42.7c.3-.2.7-.5 1.1-.6-.5.2-.8.4-1.1.6zM90.6 42c-.3 0-.7 0-.9.1.2 0 .5-.1.9-.1zM89.2 46c-.2-.3-.5-.5-.8-.7.2.3.5.4.8.7.5.6.9.6 1.7.3-.8.3-1.2.3-1.7-.3zM83 74h-.2.2zM87.7 43.6v-.1.1zM93.5 40.5c-.1-.2-.2-.5-.2-.7-.1-.7.4-1.3 1.2-1.4.5-.1.9-.1 1.4-.2.1 0 .2-.1.4-.2-.1.1-.2.2-.4.2-.5.1-.9.1-1.4.2-.7.1-1.3.8-1.2 1.4 0 .2.1.5.2.7zM89.7 27.4h0zM93.7 40.5h.2c.2.1.4.2.5.2-.2 0-.4 0-.5-.2h-.2zM91.3 30.5c-.2.2-.5.4-.8.6.3-.2.6-.4.8-.6.2-.3.5-.6.1-1 .4.4.1.7-.1 1zM87.2 30.8c1 .4 2.1.4 3.2.3h0c-1.1.1-2.2.2-3.2-.3zM64.8 70.4c-.2-.1-.4-.2-.5-.3-.4-.2-.7-.3-1.1-.3.4 0 .7.1 1.1.3.2.1.4.2.5.3zM86.8 30.5l.3.3-.3-.3zM91.2 28.8v.2c-.1-.1 0-.1 0-.2.3-.5-.1-.6-.3-.8 0 0-.1 0-.1-.1 0 0 .1 0 .1.1.2.2.6.4.3.8zM68 92.1c-.2 0-.5-.3-.8-.1.3-.2.5.1.8.1.5.1.8 0 1-.2-.2.2-.6.3-1 .2zM70.7 123.5c.3.2.5.3.8.5l.1.1-.1-.1c-.3-.2-.6-.3-.8-.5zM69.6 90c.1-.2.2-.3.3-.5-.1.2-.2.3-.3.5zM69.1 126.4c.1 0 .1 0 .2-.1 0 0 .1 0 .1-.1 0 0-.1 0-.1.1-.1.1-.1.1-.2.1zM71.2 124.6c-.3 0-.4.2-.5.5 0 .2-.1.3-.2.5.1-.1.2-.3.2-.5 0-.4.1-.5.5-.5.2 0 .4-.2.6-.3-.1-.1-.1-.1-.2-.1 0 0 .1.1.2.1-.3.1-.4.3-.6.3zM63.3 75.1h.1-.1zM64.8 89.2v-.3.3c0 .3.2.5.2.8 0-.2-.1-.5-.2-.8zM68.2 126.1c-.2-.1-.3-.2-.5-.3.1.1.3.2.5.3zM65.9 72.2c-.1.5-.4.6-.7.6.4 0 .6-.1.7-.6.2-.7.3-1-.2-1.3-.2-.1-.4-.2-.6-.4.2.1.4.2.6.4.5.3.4.6.2 1.3zM39.3 117.7l.1.1c.1.2.3.4.4.6.1.1.1.2.2.3-.2-.3-.5-.6-.7-1zM90.2 95.1h0c-.4-.2-.9-.4-1.3-.6h-.2.2c.5.2.9.4 1.3.6zM85.4 71.1c-.1 0-.3-.1-.3-.1s.2 0 .3.1zM81.1 70.6c-.2.6-.3 1.3.1 1.9-.5-.6-.4-1.3-.1-1.9zM82.1 73.6c-.3-.4-.7-.7-1-1.1.3.4.7.7 1 1.1.1.2.3.3.4.3-.1-.1-.2-.2-.4-.3zM82.3 69.8c-.6.1-1.1.4-1.2.8.1-.4.7-.6 1.2-.8zM90.2 70.7c-.1-.3-.5-.9-.4-1 .5-.6 1-1.5 2-1.3h.1c.8 0 1.5.3 2 .8-.5-.6-1.1-.8-2-.8h-.1c-1.1-.2-1.5.7-2 1.3-.1.1.3.7.4 1l.3.6c0 .1.1.1.2.2l-.2-.2-.3-.6zM89.6 97.1c.7-.5 1.3-1 1.1-2 .1 1-.4 1.5-1.1 2-.1 0-.2.1-.2.1-.1 0 .1-.1.2-.1zM85 70.9c-.2-.5-.7-.7-1.2-.9.5.1.9.3 1.2.9zM74.1 56.7c0 .1 0 .1 0 0 0 .1 0 .1 0 0zM73.9 56.9c0 .1 0 .2-.1.3.1-.1.1-.2.1-.3zM71.8 55.5c0-.3.3-.7.6-.9.6-.4 1.2-.9 2-.8-.8-.1-1.4.4-2 .8-.3.2-.6.6-.6.9-.1.6.8 1.4 1.4 1.4h.4-.4c-.6 0-1.5-.8-1.4-1.4zM74.7 53.8zM82.8 73.9h-.2.2zM62.9 130.1c-.9-.9-2.1-1.1-3.3-1-.1 0-.2.1-.4.1.1 0 .2-.1.4-.1 1.2-.1 2.3.1 3.3 1 .1.1.1.6 0 .7-.5.7-.8 1.6-1.6 2.1.8-.5 1.1-1.3 1.6-2.1.1-.1.1-.5 0-.7zM96 111.7c.1-.3.1-.7.2-1 .1-.4.3-.9.6-1.3.3-.5.3-.7-.2-1-.2-.1-.5-.3-.7-.5-.6-.6-1.3-.9-2-.7-.3.1-.6.2-.8.4.3-.2.5-.4.8-.4.7-.2 1.4.1 2 .7.2.2.4.4.7.5.5.3.5.5.2 1-.3.4-.4.8-.6 1.3-.1.4-.1.7-.2 1-.1.3-.3.5-.5.6.3-.1.5-.3.5-.6zM41.8 109.1zM45 102.2c.2.1.5.2.7.3-.3-.1-.5-.2-.7-.3zM33.6 94.9c.5.3.9.5 1.4.5-.4.1-.9-.2-1.4-.5zM42.5 109.4h0zM46 107.7c-.3.4-.5.8-.8 1.1-.4.4-1 .7-1.6.8.6-.1 1.2-.3 1.6-.8.2-.3.5-.7.8-1.1zM53.1 111.5l.1.1c-.1 0-.1 0-.1-.1zM98.2 3h.1zM96.5 93.2c-.3 0-.3-.1-.3-.3 0 .1 0 .2.3.3.4 0 .7.3 1 .5.2.1.3.2.5.2-.1-.1-.3-.2-.4-.2-.4-.2-.7-.5-1.1-.5zM46.3 107.4c0 .2-.1.5-.1.8 0-.3.1-.6.1-.8.1-.8.8-1.5.6-2.5-.1-.3-.5-2-.8-2.2.3.2.8 1.9.8 2.2.2 1-.5 1.6-.6 2.5zM28.6 53.4c0 .1.1.3.1.5 0-.2 0-.3-.1-.5zM50.9 110.6c.8.1 1.5.3 2 .8-.6-.5-1.2-.7-2-.8-1.4-.1-2.2.6-2.5 1.9.3-1.3 1.1-2.1 2.5-1.9zM28.8 53.4zM31.9 93.1c-.2-.6.2-1.3.7-1.6 1.1-.5 2.2-.5 3.3-.2.5.1.7.3.9.6-.2-.3-.5-.5-.9-.6-1.2-.3-2.2-.3-3.3.2-.6.3-.9 1-.7 1.6v.5c.1.3.2.6.3.7-.1-.2-.2-.4-.3-.7v-.5zM31.8 57.5h-.1.1c.6.5 1.1.1 1.5-.3-.4.4-.9.8-1.5.3zM64.6 8.5c-.6.3-1.1.5-1.7.8.6-.3 1.1-.5 1.7-.8zM31.3 50.5h-.4.4zM29.2 55.1c-.2-.2-.3-.4-.4-.7.1.2.2.5.4.7.5.5.7 1 1.1 1.5-.4-.5-.6-1.1-1.1-1.5zM32.5 94.5c-.1 0-.1-.1-.2-.1.1 0 .1.1.2.1zM98.2 3.6c-.2.5-.3 1-.5 1.5.2-.4.3-1 .5-1.5zM31.9 69.9c.4 0 .9.1 1.4.2-.5-.1-1.1-.1-1.4-.2-1 0-1.9-.2-2.3.9-.1.2-.1.5-.1.7 0-.2.1-.5.1-.7.4-1.1 1.3-.9 2.3-.9zM95.8 40.4h.3-.3zM92.9 141.9c-.5-.3-1.2-.4-1.5-1.1-.1-.3-.6-.3-.7 0-.3.9-.6 1.8-1 2.8.3-.9.6-1.9 1-2.8.1-.3.6-.3.7 0 .2.7.9.8 1.5 1.1.4.2.9.5 1.2.8-.4-.4-.8-.6-1.2-.8zM73.3 78.7c.1 0 .1-.1.2-.2s.1-.2.2-.2c-.1.1-.1.2-.2.2 0 .1-.1.1-.2.2zM73.3 75.3c-.5-.1-1-.3-1.4-.3.4 0 .9.2 1.4.3.8.2 1.1 1 1.2 1.7 0 .1 0 .2-.1.2 0-.1.1-.2.1-.2 0-.7-.4-1.5-1.2-1.7zM71.6 77.9c.2.1.3.2.4.2l.1.1-.1-.1c-.1 0-.2-.1-.4-.2zM72.3 135.2c-.4-.2-.6-.3-.9-.4-.9-.4-1.8-.8-2.7-.4 1-.5 1.8 0 2.7.4.2.1.5.2.9.4 0 .1 0 .4.2.6.3.4.2.8.1 1.3-.2.9-.8 1.5-1.2 2.3-.2.4-.6.6-1 .7.4-.1.8-.3 1-.7.4-.7 1.1-1.4 1.2-2.3.1-.5.2-.8 0-1.3-.3-.2-.3-.5-.3-.6zM72.5 78.6c-.1 0-.1 0 0 0-.1 0-.1 0 0 0 .3.2.6.2.8.1-.2.1-.5.1-.8-.1zM78.6 115.7c.6-.3.7-.8.8-1.3-.1.5-.2 1-.8 1.3-.2.1-.5.3-.7.4-.9 0-1.4-.6-1.9-1.1-.4-.3-.6-.7-.9-1.1-.1-.1-.1-.3 0-.5v.5c.2.4.5.8.9 1.1.6.4 1 1 1.9 1.1.3-.1.5-.3.7-.4zM81.3 126.9h-1c.4.1.7.1 1 0 .3 0 .6-.2.9-.2-.3.1-.6.2-.9.2zM79.6 114.1c0 .1-.1.1-.1.2 0-.1.1-.1.1-.2zM90.1 134.4c-1.3-1-2.8-1.1-4.3-.8-.6.1-1.1.3-1.5.8.4-.4.9-.7 1.5-.8 1.5-.3 3-.2 4.3.8 1.1.8 1.4 2 .7 3.1-.5.8-1 1.7-1.6 2.4-.3.3-.6.4-1 .6.4-.2.7-.3 1-.6.7-.7 1.1-1.5 1.6-2.4.8-1.2.4-2.3-.7-3.1zM60.2 133.5c.3-.2.7-.3 1-.5-.4.2-.7.3-1 .5zM30.3 56.6c.2.3.6.6.9.8-.3-.2-.7-.5-.9-.8zM98.3 135.9c-.1 0-.2-.1-.3 0-.1 0-.2 0-.4.1h-.3.3c.1 0 .2 0 .4-.1h.3c.1.1.2.1.3.1h0c-.1 0-.2 0-.3-.1zM64.8 99.8c0-.1.1-.1.2-.2-.1.1-.1.2-.2.2zM78.8 100.6zM97.8 90.5c.3 0 .6.1 1.2.4-.6-.5-.9-.5-1.2-.4zM50 114.8c-.5-.7-1-1.4-1.4-2.1.4.7.9 1.4 1.4 2.1l.2.2c-.1-.1-.1-.2-.2-.2zM65.3 101.8c-.5-.4-.8-1.5-.5-1.9-.3.4 0 1.5.5 1.9.2.1.4.2.6.4-.2-.2-.4-.3-.6-.4zM67.2 135.2c.2-.1.4-.2.5-.3-.1.1-.3.2-.5.3zM66.1 102.1c.2.2.4.3.6.4.3.1.5.2.7.2-.2 0-.4-.1-.7-.2-.2-.1-.3-.2-.6-.4a1.38 1.38 0 000 0z"/><path class="st0" d="M83 123.5c-.8-.3-1.5-.7-2.4-.7.9 0 1.6.4 2.4.7.2.1.3.4.6.6-.3.1-.5.2-.6.2-.2.9-.4 1.7-.6 2.5.2-.8.4-1.6.6-2.5.1 0 .3-.1.6-.2-.3-.2-.4-.5-.6-.6zM77.7 49.2c-.2.7-.9.4-1.3.6.4-.2 1.1.2 1.3-.6.2-.6.3-1.3.4-1.9v-.1.1c-.2.7-.3 1.3-.4 1.9zM72.9 11.7h-.1.1zM33.2 105.6c.1 0 .1.1.2.1-.1 0-.1 0-.2-.1zM33.5 108.2c.1 0 .2-.3.2-.4.1-.2 0-.5.2-.6.3-.3 0-.5 0-.7l-.3-.6.1-.1-.1.1.3.6c.1.2.3.4 0 .7-.1.1-.1.4-.2.6 0 .2-.1.4-.2.4s-.1 0 0 0c-.1 0-.1 0 0 0-.1 0 0 0 0 0zM75.8 46.5l1.8.3c.1 0 .2.1.3.2-.1-.1-.2-.2-.3-.2l-1.8-.3h-.3.3zM72.1 11.9c-.5-.1-.9-.6-1.4-.7-.1-.1-.3-.6-.2-.8.3-.5.2-1.3.9-1.6l1.2-.6c.1 0 .2 0 .2-.1-.1 0-.2 0-.2.1l-1.2.6c-.7.3-.6 1-.9 1.6-.1.2 0 .8.2.8.5.1.9.6 1.4.7zM73.1 30.5c.1.1.1.3.1.5 0-.3-.1-.4-.1-.5zM71.4 32.8c-.2 0-.6-.1-.9-.1.3 0 .7.1.9.1zM69.5 30.3c.5-.4 1.1-.6 1.8-.7-.7.2-1.4.3-1.8.7zM79 100.7h.2-.2zM37.2 114.7c.1.1.1.2.2.3.1.2.3.4.4.6l.1.1c-.2-.3-.5-.6-.7-1zM81.6 99.5c-.1 0-.1-.1-.2-.1.1 0 .2.1.2.1zM70.4 32.6zM76.5 23.2c.5.2 1 .3 1.4.5.3.1.5.1.7 0-.2.1-.5.1-.7 0-.4-.2-.9-.3-1.4-.5-.6-.3-.9-.9-1-1.6-.1-.6.8-1.6 1.5-1.7.3-.1.7-.2 1-.2-.3 0-.7.2-1 .2-.6.1-1.5 1.2-1.5 1.7.1.7.4 1.3 1 1.6zM77.2 99.1c-.1-.1 0-.3-.1-.4-.2-.7-.3-1.4-.5-2-.1-.4 0-.7.3-1 .3-.2.5-.3.8-.4-.3.1-.5.3-.8.4-.4.2-.4.6-.3 1 .2.7.3 1.3.5 2 .1.1.1.3.1.4.3.5.6 1 1 1.3-.4-.3-.7-.8-1-1.3zM78.5 100.5zM79.5 19.9h-.2.2zM35.7 112.4c0 .1.1.1.1.2.2.3.3.5.5.8 0 .1.1.1.1.2-.2-.4-.4-.8-.7-1.2zM34 109.3c.2.3.3.6.5.9.1.1.2.3.2.4.1.2.2.4.4.6-.4-.6-.8-1.3-1.1-1.9zM35.2 51.8c.3.4.4.9.4 1.5-.1-.5-.1-1.1-.4-1.5zM81.3 35.1c.2.1.3.3.2.5-.1.5.1.9.4 1.4.3.4.4.9.6 1.4h-.2c-.1.1-.2.2-.2.3 0 .2.1.4.1.6 0 .5-.7 1.1-1.1 1.3-.5.2-.9.2-1.3.1.4.1.8.1 1.3-.1.4-.2 1.1-.9 1.1-1.3 0-.2-.1-.4-.1-.6 0-.1.2-.2.2-.3h.2c-.2-.5-.3-1-.6-1.4-.3-.4-.5-.8-.4-1.4.1-.3 0-.5-.2-.5zM42.4 47.9c-.6-.5-1-1.1-1.4-1.8.5.6.9 1.3 1.4 1.8zM43.5 48.5c-.4-.1-.8-.3-1.1-.6.3.2.7.5 1.1.6zM71.5 32.7c.1 0 .2.1.2.1.1 0 .3.1.4.1-.1 0-.3 0-.4-.1 0 0-.1-.1-.2-.1zM43.5 48.5c.4.1.9-.1 1.2-.3-.3.2-.8.3-1.2.3zM55.8 19.3c.1 0 .1.1.1.2 0-.1-.1-.2-.1-.2-.7-.6-.8-1.5-.4-2.3.2-.3.3-.6.5-.8.6-.7 1.5-.8 2.3-.6.9.2 1.8.7 2.7 1-.9-.3-1.8-.8-2.7-1-.8-.2-1.6-.1-2.3.6-.2.3-.4.5-.5.8-.5.8-.3 1.6.4 2.3zM41.5 44.4l-.3.6s0 .1-.1.1c0 0 0-.1.1-.1 0-.3.1-.5.3-.6zM64.5 8.5c-.5.3-1 .5-1.6.8.6-.2 1.1-.5 1.6-.8zM30.5 50.5zM56 19.9c0-.1-.1-.2-.1-.3.1.1.1.2.1.3.1.4.2.9.4 1.2.2.3.6.4.9.6-.3-.2-.7-.3-.9-.5-.2-.4-.2-.9-.4-1.3zM43.9 43.3c1.2.1 2.5 1 2.7 2-.2-1-1.5-1.9-2.7-2-.3 0-.6 0-.8.1-.2 0-.4.1-.6.2.2-.1.4-.1.6-.2.3 0 .6 0 .8-.1zM41.6 27.4c.4.1.8.3 1.2.4-.4-.1-.8-.2-1.2-.4zM63.1 54.7c-.2.2-.2.5-.2.7 0-.3 0-.6.2-.7 1.1-1 3.2-1.2 4.6-.3-1.4-.9-3.5-.8-4.6.3zM61.1 20.6c-.1.3-.2.5-.4.7.2-.2.3-.4.4-.7zM42.8 31.8c.3-.3.4-.7.6-1-.2.3-.3.7-.6 1zM73.1 30.5c-.3-.6-1-1.1-1.8-.8.7-.3 1.4.2 1.8.8zM34.3 38.1c-.2.3-.3.6-.5.9.2-.2.4-.5.5-.9zM69.2 31.7c.1-.5 0-1.2.2-1.4-.2.3-.1 1-.2 1.4v0zM44.2 28.5c0-.1-.1-.1-.1-.1-.4-.2-.8-.4-1.2-.5.4.2.8.3 1.2.5l.1.1zM60.9 29.6h1.5c.6 0 .7.3.9 1 .2.7-.1.8-.7 1 .1.4.2.8.2 1.2 0 .6.3 1.3-.4 1.7-.2.1-.4.1-.5.2h-.1.1c.2 0 .4-.1.5-.2.7-.4.4-1.1.4-1.7 0-.4-.1-.8-.2-1.2.5-.2.8-.3.7-1-.2-.7-.3-1-.9-1h-1.5zM58.2 33.9c-.2-.3-.4-.8-.4-1.2 0 .5.2.9.4 1.2zM60.2 34.9c.2.1.4.2.5.1.1-.1.2-.1.3-.2-.1 0-.2.1-.3.2-.2 0-.3 0-.5-.1z"/><path d="M70.7 123.5l-.6-.3c-.9-.4-1.9-.4-2.6.3-.3.3-.7.7-.6 1.1 0 .6.4.9.8 1.2.2.1.3.2.5.3.1.1.2.1.3.2.2.1.4.2.7.2.1 0 .1 0 .2-.1 0 0 .1 0 .1-.1.4-.2.8-.4 1-.8.1-.1.2-.3.2-.5.1-.3.2-.4.5-.5.2 0 .4-.2.6-.3-.1-.1-.1-.1-.2-.1l-.1-.1c-.3-.2-.6-.3-.8-.5zM70.4 115.9c-.1-.6.2-.9.6-1.3-.3-.2-.5-.5-.8-.6-.8-.3-1.6-.1-2.2.4l-.6.6c-.2.4-.2.8.1 1.2.5.5 1.1.7 1.7.8.2 0 .5-.1.8-.3.3-.3.5-.6.4-.8zM65.5 90.8c.2.2.4.3.6.5.3.3.7.6 1 .8l.1-.1c.2-.2.5 0 .8.1.5.1.8 0 1-.2.1-.1.1-.2.2-.3.2-.5.2-1.1.5-1.5.1-.2.2-.3.3-.5v-.2c-.2-.3-.5-.6-.7-.9-.4-.7-1.1-.9-1.8-.9-1.1-.1-1.8.7-2.5 1.3 0 0-.1.1-.1.2v.3c0 .3.2.5.2.8v.3c-.1.1.2.1.4.3zM69.2 31.9c.2.2.4.3.6.4.1.1.3.2.6.2h.1c.3.1.7.1.9.1h.2c.1 0 .2.1.2.1.1 0 .3.1.4.1.4 0 .8-.2.9-.6.1-.4.2-.9.1-1.4 0-.2 0-.3-.1-.5-.3-.5-1-1.1-1.8-.8-.6.2-1.3.3-1.8.7-.3.2-.2.9-.2 1.4-.1.2-.1.3-.1.3zM71.4 8.8c-.7.3-.6 1-.9 1.6-.1.2 0 .8.2.8.5.2.9.7 1.4.7.2 0 .4 0 .6-.1h.2c.3-.1.6-.1.8-.2.3-.5 1-.9.6-1.7-.1-.2-.2-.5-.2-.7-.1-.6-.7-1-1.3-1-.1 0-.2 0-.2.1-.4.1-.8.3-1.2.5zM75.5 21.6c.1.6.4 1.3 1 1.6.5.2 1 .3 1.4.5.3.1.5.1.7 0 .1 0 .2-.1.2-.1.6-.3 1.2-1.5 1.1-2.1-.2-.5-.3-1.1-.5-1.6H79c-.3-.2-.7-.3-1-.2-.3 0-.7.2-1 .2-.6.1-1.5 1.2-1.5 1.7zM63.1 54.7c-.2.2-.2.5-.2.7-.1.9.4 1.5 1.2 1.9.4.2.8.3 1.1.5.6.4 1.3.2 1.5-.4l.3-1.2c.2-.6.5-1.2.7-1.8-1.4-.9-3.5-.8-4.6.3zM58 43.3c.1.5.5.4.8.4.3 0 .5.1.8.1.4.1.9.1 1.3.2.1-.4.5-.4.7-.5.4-.2.7-.4.8-.7v-.4c-.1-.5-.3-1-.4-1.6v-.5c0-.1-.1-.2-.2-.2-.3-.1-.7-.2-1.1-.4-.7-.4-1.4-.2-2 .1-1 .5-1.2 1.5-1.5 2.4 0 .1.1.3.2.4.3.3.6.4.6.7zM58.9 110.3c.4-.2.7-.3 1.1-.5.8-.5 1.1-1.3 1.6-2.1.1-.1.1-.4 0-.6 0-.1 0-.1-.1-.1-.9-.9-2.1-1.1-3.3-1-.5.1-.9.5-1.4.7-.9.5-1 1.1-.6 2 0 .1.1.2.2.3.6.6 1.8 1.2 2.5 1.3zM56 16.2c-.2.3-.4.5-.5.8-.5.8-.3 1.6.4 2.3.1 0 .1.1.1.2s.1.1.1.2.1.2.1.3c.1.4.2.9.4 1.2.2.3.6.4.9.5.1 0 .2.1.2.1 1 .6 1.9.4 2.8-.2l.3-.3c.2-.2.3-.4.4-.7.1-.1.1-.2.2-.3.3-.6.2-1-.1-1.4.2-.4.6-.7.6-1.1 0-.5-.3-1-.8-1.3-.9-.3-1.8-.8-2.7-1-1-.1-1.8 0-2.4.7zM90.6 95.1h-.4c-.4-.2-.9-.4-1.3-.6h-.2c-.6-.1-1.3.1-1.5.7-.1.2-.1.5-.2.7.1.1.3.1.4.3.4.8 1.3.5 1.9 1 0 0 .2 0 .2-.1.8-.5 1.3-1 1.1-2zM55.8 85.4c-.7.3-.6 1-.9 1.6-.1.2 0 .8.2.8.6.2 1 .8 1.7.7.1 0 .2-.1.3-.1h.2c.3-.1.7-.1.8-.2.3-.5 1-.9.6-1.7-.1-.2-.2-.5-.2-.7-.1-.6-.7-1-1.3-1-.1 0-.2 0-.2.1-.3.1-.7.3-1.2.5zM53.9 50.1c-.8-.1-1.4.3-1.9.8-.3.4-.4 1-.5 1.6 0 .2.3.4.5.6.1.1.3.1.4.2l1.1 1.1c.3.3.6.3.9.1 0 0 .1 0 .1-.1.1 0 .1-.1.1-.1.3-.3.6-.8.8-1.2.1-.1.2-.3.2-.5.2-.4.4-.8.9-1 .1 0 .1-.1.2-.1.1-.2.1-.5-.2-.6-.9-.4-1.8-.7-2.7-1.1.1.2.1.2.1.3zM62.5 34.6c.7-.4.4-1.1.4-1.7 0-.4-.1-.8-.2-1.2.5-.2.8-.3.7-1-.2-.7-.3-1-.9-1H61h-.1c-1.1.1-2 .5-2.5 1.5-.2.3-.3.7-.4 1-.1.2-.1.4-.1.6 0 .4.2.8.4 1.2.2.2.4.4.6.5.3.1.7.2 1 .3.1 0 .2.1.4.1.2.1.4.2.5.1.1-.1.2-.1.3-.2.3-.1.6 0 .9-.1h.1s.2 0 .4-.1zM75.8 46.5h-.3c-.8.1-1.6.7-1.7 1.5 0 .2 0 .4.1.5.7.7 1.4 1.3 2.5 1.4.3-.2 1.1.1 1.3-.6.2-.6.3-1.3.4-1.9v-.1c0-.1-.1-.1-.1-.2-.1-.1-.2-.2-.3-.2-.7-.2-1.3-.3-1.9-.4zM75.5 55.7c-.2-.5-.4-.9-.5-1.4 0-.3-.1-.4-.3-.4h-.1-.1-.1c-.8-.1-1.4.4-2 .8-.3.2-.6.6-.6.9-.1.6.8 1.4 1.4 1.4h.8v.2c.1-.1.1-.3.2-.4.3 0 .5.1.7.1.8-.2 1-.4.6-1.2zM80.8 57.5c.1.1.2.1.4.2.1 0 .2.1.3.1l.9.3c.2.1.5.1.7 0 .3 0 .5-.2.6-.3.2-.5.3-1.1.4-1.6-.3-.1-.5-.3-.7-.4-.2-.1-.4-.1-.5-.2-.1 0-.2 0-.2-.1-.4-.1-.7-.1-.9-.1-.4 0-.8.3-1.1 1-.1.2-.1.3-.1.4-.2.4-.1.6.2.7zM74.6 62.6c0 .5.1 1.1.2 1.6h.1c.1 0 .3.1.4.1 0 0 .1 0 .1.1.2.4.5.5.8.5.2 0 .4-.1.6-.1.3-.1.6-.1.9-.2.2-.1.6-.1.6-.5 0-.3.1-.7.2-.9.3-.5.1-1.1-.4-1.4-.3-.1-.6-.3-.9-.3-.4-.1-.7-.1-1.1-.1-.6-.1-1.5.7-1.5 1.2zM81.6 99.5c.1-.5.3-1 .2-1.5-.1-.5 0-1 .3-1.4.2-.3.2-.6-.1-.7-.9-.3-1.8-.5-2.7-.8-.6-.2-1.1-.1-1.5.1-.3.1-.5.3-.8.4-.4.2-.4.6-.3 1 .2.7.3 1.3.5 2 0 .1 0 .3.1.4.3.5.6 1 1 1.3.1 0 .1.1.2.1h.1c.1 0 .2.1.3.1h.4c.5 0 1.3-.2 1.6-.6.1-.2.1-.4.3-.6.1-.1.2-.1.4-.1-.1.2 0 .3 0 .3zM89.6 82.6c-.6-.1-1.2-.1-1.8-.1-.7 0-.8.8-1.2 1.1-.3.2-.3.5 0 .9.7.9 1.6 1.4 2.6 1.9h.1c.4 0 .7 0 1-.1.3-.1.7-.2.5-.8-.1-.2 0-.6.2-.7.5-.3.2-.6.1-.9-.1-.3-.4-.6-.5-.9-.1-.3-.3-.4-.6-.4h-.3-.1zM94.4 69.9c-.1-.3-.3-.5-.4-.7-.5-.6-1.1-.8-2-.8h-.1c-1.1-.2-1.5.7-2 1.3-.1.1.2.7.4 1l.3.6c0 .1.1.1.2.2.4.4 1.3.8 1.8.6.5-.2 1-.3 1.2-.9.1-.3.4-.6.6-.9 0 0 0-.1.1-.1V70l-.1-.1zM89.8 27.4h-.1c-.3 0-.5.2-.7.3-.6.2-1.1.5-1.7.8-.6.4-.3 1.1-.5 1.6-.1.2-.1.3 0 .4l.3.3c1 .4 2.1.4 3.2.3h.1c.3-.2.6-.4.8-.6.2-.3.5-.6.1-1-.1-.1-.2-.3-.2-.5v-.2c.3-.5-.1-.6-.3-.8 0 0-.1 0-.1-.1-.1-.1-.3-.2-.5-.2-.1-.1-.2-.1-.3-.2 0 0 0-.1-.1-.1zM89.6 42.1c-.4.1-.7.3-1.1.6-.3.2-.6.5-.9.8v.2c.1.2.2.4.2.6 0 .4.1.7.5 1 .3.2.6.4.8.7.5.6.9.6 1.7.3.5-.1 1-.3 1.3-.6.3-.4.5-.9.7-1.4.1-.3-.1-.7-.2-1 0-.2-.1-.4-.3-.5-.6-.4-1.2-.8-1.8-.8-.3 0-.6.1-.9.1zM88.8 2.6c.1-.3-.1-.5-.3-.5h-.2c-.9.2-1.8.5-2.8.7-.9.2-1.4.9-1.7 1.7-.2.4-.1.7.2 1 .5.5 1 1 1.4 1.5.1.1.1.3.2.3.6.3 1.2.6 1.8.6.2 0 .4-.1.7-.2.4-.2 1.1-.9 1.1-1.3 0-.2-.1-.4-.1-.6 0-.1.2-.2.2-.3h.2c-.2-.5-.3-1-.6-1.4 0-.6-.2-1-.1-1.5zM85 70.9c-.3-.6-.8-.8-1.2-.9-.2-.1-.4-.1-.6-.2-.2-.1-.6-.1-.9 0-.6.1-1.1.4-1.2.8-.2.6-.3 1.3.1 1.9.3.4.7.7 1 1.1.1.2.3.3.4.3H83.9c.4-.1.8-.4 1.1-.7.1-.2.2-.3.3-.5.1-.5.3-1.1.4-1.6-.4-.1-.6-.1-.7-.2zM83.5 17.1l.6.3c.5.3 1.7.2 2.1-.3.3-.4.7-.7.6-1.3-.1-.4 0-.7 0-1.1 0-.2 0-.4-.2-.5-.6-.4-1.3-.6-1.9-.4-.3.1-.6.2-.9.4 0 0-.1 0-.1.1-.7.3-.9.8-1 1.4 0 .2 0 .3-.1.5v.3c.1.1.6.4.9.6zM81 40.6c.4-.2 1.1-.9 1.1-1.3 0-.2-.1-.4-.1-.6 0-.1.2-.2.2-.3h.2c-.2-.5-.3-1-.6-1.4-.3-.4-.5-.8-.4-1.4 0-.3 0-.5-.2-.5H81c-.9.2-1.8.5-2.8.7-.9.2-1.4.9-1.7 1.7-.2.4-.1.7.2 1 .5.5 1 1 1.4 1.5.1.1.1.3.2.3.4.2.8.4 1.2.5.6.1 1 .1 1.5-.2zM55.5 77.6c.1-.5.2-1.1.2-1.7 0-.2 0-.5-.2-.6-.7-.4-1.3-.9-2-.9h-.3c-.3 0-.7.2-1 .3-.3.2-.6.4-.8.6-.4.5-.6 1-.2 1.8.1.1.2.2.2.3l.6.6c.3.2.5.5.7.8.1.2.4.1.6.2 1.2-.1 1.9-.1 2.2-1.4zM74.9 108.2c.8.5 1.7 1 2.7 1.6.2-.4.5-.8.7-1.2.2-.5.3-.7.9-.7.6 0 .8-.3.8-.9 0-.1-.1-.2-.1-.3.1 0 .2 0 .3.1.2-.6-.1-.9-.6-1-.6-.2-1.2-.2-1.7-.3h-.4c-.9-.1-1.6.3-2.3.8-.3.2-.5.5-.3 1-.1.2-.1.6 0 .9zM90.9 137.5c.7-1.2.4-2.3-.7-3.1-1.3-1-2.8-1.1-4.3-.8-.5.1-1.1.3-1.5.8l-.2.2c-.2.3-.4.7-.6 1-.7 1.1-.6 2.2.3 3.2.3.4.7.5.9.9.6.9 1.6.9 2.5 1.3.3-.2.7-.3 1.1-.5.4-.2.7-.3 1-.6.5-.7 1-1.5 1.5-2.4zM83.5 124.1c-.2-.3-.3-.6-.6-.6-.8-.3-1.5-.7-2.3-.7-.3 0-.5.1-.8.2-1.3.6-2.1 1.3-1.1 2.8.2.3.5.5.7.7.3.2.6.3.9.4.3.1.7.1 1 0 .3 0 .6-.2.9-.2l.1.1c.2-.8.4-1.6.6-2.5.2 0 .4-.1.6-.2zM75.2 114c.2.4.5.8.9 1.1.6.4 1 1 1.9 1.1.2-.1.5-.3.7-.4.6-.3.7-.8.8-1.3v-.1c0-.1.1-.1.1-.2.2-.5.1-.8-.4-1.1-.4-.2-.7-.4-1.1-.5-1-.4-2.3 0-2.9.8 0 0 0 .1-.1.1 0 .1 0 .3.1.5zM71.2 139.3c.4-.7 1.1-1.4 1.2-2.3.1-.5.2-.8-.1-1.3-.1-.2-.1-.5-.2-.6-.4-.2-.6-.3-.9-.4-.9-.4-1.8-.8-2.7-.4-.1.1-.3.1-.4.3-.1.1-.3.2-.4.3-.2.1-.4.2-.5.3-.2.1-.5.3-.7.6-.3.5-.7 1.5-.4 2 .4.7 1 1.3 1.6 1.8.3.3.8.4 1.3.4.4 0 .9.1 1.3 0 .3-.1.7-.3.9-.7zM66.8 102.5c.3.1.5.2.7.2.3 0 .4-.3.5-.8.1-.5.1-1 .3-1.5.1-.4 0-.5-.2-.7-.7-.5-1.5-.4-2.2-.4-.3 0-.6.1-.8.3l-.2.2c-.4.5 0 1.6.5 1.9.2.1.4.2.6.4l-.2.2c.1-.1.2-.2.4-.3.2.3.3.4.6.5zM73.3 75.3c-.5-.1-1-.3-1.4-.3h-.5c-.4.1-.6.7-.9 1.1 0 .1-.1.1-.1.1.1.3.2.5.3.7.1.3.5.7.9 1 .2.1.3.2.4.2l.1.1.1.1c.1.1.2.1.2.2l.1.1c.3.1.6.2.8.1.1 0 .1-.1.2-.2s.1-.2.2-.2c.3-.3.6-.7.7-1.1 0-.1.1-.2.1-.2 0-.7-.4-1.5-1.2-1.7zM94.4 38.3c-.7.1-1.3.8-1.2 1.4 0 .2.1.5.2.7h.5c.2.1.4.2.5.2.4 0 .9-.3 1.3-.3h.3l.2-.2c.4-.8.6-1.5-.1-2.3-.1.1-.2.2-.4.2-.3.2-.8.2-1.3.3zM98.4 20.9c0-.2-.1-.3-.1-.5-.1-.7-.2-1.4-.3-2-.1-.4-.7-.7-1.2-.5-.6.2-1.1.5-1.7.8-.1 0-.1.1-.2.1-.5.4-.9 1.3-.8 1.8l.3 1.5c.3.1.5 0 .6.1.8.6 1.6.4 2.5.2.2-.1.3-.1.4-.2.5-.3.6-.7.5-1.3zM98.8 2.5c0 .1-.2.2-.3.3l-.2.2c0 .2 0 .4-.1.5-.2.5-.3 1.1-.5 1.5.1.3.1.4.2.5.4.6.8 1 1.2 1.6h.1v-5s-.1 0-.2.1-.2.2-.2.3zM92.9 141.9c-.5-.3-1.2-.4-1.5-1.1-.1-.3-.6-.3-.7 0-.3.9-.6 1.8-1 2.8.1 0 .1 0 .2.1-.1.8.4 1.4.9 1.9.4.3 1 .4 1.6.4.2 0 .4-.3.6-.5.1-.1.1-.3.2-.4.3-.4.7-.8 1.1-1.2.2-.2.2-.4.2-.6 0-.2-.1-.4-.3-.5-.5-.5-.9-.7-1.3-.9zM95.9 58.3c0-.1-.2-.3-.3-.5-.1-.1-.2-.1-.3-.1-.5-.2-.9-.5-1.4-.6-.1 0-.2-.1-.4-.1-.8 0-1.8.8-1.8 1.6.2.4.1.8.5 1.2.5.5.9.8 1.4.8.3 0 .6-.1 1-.4.8-.4 1.1-1.2 1.3-1.9zM96 111.7c.1-.3.1-.7.2-1 .1-.4.3-.9.6-1.3.3-.5.3-.7-.2-1-.2-.1-.5-.3-.7-.5-.5-.6-1.3-.9-2-.7-.3.1-.6.2-.8.4-.3.2-.5.4-.8.6-.1.1.1.4.1.5 0 .5-.2 1-.2 1.4 0 .3.1.7.3.9.4.3.8.6 1.3.8.4.2.3.3 0 .6.3 0 .6-.1.8 0 .3 0 .6 0 .9-.1.3-.1.5-.3.5-.6zM47.4 82.8c-.2-.1-.4-.2-.7-.3-.4-.2-.9-.4-1.3-.5-.2-.1-.5-.2-.7-.2-.8-.2-1.6-.1-2.3.6-.2.3-.4.5-.5.8-.1.1-.1.3-.2.4-.2.7 0 1.3.5 1.9.2.1.2.4.3.6.1.4.2.9.4 1.2.3.3.7.4 1.1.7.1.1.2.1.4.2s.5.2.7.2c.6 0 1.2-.1 1.7-.5.5-.3.6-.8.9-1.3.1-.1.1-.3.1-.4.1-.4 0-.7-.2-.9.2-.4.6-.7.6-1.1 0-.7-.2-1.2-.8-1.4zM30.2 72.4c.5.3 1 .6 1.4.9.8.6 1.8.3 2.2-.6.2-.4.3-.9.5-1.3.1-.5-.4-1.2-.9-1.3h-.1c-.5-.1-1-.1-1.4-.2-1 0-1.9-.2-2.3.9-.1.2-.1.5-.1.7v.2c.1.3.4.5.7.7zM30.3 56.6c.2.3.6.6.9.8.1.1.3 0 .5 0h.1c.6.5 1.1.1 1.5-.3.7-.8 1.3-1.6 2-2.4.3-.4.4-.9.3-1.5 0-.5-.1-1.1-.4-1.5-.4-.4-.9-.7-1.4-1-.8-.4-1.6-.4-2.5-.3h-.8c-.1 0-.1 0-.2.1-.8.7-1.7 1.4-1.5 2.8h-.1c0 .1.1.3.1.5s.1.3.1.5c.1.3.2.6.4.7.4.5.6 1.1 1 1.6zM46 107.7c.1.2.1.2.2.5.1-.4.1-.6.1-.8.1-.8.8-1.5.6-2.5-.1-.3-.5-2-.8-2.2-.1-.1-.3-.1-.4-.2-.2-.1-.5-.2-.7-.3-.4-.2-.7-.3-1.1-.5-.5-.2-1-.2-1.5-.2-1.2.2-2.8 1.8-2.8 3.1 0 .9.2 1.9.6 2.8.3.7.9 1.2 1.5 1.6.2.1.4.2.7.3h.1c.3.1.6.2 1 .1.6-.1 1.2-.3 1.6-.8.3-.1.6-.5.9-.9zM35.1 95.5c.2 0 .4 0 .6-.1.5-.2 1.1-.4 1.2-1 .1-.5.2-1.1.3-1.6 0-.1.1-.1.1-.2-.1-.3-.2-.6-.4-.8-.2-.3-.5-.5-.9-.6-1.2-.3-2.2-.3-3.3.2-.6.3-.9 1-.7 1.6v.5c.1.3.2.6.3.7l.1.1c.1 0 .1.1.2.1.3.2.7.2 1 .3.1 0 .1.1.2.1.3.4.8.7 1.3.7zM64.4 73.9c.2-.4.3-.8.4-1.1.1 0 .3.1.4.1.3 0 .6-.1.7-.6.2-.7.3-1-.2-1.3-.2-.1-.4-.2-.6-.4-.1-.1-.2-.1-.3-.2-.2-.1-.4-.2-.5-.3-.4-.2-.7-.3-1.1-.3-.6-.1-1.2 0-1.8.3-.3.2-.6.4-.9.7-.6.4-.8 1.9-.3 2.5.2.3.5.5.8.7.2.2.4.7.6.6.5-.1.8.3 1.2.5.2 0 .4.1.6.1h.2c.5-.3.6-.9.8-1.3zM41.5 74.8c.7.2 1.2 1 2 .6h.2c.3-.1.6-.1.8-.2.3-.4.7-.7.7-1.1 0-.2 0-.3-.1-.5-.1-.3-.1-.6-.2-.9 0-.1 0-.1-.1-.2-.2-.5-.9-.9-1.4-.7l-1.2.6c-.7.3-.6 1-.9 1.6v.1c0 .2.1.6.2.7zM41.1 46.1c.4.6.8 1.3 1.4 1.8.3.3.7.6 1.1.6.4.1.9-.1 1.2-.3.6-.4 1.2-.9 1.6-1.4.3-.3.3-1 .2-1.4-.2-1.1-1.5-2-2.7-2-.3 0-.6 0-.8.1-.2 0-.4.1-.6.2-.4.2-.7.4-1 .7l-.3.6s0 .1-.1.1c-.2.3-.3.5 0 1zM51.2 94c-.5 0-1 .3-1.4.5-.8.5-.8 1.7-.2 2.1.2.2.5.4.7.6.1.1.1.2.2.3.6.6 1.5.7 2.2.2.1-.1.2-.2.2-.3.3-.5.5-1 .8-1.6 0 0 .2 0 .4-.1-.6-.5-1-1-1.5-1.3-.4-.2-.9-.4-1.4-.4zM58.6 124.4c.8-.5 1.1-1.4 1.6-2.1.1-.2.1-.6 0-.7-.2-.2-.5-.4-.7-.5-.8-.4-1.6-.5-2.5-.4-.5.1-.9.5-1.4.7-.9.5-1 1.1-.6 2 .3.6 1.4 1.3 2.2 1.5.1 0 .2 0 .3.1.4-.2.8-.4 1.1-.6zM62.9 130.9c.1-.2.1-.6 0-.7-.9-.9-2.1-1.1-3.3-1-.1 0-.2.1-.4.1-.3.2-.7.4-1 .6-.9.5-1 1.1-.6 2 .4.7 1.7 1.5 2.5 1.6.3-.2.7-.3 1-.5 0 0 .1 0 .1-.1.9-.4 1.2-1.3 1.7-2zM50.5 33.7l-1.2.6c-.7.3-.6 1-.9 1.6-.1.2 0 .8.2.8.3.1.6.4 1 .6.3.2.6.2 1 0h.2c.3-.1.6-.1.8-.2.3-.5 1-.9.6-1.7-.1-.2-.2-.5-.2-.7-.1-.5-.5-.9-1-1h-.5zM44.6 63c-.2.5-.4 1.1-.2 1.5.3.6.8 1.2 1.3 1.7h.1c.3.1.6.2 1 .3.3 0 .6.1.9.1h.8c.6-.1 1.3-.5 1.8-.7.1-.6.1-1.1.1-1.5 0-.5-.3-.9-.5-1.4h.3c.3 0 .5.3.8.4.2-.3.3-.6-.1-.9-1.1-1-2.5-1.3-3.9-1.4-1.2 0-1.9.9-2.4 1.9zM50.2 115c.1.1.2.1.2.1.4.2 1.5-.3 1.7-.7.3-.6.7-1.1 1-1.7.1 0 .2.1.3.1.1-.2.2-.3.2-.5-.1-.3-.3-.6-.5-.8l-.1-.1-.2-.2c-.5-.5-1.2-.7-2-.8-1.4-.1-2.2.6-2.5 1.9.1.1.1.2.2.2.5.7 1 1.4 1.4 2.1.2.2.2.3.3.4z"/><path class="st1" d="M68.6 6.5c1-.4 2-.9 3-1.3M34.3 38.1c-.2.3-.3.6-.5.9M25.2 70.6v-.7M66.3 7.6l1.8-.9"/><path d="M97.4 50.4c-.9.7-.8 1.3-.3 2.3.1.2.3.4.4.5.3.2.6.4.8.7.1.1.4.2.7.1.1 0 .2 0 .2-.1v-3.8c-.2 0-.3-.1-.5-.1-.6.1-.8 0-1.3.4z"/><path class="st1" d="M56.2 13.7c1-.7 2-1.4 3-2M59.5 11.4c1-.7 2.1-1.3 3.1-1.9M26.5 59.6c.1-.3.1-.6.2-1M72.5 4.8c.8-.3 1.7-.6 2.5-.9M25.9 63.2c0-.2.1-.4.1-.6M27.4 55.8c.1-.3.2-.6.2-.9M25.4 66.7c0-.2 0-.4.1-.7M28.2 52.7c.1-.4.2-.8.3-1.1M29.4 49.1c.1-.3.2-.5.3-.8"/><path d="M96.6 130.9c-.3.8-.5 1.7-.8 2.5.2.6.3 1.1.5 1.5.2.5.5 1 1 1h.3c.1 0 .2 0 .4-.1h.3c.1.1.2.1.3.1h.1l.3-.3v-.1c.1-.2.2-.4.2-.5v-3.6s-.2-.1-.3-.2c-.4-.2-.9 0-1.2-.5-.1-.1-.3-.4-.4-.3-.2.1-.6.3-.7.5z"/><path class="st1" d="M32.1 105.6l.6 1.2M33.3 108.1c0-.1-.1-.1-.1-.2"/><path d="M36.3 113.4c-.2-.3-.3-.5-.5-.8.2.2.4.5.5.8zM34.7 110.6c-.1-.1-.2-.3-.2-.4 0 .1.1.3.2.4zM31.9 105.1c-.5-1.1-1-2.1-1.4-3.2.4 1.1.9 2.2 1.4 3.2zM31.9 105.1c.1.1.1.2.2.4 0-.1-.1-.2-.1-.3-.1 0-.1 0-.1-.1zM37.8 115.7c-.1-.2-.3-.4-.4-.6.2.2.3.4.4.6zM41.6 120.7c-.2-.2-.3-.4-.5-.6.1.2.3.4.5.6zM39.8 118.4c-.1-.2-.3-.4-.4-.6.1.2.3.4.4.6zM33.7 107.8c.1-.2 0-.5.2-.6.3-.3 0-.5 0-.7l-.3-.6.1-.1c-.1 0-.2-.1-.3-.1-.1 0-.1-.1-.2-.1-.2-.1-.3-.1-.5-.1h-.6c.2.4.4.9.6 1.3.2.4.4.7.5 1.1.1.1.1.3.2.4h.1c.1-.1.2-.3.2-.5zM41.6 120.7c.6.7 1.2 1.4 1.7 2.1-.2-.2-.4-.5-.6-.7-.4-.4-.7-.8-1-1.2 0-.1-.1-.1-.1-.2z"/><path d="M33.4 108.2c.3.7.7 1.3 1.1 2-.2-.3-.3-.6-.5-.9-.2-.4-.4-.7-.6-1.1zM37.9 115.8l-.1-.1c.5.7 1 1.5 1.5 2.2l-.1-.1c-.4-.7-.8-1.4-1.3-2zM40 118.7c-.1-.1-.1-.2-.2-.3.4.6.8 1.1 1.3 1.7l-.2-.2-.9-1.2zM35 111.2c-.1-.2-.2-.4-.4-.6.4.7.8 1.3 1.2 2 0-.1-.1-.1-.1-.2-.2-.4-.4-.8-.7-1.2zM36.5 113.6c0-.1-.1-.1-.1-.2.4.6.7 1.1 1.1 1.7-.1-.1-.1-.2-.2-.3-.3-.5-.6-.9-.8-1.2zM26.8 89.8c-.1 0-.1 0 0 0-.1 0 0 0 0 0zM26.3 87.7c-.2-1.1-.4-2.2-.5-3.3.2 1.1.3 2.2.5 3.3z"/><path d="M26.3 87.7c.1.7.3 1.4.4 2 .1-.2.2-.4.3-.7.3-.6.1-1.2-.6-1.4.1.1 0 .1-.1.1.1 0 .1 0 0 0z"/><path class="st1" d="M50.7 130.1c-.4-.3-.8-.7-1.2-1.1M48.1 127.8"/><path d="M50.8 129.1c-.3-.5-.8-1-1.3-1.3l-.6-.3c-.5-.2-1-.3-1.4-.3l.7.7c.4.4.9.8 1.3 1.2.5.4 1 .9 1.5 1.3 0-.5 0-1-.2-1.3zM51 130.4c-.1 0 0 0 0 0 .1.1.2.1.2.2l-.1-.1-.1-.1zM58.4 136c.9.6 1.9 1.2 2.9 1.8-1-.6-2-1.2-2.9-1.8zM62.6 138.6c-.1 0-.1-.1-.2-.1.7.4 1.4.8 2.2 1.2h-.1c-.6-.4-1.3-.8-1.9-1.1zM69.3 142c1.1.5 2.3 1 3.4 1.4-.1 0-.1-.1-.2-.1-1.1-.4-2.1-.8-3.2-1.3zM66 140.4c-.1 0-.1 0 0 0 .6.3 1.4.7 2.1 1H68c-.7-.4-1.4-.7-2-1zM55.4 133.9c-.1 0-.1-.1 0 0 .5.4 1.2.9 1.8 1.3l-.1-.1c-.6-.4-1.2-.8-1.7-1.2zM52.4 131.5l-.2-.2c.6.5 1.3 1 1.9 1.5 0 0-.1 0-.1-.1-.6-.3-1.1-.7-1.6-1.2zM45.5 125.2c.6.7 1.3 1.3 2 2l-1.7-1.7-.3-.3zM65.9 140.4c-.4-.2-.9-.5-1.3-.7.4.2.8.4 1.3.7zM55.3 133.8l-1.2-.9 1.2.9zM58.3 136c-.4-.3-.8-.5-1.1-.8.4.2.7.5 1.1.8zM52.2 131.4c-.3-.3-.7-.5-1-.8.3.3.6.5 1 .8zM62.4 138.5c-.4-.2-.7-.4-1.1-.6.4.2.7.4 1.1.6zM69.3 142l-1.2-.6 1.2.6zM97.7 79.2c-.2.5-.4.9-.5 1.4.2.2.4.2.4.4.2.6.5.9 1.1 1.1.2.1.3.1.5.1v-4c-1-.1-1.3.5-1.5 1zM98.4 121.7c0 .2 0 .3.1.4.2.2.7.4.7.6v-2.3s-.5.4-.7.8c-.1.1-.1.4-.1.5zM97.8 90.5c-.1 0-.3.1-.5.1-.5 0-1 .5-1.4.9-.2.2-.3.6.1.9.1.1.1.2.2.4v.1c0 .2 0 .3.3.3.4 0 .7.4 1.1.5.2.1.3.2.4.2.1 0 .2.1.2.1.2 0 .6-.1.8-.3.1-.1.1-.1.1-.2V91l-.2-.2c-.5-.2-.8-.3-1.1-.3zM34.3 38.1c-.2.3-.3.6-.5.9.3 0 .5-.4.5-.9z"/><path class="st1" d="M87.5.8c.3 0 .5-.1.8-.1M83.9 1.4c.4-.1.7-.1 1.1-.2M91.3.3c.3 0 .5-.1.8-.1"/><path d="M65.9 7.8c.1-.1.2-.1.3-.2l-3.3 1.8c.6-.4 1.1-.6 1.7-.9.4-.3.9-.5 1.3-.7z"/><path d="M62.9 9.3c.2.1.3.3.4.5.1.2.4.1.6.2.6-.1 1.1-.1 1.4-.3.4-.2.6-.5.8-1.2.1-.3.1-.6.1-1-.1.1-.2.1-.4.2-.5.2-1 .5-1.4.8-.4.3-.9.6-1.5.8 0 0-.1 0-.1.1.1 0 .1 0 .1-.1zM44 29.6c.2-.1.4-.3.4-.4 0-.2-.1-.5-.2-.7 0-.1-.1-.1-.1-.1-.4-.2-.8-.4-1.2-.5-.4-.2-.8-.3-1.2-.4 0 0 0 .1-.1.1-.8 1-1.6 2-2.3 3 .9.5 1.7 1.1 2.8 1.4.3.1.7 0 .9-.1.3-.3.4-.7.6-1 .1-.5-.1-1.1.4-1.3z"/><path class="st1" d="M95.3-.1h.6M28.8 97.4c-.3-.9-.6-1.8-.9-2.8M30.2 101.2c-.4-1-.7-1.9-1.1-2.9M94.4 148.1c.4 0 .8.1 1.2.1M45.3 125c-.6-.7-1.3-1.4-1.9-2.1M75.5 144.4c-.8-.3-1.5-.5-2.3-.8"/><path d="M98.9 32.1c0 .2.4.5.4.7V31c0 .3-.3.7-.4 1.1z"/><path class="st1" d="M26.3 87.8c.1.7.2 1.3.4 2M25.8 84.2c-.1-1.1-.3-2.1-.4-3.2M27.7 93.6c-.2-.6-.3-1.2-.5-1.8M25.3 80.1c-.1-.8-.1-1.6-.2-2.4"/><path d="M92.7 122.9c0-.1-.1-.4-.2-.4-.6-.3-1.1-.5-1.7-.7v.2h-.2c-.6-.1-.9.4-1 .9-.1.3-.1.7.1.9.4.4.9.7 1.3 1 .1 0 .1.1.2.1h.2c.1 0 .2-.1.4-.2.2-.2.4-.5.6-.8.1-.6.3-.9.3-1z"/><path class="st2" d="M99.2 148.1v.2M99.2 135.1"/><path class="st3" d="M99.3 91.1c-.1 0-.1 0 0 0zM99.2 135.1c0 .2-.1.4-.2.5v.1c-.1.1-.1.2-.3.3h-.1c-.1 0-.2 0-.3-.1-.1 0-.2-.1-.3 0-.1 0-.2 0-.4.1h-.3c-.6-.1-.8-.6-1-1-.2-.4-.3-.9-.5-1.5.2-.8.4-1.7.8-2.5.1-.2.5-.3.8-.4.1 0 .3.2.4.3.3.5.8 0 1.2.3.1.1.2 0 .3 0h-.1v-8.4c0-.2-.5-.4-.7-.6-.1-.1-.1-.2-.1-.4s0-.4.1-.6v-.1c.1-.4.8-1 .8-1h-.1V93.6c0 .1 0 .1-.1.2-.2.2-.6.3-.8.3-.1 0-.2-.1-.2-.1-.2-.1-.3-.2-.5-.2-.4-.2-.7-.5-1-.5-.3 0-.3-.1-.3-.3v-.1c0-.1-.1-.3-.2-.4-.4-.3-.2-.7-.1-.9.4-.4.9-.8 1.4-.9.2 0 .3 0 .5-.1.3-.1.6-.1 1.2.4l.2.2v-8.9h0c-.2 0-.4 0-.5-.1-.5-.2-.8-.5-1.1-1.1l-.4-.4c.2-.5.4-.9.5-1.4.2-.5.5-1 1.5-1h.1-.1v-24h-.1c-.2.1-.6 0-.7-.2-.2-.3-.5-.5-.8-.7-.2-.1-.3-.3-.4-.5-.5-1.1-.6-1.6.3-2.3.4-.4.7-.3 1.3-.3h.5V32.8c0-.1-.4-.5-.4-.7.1-.4.4-.8.4-1.1V7.2s-.1.1-.1 0c-.4-.5-.8-1-1.2-1.6-.1-.1-.1-.3-.2-.5.1-.5.3-1 .5-1.5.1-.2 0-.4.1-.5 0-.1.1-.1.2-.2s.3-.2.3-.3c0-.1.1-.2.2-.3.1-.1.3-.2.3-.2h-.1v-2h.1C98.1.1 97 0 95.8 0c-.2 0-.4-.1-.6 0-1.1.1-2.1.1-3.2.2-.3 0-.5 0-.8.1-1 .1-2 .2-3.1.4-.3 0-.5.1-.8.1-.8.1-1.6.3-2.5.4-.4.1-.7.1-1.1.2l-2.4.6c-.4.1-.9.2-1.3.3-.8.2-1.6.4-2.4.7-.5.2-1 .3-1.5.5-.4.1-.9.3-1.3.4-.8.3-1.7.6-2.5.9-.3.1-.6.2-.9.4-1 .4-2 .8-3 1.3-.2.1-.4.2-.6.2l-1.8.9c0 .3-.1.7-.1 1-.2.6-.4 1-.8 1.2-.1.1-.6.2-1.2.2-.1 0-.5 0-.6-.2-.1-.2-.3-.3-.4-.5 0 0-.1 0-.1.1-.1 0-.2.1-.2.1-1.1.6-2.1 1.2-3.1 1.9-.1.1-.2.1-.3.2-1 .7-2 1.3-3 2-.1.1-.2.1-.3.2-1 .7-2 1.5-3 2.3 0 0-.1 0-.1.1-4.1 3.3-7.9 7.1-11.2 11.2.4.1.8.3 1.2.4.4.2.8.3 1.2.5.1 0 .1.1.1.1.1.2.2.5.2.7 0 .1-.2.3-.4.4-.5.2-.3.8-.5 1.2-.2.3-.3.8-.6 1-.2.2-.6.2-.9.1-1-.3-1.8-.9-2.8-1.4-.8 1.1-1.5 2.2-2.2 3.3l-.1.1c-.7 1.1-1.7 2.2-2.4 3.4h-.3c0 .1.2.1.2.2 0 .2 0 .4-.1.5-.1.4-.2.8-.5.9h-.2.1c-.4 1-.7 1.4-1.1 2.1-.2.5-.4 1-.7 1.4-.2.5-.4 1-.7 1.5-.3.6-.6 1.3-.8 2-.2.6-.4 1.1-.7 1.7-.1.2-.1.4-.2.5-.1.3-.2.5-.3.8-.3.8-.6 1.7-.8 2.5-.1.4-.2.8-.3 1.1l-.6 2.1c-.1.3-.2.6-.2.9-.2.9-.5 1.9-.7 2.9-.1.3-.1.6-.2 1-.2 1-.4 2-.5 3 0 .2-.1.4-.1.6-.1 1-.3 1.9-.4 2.9 0 .2 0 .4-.1.7-.1 1.1-.2 2.2-.2 3.3v.7c-.1 1.1-.1 2.3-.1 3.4 0 1.2 0 2.4.1 3.6 0 .8.1 1.6.2 2.4 0 .3 0 .6.1 1 .1 1.1.2 2.1.4 3.2v.1c.2 1.1.3 2.2.5 3.3h.2c.7.2.9.7.6 1.4-.1.2-.2.5-.3.7v.1c.1.7.3 1.3.5 2 .1.6.3 1.2.5 1.8.1.3.2.7.3 1 .3.9.6 1.9.9 2.8l.3.9c.3 1 .7 1.9 1.1 2.9.1.2.2.5.3.7.5 1.1.9 2.2 1.4 3.3 0 .1.1.2.1.3h.6c.2 0 .3.1.5.1.1 0 .1.1.2.1s.2.1.3.1l-.1.1.3.6c.1.2.3.4 0 .7-.1.1-.1.4-.2.6-.1.1-.1.4-.2.4h-.1c.2.4.4.7.6 1 .3.6.7 1.3 1.1 1.9.2.4.5.8.7 1.2.2.4.5.8.7 1.2.2.4.5.8.7 1.2.2.4.5.7.7 1.1.4.7.9 1.3 1.4 1.9.2.3.5.7.7 1l.9 1.2c.3.3.5.7.8 1 .3.4.7.8 1 1.2.2.2.4.5.6.7l.1.1c.6.7 1.2 1.4 1.9 2.1l.2.2.3.3c.6.6 1.1 1.2 1.7 1.7.5-.1.9 0 1.4.3l.6.3c.5.3 1 .8 1.3 1.3.2.4.2.9.1 1.3.1 0 .1.1.2.1.4.3.8.7 1.2 1 .5.4 1.1.9 1.6 1.3.4.3.9.7 1.4 1 .6.4 1.1.8 1.7 1.2.4.3.9.6 1.3.9.9.6 1.9 1.2 2.9 1.8.4.3.9.5 1.3.7.6.4 1.3.7 2 1.1.5.3 1 .5 1.5.8.7.3 1.3.7 2 1 .5.2.9.4 1.4.6 1 .5 2.1.9 3.2 1.3.1 0 .2.1.2.1.2.1.3.1.5.2.8.3 1.5.6 2.3.8.3.1.7.2 1 .3l2.1.6c.4.1.9.3 1.3.4.6.2 1.3.3 1.9.5.5.1 1 .2 1.5.4.6.1 1.2.3 1.8.4.6.1 1.2.2 1.7.3.6.1 1.1.2 1.7.3.6.1 1.3.2 2 .2.5.1 1 .1 1.6.2.8.1 1.5.1 2.3.2h1.3c1.2.1 2.3 0 3.5 0h0v-12.9zm-7.5-10.7c-.2.1-.3.2-.4.3h-.2c-.1 0-.1 0-.2-.1-.5-.3-1-.6-1.4-1-.2-.2-.2-.6-.1-.9.2-.5.4-1 1-.9h.2v-.2c.6.2 1.1.4 1.7.7.1.1.2.3.2.4 0 .2-.1.4-.3.7 0 .4-.2.7-.5 1 .1-.1.1 0 0 0zM90 82.6c.2 0 .5 0 .6.4.1.3.4.6.5.9.1.3.3.6-.1.9-.2.1-.3.5-.2.7.2.5-.2.7-.5.8-.3.1-.6.1-1 .1h-.1c-1-.5-1.9-1-2.6-1.9-.2-.3-.3-.6 0-.9.4-.4.5-1.1 1.2-1.1.6 0 1.2 0 1.8.1h.4zm-2.6 13.6c-.1-.1-.3-.2-.4-.3.1-.3.1-.5.2-.7.2-.6.9-.8 1.5-.7h.2c.4.2.9.4 1.3.6h.4c.2 1-.4 1.5-1.1 2-.1 0-.2.1-.2.1-.5-.5-1.5-.2-1.9-1zm6.9-25.9c-.2.3-.5.6-.6.9-.2.6-.7.7-1.2.9-.5.2-1.4-.2-1.8-.6l-.2-.2-.3-.6c-.1-.3-.5-.9-.4-1 .5-.6 1-1.5 2-1.3h.1c.8 0 1.5.3 2 .8.2.2.3.4.4.7v.4zm-.7-9.7c-.5 0-1-.3-1.4-.8-.4-.4-.3-.8-.5-1.2 0-.8 1-1.6 1.8-1.6.1 0 .2 0 .4.1.5.2.9.4 1.4.6.1 0 .3 0 .3.1.1.1.4.3.3.5-.2.8-.6 1.5-1.3 2-.3.2-.6.3-1 .3zm3.2-42.7c.4-.2 1.1.1 1.2.5.2.7.2 1.4.3 2 0 .2 0 .3.1.5.1.5 0 1-.4 1.3-.1.1-.3.2-.4.2-.9.3-1.7.4-2.5-.2-.1-.1-.3-.1-.6-.1l-.3-1.5c-.1-.5.3-1.4.8-1.8.1 0 .1-.1.2-.1.5-.3 1.1-.6 1.6-.8zm-2.4 20.4c.5-.1.9-.1 1.4-.2.1 0 .2-.1.4-.2.6.7.5 1.5.1 2.3 0 .1-.1.2-.2.2h-.3c-.4 0-.9.3-1.3.3-.2 0-.4 0-.5-.2h-.5c-.1-.2-.2-.5-.2-.7-.1-.7.4-1.3 1.1-1.5zm-1.7 5c.1.3.2.7.2 1-.1.5-.3 1-.7 1.4-.3.3-.8.5-1.3.6-.8.2-1.2.3-1.7-.3-.2-.3-.5-.4-.8-.7-.3-.2-.5-.6-.5-1 0-.2-.1-.4-.2-.6v-.1-.1c.3-.3.6-.5.9-.8.3-.2.7-.5 1.1-.6.3-.1.6-.1.9-.1.6 0 1.2.4 1.8.8.1.1.2.3.3.5zm-1.9-15.4s.1 0 .1.1c.2.2.6.4.3.8v.2c0 .2.1.4.2.5.4.4.1.7-.1 1-.2.2-.5.4-.8.6h-.1c-1.1.1-2.2.1-3.2-.3-.2-.1-.3-.2-.3-.3-.1-.1-.1-.3 0-.4.2-.5-.1-1.2.5-1.6.5-.3 1.1-.6 1.7-.8.2-.1.5-.3.7-.3h.1c.1 0 .1.1.2.1.1.1.2.1.3.2.1.1.2.1.4.2zm-2-25.3c-.1.5.1.9.4 1.4.3.4.4.9.6 1.4h-.2c-.1.1-.2.2-.2.3 0 .2.1.4.1.6 0 .5-.7 1.1-1.1 1.3-.2.1-.5.2-.7.2-.7.1-1.2-.3-1.8-.6-.1-.1-.2-.2-.2-.3-.5-.5-.9-1-1.4-1.5-.3-.3-.4-.6-.2-1 .4-.8.8-1.4 1.7-1.7.9-.2 1.8-.5 2.8-.7h.2c-.1.1 0 .3 0 .6zm-6.1 13.5c0-.2 0-.3.1-.5.1-.6.3-1.1 1-1.4 0 0 .1 0 .1-.1.3-.2.6-.3.9-.4.6-.1 1.3 0 1.9.4.1.1.2.3.2.5 0 .4-.1.8 0 1.1.1.6-.3 1-.6 1.3-.4.4-1.6.6-2.1.3l-.6-.3c-.3-.2-.9-.5-.9-.7v-.2zM85 72.7c0 .1-.1.3-.3.5-.3.3-.7.6-1.1.7h-.1-.5H82.7 82.4h-.1c-.1-.1-.3-.2-.4-.3-.3-.4-.7-.7-1-1.1-.4-.6-.3-1.3-.1-1.9.1-.3.7-.6 1.2-.8.3-.1.7-.1.9 0 .2.1.4.1.6.2.5.1.9.3 1.2.9l.1.1c.1.1.2.1.3.1.2.5 0 1.1-.1 1.6zM74.1 56.8c0-.1 0-.1 0 0-.1.1-.1.2-.2.4 0-.1 0-.2.1-.3h-.8c-.6-.1-1.5-.9-1.4-1.4 0-.3.3-.7.6-.9.6-.4 1.2-.9 2-.8H74.7c.2.1.3.2.3.4.1.5.3.9.5 1.4.3.8.2 1.1-.7 1.1-.2.1-.4.1-.7.1zm-2.5 67.3s.1.1.2.1c-.2.1-.4.3-.6.3-.3 0-.4.2-.5.5 0 .2-.1.3-.2.5-.2.4-.7.6-1 .8 0 0-.1 0-.1.1-.1 0-.1 0-.2.1-.2 0-.5-.1-.7-.2-.1-.1-.2-.1-.3-.2-.2-.1-.3-.2-.5-.3-.4-.3-.8-.6-.8-1.2 0-.3.3-.8.6-1.1.8-.7 1.7-.7 2.6-.3l.6.3c.3.2.5.3.8.5l.1.1zM65 90.3V90c.1-.2-.1-.5-.2-.8v-.3c0-.1 0-.2.1-.2.7-.6 1.4-1.4 2.5-1.3.7 0 1.4.2 1.8.9.2.3.5.6.7.9 0 .1.1.2 0 .2-.1.1-.2.3-.3.5-.2.5-.3 1-.5 1.5 0 .1-.1.2-.2.3-.2.3-.6.3-1 .2-.2 0-.5-.3-.8-.1l-.1.1c-.3-.3-.7-.6-1-.8-.2-.2-.4-.4-.6-.5-.1 0-.4 0-.4-.3zm-1.6-15.2h-.1c-.2 0-.4-.1-.6-.1-.4-.1-.7-.5-1.2-.5-.2 0-.4-.4-.6-.6-.2-.3-.5-.5-.8-.7-.5-.5-.3-2 .3-2.5.3-.2.6-.5.9-.7.6-.3 1.2-.4 1.8-.3.4 0 .7.1 1.1.3.2.1.4.2.5.3.1.1.2.1.3.2.2.1.4.2.6.4.5.3.4.7.2 1.3-.1.5-.4.6-.7.6-.1 0-.2 0-.4-.1-.1.4-.2.8-.4 1.1-.2.5-.4 1.1-.9 1.2.1.1 0 .1 0 .1zm-4.8 49.3c-.4.2-.7.4-1.1.5-.1 0-.2 0-.3-.1-.8-.2-1.9-.9-2.2-1.5-.5-.9-.3-1.5.6-2 .5-.2.9-.6 1.4-.7.9-.1 1.8 0 2.5.4.3.1.5.3.7.6.1.1.1.6 0 .7-.5.8-.8 1.7-1.6 2.1zm-4.9-28.6c-.3.5-.5 1-.8 1.6-.1.1-.1.2-.2.3-.6.5-1.6.4-2.2-.2-.1-.1-.2-.2-.2-.3-.2-.2-.4-.5-.7-.6-.7-.4-.6-1.6.2-2.1.4-.3.9-.5 1.4-.5.5 0 1 .2 1.4.5.5.3.9.8 1.5 1.3h-.4zM47.8 86c0 .1-.1.3-.1.4-.2.5-.4.9-.9 1.3-.6.4-1.1.6-1.7.5-.2 0-.5-.1-.7-.2-.1 0-.2-.1-.4-.2-.4-.2-.9-.3-1.1-.7-.3-.3-.3-.8-.4-1.2-.1-.2-.1-.5-.3-.6-.6-.5-.8-1.2-.5-1.9 0-.1.1-.3.2-.4.2-.3.3-.6.5-.8.6-.7 1.5-.8 2.3-.6.2.1.5.1.7.2.5.2.9.4 1.3.5.2.1.4.2.7.3.6.2.8.7.8 1.3 0 .3-.3.7-.6 1.1.2.4.3.7.2 1zM54 49.9c.9.3 1.8.7 2.7 1.1.2.1.3.4.2.6 0 .1-.1.1-.2.1-.5.2-.7.6-.9 1-.1.2-.2.3-.2.5-.3.4-.5.8-.8 1.2l-.1.1-.1.1c-.3.1-.6.1-.9-.1l-1.1-1.1c-.1-.1-.3-.1-.4-.2-.2-.2-.5-.4-.5-.6.1-.5.1-1.2.5-1.6.5-.5 1.1-.9 1.9-.8-.2-.2-.2-.2-.1-.3zm-2-15.2c0 .2.1.5.2.7.4.8-.2 1.2-.6 1.7-.1.2-.5.2-.8.2h-.2c-.4.2-.7.1-1 0-.3-.2-.6-.5-1-.6-.1-.1-.3-.6-.2-.8.3-.5.2-1.3.9-1.6l1.2-.6c.1-.1.3-.1.5 0 .5.1 1 .5 1 1zm-4.9 26.5c1.4.1 2.8.3 3.9 1.4.4.3.3.6.1.9-.3-.1-.5-.4-.8-.5-.1 0-.2 0-.3.1.2.5.5.8.5 1.4 0 .5-.1 1-.1 1.5-.6.2-1.2.6-1.8.7h-.8c-.3 0-.6-.1-.9-.1-.3 0-.6-.2-1-.3h-.1c-.4-.6-1-1.1-1.3-1.7-.2-.4 0-1 .2-1.5.4-1.1 1.1-2 2.4-1.9zm-5.8 12.7c.3-.5.2-1.3.9-1.6l1.2-.6c.5-.2 1.2.2 1.4.7 0 .1 0 .1.1.2 0 .2.1.5.2.7.1.2.1.4.1.5 0 .5-.4.8-.7 1.1-.1.2-.5.2-.8.2h-.2c-.9.4-1.4-.4-2-.6-.1 0-.3-.5-.2-.7v.1zm12 5.2c-.1 0-.5 0-.6-.2-.2-.3-.5-.5-.7-.8l-.6-.6c-.1-.1-.2-.2-.2-.3-.4-.8-.2-1.2.2-1.8.2-.3.5-.5.8-.6.3-.2.6-.3 1-.3h.3c.8 0 1.4.5 2 .9.1.1.2.4.2.6 0 .6-.1 1.1-.2 1.7-.3 1.2-1 1.2-2.2 1.4zm1.7 7.8c.3-.5.2-1.3.9-1.6l1.2-.6c.1 0 .2 0 .2-.1.6 0 1.2.4 1.3 1 0 .2.1.5.2.7.4.8-.2 1.2-.6 1.7-.1.2-.5.2-.8.2h-.2c-.1.1-.2.1-.3.1-.7.1-1.1-.5-1.7-.7-.2.1-.3-.5-.2-.7zm2.3-44.6c.3-.9.5-1.9 1.5-2.4.6-.4 1.3-.5 2-.1.3.2.7.3 1.1.4.1 0 .2.1.2.2v.5c0 .5.3 1 .4 1.6v.4c-.1.3-.3.5-.8.7-.2.1-.7 0-.7.5-.4-.1-.9-.1-1.3-.2-.3 0-.5-.1-.8-.1-.3 0-.7.1-.8-.4-.1-.2-.4-.4-.5-.6-.2-.2-.4-.4-.3-.5zm2.7 67.4c-.4.2-.7.4-1.1.5-.7 0-1.9-.7-2.4-1.3-.1-.1-.1-.2-.2-.3-.5-.9-.3-1.5.6-2 .5-.2.9-.6 1.4-.7 1.2-.2 2.4.1 3.3 1l.1.1c.1.2 0 .5 0 .6-.6.8-.9 1.7-1.7 2.1zm10.4 6.2c0 .2-.2.5-.4.7-.3.2-.6.4-.8.3-.6-.1-1.2-.3-1.7-.8-.4-.4-.4-.8-.1-1.2l.6-.6c.6-.5 1.4-.7 2.2-.4.3.1.5.4.8.6-.3.5-.7.8-.6 1.4zM76 61.3c.4 0 .8 0 1.1.1l.9.3c.5.3.7.9.4 1.4-.1.3-.2.6-.2.9 0 .4-.4.4-.6.5-.3.1-.6.1-.9.2-.2 0-.4.1-.6.1-.3 0-.6-.1-.8-.5 0 0 0-.1-.1-.1-.1-.1-.2-.1-.4-.1h-.1c-.1-.5-.1-1-.2-1.6.1-.4 1-1.2 1.5-1.2zm4.6-4.8c.3-.7.6-.9 1.1-1 .3 0 .6 0 .9.1.1 0 .2 0 .2.1.2.1.4.1.5.2.2.1.4.2.7.4-.1.5-.3 1.1-.4 1.6-.1.2-.3.3-.6.3h-.7l-.9-.3c-.1 0-.2-.1-.3-.1-.2 0-.3-.1-.4-.2-.2-.1-.3-.4-.3-.6.1-.2.1-.4.2-.5zM75 106.2c.7-.5 1.5-.8 2.3-.8h.4c.6.1 1.2.2 1.7.3.5.1.8.4.6 1-.1 0-.2 0-.3-.1 0 .1.1.2.1.3.1.5-.2.9-.8.9-.5 0-.7.3-.9.7-.1.4-.5.8-.7 1.2-1-.6-1.9-1.1-2.7-1.6-.1-.4-.1-.7-.2-1 0-.3.2-.7.5-.9zm6.4-6.8c-.1 0-.3.1-.4.1-.1.2-.1.4-.3.6-.3.4-1.1.6-1.6.6h-.4c-.1 0-.2-.1-.3-.1h-.1c-.1 0-.1-.1-.2-.1-.4-.3-.7-.8-1-1.3-.1-.1 0-.3-.1-.4-.2-.7-.3-1.4-.5-2-.1-.4 0-.7.3-1 .3-.2.5-.3.8-.4.5-.2 1-.3 1.5-.1.9.3 1.8.5 2.7.8.4.1.4.4.1.7-.4.4-.4.8-.3 1.4.1.5-.1 1-.2 1.5.2-.2.1-.3 0-.3zm.5-62.4c.3.4.4.9.6 1.4h-.2c-.1.1-.2.2-.2.3 0 .2.1.4.1.6 0 .5-.7 1.1-1.1 1.3-.5.2-.9.2-1.3.1s-.8-.3-1.2-.5c-.1-.1-.2-.2-.2-.3-.5-.5-.9-1-1.4-1.5-.3-.3-.4-.6-.2-1 .4-.8.8-1.4 1.7-1.7.9-.2 1.8-.5 2.8-.7h.2c.2.1.3.3.2.5-.3.6-.1 1 .2 1.5zM77 19.9c.3-.1.7-.2 1-.2.3 0 .7 0 1 .2h.4c.2.5.3 1.1.5 1.6.2.6-.4 1.8-1.1 2.1-.1 0-.2.1-.2.1-.2.1-.5.1-.7 0-.5-.2-1-.2-1.4-.5-.7-.3-.9-.9-1-1.6-.1-.5.9-1.6 1.5-1.7zm-1.2 26.6l1.8.3c.1 0 .2.1.3.2.1.1.1.1.1.2v.1c-.1.7-.2 1.3-.4 1.9-.2.7-.9.4-1.2.6-1.1-.1-1.9-.7-2.5-1.4-.1-.1-.1-.3-.1-.5.1-.7.9-1.4 1.7-1.5.1.1.2.1.3.1zm-5.3-36.2c.3-.5.2-1.3.9-1.6l1.2-.6c.1 0 .2 0 .2-.1.6 0 1.2.4 1.3 1 0 .2.1.5.2.7.4.8-.2 1.2-.6 1.7-.1.2-.5.2-.8.2h-.1-.1c-.2.1-.4.1-.6.1-.5-.1-.9-.6-1.4-.7-.2.1-.3-.5-.2-.7zm-1.3 21.4c.1-.5 0-1.2.2-1.4.5-.4 1.1-.6 1.8-.7.8-.2 1.5.3 1.8.8.1.1.1.3.1.5 0 .4-.1.9-.1 1.4-.1.4-.4.6-.9.6-.1 0-.3 0-.4-.1-.1 0-.2-.1-.2-.1h-.2c-.2 0-.6-.1-.9-.1h-.1c-.2-.1-.4-.2-.6-.2-.2-.1-.4-.3-.6-.4.1-.1.1-.2.1-.3zm-1.5 22.7c-.2.6-.5 1.2-.7 1.8l-.3 1.2c-.2.6-1 .8-1.5.4-.3-.2-.7-.3-1.1-.5-.8-.4-1.3-1-1.2-1.9 0-.2.1-.5.2-.7 1.1-1.1 3.2-1.2 4.6-.3zm-4.4-23.7c.2.7-.1.8-.7 1 .1.4.2.8.2 1.2 0 .6.3 1.3-.4 1.7-.2.1-.4.1-.5.2h-.1c-.3 0-.6 0-.9.1-.1 0-.2.1-.3.2-.1.1-.3 0-.5-.1-.1-.1-.2-.1-.4-.1-.3-.1-.7-.2-1-.3-.2-.1-.4-.3-.6-.5-.2-.3-.4-.8-.4-1.2 0-.2 0-.4.1-.6.2-.3.3-.7.4-1 .6-1 1.5-1.4 2.5-1.5h1.6c.8-.1.8.2 1 .9zM56 16.2c.6-.7 1.5-.8 2.3-.6.9.2 1.8.7 2.7 1 .6.2.8.7.8 1.3 0 .3-.4.7-.6 1.1.3.4.4.8.1 1.4-.1.1-.1.2-.2.3-.1.3-.2.5-.4.7l-.3.3c-.9.6-1.8.7-2.8.2-.1 0-.1-.1-.2-.1-.3-.2-.7-.3-.9-.6-.3-.3-.3-.8-.4-1.2 0-.1-.1-.2-.1-.3 0-.1 0-.1-.1-.2 0-.1-.1-.1-.1-.2-.7-.6-.8-1.5-.4-2.3.2-.3.4-.6.6-.8zM41.1 45l.3-.6c.3-.3.6-.6 1-.7.2-.1.4-.1.6-.2.3-.1.6-.1.8-.1 1.2.1 2.5 1 2.7 2 .1.4 0 1.1-.2 1.4-.4.6-1 1-1.6 1.4-.3.2-.8.3-1.2.3-.4-.1-.8-.3-1.1-.6-.6-.5-1-1.1-1.4-1.8-.3-.5-.1-.7 0-1 .1 0 .1-.1.1-.1zm-12.3 9.3c0-.2-.1-.3-.1-.5s-.1-.3-.1-.5h.1c-.2-1.3.7-2 1.5-2.8 0 0 .1-.1.2-.1h.8c.8 0 1.7 0 2.5.3.5.2 1 .6 1.4 1 .3.4.4.9.4 1.5s0 1.1-.3 1.5c-.6.8-1.3 1.7-2 2.4-.4.4-.8.8-1.5.3h-.1c-.2 0-.4.1-.5 0-.3-.2-.6-.5-.9-.8-.4-.5-.6-1.1-1.1-1.5-.1-.2-.2-.5-.3-.8zm.8 16.6c.3-1.1 1.3-.9 2.3-.9.4 0 .9.1 1.4.2h.1c.5.1 1 .8.9 1.3-.1.5-.3.9-.5 1.3-.4.9-1.4 1.1-2.2.6-.5-.3-1-.6-1.4-.9-.2-.2-.6-.4-.7-.6v-.2c0-.4.1-.6.1-.8zm4 24c-.1 0-.1-.1-.2-.1-.3-.2-.7-.2-1-.3-.1 0-.1-.1-.2-.1l-.1-.1c-.1-.2-.2-.4-.3-.7v-.5c-.2-.6.2-1.3.7-1.6 1.1-.5 2.2-.5 3.3-.2.5.1.7.3.9.6.2.2.3.5.4.8 0 .1 0 .1-.1.2-.1.5-.2 1-.3 1.6-.1.6-.7.8-1.2 1-.2.1-.4.1-.6.1-.3-.1-.8-.4-1.3-.7zm11.5 13.9c-.4.4-1 .7-1.6.8-.3 0-.7 0-1-.1h-.1c-.2-.1-.4-.2-.7-.3-.7-.4-1.2-1-1.5-1.6-.4-.8-.6-1.8-.6-2.8 0-1.2 1.5-2.9 2.8-3.1.5-.1 1 0 1.5.2.4.1.8.3 1.1.5.2.1.5.2.7.3.1.1.3.1.4.2.3.2.8 1.9.8 2.2.2.9-.5 1.6-.6 2.5 0 .2-.1.5-.1.9-.1-.3-.1-.3-.2-.5-.3.1-.6.5-.9.8zm4.9 6c-.5-.7-1-1.4-1.4-2.1-.1-.1-.1-.2-.2-.2.3-1.3 1.1-2 2.5-1.9.8.1 1.5.3 2 .8l.2.2.1.1c.2.2.4.5.5.8-.1.1-.1.3-.2.5-.1 0-.2-.1-.3-.1-.3.6-.6 1.1-1 1.7-.2.4-1.3.8-1.7.7-.1 0-.2-.1-.2-.1-.2-.3-.2-.4-.3-.4zm11.3 18.1s-.1 0-.1.1c-.3.2-.6.3-1 .5-.8-.1-2.2-.9-2.5-1.6-.5-.9-.3-1.5.6-2 .3-.2.7-.5 1-.6.1-.1.2-.1.4-.1 1.2-.2 2.4.1 3.3 1 .1.1.1.6 0 .7-.6.7-.9 1.6-1.7 2zm4.5-30.5l.2-.2c-.2-.1-.4-.2-.6-.4-.5-.4-.8-1.5-.5-1.9 0-.1.1-.1.2-.2.2-.2.5-.3.8-.3.8 0 1.6-.1 2.2.4.2.2.4.3.2.7-.2.5-.2 1-.3 1.5-.1.6-.2.8-.5.8-.2 0-.4-.1-.7-.2-.2-.1-.4-.3-.6-.4-.2 0-.3.1-.4.2zm6.7 34.6c-.2.9-.8 1.5-1.2 2.3-.2.4-.6.6-1 .7-.4.1-.8 0-1.3 0-.4 0-1-.1-1.3-.4-.6-.5-1.1-1.2-1.6-1.8-.3-.5.1-1.5.4-2 .2-.3.4-.5.7-.6.2-.1.4-.2.5-.3.1-.1.3-.2.4-.3.1-.1.3-.2.4-.3 1-.5 1.8 0 2.7.4.3.1.6.3.9.4 0 .1 0 .4.2.6.4.5.3.9.2 1.3zm1.2-58.7c-.1.1-.1.2-.2.2l-.2.2c-.2.1-.6.1-.8-.1l-.1-.1c-.1-.1-.2-.1-.2-.2l-.1-.1-.1-.1c-.1 0-.2-.1-.4-.2-.4-.3-.8-.7-.9-1-.1-.2-.2-.4-.3-.7l.1-.1c.3-.4.5-1 .9-1.1h.5c.5 0 1 .2 1.4.3.8.2 1.1 1 1.2 1.7 0 .1 0 .2-.1.2-.1.3-.4.7-.7 1.1zm1.5 35.7c-.1-.1-.1-.3 0-.5 0-.1 0-.1.1-.1.6-.8 2-1.2 2.9-.8.4.2.7.3 1.1.5.5.2.6.5.4 1.1 0 .1-.1.1-.1.2v.1c-.2.5-.3 1-.8 1.3-.2.1-.5.3-.7.4-.9 0-1.4-.6-1.9-1.1-.5-.3-.8-.7-1-1.1zm7.1 12.8l-.1-.1c-.3.1-.6.2-.9.2h-1c-.3-.1-.6-.2-.9-.4-.3-.2-.5-.4-.7-.7-1.1-1.5-.2-2.2 1.1-2.8.3-.1.6-.2.8-.2.8 0 1.6.4 2.4.7.2.1.3.4.6.6-.3.1-.5.1-.6.2-.3.9-.5 1.7-.7 2.5zm6 13.7c-.4.2-.7.3-1.1.5-.9-.5-1.9-.5-2.5-1.3-.2-.4-.7-.5-.9-.9-.8-1-1-2.1-.3-3.2.2-.3.4-.7.6-1 .1-.1.1-.2.2-.2.4-.4.9-.7 1.5-.8 1.5-.2 3-.2 4.3.8 1.1.8 1.4 2 .7 3.1-.5.8-1 1.7-1.6 2.4-.2.3-.6.5-.9.6zm6 2.7c0 .2 0 .4-.2.6-.3.4-.7.8-1.1 1.2-.1.1-.1.3-.2.4-.2.2-.4.5-.6.5-.5-.1-1.2-.1-1.6-.4-.5-.5-.9-1.1-.9-1.9-.1 0-.1 0-.2-.1.3-.9.6-1.9 1-2.8.1-.3.6-.3.7 0 .3.7 1 .8 1.5 1.1.4.2.9.5 1.2.8.3.2.4.4.4.6zm1.2-30.9c-.2.1-.6.2-.9.1h-.8c.2-.3.4-.4 0-.6-.5-.2-.9-.4-1.3-.8-.2-.2-.3-.6-.3-.9 0-.5.1-.9.2-1.4 0-.2-.1-.5-.1-.5.3-.2.5-.4.8-.6.3-.2.5-.4.8-.4.7-.2 1.4.1 2 .7.2.2.4.4.7.5.5.3.5.5.2 1-.3.4-.4.8-.6 1.3-.1.3-.1.7-.2 1 0 .3-.2.5-.5.6zM99.2 54.1s.1 0 0 0zM99.3 50.1c-.1 0-.1 0 0 0zM99.3 7.1c-.1 0 0 0 0 0z"/><path class="st3" d="M64.5 8.5c.5-.3 1-.5 1.4-.8.1-.1.2-.1.3-.2-.1.1-.2.1-.3.2-.4.3-.9.5-1.3.8-.6.3-1.1.5-1.7.8.6-.2 1.1-.5 1.6-.8z"/></svg>