<svg xmlns="http://www.w3.org/2000/svg" width="99.312" height="148.327" viewBox="0 -0.469 99.312 148.327"><path d="M67.439 123.053c-.303.271-.65.732-.621 1.08.072.933.936 1.273 1.635 1.674.232.135.643.215.842.099.561-.324 1.209-.616 1.367-1.353.062-.293.167-.444.5-.461.189-.01.365-.186.612-.321-.151-.138-.218-.218-.302-.267-.465-.264-.914-.574-1.407-.766-.911-.353-1.85-.38-2.626.315zM70.219 113.516c-1.067-.35-2.154.058-2.799.996-.244.358-.244.772.118 1.166.472.516 1.06.689 1.696.77.391.048 1.275-.637 1.197-.995-.131-.608.24-.916.619-1.303-.294-.236-.53-.536-.831-.634zM64.84 88.31c-.082.067-.057.307-.031.459.045.264.229.553.164.776-.146.519.236.582.513.776.215.151.396.347.601.515.338.277.682.551 1.021.828.271-.355.604-.074.867-.033.621.092 1.029-.018 1.201-.561.213-.682.244-1.424.748-1.998.039-.045.008-.195-.041-.26-.227-.301-.506-.565-.699-.885-.422-.698-1.068-.885-1.814-.894-1.116-.117-1.788.659-2.53 1.277zM71.549 32.28c.066-.018.154.06.236.08.129.033.264.079.395.075.428-.019.809-.208.867-.633.084-.609.275-1.372.006-1.819-.332-.55-1.02-1.071-1.832-.845-.614.174-1.303.343-1.762.741-.275.239-.168.913-.232 1.392-.012.069-.018.141-.021.166.229.167.425.302.611.448.305.235 1.396.476 1.732.395zM72.723 11.285c.061-.03.147.003.222-.013.267-.064.646-.052.767-.222.336-.479.971-.892.557-1.65-.113-.215-.149-.482-.184-.73-.086-.644-.906-1.179-1.5-.941-.402.163-.787.369-1.229.579-.662.257-.561 1.028-.854 1.553-.106.19.043.766.192.818.663.228 1.171 1.039 2.029.606zM75.539 21.17c.096.626.352 1.277 1.004 1.57.457.203.975.263 1.438.452.364.149.657.069.973-.085.607-.297 1.226-1.509 1.054-2.103-.153-.536-.326-1.069-.49-1.603-.153.016-.356.104-.45.038-.697-.493-1.396-.144-2.072-.003-.635.128-1.545 1.161-1.457 1.734zM62.866 54.917c-.062.915.449 1.492 1.202 1.891.357.19.771.289 1.104.511.562.377 1.299.228 1.537-.402.146-.394.182-.827.316-1.225.205-.606.455-1.196.684-1.79-1.387-.855-3.554-.722-4.623.313-.158.151-.203.461-.22.702zM61.666 43.077c.584-.234.881-.534.754-1.088-.16-.696-.509-1.353-.363-2.104.013-.057-.092-.172-.166-.205-.348-.145-.723-.231-1.051-.409-.717-.391-1.369-.223-2.019.147-1.021.458-1.211 1.467-1.539 2.374-.036.102.106.293.204.413.169.206.477.361.535.589.135.52.499.381.833.409.262.024.518.099.776.142.434.07.866.133 1.301.198.053-.44.485-.365.735-.466zM58.896 109.795c.368-.18.747-.338 1.104-.541.814-.465 1.125-1.348 1.608-2.078.112-.168.101-.598-.033-.729-.901-.889-2.056-1.139-3.256-.973-.481.065-.923.459-1.38.707-.904.49-1.049 1.125-.585 2.016.363.7 1.703 1.549 2.542 1.598zM56.041 19.446c.135.41.157.9.41 1.211.253.313.727.447 1.102.662.981.555 1.901.434 2.812-.194.491-.34.646-.822.891-1.328.279-.584.184-.972-.082-1.352.234-.408.59-.742.586-1.07-.012-.523-.252-1.036-.836-1.26-.9-.342-1.773-.792-2.701-1.02-.795-.197-1.647-.104-2.252.604-.213.251-.381.545-.549.831-.473.804-.316 1.646.357 2.294.149.142.188.406.262.622zM90.645 94.629c-.145-.004-.295.027-.414-.02-.438-.172-.857-.391-1.299-.553-.717-.26-1.492.021-1.76.641-.102.229-.119.492-.18.747.127.083.346.147.415.282.405.783 1.347.502 1.897.973.035.028.174-.046.248-.094.727-.459 1.282-1.017 1.093-1.976zM57.213 87.881c.062-.028.149.004.224-.014.264-.062.646-.05.766-.221.336-.479.972-.893.558-1.652-.114-.214-.15-.479-.185-.729-.086-.645-.903-1.18-1.499-.939-.4.161-.788.367-1.23.576-.66.258-.559 1.029-.854 1.555-.106.188.042.764.195.816.66.229 1.168 1.042 2.025.608zM51.512 51.964c-.021.168.306.396.496.571.115.104.293.141.405.249.386.356.74.742 1.128 1.095.377.345.816.244 1.12-.05.334-.327.565-.763.826-1.161.344-.532.438-1.235 1.183-1.483.334-.113.334-.558.012-.693-.898-.379-1.817-.71-2.729-1.06-.021.05-.039.102-.062.155-.791-.083-1.448.321-1.918.824-.334.36-.389 1.016-.461 1.553zM60.825 29.179c-1.085.084-1.972.549-2.539 1.503-.188.314-.28.684-.44 1.017-.313.65.25 2.061.941 2.29.333.111.686.165 1.024.265.282.082.686.354.813.257.428-.332.889-.116 1.312-.228.184-.047.38-.093.536-.191.697-.425.408-1.106.392-1.697-.013-.4-.146-.794-.222-1.17.548-.179.842-.347.676-1.014-.172-.699-.262-.998-.887-1.036a11.792 11.792 0 00-1.606.004zM77.664 48.78c.158-.639.285-1.291.355-1.945.014-.14-.25-.41-.43-.455-.59-.146-1.199-.228-1.805-.316-.834-.12-1.884.625-2.023 1.448-.027.165.002.407.107.515.68.692 1.418 1.299 2.543 1.356.349-.232 1.071.14 1.253-.603zM74.074 56.28c.288.027.53.083.768.064.893-.071 1.022-.305.705-1.149-.176-.464-.399-.923-.479-1.405-.062-.378-.227-.442-.537-.485-.854-.113-1.479.411-2.121.8-.29.175-.562.583-.604.915-.069.573.779 1.369 1.396 1.429.247.024.498-.004.748-.009-.019.089-.035.18-.053.27.057-.145.117-.29.177-.43zM82.314 57.616c.465.153 1.201.017 1.301-.284.168-.518.285-1.052.422-1.571-.253-.145-.465-.291-.695-.393a4.121 4.121 0 00-.777-.259c-.961-.198-1.551-.24-2.008.877-.264.643-.061 1.097.609 1.268.387.099.766.236 1.148.362zM75.305 63.971c.334.612.836.482 1.348.37.305-.066.622-.095.906-.208.242-.097.598-.072.609-.516a2.27 2.27 0 01.25-.948c.268-.509.104-1.14-.404-1.399-.625-.32-1.271-.497-1.98-.466-.551.024-1.447.779-1.438 1.336.009.55.104 1.101.158 1.583.226.098.482.122.551.248zM82.053 95.471c-.907-.286-1.832-.52-2.744-.791-.887-.267-1.615.091-2.32.556-.359.237-.432.558-.312.976.188.666.328 1.348.483 2.022.031.131-.006.291.058.396.459.77.924 1.519 1.965 1.61.479.04 1.361-.192 1.633-.596.117-.179.137-.425.257-.603.062-.088.246-.096.372-.141.064.046.13.09.195.134.082-.493.277-1.002.226-1.483-.062-.539-.019-.973.338-1.383.232-.274.222-.578-.151-.697zM90.551 82.473c-.191-.532-.646-.326-.975-.383-.604-.104-1.229-.129-1.846-.131-.721-.002-.815.75-1.239 1.117-.282.248-.278.518-.028.854.68.912 1.629 1.428 2.618 1.896.048.023.11.012.114.012.367-.037.703-.012.984-.123.31-.123.701-.248.543-.789-.062-.211.048-.627.205-.717.477-.257.207-.611.139-.863-.084-.313-.402-.56-.515-.873zM92.518 71.663c.463-.151.955-.292 1.168-.859.127-.341.416-.618.6-.942.076-.136.156-.354.102-.472-.469-1.007-1.291-1.467-2.387-1.47-.037 0-.074.003-.113-.004-1.062-.188-1.5.679-2.019 1.306-.12.143.226.683.374 1.032.09.204.206.394.322.583.318.523 1.382 1.011 1.953.826zM91.182 28.35c.279-.462-.131-.633-.316-.815-.232-.228-.633-.279-.889-.493-.437-.36-.723.043-1.032.163-.575.216-1.128.507-1.659.817-.623.363-.326 1.062-.505 1.591-.12.357.021.588.405.752 1.047.442 2.127.409 3.217.314.053-.004.102-.046.107-.049.293-.218.599-.365.785-.605.205-.262.479-.569.07-.955-.158-.15-.277-.565-.183-.72zM92.823 43.859c.079-.311-.075-.689-.159-1.028-.042-.17-.121-.379-.252-.469-.605-.424-1.232-.821-1.838-.792-1.388-.068-2.088.784-2.871 1.474-.044.039-.023.176-.002.261.053.199.182.394.174.588-.012.421.122.739.459.989.279.208.605.389.818.658.509.637.902.583 1.727.346.453-.13.969-.3 1.272-.625.341-.364.544-.903.672-1.402zM84.043 4.94c.5.48.967.997 1.441 1.501.09.096.139.254.248.312.783.432 1.562.844 2.508.399.436-.208 1.078-.855 1.107-1.339.014-.214-.098-.437-.08-.649.006-.107.162-.206.25-.308l.234.017c-.177-.47-.267-1.009-.558-1.396-.324-.433-.504-.83-.406-1.365.066-.355-.096-.613-.479-.527-.928.212-1.844.478-2.768.704-.9.219-1.351.896-1.724 1.652-.185.387-.086.698.227.999zM84.996 72.227c.137-.542.258-1.087.385-1.631-.139-.065-.359-.091-.408-.196-.354-.778-1.131-.827-1.785-1.051-.609-.208-1.916.225-2.131.764-.232.588-.342 1.28.074 1.861.291.407.707.72 1.014 1.118.236.311.531.393.883.417.671.049 1.816-.686 1.968-1.282zM86.787 15.388c-.061-.358.045-.743.043-1.116 0-.156-.045-.383-.15-.458-.91-.633-1.854-.614-2.803-.062-.033.017-.063.04-.1.052-1.014.377-.953 1.345-1.086 2.147-.029.185.543.475.85.702.176.129.375.234.568.339.541.29 1.705.177 2.104-.272.323-.363.678-.734.574-1.332zM76.573 36.971c-.19.387-.091.698.224.999.5.48.965.997 1.439 1.502.092.097.141.252.248.312.785.432 1.562.844 2.508.396.436-.206 1.079-.853 1.107-1.337.014-.213-.094-.435-.08-.649.008-.107.162-.206.25-.307l.236.017c-.18-.47-.269-1.009-.56-1.396-.324-.436-.505-.831-.403-1.365.062-.356-.099-.612-.479-.527-.931.211-1.845.479-2.771.704-.896.219-1.346.894-1.719 1.651zM55.543 77.114c.131-.542.159-1.11.194-1.671.013-.207-.035-.54-.164-.609-.748-.404-1.442-1.011-2.377-.886-.34.044-.685.169-.987.33-.297.154-.615.354-.796.62-.358.538-.577 1.029-.176 1.783.394.734 1.076 1.094 1.522 1.715.106.152.438.146.58.188 1.21-.103 1.896-.195 2.204-1.47zM78.232 108.168c.15-.462.316-.723.857-.717.582.006.84-.332.785-.877-.011-.084-.055-.164-.09-.265l.291.062c.191-.582-.146-.883-.604-1.01-.564-.154-1.162-.195-1.74-.311-1.032-.207-1.912.201-2.729.729-.289.188-.537.549-.348 1.012.113.279.137.596.213.955.799.479 1.682 1.01 2.695 1.621.215-.363.526-.754.67-1.199zM90.867 137.062c.689-1.19.365-2.316-.727-3.146-1.318-1.005-2.805-1.068-4.326-.818-.645.104-1.284.395-1.686.992-.227.334-.418.692-.638 1.032-.706 1.101-.562 2.169.259 3.187.285.357.713.515.947.871.578.879 1.57.89 2.514 1.342.67-.34 1.5-.559 2.029-1.082.677-.664 1.146-1.546 1.628-2.378zM82.324 126.321l.65-2.466.57-.178c-.226-.272-.348-.567-.555-.649-1.021-.394-2.053-.979-3.184-.458-1.318.607-2.137 1.305-1.086 2.775.188.263.455.473.711.677.557.442 1.228.483 1.893.444.295-.018.58-.16.872-.25l.129.105zM79.614 113.615c.249-.525.083-.827-.371-1.059a17.106 17.106 0 00-1.108-.516c-.974-.396-2.344-.033-2.941.812-.109.154-.125.488-.031.65.234.404.498.834.857 1.105.554.416 1.031 1.039 1.91 1.061.238-.145.471-.308.721-.427.691-.329.691-1.047.963-1.626zM72.252 134.713c-.357-.162-.638-.295-.923-.414-1.03-.428-2.005-.985-3.157-.141-.521.383-1.189.512-1.597 1.145-.312.486-.747 1.537-.435 1.996.447.666.969 1.304 1.562 1.834.307.272.832.375 1.271.408.828.062 1.771.127 2.253-.695.43-.737 1.055-1.37 1.241-2.271.095-.453.222-.828-.056-1.26-.128-.205-.134-.492-.159-.602zM66.123 101.627c.238.168.418.34.631.441.805.389 1.035.254 1.188-.635.086-.488.123-.999.297-1.455.14-.355.028-.494-.22-.688-.68-.531-1.479-.394-2.234-.382-.337.004-.779.218-.98.484-.351.458-.021 1.575.479 1.936.201.146.435.248.649.37-.062.068-.121.139-.182.206.126-.092.251-.185.372-.277zM73.307 74.807c-.619-.161-1.299-.363-1.896-.25-.357.066-.607.703-.904 1.083-.043.055-.086.113-.103.133.114.261.214.477.303.695.146.357.964 1.117 1.296 1.218.064.02.102.128.16.188.1.094.189.201.305.262.377.199.803.229 1.066-.108.382-.481.934-1.044.926-1.565-.007-.643-.339-1.441-1.153-1.656zM95.829 37.68c-.464.073-.937.097-1.399.18-.748.134-1.274.771-1.191 1.439.027.248.146.487.225.735.148.006.368-.049.5.034.746.47 1.41-.247 2.131-.119.043.008.125-.127.168-.207.391-.764.586-1.522-.062-2.255-.132.069-.244.173-.372.193zM98.324 19.981c-.105-.684-.176-1.375-.329-2.048-.097-.418-.749-.673-1.163-.498-.562.239-1.125.492-1.67.774-.557.291-1.055 1.318-.956 1.896l.273 1.527c.261.059.459.047.575.139.804.613 1.641.447 2.504.175.697-.22 1.021-.767.844-1.477-.04-.158-.052-.324-.078-.488zM98.697 2.099c-.045.119-.165.201-.27.296-.068.062-.17.105-.188.175-.043.181-.006.38-.058.558-.154.544-.327 1.084-.479 1.565.076.273.086.477.185.622.389.575.721 1.149 1.156 1.686.047.056.152.097.152.131V1.7a.648.648 0 00-.498.399zM92.854 144.896c.102-.117.135-.296.236-.413.344-.396.717-.766 1.057-1.163.334-.39.217-.825-.088-1.117-.336-.323-.779-.543-1.188-.788-.543-.324-1.248-.396-1.521-1.131-.123-.33-.568-.314-.693.012-.348.912-.648 1.842-.968 2.767.052.018.104.034.155.054-.056.793.371 1.438.891 1.889.369.32 1.027.357 1.566.41.168.012.385-.324.553-.52zM95.272 57.215c-.464-.209-.909-.47-1.39-.629-.898-.298-2.166.6-2.166 1.546.151.355.127.771.482 1.167.771.851 1.48 1.07 2.439.454.717-.459 1.05-1.192 1.279-1.968.035-.114-.18-.327-.312-.461-.072-.074-.225-.061-.332-.109zM93.912 106.788c-.599.167-1.115.654-1.635 1.041-.076.058.07.362.051.546-.045.475-.178.949-.174 1.424.006.306.107.705.318.892.377.334.847.603 1.322.774.434.157.273.295.043.562.322-.021.574-.074.816-.04.641.089 1.229-.193 1.375-.736.086-.318.068-.668.175-.98.146-.441.292-.912.563-1.277.338-.451.328-.725-.176-.994a2.73 2.73 0 01-.682-.498c-.55-.586-1.259-.92-1.996-.714zM47.37 82.288c-.899-.343-1.772-.792-2.699-1.021-.798-.197-1.649-.105-2.254.604-.212.251-.381.545-.549.83-.471.807-.315 1.646.359 2.295.15.143.19.407.261.623.136.408.16.9.411 1.211.253.312.726.448 1.103.661.981.556 1.901.435 2.813-.194.49-.338.646-.822.887-1.326.281-.584.185-.971-.08-1.354.234-.406.588-.742.583-1.07-.009-.521-.251-1.035-.835-1.259zM33.78 72.294c.194-.43.34-.886.457-1.343.123-.486-.401-1.231-.9-1.31-.532-.084-1.07-.139-1.442-.186-1.001.016-1.928-.176-2.256.94-.087.296-.207.652-.117.911.086.251.411.436.661.608.471.325.971.609 1.441.932.804.553 1.753.333 2.156-.552zM31.182 56.959c.155.103.484-.04.621.069.632.498 1.12.089 1.48-.292.715-.752 1.338-1.595 1.981-2.415.348-.441.369-.933.323-1.5-.044-.53-.061-1.081-.399-1.45-.373-.408-.878-.734-1.385-.977-1.055-.506-2.211-.287-3.328-.339a.29.29 0 00-.196.082c-.812.759-1.759 1.446-1.491 2.8-.051.003-.103.005-.154.009.17.57.175 1.325.552 1.667.511.46.729 1.046 1.114 1.547.239.311.554.58.882.799zM46.069 102.276c-.72-.378-1.459-.733-2.225-1a3.21 3.21 0 00-1.456-.161c-1.226.166-2.789 1.823-2.753 3.055.028.938.22 1.94.616 2.78.432.913 1.278 1.572 2.232 2.004.856.39 2.062.115 2.66-.598.278-.332.526-.69.825-1.088l.214.504c.054-.39.094-.617.114-.851.075-.846.758-1.537.59-2.463-.054-.311-.51-2.02-.817-2.182zM35.926 90.785c-1.166-.261-2.244-.322-3.328.225-.555.281-.875.977-.715 1.582.049.181.015.386.017.496.125.291.183.553.332.738.318.396.876.35 1.252.561.705.396 1.286.775 2.182.517.543-.158 1.098-.369 1.218-.974.104-.524.206-1.051.311-1.573.015-.07.077-.149.057-.199-.257-.633-.486-1.183-1.326-1.373zM65.945 71.743c.204-.688.277-.994-.24-1.341a11.797 11.797 0 00-1.395-.809c-.977-.475-1.977-.521-2.948.014-.319.178-.588.45-.896.656-.602.403-.826 1.903-.345 2.452.232.264.509.49.75.746.203.214.414.654.573.633.537-.069.827.35 1.249.468.185.051.373.11.562.105.814-.013.912-.748 1.191-1.267.189-.351.275-.76.4-1.122.567.122.904.126 1.099-.535zM42.195 71.914c-.662.258-.559 1.028-.854 1.554-.108.189.041.765.194.818.663.229 1.172 1.041 2.028.607.061-.03.149.002.222-.015.265-.063.647-.051.767-.222.335-.478.97-.891.555-1.651-.114-.214-.149-.48-.182-.73-.086-.643-.907-1.176-1.5-.938-.402.162-.787.367-1.23.577zM42.432 47.401c.309.277.706.563 1.095.614.402.055.909-.068 1.247-.293.589-.391 1.174-.856 1.586-1.418.253-.347.312-.955.23-1.403-.194-1.054-1.479-1.952-2.663-2.024-.274.027-.556.031-.825.086-.9.186-1.604.609-1.962 1.526-.151.389-.43.569-.069 1.129.411.64.801 1.279 1.361 1.783zM51.217 93.504c-.465.006-.963.267-1.378.525-.782.488-.833 1.676-.157 2.092.249.154.497.369.651.617.506.809 1.648 1.062 2.381.486a.852.852 0 00.223-.287c.253-.52.492-1.049.752-1.564.023-.048.158-.041.391-.091-.568-.501-.992-.958-1.497-1.288-.405-.258-.909-.5-1.366-.49zM58.609 123.948c.816-.467 1.126-1.351 1.609-2.079.112-.169.099-.597-.033-.729-.901-.889-2.057-1.137-3.258-.973-.482.066-.92.459-1.379.707-.902.49-1.047 1.127-.586 2.016.361.699 1.702 1.549 2.541 1.598.372-.176.751-.337 1.106-.54zM59.594 128.69c-.482.065-.922.461-1.381.708-.902.49-1.048 1.126-.586 2.015.361.699 1.702 1.55 2.541 1.599.368-.178.747-.338 1.104-.541.816-.465 1.126-1.35 1.609-2.077.112-.171.099-.599-.035-.729-.898-.891-2.051-1.14-3.252-.975zM50.672 36.828c.062-.032.149.002.224-.015.264-.063.646-.051.766-.222.336-.478.972-.892.558-1.651-.114-.215-.15-.482-.185-.729-.086-.644-.905-1.178-1.499-.94-.402.162-.788.368-1.231.579-.662.257-.558 1.027-.854 1.553-.107.189.042.765.194.817.661.23 1.169 1.04 2.027.608zM50.35 63.968c.046-.516-.256-.914-.49-1.366.499-.312.732.178 1.156.349.218-.303.283-.553-.073-.886-1.098-1.022-2.464-1.271-3.862-1.358-1.289-.082-1.973.808-2.433 1.847-.205.459-.41 1.094-.249 1.502.255.642.821 1.161 1.255 1.73.012.013.033.018.051.024.322.087.642.208.97.253.564.076 1.155.219 1.698.122.648-.115 1.257-.452 1.831-.672.056-.566.108-1.055.146-1.545zM50.896 110.11c-1.418-.136-2.199.612-2.505 1.869.532.772 1.061 1.555 1.61 2.319.104.148.271.289.439.351.408.151 1.451-.295 1.682-.688.326-.565.648-1.134.971-1.697.121.05.236.1.342.146.087-.166.168-.323.238-.462-.542-1.206-1.54-1.717-2.777-1.838zM68.623 5.992zM39.209 30.031zM36.931 33.361zM33.787 38.683c.308-.575.629-1.14.95-1.706-.32.566-.644 1.131-.95 1.706zM34.781 36.901zM25.157 70.174l.031-.677c-.012.225-.021.451-.031.677zM66.289 7.098zM97.385 49.965c-.891.735-.744 1.213-.271 2.288.265.603.896.741 1.248 1.208.11.148.44.194.661.136.074-.021.17-.048.17-.072v-3.812c-.998-.222-1.248-.21-1.808.252zM56.159 13.197zM59.454 10.969zM26.493 59.115zM72.545 4.342zM25.873 62.709c.028-.189.051-.38.08-.569-.029.189-.052.381-.08.569zM27.351 55.287c.078-.308.166-.612.248-.919-.082.307-.17.611-.248.919zM25.437 66.237c.021-.219.048-.436.071-.653-.024.217-.05.435-.071.653zM28.199 52.255c.113-.377.224-.756.343-1.131-.119.376-.23.754-.343 1.131zM30.53 45.648zM32.02 42.231zM29.389 48.619c.156-.437.319-.87.483-1.303-.163.434-.326.866-.483 1.303zM52.883 15.679zM76.358 2.983zM97.777 130.346c-.088-.149-.293-.369-.393-.346-.285.068-.707.187-.789.394-.326.848-.545 1.737-.775 2.522.188.615.275 1.094.48 1.516.229.471.471.979 1.054 1.035.083.009.174.008.271-.004.112-.016.238-.041.357-.051a.534.534 0 01.312.045.516.516 0 00.286.082c.212-.008.354-.18.431-.313.017-.026-.033-.052-.023-.074.082-.187.207-.366.207-.549v-3.64c0-.045-.158-.092-.254-.154-.379-.25-.88.035-1.164-.463zM33.471 107.74c.104-.021.184-.252.239-.4.071-.188.049-.455.174-.571.293-.272.037-.47-.039-.683-.074-.209-.203-.399-.308-.6l.135-.123c-.324-.107-.644-.277-.974-.307-.219-.018-.438-.023-.657-.034a75.295 75.295 0 01-1.557-3.577 74.26 74.26 0 002.915 6.323c.026-.008.046-.022.072-.028zm-1.399-2.65zM27.081 88.616c.3-.634.06-1.161-.603-1.356-.048-.016-.095-.027-.143-.045a77.657 77.657 0 01.015.08c.121.652.246 1.307.384 1.955.01.041.021.082.029.125l-.02-.084c.112-.217.228-.443.338-.675zM50.805 128.617c-.264-.535-.777-1.038-1.309-1.328-.816-.441-1.428-.672-2.051-.58a74.313 74.313 0 0025.27 16.221 74.368 74.368 0 01-21.766-13.015c.082-.431.032-.94-.144-1.298zm-2.752-1.331zM97.646 78.619c-.188.5-.34 1.002-.508 1.457.197.184.39.271.445.412.25.605.477.936 1.021 1.148.184.07.59.129.59.179v-4.334c-.999.072-1.36.64-1.548 1.138zM98.43 120.789c-.043.137-.029.316-.019.484.015.168.013.324.097.412.213.223.688.41.688.587v-2.351c-.001.032-.628.434-.766.868zM97.266 90.021c-.479.03-.943.545-1.33.94a.598.598 0 00.098.887c.09.068.137.222.16.369.008.049.018.097.023.142.029.209.004.313.328.347.361.036.698.354 1.051.536.238.124.424.231.668.351.246-.03.932-.237.932-.492v-2.608c-1.001-.491-1.253-.514-1.93-.472z"/><path d="M34.716 37.185c.01-.089.032-.178.057-.267l-.035.06c-.321.566-.643 1.13-.95 1.706-.004.008-.008.017-.013.024.502-.333.865-.801.941-1.523zM87.459.301c.266-.043.528-.09.795-.13-.267.04-.531.087-.795.13zM83.9.96c.361-.077.725-.147 1.088-.218-.363.071-.726.142-1.088.218zM91.315-.218c.257-.027.514-.055.771-.08l-.771.08zM80.211 1.841zM62.937 8.877l-.118.068.121-.064-.003-.004zM52.797 15.746z"/><path d="M62.939 8.881c.15.146.295.299.42.473.109.153.439.146.582.188 1.205-.101 1.893-.195 2.201-1.469.076-.318.115-.645.144-.973a74.27 74.27 0 00-.019.009 73.513 73.513 0 00-3.328 1.772zM42.848 31.308c.28-.256.361-.715.604-1.03.278-.363.032-.941.548-1.192.155-.074.389-.265.374-.366-.051-.29-.136-.721-.339-.814-.82-.386-1.691-.667-2.461-.954l-.013.003c-.021.024-.039.05-.059.075a75.94 75.94 0 00-2.294 3l-.02.027c.902.495 1.741 1.126 2.752 1.386.283.073.718.04.908-.135zM95.281-.54c.193-.011.391-.017.584-.026-.193.009-.39.015-.584.026zM28.826 96.926zM30.193 100.707zM92.104 147.504c-.521-.052-1.036-.117-1.553-.18.516.063 1.033.128 1.553.18zM99.32 147.858h-.008zM95.682 147.766c-.426-.021-.848-.06-1.271-.088.425.028.845.067 1.271.088zM88.588 147.075c-.567-.083-1.133-.178-1.697-.272.564.094 1.127.189 1.697.272zM45.313 124.534zM78.549 144.893zM81.791 145.758zM75.471 143.922c-.771-.263-1.543-.526-2.303-.813.762.286 1.531.55 2.303.813zM99.32 32.304v-1.77c-.003.325-.288.742-.377 1.098-.048.197.374.546.377.672zM26.734 89.25zM25.78 83.773zM27.683 93.139zM25.335 79.639a73.082 73.082 0 01-.174-2.446c.039.821.109 1.632.174 2.446zM90.926 124.137c.104.07.289.078.418.041.455-.137 1.322-1.305 1.311-1.776-.003-.147-.1-.369-.21-.422-.558-.261-1.133-.474-1.703-.701-.006.053-.015.104-.021.158-.77-.24-1.062.266-1.233.813-.086.271-.074.721.092.896.379.397.879.686 1.346.991zM85.146 146.49z"/><path fill="none" d="M48.053 127.286a76.986 76.986 0 002.619 2.386M33.308 107.588a68.96 68.96 0 01-1.236-2.498M26.734 89.25a75.82 75.82 0 01-.384-1.955M26.347 87.282l.003.013M34.747 36.96l-.01.017M33.779 38.697l.008-.014M33.787 38.683c.308-.575.629-1.14.95-1.706M41.526 27c-.009.01-.016.021-.023.031M39.201 30.042l.008-.011M39.209 30.031a74.495 74.495 0 012.294-3M99.321 32.635"/><path fill="#EDC9C9" d="M99.106 6.753c-.437-.537-.83-.987-1.218-1.562-.099-.145-.105-.286-.183-.559.151-.48.328-.99.483-1.534.051-.178.021-.361.062-.542.02-.07.135-.105.203-.167.104-.095.258-.207.301-.325.129-.345.496-.429.5-.429h-.062v-2h.062c-1.16 0-2.277-.109-3.424-.057-.195.009-.375-.057-.568-.046-1.07.058-2.129.104-3.188.207-.258.025-.511.034-.768.062a75.489 75.489 0 00-3.062.38c-.267.04-.528.083-.795.125-.827.133-1.649.278-2.47.439-.363.071-.727.14-1.087.217-.808.171-1.61.358-2.41.556a73.22 73.22 0 00-3.633.992 69.915 69.915 0 00-2.816.921c-.837.29-1.667.593-2.488.912-.315.123-.632.246-.942.372a74.684 74.684 0 00-2.978 1.278c-.183.083-.367.164-.551.249-.6.278-1.193.563-1.783.856l-.003.001a6.448 6.448 0 01-.144.973c-.309 1.274-.996 1.368-2.201 1.469-.143-.042-.473-.035-.582-.188a3.584 3.584 0 00-.42-.473l-.121.064-.234.135a73.174 73.174 0 00-3.13 1.889l-.311.2a73.42 73.42 0 00-2.984 2.028c-.09.064-.182.128-.271.193a75.618 75.618 0 00-3.008 2.289c-.027.023-.059.045-.086.067a74.704 74.704 0 00-11.229 11.202l-.007.008h.001c.005-.001.009-.001.013-.003.77.287 1.641.568 2.461.954.203.093.288.524.339.814.015.101-.219.292-.374.366-.516.25-.27.829-.548 1.192-.242.314-.323.773-.604 1.03-.19.175-.625.208-.907.136-1.011-.26-1.85-.891-2.752-1.386l-.016.022a74.972 74.972 0 00-2.242 3.28l-.088.136c-.716 1.115-1.693 2.249-2.351 3.404-.003.006-.297.011-.297.016v.001c0 .088.242.141.232.23-.075.724-.263 1.488-.765 1.488h.056c-.371 1-.701 1.435-1.051 2.144-.23.469-.439.96-.661 1.435-.227.483-.438.98-.653 1.469a70.534 70.534 0 00-.825 1.961c-.226.553-.444 1.11-.656 1.67a72.565 72.565 0 00-1.329 3.81c-.119.375-.229.753-.343 1.131-.21.7-.409 1.405-.6 2.114-.082.307-.17.611-.248.919a74.953 74.953 0 00-.858 3.828 75.236 75.236 0 00-.54 3.025c-.029.189-.052.38-.08.569a73.455 73.455 0 00-.365 2.874c-.023.218-.05.435-.071.653a75.978 75.978 0 00-.248 3.261c-.012.225-.021.451-.031.677a73.785 73.785 0 00-.088 3.434c0 1.202.033 2.396.092 3.584.04.82.106 1.634.174 2.447.026.32.042.644.073.963.102 1.062.227 2.119.372 3.17l.018.138c.156 1.109.336 2.211.538 3.306.048.017.095.028.143.043.662.196.902.725.603 1.357-.109.23-.226.458-.337.676l.02.084a73.354 73.354 0 00.92 3.762c.093.342.191.68.289 1.02.268.93.552 1.854.854 2.77.101.302.202.602.306.9.334.971.688 1.93 1.062 2.881.097.246.192.493.292.738a74.285 74.285 0 001.557 3.577c.219.011.438.019.657.034.33.027.649.199.974.307l-.135.123c.104.199.233.391.308.6.076.213.332.409.039.683-.125.116-.103.383-.174.571-.056.148-.135.379-.239.4-.026.006-.046.02-.071.026a74.367 74.367 0 009.919 14.565l.123.144a72.925 72.925 0 001.871 2.059c.055.06.11.116.165.175a75.777 75.777 0 001.969 2c.623-.092 1.234.139 2.051.58.529.29 1.043.793 1.31 1.328.175.357.225.866.146 1.299a74.335 74.335 0 0021.766 13.014c.15.06.3.121.451.179.76.287 1.528.552 2.303.813.335.113.669.23 1.007.34.685.223 1.377.429 2.071.631.438.128.875.254 1.316.374a73.2 73.2 0 003.469.847c.602.132 1.205.259 1.811.376.579.112 1.162.213 1.745.312.563.096 1.128.189 1.696.272.649.095 1.308.173 1.963.249.518.062 1.033.128 1.554.18.765.072 1.535.123 2.308.174.424.029.846-.043 1.271-.022 1.203.058 2.412-.021 3.629-.021h-.116v.224-13.26.004c0 .183-.124.362-.207.549-.01.022.009.048-.007.074-.076.135-.203.307-.414.313a.497.497 0 01-.279-.082c-.084-.049-.188-.055-.309-.045-.119.01-.243.035-.355.051a1.18 1.18 0 01-.271.004c-.583-.057-.824-.564-1.054-1.034-.204-.423-.291-.9-.479-1.517.229-.785.449-1.676.775-2.522.081-.207.504-.324.788-.394.101-.023.306.195.394.346.283.498.849.05 1.228.3.097.062.25-.011.252-.011h-.067v-8.359-.002c0-.178-.458-.364-.672-.587-.084-.088-.099-.244-.11-.412s.021-.492.064-.629c.138-.435.767-1.011.771-1.011h-.055V93.098v.003c0 .254-.686.461-.932.489a22.662 22.662 0 01-.697-.35c-.352-.184-.672-.5-1.034-.536-.325-.032-.288-.138-.319-.347-.006-.045-.008-.094-.016-.143-.023-.146-.061-.301-.15-.367-.379-.289-.24-.721-.08-.887.388-.396.887-.84 1.361-.869.678-.041.93-.457 1.93.543h-.062v-9h.062c-.25 0-.431-.018-.611-.088-.546-.211-.812-.498-1.062-1.103-.057-.14-.225-.207-.422-.39.168-.455.355-.869.542-1.369.188-.499.552-1.051 1.55-1.051h-.059v-24h.062c-.002 0-.117-.004-.193.017-.219.058-.59-.016-.7-.164-.353-.467-.961-.619-1.226-1.222-.475-1.075-.584-1.6.305-2.334.561-.462.812-.297 1.812-.297h-.062V32.306v-.002c0-.126-.426-.475-.377-.672.088-.356.377-.773.377-1.098V6.635h.062c-.004 0-.105.175-.152.118zM89.484 122.25c.174-.549.466-1.055 1.234-.813.008-.054.016-.105.021-.158.569.229 1.146.44 1.703.701.112.053.207.274.21.422.014.474-.854 1.642-1.311 1.776-.127.037-.312.029-.416-.041-.47-.305-.97-.594-1.353-.989-.162-.177-.174-.626-.088-.898zm-.175-25.551c-.555-.471-1.494-.189-1.899-.973-.071-.135-.288-.199-.415-.282.059-.255.078-.519.18-.747.268-.619 1.043-.9 1.758-.641.441.162.861.381 1.301.553.117.047.271.016.414.02.188.959-.365 1.517-1.09 1.978-.078.047-.216.122-.249.092zm1.623-12.49c-.159.09-.27.506-.205.717.158.541-.235.666-.543.789-.283.111-.619.086-.986.123-.004 0-.068.012-.115-.012-.99-.469-1.938-.984-2.619-1.896-.25-.336-.252-.604.03-.854.423-.367.521-1.119 1.239-1.117.617 0 1.24.027 1.846.131.328.057.781-.149.975.383.111.313.432.561.518.873.065.252.334.606-.14.863zm-9.069 13.342c.053.481-.143.99-.225 1.483a8.482 8.482 0 01-.196-.134c-.126.045-.312.053-.372.141-.12.178-.139.424-.257.603-.271.401-1.151.636-1.632.596-1.041-.093-1.506-.842-1.965-1.61-.062-.104-.025-.265-.059-.396-.154-.677-.295-1.356-.482-2.022-.119-.418-.049-.736.312-.976.705-.465 1.437-.821 2.319-.556.912.271 1.838.504 2.744.791.373.119.383.423.147.697-.351.41-.396.844-.334 1.383zm-8.664-41.102c-.615-.06-1.465-.856-1.395-1.429.039-.332.312-.739.604-.915.645-.39 1.268-.914 2.121-.8.312.042.475.107.537.485.079.481.305.94.479 1.405.318.844.188 1.078-.703 1.149-.236.018-.479-.038-.769-.064l-.181.43.054-.27c-.249.005-.5.033-.747.009zm.563-8.937c.142-.823 1.189-1.568 2.023-1.448.604.088 1.215.169 1.805.316.18.045.441.315.43.455-.07.654-.197 1.306-.355 1.945-.182.743-.904.371-1.25.603-1.125-.057-1.865-.664-2.543-1.356-.108-.108-.138-.35-.11-.515zm2.271 13.292c.712-.031 1.355.146 1.98.466.508.259.672.89.404 1.399a2.27 2.27 0 00-.25.948c-.014.444-.367.419-.609.516-.284.113-.603.142-.906.208-.512.112-1.014.242-1.348-.37-.068-.126-.324-.151-.551-.248-.055-.483-.149-1.033-.158-1.583-.009-.556.887-1.312 1.438-1.336zm4.524-4.818c.457-1.117 1.045-1.075 2.006-.877.266.055.529.15.779.259.229.103.44.248.693.393-.137.519-.254 1.054-.422 1.571-.102.301-.836.438-1.301.284-.385-.126-.764-.264-1.147-.363-.669-.17-.872-.624-.608-1.267zm1.586 17.106c-.305-.398-.721-.711-1.012-1.118-.418-.581-.311-1.273-.074-1.861.213-.539 1.52-.971 2.129-.764.656.224 1.434.272 1.787 1.051.047.104.27.131.408.196-.127.543-.248 1.088-.387 1.631-.15.598-1.297 1.333-1.971 1.282-.347-.025-.642-.106-.88-.417zm1.966-56.1c-.193-.104-.393-.209-.568-.339-.307-.227-.879-.518-.85-.702.133-.802.072-1.771 1.086-2.147.034-.012.066-.035.1-.052.947-.552 1.893-.57 2.803.062.105.075.15.302.15.458.002.373-.104.758-.043 1.116.104.598-.251.969-.574 1.332-.399.449-1.563.562-2.104.272zm6.455 53.844c-.116-.189-.232-.378-.322-.583-.148-.349-.494-.889-.374-1.032.519-.627.956-1.493 2.019-1.306.039.007.076.004.113.004 1.096.003 1.918.463 2.387 1.47.057.118-.023.336-.102.472-.184.324-.473.601-.6.942-.213.568-.705.708-1.168.859-.57.186-1.634-.302-1.953-.826zm.315-24.95c-.824.237-1.218.292-1.727-.346-.213-.269-.539-.449-.818-.658-.337-.25-.471-.568-.459-.989.008-.194-.121-.389-.174-.588-.021-.085-.042-.223.002-.261.783-.69 1.483-1.542 2.871-1.474.604-.028 1.23.368 1.838.792.131.09.21.299.252.469.084.339.238.717.159 1.028-.128.499-.331 1.038-.672 1.402-.305.325-.819.495-1.272.625zm.418-15.86c-.188.241-.492.387-.787.605-.006.002-.055.044-.105.049-1.09.094-2.17.128-3.217-.314-.387-.164-.525-.395-.405-.752.181-.53-.118-1.228.505-1.591.531-.31 1.084-.602 1.659-.817.312-.12.599-.523 1.032-.163.256.213.654.265.889.493.188.182.598.353.314.815-.094.155.025.57.188.721.405.386.13.691-.073.954zM85.543 2.289c.924-.226 1.84-.492 2.77-.704.383-.086.545.171.479.527-.1.536.08.932.404 1.365.291.387.381.926.557 1.396a16.062 16.062 0 00-.234-.017c-.088.102-.243.2-.25.308-.018.213.095.435.08.649-.028.484-.672 1.131-1.106 1.339-.944.445-1.726.033-2.508-.399-.109-.058-.158-.216-.248-.312-.476-.505-.94-1.021-1.44-1.501-.312-.3-.412-.611-.224-.999.37-.756.82-1.432 1.72-1.652zm-4 32.855c-.1.534.082.93.405 1.365.291.387.38.926.558 1.396l-.234-.017c-.09.101-.242.2-.25.307-.016.214.094.436.08.649-.028.484-.674 1.132-1.107 1.337-.943.448-1.723.036-2.508-.396-.105-.06-.156-.215-.248-.312-.477-.505-.938-1.022-1.438-1.502-.314-.301-.414-.612-.226-.999.373-.757.822-1.433 1.724-1.652.926-.225 1.84-.492 2.77-.704.377-.085.538.171.474.528zm-2.479-15.705c.094.067.297-.021.451-.038.164.534.336 1.066.49 1.603.172.594-.445 1.806-1.055 2.103-.312.155-.605.234-.973.085-.465-.189-.979-.249-1.438-.452-.651-.292-.907-.943-1.004-1.57-.088-.573.822-1.606 1.453-1.734.682-.14 1.379-.49 2.076.003zM70.5 9.861c.295-.524.192-1.295.854-1.553.442-.209.827-.416 1.229-.579.594-.238 1.413.297 1.5.941.031.248.067.515.184.73.414.758-.221 1.172-.557 1.65-.119.17-.5.158-.768.222-.072.017-.161-.017-.223.013-.856.433-1.364-.378-2.028-.607-.148-.052-.298-.627-.191-.817zm-1.275 21.41c.065-.479-.041-1.153.234-1.392.459-.398 1.146-.567 1.762-.741.812-.226 1.5.294 1.832.845.27.447.076 1.21-.008 1.819-.061.425-.439.614-.867.633-.129.004-.266-.042-.395-.075-.082-.02-.17-.097-.234-.08-.336.081-1.429-.16-1.732-.396-.188-.146-.383-.281-.611-.448.003-.025.009-.096.019-.165zm1.211 84.18c.078.358-.811 1.043-1.199.995-.639-.079-1.227-.254-1.695-.769-.363-.395-.363-.809-.119-1.166.645-.939 1.729-1.348 2.797-.998.303.1.537.399.836.635-.38.387-.751.696-.62 1.303zm1.037 8.053c.084.049.148.129.302.267-.247.137-.423.312-.612.321-.333.017-.438.168-.5.461-.158.735-.809 1.027-1.367 1.353-.199.116-.607.036-.842-.099-.699-.399-1.562-.741-1.635-1.674-.029-.348.318-.811.621-1.08.775-.694 1.715-.668 2.626-.313.493.19.942.5 1.407.764zm-2.291-35.576c.193.319.475.584.699.886.049.063.082.215.043.26-.506.574-.537 1.317-.75 1.998-.17.543-.578.651-1.201.56-.267-.039-.598-.321-.867.035-.342-.277-.686-.552-1.023-.83-.201-.168-.384-.361-.599-.514-.274-.193-.657-.259-.511-.775.062-.226-.121-.515-.166-.777-.023-.152-.049-.391.033-.459.741-.617 1.414-1.395 2.525-1.273.748.006 1.395.191 1.817.889zm-1.473-34.027c-.229.594-.479 1.184-.684 1.79-.135.398-.171.832-.316 1.225-.238.63-.975.779-1.537.402-.332-.223-.744-.321-1.104-.511-.753-.399-1.264-.976-1.202-1.891.017-.24.062-.55.22-.702 1.069-1.036 3.236-1.169 4.623-.313zm-4.389-23.69c.166.667-.128.835-.675 1.014.073.375.208.77.221 1.17.019.591.308 1.272-.392 1.697-.156.098-.354.144-.536.191-.425.111-.886-.104-1.312.228-.131.098-.531-.175-.814-.257-.34-.1-.691-.154-1.024-.265-.692-.229-1.257-1.64-.94-2.29.158-.333.252-.703.439-1.017.567-.954 1.454-1.418 2.539-1.503a11.85 11.85 0 011.61-.005c.623.039.712.338.884 1.037zm-8.331 56.246c.296-.525.192-1.297.854-1.555.441-.209.828-.416 1.229-.576.595-.238 1.413.295 1.499.939.032.248.066.515.186.729.414.76-.223 1.174-.559 1.652-.118.171-.502.156-.768.221-.07.018-.159-.016-.223.014-.854.435-1.363-.379-2.027-.606-.149-.054-.297-.629-.191-.818zm-1.647-7.873c-.143-.043-.475-.037-.58-.188-.447-.621-1.133-.979-1.523-1.714-.402-.754-.186-1.246.176-1.784.18-.266.499-.465.795-.62.307-.161.648-.286.988-.33.934-.125 1.629.482 2.377.885.129.07.178.403.164.61-.035.56-.062 1.129-.193 1.671-.311 1.275-.997 1.367-2.204 1.47zm3.598 27.598c.457-.247.896-.641 1.38-.707 1.2-.165 2.354.085 3.256.974.133.131.146.56.033.729-.484.729-.794 1.613-1.609 2.078-.355.203-.734.36-1.104.541-.84-.05-2.18-.898-2.54-1.599-.463-.889-.32-1.526.584-2.016zm1.914-62.978c-.334-.028-.698.11-.833-.409-.061-.229-.366-.383-.535-.589-.098-.12-.24-.311-.204-.413.328-.907.519-1.916 1.539-2.374.647-.37 1.302-.538 2.019-.147.328.178.703.264 1.051.409.074.032.179.147.166.205-.146.751.203 1.408.363 2.104.127.555-.17.854-.754 1.088-.25.101-.682.025-.734.467-.432-.065-.865-.128-1.299-.198-.261-.044-.517-.118-.779-.143zM55.42 16.529c.168-.286.336-.58.549-.831.604-.708 1.457-.801 2.252-.604.929.229 1.802.678 2.701 1.02.584.224.825.737.836 1.26.004.329-.351.663-.586 1.07.267.38.362.768.082 1.352-.24.506-.396.988-.89 1.328-.91.627-1.83.749-2.812.194-.375-.214-.85-.348-1.103-.662-.253-.311-.274-.801-.41-1.211-.071-.216-.11-.48-.263-.623-.674-.647-.828-1.489-.356-2.293zm-1.468 32.904c.912.349 1.831.681 2.729 1.06.322.135.322.581-.012.693-.742.248-.839.951-1.183 1.483-.261.398-.492.834-.826 1.161-.304.293-.743.395-1.12.05-.388-.353-.742-.739-1.128-1.095-.112-.108-.29-.145-.405-.249-.19-.176-.519-.403-.496-.571.07-.538.127-1.194.461-1.553.47-.503 1.127-.906 1.918-.824.023-.054.04-.105.062-.155zm-5.504-14.031c.296-.526.191-1.295.854-1.553.442-.21.827-.417 1.23-.579.593-.238 1.413.297 1.499.94.032.248.068.514.184.729.414.759-.221 1.173-.557 1.651-.119.17-.502.159-.766.222-.072.017-.16-.017-.223.015-.856.432-1.365-.378-2.03-.608-.149-.052-.298-.627-.191-.817zm-7.308 9.087c.358-.917 1.062-1.34 1.962-1.526.27-.056.551-.06.825-.086 1.185.072 2.469.97 2.663 2.024.082.449.022 1.057-.23 1.403-.412.562-.997 1.027-1.586 1.418a1.952 1.952 0 01-1.247.293c-.389-.051-.786-.336-1.095-.614-.561-.504-.95-1.143-1.361-1.783-.36-.56-.082-.74.069-1.129zm3.785 27.787c.032.25.067.516.182.73.415.761-.22 1.174-.555 1.651-.119.171-.502.157-.767.222-.072.017-.161-.017-.222.015-.856.434-1.365-.378-2.028-.607-.153-.053-.303-.629-.194-.818.295-.525.191-1.295.854-1.554.443-.21.828-.416 1.23-.577.593-.239 1.415.295 1.5.938zm-16.291-19.33l.154-.009c-.268-1.354.68-2.041 1.491-2.8a.3.3 0 01.196-.082c1.117.052 2.273-.167 3.328.339.507.243 1.012.569 1.385.977.339.369.355.919.399 1.45.046.567.024 1.059-.323 1.5-.644.82-1.267 1.662-1.981 2.415-.36.382-.849.791-1.48.292-.137-.109-.466.034-.621-.069a3.674 3.674 0 01-.882-.799c-.385-.501-.604-1.087-1.114-1.547-.377-.342-.382-1.097-.552-1.667zm1.549 18.967c-.25-.172-.575-.357-.661-.608-.09-.259.03-.614.117-.911.328-1.116 1.255-.924 2.256-.94.372.047.91.102 1.441.187.499.079 1.023.824.9 1.31a8.237 8.237 0 01-.457 1.343c-.403.885-1.352 1.105-2.155.551-.47-.323-.97-.606-1.441-.932zm7.011 20.443l-.311 1.573c-.12.604-.675.814-1.218.974-.896.26-1.477-.119-2.182-.517-.376-.211-.934-.164-1.252-.561-.149-.186-.207-.447-.332-.738-.002-.11.032-.315-.017-.496-.16-.605.16-1.301.715-1.582 1.084-.547 2.162-.484 3.328-.225.84.188 1.068.739 1.324 1.371.022.051-.04.13-.055.201zm9.104 14.566c-.021.232-.061.461-.114.851-.111-.259-.147-.349-.214-.504-.299.396-.547.756-.825 1.088-.598.713-1.804.985-2.66.598-.954-.432-1.801-1.091-2.232-2.004-.396-.84-.588-1.842-.616-2.78-.036-1.23 1.527-2.889 2.753-3.055a3.251 3.251 0 011.456.161c.766.267 1.505.622 2.225 1 .307.161.763 1.871.818 2.185.166.923-.516 1.614-.591 2.46zm1.324-22.305c.265.383.361.77.08 1.354-.241.504-.396.988-.887 1.326-.912.629-1.832.75-2.813.194-.377-.213-.85-.349-1.103-.661-.251-.311-.275-.803-.411-1.211-.07-.216-.11-.48-.261-.623-.675-.646-.83-1.488-.359-2.295.168-.286.337-.579.549-.83.604-.71 1.456-.801 2.254-.604.927.229 1.8.678 2.699 1.021.584.224.826.738.835 1.259.005.33-.349.666-.583 1.07zm-.948-18.554c-.328-.045-.647-.166-.97-.253-.018-.006-.039-.011-.051-.024-.434-.57-1-1.089-1.255-1.73-.161-.408.044-1.043.249-1.502.46-1.039 1.144-1.929 2.433-1.847 1.398.087 2.765.336 3.862 1.358.356.333.291.583.073.886-.424-.171-.657-.661-1.156-.349.234.452.536.85.49 1.366-.038.49-.092.979-.146 1.544-.574.221-1.183.558-1.831.672-.543.098-1.134-.045-1.698-.121zm6.758 46.344a15.368 15.368 0 00-.342-.146c-.319.563-.644 1.132-.97 1.697-.229.395-1.271.842-1.682.688a.97.97 0 01-.44-.351c-.549-.766-1.077-1.547-1.609-2.319.306-1.257 1.087-2.005 2.505-1.869 1.236.121 2.234.633 2.775 1.836-.069.141-.149.298-.237.464zm.256-17.034c-.26.516-.499 1.045-.752 1.564a.852.852 0 01-.223.287c-.73.576-1.875.32-2.381-.486-.154-.248-.402-.463-.651-.617-.676-.416-.625-1.604.157-2.092.416-.26.914-.52 1.378-.525.453-.01.961.231 1.362.49.505.33.927.787 1.497 1.288-.229.05-.362.043-.387.091zm1.277 27.518c-.461-.889-.316-1.523.586-2.016.459-.248.896-.64 1.379-.705 1.201-.166 2.354.082 3.258.971.132.133.146.561.033.729-.483.729-.795 1.612-1.609 2.079-.355.202-.734.362-1.104.54-.84-.049-2.182-.899-2.543-1.598zm7.918 7.502c-.482.729-.793 1.611-1.608 2.076-.354.205-.735.363-1.104.543-.838-.051-2.18-.899-2.541-1.6-.461-.889-.316-1.523.586-2.015.459-.247.896-.642 1.381-.708 1.199-.165 2.354.084 3.254.973.13.131.146.561.032.731zm.373-55.726c-.187.005-.377-.055-.56-.105-.422-.119-.712-.538-1.249-.468-.159.021-.37-.418-.572-.633-.242-.256-.519-.482-.75-.746-.482-.548-.258-2.048.342-2.452.31-.206.576-.478.896-.656.973-.534 1.973-.489 2.948-.014.481.235.948.511 1.396.809.518.347.443.653.239 1.341-.194.661-.532.657-1.095.535-.125.361-.211.771-.401 1.122-.282.518-.378 1.253-1.194 1.267zm2.027 26.663c-.501-.359-.83-1.478-.48-1.936.201-.268.646-.48.981-.484.755-.012 1.556-.15 2.233.381.25.193.357.332.221.688-.174.456-.211.967-.297 1.455-.152.889-.385 1.022-1.188.635-.214-.103-.394-.272-.632-.44l-.37.278c.061-.067.119-.138.182-.206-.216-.123-.449-.223-.65-.371zm7.188 35.244c-.188.9-.812 1.533-1.242 2.271-.479.822-1.426.758-2.252.695-.439-.033-.967-.136-1.271-.408-.596-.53-1.117-1.168-1.564-1.834-.312-.459.123-1.51.437-1.996.405-.633 1.073-.763 1.597-1.145 1.152-.846 2.129-.287 3.157.141.285.119.563.252.925.414.023.109.029.396.164.603.269.431.142.806.049 1.259zm1.064-58.546c-.266.337-.691.31-1.068.108-.111-.061-.205-.168-.303-.262-.061-.061-.096-.169-.162-.188-.33-.101-1.148-.86-1.295-1.218-.088-.219-.188-.436-.302-.695.017-.02.058-.078.103-.133.297-.379.547-1.018.904-1.083.598-.113 1.275.089 1.895.25.814.214 1.146 1.013 1.154 1.654.006.522-.545 1.084-.926 1.567zm1.123 28.763c-.191-.463.057-.824.346-1.012.817-.525 1.697-.936 2.729-.729.578.115 1.176.154 1.741.311.455.127.795.428.604 1.01-.087-.019-.17-.035-.291-.062.035.101.079.181.088.265.055.545-.203.883-.783.877-.543-.006-.707.255-.857.717-.146.444-.455.836-.666 1.199-1.018-.611-1.896-1.143-2.695-1.621-.081-.359-.103-.675-.216-.955zm1.36 7.821c-.359-.271-.623-.701-.857-1.104-.094-.162-.078-.498.031-.651.6-.847 1.97-1.208 2.943-.813.375.154.744.336 1.106.518.454.23.62.531.371 1.058-.271.578-.271 1.298-.966 1.63-.25.119-.479.282-.721.426-.874-.025-1.354-.648-1.907-1.064zm3.418 11.41c-.256-.204-.525-.414-.711-.677-1.051-1.473-.234-2.168 1.086-2.775 1.129-.521 2.16.064 3.182.458.207.082.329.377.553.649l-.57.178c-.229.874-.438 1.671-.648 2.466-.041-.033-.084-.067-.126-.104-.292.09-.577.232-.872.25-.669.039-1.34-.002-1.894-.445zm5.263 13.156c-.234-.355-.662-.514-.947-.871-.82-1.018-.965-2.086-.259-3.186.218-.34.411-.699.638-1.033.399-.598 1.039-.889 1.686-.992 1.521-.25 3.008-.186 4.324.818 1.094.83 1.416 1.956.729 3.146-.48.832-.951 1.715-1.625 2.377-.529.523-1.359.742-2.029 1.082-.946-.451-1.939-.462-2.517-1.341zm5.145 3.936c-.051-.019-.104-.036-.155-.054.319-.924.62-1.854.968-2.768.125-.326.57-.341.693-.011.271.733.979.806 1.521 1.131.408.245.853.464 1.188.788.305.292.422.729.088 1.117-.34.398-.713.768-1.057 1.163-.104.116-.137.296-.236.413-.168.197-.385.533-.553.518-.539-.053-1.197-.09-1.566-.41-.52-.45-.944-1.095-.891-1.887zm6.07-35.616c.191.201.434.366.682.498.504.27.514.543.176.994-.271.365-.418.836-.562 1.277-.104.312-.09.662-.176.98-.146.543-.734.825-1.375.736-.24-.034-.494.021-.816.04.23-.267.391-.403-.043-.562a4.153 4.153 0 01-1.322-.774c-.211-.187-.312-.586-.318-.892-.004-.475.129-.949.174-1.425.02-.183-.127-.487-.051-.545.52-.387 1.036-.874 1.635-1.041.731-.202 1.44.132 1.996.714zm-1.271-47.745c-.959.616-1.67.397-2.441-.454-.355-.396-.331-.812-.482-1.167 0-.947 1.268-1.844 2.164-1.546.48.159.926.42 1.392.629.104.049.26.035.336.109.134.134.351.347.312.461-.234.777-.567 1.508-1.281 1.968zm1.615-20.011c-.043.08-.125.215-.168.207-.72-.127-1.386.589-2.131.119-.131-.083-.351-.028-.5-.034-.076-.248-.193-.487-.224-.735-.083-.668.444-1.305 1.192-1.439.463-.083.937-.107 1.398-.18.128-.02.24-.124.369-.192.65.732.454 1.491.064 2.254zm1.301-17.797c-.863.272-1.7.438-2.504-.175-.116-.092-.314-.08-.575-.139-.085-.477-.183-1.003-.272-1.527-.1-.578.398-1.604.955-1.896a23.822 23.822 0 011.67-.774c.414-.175 1.066.08 1.163.498.153.673.224 1.364.329 2.048.025.163.038.329.078.487.177.711-.145 1.258-.844 1.478zM66.268 7.109a73.986 73.986 0 00-3.33 1.768h-.001l.003.003a73.43 73.43 0 013.328-1.771z"/></svg>