<?xml version="1.0" encoding="utf-8"?>
<!-- Generator: Adobe Illustrator 15.0.0, SVG Export Plug-In . SVG Version: 6.00 Build 0)  -->
<!DOCTYPE svg PUBLIC "-//W3C//DTD SVG 1.1//EN" "http://www.w3.org/Graphics/SVG/1.1/DTD/svg11.dtd">
<svg version="1.1" id="Layer_1" xmlns="http://www.w3.org/2000/svg" xmlns:xlink="http://www.w3.org/1999/xlink" x="0px" y="0px"
	 width="99.312px" height="148.327px" viewBox="0 -0.469 99.312 148.327" enable-background="new 0 -0.469 99.312 148.327"
	 xml:space="preserve">
<g>
	<path d="M67.439,123.053c-0.303,0.271-0.65,0.732-0.621,1.08c0.072,0.933,0.936,1.273,1.635,1.674
		c0.232,0.135,0.643,0.215,0.842,0.099c0.561-0.324,1.209-0.616,1.367-1.353c0.062-0.293,0.167-0.444,0.5-0.461
		c0.189-0.01,0.365-0.186,0.612-0.321c-0.151-0.138-0.218-0.218-0.302-0.267c-0.465-0.264-0.914-0.574-1.407-0.766
		C69.154,122.385,68.215,122.358,67.439,123.053z"/>
	<path d="M70.219,113.516c-1.067-0.35-2.154,0.058-2.799,0.996c-0.244,0.358-0.244,0.772,0.118,1.166
		c0.472,0.516,1.06,0.689,1.696,0.77c0.391,0.048,1.275-0.637,1.197-0.995c-0.131-0.608,0.24-0.916,0.619-1.303
		C70.756,113.914,70.52,113.614,70.219,113.516z"/>
	<path d="M64.84,88.31c-0.082,0.067-0.057,0.307-0.031,0.459c0.045,0.264,0.229,0.553,0.164,0.776
		c-0.146,0.519,0.236,0.582,0.513,0.776c0.215,0.151,0.396,0.347,0.601,0.515c0.338,0.277,0.682,0.551,1.021,0.828
		c0.271-0.355,0.604-0.074,0.867-0.033c0.621,0.092,1.029-0.018,1.201-0.561c0.213-0.682,0.244-1.424,0.748-1.998
		c0.039-0.045,0.008-0.195-0.041-0.26c-0.227-0.301-0.506-0.565-0.699-0.885c-0.422-0.698-1.068-0.885-1.814-0.894
		C66.254,86.916,65.582,87.692,64.84,88.31z"/>
	<path d="M71.549,32.28c0.066-0.018,0.154,0.06,0.236,0.08c0.129,0.033,0.264,0.079,0.395,0.075
		c0.428-0.019,0.809-0.208,0.867-0.633c0.084-0.609,0.275-1.372,0.006-1.819c-0.332-0.55-1.02-1.071-1.832-0.845
		c-0.614,0.174-1.303,0.343-1.762,0.741c-0.275,0.239-0.168,0.913-0.232,1.392c-0.012,0.069-0.018,0.141-0.021,0.166
		c0.229,0.167,0.425,0.302,0.611,0.448C70.122,32.12,71.213,32.361,71.549,32.28z"/>
	<path d="M72.723,11.285c0.061-0.03,0.147,0.003,0.222-0.013c0.267-0.064,0.646-0.052,0.767-0.222
		c0.336-0.479,0.971-0.892,0.557-1.65c-0.113-0.215-0.149-0.482-0.184-0.73c-0.086-0.644-0.906-1.179-1.5-0.941
		c-0.402,0.163-0.787,0.369-1.229,0.579c-0.662,0.257-0.561,1.028-0.854,1.553c-0.106,0.19,0.043,0.766,0.192,0.818
		C71.357,10.907,71.865,11.718,72.723,11.285z"/>
	<path d="M75.539,21.17c0.096,0.626,0.352,1.277,1.004,1.57c0.457,0.203,0.975,0.263,1.438,0.452
		c0.364,0.149,0.657,0.069,0.973-0.085c0.607-0.297,1.226-1.509,1.054-2.103c-0.153-0.536-0.326-1.069-0.49-1.603
		c-0.153,0.016-0.356,0.104-0.45,0.038c-0.697-0.493-1.396-0.144-2.072-0.003C76.361,19.564,75.451,20.597,75.539,21.17z"/>
	<path d="M62.866,54.917c-0.062,0.915,0.449,1.492,1.202,1.891c0.357,0.19,0.771,0.289,1.104,0.511
		c0.562,0.377,1.299,0.228,1.537-0.402c0.146-0.394,0.182-0.827,0.316-1.225c0.205-0.606,0.455-1.196,0.684-1.79
		c-1.387-0.855-3.554-0.722-4.623,0.313C62.928,54.366,62.883,54.676,62.866,54.917z"/>
	<path d="M61.666,43.077c0.584-0.234,0.881-0.534,0.754-1.088c-0.16-0.696-0.509-1.353-0.363-2.104
		c0.013-0.057-0.092-0.172-0.166-0.205c-0.348-0.145-0.723-0.231-1.051-0.409c-0.717-0.391-1.369-0.223-2.019,0.147
		c-1.021,0.458-1.211,1.467-1.539,2.374c-0.036,0.102,0.106,0.293,0.204,0.413c0.169,0.206,0.477,0.361,0.535,0.589
		c0.135,0.52,0.499,0.381,0.833,0.409c0.262,0.024,0.518,0.099,0.776,0.142c0.434,0.07,0.866,0.133,1.301,0.198
		C60.984,43.103,61.416,43.178,61.666,43.077z"/>
	<path d="M58.896,109.795c0.368-0.18,0.747-0.338,1.104-0.541c0.814-0.465,1.125-1.348,1.608-2.078
		c0.112-0.168,0.101-0.598-0.033-0.729c-0.901-0.889-2.056-1.139-3.256-0.973c-0.481,0.065-0.923,0.459-1.38,0.707
		c-0.904,0.49-1.049,1.125-0.585,2.016C56.717,108.897,58.057,109.746,58.896,109.795z"/>
	<path d="M56.041,19.446c0.135,0.41,0.157,0.9,0.41,1.211c0.253,0.313,0.727,0.447,1.102,0.662c0.981,0.555,1.901,0.434,2.812-0.194
		c0.491-0.34,0.646-0.822,0.891-1.328c0.279-0.584,0.184-0.972-0.082-1.352c0.234-0.408,0.59-0.742,0.586-1.07
		c-0.012-0.523-0.252-1.036-0.836-1.26c-0.9-0.342-1.773-0.792-2.701-1.02c-0.795-0.197-1.647-0.104-2.252,0.604
		c-0.213,0.251-0.381,0.545-0.549,0.831c-0.473,0.804-0.316,1.646,0.357,2.294C55.928,18.966,55.967,19.23,56.041,19.446z"/>
	<path d="M90.645,94.629c-0.145-0.004-0.295,0.027-0.414-0.02c-0.438-0.172-0.857-0.391-1.299-0.553
		c-0.717-0.26-1.492,0.021-1.76,0.641c-0.102,0.229-0.119,0.492-0.18,0.747c0.127,0.083,0.346,0.147,0.415,0.282
		c0.405,0.783,1.347,0.502,1.897,0.973c0.035,0.028,0.174-0.046,0.248-0.094C90.279,96.146,90.834,95.588,90.645,94.629z"/>
	<path d="M57.213,87.881c0.062-0.028,0.149,0.004,0.224-0.014c0.264-0.062,0.646-0.05,0.766-0.221
		c0.336-0.479,0.972-0.893,0.558-1.652c-0.114-0.214-0.15-0.479-0.185-0.729c-0.086-0.645-0.903-1.18-1.499-0.939
		c-0.4,0.161-0.788,0.367-1.23,0.576c-0.66,0.258-0.559,1.029-0.854,1.555c-0.106,0.188,0.042,0.764,0.195,0.816
		C55.848,87.502,56.356,88.315,57.213,87.881z"/>
	<path d="M51.512,51.964c-0.021,0.168,0.306,0.396,0.496,0.571c0.115,0.104,0.293,0.141,0.405,0.249
		c0.386,0.356,0.74,0.742,1.128,1.095c0.377,0.345,0.816,0.244,1.12-0.05c0.334-0.327,0.565-0.763,0.826-1.161
		c0.344-0.532,0.438-1.235,1.183-1.483c0.334-0.113,0.334-0.558,0.012-0.693c-0.898-0.379-1.817-0.71-2.729-1.06
		c-0.021,0.05-0.039,0.102-0.062,0.155c-0.791-0.083-1.448,0.321-1.918,0.824C51.639,50.771,51.584,51.427,51.512,51.964z"/>
	<path d="M60.825,29.179c-1.085,0.084-1.972,0.549-2.539,1.503c-0.188,0.314-0.28,0.684-0.44,1.017
		c-0.313,0.65,0.25,2.061,0.941,2.29c0.333,0.111,0.686,0.165,1.024,0.265c0.282,0.082,0.686,0.354,0.813,0.257
		c0.428-0.332,0.889-0.116,1.312-0.228c0.184-0.047,0.38-0.093,0.536-0.191c0.697-0.425,0.408-1.106,0.392-1.697
		c-0.013-0.4-0.146-0.794-0.222-1.17c0.548-0.179,0.842-0.347,0.676-1.014c-0.172-0.699-0.262-0.998-0.887-1.036
		C61.901,29.142,61.358,29.139,60.825,29.179z"/>
	<path d="M77.664,48.78c0.158-0.639,0.285-1.291,0.355-1.945c0.014-0.14-0.25-0.41-0.43-0.455c-0.59-0.146-1.199-0.228-1.805-0.316
		c-0.834-0.12-1.884,0.625-2.023,1.448c-0.027,0.165,0.002,0.407,0.107,0.515c0.68,0.692,1.418,1.299,2.543,1.356
		C76.76,49.151,77.482,49.523,77.664,48.78z"/>
	<path d="M74.074,56.28c0.288,0.027,0.53,0.083,0.768,0.064c0.893-0.071,1.022-0.305,0.705-1.149
		c-0.176-0.464-0.399-0.923-0.479-1.405c-0.062-0.378-0.227-0.442-0.537-0.485c-0.854-0.113-1.479,0.411-2.121,0.8
		c-0.29,0.175-0.562,0.583-0.604,0.915c-0.069,0.573,0.779,1.369,1.396,1.429c0.247,0.024,0.498-0.004,0.748-0.009
		c-0.019,0.089-0.035,0.18-0.053,0.27C73.954,56.565,74.014,56.42,74.074,56.28z"/>
	<path d="M82.314,57.616c0.465,0.153,1.201,0.017,1.301-0.284c0.168-0.518,0.285-1.052,0.422-1.571
		c-0.253-0.145-0.465-0.291-0.695-0.393c-0.25-0.108-0.514-0.204-0.777-0.259c-0.961-0.198-1.551-0.24-2.008,0.877
		c-0.264,0.643-0.061,1.097,0.609,1.268C81.553,57.353,81.932,57.49,82.314,57.616z"/>
	<path d="M75.305,63.971c0.334,0.612,0.836,0.482,1.348,0.37c0.305-0.066,0.622-0.095,0.906-0.208
		c0.242-0.097,0.598-0.072,0.609-0.516c0.01-0.321,0.102-0.664,0.25-0.948c0.268-0.509,0.104-1.14-0.404-1.399
		c-0.625-0.32-1.271-0.497-1.98-0.466c-0.551,0.024-1.447,0.779-1.438,1.336c0.009,0.55,0.104,1.101,0.158,1.583
		C74.98,63.821,75.236,63.845,75.305,63.971z"/>
	<path d="M82.053,95.471c-0.907-0.286-1.832-0.52-2.744-0.791c-0.887-0.267-1.615,0.091-2.32,0.556
		c-0.359,0.237-0.432,0.558-0.312,0.976c0.188,0.666,0.328,1.348,0.483,2.022c0.031,0.131-0.006,0.291,0.058,0.396
		c0.459,0.77,0.924,1.519,1.965,1.61c0.479,0.04,1.361-0.192,1.633-0.596c0.117-0.179,0.137-0.425,0.257-0.603
		c0.062-0.088,0.246-0.096,0.372-0.141c0.064,0.046,0.13,0.09,0.195,0.134c0.082-0.493,0.277-1.002,0.226-1.483
		c-0.062-0.539-0.019-0.973,0.338-1.383C82.436,95.894,82.426,95.59,82.053,95.471z"/>
	<path d="M90.551,82.473c-0.191-0.532-0.646-0.326-0.975-0.383c-0.604-0.104-1.229-0.129-1.846-0.131
		c-0.721-0.002-0.815,0.75-1.239,1.117c-0.282,0.248-0.278,0.518-0.028,0.854c0.68,0.912,1.629,1.428,2.618,1.896
		c0.048,0.023,0.11,0.012,0.114,0.012c0.367-0.037,0.703-0.012,0.984-0.123c0.31-0.123,0.701-0.248,0.543-0.789
		c-0.062-0.211,0.048-0.627,0.205-0.717c0.477-0.257,0.207-0.611,0.139-0.863C90.982,83.033,90.664,82.786,90.551,82.473z"/>
	<path d="M92.518,71.663c0.463-0.151,0.955-0.292,1.168-0.859c0.127-0.341,0.416-0.618,0.6-0.942
		c0.076-0.136,0.156-0.354,0.102-0.472c-0.469-1.007-1.291-1.467-2.387-1.47c-0.037,0-0.074,0.003-0.113-0.004
		c-1.062-0.188-1.5,0.679-2.019,1.306c-0.12,0.143,0.226,0.683,0.374,1.032c0.09,0.204,0.206,0.394,0.322,0.583
		C90.883,71.36,91.947,71.848,92.518,71.663z"/>
	<path d="M91.182,28.35c0.279-0.462-0.131-0.633-0.316-0.815c-0.232-0.228-0.633-0.279-0.889-0.493
		c-0.437-0.36-0.723,0.043-1.032,0.163c-0.575,0.216-1.128,0.507-1.659,0.817c-0.623,0.363-0.326,1.062-0.505,1.591
		c-0.12,0.357,0.021,0.588,0.405,0.752c1.047,0.442,2.127,0.409,3.217,0.314c0.053-0.004,0.102-0.046,0.107-0.049
		c0.293-0.218,0.599-0.365,0.785-0.605c0.205-0.262,0.479-0.569,0.07-0.955C91.207,28.92,91.088,28.505,91.182,28.35z"/>
	<path d="M92.823,43.859c0.079-0.311-0.075-0.689-0.159-1.028c-0.042-0.17-0.121-0.379-0.252-0.469
		c-0.605-0.424-1.232-0.821-1.838-0.792c-1.388-0.068-2.088,0.784-2.871,1.474c-0.044,0.039-0.023,0.176-0.002,0.261
		c0.053,0.199,0.182,0.394,0.174,0.588c-0.012,0.421,0.122,0.739,0.459,0.989c0.279,0.208,0.605,0.389,0.818,0.658
		c0.509,0.637,0.902,0.583,1.727,0.346c0.453-0.13,0.969-0.3,1.272-0.625C92.492,44.897,92.695,44.358,92.823,43.859z"/>
	<path d="M84.043,4.94c0.5,0.48,0.967,0.997,1.441,1.501c0.09,0.096,0.139,0.254,0.248,0.312c0.783,0.432,1.562,0.844,2.508,0.399
		c0.436-0.208,1.078-0.855,1.107-1.339c0.014-0.214-0.098-0.437-0.08-0.649c0.006-0.107,0.162-0.206,0.25-0.308
		c0.078,0.005,0.158,0.011,0.234,0.017c-0.177-0.47-0.267-1.009-0.558-1.396c-0.324-0.433-0.504-0.83-0.406-1.365
		c0.066-0.355-0.096-0.613-0.479-0.527c-0.928,0.212-1.844,0.478-2.768,0.704c-0.9,0.219-1.351,0.896-1.724,1.652
		C83.631,4.328,83.73,4.639,84.043,4.94z"/>
	<path d="M84.996,72.227c0.137-0.542,0.258-1.087,0.385-1.631c-0.139-0.065-0.359-0.091-0.408-0.196
		c-0.354-0.778-1.131-0.827-1.785-1.051c-0.609-0.208-1.916,0.225-2.131,0.764c-0.232,0.588-0.342,1.28,0.074,1.861
		c0.291,0.407,0.707,0.72,1.014,1.118c0.236,0.311,0.531,0.393,0.883,0.417C83.699,73.558,84.844,72.823,84.996,72.227z"/>
	<path d="M86.787,15.388c-0.061-0.358,0.045-0.743,0.043-1.116c0-0.156-0.045-0.383-0.15-0.458c-0.91-0.633-1.854-0.614-2.803-0.062
		c-0.033,0.017-0.063,0.04-0.1,0.052c-1.014,0.377-0.953,1.345-1.086,2.147c-0.029,0.185,0.543,0.475,0.85,0.702
		c0.176,0.129,0.375,0.234,0.568,0.339c0.541,0.29,1.705,0.177,2.104-0.272C86.536,16.357,86.891,15.986,86.787,15.388z"/>
	<path d="M76.573,36.971c-0.19,0.387-0.091,0.698,0.224,0.999c0.5,0.48,0.965,0.997,1.439,1.502
		c0.092,0.097,0.141,0.252,0.248,0.312c0.785,0.432,1.562,0.844,2.508,0.396c0.436-0.206,1.079-0.853,1.107-1.337
		c0.014-0.213-0.094-0.435-0.08-0.649c0.008-0.107,0.162-0.206,0.25-0.307c0.078,0.005,0.156,0.011,0.236,0.017
		c-0.18-0.47-0.269-1.009-0.56-1.396c-0.324-0.436-0.505-0.831-0.403-1.365c0.062-0.356-0.099-0.612-0.479-0.527
		c-0.931,0.211-1.845,0.479-2.771,0.704C77.396,35.539,76.946,36.214,76.573,36.971z"/>
	<path d="M55.543,77.114c0.131-0.542,0.159-1.11,0.194-1.671c0.013-0.207-0.035-0.54-0.164-0.609
		c-0.748-0.404-1.442-1.011-2.377-0.886c-0.34,0.044-0.685,0.169-0.987,0.33c-0.297,0.154-0.615,0.354-0.796,0.62
		c-0.358,0.538-0.577,1.029-0.176,1.783c0.394,0.734,1.076,1.094,1.522,1.715c0.106,0.152,0.438,0.146,0.58,0.188
		C54.549,78.481,55.235,78.389,55.543,77.114z"/>
	<path d="M78.232,108.168c0.15-0.462,0.316-0.723,0.857-0.717c0.582,0.006,0.84-0.332,0.785-0.877
		c-0.011-0.084-0.055-0.164-0.09-0.265c0.121,0.026,0.204,0.043,0.291,0.062c0.191-0.582-0.146-0.883-0.604-1.01
		c-0.564-0.154-1.162-0.195-1.74-0.311c-1.032-0.207-1.912,0.201-2.729,0.729c-0.289,0.188-0.537,0.549-0.348,1.012
		c0.113,0.279,0.137,0.596,0.213,0.955c0.799,0.479,1.682,1.01,2.695,1.621C77.777,109.004,78.088,108.613,78.232,108.168z"/>
	<path d="M90.867,137.062c0.689-1.19,0.365-2.316-0.727-3.146c-1.318-1.005-2.805-1.068-4.326-0.818
		c-0.645,0.104-1.284,0.395-1.686,0.992c-0.227,0.334-0.418,0.692-0.638,1.032c-0.706,1.101-0.562,2.169,0.259,3.187
		c0.285,0.357,0.713,0.515,0.947,0.871c0.578,0.879,1.57,0.89,2.514,1.342c0.67-0.34,1.5-0.559,2.029-1.082
		C89.916,138.776,90.385,137.894,90.867,137.062z"/>
	<path d="M82.324,126.321c0.21-0.795,0.42-1.592,0.65-2.466c0.086-0.026,0.285-0.09,0.57-0.178
		c-0.226-0.272-0.348-0.567-0.555-0.649c-1.021-0.394-2.053-0.979-3.184-0.458c-1.318,0.607-2.137,1.305-1.086,2.775
		c0.188,0.263,0.455,0.473,0.711,0.677c0.557,0.442,1.228,0.483,1.893,0.444c0.295-0.018,0.58-0.16,0.872-0.25
		C82.24,126.252,82.283,126.287,82.324,126.321z"/>
	<path d="M79.614,113.615c0.249-0.525,0.083-0.827-0.371-1.059c-0.364-0.182-0.733-0.361-1.108-0.516
		c-0.974-0.396-2.344-0.033-2.941,0.812c-0.109,0.154-0.125,0.488-0.031,0.65c0.234,0.404,0.498,0.834,0.857,1.105
		c0.554,0.416,1.031,1.039,1.91,1.061c0.238-0.145,0.471-0.308,0.721-0.427C79.342,114.912,79.342,114.194,79.614,113.615z"/>
	<path d="M72.252,134.713c-0.357-0.162-0.638-0.295-0.923-0.414c-1.03-0.428-2.005-0.985-3.157-0.141
		c-0.521,0.383-1.189,0.512-1.597,1.145c-0.312,0.486-0.747,1.537-0.435,1.996c0.447,0.666,0.969,1.304,1.562,1.834
		c0.307,0.272,0.832,0.375,1.271,0.408c0.828,0.062,1.771,0.127,2.253-0.695c0.43-0.737,1.055-1.37,1.241-2.271
		c0.095-0.453,0.222-0.828-0.056-1.26C72.283,135.11,72.277,134.823,72.252,134.713z"/>
	<path d="M66.123,101.627c0.238,0.168,0.418,0.34,0.631,0.441c0.805,0.389,1.035,0.254,1.188-0.635
		c0.086-0.488,0.123-0.999,0.297-1.455c0.14-0.355,0.028-0.494-0.22-0.688c-0.68-0.531-1.479-0.394-2.234-0.382
		c-0.337,0.004-0.779,0.218-0.98,0.484c-0.351,0.458-0.021,1.575,0.479,1.936c0.201,0.146,0.435,0.248,0.649,0.37
		c-0.062,0.068-0.121,0.139-0.182,0.206C65.877,101.812,66.002,101.719,66.123,101.627z"/>
	<path d="M73.307,74.807c-0.619-0.161-1.299-0.363-1.896-0.25c-0.357,0.066-0.607,0.703-0.904,1.083
		c-0.043,0.055-0.086,0.113-0.103,0.133c0.114,0.261,0.214,0.477,0.303,0.695c0.146,0.357,0.964,1.117,1.296,1.218
		c0.064,0.02,0.102,0.128,0.16,0.188c0.1,0.094,0.189,0.201,0.305,0.262c0.377,0.199,0.803,0.229,1.066-0.108
		c0.382-0.481,0.934-1.044,0.926-1.565C74.453,75.82,74.121,75.022,73.307,74.807z"/>
	<path d="M95.829,37.68c-0.464,0.073-0.937,0.097-1.399,0.18c-0.748,0.134-1.274,0.771-1.191,1.439
		c0.027,0.248,0.146,0.487,0.225,0.735c0.148,0.006,0.368-0.049,0.5,0.034c0.746,0.47,1.41-0.247,2.131-0.119
		c0.043,0.008,0.125-0.127,0.168-0.207c0.391-0.764,0.586-1.522-0.062-2.255C96.069,37.556,95.957,37.66,95.829,37.68z"/>
	<path d="M98.324,19.981c-0.105-0.684-0.176-1.375-0.329-2.048c-0.097-0.418-0.749-0.673-1.163-0.498
		c-0.562,0.239-1.125,0.492-1.67,0.774c-0.557,0.291-1.055,1.318-0.956,1.896c0.093,0.524,0.188,1.05,0.273,1.527
		c0.261,0.059,0.459,0.047,0.575,0.139c0.804,0.613,1.641,0.447,2.504,0.175c0.697-0.22,1.021-0.767,0.844-1.477
		C98.362,20.311,98.35,20.145,98.324,19.981z"/>
	<path d="M98.697,2.099c-0.045,0.119-0.165,0.201-0.27,0.296c-0.068,0.062-0.17,0.105-0.188,0.175
		c-0.043,0.181-0.006,0.38-0.058,0.558c-0.154,0.544-0.327,1.084-0.479,1.565c0.076,0.273,0.086,0.477,0.185,0.622
		c0.389,0.575,0.721,1.149,1.156,1.686c0.047,0.056,0.152,0.097,0.152,0.131V1.7C99.195,1.692,98.824,1.756,98.697,2.099z"/>
	<path d="M92.854,144.896c0.102-0.117,0.135-0.296,0.236-0.413c0.344-0.396,0.717-0.766,1.057-1.163
		c0.334-0.39,0.217-0.825-0.088-1.117c-0.336-0.323-0.779-0.543-1.188-0.788c-0.543-0.324-1.248-0.396-1.521-1.131
		c-0.123-0.33-0.568-0.314-0.693,0.012c-0.348,0.912-0.648,1.842-0.968,2.767c0.052,0.018,0.104,0.034,0.155,0.054
		c-0.056,0.793,0.371,1.438,0.891,1.889c0.369,0.32,1.027,0.357,1.566,0.41C92.469,145.428,92.686,145.092,92.854,144.896z"/>
	<path d="M95.272,57.215c-0.464-0.209-0.909-0.47-1.39-0.629c-0.898-0.298-2.166,0.6-2.166,1.546
		c0.151,0.355,0.127,0.771,0.482,1.167c0.771,0.851,1.48,1.07,2.439,0.454c0.717-0.459,1.05-1.192,1.279-1.968
		c0.035-0.114-0.18-0.327-0.312-0.461C95.532,57.25,95.379,57.263,95.272,57.215z"/>
	<path d="M93.912,106.788c-0.599,0.167-1.115,0.654-1.635,1.041c-0.076,0.058,0.07,0.362,0.051,0.546
		c-0.045,0.475-0.178,0.949-0.174,1.424c0.006,0.306,0.107,0.705,0.318,0.892c0.377,0.334,0.847,0.603,1.322,0.774
		c0.434,0.157,0.273,0.295,0.043,0.562c0.322-0.021,0.574-0.074,0.816-0.04c0.641,0.089,1.229-0.193,1.375-0.736
		c0.086-0.318,0.068-0.668,0.175-0.98c0.146-0.441,0.292-0.912,0.563-1.277c0.338-0.451,0.328-0.725-0.176-0.994
		c-0.248-0.132-0.488-0.297-0.682-0.498C95.358,106.916,94.649,106.582,93.912,106.788z"/>
	<path d="M47.37,82.288c-0.899-0.343-1.772-0.792-2.699-1.021c-0.798-0.197-1.649-0.105-2.254,0.604
		c-0.212,0.251-0.381,0.545-0.549,0.83c-0.471,0.807-0.315,1.646,0.359,2.295c0.15,0.143,0.19,0.407,0.261,0.623
		c0.136,0.408,0.16,0.9,0.411,1.211c0.253,0.312,0.726,0.448,1.103,0.661c0.981,0.556,1.901,0.435,2.813-0.194
		c0.49-0.338,0.646-0.822,0.887-1.326c0.281-0.584,0.185-0.971-0.08-1.354c0.234-0.406,0.588-0.742,0.583-1.07
		C48.196,83.026,47.954,82.512,47.37,82.288z"/>
	<path d="M33.78,72.294c0.194-0.43,0.34-0.886,0.457-1.343c0.123-0.486-0.401-1.231-0.9-1.31c-0.532-0.084-1.07-0.139-1.442-0.186
		c-1.001,0.016-1.928-0.176-2.256,0.94c-0.087,0.296-0.207,0.652-0.117,0.911c0.086,0.251,0.411,0.436,0.661,0.608
		c0.471,0.325,0.971,0.609,1.441,0.932C32.428,73.399,33.377,73.179,33.78,72.294z"/>
	<path d="M31.182,56.959c0.155,0.103,0.484-0.04,0.621,0.069c0.632,0.498,1.12,0.089,1.48-0.292
		c0.715-0.752,1.338-1.595,1.981-2.415c0.348-0.441,0.369-0.933,0.323-1.5c-0.044-0.53-0.061-1.081-0.399-1.45
		c-0.373-0.408-0.878-0.734-1.385-0.977c-1.055-0.506-2.211-0.287-3.328-0.339c-0.064-0.005-0.147,0.035-0.196,0.082
		c-0.812,0.759-1.759,1.446-1.491,2.8c-0.051,0.003-0.103,0.005-0.154,0.009c0.17,0.57,0.175,1.325,0.552,1.667
		c0.511,0.46,0.729,1.046,1.114,1.547C30.539,56.471,30.854,56.74,31.182,56.959z"/>
	<path d="M46.069,102.276c-0.72-0.378-1.459-0.733-2.225-1c-0.452-0.158-0.984-0.228-1.456-0.161
		c-1.226,0.166-2.789,1.823-2.753,3.055c0.028,0.938,0.22,1.94,0.616,2.78c0.432,0.913,1.278,1.572,2.232,2.004
		c0.856,0.39,2.062,0.115,2.66-0.598c0.278-0.332,0.526-0.69,0.825-1.088c0.066,0.155,0.103,0.245,0.214,0.504
		c0.054-0.39,0.094-0.617,0.114-0.851c0.075-0.846,0.758-1.537,0.59-2.463C46.832,104.147,46.376,102.438,46.069,102.276z"/>
	<path d="M35.926,90.785c-1.166-0.261-2.244-0.322-3.328,0.225c-0.555,0.281-0.875,0.977-0.715,1.582
		c0.049,0.181,0.015,0.386,0.017,0.496c0.125,0.291,0.183,0.553,0.332,0.738c0.318,0.396,0.876,0.35,1.252,0.561
		c0.705,0.396,1.286,0.775,2.182,0.517c0.543-0.158,1.098-0.369,1.218-0.974c0.104-0.524,0.206-1.051,0.311-1.573
		c0.015-0.07,0.077-0.149,0.057-0.199C36.995,91.525,36.766,90.975,35.926,90.785z"/>
	<path d="M65.945,71.743c0.204-0.688,0.277-0.994-0.24-1.341c-0.445-0.298-0.912-0.574-1.395-0.809
		c-0.977-0.475-1.977-0.521-2.948,0.014c-0.319,0.178-0.588,0.45-0.896,0.656c-0.602,0.403-0.826,1.903-0.345,2.452
		c0.232,0.264,0.509,0.49,0.75,0.746c0.203,0.214,0.414,0.654,0.573,0.633c0.537-0.069,0.827,0.35,1.249,0.468
		c0.185,0.051,0.373,0.11,0.562,0.105c0.814-0.013,0.912-0.748,1.191-1.267c0.189-0.351,0.275-0.76,0.4-1.122
		C65.413,72.4,65.75,72.404,65.945,71.743z"/>
	<path d="M42.195,71.914c-0.662,0.258-0.559,1.028-0.854,1.554c-0.108,0.189,0.041,0.765,0.194,0.818
		c0.663,0.229,1.172,1.041,2.028,0.607c0.061-0.03,0.149,0.002,0.222-0.015c0.265-0.063,0.647-0.051,0.767-0.222
		c0.335-0.478,0.97-0.891,0.555-1.651c-0.114-0.214-0.149-0.48-0.182-0.73c-0.086-0.643-0.907-1.176-1.5-0.938
		C43.023,71.499,42.638,71.704,42.195,71.914z"/>
	<path d="M42.432,47.401c0.309,0.277,0.706,0.563,1.095,0.614c0.402,0.055,0.909-0.068,1.247-0.293
		c0.589-0.391,1.174-0.856,1.586-1.418c0.253-0.347,0.312-0.955,0.23-1.403c-0.194-1.054-1.479-1.952-2.663-2.024
		c-0.274,0.027-0.556,0.031-0.825,0.086c-0.9,0.186-1.604,0.609-1.962,1.526c-0.151,0.389-0.43,0.569-0.069,1.129
		C41.482,46.258,41.872,46.897,42.432,47.401z"/>
	<path d="M51.217,93.504c-0.465,0.006-0.963,0.267-1.378,0.525c-0.782,0.488-0.833,1.676-0.157,2.092
		c0.249,0.154,0.497,0.369,0.651,0.617c0.506,0.809,1.648,1.062,2.381,0.486c0.094-0.072,0.168-0.18,0.223-0.287
		c0.253-0.52,0.492-1.049,0.752-1.564c0.023-0.048,0.158-0.041,0.391-0.091c-0.568-0.501-0.992-0.958-1.497-1.288
		C52.178,93.736,51.674,93.494,51.217,93.504z"/>
	<path d="M58.609,123.948c0.816-0.467,1.126-1.351,1.609-2.079c0.112-0.169,0.099-0.597-0.033-0.729
		c-0.901-0.889-2.057-1.137-3.258-0.973c-0.482,0.066-0.92,0.459-1.379,0.707c-0.902,0.49-1.047,1.127-0.586,2.016
		c0.361,0.699,1.702,1.549,2.541,1.598C57.875,124.312,58.254,124.151,58.609,123.948z"/>
	<path d="M59.594,128.69c-0.482,0.065-0.922,0.461-1.381,0.708c-0.902,0.49-1.048,1.126-0.586,2.015
		c0.361,0.699,1.702,1.55,2.541,1.599c0.368-0.178,0.747-0.338,1.104-0.541c0.816-0.465,1.126-1.35,1.609-2.077
		c0.112-0.171,0.099-0.599-0.035-0.729C61.948,128.774,60.795,128.525,59.594,128.69z"/>
	<path d="M50.672,36.828c0.062-0.032,0.149,0.002,0.224-0.015c0.264-0.063,0.646-0.051,0.766-0.222
		c0.336-0.478,0.972-0.892,0.558-1.651c-0.114-0.215-0.15-0.482-0.185-0.729c-0.086-0.644-0.905-1.178-1.499-0.94
		c-0.402,0.162-0.788,0.368-1.231,0.579c-0.662,0.257-0.558,1.027-0.854,1.553c-0.107,0.189,0.042,0.765,0.194,0.817
		C49.306,36.45,49.814,37.26,50.672,36.828z"/>
	<path d="M50.35,63.968c0.046-0.516-0.256-0.914-0.49-1.366c0.499-0.312,0.732,0.178,1.156,0.349
		c0.218-0.303,0.283-0.553-0.073-0.886c-1.098-1.022-2.464-1.271-3.862-1.358c-1.289-0.082-1.973,0.808-2.433,1.847
		c-0.205,0.459-0.41,1.094-0.249,1.502c0.255,0.642,0.821,1.161,1.255,1.73c0.012,0.013,0.033,0.018,0.051,0.024
		c0.322,0.087,0.642,0.208,0.97,0.253c0.564,0.076,1.155,0.219,1.698,0.122c0.648-0.115,1.257-0.452,1.831-0.672
		C50.26,64.947,50.312,64.458,50.35,63.968z"/>
	<path d="M50.896,110.11c-1.418-0.136-2.199,0.612-2.505,1.869c0.532,0.772,1.061,1.555,1.61,2.319
		c0.104,0.148,0.271,0.289,0.439,0.351c0.408,0.151,1.451-0.295,1.682-0.688c0.326-0.565,0.648-1.134,0.971-1.697
		c0.121,0.05,0.236,0.1,0.342,0.146c0.087-0.166,0.168-0.323,0.238-0.462C53.131,110.742,52.133,110.231,50.896,110.11z"/>
	<path d="M68.623,5.992c0.982-0.447,1.977-0.874,2.979-1.278C70.598,5.118,69.605,5.546,68.623,5.992z"/>
	<path d="M39.209,30.031c0.741-1.02,1.504-2.021,2.294-3C40.713,28.011,39.949,29.012,39.209,30.031z"/>
	<path d="M36.931,33.361c0.719-1.114,1.466-2.208,2.242-3.28C38.397,31.153,37.651,32.247,36.931,33.361z"/>
	<path d="M33.787,38.683c0.308-0.575,0.629-1.14,0.95-1.706C34.417,37.543,34.093,38.108,33.787,38.683z"/>
	<path d="M34.781,36.901c0.658-1.155,1.347-2.289,2.062-3.404C36.127,34.612,35.439,35.746,34.781,36.901z"/>
	<path d="M25.157,70.174c0.01-0.226,0.02-0.452,0.031-0.677C25.176,69.722,25.167,69.948,25.157,70.174z"/>
	<path d="M66.289,7.098c0.59-0.293,1.186-0.578,1.783-0.856C67.473,6.521,66.879,6.804,66.289,7.098z"/>
	<path d="M97.385,49.965c-0.891,0.735-0.744,1.213-0.271,2.288c0.265,0.603,0.896,0.741,1.248,1.208
		c0.11,0.148,0.44,0.194,0.661,0.136c0.074-0.021,0.17-0.048,0.17-0.072v-3.812C98.195,49.491,97.945,49.503,97.385,49.965z"/>
	<path d="M56.159,13.197c0.978-0.699,1.972-1.376,2.983-2.028C58.131,11.822,57.137,12.499,56.159,13.197z"/>
	<path d="M59.454,10.969c1.026-0.654,2.069-1.285,3.13-1.889C61.523,9.686,60.48,10.315,59.454,10.969z"/>
	<path d="M26.493,59.115c0.064-0.322,0.13-0.643,0.197-0.963C26.623,58.472,26.557,58.793,26.493,59.115z"/>
	<path d="M72.545,4.342c0.823-0.318,1.653-0.622,2.49-0.912C74.198,3.72,73.368,4.024,72.545,4.342z"/>
	<path d="M25.873,62.709c0.028-0.189,0.051-0.38,0.08-0.569C25.924,62.329,25.901,62.521,25.873,62.709z"/>
	<path d="M27.351,55.287c0.078-0.308,0.166-0.612,0.248-0.919C27.517,54.675,27.429,54.979,27.351,55.287z"/>
	<path d="M25.437,66.237c0.021-0.219,0.048-0.436,0.071-0.653C25.484,65.801,25.458,66.019,25.437,66.237z"/>
	<path d="M28.199,52.255c0.113-0.377,0.224-0.756,0.343-1.131C28.423,51.5,28.312,51.878,28.199,52.255z"/>
	<path d="M30.53,45.648c0.268-0.657,0.544-1.309,0.829-1.956C31.074,44.339,30.798,44.99,30.53,45.648z"/>
	<path d="M32.02,42.231c0.222-0.474,0.446-0.948,0.676-1.416C32.465,41.283,32.241,41.757,32.02,42.231z"/>
	<path d="M29.389,48.619c0.156-0.437,0.319-0.87,0.483-1.303C29.709,47.75,29.546,48.182,29.389,48.619z"/>
	<path d="M52.883,15.679c0.98-0.788,1.983-1.551,3.006-2.289C54.866,14.129,53.863,14.891,52.883,15.679z"/>
	<path d="M76.358,2.983c0.496-0.162,0.994-0.321,1.494-0.473C77.352,2.661,76.855,2.821,76.358,2.983z"/>
	<path d="M97.777,130.346c-0.088-0.149-0.293-0.369-0.393-0.346c-0.285,0.068-0.707,0.187-0.789,0.394
		c-0.326,0.848-0.545,1.737-0.775,2.522c0.188,0.615,0.275,1.094,0.48,1.516c0.229,0.471,0.471,0.979,1.054,1.035
		c0.083,0.009,0.174,0.008,0.271-0.004c0.112-0.016,0.238-0.041,0.357-0.051c0.117-0.01,0.229-0.004,0.312,0.045
		c0.105,0.062,0.201,0.086,0.286,0.082c0.212-0.008,0.354-0.18,0.431-0.313c0.017-0.026-0.033-0.052-0.023-0.074
		c0.082-0.187,0.207-0.366,0.207-0.549v-3.64c0-0.045-0.158-0.092-0.254-0.154C98.562,130.559,98.061,130.844,97.777,130.346z"/>
	<path d="M33.471,107.74c0.104-0.021,0.184-0.252,0.239-0.4c0.071-0.188,0.049-0.455,0.174-0.571
		c0.293-0.272,0.037-0.47-0.039-0.683c-0.074-0.209-0.203-0.399-0.308-0.6c0.045-0.041,0.09-0.083,0.135-0.123
		c-0.324-0.107-0.644-0.277-0.974-0.307c-0.219-0.018-0.438-0.023-0.657-0.034c-0.55-1.177-1.067-2.369-1.557-3.577
		c3.112,7.688,7.473,14.73,12.834,20.889c-3.853-4.427-7.189-9.312-9.919-14.566C33.425,107.76,33.445,107.746,33.471,107.74z
		 M32.072,105.09c0.395,0.844,0.811,1.674,1.236,2.498C32.883,106.764,32.466,105.934,32.072,105.09z"/>
	<path d="M27.081,88.616c0.3-0.634,0.06-1.161-0.603-1.356c-0.048-0.016-0.095-0.027-0.143-0.045
		c-0.202-1.094-0.382-2.194-0.538-3.305c0.158,1.137,0.344,2.264,0.553,3.385c0.121,0.652,0.246,1.307,0.384,1.955
		c0.01,0.041,0.021,0.082,0.029,0.125c-0.006-0.027-0.014-0.056-0.02-0.084C26.855,89.074,26.971,88.848,27.081,88.616z"/>
	<path d="M50.805,128.617c-0.264-0.535-0.777-1.038-1.309-1.328c-0.816-0.441-1.428-0.672-2.051-0.58
		c-0.67-0.654-1.324-1.322-1.969-2c7.546,7.946,16.823,14.223,27.239,18.221c-8.016-3.084-15.363-7.512-21.766-13.015
		C51.031,129.484,50.981,128.975,50.805,128.617z M48.053,127.286c0.854,0.813,1.726,1.611,2.619,2.386
		C49.779,128.898,48.907,128.102,48.053,127.286z"/>
	<path d="M97.646,78.619c-0.188,0.5-0.34,1.002-0.508,1.457c0.197,0.184,0.39,0.271,0.445,0.412c0.25,0.605,0.477,0.936,1.021,1.148
		c0.184,0.07,0.59,0.129,0.59,0.179v-4.334C98.195,77.553,97.834,78.121,97.646,78.619z"/>
	<path d="M98.43,120.789c-0.043,0.137-0.029,0.316-0.019,0.484c0.015,0.168,0.013,0.324,0.097,0.412
		c0.213,0.223,0.688,0.41,0.688,0.587v-2.351C99.195,119.953,98.568,120.355,98.43,120.789z"/>
	<path d="M97.266,90.021c-0.479,0.03-0.943,0.545-1.33,0.94c-0.16,0.166-0.282,0.599,0.098,0.887c0.09,0.068,0.137,0.222,0.16,0.369
		c0.008,0.049,0.018,0.097,0.023,0.142c0.029,0.209,0.004,0.313,0.328,0.347c0.361,0.036,0.698,0.354,1.051,0.536
		c0.238,0.124,0.424,0.231,0.668,0.351c0.246-0.03,0.932-0.237,0.932-0.492v-2.608C98.195,90.002,97.943,89.979,97.266,90.021z"/>
	<path d="M34.716,37.185c0.01-0.089,0.032-0.178,0.057-0.267c-0.012,0.02-0.023,0.04-0.035,0.06c-0.321,0.566-0.643,1.13-0.95,1.706
		c-0.004,0.008-0.008,0.017-0.013,0.024C34.277,38.375,34.64,37.907,34.716,37.185z"/>
	<path d="M87.459,0.301c0.266-0.043,0.528-0.09,0.795-0.13C87.987,0.211,87.723,0.258,87.459,0.301z"/>
	<path d="M83.9,0.96c0.361-0.077,0.725-0.147,1.088-0.218C84.625,0.813,84.262,0.884,83.9,0.96z"/>
	<path d="M91.315-0.218c0.257-0.027,0.514-0.055,0.771-0.08C91.829-0.272,91.572-0.245,91.315-0.218z"/>
	<path d="M80.211,1.841c0.424-0.113,0.852-0.219,1.276-0.324C81.061,1.622,80.633,1.729,80.211,1.841z"/>
	<path d="M62.937,8.877c-0.04,0.022-0.079,0.046-0.118,0.068c0.04-0.022,0.081-0.042,0.121-0.064
		C62.938,8.88,62.938,8.878,62.937,8.877z"/>
	<path d="M52.797,15.746c-4.129,3.325-7.896,7.08-11.229,11.202C44.901,22.826,48.667,19.07,52.797,15.746z"/>
	<path d="M62.939,8.881c0.15,0.146,0.295,0.299,0.42,0.473c0.109,0.153,0.439,0.146,0.582,0.188
		c1.205-0.101,1.893-0.195,2.201-1.469c0.076-0.318,0.115-0.645,0.144-0.973c-1.134,0.564-2.249,1.158-3.349,1.777
		c1.094-0.617,2.203-1.207,3.33-1.768C65.141,7.67,64.033,8.264,62.939,8.881z"/>
	<path d="M42.848,31.308c0.28-0.256,0.361-0.715,0.604-1.03c0.278-0.363,0.032-0.941,0.548-1.192
		c0.155-0.074,0.389-0.265,0.374-0.366c-0.051-0.29-0.136-0.721-0.339-0.814c-0.82-0.386-1.691-0.667-2.461-0.954
		c-0.004,0.001-0.008,0.002-0.013,0.003c-0.021,0.024-0.039,0.05-0.059,0.075c-0.79,0.98-1.553,1.981-2.294,3
		c-0.007,0.009-0.013,0.019-0.02,0.027c0.902,0.495,1.741,1.126,2.752,1.386C42.223,31.516,42.658,31.483,42.848,31.308z"/>
	<path d="M95.281-0.54c0.193-0.011,0.391-0.017,0.584-0.026C95.672-0.557,95.475-0.551,95.281-0.54z"/>
	<path d="M28.826,96.926c-0.302-0.916-0.586-1.84-0.854-2.77C28.24,95.088,28.524,96.01,28.826,96.926z"/>
	<path d="M30.193,100.707c-0.373-0.951-0.728-1.91-1.062-2.881C29.466,98.797,29.82,99.756,30.193,100.707z"/>
	<path d="M92.104,147.504c-0.521-0.052-1.036-0.117-1.553-0.18C91.067,147.387,91.584,147.452,92.104,147.504z"/>
	<polygon points="99.32,147.858 99.32,147.858 99.312,147.858 	"/>
	<path d="M95.682,147.766c-0.426-0.021-0.848-0.06-1.271-0.088C94.836,147.706,95.256,147.745,95.682,147.766z"/>
	<path d="M88.588,147.075c-0.567-0.083-1.133-0.178-1.697-0.272C87.455,146.897,88.018,146.992,88.588,147.075z"/>
	<path d="M45.313,124.534c-0.637-0.674-1.26-1.36-1.871-2.06C44.053,123.174,44.676,123.861,45.313,124.534z"/>
	<path d="M78.549,144.893c-0.692-0.202-1.387-0.408-2.069-0.631C77.164,144.484,77.855,144.69,78.549,144.893z"/>
	<path d="M81.791,145.758c-0.644-0.156-1.285-0.318-1.924-0.492C80.506,145.439,81.146,145.603,81.791,145.758z"/>
	<path d="M75.471,143.922c-0.771-0.263-1.543-0.526-2.303-0.813C73.93,143.395,74.699,143.659,75.471,143.922z"/>
	<path d="M99.32,32.304v-1.77c-0.003,0.325-0.288,0.742-0.377,1.098C98.895,31.829,99.317,32.178,99.32,32.304z"/>
	<path d="M26.734,89.25c-0.138-0.648-0.263-1.303-0.384-1.955C26.471,87.948,26.595,88.603,26.734,89.25z"/>
	<path d="M25.78,83.773c-0.146-1.051-0.271-2.107-0.372-3.17C25.507,81.668,25.636,82.723,25.78,83.773z"/>
	<path d="M27.683,93.139c-0.158-0.582-0.312-1.166-0.456-1.752C27.372,91.973,27.525,92.557,27.683,93.139z"/>
	<path d="M25.335,79.639c-0.067-0.812-0.134-1.627-0.174-2.446C25.2,78.014,25.27,78.825,25.335,79.639z"/>
	<path d="M90.926,124.137c0.104,0.07,0.289,0.078,0.418,0.041c0.455-0.137,1.322-1.305,1.311-1.776
		c-0.003-0.147-0.1-0.369-0.21-0.422c-0.558-0.261-1.133-0.474-1.703-0.701c-0.006,0.053-0.015,0.104-0.021,0.158
		c-0.77-0.24-1.062,0.266-1.233,0.813c-0.086,0.271-0.074,0.721,0.092,0.896C89.959,123.543,90.459,123.832,90.926,124.137z"/>
	<path d="M85.146,146.49c-0.604-0.117-1.209-0.244-1.81-0.376C83.938,146.246,84.539,146.373,85.146,146.49z"/>
	<path fill="none" d="M48.053,127.286c0.854,0.813,1.726,1.611,2.619,2.386"/>
	<path fill="none" d="M33.308,107.588c-0.426-0.824-0.842-1.654-1.236-2.498"/>
	<path fill="none" d="M26.734,89.25c-0.138-0.648-0.263-1.303-0.384-1.955"/>
	<line fill="none" x1="26.321" y1="89.635" x2="26.321" y2="89.635"/>
	<line fill="none" x1="26.347" y1="87.282" x2="26.35" y2="87.295"/>
	<path fill="none" d="M34.747,36.96c-0.003,0.006-0.006,0.012-0.01,0.017"/>
	<line fill="none" x1="33.779" y1="38.697" x2="33.787" y2="38.683"/>
	<path fill="none" d="M33.787,38.683c0.308-0.575,0.629-1.14,0.95-1.706"/>
	<path fill="none" d="M41.526,27c-0.009,0.01-0.016,0.021-0.023,0.031"/>
	<line fill="none" x1="39.201" y1="30.042" x2="39.209" y2="30.031"/>
	<path fill="none" d="M39.209,30.031c0.741-1.02,1.504-2.021,2.294-3"/>
	<line fill="none" x1="99.321" y1="30.635" x2="99.321" y2="30.635"/>
	<line fill="none" x1="99.321" y1="32.635" x2="99.321" y2="32.635"/>
	<path fill="#EDC9C9" d="M99.106,6.753c-0.437-0.537-0.83-0.987-1.218-1.562c-0.099-0.145-0.105-0.286-0.183-0.559
		c0.151-0.48,0.328-0.99,0.483-1.534c0.051-0.178,0.021-0.361,0.062-0.542c0.02-0.07,0.135-0.105,0.203-0.167
		c0.104-0.095,0.258-0.207,0.301-0.325c0.129-0.345,0.496-0.429,0.5-0.429h-0.062v-2h0.062c-1.16,0-2.277-0.109-3.424-0.057
		c-0.195,0.009-0.375-0.057-0.568-0.046c-1.07,0.058-2.129,0.104-3.188,0.207c-0.258,0.025-0.511,0.034-0.768,0.062
		c-1.026,0.111-2.047,0.228-3.062,0.38c-0.267,0.04-0.528,0.083-0.795,0.125c-0.827,0.133-1.649,0.278-2.47,0.439
		c-0.363,0.071-0.727,0.14-1.087,0.217c-0.808,0.171-1.61,0.358-2.41,0.556c-0.427,0.105-0.854,0.211-1.276,0.324
		c-0.791,0.21-1.578,0.433-2.357,0.668c-0.5,0.151-0.997,0.311-1.493,0.473c-0.443,0.144-0.886,0.295-1.323,0.448
		c-0.837,0.29-1.667,0.593-2.488,0.912c-0.315,0.123-0.632,0.246-0.942,0.372C70.6,5.12,69.607,5.546,68.625,5.993
		c-0.183,0.083-0.367,0.164-0.551,0.249c-0.6,0.278-1.193,0.563-1.783,0.856c-0.001,0-0.002,0.001-0.003,0.001l0,0
		c-0.028,0.329-0.067,0.655-0.144,0.973c-0.309,1.274-0.996,1.368-2.201,1.469c-0.143-0.042-0.473-0.035-0.582-0.188
		c-0.125-0.174-0.27-0.327-0.42-0.473c-0.04,0.022-0.081,0.042-0.121,0.064c-0.079,0.045-0.156,0.09-0.234,0.135
		c-1.061,0.604-2.104,1.235-3.13,1.889c-0.104,0.066-0.206,0.133-0.311,0.2c-1.013,0.652-2.007,1.329-2.984,2.028
		c-0.09,0.064-0.182,0.128-0.271,0.193c-1.021,0.738-2.024,1.5-3.008,2.289c-0.027,0.023-0.059,0.045-0.086,0.067
		c-4.128,3.324-7.895,7.08-11.229,11.202c-0.002,0.003-0.005,0.005-0.007,0.008c0.001,0,0.001,0,0.001,0
		c0.005-0.001,0.009-0.001,0.013-0.003c0.77,0.287,1.641,0.568,2.461,0.954c0.203,0.093,0.288,0.524,0.339,0.814
		c0.015,0.101-0.219,0.292-0.374,0.366c-0.516,0.25-0.27,0.829-0.548,1.192c-0.242,0.314-0.323,0.773-0.604,1.03
		c-0.19,0.175-0.625,0.208-0.907,0.136c-1.011-0.26-1.85-0.891-2.752-1.386l0,0c-0.006,0.007-0.01,0.015-0.016,0.022
		c-0.776,1.072-1.523,2.167-2.242,3.28c-0.029,0.045-0.059,0.091-0.088,0.136c-0.716,1.115-1.693,2.249-2.351,3.404
		c-0.003,0.006-0.297,0.011-0.297,0.016v0.001c0,0.088,0.242,0.141,0.232,0.23c-0.075,0.724-0.263,1.488-0.765,1.488h0.056
		c-0.371,1-0.701,1.435-1.051,2.144c-0.23,0.469-0.439,0.96-0.661,1.435c-0.227,0.483-0.438,0.98-0.653,1.469
		c-0.285,0.647-0.559,1.304-0.825,1.961c-0.226,0.553-0.444,1.11-0.656,1.67c-0.164,0.433-0.326,0.868-0.482,1.305
		c-0.296,0.829-0.579,1.664-0.847,2.505c-0.119,0.375-0.229,0.753-0.343,1.131c-0.21,0.7-0.409,1.405-0.6,2.114
		c-0.082,0.307-0.17,0.611-0.248,0.919c-0.24,0.947-0.457,1.903-0.661,2.865c-0.067,0.32-0.133,0.641-0.197,0.963
		c-0.198,1.002-0.382,2.009-0.54,3.025c-0.029,0.189-0.052,0.38-0.08,0.569c-0.141,0.952-0.261,1.911-0.365,2.874
		c-0.023,0.218-0.05,0.435-0.071,0.653c-0.106,1.08-0.188,2.167-0.248,3.261c-0.012,0.225-0.021,0.451-0.031,0.677
		c-0.053,1.139-0.088,2.282-0.088,3.434c0,1.202,0.033,2.396,0.092,3.584c0.04,0.82,0.106,1.634,0.174,2.447
		c0.026,0.32,0.042,0.644,0.073,0.963c0.102,1.062,0.227,2.119,0.372,3.17c0.007,0.046,0.011,0.092,0.018,0.138
		c0.156,1.109,0.336,2.211,0.538,3.306c0.048,0.017,0.095,0.028,0.143,0.043c0.662,0.196,0.902,0.725,0.603,1.357
		c-0.109,0.23-0.226,0.458-0.337,0.676c0.006,0.027,0.014,0.055,0.02,0.084c0.146,0.674,0.3,1.344,0.464,2.01
		c0.145,0.588,0.298,1.172,0.456,1.752c0.093,0.342,0.191,0.68,0.289,1.02c0.268,0.93,0.552,1.854,0.854,2.77
		c0.101,0.302,0.202,0.602,0.306,0.9c0.334,0.971,0.688,1.93,1.062,2.881c0.097,0.246,0.192,0.493,0.292,0.738
		c0.489,1.208,1.007,2.4,1.557,3.577c0.219,0.011,0.438,0.019,0.657,0.034c0.33,0.027,0.649,0.199,0.974,0.307
		c-0.045,0.04-0.09,0.082-0.135,0.123c0.104,0.199,0.233,0.391,0.308,0.6c0.076,0.213,0.332,0.409,0.039,0.683
		c-0.125,0.116-0.103,0.383-0.174,0.571c-0.056,0.148-0.135,0.379-0.239,0.4c-0.026,0.006-0.046,0.02-0.071,0.026
		c2.729,5.255,6.066,10.141,9.919,14.565c0.041,0.049,0.082,0.096,0.123,0.144c0.611,0.698,1.234,1.385,1.871,2.059
		c0.055,0.06,0.11,0.116,0.165,0.175c0.645,0.678,1.299,1.346,1.969,2c0.623-0.092,1.234,0.139,2.051,0.58
		c0.529,0.29,1.043,0.793,1.31,1.328c0.175,0.357,0.225,0.866,0.146,1.299c6.399,5.502,13.75,9.93,21.766,13.014
		c0.15,0.06,0.3,0.121,0.451,0.179c0.76,0.287,1.528,0.552,2.303,0.813c0.335,0.113,0.669,0.23,1.007,0.34
		c0.685,0.223,1.377,0.429,2.071,0.631c0.438,0.128,0.875,0.254,1.316,0.374c0.639,0.173,1.279,0.335,1.924,0.491
		c0.515,0.125,1.027,0.242,1.545,0.356c0.602,0.132,1.205,0.259,1.811,0.376c0.579,0.112,1.162,0.213,1.745,0.312
		c0.563,0.096,1.128,0.189,1.696,0.272c0.649,0.095,1.308,0.173,1.963,0.249c0.518,0.062,1.033,0.128,1.554,0.18
		c0.765,0.072,1.535,0.123,2.308,0.174c0.424,0.029,0.846-0.043,1.271-0.022c1.203,0.058,2.412-0.021,3.629-0.021
		c0.003,0-0.116,0-0.116,0v0.224v-13.26c0,0.002,0,0.003,0,0.004c0,0.183-0.124,0.362-0.207,0.549
		c-0.01,0.022,0.009,0.048-0.007,0.074c-0.076,0.135-0.203,0.307-0.414,0.313c-0.085,0.004-0.173-0.02-0.279-0.082
		c-0.084-0.049-0.188-0.055-0.309-0.045c-0.119,0.01-0.243,0.035-0.355,0.051c-0.098,0.012-0.188,0.013-0.271,0.004
		c-0.583-0.057-0.824-0.564-1.054-1.034c-0.204-0.423-0.291-0.9-0.479-1.517c0.229-0.785,0.449-1.676,0.775-2.522
		c0.081-0.207,0.504-0.324,0.788-0.394c0.101-0.023,0.306,0.195,0.394,0.346c0.283,0.498,0.849,0.05,1.228,0.3
		c0.097,0.062,0.25-0.011,0.252-0.011h-0.067v-8.359c0-0.001,0-0.001,0-0.002c0-0.178-0.458-0.364-0.672-0.587
		c-0.084-0.088-0.099-0.244-0.11-0.412s0.021-0.492,0.064-0.629c0.138-0.435,0.767-1.011,0.771-1.011h-0.055V93.098
		c0,0,0,0.002,0,0.003c0,0.254-0.686,0.461-0.932,0.489c-0.244-0.117-0.459-0.226-0.697-0.35c-0.352-0.184-0.672-0.5-1.034-0.536
		c-0.325-0.032-0.288-0.138-0.319-0.347c-0.006-0.045-0.008-0.094-0.016-0.143c-0.023-0.146-0.061-0.301-0.15-0.367
		c-0.379-0.289-0.24-0.721-0.08-0.887c0.388-0.396,0.887-0.84,1.361-0.869c0.678-0.041,0.93-0.457,1.93,0.543h-0.062v-9h0.062
		c-0.25,0-0.431-0.018-0.611-0.088c-0.546-0.211-0.812-0.498-1.062-1.103c-0.057-0.14-0.225-0.207-0.422-0.39
		c0.168-0.455,0.355-0.869,0.542-1.369c0.188-0.499,0.552-1.051,1.55-1.051h-0.059v-24h0.062c-0.002,0-0.117-0.004-0.193,0.017
		c-0.219,0.058-0.59-0.016-0.7-0.164c-0.353-0.467-0.961-0.619-1.226-1.222c-0.475-1.075-0.584-1.6,0.305-2.334
		c0.561-0.462,0.812-0.297,1.812-0.297h-0.062V32.306c0,0,0-0.001,0-0.002c0-0.126-0.426-0.475-0.377-0.672
		c0.088-0.356,0.377-0.773,0.377-1.098c0-0.001,0-0.003,0-0.005V6.635h0.062C99.254,6.635,99.153,6.81,99.106,6.753z M89.484,122.25
		c0.174-0.549,0.466-1.055,1.234-0.813c0.008-0.054,0.016-0.105,0.021-0.158c0.569,0.229,1.146,0.44,1.703,0.701
		c0.112,0.053,0.207,0.274,0.21,0.422c0.014,0.474-0.854,1.642-1.311,1.776c-0.127,0.037-0.312,0.029-0.416-0.041
		c-0.47-0.305-0.97-0.594-1.353-0.989C89.41,122.971,89.398,122.522,89.484,122.25z M89.309,96.699
		c-0.555-0.471-1.494-0.189-1.899-0.973c-0.071-0.135-0.288-0.199-0.415-0.282c0.059-0.255,0.078-0.519,0.18-0.747
		c0.268-0.619,1.043-0.9,1.758-0.641c0.441,0.162,0.861,0.381,1.301,0.553c0.117,0.047,0.271,0.016,0.414,0.02
		c0.188,0.959-0.365,1.517-1.09,1.978C89.48,96.654,89.342,96.729,89.309,96.699z M90.932,84.209
		c-0.159,0.09-0.27,0.506-0.205,0.717c0.158,0.541-0.235,0.666-0.543,0.789c-0.283,0.111-0.619,0.086-0.986,0.123
		c-0.004,0-0.068,0.012-0.115-0.012c-0.99-0.469-1.938-0.984-2.619-1.896c-0.25-0.336-0.252-0.604,0.03-0.854
		c0.423-0.367,0.521-1.119,1.239-1.117c0.617,0,1.24,0.027,1.846,0.131c0.328,0.057,0.781-0.149,0.975,0.383
		c0.111,0.313,0.432,0.561,0.518,0.873C91.137,83.598,91.406,83.952,90.932,84.209z M81.863,97.551
		c0.053,0.481-0.143,0.99-0.225,1.483c-0.066-0.044-0.131-0.088-0.196-0.134c-0.126,0.045-0.312,0.053-0.372,0.141
		c-0.12,0.178-0.139,0.424-0.257,0.603c-0.271,0.401-1.151,0.636-1.632,0.596c-1.041-0.093-1.506-0.842-1.965-1.61
		c-0.062-0.104-0.025-0.265-0.059-0.396c-0.154-0.677-0.295-1.356-0.482-2.022c-0.119-0.418-0.049-0.736,0.312-0.976
		c0.705-0.465,1.437-0.821,2.319-0.556c0.912,0.271,1.838,0.504,2.744,0.791c0.373,0.119,0.383,0.423,0.147,0.697
		C81.846,96.578,81.801,97.012,81.863,97.551z M73.199,56.449c-0.615-0.06-1.465-0.856-1.395-1.429
		c0.039-0.332,0.312-0.739,0.604-0.915c0.645-0.39,1.268-0.914,2.121-0.8c0.312,0.042,0.475,0.107,0.537,0.485
		c0.079,0.481,0.305,0.94,0.479,1.405c0.318,0.844,0.188,1.078-0.703,1.149c-0.236,0.018-0.479-0.038-0.769-0.064
		c-0.06,0.141-0.12,0.285-0.181,0.43c0.019-0.09,0.035-0.18,0.054-0.27C73.697,56.445,73.446,56.473,73.199,56.449z M73.762,47.512
		c0.142-0.823,1.189-1.568,2.023-1.448c0.604,0.088,1.215,0.169,1.805,0.316c0.18,0.045,0.441,0.315,0.43,0.455
		c-0.07,0.654-0.197,1.306-0.355,1.945c-0.182,0.743-0.904,0.371-1.25,0.603c-1.125-0.057-1.865-0.664-2.543-1.356
		C73.764,47.919,73.734,47.677,73.762,47.512z M76.033,60.804c0.712-0.031,1.355,0.146,1.98,0.466
		c0.508,0.259,0.672,0.89,0.404,1.399c-0.148,0.284-0.24,0.627-0.25,0.948c-0.014,0.444-0.367,0.419-0.609,0.516
		c-0.284,0.113-0.603,0.142-0.906,0.208c-0.512,0.112-1.014,0.242-1.348-0.37c-0.068-0.126-0.324-0.151-0.551-0.248
		c-0.055-0.483-0.149-1.033-0.158-1.583C74.586,61.584,75.482,60.828,76.033,60.804z M80.557,55.986
		c0.457-1.117,1.045-1.075,2.006-0.877c0.266,0.055,0.529,0.15,0.779,0.259c0.229,0.103,0.44,0.248,0.693,0.393
		c-0.137,0.519-0.254,1.054-0.422,1.571c-0.102,0.301-0.836,0.438-1.301,0.284c-0.385-0.126-0.764-0.264-1.147-0.363
		C80.496,57.083,80.293,56.629,80.557,55.986z M82.143,73.092c-0.305-0.398-0.721-0.711-1.012-1.118
		c-0.418-0.581-0.311-1.273-0.074-1.861c0.213-0.539,1.52-0.971,2.129-0.764c0.656,0.224,1.434,0.272,1.787,1.051
		c0.047,0.104,0.27,0.131,0.408,0.196c-0.127,0.543-0.248,1.088-0.387,1.631c-0.15,0.598-1.297,1.333-1.971,1.282
		C82.676,73.484,82.381,73.403,82.143,73.092z M84.109,16.992c-0.193-0.104-0.393-0.209-0.568-0.339
		c-0.307-0.227-0.879-0.518-0.85-0.702c0.133-0.802,0.072-1.771,1.086-2.147c0.034-0.012,0.066-0.035,0.1-0.052
		c0.947-0.552,1.893-0.57,2.803,0.062c0.105,0.075,0.15,0.302,0.15,0.458c0.002,0.373-0.104,0.758-0.043,1.116
		c0.104,0.598-0.251,0.969-0.574,1.332C85.814,17.169,84.65,17.282,84.109,16.992z M90.564,70.836
		c-0.116-0.189-0.232-0.378-0.322-0.583c-0.148-0.349-0.494-0.889-0.374-1.032c0.519-0.627,0.956-1.493,2.019-1.306
		c0.039,0.007,0.076,0.004,0.113,0.004c1.096,0.003,1.918,0.463,2.387,1.47c0.057,0.118-0.023,0.336-0.102,0.472
		c-0.184,0.324-0.473,0.601-0.6,0.942c-0.213,0.568-0.705,0.708-1.168,0.859C91.947,71.848,90.883,71.36,90.564,70.836z
		 M90.879,45.886c-0.824,0.237-1.218,0.292-1.727-0.346c-0.213-0.269-0.539-0.449-0.818-0.658c-0.337-0.25-0.471-0.568-0.459-0.989
		c0.008-0.194-0.121-0.389-0.174-0.588c-0.021-0.085-0.042-0.223,0.002-0.261c0.783-0.69,1.483-1.542,2.871-1.474
		c0.604-0.028,1.23,0.368,1.838,0.792c0.131,0.09,0.21,0.299,0.252,0.469c0.084,0.339,0.238,0.717,0.159,1.028
		c-0.128,0.499-0.331,1.038-0.672,1.402C91.846,45.586,91.332,45.756,90.879,45.886z M91.297,30.026
		c-0.188,0.241-0.492,0.387-0.787,0.605c-0.006,0.002-0.055,0.044-0.105,0.049c-1.09,0.094-2.17,0.128-3.217-0.314
		c-0.387-0.164-0.525-0.395-0.405-0.752c0.181-0.53-0.118-1.228,0.505-1.591c0.531-0.31,1.084-0.602,1.659-0.817
		c0.312-0.12,0.599-0.523,1.032-0.163c0.256,0.213,0.654,0.265,0.889,0.493c0.188,0.182,0.598,0.353,0.314,0.815
		c-0.094,0.155,0.025,0.57,0.188,0.721C91.775,29.458,91.5,29.763,91.297,30.026z M85.543,2.289c0.924-0.226,1.84-0.492,2.77-0.704
		c0.383-0.086,0.545,0.171,0.479,0.527c-0.1,0.536,0.08,0.932,0.404,1.365c0.291,0.387,0.381,0.926,0.557,1.396
		c-0.076-0.006-0.156-0.012-0.234-0.017c-0.088,0.102-0.243,0.2-0.25,0.308c-0.018,0.213,0.095,0.435,0.08,0.649
		c-0.028,0.484-0.672,1.131-1.106,1.339c-0.944,0.445-1.726,0.033-2.508-0.399c-0.109-0.058-0.158-0.216-0.248-0.312
		c-0.476-0.505-0.94-1.021-1.44-1.501c-0.312-0.3-0.412-0.611-0.224-0.999C84.193,3.185,84.643,2.509,85.543,2.289z M81.543,35.144
		c-0.1,0.534,0.082,0.93,0.405,1.365c0.291,0.387,0.38,0.926,0.558,1.396c-0.078-0.006-0.156-0.012-0.234-0.017
		c-0.09,0.101-0.242,0.2-0.25,0.307c-0.016,0.214,0.094,0.436,0.08,0.649c-0.028,0.484-0.674,1.132-1.107,1.337
		c-0.943,0.448-1.723,0.036-2.508-0.396c-0.105-0.06-0.156-0.215-0.248-0.312c-0.477-0.505-0.938-1.022-1.438-1.502
		c-0.314-0.301-0.414-0.612-0.226-0.999c0.373-0.757,0.822-1.433,1.724-1.652c0.926-0.225,1.84-0.492,2.77-0.704
		C81.446,34.531,81.607,34.787,81.543,35.144z M79.064,19.439c0.094,0.067,0.297-0.021,0.451-0.038
		c0.164,0.534,0.336,1.066,0.49,1.603c0.172,0.594-0.445,1.806-1.055,2.103c-0.312,0.155-0.605,0.234-0.973,0.085
		c-0.465-0.189-0.979-0.249-1.438-0.452c-0.651-0.292-0.907-0.943-1.004-1.57c-0.088-0.573,0.822-1.606,1.453-1.734
		C77.67,19.296,78.367,18.946,79.064,19.439z M70.5,9.861c0.295-0.524,0.192-1.295,0.854-1.553c0.442-0.209,0.827-0.416,1.229-0.579
		c0.594-0.238,1.413,0.297,1.5,0.941c0.031,0.248,0.067,0.515,0.184,0.73c0.414,0.758-0.221,1.172-0.557,1.65
		c-0.119,0.17-0.5,0.158-0.768,0.222c-0.072,0.017-0.161-0.017-0.223,0.013c-0.856,0.433-1.364-0.378-2.028-0.607
		C70.543,10.626,70.393,10.051,70.5,9.861z M69.225,31.271c0.065-0.479-0.041-1.153,0.234-1.392
		c0.459-0.398,1.146-0.567,1.762-0.741c0.812-0.226,1.5,0.294,1.832,0.845c0.27,0.447,0.076,1.21-0.008,1.819
		c-0.061,0.425-0.439,0.614-0.867,0.633c-0.129,0.004-0.266-0.042-0.395-0.075c-0.082-0.02-0.17-0.097-0.234-0.08
		c-0.336,0.081-1.429-0.16-1.732-0.396c-0.188-0.146-0.383-0.281-0.611-0.448C69.209,31.411,69.215,31.34,69.225,31.271z
		 M70.436,115.451c0.078,0.358-0.811,1.043-1.199,0.995c-0.639-0.079-1.227-0.254-1.695-0.769c-0.363-0.395-0.363-0.809-0.119-1.166
		c0.645-0.939,1.729-1.348,2.797-0.998c0.303,0.1,0.537,0.399,0.836,0.635C70.676,114.535,70.305,114.844,70.436,115.451z
		 M71.473,123.504c0.084,0.049,0.148,0.129,0.302,0.267c-0.247,0.137-0.423,0.312-0.612,0.321c-0.333,0.017-0.438,0.168-0.5,0.461
		c-0.158,0.735-0.809,1.027-1.367,1.353c-0.199,0.116-0.607,0.036-0.842-0.099c-0.699-0.399-1.562-0.741-1.635-1.674
		c-0.029-0.348,0.318-0.811,0.621-1.08c0.775-0.694,1.715-0.668,2.626-0.313C70.559,122.93,71.008,123.24,71.473,123.504z
		 M69.182,87.928c0.193,0.319,0.475,0.584,0.699,0.886c0.049,0.063,0.082,0.215,0.043,0.26c-0.506,0.574-0.537,1.317-0.75,1.998
		c-0.17,0.543-0.578,0.651-1.201,0.56c-0.267-0.039-0.598-0.321-0.867,0.035c-0.342-0.277-0.686-0.552-1.023-0.83
		c-0.201-0.168-0.384-0.361-0.599-0.514c-0.274-0.193-0.657-0.259-0.511-0.775c0.062-0.226-0.121-0.515-0.166-0.777
		c-0.023-0.152-0.049-0.391,0.033-0.459c0.741-0.617,1.414-1.395,2.525-1.273C68.113,87.045,68.76,87.23,69.182,87.928z
		 M67.709,53.901c-0.229,0.594-0.479,1.184-0.684,1.79c-0.135,0.398-0.171,0.832-0.316,1.225c-0.238,0.63-0.975,0.779-1.537,0.402
		c-0.332-0.223-0.744-0.321-1.104-0.511c-0.753-0.399-1.264-0.976-1.202-1.891c0.017-0.24,0.062-0.55,0.22-0.702
		C64.155,53.178,66.322,53.045,67.709,53.901z M63.32,30.211c0.166,0.667-0.128,0.835-0.675,1.014
		c0.073,0.375,0.208,0.77,0.221,1.17c0.019,0.591,0.308,1.272-0.392,1.697c-0.156,0.098-0.354,0.144-0.536,0.191
		c-0.425,0.111-0.886-0.104-1.312,0.228c-0.131,0.098-0.531-0.175-0.814-0.257c-0.34-0.1-0.691-0.154-1.024-0.265
		c-0.692-0.229-1.257-1.64-0.94-2.29c0.158-0.333,0.252-0.703,0.439-1.017c0.567-0.954,1.454-1.418,2.539-1.503
		c0.533-0.04,1.076-0.038,1.61-0.005C63.059,29.213,63.148,29.512,63.32,30.211z M54.989,86.457
		c0.296-0.525,0.192-1.297,0.854-1.555c0.441-0.209,0.828-0.416,1.229-0.576c0.595-0.238,1.413,0.295,1.499,0.939
		c0.032,0.248,0.066,0.515,0.186,0.729c0.414,0.76-0.223,1.174-0.559,1.652c-0.118,0.171-0.502,0.156-0.768,0.221
		c-0.07,0.018-0.159-0.016-0.223,0.014c-0.854,0.435-1.363-0.379-2.027-0.606C55.031,87.221,54.883,86.646,54.989,86.457z
		 M53.342,78.584c-0.143-0.043-0.475-0.037-0.58-0.188c-0.447-0.621-1.133-0.979-1.523-1.714c-0.402-0.754-0.186-1.246,0.176-1.784
		c0.18-0.266,0.499-0.465,0.795-0.62c0.307-0.161,0.648-0.286,0.988-0.33c0.934-0.125,1.629,0.482,2.377,0.885
		c0.129,0.07,0.178,0.403,0.164,0.61c-0.035,0.56-0.062,1.129-0.193,1.671C55.235,78.389,54.549,78.481,53.342,78.584z
		 M56.94,106.182c0.457-0.247,0.896-0.641,1.38-0.707c1.2-0.165,2.354,0.085,3.256,0.974c0.133,0.131,0.146,0.56,0.033,0.729
		c-0.484,0.729-0.794,1.613-1.609,2.078c-0.355,0.203-0.734,0.36-1.104,0.541c-0.84-0.05-2.18-0.898-2.54-1.599
		C55.893,107.309,56.036,106.672,56.94,106.182z M58.854,43.204c-0.334-0.028-0.698,0.11-0.833-0.409
		c-0.061-0.229-0.366-0.383-0.535-0.589c-0.098-0.12-0.24-0.311-0.204-0.413c0.328-0.907,0.519-1.916,1.539-2.374
		c0.647-0.37,1.302-0.538,2.019-0.147c0.328,0.178,0.703,0.264,1.051,0.409c0.074,0.032,0.179,0.147,0.166,0.205
		c-0.146,0.751,0.203,1.408,0.363,2.104c0.127,0.555-0.17,0.854-0.754,1.088c-0.25,0.101-0.682,0.025-0.734,0.467
		c-0.432-0.065-0.865-0.128-1.299-0.198C59.372,43.303,59.116,43.229,58.854,43.204z M55.42,16.529
		c0.168-0.286,0.336-0.58,0.549-0.831c0.604-0.708,1.457-0.801,2.252-0.604c0.929,0.229,1.802,0.678,2.701,1.02
		c0.584,0.224,0.825,0.737,0.836,1.26c0.004,0.329-0.351,0.663-0.586,1.07c0.267,0.38,0.362,0.768,0.082,1.352
		c-0.24,0.506-0.396,0.988-0.89,1.328c-0.91,0.627-1.83,0.749-2.812,0.194c-0.375-0.214-0.85-0.348-1.103-0.662
		c-0.253-0.311-0.274-0.801-0.41-1.211c-0.071-0.216-0.11-0.48-0.263-0.623C55.102,18.175,54.948,17.333,55.42,16.529z
		 M53.952,49.433c0.912,0.349,1.831,0.681,2.729,1.06c0.322,0.135,0.322,0.581-0.012,0.693c-0.742,0.248-0.839,0.951-1.183,1.483
		c-0.261,0.398-0.492,0.834-0.826,1.161c-0.304,0.293-0.743,0.395-1.12,0.05c-0.388-0.353-0.742-0.739-1.128-1.095
		c-0.112-0.108-0.29-0.145-0.405-0.249c-0.19-0.176-0.519-0.403-0.496-0.571c0.07-0.538,0.127-1.194,0.461-1.553
		c0.47-0.503,1.127-0.906,1.918-0.824C53.913,49.534,53.93,49.483,53.952,49.433z M48.448,35.402
		c0.296-0.526,0.191-1.295,0.854-1.553c0.442-0.21,0.827-0.417,1.23-0.579c0.593-0.238,1.413,0.297,1.499,0.94
		c0.032,0.248,0.068,0.514,0.184,0.729c0.414,0.759-0.221,1.173-0.557,1.651c-0.119,0.17-0.502,0.159-0.766,0.222
		c-0.072,0.017-0.16-0.017-0.223,0.015c-0.856,0.432-1.365-0.378-2.03-0.608C48.49,36.167,48.341,35.592,48.448,35.402z
		 M41.14,44.489c0.358-0.917,1.062-1.34,1.962-1.526c0.27-0.056,0.551-0.06,0.825-0.086c1.185,0.072,2.469,0.97,2.663,2.024
		c0.082,0.449,0.022,1.057-0.23,1.403c-0.412,0.562-0.997,1.027-1.586,1.418c-0.338,0.226-0.845,0.348-1.247,0.293
		c-0.389-0.051-0.786-0.336-1.095-0.614c-0.561-0.504-0.95-1.143-1.361-1.783C40.711,45.058,40.989,44.878,41.14,44.489z
		 M44.925,72.276c0.032,0.25,0.067,0.516,0.182,0.73c0.415,0.761-0.22,1.174-0.555,1.651c-0.119,0.171-0.502,0.157-0.767,0.222
		c-0.072,0.017-0.161-0.017-0.222,0.015c-0.856,0.434-1.365-0.378-2.028-0.607c-0.153-0.053-0.303-0.629-0.194-0.818
		c0.295-0.525,0.191-1.295,0.854-1.554c0.443-0.21,0.828-0.416,1.23-0.577C44.018,71.099,44.84,71.633,44.925,72.276z
		 M28.634,52.946c0.052-0.003,0.104-0.006,0.154-0.009c-0.268-1.354,0.68-2.041,1.491-2.8c0.049-0.046,0.132-0.086,0.196-0.082
		c1.117,0.052,2.273-0.167,3.328,0.339c0.507,0.243,1.012,0.569,1.385,0.977c0.339,0.369,0.355,0.919,0.399,1.45
		c0.046,0.567,0.024,1.059-0.323,1.5c-0.644,0.82-1.267,1.662-1.981,2.415c-0.36,0.382-0.849,0.791-1.48,0.292
		c-0.137-0.109-0.466,0.034-0.621-0.069c-0.328-0.218-0.644-0.488-0.882-0.799c-0.385-0.501-0.604-1.087-1.114-1.547
		C28.809,54.271,28.804,53.516,28.634,52.946z M30.183,71.913c-0.25-0.172-0.575-0.357-0.661-0.608
		c-0.09-0.259,0.03-0.614,0.117-0.911c0.328-1.116,1.255-0.924,2.256-0.94c0.372,0.047,0.91,0.102,1.441,0.187
		c0.499,0.079,1.023,0.824,0.9,1.31c-0.117,0.457-0.263,0.913-0.457,1.343c-0.403,0.885-1.352,1.105-2.155,0.551
		C31.154,72.522,30.654,72.239,30.183,71.913z M37.194,92.356c-0.104,0.522-0.207,1.049-0.311,1.573
		c-0.12,0.604-0.675,0.814-1.218,0.974c-0.896,0.26-1.477-0.119-2.182-0.517c-0.376-0.211-0.934-0.164-1.252-0.561
		c-0.149-0.186-0.207-0.447-0.332-0.738c-0.002-0.11,0.032-0.315-0.017-0.496c-0.16-0.605,0.16-1.301,0.715-1.582
		c1.084-0.547,2.162-0.484,3.328-0.225c0.84,0.188,1.068,0.739,1.324,1.371C37.271,92.206,37.209,92.285,37.194,92.356z
		 M46.298,106.922c-0.021,0.232-0.061,0.461-0.114,0.851c-0.111-0.259-0.147-0.349-0.214-0.504
		c-0.299,0.396-0.547,0.756-0.825,1.088c-0.598,0.713-1.804,0.985-2.66,0.598c-0.954-0.432-1.801-1.091-2.232-2.004
		c-0.396-0.84-0.588-1.842-0.616-2.78c-0.036-1.23,1.527-2.889,2.753-3.055c0.472-0.064,1.004,0.003,1.456,0.161
		c0.766,0.267,1.505,0.622,2.225,1c0.307,0.161,0.763,1.871,0.818,2.185C47.055,105.385,46.373,106.076,46.298,106.922z
		 M47.622,84.617c0.265,0.383,0.361,0.77,0.08,1.354c-0.241,0.504-0.396,0.988-0.887,1.326c-0.912,0.629-1.832,0.75-2.813,0.194
		c-0.377-0.213-0.85-0.349-1.103-0.661c-0.251-0.311-0.275-0.803-0.411-1.211c-0.07-0.216-0.11-0.48-0.261-0.623
		c-0.675-0.646-0.83-1.488-0.359-2.295c0.168-0.286,0.337-0.579,0.549-0.83c0.604-0.71,1.456-0.801,2.254-0.604
		c0.927,0.229,1.8,0.678,2.699,1.021c0.584,0.224,0.826,0.738,0.835,1.259C48.21,83.877,47.856,84.213,47.622,84.617z
		 M46.674,66.063c-0.328-0.045-0.647-0.166-0.97-0.253c-0.018-0.006-0.039-0.011-0.051-0.024c-0.434-0.57-1-1.089-1.255-1.73
		c-0.161-0.408,0.044-1.043,0.249-1.502c0.46-1.039,1.144-1.929,2.433-1.847c1.398,0.087,2.765,0.336,3.862,1.358
		c0.356,0.333,0.291,0.583,0.073,0.886c-0.424-0.171-0.657-0.661-1.156-0.349c0.234,0.452,0.536,0.85,0.49,1.366
		c-0.038,0.49-0.092,0.979-0.146,1.544c-0.574,0.221-1.183,0.558-1.831,0.672C47.829,66.282,47.238,66.139,46.674,66.063z
		 M53.432,112.407c-0.104-0.046-0.221-0.096-0.342-0.146c-0.319,0.563-0.644,1.132-0.97,1.697c-0.229,0.395-1.271,0.842-1.682,0.688
		c-0.171-0.062-0.337-0.201-0.44-0.351c-0.549-0.766-1.077-1.547-1.609-2.319c0.306-1.257,1.087-2.005,2.505-1.869
		c1.236,0.121,2.234,0.633,2.775,1.836C53.6,112.084,53.52,112.241,53.432,112.407z M53.688,95.373
		c-0.26,0.516-0.499,1.045-0.752,1.564c-0.055,0.107-0.129,0.215-0.223,0.287c-0.73,0.576-1.875,0.32-2.381-0.486
		c-0.154-0.248-0.402-0.463-0.651-0.617c-0.676-0.416-0.625-1.604,0.157-2.092c0.416-0.26,0.914-0.52,1.378-0.525
		c0.453-0.01,0.961,0.231,1.362,0.49c0.505,0.33,0.927,0.787,1.497,1.288C53.846,95.332,53.713,95.325,53.688,95.373z
		 M54.965,122.891c-0.461-0.889-0.316-1.523,0.586-2.016c0.459-0.248,0.896-0.64,1.379-0.705c1.201-0.166,2.354,0.082,3.258,0.971
		c0.132,0.133,0.146,0.561,0.033,0.729c-0.483,0.729-0.795,1.612-1.609,2.079c-0.355,0.202-0.734,0.362-1.104,0.54
		C56.668,124.44,55.326,123.59,54.965,122.891z M62.883,130.393c-0.482,0.729-0.793,1.611-1.608,2.076
		c-0.354,0.205-0.735,0.363-1.104,0.543c-0.838-0.051-2.18-0.899-2.541-1.6c-0.461-0.889-0.316-1.523,0.586-2.015
		c0.459-0.247,0.896-0.642,1.381-0.708c1.199-0.165,2.354,0.084,3.254,0.973C62.981,129.793,62.997,130.223,62.883,130.393z
		 M63.256,74.667c-0.187,0.005-0.377-0.055-0.56-0.105c-0.422-0.119-0.712-0.538-1.249-0.468c-0.159,0.021-0.37-0.418-0.572-0.633
		c-0.242-0.256-0.519-0.482-0.75-0.746c-0.482-0.548-0.258-2.048,0.342-2.452c0.31-0.206,0.576-0.478,0.896-0.656
		c0.973-0.534,1.973-0.489,2.948-0.014c0.481,0.235,0.948,0.511,1.396,0.809c0.518,0.347,0.443,0.653,0.239,1.341
		c-0.194,0.661-0.532,0.657-1.095,0.535c-0.125,0.361-0.211,0.771-0.401,1.122C64.168,73.918,64.072,74.653,63.256,74.667z
		 M65.283,101.33c-0.501-0.359-0.83-1.478-0.48-1.936c0.201-0.268,0.646-0.48,0.981-0.484c0.755-0.012,1.556-0.15,2.233,0.381
		c0.25,0.193,0.357,0.332,0.221,0.688c-0.174,0.456-0.211,0.967-0.297,1.455c-0.152,0.889-0.385,1.022-1.188,0.635
		c-0.214-0.103-0.394-0.272-0.632-0.44c-0.12,0.09-0.245,0.184-0.37,0.278c0.061-0.067,0.119-0.138,0.182-0.206
		C65.717,101.578,65.484,101.478,65.283,101.33z M72.471,136.574c-0.188,0.9-0.812,1.533-1.242,2.271
		c-0.479,0.822-1.426,0.758-2.252,0.695c-0.439-0.033-0.967-0.136-1.271-0.408c-0.596-0.53-1.117-1.168-1.564-1.834
		c-0.312-0.459,0.123-1.51,0.437-1.996c0.405-0.633,1.073-0.763,1.597-1.145c1.152-0.846,2.129-0.287,3.157,0.141
		c0.285,0.119,0.563,0.252,0.925,0.414c0.023,0.109,0.029,0.396,0.164,0.603C72.691,135.746,72.564,136.121,72.471,136.574z
		 M73.535,78.028c-0.266,0.337-0.691,0.31-1.068,0.108c-0.111-0.061-0.205-0.168-0.303-0.262c-0.061-0.061-0.096-0.169-0.162-0.188
		c-0.33-0.101-1.148-0.86-1.295-1.218c-0.088-0.219-0.188-0.436-0.302-0.695c0.017-0.02,0.058-0.078,0.103-0.133
		c0.297-0.379,0.547-1.018,0.904-1.083c0.598-0.113,1.275,0.089,1.895,0.25c0.814,0.214,1.146,1.013,1.154,1.654
		C74.467,76.983,73.916,77.545,73.535,78.028z M74.658,106.791c-0.191-0.463,0.057-0.824,0.346-1.012
		c0.817-0.525,1.697-0.936,2.729-0.729c0.578,0.115,1.176,0.154,1.741,0.311c0.455,0.127,0.795,0.428,0.604,1.01
		c-0.087-0.019-0.17-0.035-0.291-0.062c0.035,0.101,0.079,0.181,0.088,0.265c0.055,0.545-0.203,0.883-0.783,0.877
		c-0.543-0.006-0.707,0.255-0.857,0.717c-0.146,0.444-0.455,0.836-0.666,1.199c-1.018-0.611-1.896-1.143-2.695-1.621
		C74.793,107.387,74.771,107.071,74.658,106.791z M76.018,114.612c-0.359-0.271-0.623-0.701-0.857-1.104
		c-0.094-0.162-0.078-0.498,0.031-0.651c0.6-0.847,1.97-1.208,2.943-0.813c0.375,0.154,0.744,0.336,1.106,0.518
		c0.454,0.23,0.62,0.531,0.371,1.058c-0.271,0.578-0.271,1.298-0.966,1.63c-0.25,0.119-0.479,0.282-0.721,0.426
		C77.051,115.651,76.571,115.028,76.018,114.612z M79.436,126.022c-0.256-0.204-0.525-0.414-0.711-0.677
		c-1.051-1.473-0.234-2.168,1.086-2.775c1.129-0.521,2.16,0.064,3.182,0.458c0.207,0.082,0.329,0.377,0.553,0.649
		c-0.285,0.088-0.482,0.15-0.57,0.178c-0.229,0.874-0.438,1.671-0.648,2.466c-0.041-0.033-0.084-0.067-0.126-0.104
		c-0.292,0.09-0.577,0.232-0.872,0.25C80.661,126.506,79.99,126.465,79.436,126.022z M84.699,139.178
		c-0.234-0.355-0.662-0.514-0.947-0.871c-0.82-1.018-0.965-2.086-0.259-3.186c0.218-0.34,0.411-0.699,0.638-1.033
		c0.399-0.598,1.039-0.889,1.686-0.992c1.521-0.25,3.008-0.186,4.324,0.818c1.094,0.83,1.416,1.956,0.729,3.146
		c-0.48,0.832-0.951,1.715-1.625,2.377c-0.529,0.523-1.359,0.742-2.029,1.082C86.27,140.068,85.277,140.057,84.699,139.178z
		 M89.844,143.114c-0.051-0.019-0.104-0.036-0.155-0.054c0.319-0.924,0.62-1.854,0.968-2.768c0.125-0.326,0.57-0.341,0.693-0.011
		c0.271,0.733,0.979,0.806,1.521,1.131c0.408,0.245,0.853,0.464,1.188,0.788c0.305,0.292,0.422,0.729,0.088,1.117
		c-0.34,0.398-0.713,0.768-1.057,1.163c-0.104,0.116-0.137,0.296-0.236,0.413c-0.168,0.197-0.385,0.533-0.553,0.518
		c-0.539-0.053-1.197-0.09-1.566-0.41C90.215,144.551,89.791,143.906,89.844,143.114z M95.914,107.498
		c0.191,0.201,0.434,0.366,0.682,0.498c0.504,0.27,0.514,0.543,0.176,0.994c-0.271,0.365-0.418,0.836-0.562,1.277
		c-0.104,0.312-0.09,0.662-0.176,0.98c-0.146,0.543-0.734,0.825-1.375,0.736c-0.24-0.034-0.494,0.021-0.816,0.04
		c0.23-0.267,0.391-0.403-0.043-0.562c-0.478-0.173-0.945-0.44-1.322-0.774c-0.211-0.187-0.312-0.586-0.318-0.892
		c-0.004-0.475,0.129-0.949,0.174-1.425c0.02-0.183-0.127-0.487-0.051-0.545c0.52-0.387,1.036-0.874,1.635-1.041
		C94.649,106.582,95.358,106.916,95.914,107.498z M94.643,59.753c-0.959,0.616-1.67,0.397-2.441-0.454
		c-0.355-0.396-0.331-0.812-0.482-1.167c0-0.947,1.268-1.844,2.164-1.546c0.48,0.159,0.926,0.42,1.392,0.629
		c0.104,0.049,0.26,0.035,0.336,0.109c0.134,0.134,0.351,0.347,0.312,0.461C95.69,58.562,95.357,59.293,94.643,59.753z
		 M96.258,39.742c-0.043,0.08-0.125,0.215-0.168,0.207c-0.72-0.127-1.386,0.589-2.131,0.119c-0.131-0.083-0.351-0.028-0.5-0.034
		c-0.076-0.248-0.193-0.487-0.224-0.735c-0.083-0.668,0.444-1.305,1.192-1.439c0.463-0.083,0.937-0.107,1.398-0.18
		c0.128-0.02,0.24-0.124,0.369-0.192C96.844,38.22,96.648,38.979,96.258,39.742z M97.559,21.945c-0.863,0.272-1.7,0.438-2.504-0.175
		c-0.116-0.092-0.314-0.08-0.575-0.139c-0.085-0.477-0.183-1.003-0.272-1.527c-0.1-0.578,0.398-1.604,0.955-1.896
		c0.545-0.282,1.105-0.535,1.67-0.774c0.414-0.175,1.066,0.08,1.163,0.498c0.153,0.673,0.224,1.364,0.329,2.048
		c0.025,0.163,0.038,0.329,0.078,0.487C98.58,21.178,98.258,21.725,97.559,21.945z"/>
	<path fill="#EDC9C9" d="M66.268,7.109c-1.127,0.562-2.236,1.151-3.33,1.768h-0.001l0,0c0.001,0.001,0.002,0.002,0.003,0.003
		C64.033,8.264,65.141,7.67,66.268,7.109z"/>
</g>
</svg>
