<?xml version="1.0" encoding="utf-8"?>
<!-- Generator: Adobe Illustrator 15.0.0, SVG Export Plug-In . SVG Version: 6.00 Build 0)  -->
<!DOCTYPE svg PUBLIC "-//W3C//DTD SVG 1.1//EN" "http://www.w3.org/Graphics/SVG/1.1/DTD/svg11.dtd">
<svg version="1.1" id="Layer_1" xmlns="http://www.w3.org/2000/svg" xmlns:xlink="http://www.w3.org/1999/xlink" x="0px" y="0px"
	 width="100px" height="710px" viewBox="0 0 100 710" enable-background="new 0 0 100 710" xml:space="preserve">
<path fill="#B4DBD0" d="M199.996,352v100.467c-0.32-0.836-0.645-1.654-0.977-2.479c-0.225-0.561-0.465-1.121-0.703-1.67
	c-0.488-1.143-1-2.289-1.535-3.406c-0.227-0.49-0.467-0.979-0.707-1.469c-4.145-8.482-9.389-16.324-15.539-23.357
	c-0.869-0.99-1.762-1.98-2.67-2.932c-0.451-0.479-0.906-0.967-1.371-1.432c-0.605-0.619-1.227-1.238-1.846-1.832
	c-0.623-0.609-1.252-1.205-1.883-1.801c-0.586-0.537-1.182-1.086-1.777-1.611c-0.572-0.512-1.154-1.023-1.75-1.523
	c-0.348-0.299-0.691-0.586-1.039-0.871c-0.441-0.369-0.893-0.738-1.346-1.098c-0.682-0.547-1.373-1.084-2.062-1.607
	c-0.598-0.453-1.193-0.906-1.789-1.346c-0.164-0.121-0.332-0.252-0.512-0.371c-0.596-0.416-1.18-0.834-1.775-1.24
	c-0.51-0.367-1.035-0.725-1.572-1.07c-0.357-0.24-0.703-0.477-1.062-0.707c-1.285-0.832-2.586-1.631-3.906-2.418
	c-0.49-0.285-0.979-0.572-1.479-0.844c-0.467-0.277-0.932-0.525-1.396-0.775c-1.549-0.859-3.135-1.684-4.73-2.455
	c-0.535-0.264-1.084-0.523-1.646-0.775c-1.502-0.703-3.025-1.357-4.576-1.99c-0.355-0.154-0.725-0.297-1.096-0.439
	c-0.57-0.229-1.133-0.455-1.717-0.658c-0.904-0.344-1.822-0.678-2.74-0.988c-0.834-0.297-1.68-0.572-2.527-0.836
	c-0.82-0.26-1.645-0.51-2.467-0.75c-0.059-0.012-0.107-0.023-0.154-0.035c-0.629-0.191-1.275-0.369-1.932-0.537
	c-0.428-0.117-0.846-0.238-1.275-0.332c-0.631-0.168-1.275-0.334-1.93-0.479c-0.715-0.164-1.418-0.332-2.145-0.475
	c-0.404-0.094-0.822-0.178-1.229-0.25c-0.18-0.047-0.357-0.084-0.535-0.107c-0.596-0.119-1.18-0.238-1.775-0.334
	c-0.764-0.145-1.525-0.264-2.289-0.381c-0.785-0.133-1.586-0.24-2.383-0.348c-0.264-0.035-0.527-0.07-0.799-0.107
	c-0.752-0.094-1.504-0.178-2.254-0.248c-0.811-0.086-1.633-0.168-2.455-0.229c-0.811-0.068-1.633-0.117-2.455-0.164
	c-0.416-0.025-0.834-0.049-1.264-0.061c-0.488-0.025-0.965-0.047-1.453-0.062c-0.371-0.012-0.75-0.021-1.133-0.021
	c-0.773-0.023-1.549-0.035-2.338-0.035H0v213.953h99.992v-0.047c45.693,0,84.68-28.641,100.004-68.947v68.994h99.994V252.004
	C299.99,307.232,255.225,352,199.996,352 M99.992,580.422c-49.686,0-89.957-40.273-89.957-89.959
	c0-49.688,40.271-89.971,89.957-89.971c49.686,0,89.971,40.283,89.971,89.971C189.963,540.148,149.678,580.422,99.992,580.422"/>
</svg>
