<svg xmlns="http://www.w3.org/2000/svg" xmlns:xlink="http://www.w3.org/1999/xlink" width="99.992" height="213.953" viewBox="0 -0.117 99.992 213.953"><defs><path id="a" d="M0-.117h99.992v213.953H0z"/></defs><clipPath id="b"><use xlink:href="#a" overflow="visible"/></clipPath><path clip-path="url(#b)" fill="#B4DBD0" d="M199.996-31.629V68.838a155.75 155.75 0 00-.978-2.479 69.622 69.622 0 00-.702-1.67c-.488-1.143-1-2.289-1.535-3.405a106.678 106.678 0 00-16.246-24.826 97.574 97.574 0 00-2.67-2.933c-.451-.479-.906-.967-1.371-1.432a83.814 83.814 0 00-1.846-1.832 151.717 151.717 0 00-1.884-1.801c-.586-.537-1.182-1.086-1.776-1.611a72.29 72.29 0 00-1.75-1.522c-.349-.3-.691-.587-1.039-.871a92.419 92.419 0 00-3.409-2.705c-.598-.453-1.193-.906-1.789-1.347-.164-.12-.332-.252-.512-.37-.597-.416-1.181-.834-1.775-1.24a35.244 35.244 0 00-1.572-1.07c-.356-.24-.702-.477-1.062-.707a124.11 124.11 0 00-3.906-2.418c-.49-.285-.979-.572-1.479-.844-.468-.277-.933-.525-1.396-.775a96.635 96.635 0 00-4.729-2.455 49.346 49.346 0 00-1.646-.774 98.668 98.668 0 00-4.576-1.99 26.613 26.613 0 00-1.096-.439 37.285 37.285 0 00-1.717-.657 73.242 73.242 0 00-2.74-.988 66.692 66.692 0 00-2.527-.836c-.819-.26-1.645-.51-2.467-.75-.059-.013-.106-.023-.154-.035a44.79 44.79 0 00-1.932-.537c-.428-.117-.846-.238-1.275-.332a46.506 46.506 0 00-1.93-.479c-.715-.164-1.418-.332-2.145-.476a23.668 23.668 0 00-1.229-.25 4.08 4.08 0 00-.535-.106c-.596-.119-1.18-.238-1.774-.334a60.997 60.997 0 00-2.289-.381c-.785-.134-1.586-.24-2.383-.349l-.8-.106a66.892 66.892 0 00-2.254-.248 78.206 78.206 0 00-2.455-.229 97.778 97.778 0 00-2.454-.164c-.416-.024-.834-.049-1.265-.061a70.268 70.268 0 00-1.453-.062c-.371-.012-.75-.021-1.133-.021a78.382 78.382 0 00-2.338-.035H0v213.953h99.992v-.049c45.692 0 84.68-28.642 100.004-68.947v68.994h99.994v-345.459c0 55.226-44.765 99.993-99.994 99.993M99.992 196.793c-49.686 0-89.957-40.273-89.957-89.959 0-49.688 40.271-89.972 89.957-89.972s89.971 40.283 89.971 89.972c0 49.686-40.285 89.959-89.971 89.959"/><g clip-path="url(#b)"><defs><path id="c" d="M100.003-.02H0v213.953h99.992V196.89c-49.686 0-89.957-40.273-89.957-89.959 0-49.688 40.271-89.972 89.957-89.972l.011-16.979zm-.011 196.91"/></defs><clipPath id="d"><use xlink:href="#c" overflow="visible"/></clipPath><g clip-path="url(#d)"><path fill="none" d="M-52.196 136.435l.544.835c.208-.62.007-.841-.544-.835zM.814 203.977c.09-.051.177-.104.265-.156v-.913c-.186.369-.565.618-.265 1.069zM-77.088 121.818c.143-.13.226-.324.337-.486-.716.52-1.404.629-1.841.222-.35-.328-.693-.667-1.051-.99-.08-.07-.214-.078-.389-.147.088.71.546 1.045.926 1.473.687.766 1.213.648 2.018-.072zM-54.263 157.818c.063.263.212.534.185.787-.043.375-.209.731-.324 1.1.049.016.098.025.149.043.734-.932.736-1.729.01-2.375-.649-.575-1.418-.672-1.798-.275.386.152.786.367 1.208.444.238.043.486-.063.57.276zM-57.616 49.714c-.352-.327-.695-.667-1.052-.988-.079-.069-.212-.083-.388-.148.089.712.544 1.045.925 1.473.688.769 1.216.651 2.02-.072.143-.125.227-.319.335-.484-.714.517-1.403.627-1.84.219zM-38.591 69.988l.545.837c.208-.619.006-.841-.545-.837z"/><path fill="#B4DBD0" d="M29.699 204.84c.291-.2.554-.384.818-.568-.626-.189-.841.019-.818.568zM46.642 203.75c-.553.671-.624 1.441-.214 1.806.137-.392.339-.796.403-1.22.036-.243-.076-.486.257-.581.262-.074.526-.233.779-.211.375.031.741.186 1.109.29.014-.051.025-.105.037-.153-.951-.704-1.752-.681-2.371.069zM12.012 14.918c.748-.716.609-1.236-.139-2.014-.131-.139-.329-.217-.496-.323.543.696.675 1.385.282 1.835-.315.361-.644.714-.952 1.083-.068.083-.075.216-.133.395.704-.113 1.026-.582 1.438-.976z"/><path fill="#1D1D1B" d="M-9.265 15.794c-1.178-.72-2.317-.419-3.174.657-1.04 1.3-1.14 2.791-.924 4.322.091.651.368 1.3.958 1.718.333.233.687.435 1.022.661 1.088.733 2.163.612 3.203-.185.367-.28.535-.706.898-.935.896-.561.93-1.553 1.405-2.491-.326-.677-.527-1.516-1.041-2.063-.645-.687-1.523-1.181-2.347-1.684zM9.816 18.022c.813-.231 1.599-.556 2.389-.854.124-.047.232-.171.315-.283.153-.209.236-.545.435-.635.563-.251.731-.722.789-1.233.051-.437.101-.949-.073-1.326-.628-1.381-1.449-2.599-3.184-2.71-.051-.004-.101-.049-.152-.069-.902-.356-1.77-.124-2.467.399-1.108.835-1.436 2.095-1.494 3.563.031.19.093.502.126.815.157 1.423 1.961 2.722 3.316 2.333zm.891-2.523c.308-.369.637-.722.952-1.083.394-.45.261-1.14-.282-1.835.167.106.364.185.496.323.748.777.885 1.298.139 2.014-.412.395-.734.863-1.438.976.058-.18.065-.313.133-.395zM-4.871-.179c-.53.062-1.08-.025-1.44.328a4.302 4.302 0 00-.934 1.36c-.474 1.076-.214 2.2-.231 3.323 0 .062.042.131.089.18.791.787 1.509 1.708 2.861 1.391.005.051.011.1.015.151.565-.19 1.322-.221 1.653-.61.446-.529 1.027-.771 1.515-1.172a3.63 3.63 0 00.773-.913c.099-.159-.056-.482.049-.627.478-.647.053-1.124-.343-1.473C-1.647 1.067-2.51.713-3.354.097c-.245-.18-.504-.046-.777-.046h-.535c-.069 0-.134-.236-.205-.23zM49.259 10.509c-.211-.206-1.396-.562-1.547-.382-.345.406-.708.822-.945 1.294-.422.841-.488 1.733-.389 2.696.111 1.081.549 1.899 1.354 2.55.191.157.527.317.724.255.523-.171 1.214.142 1.582-.51.031-.057.181-.038.257-.081.267-.148.58-.263.773-.479.078-.089.145-.189.215-.283v-4.02c-.394-.288-.832-.512-1.369-.592-.239-.034-.466-.263-.655-.448zM-7.928 35.549c-.729-.448-1.35-1.09-2.25-1.298-.452-.104-.825-.24-1.265.024-.21.127-.5.127-.609.153-.17.355-.312.633-.435.917-.457 1.024-1.037 1.987-.216 3.165.372.533.485 1.206 1.11 1.625.483.33 1.526.787 1.997.484.676-.436 1.329-.942 1.876-1.527.281-.302.396-.828.438-1.265.085-.831.171-1.778-.646-2.278zM7.977 28.387c.41-.74.624-1.495-.024-2.235-.224-.253-.403-.545-.643-.777a3.699 3.699 0 00-.822-.611c-.355-.183-.766-.262-1.129-.434-.732-.353-1.144-.267-1.633.408-.207.284-.46.549-.613.861-.389.791-.657 1.656-.517 2.518.076.457.483.977.887 1.222.529.324 1.206.404 1.617.53.766-.009 2.618-1.012 2.877-1.482zM44.547 34.962c-.029 0-.059-.045-.14-.109.02-.055.021-.124.053-.147.428-.302.175-.631-.006-.894-.192-.275-.452-.359-.851-.226a3.551 3.551 0 00-1.758 1.267c-.493.657-.717 1.416-.688 2.265.027.755.506 1.2.952 1.703.008.009.019.016.027.023.791.859 2.395 1.107 3.28.437.859-.648.969-1.673 1.212-2.62.025-.102-.052-.259-.125-.356-.165-.22-.329-.442-.507-.644-.361-.41-.787-.726-1.449-.699zM13.359 51.826c-.162.034-.336.189-.428.339-.561.909-.47 1.938-.507 2.941 0 .034.026.069.041.106.315.755.636 1.475 1.374 1.975.76.516.968.59 1.739.086a4.072 4.072 0 001.727-2.465c.007-1.173-.512-2.118-1.329-2.693-.824-.579-1.717-.485-2.617-.289zM31.548 38.383c-.857-.706-1.044-.69-1.767-.107-.833.67-1.17 1.6-1.583 2.522-.224.5.183.747.296 1.057.247.663.347 1.543 1.331 1.677.144.021.264.202.429.335.118-.081.232-.212.299-.189.547.179.936-.135 1.373-.367.488-.257.72-.647.846-1.15.048-.187.177-.35.23-.537.078-.266.216-.565.161-.816-.218-1.013-.816-1.765-1.615-2.425zM2.163 59.48c.7-.724 1.462-1.381 1.79-2.417.267-.839.31-1.612-.326-2.214-.349-.33-1.083-.722-1.338-.571-.457.273-.756.006-1.087-.031l-.122-.016c-.375-.049-.683-.112-.862.37-.044.118-.193.202-.299.296-.067.062-.187.104-.203.178-.044.182-.014.378-.065.558-.155.547-.334 1.09-.486 1.572.076.274.084.479.183.622.39.581.782 1.157 1.22 1.696.093.112.289.178.513.2.398.044.891-.046 1.082-.243zM-3.478 49.418c.241-.271.388-.459.559-.624.472-.451 1-.858 1.429-1.35.5-.572.38-1.81-.146-2.353-.357-.365-.723-.605-1.272-.729-.496-.109-.982-.376-1.497-.265-.361.076-.753.255-1.006.506-.227.229-.273.633-.417.947-.427.946-.389 1.96.12 2.777a2.323 2.323 0 002.23 1.091zM35.164 1.953c.181-.053.386-.024.498-.028.287-.136.549-.202.732-.361.388-.332.318-.645.521-1.031.13-.251.257-.48.357-.48H33.08c.027 0 .163.918.473 1.484.301.547 1.01.601 1.611.416zM-18.555 2.636c-.355-.896-.911-1.581-1.979-1.655-.303-.021-.601-.175-.901-.173-.474.004-.699.43-.971.731-.515.569-.686 1.305-.628 2.023.096 1.193 1.026 1.821 1.93 2.407.25.167.59.19.878.277.128-.042.25-.049.33-.11.293-.22.6-.43.848-.693.208-.225.444-.502.484-.785.06-.444-.044-.916-.054-1.376-.006-.217.134-.468.063-.646zM-21.744 48.796c-.166-.118-.597-.112-.731.019-.915.884-1.19 2.037-1.051 3.245.056.486.44.934.679 1.401.471.919 1.105 1.078 2.008.635.711-.348 1.593-1.673 1.664-2.514-.173-.375-.325-.757-.52-1.12-.447-.832-1.327-1.162-2.049-1.666zM8.246 42.171c.832-.101 1.406-.608 1.887-1.245.237-.313.653-.643.648-.957-.006-.521-.202-1.092-.471-1.551-.544-.936-1.466-1.135-2.482-1.035-.257.029-.521.043-.771.109-.121.03-.275.138-.311.245-.202.611-.445 1.22-.54 1.854-.166 1.145-.025 2.065 1.347 2.551.208.075.466.057.693.029zM39.576 55.905c-.144-.451-.333-.965-.669-1.255-.377-.33-.927-.518-1.431-.63-.313-.068-.688.102-1.026.194-.169.049-.374.135-.461.269-.406.624-.783 1.267-.733 1.875-.021 1.392.855 2.065 1.574 2.83.042.039.179.018.262-.011.199-.055.39-.191.585-.191.424-.002.74-.149.979-.49.2-.291.369-.624.632-.845.623-.534.555-.928.288-1.746zM25.778 20.305c.898-.083 1.768-.324 2.149-1.317.038-.101.224-.134.306-.229.195-.22.505-.444.524-.688.031-.423.026-1.01-.227-1.261-.751-.745-1.638-1.346-2.616-1.264-1.553.279-1.505.129-1.677 1.54-.012.108-.068.214-.079.324-.088.884.01 1.735.673 2.393.251.245.646.531.947.502zM47.919-.269c-.096.328-.257.653-.272.989-.031.728-.039 1.461.039 2.183.042.38.111.828.673.953.303.07.573.333.83.541.382.308 1.063.333 1.425.008.221-.194.469-.376.669-.587V.869c-.051-.039-.084-.088-.145-.12-.357-.192-.711-.434-.824-.896-.025-.104-.263.071-.412.016-.104-.035-.23.182-.344.182h-.98c-.183 0-.354-.046-.53.055-.042-.042-.085-.332-.129-.375zM37.901 24.404c.889.108 1.193-.672 1.709-1.102.166-.138.224-.412.32-.625.275-.616.078-1.238.01-1.852-.02-.2-.028-.488-.15-.564-.573-.371-1.151-.796-1.91-.564a.595.595 0 01-.273.032c-.803-.137-1.281.2-1.426 1.008-.025.14-.052.286-.106.416-.394.922-.246 1.82.229 2.638.34.587.993.625 1.597.613zM-22.702 23.414c-.026-.086-.083-.287-.167-.576-.277.218-.578.335-.661.54-.419 1.014-1.032 2.035-.535 3.183.58 1.337 1.259 2.175 2.761 1.154.267-.183.483-.446.694-.7.46-.545.516-1.216.491-1.887-.011-.294-.147-.588-.229-.882l.105-.124c-.792-.23-1.587-.457-2.459-.708zM48.872 83.518c.157.149.469.185.712.192.808.028 1.33-.394 1.7-1.015v-2.946c-.351-.091-.72-.132-1.065-.238-.615-.185-1.216-.414-1.818-.624-.815 1.419-.607 3.593.471 4.631zM26.605 59.319c-.36.204-.634 1.78-.379 2.121.43.579.916 1.112 1.407 1.645.109.117.353.22.499.184 1.146-.269 2.083-.875 2.482-2.01.126-.363.003-.985-.25-1.277-.539-.623-1.317-.847-2.156-.664-.166.033-.312.156-.468.232-.018.01-.05-.012-.1-.022.044-.142.089-.276.17-.522-.457.114-.877.129-1.205.313zM22.841 31.915c.192.107.547.127.728.02.881-.541 1.703-1.144 2.055-2.204.231-.71-.254-1.793-.977-1.909-.566-.095-1.154-.083-1.734-.106-.062-.004-.14.049-.191.097-.704.648-1.26 1.375-1.254 2.413.048.27.003.627.162.792.347.356.774.652 1.211.897zM12.965 4.954c.3.079.661.188.917.09.248-.096.424-.428.587-.687.312-.48.579-.992.888-1.477.528-.828.275-1.769-.628-2.144a7.694 7.694 0 00-1.364-.414c-.491-.11-1.221.444-1.282.946-.066.536-.105 1.077-.14 1.453.055 1.005-.108 1.945 1.022 2.233zM45.957 45.998c-.139-.055-.216-.267-.335-.425-.29 0-.646-.084-.942.016-1.223.425-2.309 2.369-1.231 3.591.767.865 1.243.733 2.306.225.594-.289.714-.912 1.171-1.279.146-.118.179-.506.113-.722-.184-.587-.435-1.147-1.082-1.406zM-33.059 26.549c-.521-.261-.83-.104-1.07.35-.192.362-.379.726-.543 1.102-.421.965-.087 2.352.749 2.971.152.114.488.137.654.045.409-.224.846-.477 1.126-.833.43-.547 1.068-1.012 1.109-1.894-.138-.243-.296-.479-.411-.732-.318-.704-1.042-.722-1.614-1.009zM40.962 68.78c-.143-.012-.405.263-.44.44-.128.601-.189 1.214-.258 1.824-.094.839.69 1.867 1.522 1.983.165.023.408-.018.512-.127.673-.702 1.254-1.465 1.273-2.599-.242-.339.105-1.075-.644-1.233a14.19 14.19 0 00-1.965-.288zM-23.869 38.991c.266.306.723.667 1.074.645.937-.051 1.299-.908 1.718-1.602.14-.23.229-.637.116-.841-.314-.569-.591-1.227-1.325-1.402-.292-.069-.443-.18-.451-.516-.004-.188-.179-.371-.312-.62-.139.149-.221.211-.272.296-.274.461-.6.902-.801 1.396-.376.906-.424 1.847.253 2.644zM50.895 50.775c-.07.077-.053.229-.098.34-.194.471-.441.93-.583 1.413-.214.732.349 1.66 1.067 1.99v-4.063c-.117.035-.276.201-.386.32zM31.9 10.674c.214-.261.371-.581.616-.802.475-.43.614-.959.362-1.534-.11-.249-.156-.523-.243-.822-.379-.178-.833-.403-1.301-.606-.645-.28-1.166-.021-1.341.649-.042.161-.104.316-.127.48-.134.863-.296 1.714.288 2.518.388.537 1.311.645 1.746.117zM18.354 43.662c.31.089.53.455.828.624.175.097.444.105.644.049.341-.092.659-.267 1.061-.439-.321-.392-.301-.681.018-1.02.336-.357.344-.794-.02-1.186-.497-.534-1.068-.935-1.814-1.016-.469-.055-1.276.376-1.297.708-.031.473-.074.959.015 1.414.062.317.071.727.565.866zM-32.723 35.153c-.241.296-.549.525-.655.828-.375 1.063.009 2.163.935 2.829.355.256.771.264 1.177-.092.524-.463.713-1.047.809-1.685.057-.389-.61-1.298-.971-1.228-.615.118-.913-.26-1.295-.652zM25.307 51.43c-.259-.891-1.159-.632-1.726-.967-.028-.014-.122.023-.144.059-.31.504-.609 1.013-.79 1.313.008 1.053.685 1.852 1.465 1.965.234.036.496.206.65-.226.105-.296.438-.518.685-.75.506-.475.513-.734.007-1.224-.053-.054-.129-.103-.147-.17zM49.345 63.149a3.833 3.833 0 00-.233.791c-.167.971-.189 1.561.947 1.983.628.235 1.06.031 1.224-.582v-2.536c-.516-.149-1.051-.247-1.567-.367-.134.259-.274.474-.371.711zM-24.369 13.867c-.271.551-.5 1.124-.741 1.689.053.01.105.02.158.025-.258.768.242 1.073.789 1.261.271.093.722.093.902-.073.407-.373.708-.867 1.025-1.33.072-.105.085-.29.05-.419-.125-.459-1.277-1.358-1.751-1.356-.15-.001-.375.087-.432.203zM-7.707 190.114c.695-1.194.371-2.326-.729-3.162-1.322-1.006-2.815-1.072-4.342-.819-.647.102-1.291.396-1.692.997-.226.337-.421.695-.641 1.036-.707 1.103-.563 2.177.259 3.2.289.358.715.518.953.875.581.883 1.576.896 2.522 1.347.671-.339 1.506-.562 2.038-1.086.678-.664 1.149-1.551 1.632-2.388zM-26.231 188.363c-.133-.208-.139-.498-.167-.607-.359-.161-.639-.295-.925-.414-1.036-.43-2.012-.99-3.172-.144-.523.384-1.194.517-1.601 1.151-.313.487-.75 1.542-.438 2.006.449.665.973 1.306 1.57 1.837.307.273.836.378 1.276.411.83.062 1.778.13 2.262-.697.43-.741 1.058-1.376 1.245-2.283.098-.452.225-.829-.05-1.26zM-36.121 197.125c.098-.5.355-.988.231-1.502-.087-.357-.271-.745-.534-.994-.232-.224-.634-.259-.953-.395-.957-.403-1.971-.343-2.774.181a2.334 2.334 0 00-1.039 2.257c.275.232.469.373.636.545.462.463.883.979 1.383 1.396.585.486 1.821.341 2.35-.2.357-.366.59-.737.7-1.288zM-35.838 182.686c-.904-.893-2.063-1.144-3.269-.975-.486.065-.924.461-1.384.708-.91.494-1.053 1.132-.589 2.024.365.702 1.71 1.556 2.552 1.605.369-.18.75-.339 1.106-.542.821-.471 1.133-1.358 1.618-2.088.113-.172.099-.601-.034-.732zM-41.204 177.492c.37-.18.75-.341 1.107-.545.82-.471 1.132-1.354 1.618-2.085.114-.168.098-.6-.033-.732-.906-.892-2.065-1.143-3.27-.975-.486.066-.925.458-1.384.707-.91.492-1.054 1.132-.588 2.025.362.703 1.708 1.554 2.55 1.605zM-39.81 162.737c.373-.181.753-.337 1.109-.541.821-.472 1.129-1.356 1.618-2.089.112-.167.098-.601-.035-.732-.904-.894-2.063-1.145-3.268-.977-.486.068-.927.459-1.387.712-.908.492-1.052 1.129-.588 2.022.364.703 1.711 1.556 2.551 1.605zM-19.185 179.028c.559.445 1.231.488 1.9.447.294-.017.583-.161.876-.249a5.6 5.6 0 00.125.102c.212-.798.422-1.597.651-2.473.086-.029.288-.09.575-.179-.224-.274-.349-.57-.555-.653-1.025-.394-2.06-.983-3.196-.459-1.322.61-2.144 1.308-1.09 2.785.187.265.456.475.714.679zM-19.377 165.512a14.994 14.994 0 00-1.113-.521c-.977-.396-2.351-.03-2.954.816-.11.157-.125.492-.03.657.234.401.498.837.86 1.108.557.417 1.038 1.041 1.919 1.063.241-.144.471-.307.724-.428.694-.333.696-1.057.969-1.636.247-.528.083-.83-.375-1.059zM-31.229 176.047c-.303.271-.653.736-.624 1.084.074.938.94 1.28 1.641 1.683.233.133.645.216.846.096.561-.324 1.214-.618 1.372-1.355.063-.294.167-.447.504-.463.187-.01.365-.188.612-.326-.152-.135-.218-.218-.301-.267-.469-.262-.918-.577-1.414-.768-.916-.351-1.855-.382-2.636.316zM21.294 192.071c-.429 1.094-.131 2.237-.104 3.359a.308.308 0 00.099.19c.816.759 1.568 1.658 2.911 1.294l.02.152c.557-.21 1.314-.265 1.628-.669.427-.545.996-.804 1.472-1.226.297-.259.543-.596.738-.94.091-.165-.075-.483.025-.629.453-.665.01-1.126-.397-1.461-.808-.66-1.693-1.226-2.56-1.812-.466-.319-.96-.306-1.527-.217-.527.082-1.075.137-1.421.5-.384.408-.676.935-.884 1.459zM18.726 205.458c-.807-.661-1.693-1.225-2.56-1.815-.464-.314-.96-.3-1.526-.217-.529.084-1.076.139-1.423.506-.382.402-.674.933-.883 1.455-.43 1.092-.127 2.236-.102 3.357a.31.31 0 00.095.19c.817.761 1.574 1.656 2.912 1.292.004.055.013.105.02.154.559-.21 1.312-.267 1.628-.669.427-.543.998-.806 1.472-1.224.295-.261.543-.6.737-.941.093-.163-.075-.482.026-.629.454-.661.012-1.124-.396-1.459zM32.706 180.352c.475.173 1.123.333 1.521.141.624-.298 1.104-.9 1.644-1.378.014-.012.017-.036.021-.053.063-.329.163-.657.184-.99.037-.569.14-1.173.003-1.708-.16-.642-.542-1.226-.803-1.789-.568-.014-1.063-.032-1.559-.036-.518-.007-.895.32-1.332.592-.349-.481.126-.749.268-1.185-.318-.195-.573-.244-.88.136-.947 1.173-1.101 2.559-1.088 3.962.006 1.296.946 1.919 2.021 2.308zM13.048 182.466c.046.274.071.557.146.82.248.89.724 1.565 1.667 1.859.401.124.602.39 1.135-.012.613-.457 1.224-.893 1.69-1.49.257-.328.514-.748.538-1.138a1.958 1.958 0 00-.383-1.231c-.432-.562-.939-1.114-1.532-1.486-.365-.229-.979-.247-1.422-.131-1.044.269-1.852 1.616-1.839 2.809zM10.038 193.677c-.387-.882-.969-1.547-2.038-1.583-.303-.01-.608-.15-.908-.137-.474.023-.684.459-.945.769-.493.584-.635 1.328-.551 2.043.142 1.191 1.092 1.783 2.017 2.336.257.155.596.167.891.241.125-.043.245-.056.323-.122.285-.23.585-.449.822-.724.201-.231.426-.523.454-.803.044-.446-.078-.915-.104-1.374-.014-.212.118-.469.039-.646zM1.538 184.368c-.124-.118-.287-.191-.458-.259-.21-.081-.432-.152-.614-.274-.383-.251-.946.035-1.232-.463-.086-.151-.295-.371-.395-.348-.286.069-.711.188-.793.396-.327.851-.544 1.745-.778 2.536.188.615.277 1.096.484 1.522.264.537.539 1.127 1.328 1.031.226-.027.504-.103.672-.005.429.249.677-.129.757-.308.175-.392.376-.774.569-1.158.283-.566.545-1.141.66-1.77.054-.286-.009-.722-.2-.9zM43.911 171.946c.176.286.397.59.678.753.563.323 1.072.506 1.798.051.706-.443 1.02-1.157 1.611-1.649.146-.118.113-.447.146-.595-.188-1.199-.33-1.883-1.627-2.101-.551-.092-1.124-.082-1.689-.076-.206.002-.537.072-.597.206-.352.78-.911 1.517-.72 2.444.07.338.218.673.4.967zM20.469 169.116a.368.368 0 00-.694.034c-.315.931-.584 1.875-.87 2.812.055.019.107.033.16.049-.026.798.424 1.428.963 1.863.382.306 1.045.319 1.588.353.167.008.373-.337.535-.54.1-.124.122-.304.22-.423.33-.408.692-.794 1.021-1.206.317-.401.184-.837-.132-1.117-.351-.314-.804-.517-1.222-.748-.56-.306-1.268-.353-1.569-1.077zM25.004 182.899c.381.309 1.044.32 1.587.354.168.008.374-.339.536-.543.1-.118.121-.302.221-.422.329-.408.691-.794 1.019-1.204.317-.403.185-.837-.131-1.12-.351-.31-.803-.516-1.224-.746-.558-.307-1.266-.354-1.566-1.077-.139-.328-.584-.296-.697.035-.317.928-.583 1.872-.868 2.81.054.018.104.036.16.051-.026.795.425 1.427.963 1.862zM43.453 188.508c.303.064.668.16.921.053.245-.105.405-.443.561-.706.292-.492.542-1.016.832-1.512.499-.843.208-1.776-.701-2.118a8.238 8.238 0 00-1.38-.36c-.495-.091-1.206.487-1.249.996-.046.537-.063 1.079-.085 1.455.086.999-.04 1.941 1.101 2.192zM-28.438 166.471c-1.073-.35-2.164.059-2.809 1.002-.245.358-.245.773.12 1.172.474.514 1.061.688 1.703.771.388.047 1.283-.639 1.204-1-.133-.611.241-.917.622-1.308-.302-.235-.539-.539-.84-.637zM-17.55 87.252c-.932.211-1.849.479-2.777.704-.905.222-1.356.9-1.73 1.659-.192.39-.091.697.225 1.002.501.481.969 1 1.444 1.508.092.098.141.255.251.315.786.434 1.568.848 2.518.398.438-.208 1.081-.858 1.11-1.345.015-.217-.095-.438-.08-.649.005-.109.164-.208.251-.31.079.004.159.012.236.018-.178-.473-.266-1.014-.558-1.401-.328-.438-.506-.835-.408-1.371.066-.36-.096-.614-.482-.528zM-14.781 56.448c-.191.391-.091.702.224 1.002.502.484.969 1.004 1.447 1.512.09.096.14.253.25.312.786.434 1.567.847 2.516.399.439-.208 1.083-.857 1.113-1.343.013-.218-.095-.441-.081-.653.007-.107.164-.208.25-.308.08.004.159.008.238.016-.179-.473-.267-1.012-.56-1.401-.326-.436-.506-.833-.408-1.369.064-.358-.097-.615-.482-.526-.932.21-1.85.479-2.778.703-.905.219-1.355.897-1.729 1.656zM9.871 67.031c-.515-.612-.258-1.01.041-1.516.082-.142.077-.365.042-.537-.038-.188-.157-.357-.243-.532-.171-.062-.361-.096-.512-.191-.537-.348-1.059-.714-1.756-.433-.095.041-.221.013-.333.004-.678-.047-1.241.237-1.666.719-.413.465-.901.958-.492 1.688.033.057-.003.148 0 .222.047.73.293 1.437.836 1.881.665.543 1.463.929 2.228 1.341.202.108.599.172.72.06.34-.321.584-.743.868-1.125.017-.021.051-.033.083-.054l.104.294c.334-.643.488-1.341.08-1.821zM-35.821 85.02c-.014-.402-.146-.8-.22-1.177.546-.176.841-.345.677-1.019-.172-.699-.264-1-.89-1.039a11.792 11.792 0 00-1.617.006c-1.087.084-1.979.551-2.55 1.508-.187.317-.281.687-.44 1.022-.317.651.25 2.07.944 2.298.335.112.688.167 1.029.268.283.08.69.356.816.259.429-.335.893-.118 1.319-.23.185-.049.38-.094.538-.191.702-.426.413-1.111.394-1.705zM14.942 63.654c-.257.49-.475 1.047-.514 1.59-.042.599.143 1.212.215 1.72.274.071.528.06.605.169.353.522.909.681 1.443.876.478.177.888.129 1.308-.263.704-.661 1.353-1.285 1.005-2.387-.057-.185.131-.443.207-.667.058.008.116.021.172.03-.375-.813-1.059-1.285-1.815-1.724-1.139-.662-2.026-.494-2.626.656zM25.648 69.321c.066.489.62.539.84.884.396.632 1.049.659 1.628.557.607-.109 1.172-.451 1.75-.688-.003-.006.03.102.083.265.195-.265.332-.477.497-.67.377-.439.477-1.047.229-1.551-.082-.171-.204-.328-.257-.506-.315-1.016-.688-1.081-1.639-1.194-.362-.045-.746.033-1.116.068-1.584.155-2.21 1.384-2.015 2.835zM-37.027 95.745c.585-.232.885-.534.758-1.09-.161-.699-.513-1.36-.366-2.113.011-.056-.092-.173-.166-.204-.348-.146-.727-.235-1.057-.414-.72-.39-1.374-.223-2.026.149-1.025.463-1.214 1.471-1.542 2.385-.037.102.104.294.204.415.169.208.478.363.538.591.134.521.5.38.835.411.263.024.52.099.782.143.435.069.869.133 1.304.2.053-.445.486-.371.736-.473zM39.43 96.759c-.985-.21-1.968.392-2.693-.264-.345.185-.755.274-.942.531-.625.86-1.414 1.695-1.044 2.92.061.197.209.366.252.566.102.481.48.648.866.7.814.114 1.637.157 2.491.231.149-.431.322-.824.422-1.239.077-.32-.014-.691.109-.98.147-.343.024-.493-.204-.691-.067-.055-.075-.326-.044-.339.661-.272.457-.941.787-1.435zM-.141 73.043c-.04-.159-.053-.324-.077-.488-.106-.687-.178-1.381-.33-2.057-.098-.42-.753-.675-1.169-.5-.568.241-1.131.494-1.678.778-.557.289-1.057 1.323-.959 1.902.093.527.189 1.055.273 1.534.263.061.459.047.58.141.807.614 1.647.449 2.512.174.703-.22 1.029-.77.848-1.484zM3.521 95.237c.934.012 1.967.023 3.159.037-.002-.423.067-.917-.03-1.376-.104-.479-.094-.787.378-1.057.507-.29.559-.716.233-1.159-.049-.067-.128-.113-.208-.182.115-.041.197-.069.282-.096-.129-.604-.577-.69-1.035-.57-.571.151-1.108.42-1.666.616-1.001.343-1.555 1.146-1.996 2.014-.158.306-.187.748.211 1.053.243.181.423.448.672.72zM13.233 77.103c-.829-.289-1.682-.155-2.64.341-.175.209-.631.521-.721.919-.125.564.013 1.193.055 1.794.002.043.141.075.215.107.427.186.872.333 1.273.556.336.188.642.481 1.046.273.428-.218.982-.12 1.241-.777.285-.725.22-1.431.273-2.152.042-.588-.351-.928-.742-1.061zM-21.637 72.006c-.633.131-1.549 1.169-1.461 1.742.096.631.354 1.284 1.009 1.576.459.206.977.266 1.444.457.364.149.661.068.975-.086.609-.3 1.229-1.514 1.056-2.112-.154-.539-.326-1.073-.491-1.611-.154.018-.36.106-.456.037-.697-.491-1.396-.14-2.076-.003zM-7.709 80.141c-.234-.228-.634-.277-.892-.493-.437-.365-.726.043-1.036.16-.579.219-1.131.513-1.665.824-.627.363-.33 1.067-.507 1.597-.122.361.019.59.403.755 1.053.443 2.137.41 3.232.315.054-.006.104-.047.105-.047.296-.223.604-.371.791-.61.206-.265.483-.571.073-.959-.162-.15-.282-.568-.187-.726.281-.463-.13-.632-.317-.816zM34.486 81.829c-.693.265-1.057.796-1.277 1.516-.37 1.198-.034 2.136.975 2.604.368-.479.381-.504 1.054-.232.331.133.602.208.867-.083.27-.292.541-.579.805-.873.035-.04.06-.137.039-.159-.335-.325.014-.616.039-.921.012-.144.093-.324.035-.426-.406-.722-.919-1.343-1.797-1.49a1.544 1.544 0 00-.74.064zM-15.912 68.509c-.03.186.542.478.851.704.178.131.376.235.573.341.541.292 1.711.179 2.11-.271.325-.365.68-.738.577-1.338-.062-.361.044-.747.042-1.122-.001-.155-.044-.384-.152-.459-.917-.639-1.862-.618-2.814-.062-.031.018-.063.038-.098.051-1.02.377-.959 1.35-1.089 2.156zM1.327 85.336c.13.169.162.272.458.138.334-.155.782-.051 1.183-.071.27-.012.537-.041.806-.063.427-.324 1.043-1.696.793-2.075a3.047 3.047 0 00-1.026-.945c-.892-.491-1.749-.028-2.442.435-.008.005-.013.016-.02.021-.382.279-.548.954-.68 1.481-.056.228.047.673.521.73.055.006.107.04.159.081.091.07.176.178.248.268zM24.841 79.758c-.085-.645-.91-1.185-1.505-.942-.404.16-.789.368-1.236.578-.664.262-.56 1.034-.857 1.56-.106.191.044.767.194.821.667.231 1.177 1.043 2.039.61.061-.031.15.004.223-.016.268-.063.648-.052.771-.221.336-.481.972-.896.558-1.658-.119-.218-.154-.485-.187-.732zM-26.064 60.253c-.403.163-.79.371-1.236.581-.664.261-.558 1.034-.855 1.559-.108.192.041.769.195.822.666.229 1.177 1.043 2.036.611.062-.03.151.002.223-.018.265-.062.65-.051.77-.22.336-.481.975-.899.558-1.659-.115-.214-.151-.481-.185-.731-.086-.645-.909-1.184-1.506-.945zM-46.516 87.577c-.115-.218-.151-.483-.184-.731-.085-.648-.909-1.186-1.505-.945-.403.163-.79.369-1.236.581-.665.257-.558 1.032-.857 1.559-.107.19.043.765.196.82.667.23 1.177 1.045 2.038.611.062-.03.148.004.223-.016.265-.062.649-.051.769-.222.335-.482.972-.896.556-1.657zM8.37 122.336c.666.229 1.177 1.043 2.036.609.062-.028.151.005.224-.016.265-.059.65-.047.768-.218.336-.482.975-.897.559-1.661-.117-.213-.152-.48-.186-.731-.085-.646-.91-1.186-1.505-.942-.403.159-.79.367-1.236.577-.664.259-.56 1.034-.855 1.561-.108.192.041.768.195.821zM25.905 130.812c.062-.028.15.007.224-.014.266-.062.648-.051.77-.222.336-.482.974-.897.559-1.657-.115-.218-.151-.483-.184-.731-.086-.649-.91-1.188-1.507-.945-.402.161-.791.371-1.234.581-.665.259-.561 1.029-.858 1.559-.107.192.043.768.197.82.662.231 1.175 1.044 2.033.609zM37.333 121.322c.062-.03.15.004.223-.017.268-.062.649-.051.77-.22.338-.481.975-.898.559-1.659-.114-.216-.15-.481-.184-.731-.087-.648-.908-1.188-1.504-.945-.406.163-.791.371-1.237.583-.663.257-.56 1.027-.858 1.559-.107.19.043.768.196.822.666.227 1.175 1.041 2.035.608zM-55.201 127.692c.06-.031.149.002.222-.014.268-.063.649-.052.77-.225.338-.48.975-.895.56-1.656-.115-.217-.151-.482-.184-.733-.086-.645-.91-1.183-1.506-.941-.405.158-.79.366-1.236.578-.664.26-.561 1.033-.857 1.562-.107.188.043.767.195.819.665.23 1.174 1.045 2.036.61zM-43.729 139.304c-.109.19.042.77.194.819.667.229 1.177 1.045 2.038.61.062-.032.149.004.223-.017.267-.061.65-.049.771-.219.336-.482.975-.897.557-1.659-.115-.216-.15-.481-.184-.732-.085-.645-.91-1.181-1.505-.942-.404.161-.79.369-1.236.581-.666.256-.561 1.031-.858 1.559zM-29.436 83.888l-.022.169c.232.168.427.304.616.451.306.234 1.402.477 1.737.397.066-.02.155.062.235.079.132.033.268.08.398.074.427-.019.811-.21.871-.635.085-.612.277-1.379.007-1.828-.333-.551-1.025-1.075-1.839-.845-.619.172-1.308.343-1.771.743-.273.238-.167.917-.232 1.395zM-24.567 109.002c.29.025.532.083.77.066.895-.072 1.027-.309.708-1.155-.174-.465-.403-.928-.482-1.412-.062-.378-.223-.44-.539-.485-.859-.114-1.483.414-2.13.804-.292.178-.567.586-.605.919-.071.575.782 1.373 1.4 1.434.248.024.5-.004.75-.01l-.054.269c.06-.145.122-.286.182-.43zM20.374 89.417c-.638.037-1.271.167-1.91.194-1.007.047-1.204.808-1.458 1.539-.165.479.194.735.497.869.504.216 1.07.296 1.61.437.333-.357.697-.62.882-.976.282-.54.178-1.243.685-1.708.006-.008-.207-.359-.306-.355zM-2.292 92.399c.391-.769.588-1.53-.062-2.267-.126.07-.24.174-.369.194-.466.075-.942.096-1.405.183-.751.133-1.28.773-1.199 1.444.03.251.146.487.225.736.149.008.372-.047.502.033.748.475 1.417-.245 2.139-.116.044.007.126-.128.169-.207zM-6.123 174.97c-.559-.259-1.136-.475-1.709-.704a6.79 6.79 0 01-.022.159c-.77-.239-1.065.269-1.238.814-.085.275-.077.729.092.9.385.399.885.688 1.354.996.105.07.292.081.418.04.459-.137 1.331-1.307 1.316-1.783-.003-.145-.098-.369-.211-.422zM1.816 175.711c.458-.14 1.331-1.311 1.316-1.785-.004-.149-.099-.371-.213-.425-.56-.259-1.137-.473-1.709-.702l-.022.161c-.04-.012-.072-.015-.109-.022-.688-.156-.963.316-1.129.838-.086.273-.077.725.09.9.299.307.669.549 1.038.786.106.068.212.139.318.208.106.071.292.079.42.041zM50.54 202.993c-.345-.272-.714-.506-1.121-.792l.498-.235c-.393-.039-.624-.072-.857-.084-.852-.045-1.568-.706-2.49-.51-.312.069-2.013.581-2.163.896-.354.733-.688 1.488-.931 2.266a3.27 3.27 0 00-.109 1.467c.206 1.224 1.921 2.738 3.155 2.66.942-.061 1.942-.286 2.773-.714.899-.463 1.533-1.335 1.936-2.306.023-.058.037-.12.055-.179v-1.292c-.132-.468-.387-.898-.746-1.177zm-1.563.841c-.369-.105-.735-.259-1.109-.29-.253-.022-.518.137-.778.211-.333.094-.222.337-.257.581-.064.424-.267.828-.403 1.22-.41-.365-.339-1.135.214-1.806.62-.749 1.42-.773 2.373-.068-.014.048-.026.101-.04.152zM27.425 206.813c-.172.806-.051 1.661.681 2.242.261.206.561.364.852.522.823.445 1.665.261 2.289-.439.142-.153.405-.204.619-.282.404-.149.899-.189 1.202-.451.305-.267.424-.745.627-1.129.523-1.004.37-1.922-.292-2.816-.355-.482-.846-.62-1.36-.845-.596-.264-.981-.153-1.355.125-.416-.223-.764-.565-1.095-.547-.523.022-1.031.281-1.234.875-.316.917-.736 1.807-.934 2.745zm3.094-2.542c-.266.185-.528.369-.818.568-.025-.548.19-.756.818-.568zM2.458 209.409c.635-.276 1.136-.86 1.692-1.315.015-.011.019-.034.023-.054.077-.327.188-.652.22-.98.059-.573.182-1.169.068-1.71-.139-.647-.496-1.246-.739-1.816-.567-.035-1.061-.072-1.554-.099-.414-.019-.748.177-1.089.384a6.166 6.166 0 01-.265.157c-.302-.452.079-.7.265-1.069.017-.033.034-.065.047-.102-.016-.011-.031-.016-.047-.024-.29-.183-.536-.225-.838.129-.99 1.136-1.193 2.512-1.234 3.919-.039 1.294.879 1.953 1.936 2.381.042.019.093.032.138.049.449.17 1.008.311 1.377.15zM-11.773 203.859c-.358-.24-.97-.279-1.417-.182-1.051.226-1.909 1.547-1.942 2.741.038.271.052.557.116.822.215.899.665 1.591 1.598 1.918.396.14.586.414 1.135.032.628-.434 1.256-.847 1.744-1.426.268-.32.54-.727.578-1.118a1.963 1.963 0 00-.335-1.243c-.414-.577-.9-1.15-1.477-1.544zM37.355 212.723c-.174-.541-.408-.972-1.018-1.071-.53-.086-1.06-.113-1.592-.201-.067-.012-.149-.044-.198-.022-.625.275-1.169.309-1.331 1.155-.101.535-.158 1.337-.139 1.337h4.213c.174.001.249-.64.065-1.198zM-28.97 206.807c-.083-.153-.278-.382-.379-.361-.293.06-.72.159-.809.365-.357.837-.609 1.724-.873 2.502.167.622.236 1.108.426 1.542.243.547.498 1.147 1.29 1.08.227-.02.509-.086.673.021.418.267.681-.102.768-.279.471-.948 1.106-1.831 1.338-2.881.062-.283.015-.72-.168-.907-.265-.271-.729-.339-1.053-.573-.373-.266-.947.001-1.213-.509zM13.964 199.345c.553.347 1.053.547 1.797.117.721-.416 1.06-1.115 1.668-1.584.148-.116.132-.447.169-.593-.143-1.201-.259-1.892-1.549-2.158-.547-.112-1.12-.124-1.682-.138-.208-.006-.541.054-.606.186-.378.767-.966 1.48-.811 2.414.058.339.193.681.364.982.168.289.378.605.65.774zM48.672 214.387h.768c-.039-.015-.088-.017-.117-.043-.269-.27-.451-.052-.651.043zM-7.839 198.088c.37.323 1.031.358 1.572.411.169.017.388-.32.556-.518.104-.12.135-.3.236-.417.346-.398.72-.767 1.064-1.165.333-.39.215-.83-.089-1.122-.338-.33-.784-.547-1.194-.791-.545-.331-1.253-.403-1.526-1.138-.124-.333-.573-.316-.697.011-.349.913-.65 1.851-.971 2.777.051.018.104.037.157.053-.056.799.372 1.446.892 1.899zM35.428 197.396c.021.467.302.957.573 1.367.519.767 1.713.775 2.107.088.146-.257.354-.514.597-.678.794-.534 1.012-1.691.409-2.405a.85.85 0 00-.297-.21c-.529-.239-1.067-.463-1.594-.702-.049-.022-.047-.163-.104-.39-.483.588-.929 1.024-1.24 1.545-.249.414-.474.927-.451 1.385z"/><path fill="#010101" d="M-84.109 96.332c-.652.069-1.312.324-1.747.899-.245.325-.458.67-.696 1.004-.77 1.057-.686 2.14.076 3.204.268.375.687.558.902.931.529.911 1.522.98 2.443 1.485.689-.302 1.535-.475 2.096-.971.713-.624 1.234-1.482 1.764-2.291.758-1.152.5-2.3-.549-3.197-1.266-1.078-2.751-1.227-4.289-1.064zM-76.98 182.929c.283 1.07.855 1.906 1.925 2.341.743.302 1.831.21 2.125-.343.501-.945.938-1.941.609-3.071-.051-.182-.028-.384-.04-.538.243.09.421.229.53.187 1.223-.465 1.748-1.371 1.621-2.485-.181-.271-.287-.417-.38-.573-.096-.151-.145-.349-.272-.465-1.277-1.15-2.852-1.28-4.437-1.104-.814.088-1.334.819-1.805 1.444-.574.774-.515 1.685-.356 2.573.121.688.3 1.361.48 2.034zM-56.286 161.894c.858.389 2.071.116 2.67-.602.281-.333.53-.692.829-1.09.066.157.104.245.217.504.052-.39.093-.622.113-.853.076-.85.762-1.545.593-2.473-.056-.312-.514-2.033-.822-2.191-.722-.38-1.463-.738-2.233-1.006a3.22 3.22 0 00-1.461-.161c-1.231.167-2.802 1.828-2.764 3.066.028.942.219 1.948.619 2.79.429.919 1.282 1.58 2.239 2.016zm2.042-4.521c.727.646.724 1.444-.01 2.375-.051-.018-.101-.027-.149-.043.114-.369.281-.726.324-1.1.029-.253-.122-.524-.185-.787-.084-.339-.333-.233-.571-.276-.422-.079-.821-.292-1.208-.444.381-.397 1.149-.301 1.799.275zM-87.938 170.13c.455-.261.987-1.812 1.125-2.43.11-.49.033-.91-.082-1.368-.07-.284.048-.616-.011-.906-.092-.471-.15-1.008-.419-1.369-.615-.833-1.598-.918-2.548-.982-.797-.06-1.514-.118-2.277.477-.832.646-1.241 1.324-1.235 2.326-.005 1.316.224 2.565 1.155 3.578.742.804 1.546 1.519 2.776 1.179.516-.144 1.064-.246 1.516-.505zM-58.034 173.656c-.286-.426-.568-.883-.955-1.206-1.167-.976-2.412-1.734-4.042-1.759-.752-.011-1.332.09-1.802.661-.524.639-1.138 1.231-.841 2.215.088.295-.014.675-.109.99-.201.668-.138 1.253.412 1.72.64.545 1.325 1.04 2.17 1.182.715.119 1.493.345 2.151.172.573-.153 1.124-.727 1.482-1.249.295-.428.295-1.057.42-1.577.23-.09.519-.127.694-.287.242-.214.736-.387.42-.862zM-77.939 123.589c1.4-.586 2.646-1.365 2.815-3.091.005-.055.052-.098.076-.151.385-.891.185-1.763-.317-2.479-.797-1.138-2.044-1.506-3.509-1.613-.193.023-.504.074-.82.1-1.427.105-2.784 1.867-2.443 3.236.206.82.502 1.616.774 2.414.042.125.162.239.27.326.204.161.536.255.619.459.231.566.698.751 1.207.825.436.066.945.135 1.328-.026zm-1.706-3.026c.358.323.701.662 1.051.99.438.408 1.126.298 1.841-.222-.111.163-.194.356-.337.485-.804.721-1.331.837-2.019.07-.381-.427-.837-.763-.926-1.473.177.072.311.08.39.15zM-69.64 107.328c.516.465.734 1.051 1.121 1.555.238.312.555.581.885.8.156.104.485-.039.623.072.633.498 1.125.088 1.487-.294.717-.757 1.343-1.603 1.989-2.424.349-.442.371-.937.323-1.51-.044-.531-.061-1.083-.399-1.451-.376-.411-.883-.74-1.391-.983-1.061-.506-2.22-.287-3.343-.337-.066-.006-.147.033-.198.08-.813.763-1.765 1.451-1.497 2.812-.051.002-.103.008-.154.01.173.568.176 1.328.554 1.67zM-51.38 135.117c-.903-.343-1.78-.796-2.712-1.025-.799-.196-1.654-.105-2.261.607-.214.253-.383.547-.551.833-.473.811-.315 1.655.36 2.304.153.145.191.41.262.626.139.412.162.904.414 1.214.253.317.73.451 1.105.667.986.558 1.909.437 2.824-.195.492-.342.65-.826.893-1.332.282-.588.184-.978-.083-1.361.237-.405.592-.742.586-1.072-.007-.525-.251-1.043-.837-1.266zm-.272 2.153l-.544-.835c.551-.006.752.215.544.835zM-80.08 161.88c.428.33.619 1.206 1.48.525l.003.181c.146-.071.318-.11.432-.214.759-.694 1.539-1.367 1.74-2.471.043-.235.281-.457.472-.638.215-.206.611-1.376.437-1.534-.397-.357-.798-.735-1.263-.988-.829-.451-1.716-.549-2.682-.479-1.083.077-1.915.485-2.595 1.269-.162.185-.334.512-.277.712.153.531-.183 1.21.458 1.6.055.033.028.184.07.26.139.271.241.588.454.788.388.365.846.661 1.271.989zM-97.669 97.798c-.118-.215-.108-.502-.13-.613-.35-.183-.623-.331-.9-.469-.212-.103-.63-.208-.63-.31v5.165c0-.083.191-.18.272-.302.472-.716 1.134-1.316 1.373-2.207.119-.45.266-.814.015-1.264zM-47.721 115.702c.219-.304.286-.555-.073-.893-1.102-1.023-2.471-1.274-3.876-1.361-1.295-.083-1.982.811-2.445 1.854-.205.463-.411 1.099-.248 1.508.254.645.823 1.167 1.259 1.739.011.015.032.019.051.023.323.086.644.208.973.251.567.079 1.159.222 1.704.124.652-.114 1.265-.453 1.84-.675.056-.566.109-1.06.149-1.553.043-.517-.257-.916-.496-1.367.504-.315.739.177 1.162.35zM-92.434 117.406c.729.436 1.474.671 2.234.047.26-.211.559-.382.798-.611a3.69 3.69 0 00.639-.803c.195-.351.286-.759.472-1.113.376-.723.301-1.135-.354-1.648-.277-.218-.533-.479-.839-.644-.778-.414-1.637-.71-2.501-.598-.457.061-.991.446-1.253.845-.338.518-.441 1.188-.58 1.599-.017.763.923 2.649 1.384 2.926zM-98.214 181.954c.146-.08.252-.276.31-.443.062-.179.044-.387.061-.583-.117-.141-.264-.267-.343-.424-.266-.525-.14-1.041-1.144-1.205v4.9c0-.284.381-.604.319-.958-.136-.789.287-1.003.797-1.287zM-98.824 152.839c-.117-.393-.506-.741-.506-1.052v2.042c0-.044.173-.102.253-.153.281-.18.373-.435.253-.837zM-61.101 214.119c.067-.11.121-.111.193-.222.048-.068.119-.128.172-.126 1.068.068 1.52-.721 2.092-1.392-.364-.328-.689-.599-1.01-.891-1.046-.965-2.202-1.442-3.677-1.084-1.514.367-2.28 1.188-1.821 2.831.113.405.247.663.543.906.004.004.01-.221.015-.221h3.468c.01.002.017.212.025.199zM-47.932 181.636c-.264-.538-.781-1.042-1.313-1.333-1.339-.724-2.13-.891-3.321.013-.294.224-.477.596-.711.903l-.124-.104c-.117.568-.236 1.132-.355 1.701l.209-.028c.149.208.277.439.455.62.232.234.472.524.764.625.522.17 1.091.195 1.637.312.315.071.618.21.925.316.198.026.487-.004.675-.161.447-.369 1.007-.724 1.213-1.216.199-.469.174-1.187-.054-1.648zM-56.338 100.089c.311.274.711.563 1.099.614.404.057.912-.067 1.253-.294.591-.391 1.178-.858 1.592-1.424.255-.35.315-.959.23-1.406-.193-1.063-1.484-1.961-2.674-2.033-.274.024-.56.028-.829.086-.903.187-1.609.611-1.969 1.531-.151.393-.432.573-.07 1.136.414.641.805 1.282 1.368 1.79zM-53.886 200.29c.344-.155.603-.217.773.043.272-.008.47-.024.665-.018.287.014.857-.832.756-1.104-.052-.146-.052-.314-.05-.477.002-.574.229-1.137.086-1.712-.051-.204-.238-.371-.303-.573-.288-.923-1.167-1.115-1.874-1.506-.177-.098-.481-.026-.707.033-.942.253-1.292 1.019-1.539 1.86-.094.312-.198.62-.287.935-.062.235-.133.471-.161.71-.071.669.416 1.094.786 1.522.642.74.951.695 1.855.287zM-90.288 186.408c.043-.187.338-.312.518-.469.044.037.088.078.132.116.089-.891-.265-1.647-.696-2.406-.648-1.147-1.5-1.448-2.598-.761-.466.292-.938.667-1.247 1.114-.337.497-.487 1.118-.682 1.593.202.2.427.317.437.449.04.627.441 1.045.802 1.485.323.398.699.564 1.26.433.944-.215 1.818-.423 2.074-1.554zM-66.58 146.705c.319.397.88.35 1.257.564.708.396 1.293.776 2.189.516.548-.157 1.104-.373 1.222-.977.105-.525.208-1.056.313-1.581.014-.069.077-.149.056-.202-.258-.631-.487-1.182-1.33-1.375-1.17-.259-2.253-.323-3.341.227-.558.281-.879.98-.719 1.586.049.183.015.388.018.5.128.293.185.554.335.742zM-69.058 89.087c-.172.243-.209.584-.301.873.035.127.04.249.095.33.21.3.412.616.667.871.216.218.488.463.769.512.445.075.918-.016 1.379-.006.215.002.462.15.643.086.906-.326 1.61-.859 1.72-1.924.032-.302.194-.594.201-.897.014-.475-.407-.712-.699-.994-.548-.533-1.278-.729-1.998-.694-1.198.055-1.856.961-2.476 1.843zM-82.588 195.911c.549-.19.942-.665.983-1.227.014-.189-.011-.387.031-.568.241-1.036-.045-1.276-.81-1.86-.292-.221-.658-.347-.999-.502-1.444-.665-2.604.079-3.168 1.432-.19.455.263.777.276 1.186.023.745.574 1.102 1.125 1.304.579.214 1.239.204 1.859.29a11.57 11.57 0 00-.063.272c.301-.129.526-.244.766-.327zM-59.668 82.631c.935.502 1.795 1.169 2.837 1.436.284.073.722.039.911-.137.284-.259.364-.718.606-1.036.282-.363.032-.944.553-1.193.154-.074.389-.27.372-.371-.049-.29-.134-.723-.337-.816-.825-.386-1.7-.668-2.473-.957-.626.147-1.115.2-1.551.375-.557.227-1.165.461-1.123 1.251.009.229.065.517-.043.672-.283.41.077.686.248.776zM-99.333 213.934v.453h.932c-.304-.183-.632-.31-.932-.453zM-43.175 129.921c.131-.545.161-1.113.193-1.677.015-.209-.034-.543-.164-.614-.753-.403-1.449-1.014-2.386-.89a3.062 3.062 0 00-.991.333c-.296.155-.619.356-.798.622-.363.539-.582 1.033-.179 1.791.396.736 1.083 1.098 1.53 1.724.109.153.443.146.585.188 1.211-.102 1.903-.196 2.21-1.477zM-83.708 137.658c.099.041.127.229.217.314.213.201.429.521.67.547.422.047 1.01.061 1.27-.187.769-.724 1.399-1.589 1.349-2.571-.225-1.564-.081-1.506-1.481-1.726-.11-.017-.212-.075-.321-.093-.881-.117-1.737-.047-2.413.595-.255.238-.554.625-.537.928.055.901.266 1.779 1.246 2.193zM-69.058 161.741c.397.249.951.555 1.325.446.491-.14 1.138-.134 1.475-.72.201-.351.457-.693.923-.792.105-.022.183-.255.239-.403.071-.19.048-.457.174-.573.292-.276.037-.473-.038-.685-.074-.212-.206-.404-.311-.605.044-.043.091-.083.136-.124-.324-.107-.646-.277-.98-.306-.724-.057-1.459-.09-2.182-.033-.384.029-.832.083-.975.637-.079.301-.352.565-.568.815-.319.369-.37 1.049-.056 1.424.267.321.501.707.838.919zM-88.412 149.191c.131.169.403.237.615.341.605.296 1.231.118 1.852.073.197-.017.487-.015.569-.136.387-.558.831-1.122.626-1.889a.618.618 0 01-.025-.272c.164-.8-.159-1.29-.957-1.461-.141-.031-.285-.061-.415-.122-.907-.423-1.809-.306-2.644.139-.6.324-.659.98-.668 1.581-.136.886.634 1.215 1.047 1.746zM-46.608 166.92c.328-.569.65-1.141.975-1.706l.341.146.239-.463c-.544-1.21-1.547-1.724-2.789-1.843-1.424-.139-2.207.612-2.516 1.875.538.774 1.066 1.561 1.615 2.33.104.15.273.288.444.351.413.153 1.46-.294 1.691-.69zM-46.723 105.243c.116.104.294.142.408.249.384.361.744.745 1.129 1.103.381.343.823.242 1.125-.054.337-.326.569-.763.832-1.162.346-.536.442-1.242 1.185-1.491.338-.114.338-.559.014-.694-.905-.382-1.826-.714-2.744-1.062-.02.049-.038.1-.058.153-.795-.083-1.458.323-1.926.827-.335.359-.393 1.019-.465 1.56-.02.165.308.396.5.571zM-89.534 85.439c-1.357.534-2.214 1.187-1.246 2.722.173.271.431.496.675.716.531.479 1.201.557 1.871.557.295-.004.592-.131.888-.203.04.036.083.074.122.111.256-.787.511-1.57.791-2.436.087-.02.291-.073.583-.146-.208-.284-.314-.591-.517-.681-1.003-.451-2.003-1.099-3.167-.64zM-94.368 134.997c.701.255 1.8-.194 1.942-.91.112-.565.12-1.153.164-1.734.004-.062-.044-.14-.091-.189-.626-.729-1.332-1.308-2.37-1.333-.272.037-.627-.021-.797.135-.37.332-.678.749-.938 1.177-.115.19-.148.545-.045.729.511.896 1.086 1.738 2.135 2.125zM-68.638 124.701c.473.326.976.612 1.449.938.808.555 1.76.333 2.164-.555.196-.433.34-.891.458-1.35.125-.485-.401-1.234-.902-1.316-.534-.084-1.075-.139-1.45-.188-1.001.017-1.935-.176-2.264.945-.086.296-.208.653-.117.912.086.255.412.439.662.614zM-74.328 201.506c.264.27.594.473.846.67.393-.111.853-.218 1.294-.371.181-.062.365-.186.479-.335.444-.583.598-1.242.419-2.016.208.045.36.081.511.112.095-.702-.306-1.278-.953-1.492-.906-.302-1.724-.107-2.515.348a.487.487 0 00-.203.218c-.128.277-.228.569-.357.851-.159.347-.608.616-.242 1.084.242.309.447.653.721.931zM-44.645 148.166c-.574-.504-.996-.961-1.505-1.292-.403-.261-.911-.502-1.368-.493-.467.006-.965.265-1.383.526-.786.488-.836 1.683-.158 2.101.251.155.5.373.654.62.506.813 1.656 1.069 2.39.488a.89.89 0 00.222-.287c.254-.522.495-1.055.754-1.57.025-.05.162-.044.394-.093zM-86.558 212.177c.218.284.412.486.792.371.377-.114.758-.228 1.138-.349.046-.014.117-.088.11-.12-.124-.447.322-.52.498-.771.083-.12.244-.231.246-.348.015-.832-.115-1.629-.798-2.197a1.5 1.5 0 00-.669-.316c-.734-.124-1.314.151-1.871.663-.921.847-1.105 1.828-.473 2.74.562-.228.586-.244 1.027.327zM-89.535 75.371a15.992 15.992 0 00-1.082-.577c-.953-.453-2.347-.17-2.995.647-.119.149-.155.482-.069.651.211.418.45.862.796 1.154.532.449.977 1.1 1.855 1.171.248-.131.486-.281.745-.386.713-.294.755-1.016 1.063-1.581.281-.51.132-.824-.313-1.079zM-98.815 86.909c.08-.292.191-.438.529-.432.187 0 .375-.167.628-.29-.144-.145-.205-.23-.288-.281-.452-.292-.881-.631-1.366-.849-.007-.003-.02-.006-.02-.009v2.601c.002-.184.426-.409.517-.74zM-95.025 203.361c.067.008.129.081.199.1.261.081.586.286.775.198.535-.245 1.293-.282 1.319-1.15.009-.243.116-.494.211-.724.252-.601-.187-1.484-.823-1.575-.431-.064-.867-.083-1.359-.125-.703-.111-1.004.608-1.526.914-.19.108-.354.688-.247.806.457.537.489 1.498 1.451 1.556zM-74.754 142.549c.415.488.939.648 1.523.414.251-.1.526-.139.828-.216.188-.373.433-.815.649-1.275.302-.638.062-1.167-.605-1.362-.158-.049-.314-.114-.476-.146-.858-.167-1.702-.353-2.527.202-.549.369-.687 1.291-.172 1.741.255.222.566.391.78.642zM-59.127 188.716c-.127-.151-.419-.223-.642-.233-1.149-.065-2.123.869-2.114 1.999.005.52 1.309 1.337 2.121 1.329.813-.006 1.486-.695 1.519-1.651.36-.785-.509-.987-.884-1.444zM-71.937 212.145c.091.129.498.212.625.123.546-.382.917-.939 1.27-1.497.038-.062-.004-.167.009-.247.105-.581-.356-.841-.668-1.181-.771-.837-1.577-.865-2.409-.097-.198.184-.386.371-.573.555.127.391.135.848.347.981a4.847 4.847 0 011.399 1.363zM-98.634 75.818c-.231-.09-.696-.137-.696-.157v2.936c0-.185.845-.57.805-.825-.098-.616.291-.902.694-1.271-.286-.253-.506-.569-.803-.683zM-78.477 87.642c.1.073.287.092.415.062.465-.107 1.402-1.231 1.416-1.706.004-.146-.077-.375-.188-.436-.544-.29-1.109-.535-1.666-.798l-.03.157c-.758-.282-1.079.208-1.284.744-.103.27-.117.719.042.906.357.42.843.738 1.295 1.071zM36.321 133.432c.283 1.071.855 1.904 1.926 2.341.743.304 1.829.21 2.125-.343.501-.945.938-1.939.61-3.072-.052-.181-.028-.378-.04-.535.242.088.421.228.528.185 1.224-.465 1.749-1.371 1.621-2.483-.182-.272-.288-.419-.381-.575-.094-.151-.145-.347-.272-.465-1.276-1.15-2.852-1.28-4.438-1.107-.813.089-1.335.822-1.804 1.447-.575.773-.515 1.685-.356 2.572.124.689.302 1.362.481 2.035zM19.919 116.38c-.005 1.316.223 2.565 1.154 3.576.743.808 1.547 1.522 2.778 1.181.514-.139 1.061-.243 1.514-.502.453-.265.986-1.814 1.124-2.432.109-.49.033-.908-.082-1.369-.069-.283.05-.615-.009-.905-.094-.471-.151-1.004-.42-1.371-.613-.832-1.598-.916-2.548-.98-.796-.06-1.513-.118-2.277.477-.831.642-1.242 1.323-1.234 2.325zM47.93 126.782c.642.547 1.325 1.04 2.171 1.181.386.065.789.156 1.183.203v-6.849a5.21 5.21 0 00-1.012-.121c-.755-.011-1.332.09-1.8.66-.527.64-1.14 1.232-.844 2.216.088.294-.014.674-.109.992-.199.666-.139 1.251.411 1.718zM33.223 112.383c.426.33.618 1.206 1.479.526 0 .059.003.118.003.18.145-.069.318-.108.433-.214.76-.694 1.54-1.367 1.74-2.471.043-.235.282-.457.471-.639.215-.205.612-1.375.438-1.533-.398-.358-.799-.735-1.264-.988-.826-.451-1.717-.549-2.682-.479-1.083.077-1.916.485-2.597 1.269-.161.187-.333.514-.276.71.152.533-.183 1.212.459 1.602.054.033.029.182.068.262.142.269.243.588.454.786.388.37.847.662 1.274.989zM-16.555 148.356c-.911-.29-1.84-.523-2.756-.798-.891-.266-1.622.092-2.33.559-.362.241-.434.559-.313.981.19.669.331 1.352.487 2.031.031.129-.007.291.058.397.46.771.924 1.523 1.97 1.615.484.041 1.368-.191 1.64-.598.118-.178.137-.425.259-.604.061-.089.245-.097.375-.14.065.045.128.09.194.131.085-.493.28-1.004.227-1.487-.062-.542-.017-.978.34-1.389.233-.274.224-.58-.151-.698zM13.526 129.584c-.562-.383-1.192-.422-1.801-.222-.588.191-1.262.373-1.277 1.21 0 .063-.079.124-.109.186-.331.655-.475 1.391-.231 2.045.3.808.793 1.543 1.245 2.287.121.195.431.448.594.412.454-.105.879-.346 1.317-.529.026-.01.059-.004.099-.004-.016.08-.029.161-.058.306.611-.386 1.097-.908.986-1.53-.114-.66.171-.915.564-1.15.077-.046.152-.091.235-.138.146-.081.252-.277.31-.443.062-.179.044-.386.06-.583-.117-.141-.265-.265-.343-.422-.247-.493-.499-.972-1.03-1.168-.087-.033-.165-.076-.269-.09-.105-.014-.201-.102-.292-.167zM-34.232 126.191c.192-.353.278-.763.403-1.125.564.124.902.125 1.099-.538.206-.688.278-.996-.241-1.345a12.062 12.062 0 00-1.4-.814c-.981-.476-1.985-.521-2.962.016-.323.178-.59.451-.896.659-.604.403-.831 1.909-.347 2.459.234.269.51.491.755.751.204.216.414.654.575.633.539-.068.829.351 1.254.473.185.051.375.108.562.104.821-.013.915-.749 1.198-1.273zM9.292 101.674c-.901.753-1.214 2.373-.571 3.289.592.838 1.542 1.011 2.442 1.26.045.013.091.024.138.038.103.03.26-.041.361-.112.684-.479 1.416-.926 1.407-1.914 0-.026.044-.057.115-.133.053.021.123.023.145.059.286.438.626.196.892.021.281-.181.375-.434.253-.837a3.561 3.561 0 00-1.204-1.804c-.553-.443-1.194-.678-1.904-.736-.113-.01-.222-.024-.337-.024-.756 0-1.219.459-1.737.893zM48.695 164.88c.406.333.969.488 1.479.685.459.174.81.224 1.109.139v-4.875a3.816 3.816 0 00-1.311.088c-1.516.363-2.28 1.181-1.821 2.824.114.408.245.898.544 1.139zM18.88 136.548c.04.625.44 1.043.801 1.485.323.397.699.562 1.259.434.941-.218 1.816-.428 2.073-1.555.043-.188.339-.313.518-.471.044.041.089.078.133.116.089-.892-.266-1.646-.694-2.405-.648-1.147-1.5-1.45-2.598-.761-.467.292-.94.665-1.247 1.112-.337.496-.487 1.117-.681 1.592.201.202.426.32.436.453zM46.372 95.965c.05.181.015.386.015.5.127.29.185.553.335.745.319.395.881.346 1.257.558.708.399 1.292.778 2.191.52.456-.132.903-.318 1.113-.725v-2.921c-.191-.224-.452-.398-.854-.49-1.168-.261-2.253-.321-3.339.229-.558.278-.881.978-.718 1.584zM-2.521 164.198c.088-.318.072-.672.175-.985.148-.441.294-.916.567-1.281.339-.457.333-.729-.175-1a2.753 2.753 0 01-.683-.497c-.559-.584-1.271-.92-2.01-.717-.601.171-1.122.657-1.644 1.048-.073.053.071.362.052.547-.044.477-.18.95-.173 1.43.003.308.106.71.318.896.377.335.85.603 1.328.776.438.159.276.296.045.564.323-.021.578-.077.82-.041.641.089 1.233-.195 1.38-.74zM30.714 146.417c.549-.191.942-.664.984-1.228.014-.189-.012-.386.029-.568.242-1.036-.043-1.276-.808-1.86-.292-.219-.659-.347-.998-.502-1.445-.665-2.607.079-3.171 1.432-.19.455.263.779.277 1.186.023.744.573 1.1 1.125 1.302.579.216 1.238.206 1.859.292.001-.004-.026.104-.063.272.301-.13.527-.246.766-.326zM-49.294 210.457c.549-.188.942-.663.983-1.226.015-.19-.009-.386.031-.569.242-1.032-.045-1.275-.808-1.859-.293-.222-.659-.345-.999-.502-1.445-.665-2.604.078-3.17 1.433-.189.453.265.777.278 1.183.023.746.573 1.104 1.125 1.305.578.212 1.239.203 1.857.29a8.913 8.913 0 00-.062.271c.301-.13.525-.244.765-.326zM-21.198 202.62c.549-.19.942-.663.984-1.228.014-.189-.012-.386.03-.567.242-1.034-.044-1.277-.809-1.859-.292-.222-.66-.346-.998-.502-1.445-.667-2.604.076-3.168 1.432-.189.455.262.778.277 1.185.024.747.571 1.1 1.124 1.304.578.212 1.239.202 1.858.29.001-.006-.023.103-.064.27.301-.129.528-.242.766-.325zM-33.191 143.183c.214.153.397.35.6.519.339.28.686.555 1.026.831.271-.356.605-.073.873-.034.625.094 1.034-.015 1.206-.562.213-.686.245-1.43.752-2.004.038-.045.007-.197-.042-.263-.228-.304-.509-.566-.703-.888-.422-.7-1.071-.888-1.822-.896-1.118-.125-1.792.655-2.538 1.276-.082.071-.056.31-.032.463.042.265.228.555.165.779-.148.52.238.584.515.779zM11.991 163.549c-.976.428-2.08.749-2.377 1.99-.048.197-.006.426-.067.615-.154.467.086.804.395 1.045.642.51 1.332.959 2.033 1.457.345-.294.696-.549.993-.858.226-.236.333-.604.584-.787.301-.227.273-.418.176-.698-.031-.088.098-.324.13-.32.709.099.873-.583 1.405-.843-.745-.676-1.894-.654-2.191-1.586-.389-.013-.793-.143-1.081-.015zM-38.333 205.979c.708.099.872-.583 1.405-.841-.747-.679-1.894-.657-2.19-1.59-.389-.014-.792-.14-1.082-.014-.975.428-2.08.75-2.378 1.992-.047.198-.006.422-.067.614-.155.469.086.804.396 1.047.643.506 1.332.959 2.033 1.457.345-.296.697-.549.993-.859.226-.234.333-.602.584-.788.303-.225.273-.416.176-.698-.035-.086.096-.325.13-.32zM-5.741 96.532c.08-.312-.075-.691-.159-1.034-.043-.168-.124-.378-.255-.471-.607-.423-1.238-.824-1.846-.794-1.393-.07-2.094.786-2.881 1.479-.044.038-.024.179-.004.263.054.198.183.395.175.59-.013.424.122.743.458.994.284.208.611.391.825.658.51.642.907.584 1.733.35.458-.131.973-.302 1.279-.627.341-.367.548-.91.675-1.408zM5.339 119.391c.042-.023.112-.01.168.005.438.096.661-.221.877-.49.444-.551.853-1.126 1.209-1.604l-.388-1.318c-.145-.084-.328-.165-.483-.282-.839-.644-1.776-.814-2.793-.57-.794.191-1.139.827-1.444 1.497-.044.097-.107.229-.077.309.19.506.401 1.004.622 1.499.064.15.147.341.274.405.642.305 1.167 1.076 2.035.549zM44.245 112.244c.396.247.952.555 1.326.446.492-.142 1.137-.133 1.471-.72.204-.351.459-.691.924-.792.108-.022.185-.255.241-.403.072-.19.049-.457.174-.573.292-.274.037-.473-.037-.688-.077-.21-.206-.401-.312-.602l.135-.124c-.323-.107-.644-.28-.977-.306-.726-.058-1.458-.09-2.183-.036-.384.032-.833.084-.978.64-.077.3-.349.563-.564.814-.321.371-.37 1.049-.057 1.424.264.322.498.708.837.92zM23.843 97.95c-.134.884.634 1.212 1.045 1.743.133.171.402.238.618.341.604.298 1.23.12 1.848.073.2-.015.489-.013.57-.134.389-.557.831-1.121.626-1.889-.023-.086-.042-.187-.023-.271.162-.8-.158-1.291-.958-1.461-.14-.031-.285-.062-.415-.122-.907-.423-1.811-.306-2.644.14-.597.322-.657.978-.667 1.58zM2.612 133.875c.048-.155.12-.305.179-.458.256-.646.545-1.281.753-1.943.131-.411-.306-.963-.755-1.021a26.406 26.406 0 00-1.711-.165c-.042-.002-.085-.01-.127-.012-.629-.031-1.583.607-1.789 1.156-.189.502-.37 1.006-.54 1.463.197.186.374.272.431.414.376.917 1.161 1.207 2.025 1.408l.055.014c.718.162 1.277-.146 1.479-.856zM-19.146 158.287c-.568-.159-1.168-.196-1.749-.313-1.037-.208-1.918.204-2.738.732-.292.187-.54.553-.348 1.017.115.279.137.6.212.958.798.482 1.688 1.017 2.708 1.628.21-.364.522-.759.67-1.201.151-.466.315-.731.859-.723.584.006.841-.333.788-.881-.008-.084-.053-.165-.086-.265.12.025.204.041.292.061.193-.585-.151-.887-.608-1.013zM33.295 167.62c.033.333.044.67.068 1.029a1.926 1.926 0 011.398.889c.884.214 1.496.584 2.221.83.032-.032.059-.066.089-.098.882-.924 1.236-2.034.842-3.385-.147-.006-.336-.01-.534-.019l-.054-.373c-.142-.004-.295.038-.389-.02-.873-.545-1.732-.583-2.669-.11-.2.101-.379.203-.539.319-.282.207-.478.468-.433.938zM-34.613 109.532c.36.189.774.289 1.108.514.563.378 1.301.23 1.54-.408.15-.392.184-.827.321-1.226.207-.607.456-1.202.688-1.798-1.394-.858-3.57-.724-4.644.316-.157.152-.204.46-.219.703-.066.918.451 1.499 1.206 1.899zM8.569 143.526c-.396.428-.591 1.04-.859 1.579-.02.035.082.135.129.204.277.371.583.724.817 1.12.196.332.311.736.766.765.477.025.907.39 1.461-.047.615-.481.916-1.124 1.326-1.722.331-.482.165-.978-.104-1.291-.57-.665-1.376-.984-2.452-1.038-.255.094-.807.132-1.084.43zM-13.601 125.013c.139-.541.259-1.09.389-1.635-.142-.065-.362-.09-.412-.196-.354-.784-1.132-.83-1.792-1.055-.612-.209-1.925.226-2.139.765-.235.592-.343 1.287.075 1.869.291.408.71.722 1.014 1.124.24.312.536.394.887.417.676.051 1.827-.689 1.978-1.289zM-8.023 135.303c-.193-.537-.648-.327-.977-.384-.607-.105-1.233-.131-1.852-.131-.725-.003-.821.753-1.246 1.121-.286.249-.28.521-.028.858.681.916 1.634 1.434 2.628 1.903.049.024.114.013.116.013.369-.037.706-.013.989-.124.311-.124.705-.251.546-.794-.062-.21.044-.629.206-.716.477-.262.208-.614.138-.867-.086-.316-.407-.563-.52-.879zM38.975 152.012c.265.27.592.471.845.668.394-.112.854-.218 1.295-.367.179-.062.364-.189.48-.339.442-.583.597-1.242.417-2.012l.512.108c.097-.702-.306-1.277-.953-1.493-.906-.302-1.724-.104-2.514.347a.481.481 0 00-.204.219c-.128.277-.228.574-.355.851-.162.347-.609.62-.245 1.084.242.31.448.653.722.934zM26.191 159.615c-.924.845-1.107 1.826-.475 2.738.563-.228.586-.242 1.027.328.217.284.412.486.792.373.376-.116.758-.229 1.137-.351.047-.017.119-.088.11-.12-.123-.447.324-.519.498-.772.068-.094.182-.187.226-.281.01-.022.021-.044.021-.067.014-.829-.115-1.627-.798-2.196a1.498 1.498 0 00-.67-.313 1.9 1.9 0 00-.454-.019c-.525.031-.979.279-1.414.68zM1.992 105.278c.062-.137.274-.208.44-.324.009-.289.107-.643.016-.939-.184-.595-.722-1.163-1.367-1.484-.7-.35-1.527-.408-2.18.131-.892.736-.774 1.218-.299 2.296.265.606.883.746 1.236 1.214.112.148.498.195.718.137a4.08 4.08 0 00.525-.185c.38-.163.717-.403.911-.846zM-6.048 124.45c.464-.15.959-.294 1.172-.862.128-.343.417-.624.604-.947.078-.135.157-.355.101-.475-.468-1.008-1.294-1.471-2.396-1.475-.036-.002-.075.004-.112-.005-1.071-.187-1.511.682-2.031 1.314-.121.141.226.685.377 1.036.088.206.207.394.321.584.323.524 1.39 1.014 1.964.83zM-24.043 114.888c.009.553.106 1.106.159 1.59.228.094.486.122.554.247.334.613.839.481 1.352.371.305-.064.626-.095.911-.208.243-.097.6-.071.611-.519.009-.322.102-.667.251-.95.27-.513.104-1.144-.404-1.404-.629-.324-1.276-.5-1.988-.469-.557.024-1.458.781-1.446 1.342zM-24.882 100.201c-.027.163.004.406.111.516.682.694 1.423 1.304 2.554 1.36.347-.231 1.071.143 1.255-.605.158-.641.285-1.294.355-1.95.014-.144-.251-.414-.43-.459-.594-.147-1.207-.229-1.812-.314-.836-.125-1.89.625-2.033 1.452zM-2.945 110.054c-.076-.074-.229-.062-.337-.111-.464-.21-.912-.472-1.395-.635-.903-.296-2.173.603-2.173 1.556.152.355.126.773.486 1.171.774.853 1.487 1.074 2.45.455.719-.459 1.054-1.198 1.285-1.974.034-.117-.181-.329-.316-.462zM1.514 145.073a2.994 2.994 0 00-.41-1.331c-.007-.014-.017-.022-.025-.034-.525-.84-1.481-.877-2.3-.825-.479.029-.976.547-1.363.943-.161.167-.299.6.083.891.119.092.146.332.172.512.029.21 0 .316.327.347.364.037.701.356 1.055.537.238.126.483.235.727.354.324-.038.899-.375 1.298-.735.26-.235.445-.48.436-.659zM18.274 153.865c.07.007.131.083.201.101.26.081.587.286.774.2.535-.247 1.295-.285 1.32-1.151.009-.245.114-.494.213-.724.251-.601-.189-1.481-.823-1.577-.432-.062-.869-.079-1.359-.122-.704-.113-1.005.61-1.527.912-.189.112-.353.688-.246.806.457.535.487 1.496 1.447 1.555zM-25.108 130.839c.38-.486.935-1.049.927-1.572-.007-.644-.34-1.445-1.157-1.661-.623-.163-1.302-.363-1.903-.253-.358.066-.611.706-.91 1.09-.044.055-.085.112-.101.133.114.261.215.477.304.698.143.358.968 1.122 1.299 1.22.067.02.103.131.163.191.096.095.188.202.303.262.379.202.807.232 1.075-.108zM-32.549 154.536c.236.17.419.341.632.442.808.391 1.041.255 1.193-.637.086-.492.123-1.002.297-1.461.138-.357.03-.496-.22-.691-.683-.53-1.487-.394-2.243-.382-.339.006-.785.218-.986.486-.352.461-.019 1.583.483 1.945.201.146.433.247.651.369-.061.071-.122.142-.184.208l.377-.279zM41.365 162.65c.091.133.498.21.625.122.547-.38.918-.939 1.271-1.497.037-.062-.006-.167.009-.245.104-.581-.357-.841-.668-1.182-.771-.837-1.576-.866-2.41-.096-.198.181-.387.373-.573.553.125.395.136.848.346.983a4.81 4.81 0 011.4 1.362zM5.639 155.597c.008-.002.002-.416-.087-.461-.568-.291-1.18-.5-1.747-.796-.891-.471-1.447.088-2.035.592-.383.332-.205.735-.008.998.326.445.772.798 1.171 1.193.466-.141.913-.186 1.253-.397.513-.324.778-.982 1.453-1.129zM-18.058 108.706c-.265.648-.062 1.103.61 1.276.39.1.77.236 1.154.362.467.155 1.208.021 1.305-.284.168-.52.289-1.057.423-1.576-.252-.147-.466-.292-.699-.396a3.896 3.896 0 00-.781-.261c-.963-.198-1.554-.241-2.012.879zM-9.271 149.59c.035.027.175-.047.25-.096.726-.463 1.282-1.02 1.092-1.987-.146-.003-.296.03-.415-.019-.44-.171-.863-.392-1.305-.555-.719-.261-1.498.021-1.767.644-.099.23-.12.494-.178.749.125.083.344.149.417.284.407.787 1.35.505 1.906.98zM-63.133 24.494c-.651.066-1.311.324-1.746.899-.245.32-.458.668-.697 1.002-.769 1.059-.685 2.138.079 3.204.267.376.684.56.9.929.53.912 1.524.983 2.445 1.487.688-.302 1.534-.475 2.097-.969.711-.626 1.233-1.484 1.763-2.291.758-1.155.5-2.305-.549-3.199-1.267-1.079-2.752-1.226-4.292-1.062zM-57.897 44.417c-.194.021-.504.075-.823.099-1.425.107-2.781 1.866-2.44 3.238.206.818.5 1.614.773 2.414.043.125.161.239.272.326.203.161.535.255.617.457.232.565.699.751 1.206.827.437.064.947.132 1.328-.027 1.401-.584 2.646-1.363 2.816-3.092.006-.051.052-.099.077-.149.385-.89.184-1.765-.318-2.48-.798-1.136-2.042-1.509-3.508-1.613zm1.786 5.56c-.804.725-1.332.841-2.02.072-.381-.427-.836-.761-.925-1.473.176.065.309.079.388.148.357.322.701.661 1.052.988.437.408 1.126.298 1.84-.222-.108.167-.192.362-.335.487zM-42.632 32.235c-.376-.41-.881-.737-1.391-.981-1.061-.51-2.22-.288-3.341-.339-.066-.006-.148.033-.199.08-.815.763-1.765 1.45-1.497 2.812-.051.002-.104.004-.156.01.173.572.177 1.33.554 1.671.515.467.732 1.051 1.121 1.555.239.312.555.583.885.8.155.106.484-.039.624.073.633.5 1.125.09 1.486-.292.717-.759 1.343-1.603 1.989-2.424.35-.444.372-.939.324-1.512-.044-.53-.06-1.081-.399-1.453zM-42.748 68.254c-.212.253-.381.547-.55.835-.472.808-.316 1.655.36 2.304.152.144.191.41.262.624.138.412.161.904.414 1.216.255.313.729.451 1.106.667.985.555 1.909.435 2.825-.196.493-.343.648-.824.891-1.333.282-.586.185-.976-.08-1.361.235-.406.59-.743.585-1.073-.01-.522-.253-1.039-.837-1.267-.904-.343-1.781-.794-2.71-1.023-.802-.197-1.657-.105-2.266.607zm4.702 2.571l-.545-.837c.551-.004.753.218.545.837zM-82.547 25.614c-.339.471-.834 1.5-.548 1.981.412.691.898 1.36 1.463 1.924.293.29.815.423 1.252.482.827.11 1.769.229 2.298-.571.473-.718 1.136-1.316 1.374-2.203.12-.449.268-.818.016-1.268-.12-.214-.108-.502-.13-.613-.35-.183-.624-.333-.902-.468-1.009-.487-1.953-1.102-3.159-.319-.544.353-1.221.445-1.664 1.055zM-36.652 48.898c-.207.462-.412 1.096-.25 1.51.255.642.825 1.16 1.26 1.736.01.014.033.021.051.021.323.09.643.21.973.253.567.079 1.161.224 1.706.124.648-.114 1.262-.451 1.837-.675.056-.564.108-1.058.149-1.549.044-.519-.256-.917-.493-1.371.5-.314.736.178 1.161.349.216-.304.287-.555-.074-.891-1.101-1.027-2.472-1.276-3.878-1.365-1.294-.078-1.981.815-2.442 1.858zM-71.458 45.564c.729.435 1.475.674 2.236.049.261-.212.559-.38.797-.616.243-.236.474-.504.64-.798.195-.351.286-.757.472-1.113.378-.725.302-1.138-.352-1.646-.276-.221-.533-.48-.839-.643-.778-.416-1.636-.714-2.501-.6-.457.059-.991.446-1.253.845-.338.516-.442 1.188-.58 1.598-.021.765.921 2.652 1.38 2.924zM-95.441 52.764c.608-.804.545-1.7.379-2.604-.03-.167-.18-.344-.325-.441-.889-.59-1.92-.533-2.921-.604-.037-.002-.071.025-.105.038-.317.118-.915.245-.915.397v3.916c0 .238.758.423 1.157.535 1.169.045 2.126-.438 2.73-1.237zM-50.479 2.051c-.275.025-.558.029-.829.086-.904.188-1.609.612-1.969 1.533-.154.391-.432.572-.069 1.134.412.643.802 1.282 1.368 1.791.308.277.709.565 1.098.617.405.054.912-.068 1.253-.298.591-.393 1.177-.858 1.591-1.424.255-.345.314-.957.231-1.405-.195-1.059-1.485-1.961-2.674-2.034zM-84.538 65.36c-.491-.241-.754.157-1.065.261-.672.225-1.557.298-1.723 1.276-.023.141-.209.257-.347.417.075.12.203.236.178.304-.196.539.104.939.322 1.386.239.494.623.737 1.121.881.186.054.345.189.528.249.267.088.561.237.812.19 1.014-.189 1.789-.757 2.475-1.536.735-.835.725-1.021.168-1.759-.643-.857-1.562-1.224-2.469-1.669zM-97.396 36.932c-.117-.05-.194-.204-.287-.313-.061-.071-.1-.188-.169-.208-.18-.049-.38-.024-.556-.084-.314-.1-.922-.208-.922-.313v4.743c1.004.104 1.115.022 1.575-.429.34-.335.756-1.06.613-1.318-.256-.465.021-.757.066-1.086.061-.424.205-.778-.32-.992zM-87.22 31.639c-.218-.231-.619-.294-.931-.445-.932-.459-1.946-.454-2.778.025a2.33 2.33 0 00-1.165 2.19c.262.251.446.402.604.579.437.49.824 1.03 1.3 1.48.558.516 1.8.44 2.359-.073.376-.343.629-.7.77-1.246.127-.492.41-.967.317-1.484-.067-.366-.23-.766-.476-1.026zM-43.607 16.099c-.549-.535-1.278-.729-1.999-.696-1.197.059-1.856.965-2.475 1.846-.172.247-.208.584-.302.873.036.129.04.249.096.332.21.3.412.613.667.869.216.218.488.465.769.514.443.075.918-.014 1.378-.008.214.002.462.148.644.086.907-.328 1.609-.859 1.72-1.924.031-.302.194-.592.201-.896.014-.477-.408-.714-.699-.996zM-38.692 10.792c.936.502 1.795 1.168 2.837 1.436.283.072.72.037.911-.138.283-.259.363-.718.607-1.033.279-.365.031-.945.551-1.196.155-.075.39-.267.374-.369-.049-.291-.135-.724-.338-.815-.824-.388-1.7-.669-2.472-.959-.627.147-1.116.2-1.551.376-.557.225-1.166.462-1.124 1.251.01.23.064.515-.043.672-.283.41.077.685.248.775zM-94.06 13.284c-.488.04-.949.406-1.423.632-.936.441-1.113 1.069-.703 1.987.325.722 1.62 1.649 2.458 1.746.377-.159.77-.294 1.135-.479.848-.422 1.206-1.289 1.734-1.992.124-.163.133-.595.007-.73-.853-.946-1.995-1.261-3.208-1.164zM-85.193 44.68c-.081.206-.07.461-.051.69.072.835.561 1.428 1.185 1.928.303.247.617.673.932.682.524.01 1.1-.167 1.567-.418.952-.517 1.184-1.429 1.12-2.448-.025-.257-.027-.521-.083-.772-.028-.122-.131-.279-.239-.322-.603-.222-1.204-.486-1.832-.598-1.141-.207-2.065-.095-2.599 1.258zM-36.854 60.163c.393.736 1.081 1.098 1.528 1.724.109.151.441.147.584.186 1.211-.1 1.903-.193 2.209-1.475.129-.545.162-1.115.196-1.679.013-.208-.035-.541-.165-.612-.753-.405-1.449-1.016-2.386-.892-.34.047-.687.174-.994.333-.295.155-.616.356-.796.624-.36.538-.581 1.034-.176 1.791zM-90.945 3.855a3.056 3.056 0 00-.992.335c-.296.153-.617.355-.798.622-.362.537-.583 1.031-.177 1.789.395.736 1.081 1.1 1.528 1.724.109.155.443.147.585.188 1.21-.102 1.902-.196 2.211-1.475.13-.545.161-1.118.194-1.681.013-.206-.035-.539-.166-.608-.751-.405-1.447-1.017-2.385-.894zM-72.916 53.001c.394.736 1.082 1.1 1.528 1.724.109.153.443.146.585.188 1.21-.102 1.901-.195 2.209-1.477.13-.545.162-1.116.196-1.679.013-.208-.035-.541-.167-.612-.75-.403-1.447-1.014-2.387-.89a3.097 3.097 0 00-.99.333c-.296.155-.618.357-.799.624-.359.538-.579 1.032-.175 1.789zM-60.575 66.495c.769-.726 1.4-1.59 1.349-2.571-.225-1.564-.08-1.508-1.481-1.729-.108-.016-.211-.073-.321-.09-.88-.118-1.736-.047-2.412.59-.254.241-.553.629-.537.932.056.898.269 1.777 1.248 2.191.098.041.125.228.215.313.214.203.429.522.671.547.418.049 1.008.062 1.268-.183zM-71.142 76.671c.385.356.744.745 1.131 1.099.378.347.821.244 1.124-.05.336-.327.569-.765.833-1.166.344-.535.442-1.237 1.185-1.488.336-.112.336-.561.012-.696-.902-.38-1.824-.712-2.741-1.063l-.06.153c-.793-.082-1.456.323-1.926.832-.333.358-.392 1.018-.462 1.557-.021.167.309.396.501.57.111.107.287.144.403.252zM-29.511 18.242c-.901-.378-1.826-.714-2.741-1.064l-.062.157c-.794-.082-1.456.322-1.926.826-.334.36-.392 1.018-.463 1.561-.021.167.309.397.5.571.115.105.292.143.407.251.385.356.743.745 1.131 1.096.377.351.821.247 1.124-.047.336-.328.57-.765.83-1.167.347-.531.444-1.239 1.187-1.485.338-.114.338-.564.013-.699zM-65.392 14.241c-1.002-.453-2.002-1.1-3.166-.641-1.356.536-2.213 1.187-1.246 2.722.172.271.432.5.676.716.53.479 1.201.557 1.87.557.297-.004.595-.129.889-.201l.122.109.79-2.436.582-.143c-.209-.286-.314-.591-.517-.683zM-74.543 59.122c-.37.335-.679.751-.939 1.181-.114.189-.147.545-.044.726.509.9 1.085 1.743 2.133 2.125.701.262 1.8-.189 1.943-.905.112-.565.119-1.151.164-1.733.005-.062-.044-.141-.091-.193-.627-.725-1.332-1.307-2.371-1.332-.269.036-.627-.018-.795.131zM-47.662 52.858c.474.331.976.614 1.449.94.809.555 1.759.333 2.164-.552a8.27 8.27 0 00.459-1.354c.125-.483-.403-1.234-.903-1.312-.535-.084-1.075-.143-1.449-.19-1.003.021-1.935-.174-2.265.945-.086.298-.208.652-.116.916.086.25.411.438.661.607zM-68.558 3.532a16.489 16.489 0 00-1.081-.579c-.952-.453-2.348-.168-2.998.648-.117.146-.154.483-.067.652.213.416.451.863.797 1.153.533.447.977 1.102 1.855 1.173.248-.134.486-.283.746-.387.713-.294.755-1.016 1.062-1.579.279-.51.131-.826-.314-1.081zM-81.669 14.43c.021.939.866 1.332 1.543 1.773.226.149.631.251.839.143.578-.291 1.246-.547 1.446-1.275.081-.294.193-.437.53-.433.188 0 .376-.165.63-.291-.144-.146-.205-.23-.286-.28-.452-.292-.884-.631-1.369-.851-.895-.404-1.833-.486-2.651.167-.316.254-.69.696-.682 1.047zM-54.558 70.068c.253.222.567.39.781.644.413.488.938.645 1.522.414.252-.101.528-.144.83-.218.189-.373.433-.818.649-1.277.302-.637.062-1.165-.605-1.362-.158-.048-.315-.114-.476-.146-.858-.163-1.703-.351-2.526.204-.55.369-.686 1.29-.175 1.741zM-86.188 54.886c-.316.051-.726.047-.884.537-.099.306-.472.512-.648.806-.104.17-.122.442-.073.643.082.343.245.669.405 1.075.401-.309.688-.278 1.017.051.348.347.784.371 1.188.021.549-.479.968-1.038 1.078-1.779.068-.469-.335-1.287-.668-1.322-.473-.046-.957-.105-1.415-.032zM-97.19 61.499c.289.113.499.451.724.708.457.52.718.536 1.224.049.055-.055.109-.127.174-.146.896-.226.671-1.134 1.022-1.69.018-.028-.017-.122-.053-.147-.492-.32-.988-.639-1.282-.828-1.055-.032-1.874.621-2.016 1.394-.041.234-.221.489.207.66zM-55.859 13.724c-.543-.29-1.109-.535-1.667-.796-.009.051-.021.102-.029.154-.758-.282-1.078.208-1.285.745-.103.27-.116.721.043.906.358.417.844.734 1.296 1.065.101.079.287.095.414.067.465-.11 1.403-1.231 1.417-1.706.003-.145-.079-.374-.189-.435zM-61.156.051h-3.367c.399 0 .918.441 1.394.625.951.363 1.447-.625 1.973-.625zM-99.333.62c.611.009.792-.602 1.294-.845a2.02 2.02 0 00-.28-.212h-1.014V.62zM-75.922 1.49l-.053-.371c-.141-.006-.296.037-.389-.022-.873-.543-1.733-.581-2.669-.105-.556.279-1.045.52-.974 1.253.033.333.044.671.068 1.029a1.92 1.92 0 011.399.891c.883.212 1.495.582 2.219.827.954-.944 1.338-2.084.932-3.485-.147-.005-.334-.009-.533-.017z"/></g></g></svg>