<?xml version="1.0" encoding="utf-8"?>
<!-- Generator: Adobe Illustrator 15.0.0, SVG Export Plug-In . SVG Version: 6.00 Build 0)  -->
<!DOCTYPE svg PUBLIC "-//W3C//DTD SVG 1.1//EN" "http://www.w3.org/Graphics/SVG/1.1/DTD/svg11.dtd">
<svg version="1.1" id="Layer_1" xmlns="http://www.w3.org/2000/svg" xmlns:xlink="http://www.w3.org/1999/xlink" x="0px" y="0px"
	 width="99.992px" height="213.953px" viewBox="0 -0.117 99.992 213.953" enable-background="new 0 -0.117 99.992 213.953"
	 xml:space="preserve">
<g>
	<defs>
		<rect id="SVGID_1_" y="-0.117" width="99.992" height="213.953"/>
	</defs>
	<clipPath id="SVGID_2_">
		<use xlink:href="#SVGID_1_"  overflow="visible"/>
	</clipPath>
	<path clip-path="url(#SVGID_2_)" fill="#B4DBD0" d="M199.996-31.629V68.838c-0.32-0.836-0.646-1.654-0.978-2.479
		c-0.225-0.561-0.465-1.121-0.702-1.67c-0.488-1.143-1-2.289-1.535-3.405c-0.228-0.49-0.467-0.979-0.707-1.47
		c-4.146-8.481-9.39-16.323-15.539-23.356c-0.869-0.99-1.762-1.98-2.67-2.933c-0.451-0.479-0.906-0.967-1.371-1.432
		c-0.605-0.619-1.228-1.238-1.846-1.832c-0.623-0.609-1.253-1.205-1.884-1.801c-0.586-0.537-1.182-1.086-1.776-1.611
		c-0.572-0.512-1.154-1.022-1.75-1.522c-0.349-0.3-0.691-0.587-1.039-0.871c-0.441-0.369-0.894-0.738-1.347-1.099
		c-0.682-0.547-1.372-1.084-2.062-1.606c-0.598-0.453-1.193-0.906-1.789-1.347c-0.164-0.12-0.332-0.252-0.512-0.37
		c-0.597-0.416-1.181-0.834-1.775-1.24c-0.51-0.367-1.035-0.726-1.572-1.07c-0.356-0.24-0.702-0.477-1.062-0.707
		c-1.285-0.832-2.586-1.631-3.906-2.418c-0.49-0.285-0.979-0.572-1.479-0.844c-0.468-0.277-0.933-0.525-1.396-0.775
		c-1.549-0.858-3.135-1.684-4.729-2.455c-0.535-0.264-1.084-0.522-1.646-0.774c-1.502-0.703-3.024-1.357-4.576-1.99
		c-0.354-0.154-0.725-0.297-1.096-0.439c-0.57-0.229-1.133-0.455-1.717-0.657c-0.904-0.345-1.822-0.679-2.74-0.988
		c-0.834-0.297-1.68-0.572-2.527-0.836c-0.819-0.26-1.645-0.51-2.467-0.75c-0.059-0.013-0.106-0.023-0.154-0.035
		c-0.629-0.191-1.274-0.369-1.932-0.537c-0.428-0.117-0.846-0.238-1.275-0.332c-0.631-0.168-1.274-0.334-1.93-0.479
		c-0.715-0.164-1.418-0.332-2.145-0.476c-0.404-0.094-0.822-0.178-1.229-0.25c-0.18-0.047-0.356-0.084-0.535-0.106
		c-0.596-0.119-1.18-0.238-1.774-0.334c-0.765-0.146-1.525-0.265-2.289-0.381c-0.785-0.134-1.586-0.24-2.383-0.349
		c-0.265-0.035-0.527-0.069-0.8-0.106c-0.752-0.095-1.504-0.179-2.254-0.248c-0.811-0.086-1.633-0.168-2.455-0.229
		c-0.811-0.067-1.633-0.117-2.454-0.164c-0.416-0.024-0.834-0.049-1.265-0.061c-0.487-0.025-0.965-0.047-1.453-0.062
		c-0.371-0.012-0.75-0.021-1.133-0.021c-0.772-0.023-1.549-0.035-2.338-0.035H0v213.953h99.992v-0.049
		c45.692,0,84.68-28.642,100.004-68.947v68.994h99.994v-345.459C299.99-76.396,255.225-31.629,199.996-31.629 M99.992,196.793
		c-49.686,0-89.957-40.273-89.957-89.959c0-49.688,40.271-89.972,89.957-89.972s89.971,40.283,89.971,89.972
		C189.963,156.52,149.678,196.793,99.992,196.793"/>
	<ellipse clip-path="url(#SVGID_2_)" fill="#010101" cx="100" cy="490.457" rx="0" ry="89.965"/>
	<g clip-path="url(#SVGID_2_)">
		<defs>
			<path id="SVGID_3_" d="M100.003-0.02H0v213.953h99.992v-0.049V196.89c-49.686,0-89.957-40.273-89.957-89.959
				c0-49.688,40.271-89.972,89.957-89.972L100.003-0.02z M99.992,196.89"/>
		</defs>
		<clipPath id="SVGID_4_">
			<use xlink:href="#SVGID_3_"  overflow="visible"/>
		</clipPath>
		<g clip-path="url(#SVGID_4_)">
			<path fill="none" d="M-52.196,136.435c0.192,0.296,0.369,0.565,0.544,0.835C-51.444,136.65-51.645,136.429-52.196,136.435z"/>
			<path fill="none" d="M0.814,203.977c0.09-0.051,0.177-0.104,0.265-0.156v-0.913C0.893,203.277,0.514,203.526,0.814,203.977z"/>
			<path fill="none" d="M-77.088,121.818c0.143-0.13,0.226-0.324,0.337-0.486c-0.716,0.52-1.404,0.629-1.841,0.222
				c-0.35-0.328-0.693-0.667-1.051-0.99c-0.08-0.07-0.214-0.078-0.389-0.147c0.088,0.71,0.546,1.045,0.926,1.473
				C-78.419,122.656-77.893,122.538-77.088,121.818z"/>
			<path fill="none" d="M-54.263,157.818c0.063,0.263,0.212,0.534,0.185,0.787c-0.043,0.375-0.209,0.731-0.324,1.1
				c0.049,0.016,0.098,0.025,0.149,0.043c0.734-0.932,0.736-1.729,0.01-2.375c-0.649-0.575-1.418-0.672-1.798-0.275
				c0.386,0.152,0.786,0.367,1.208,0.444C-54.595,157.585-54.347,157.479-54.263,157.818z"/>
			<path fill="none" d="M-57.616,49.714c-0.352-0.327-0.695-0.667-1.052-0.988c-0.079-0.069-0.212-0.083-0.388-0.148
				c0.089,0.712,0.544,1.045,0.925,1.473c0.688,0.769,1.216,0.651,2.02-0.072c0.143-0.125,0.227-0.319,0.335-0.484
				C-56.49,50.012-57.179,50.122-57.616,49.714z"/>
			<path fill="none" d="M-38.591,69.988c0.194,0.298,0.369,0.568,0.545,0.837C-37.838,70.206-38.04,69.984-38.591,69.988z"/>
			<path fill="#B4DBD0" d="M29.699,204.84c0.291-0.2,0.554-0.384,0.818-0.568C29.891,204.083,29.676,204.291,29.699,204.84z"/>
			<path fill="#B4DBD0" d="M46.642,203.75c-0.553,0.671-0.624,1.441-0.214,1.806c0.137-0.392,0.339-0.796,0.403-1.22
				c0.036-0.243-0.076-0.486,0.257-0.581c0.262-0.074,0.526-0.233,0.779-0.211c0.375,0.031,0.741,0.186,1.109,0.29
				c0.014-0.051,0.025-0.105,0.037-0.153C48.062,202.977,47.261,203,46.642,203.75z"/>
			<path fill="#B4DBD0" d="M12.012,14.918c0.748-0.716,0.609-1.236-0.139-2.014c-0.131-0.139-0.329-0.217-0.496-0.323
				c0.543,0.696,0.675,1.385,0.282,1.835c-0.315,0.361-0.644,0.714-0.952,1.083c-0.068,0.083-0.075,0.216-0.133,0.395
				C11.278,15.781,11.6,15.312,12.012,14.918z"/>
			<path fill="#1D1D1B" d="M-9.265,15.794c-1.178-0.72-2.317-0.419-3.174,0.657c-1.04,1.3-1.14,2.791-0.924,4.322
				c0.091,0.651,0.368,1.3,0.958,1.718c0.333,0.233,0.687,0.435,1.022,0.661c1.088,0.733,2.163,0.612,3.203-0.185
				c0.367-0.28,0.535-0.706,0.898-0.935c0.896-0.561,0.93-1.553,1.405-2.491c-0.326-0.677-0.527-1.516-1.041-2.063
				C-7.563,16.791-8.441,16.297-9.265,15.794z"/>
			<path fill="#1D1D1B" d="M9.816,18.022c0.813-0.231,1.599-0.556,2.389-0.854c0.124-0.047,0.232-0.171,0.315-0.283
				c0.153-0.209,0.236-0.545,0.435-0.635c0.563-0.251,0.731-0.722,0.789-1.233c0.051-0.437,0.101-0.949-0.073-1.326
				c-0.628-1.381-1.449-2.599-3.184-2.71c-0.051-0.004-0.101-0.049-0.152-0.069c-0.902-0.356-1.77-0.124-2.467,0.399
				c-1.108,0.835-1.436,2.095-1.494,3.563c0.031,0.19,0.093,0.502,0.126,0.815C6.657,17.112,8.461,18.411,9.816,18.022z
				 M10.707,15.499c0.308-0.369,0.637-0.722,0.952-1.083c0.394-0.45,0.261-1.14-0.282-1.835c0.167,0.106,0.364,0.185,0.496,0.323
				c0.748,0.777,0.885,1.298,0.139,2.014c-0.412,0.395-0.734,0.863-1.438,0.976C10.632,15.714,10.639,15.581,10.707,15.499z"/>
			<path fill="#1D1D1B" d="M-4.871-0.179c-0.53,0.062-1.08-0.025-1.44,0.328c-0.397,0.388-0.708,0.845-0.934,1.36
				c-0.474,1.076-0.214,2.2-0.231,3.323c0,0.062,0.042,0.131,0.089,0.18c0.791,0.787,1.509,1.708,2.861,1.391
				c0.005,0.051,0.011,0.1,0.015,0.151c0.565-0.19,1.322-0.221,1.653-0.61c0.446-0.529,1.027-0.771,1.515-1.172
				c0.307-0.249,0.564-0.575,0.773-0.913C-0.471,3.7-0.626,3.377-0.521,3.232c0.478-0.647,0.053-1.124-0.343-1.473
				c-0.783-0.692-1.646-1.046-2.49-1.662c-0.245-0.18-0.504-0.046-0.777-0.046h-0.535C-4.735,0.051-4.8-0.185-4.871-0.179z"/>
			<path fill="#1D1D1B" d="M49.259,10.509c-0.211-0.206-1.396-0.562-1.547-0.382c-0.345,0.406-0.708,0.822-0.945,1.294
				c-0.422,0.841-0.488,1.733-0.389,2.696c0.111,1.081,0.549,1.899,1.354,2.55c0.191,0.157,0.527,0.317,0.724,0.255
				c0.523-0.171,1.214,0.142,1.582-0.51c0.031-0.057,0.181-0.038,0.257-0.081c0.267-0.148,0.58-0.263,0.773-0.479
				c0.078-0.089,0.145-0.189,0.215-0.283v-4.02c-0.394-0.288-0.832-0.512-1.369-0.592C49.675,10.923,49.448,10.694,49.259,10.509z"
				/>
			<path fill="#1D1D1B" d="M-7.928,35.549c-0.729-0.448-1.35-1.09-2.25-1.298c-0.452-0.104-0.825-0.24-1.265,0.024
				c-0.21,0.127-0.5,0.127-0.609,0.153c-0.17,0.355-0.312,0.633-0.435,0.917c-0.457,1.024-1.037,1.987-0.216,3.165
				c0.372,0.533,0.485,1.206,1.11,1.625c0.483,0.33,1.526,0.787,1.997,0.484c0.676-0.436,1.329-0.942,1.876-1.527
				c0.281-0.302,0.396-0.828,0.438-1.265C-7.197,36.996-7.111,36.049-7.928,35.549z"/>
			<path fill="#1D1D1B" d="M7.977,28.387c0.41-0.74,0.624-1.495-0.024-2.235c-0.224-0.253-0.403-0.545-0.643-0.777
				c-0.244-0.232-0.521-0.455-0.822-0.611c-0.355-0.183-0.766-0.262-1.129-0.434c-0.732-0.353-1.144-0.267-1.633,0.408
				c-0.207,0.284-0.46,0.549-0.613,0.861c-0.389,0.791-0.657,1.656-0.517,2.518c0.076,0.457,0.483,0.977,0.887,1.222
				c0.529,0.324,1.206,0.404,1.617,0.53C5.866,29.86,7.718,28.857,7.977,28.387z"/>
			<path fill="#1D1D1B" d="M44.547,34.962c-0.029,0-0.059-0.045-0.14-0.109c0.02-0.055,0.021-0.124,0.053-0.147
				c0.428-0.302,0.175-0.631-0.006-0.894c-0.192-0.275-0.452-0.359-0.851-0.226c-0.732,0.246-1.314,0.672-1.758,1.267
				c-0.493,0.657-0.717,1.416-0.688,2.265c0.027,0.755,0.506,1.2,0.952,1.703c0.008,0.009,0.019,0.016,0.027,0.023
				c0.791,0.859,2.395,1.107,3.28,0.437c0.859-0.648,0.969-1.673,1.212-2.62c0.025-0.102-0.052-0.259-0.125-0.356
				c-0.165-0.22-0.329-0.442-0.507-0.644C45.635,35.251,45.209,34.935,44.547,34.962z"/>
			<path fill="#1D1D1B" d="M13.359,51.826c-0.162,0.034-0.336,0.189-0.428,0.339c-0.561,0.909-0.47,1.938-0.507,2.941
				c0,0.034,0.026,0.069,0.041,0.106c0.315,0.755,0.636,1.475,1.374,1.975c0.76,0.516,0.968,0.59,1.739,0.086
				c0.963-0.633,1.501-1.547,1.727-2.465c0.007-1.173-0.512-2.118-1.329-2.693C15.152,51.536,14.259,51.63,13.359,51.826z"/>
			<path fill="#1D1D1B" d="M31.548,38.383c-0.857-0.706-1.044-0.69-1.767-0.107c-0.833,0.67-1.17,1.6-1.583,2.522
				c-0.224,0.5,0.183,0.747,0.296,1.057c0.247,0.663,0.347,1.543,1.331,1.677c0.144,0.021,0.264,0.202,0.429,0.335
				c0.118-0.081,0.232-0.212,0.299-0.189c0.547,0.179,0.936-0.135,1.373-0.367c0.488-0.257,0.72-0.647,0.846-1.15
				c0.048-0.187,0.177-0.35,0.23-0.537c0.078-0.266,0.216-0.565,0.161-0.816C32.945,39.795,32.347,39.043,31.548,38.383z"/>
			<path fill="#1D1D1B" d="M2.163,59.48c0.7-0.724,1.462-1.381,1.79-2.417c0.267-0.839,0.31-1.612-0.326-2.214
				c-0.349-0.33-1.083-0.722-1.338-0.571c-0.457,0.273-0.756,0.006-1.087-0.031c-0.042-0.005-0.082-0.011-0.122-0.016
				c-0.375-0.049-0.683-0.112-0.862,0.37c-0.044,0.118-0.193,0.202-0.299,0.296c-0.067,0.062-0.187,0.104-0.203,0.178
				c-0.044,0.182-0.014,0.378-0.065,0.558c-0.155,0.547-0.334,1.09-0.486,1.572c0.076,0.274,0.084,0.479,0.183,0.622
				c0.39,0.581,0.782,1.157,1.22,1.696c0.093,0.112,0.289,0.178,0.513,0.2C1.479,59.767,1.972,59.677,2.163,59.48z"/>
			<path fill="#1D1D1B" d="M-3.478,49.418c0.241-0.271,0.388-0.459,0.559-0.624c0.472-0.451,1-0.858,1.429-1.35
				c0.5-0.572,0.38-1.81-0.146-2.353c-0.357-0.365-0.723-0.605-1.272-0.729c-0.496-0.109-0.982-0.376-1.497-0.265
				c-0.361,0.076-0.753,0.255-1.006,0.506c-0.227,0.229-0.273,0.633-0.417,0.947c-0.427,0.946-0.389,1.96,0.12,2.777
				C-5.24,49.086-4.38,49.514-3.478,49.418z"/>
			<path fill="#1D1D1B" d="M35.164,1.953c0.181-0.053,0.386-0.024,0.498-0.028c0.287-0.136,0.549-0.202,0.732-0.361
				c0.388-0.332,0.318-0.645,0.521-1.031c0.13-0.251,0.257-0.48,0.357-0.48H33.08c0.027,0,0.163,0.918,0.473,1.484
				C33.854,2.084,34.563,2.138,35.164,1.953z"/>
			<path fill="#1D1D1B" d="M-18.555,2.636c-0.355-0.896-0.911-1.581-1.979-1.655c-0.303-0.021-0.601-0.175-0.901-0.173
				c-0.474,0.004-0.699,0.43-0.971,0.731c-0.515,0.569-0.686,1.305-0.628,2.023c0.096,1.193,1.026,1.821,1.93,2.407
				c0.25,0.167,0.59,0.19,0.878,0.277c0.128-0.042,0.25-0.049,0.33-0.11c0.293-0.22,0.6-0.43,0.848-0.693
				c0.208-0.225,0.444-0.502,0.484-0.785c0.06-0.444-0.044-0.916-0.054-1.376C-18.624,3.065-18.484,2.814-18.555,2.636z"/>
			<path fill="#1D1D1B" d="M-21.744,48.796c-0.166-0.118-0.597-0.112-0.731,0.019c-0.915,0.884-1.19,2.037-1.051,3.245
				c0.056,0.486,0.44,0.934,0.679,1.401c0.471,0.919,1.105,1.078,2.008,0.635c0.711-0.348,1.593-1.673,1.664-2.514
				c-0.173-0.375-0.325-0.757-0.52-1.12C-20.142,49.63-21.022,49.3-21.744,48.796z"/>
			<path fill="#1D1D1B" d="M8.246,42.171c0.832-0.101,1.406-0.608,1.887-1.245c0.237-0.313,0.653-0.643,0.648-0.957
				c-0.006-0.521-0.202-1.092-0.471-1.551c-0.544-0.936-1.466-1.135-2.482-1.035c-0.257,0.029-0.521,0.043-0.771,0.109
				c-0.121,0.03-0.275,0.138-0.311,0.245c-0.202,0.611-0.445,1.22-0.54,1.854c-0.166,1.145-0.025,2.065,1.347,2.551
				C7.761,42.217,8.019,42.199,8.246,42.171z"/>
			<path fill="#1D1D1B" d="M39.576,55.905c-0.144-0.451-0.333-0.965-0.669-1.255c-0.377-0.33-0.927-0.518-1.431-0.63
				c-0.313-0.068-0.688,0.102-1.026,0.194c-0.169,0.049-0.374,0.135-0.461,0.269c-0.406,0.624-0.783,1.267-0.733,1.875
				c-0.021,1.392,0.855,2.065,1.574,2.83c0.042,0.039,0.179,0.018,0.262-0.011c0.199-0.055,0.39-0.191,0.585-0.191
				c0.424-0.002,0.74-0.149,0.979-0.49c0.2-0.291,0.369-0.624,0.632-0.845C39.911,57.117,39.843,56.723,39.576,55.905z"/>
			<path fill="#1D1D1B" d="M25.778,20.305c0.898-0.083,1.768-0.324,2.149-1.317c0.038-0.101,0.224-0.134,0.306-0.229
				c0.195-0.22,0.505-0.444,0.524-0.688c0.031-0.423,0.026-1.01-0.227-1.261c-0.751-0.745-1.638-1.346-2.616-1.264
				c-1.553,0.279-1.505,0.129-1.677,1.54c-0.012,0.108-0.068,0.214-0.079,0.324c-0.088,0.884,0.01,1.735,0.673,2.393
				C25.082,20.048,25.477,20.334,25.778,20.305z"/>
			<path fill="#1D1D1B" d="M47.919-0.269c-0.096,0.328-0.257,0.653-0.272,0.989c-0.031,0.728-0.039,1.461,0.039,2.183
				c0.042,0.38,0.111,0.828,0.673,0.953c0.303,0.07,0.573,0.333,0.83,0.541c0.382,0.308,1.063,0.333,1.425,0.008
				c0.221-0.194,0.469-0.376,0.669-0.587V0.869c-0.051-0.039-0.084-0.088-0.145-0.12c-0.357-0.192-0.711-0.434-0.824-0.896
				c-0.025-0.104-0.263,0.071-0.412,0.016c-0.104-0.035-0.23,0.182-0.344,0.182h-0.98c-0.183,0-0.354-0.046-0.53,0.055
				C48.006,0.064,47.963-0.226,47.919-0.269z"/>
			<path fill="#1D1D1B" d="M37.901,24.404c0.889,0.108,1.193-0.672,1.709-1.102c0.166-0.138,0.224-0.412,0.32-0.625
				c0.275-0.616,0.078-1.238,0.01-1.852c-0.02-0.2-0.028-0.488-0.15-0.564c-0.573-0.371-1.151-0.796-1.91-0.564
				c-0.086,0.028-0.185,0.047-0.273,0.032c-0.803-0.137-1.281,0.2-1.426,1.008c-0.025,0.14-0.052,0.286-0.106,0.416
				c-0.394,0.922-0.246,1.82,0.229,2.638C36.644,24.378,37.297,24.416,37.901,24.404z"/>
			<path fill="#1D1D1B" d="M-22.702,23.414c-0.026-0.086-0.083-0.287-0.167-0.576c-0.277,0.218-0.578,0.335-0.661,0.54
				c-0.419,1.014-1.032,2.035-0.535,3.183c0.58,1.337,1.259,2.175,2.761,1.154c0.267-0.183,0.483-0.446,0.694-0.7
				c0.46-0.545,0.516-1.216,0.491-1.887c-0.011-0.294-0.147-0.588-0.229-0.882c0.034-0.039,0.069-0.081,0.105-0.124
				C-21.035,23.892-21.83,23.665-22.702,23.414z"/>
			<path fill="#1D1D1B" d="M48.872,83.518c0.157,0.149,0.469,0.185,0.712,0.192c0.808,0.028,1.33-0.394,1.7-1.015v-2.946
				c-0.351-0.091-0.72-0.132-1.065-0.238c-0.615-0.185-1.216-0.414-1.818-0.624C47.586,80.306,47.794,82.48,48.872,83.518z"/>
			<path fill="#1D1D1B" d="M26.605,59.319c-0.36,0.204-0.634,1.78-0.379,2.121c0.43,0.579,0.916,1.112,1.407,1.645
				c0.109,0.117,0.353,0.22,0.499,0.184c1.146-0.269,2.083-0.875,2.482-2.01c0.126-0.363,0.003-0.985-0.25-1.277
				c-0.539-0.623-1.317-0.847-2.156-0.664c-0.166,0.033-0.312,0.156-0.468,0.232c-0.018,0.01-0.05-0.012-0.1-0.022
				c0.044-0.142,0.089-0.276,0.17-0.522C27.353,59.12,26.933,59.135,26.605,59.319z"/>
			<path fill="#1D1D1B" d="M22.841,31.915c0.192,0.107,0.547,0.127,0.728,0.02c0.881-0.541,1.703-1.144,2.055-2.204
				c0.231-0.71-0.254-1.793-0.977-1.909c-0.566-0.095-1.154-0.083-1.734-0.106c-0.062-0.004-0.14,0.049-0.191,0.097
				c-0.704,0.648-1.26,1.375-1.254,2.413c0.048,0.27,0.003,0.627,0.162,0.792C21.977,31.374,22.404,31.67,22.841,31.915z"/>
			<path fill="#1D1D1B" d="M12.965,4.954c0.3,0.079,0.661,0.188,0.917,0.09c0.248-0.096,0.424-0.428,0.587-0.687
				c0.312-0.48,0.579-0.992,0.888-1.477c0.528-0.828,0.275-1.769-0.628-2.144c-0.438-0.184-0.899-0.314-1.364-0.414
				c-0.491-0.11-1.221,0.444-1.282,0.946c-0.066,0.536-0.105,1.077-0.14,1.453C11.998,3.726,11.835,4.666,12.965,4.954z"/>
			<path fill="#1D1D1B" d="M45.957,45.998c-0.139-0.055-0.216-0.267-0.335-0.425c-0.29,0-0.646-0.084-0.942,0.016
				c-1.223,0.425-2.309,2.369-1.231,3.591c0.767,0.865,1.243,0.733,2.306,0.225c0.594-0.289,0.714-0.912,1.171-1.279
				c0.146-0.118,0.179-0.506,0.113-0.722C46.855,46.817,46.604,46.257,45.957,45.998z"/>
			<path fill="#1D1D1B" d="M-33.059,26.549c-0.521-0.261-0.83-0.104-1.07,0.35c-0.192,0.362-0.379,0.726-0.543,1.102
				c-0.421,0.965-0.087,2.352,0.749,2.971c0.152,0.114,0.488,0.137,0.654,0.045c0.409-0.224,0.846-0.477,1.126-0.833
				c0.43-0.547,1.068-1.012,1.109-1.894c-0.138-0.243-0.296-0.479-0.411-0.732C-31.763,26.854-32.487,26.836-33.059,26.549z"/>
			<path fill="#1D1D1B" d="M40.962,68.78c-0.143-0.012-0.405,0.263-0.44,0.44c-0.128,0.601-0.189,1.214-0.258,1.824
				c-0.094,0.839,0.69,1.867,1.522,1.983c0.165,0.023,0.408-0.018,0.512-0.127c0.673-0.702,1.254-1.465,1.273-2.599
				c-0.242-0.339,0.105-1.075-0.644-1.233C42.279,68.931,41.622,68.825,40.962,68.78z"/>
			<path fill="#1D1D1B" d="M-23.869,38.991c0.266,0.306,0.723,0.667,1.074,0.645c0.937-0.051,1.299-0.908,1.718-1.602
				c0.14-0.23,0.229-0.637,0.116-0.841c-0.314-0.569-0.591-1.227-1.325-1.402c-0.292-0.069-0.443-0.18-0.451-0.516
				c-0.004-0.188-0.179-0.371-0.312-0.62c-0.139,0.149-0.221,0.211-0.272,0.296c-0.274,0.461-0.6,0.902-0.801,1.396
				C-24.498,37.253-24.546,38.194-23.869,38.991z"/>
			<path fill="#1D1D1B" d="M50.895,50.775c-0.07,0.077-0.053,0.229-0.098,0.34c-0.194,0.471-0.441,0.93-0.583,1.413
				c-0.214,0.732,0.349,1.66,1.067,1.99v-4.063C51.164,50.49,51.005,50.656,50.895,50.775z"/>
			<path fill="#1D1D1B" d="M31.9,10.674c0.214-0.261,0.371-0.581,0.616-0.802c0.475-0.43,0.614-0.959,0.362-1.534
				c-0.11-0.249-0.156-0.523-0.243-0.822c-0.379-0.178-0.833-0.403-1.301-0.606c-0.645-0.28-1.166-0.021-1.341,0.649
				c-0.042,0.161-0.104,0.316-0.127,0.48c-0.134,0.863-0.296,1.714,0.288,2.518C30.542,11.094,31.465,11.202,31.9,10.674z"/>
			<path fill="#1D1D1B" d="M18.354,43.662c0.31,0.089,0.53,0.455,0.828,0.624c0.175,0.097,0.444,0.105,0.644,0.049
				c0.341-0.092,0.659-0.267,1.061-0.439c-0.321-0.392-0.301-0.681,0.018-1.02c0.336-0.357,0.344-0.794-0.02-1.186
				c-0.497-0.534-1.068-0.935-1.814-1.016c-0.469-0.055-1.276,0.376-1.297,0.708c-0.031,0.473-0.074,0.959,0.015,1.414
				C17.851,43.113,17.86,43.523,18.354,43.662z"/>
			<path fill="#1D1D1B" d="M-32.723,35.153c-0.241,0.296-0.549,0.525-0.655,0.828c-0.375,1.063,0.009,2.163,0.935,2.829
				c0.355,0.256,0.771,0.264,1.177-0.092c0.524-0.463,0.713-1.047,0.809-1.685c0.057-0.389-0.61-1.298-0.971-1.228
				C-32.043,35.923-32.341,35.545-32.723,35.153z"/>
			<path fill="#1D1D1B" d="M25.307,51.43c-0.259-0.891-1.159-0.632-1.726-0.967c-0.028-0.014-0.122,0.023-0.144,0.059
				c-0.31,0.504-0.609,1.013-0.79,1.313c0.008,1.053,0.685,1.852,1.465,1.965c0.234,0.036,0.496,0.206,0.65-0.226
				c0.105-0.296,0.438-0.518,0.685-0.75c0.506-0.475,0.513-0.734,0.007-1.224C25.401,51.546,25.325,51.497,25.307,51.43z"/>
			<path fill="#1D1D1B" d="M49.345,63.149c-0.103,0.255-0.188,0.523-0.233,0.791c-0.167,0.971-0.189,1.561,0.947,1.983
				c0.628,0.235,1.06,0.031,1.224-0.582v-2.536c-0.516-0.149-1.051-0.247-1.567-0.367C49.582,62.697,49.442,62.912,49.345,63.149z"
				/>
			<path fill="#1D1D1B" d="M-24.369,13.867c-0.271,0.551-0.5,1.124-0.741,1.689c0.053,0.01,0.105,0.02,0.158,0.025
				c-0.258,0.768,0.242,1.073,0.789,1.261c0.271,0.093,0.722,0.093,0.902-0.073c0.407-0.373,0.708-0.867,1.025-1.33
				c0.072-0.105,0.085-0.29,0.05-0.419c-0.125-0.459-1.277-1.358-1.751-1.356C-24.087,13.663-24.312,13.751-24.369,13.867z"/>
			<path fill="#1D1D1B" d="M-7.707,190.114c0.695-1.194,0.371-2.326-0.729-3.162c-1.322-1.006-2.815-1.072-4.342-0.819
				c-0.647,0.102-1.291,0.396-1.692,0.997c-0.226,0.337-0.421,0.695-0.641,1.036c-0.707,1.103-0.563,2.177,0.259,3.2
				c0.289,0.358,0.715,0.518,0.953,0.875c0.581,0.883,1.576,0.896,2.522,1.347c0.671-0.339,1.506-0.562,2.038-1.086
				C-8.661,191.838-8.19,190.951-7.707,190.114z"/>
			<path fill="#1D1D1B" d="M-26.231,188.363c-0.133-0.208-0.139-0.498-0.167-0.607c-0.359-0.161-0.639-0.295-0.925-0.414
				c-1.036-0.43-2.012-0.99-3.172-0.144c-0.523,0.384-1.194,0.517-1.601,1.151c-0.313,0.487-0.75,1.542-0.438,2.006
				c0.449,0.665,0.973,1.306,1.57,1.837c0.307,0.273,0.836,0.378,1.276,0.411c0.83,0.062,1.778,0.13,2.262-0.697
				c0.43-0.741,1.058-1.376,1.245-2.283C-26.083,189.171-25.956,188.794-26.231,188.363z"/>
			<path fill="#1D1D1B" d="M-36.121,197.125c0.098-0.5,0.355-0.988,0.231-1.502c-0.087-0.357-0.271-0.745-0.534-0.994
				c-0.232-0.224-0.634-0.259-0.953-0.395c-0.957-0.403-1.971-0.343-2.774,0.181c-0.746,0.487-1.154,1.357-1.039,2.257
				c0.275,0.232,0.469,0.373,0.636,0.545c0.462,0.463,0.883,0.979,1.383,1.396c0.585,0.486,1.821,0.341,2.35-0.2
				C-36.464,198.047-36.231,197.676-36.121,197.125z"/>
			<path fill="#1D1D1B" d="M-35.838,182.686c-0.904-0.893-2.063-1.144-3.269-0.975c-0.486,0.065-0.924,0.461-1.384,0.708
				c-0.91,0.494-1.053,1.132-0.589,2.024c0.365,0.702,1.71,1.556,2.552,1.605c0.369-0.18,0.75-0.339,1.106-0.542
				c0.821-0.471,1.133-1.358,1.618-2.088C-35.691,183.246-35.705,182.817-35.838,182.686z"/>
			<path fill="#1D1D1B" d="M-41.204,177.492c0.37-0.18,0.75-0.341,1.107-0.545c0.82-0.471,1.132-1.354,1.618-2.085
				c0.114-0.168,0.098-0.6-0.033-0.732c-0.906-0.892-2.065-1.143-3.27-0.975c-0.486,0.066-0.925,0.458-1.384,0.707
				c-0.91,0.492-1.054,1.132-0.588,2.025C-43.392,176.59-42.046,177.441-41.204,177.492z"/>
			<path fill="#1D1D1B" d="M-39.81,162.737c0.373-0.181,0.753-0.337,1.109-0.541c0.821-0.472,1.129-1.356,1.618-2.089
				c0.112-0.167,0.098-0.601-0.035-0.732c-0.904-0.894-2.063-1.145-3.268-0.977c-0.486,0.068-0.927,0.459-1.387,0.712
				c-0.908,0.492-1.052,1.129-0.588,2.022C-41.997,161.835-40.65,162.688-39.81,162.737z"/>
			<path fill="#1D1D1B" d="M-19.185,179.028c0.559,0.445,1.231,0.488,1.9,0.447c0.294-0.017,0.583-0.161,0.876-0.249
				c0.042,0.035,0.083,0.069,0.125,0.102c0.212-0.798,0.422-1.597,0.651-2.473c0.086-0.029,0.288-0.09,0.575-0.179
				c-0.224-0.274-0.349-0.57-0.555-0.653c-1.025-0.394-2.06-0.983-3.196-0.459c-1.322,0.61-2.144,1.308-1.09,2.785
				C-19.712,178.614-19.443,178.824-19.185,179.028z"/>
			<path fill="#1D1D1B" d="M-19.377,165.512c-0.365-0.187-0.735-0.365-1.113-0.521c-0.977-0.396-2.351-0.03-2.954,0.816
				c-0.11,0.157-0.125,0.492-0.03,0.657c0.234,0.401,0.498,0.837,0.86,1.108c0.557,0.417,1.038,1.041,1.919,1.063
				c0.241-0.144,0.471-0.307,0.724-0.428c0.694-0.333,0.696-1.057,0.969-1.636C-18.755,166.043-18.919,165.741-19.377,165.512z"/>
			<path fill="#1D1D1B" d="M-31.229,176.047c-0.303,0.271-0.653,0.736-0.624,1.084c0.074,0.938,0.94,1.28,1.641,1.683
				c0.233,0.133,0.645,0.216,0.846,0.096c0.561-0.324,1.214-0.618,1.372-1.355c0.063-0.294,0.167-0.447,0.504-0.463
				c0.187-0.01,0.365-0.188,0.612-0.326c-0.152-0.135-0.218-0.218-0.301-0.267c-0.469-0.262-0.918-0.577-1.414-0.768
				C-29.509,175.38-30.448,175.349-31.229,176.047z"/>
			<path fill="#1D1D1B" d="M21.294,192.071c-0.429,1.094-0.131,2.237-0.104,3.359c0.001,0.062,0.049,0.145,0.099,0.19
				c0.816,0.759,1.568,1.658,2.911,1.294c0.006,0.051,0.014,0.102,0.02,0.152c0.557-0.21,1.314-0.265,1.628-0.669
				c0.427-0.545,0.996-0.804,1.472-1.226c0.297-0.259,0.543-0.596,0.738-0.94c0.091-0.165-0.075-0.483,0.025-0.629
				c0.453-0.665,0.01-1.126-0.397-1.461c-0.808-0.66-1.693-1.226-2.56-1.812c-0.466-0.319-0.96-0.306-1.527-0.217
				c-0.527,0.082-1.075,0.137-1.421,0.5C21.794,191.02,21.502,191.547,21.294,192.071z"/>
			<path fill="#1D1D1B" d="M18.726,205.458c-0.807-0.661-1.693-1.225-2.56-1.815c-0.464-0.314-0.96-0.3-1.526-0.217
				c-0.529,0.084-1.076,0.139-1.423,0.506c-0.382,0.402-0.674,0.933-0.883,1.455c-0.43,1.092-0.127,2.236-0.102,3.357
				c0.002,0.064,0.046,0.144,0.095,0.19c0.817,0.761,1.574,1.656,2.912,1.292c0.004,0.055,0.013,0.105,0.02,0.154
				c0.559-0.21,1.312-0.267,1.628-0.669c0.427-0.543,0.998-0.806,1.472-1.224c0.295-0.261,0.543-0.6,0.737-0.941
				c0.093-0.163-0.075-0.482,0.026-0.629C19.576,206.256,19.134,205.793,18.726,205.458z"/>
			<path fill="#1D1D1B" d="M32.706,180.352c0.475,0.173,1.123,0.333,1.521,0.141c0.624-0.298,1.104-0.9,1.644-1.378
				c0.014-0.012,0.017-0.036,0.021-0.053c0.063-0.329,0.163-0.657,0.184-0.99c0.037-0.569,0.14-1.173,0.003-1.708
				c-0.16-0.642-0.542-1.226-0.803-1.789c-0.568-0.014-1.063-0.032-1.559-0.036c-0.518-0.007-0.895,0.32-1.332,0.592
				c-0.349-0.481,0.126-0.749,0.268-1.185c-0.318-0.195-0.573-0.244-0.88,0.136c-0.947,1.173-1.101,2.559-1.088,3.962
				C30.691,179.34,31.631,179.963,32.706,180.352z"/>
			<path fill="#1D1D1B" d="M13.048,182.466c0.046,0.274,0.071,0.557,0.146,0.82c0.248,0.89,0.724,1.565,1.667,1.859
				c0.401,0.124,0.602,0.39,1.135-0.012c0.613-0.457,1.224-0.893,1.69-1.49c0.257-0.328,0.514-0.748,0.538-1.138
				c0.027-0.408-0.131-0.906-0.383-1.231c-0.432-0.562-0.939-1.114-1.532-1.486c-0.365-0.229-0.979-0.247-1.422-0.131
				C13.843,179.926,13.035,181.273,13.048,182.466z"/>
			<path fill="#1D1D1B" d="M10.038,193.677c-0.387-0.882-0.969-1.547-2.038-1.583c-0.303-0.01-0.608-0.15-0.908-0.137
				c-0.474,0.023-0.684,0.459-0.945,0.769c-0.493,0.584-0.635,1.328-0.551,2.043c0.142,1.191,1.092,1.783,2.017,2.336
				c0.257,0.155,0.596,0.167,0.891,0.241c0.125-0.043,0.245-0.056,0.323-0.122c0.285-0.23,0.585-0.449,0.822-0.724
				c0.201-0.231,0.426-0.523,0.454-0.803c0.044-0.446-0.078-0.915-0.104-1.374C9.985,194.111,10.117,193.854,10.038,193.677z"/>
			<path fill="#1D1D1B" d="M1.538,184.368c-0.124-0.118-0.287-0.191-0.458-0.259c-0.21-0.081-0.432-0.152-0.614-0.274
				c-0.383-0.251-0.946,0.035-1.232-0.463c-0.086-0.151-0.295-0.371-0.395-0.348c-0.286,0.069-0.711,0.188-0.793,0.396
				c-0.327,0.851-0.544,1.745-0.778,2.536c0.188,0.615,0.277,1.096,0.484,1.522c0.264,0.537,0.539,1.127,1.328,1.031
				c0.226-0.027,0.504-0.103,0.672-0.005c0.429,0.249,0.677-0.129,0.757-0.308c0.175-0.392,0.376-0.774,0.569-1.158
				c0.283-0.566,0.545-1.141,0.66-1.77C1.792,184.982,1.729,184.546,1.538,184.368z"/>
			<path fill="#1D1D1B" d="M43.911,171.946c0.176,0.286,0.397,0.59,0.678,0.753c0.563,0.323,1.072,0.506,1.798,0.051
				c0.706-0.443,1.02-1.157,1.611-1.649c0.146-0.118,0.113-0.447,0.146-0.595c-0.188-1.199-0.33-1.883-1.627-2.101
				c-0.551-0.092-1.124-0.082-1.689-0.076c-0.206,0.002-0.537,0.072-0.597,0.206c-0.352,0.78-0.911,1.517-0.72,2.444
				C43.581,171.317,43.729,171.652,43.911,171.946z"/>
			<path fill="#1D1D1B" d="M20.469,169.116c-0.138-0.327-0.584-0.296-0.694,0.034c-0.315,0.931-0.584,1.875-0.87,2.812
				c0.055,0.019,0.107,0.033,0.16,0.049c-0.026,0.798,0.424,1.428,0.963,1.863c0.382,0.306,1.045,0.319,1.588,0.353
				c0.167,0.008,0.373-0.337,0.535-0.54c0.1-0.124,0.122-0.304,0.22-0.423c0.33-0.408,0.692-0.794,1.021-1.206
				c0.317-0.401,0.184-0.837-0.132-1.117c-0.351-0.314-0.804-0.517-1.222-0.748C21.478,169.887,20.77,169.84,20.469,169.116z"/>
			<path fill="#1D1D1B" d="M25.004,182.899c0.381,0.309,1.044,0.32,1.587,0.354c0.168,0.008,0.374-0.339,0.536-0.543
				c0.1-0.118,0.121-0.302,0.221-0.422c0.329-0.408,0.691-0.794,1.019-1.204c0.317-0.403,0.185-0.837-0.131-1.12
				c-0.351-0.31-0.803-0.516-1.224-0.746c-0.558-0.307-1.266-0.354-1.566-1.077c-0.139-0.328-0.584-0.296-0.697,0.035
				c-0.317,0.928-0.583,1.872-0.868,2.81c0.054,0.018,0.104,0.036,0.16,0.051C24.015,181.832,24.466,182.464,25.004,182.899z"/>
			<path fill="#1D1D1B" d="M43.453,188.508c0.303,0.064,0.668,0.16,0.921,0.053c0.245-0.105,0.405-0.443,0.561-0.706
				c0.292-0.492,0.542-1.016,0.832-1.512c0.499-0.843,0.208-1.776-0.701-2.118c-0.445-0.163-0.915-0.277-1.38-0.36
				c-0.495-0.091-1.206,0.487-1.249,0.996c-0.046,0.537-0.063,1.079-0.085,1.455C42.438,187.315,42.312,188.257,43.453,188.508z"/>
			<path fill="#1D1D1B" d="M-28.438,166.471c-1.073-0.35-2.164,0.059-2.809,1.002c-0.245,0.358-0.245,0.773,0.12,1.172
				c0.474,0.514,1.061,0.688,1.703,0.771c0.388,0.047,1.283-0.639,1.204-1c-0.133-0.611,0.241-0.917,0.622-1.308
				C-27.9,166.873-28.137,166.569-28.438,166.471z"/>
			<path fill="#1D1D1B" d="M-17.55,87.252c-0.932,0.211-1.849,0.479-2.777,0.704c-0.905,0.222-1.356,0.9-1.73,1.659
				c-0.192,0.39-0.091,0.697,0.225,1.002c0.501,0.481,0.969,1,1.444,1.508c0.092,0.098,0.141,0.255,0.251,0.315
				c0.786,0.434,1.568,0.848,2.518,0.398c0.438-0.208,1.081-0.858,1.11-1.345c0.015-0.217-0.095-0.438-0.08-0.649
				c0.005-0.109,0.164-0.208,0.251-0.31c0.079,0.004,0.159,0.012,0.236,0.018c-0.178-0.473-0.266-1.014-0.558-1.401
				c-0.328-0.438-0.506-0.835-0.408-1.371C-17.002,87.42-17.164,87.166-17.55,87.252z"/>
			<path fill="#1D1D1B" d="M-14.781,56.448c-0.191,0.391-0.091,0.702,0.224,1.002c0.502,0.484,0.969,1.004,1.447,1.512
				c0.09,0.096,0.14,0.253,0.25,0.312c0.786,0.434,1.567,0.847,2.516,0.399c0.439-0.208,1.083-0.857,1.113-1.343
				c0.013-0.218-0.095-0.441-0.081-0.653c0.007-0.107,0.164-0.208,0.25-0.308c0.08,0.004,0.159,0.008,0.238,0.016
				c-0.179-0.473-0.267-1.012-0.56-1.401c-0.326-0.436-0.506-0.833-0.408-1.369c0.064-0.358-0.097-0.615-0.482-0.526
				c-0.932,0.21-1.85,0.479-2.778,0.703C-13.957,55.011-14.407,55.689-14.781,56.448z"/>
			<path fill="#1D1D1B" d="M9.871,67.031c-0.515-0.612-0.258-1.01,0.041-1.516c0.082-0.142,0.077-0.365,0.042-0.537
				c-0.038-0.188-0.157-0.357-0.243-0.532C9.54,64.384,9.35,64.35,9.199,64.255c-0.537-0.348-1.059-0.714-1.756-0.433
				c-0.095,0.041-0.221,0.013-0.333,0.004c-0.678-0.047-1.241,0.237-1.666,0.719c-0.413,0.465-0.901,0.958-0.492,1.688
				c0.033,0.057-0.003,0.148,0,0.222c0.047,0.73,0.293,1.437,0.836,1.881c0.665,0.543,1.463,0.929,2.228,1.341
				c0.202,0.108,0.599,0.172,0.72,0.06c0.34-0.321,0.584-0.743,0.868-1.125c0.017-0.021,0.051-0.033,0.083-0.054
				c0.028,0.078,0.055,0.153,0.104,0.294C10.125,68.209,10.279,67.511,9.871,67.031z"/>
			<path fill="#1D1D1B" d="M-35.821,85.02c-0.014-0.402-0.146-0.8-0.22-1.177c0.546-0.176,0.841-0.345,0.677-1.019
				c-0.172-0.699-0.264-1-0.89-1.039c-0.537-0.033-1.08-0.035-1.617,0.006c-1.087,0.084-1.979,0.551-2.55,1.508
				c-0.187,0.317-0.281,0.687-0.44,1.022c-0.317,0.651,0.25,2.07,0.944,2.298c0.335,0.112,0.688,0.167,1.029,0.268
				c0.283,0.08,0.69,0.356,0.816,0.259c0.429-0.335,0.893-0.118,1.319-0.23c0.185-0.049,0.38-0.094,0.538-0.191
				C-35.513,86.299-35.802,85.614-35.821,85.02z"/>
			<path fill="#1D1D1B" d="M14.942,63.654c-0.257,0.49-0.475,1.047-0.514,1.59c-0.042,0.599,0.143,1.212,0.215,1.72
				c0.274,0.071,0.528,0.06,0.605,0.169c0.353,0.522,0.909,0.681,1.443,0.876c0.478,0.177,0.888,0.129,1.308-0.263
				c0.704-0.661,1.353-1.285,1.005-2.387c-0.057-0.185,0.131-0.443,0.207-0.667c0.058,0.008,0.116,0.021,0.172,0.03
				c-0.375-0.813-1.059-1.285-1.815-1.724C16.429,62.336,15.542,62.504,14.942,63.654z"/>
			<path fill="#1D1D1B" d="M25.648,69.321c0.066,0.489,0.62,0.539,0.84,0.884c0.396,0.632,1.049,0.659,1.628,0.557
				c0.607-0.109,1.172-0.451,1.75-0.688c-0.003-0.006,0.03,0.102,0.083,0.265c0.195-0.265,0.332-0.477,0.497-0.67
				c0.377-0.439,0.477-1.047,0.229-1.551c-0.082-0.171-0.204-0.328-0.257-0.506c-0.315-1.016-0.688-1.081-1.639-1.194
				c-0.362-0.045-0.746,0.033-1.116,0.068C26.079,66.641,25.453,67.87,25.648,69.321z"/>
			<path fill="#1D1D1B" d="M-37.027,95.745c0.585-0.232,0.885-0.534,0.758-1.09c-0.161-0.699-0.513-1.36-0.366-2.113
				c0.011-0.056-0.092-0.173-0.166-0.204c-0.348-0.146-0.727-0.235-1.057-0.414c-0.72-0.39-1.374-0.223-2.026,0.149
				c-1.025,0.463-1.214,1.471-1.542,2.385c-0.037,0.102,0.104,0.294,0.204,0.415c0.169,0.208,0.478,0.363,0.538,0.591
				c0.134,0.521,0.5,0.38,0.835,0.411c0.263,0.024,0.52,0.099,0.782,0.143c0.435,0.069,0.869,0.133,1.304,0.2
				C-37.71,95.773-37.277,95.847-37.027,95.745z"/>
			<path fill="#1D1D1B" d="M39.43,96.759c-0.985-0.21-1.968,0.392-2.693-0.264c-0.345,0.185-0.755,0.274-0.942,0.531
				c-0.625,0.86-1.414,1.695-1.044,2.92c0.061,0.197,0.209,0.366,0.252,0.566c0.102,0.481,0.48,0.648,0.866,0.7
				c0.814,0.114,1.637,0.157,2.491,0.231c0.149-0.431,0.322-0.824,0.422-1.239c0.077-0.32-0.014-0.691,0.109-0.98
				c0.147-0.343,0.024-0.493-0.204-0.691c-0.067-0.055-0.075-0.326-0.044-0.339C39.304,97.922,39.1,97.253,39.43,96.759z"/>
			<path fill="#1D1D1B" d="M-0.141,73.043c-0.04-0.159-0.053-0.324-0.077-0.488c-0.106-0.687-0.178-1.381-0.33-2.057
				c-0.098-0.42-0.753-0.675-1.169-0.5c-0.568,0.241-1.131,0.494-1.678,0.778c-0.557,0.289-1.057,1.323-0.959,1.902
				c0.093,0.527,0.189,1.055,0.273,1.534c0.263,0.061,0.459,0.047,0.58,0.141c0.807,0.614,1.647,0.449,2.512,0.174
				C-0.286,74.307,0.04,73.757-0.141,73.043z"/>
			<path fill="#1D1D1B" d="M3.521,95.237c0.934,0.012,1.967,0.023,3.159,0.037c-0.002-0.423,0.067-0.917-0.03-1.376
				c-0.104-0.479-0.094-0.787,0.378-1.057c0.507-0.29,0.559-0.716,0.233-1.159c-0.049-0.067-0.128-0.113-0.208-0.182
				c0.115-0.041,0.197-0.069,0.282-0.096C7.206,90.8,6.758,90.714,6.3,90.834c-0.571,0.151-1.108,0.42-1.666,0.616
				c-1.001,0.343-1.555,1.146-1.996,2.014c-0.158,0.306-0.187,0.748,0.211,1.053C3.092,94.698,3.272,94.965,3.521,95.237z"/>
			<path fill="#1D1D1B" d="M13.233,77.103c-0.829-0.289-1.682-0.155-2.64,0.341c-0.175,0.209-0.631,0.521-0.721,0.919
				c-0.125,0.564,0.013,1.193,0.055,1.794c0.002,0.043,0.141,0.075,0.215,0.107c0.427,0.186,0.872,0.333,1.273,0.556
				c0.336,0.188,0.642,0.481,1.046,0.273c0.428-0.218,0.982-0.12,1.241-0.777c0.285-0.725,0.22-1.431,0.273-2.152
				C14.017,77.576,13.624,77.236,13.233,77.103z"/>
			<path fill="#1D1D1B" d="M-21.637,72.006c-0.633,0.131-1.549,1.169-1.461,1.742c0.096,0.631,0.354,1.284,1.009,1.576
				c0.459,0.206,0.977,0.266,1.444,0.457c0.364,0.149,0.661,0.068,0.975-0.086c0.609-0.3,1.229-1.514,1.056-2.112
				c-0.154-0.539-0.326-1.073-0.491-1.611c-0.154,0.018-0.36,0.106-0.456,0.037C-20.258,71.518-20.957,71.869-21.637,72.006z"/>
			<path fill="#1D1D1B" d="M-7.709,80.141c-0.234-0.228-0.634-0.277-0.892-0.493c-0.437-0.365-0.726,0.043-1.036,0.16
				c-0.579,0.219-1.131,0.513-1.665,0.824c-0.627,0.363-0.33,1.067-0.507,1.597c-0.122,0.361,0.019,0.59,0.403,0.755
				c1.053,0.443,2.137,0.41,3.232,0.315c0.054-0.006,0.104-0.047,0.105-0.047c0.296-0.223,0.604-0.371,0.791-0.61
				c0.206-0.265,0.483-0.571,0.073-0.959c-0.162-0.15-0.282-0.568-0.187-0.726C-7.111,80.494-7.522,80.325-7.709,80.141z"/>
			<path fill="#1D1D1B" d="M34.486,81.829c-0.693,0.265-1.057,0.796-1.277,1.516c-0.37,1.198-0.034,2.136,0.975,2.604
				c0.368-0.479,0.381-0.504,1.054-0.232c0.331,0.133,0.602,0.208,0.867-0.083c0.27-0.292,0.541-0.579,0.805-0.873
				c0.035-0.04,0.06-0.137,0.039-0.159c-0.335-0.325,0.014-0.616,0.039-0.921c0.012-0.144,0.093-0.324,0.035-0.426
				c-0.406-0.722-0.919-1.343-1.797-1.49C34.986,81.727,34.711,81.747,34.486,81.829z"/>
			<path fill="#1D1D1B" d="M-15.912,68.509c-0.03,0.186,0.542,0.478,0.851,0.704c0.178,0.131,0.376,0.235,0.573,0.341
				c0.541,0.292,1.711,0.179,2.11-0.271c0.325-0.365,0.68-0.738,0.577-1.338c-0.062-0.361,0.044-0.747,0.042-1.122
				c-0.001-0.155-0.044-0.384-0.152-0.459c-0.917-0.639-1.862-0.618-2.814-0.062c-0.031,0.018-0.063,0.038-0.098,0.051
				C-15.843,66.73-15.782,67.703-15.912,68.509z"/>
			<path fill="#1D1D1B" d="M1.327,85.336c0.13,0.169,0.162,0.272,0.458,0.138c0.334-0.155,0.782-0.051,1.183-0.071
				c0.27-0.012,0.537-0.041,0.806-0.063c0.427-0.324,1.043-1.696,0.793-2.075c-0.25-0.378-0.628-0.724-1.026-0.945
				c-0.892-0.491-1.749-0.028-2.442,0.435c-0.008,0.005-0.013,0.016-0.02,0.021c-0.382,0.279-0.548,0.954-0.68,1.481
				c-0.056,0.228,0.047,0.673,0.521,0.73c0.055,0.006,0.107,0.04,0.159,0.081C1.17,85.138,1.255,85.246,1.327,85.336z"/>
			<path fill="#1D1D1B" d="M24.841,79.758c-0.085-0.645-0.91-1.185-1.505-0.942c-0.404,0.16-0.789,0.368-1.236,0.578
				c-0.664,0.262-0.56,1.034-0.857,1.56c-0.106,0.191,0.044,0.767,0.194,0.821c0.667,0.231,1.177,1.043,2.039,0.61
				c0.061-0.031,0.15,0.004,0.223-0.016c0.268-0.063,0.648-0.052,0.771-0.221c0.336-0.481,0.972-0.896,0.558-1.658
				C24.909,80.272,24.874,80.005,24.841,79.758z"/>
			<path fill="#1D1D1B" d="M-26.064,60.253c-0.403,0.163-0.79,0.371-1.236,0.581c-0.664,0.261-0.558,1.034-0.855,1.559
				c-0.108,0.192,0.041,0.769,0.195,0.822c0.666,0.229,1.177,1.043,2.036,0.611c0.062-0.03,0.151,0.002,0.223-0.018
				c0.265-0.062,0.65-0.051,0.77-0.22c0.336-0.481,0.975-0.899,0.558-1.659c-0.115-0.214-0.151-0.481-0.185-0.731
				C-24.644,60.553-25.467,60.014-26.064,60.253z"/>
			<path fill="#1D1D1B" d="M-46.516,87.577c-0.115-0.218-0.151-0.483-0.184-0.731c-0.085-0.648-0.909-1.186-1.505-0.945
				c-0.403,0.163-0.79,0.369-1.236,0.581c-0.665,0.257-0.558,1.032-0.857,1.559c-0.107,0.19,0.043,0.765,0.196,0.82
				c0.667,0.23,1.177,1.045,2.038,0.611c0.062-0.03,0.148,0.004,0.223-0.016c0.265-0.062,0.649-0.051,0.769-0.222
				C-46.737,88.752-46.1,88.338-46.516,87.577z"/>
			<path fill="#1D1D1B" d="M8.37,122.336c0.666,0.229,1.177,1.043,2.036,0.609c0.062-0.028,0.151,0.005,0.224-0.016
				c0.265-0.059,0.65-0.047,0.768-0.218c0.336-0.482,0.975-0.897,0.559-1.661c-0.117-0.213-0.152-0.48-0.186-0.731
				c-0.085-0.646-0.91-1.186-1.505-0.942c-0.403,0.159-0.79,0.367-1.236,0.577c-0.664,0.259-0.56,1.034-0.855,1.561
				C8.067,121.707,8.216,122.283,8.37,122.336z"/>
			<path fill="#1D1D1B" d="M25.905,130.812c0.062-0.028,0.15,0.007,0.224-0.014c0.266-0.062,0.648-0.051,0.77-0.222
				c0.336-0.482,0.974-0.897,0.559-1.657c-0.115-0.218-0.151-0.483-0.184-0.731c-0.086-0.649-0.91-1.188-1.507-0.945
				c-0.402,0.161-0.791,0.371-1.234,0.581c-0.665,0.259-0.561,1.029-0.858,1.559c-0.107,0.192,0.043,0.768,0.197,0.82
				C24.534,130.434,25.047,131.247,25.905,130.812z"/>
			<path fill="#1D1D1B" d="M37.333,121.322c0.062-0.03,0.15,0.004,0.223-0.017c0.268-0.062,0.649-0.051,0.77-0.22
				c0.338-0.481,0.975-0.898,0.559-1.659c-0.114-0.216-0.15-0.481-0.184-0.731c-0.087-0.648-0.908-1.188-1.504-0.945
				c-0.406,0.163-0.791,0.371-1.237,0.583c-0.663,0.257-0.56,1.027-0.858,1.559c-0.107,0.19,0.043,0.768,0.196,0.822
				C35.964,120.941,36.473,121.755,37.333,121.322z"/>
			<path fill="#1D1D1B" d="M-55.201,127.692c0.06-0.031,0.149,0.002,0.222-0.014c0.268-0.063,0.649-0.052,0.77-0.225
				c0.338-0.48,0.975-0.895,0.56-1.656c-0.115-0.217-0.151-0.482-0.184-0.733c-0.086-0.645-0.91-1.183-1.506-0.941
				c-0.405,0.158-0.79,0.366-1.236,0.578c-0.664,0.26-0.561,1.033-0.857,1.562c-0.107,0.188,0.043,0.767,0.195,0.819
				C-56.572,127.312-56.063,128.127-55.201,127.692z"/>
			<path fill="#1D1D1B" d="M-43.729,139.304c-0.109,0.19,0.042,0.77,0.194,0.819c0.667,0.229,1.177,1.045,2.038,0.61
				c0.062-0.032,0.149,0.004,0.223-0.017c0.267-0.061,0.65-0.049,0.771-0.219c0.336-0.482,0.975-0.897,0.557-1.659
				c-0.115-0.216-0.15-0.481-0.184-0.732c-0.085-0.645-0.91-1.181-1.505-0.942c-0.404,0.161-0.79,0.369-1.236,0.581
				C-43.537,138.001-43.432,138.776-43.729,139.304z"/>
			<path fill="#1D1D1B" d="M-29.436,83.888c-0.01,0.073-0.018,0.144-0.022,0.169c0.232,0.168,0.427,0.304,0.616,0.451
				c0.306,0.234,1.402,0.477,1.737,0.397c0.066-0.02,0.155,0.062,0.235,0.079c0.132,0.033,0.268,0.08,0.398,0.074
				c0.427-0.019,0.811-0.21,0.871-0.635c0.085-0.612,0.277-1.379,0.007-1.828c-0.333-0.551-1.025-1.075-1.839-0.845
				c-0.619,0.172-1.308,0.343-1.771,0.743C-29.477,82.731-29.371,83.41-29.436,83.888z"/>
			<path fill="#1D1D1B" d="M-24.567,109.002c0.29,0.025,0.532,0.083,0.77,0.066c0.895-0.072,1.027-0.309,0.708-1.155
				c-0.174-0.465-0.403-0.928-0.482-1.412c-0.062-0.378-0.223-0.44-0.539-0.485c-0.859-0.114-1.483,0.414-2.13,0.804
				c-0.292,0.178-0.567,0.586-0.605,0.919c-0.071,0.575,0.782,1.373,1.4,1.434c0.248,0.024,0.5-0.004,0.75-0.01
				c-0.019,0.09-0.037,0.181-0.054,0.269C-24.689,109.287-24.627,109.146-24.567,109.002z"/>
			<path fill="#1D1D1B" d="M20.374,89.417c-0.638,0.037-1.271,0.167-1.91,0.194c-1.007,0.047-1.204,0.808-1.458,1.539
				c-0.165,0.479,0.194,0.735,0.497,0.869c0.504,0.216,1.07,0.296,1.61,0.437c0.333-0.357,0.697-0.62,0.882-0.976
				c0.282-0.54,0.178-1.243,0.685-1.708C20.686,89.764,20.473,89.413,20.374,89.417z"/>
			<path fill="#1D1D1B" d="M-2.292,92.399c0.391-0.769,0.588-1.53-0.062-2.267c-0.126,0.07-0.24,0.174-0.369,0.194
				c-0.466,0.075-0.942,0.096-1.405,0.183c-0.751,0.133-1.28,0.773-1.199,1.444c0.03,0.251,0.146,0.487,0.225,0.736
				c0.149,0.008,0.372-0.047,0.502,0.033c0.748,0.475,1.417-0.245,2.139-0.116C-2.417,92.613-2.335,92.478-2.292,92.399z"/>
			<path fill="#1D1D1B" d="M-6.123,174.97c-0.559-0.259-1.136-0.475-1.709-0.704c-0.007,0.055-0.014,0.106-0.022,0.159
				c-0.77-0.239-1.065,0.269-1.238,0.814c-0.085,0.275-0.077,0.729,0.092,0.9c0.385,0.399,0.885,0.688,1.354,0.996
				c0.105,0.07,0.292,0.081,0.418,0.04c0.459-0.137,1.331-1.307,1.316-1.783C-5.915,175.247-6.01,175.023-6.123,174.97z"/>
			<path fill="#1D1D1B" d="M1.816,175.711c0.458-0.14,1.331-1.311,1.316-1.785c-0.004-0.149-0.099-0.371-0.213-0.425
				c-0.56-0.259-1.137-0.473-1.709-0.702c-0.007,0.053-0.014,0.108-0.022,0.161c-0.04-0.012-0.072-0.015-0.109-0.022
				c-0.688-0.156-0.963,0.316-1.129,0.838c-0.086,0.273-0.077,0.725,0.09,0.9c0.299,0.307,0.669,0.549,1.038,0.786
				c0.106,0.068,0.212,0.139,0.318,0.208C1.502,175.741,1.688,175.749,1.816,175.711z"/>
			<path fill="#1D1D1B" d="M50.54,202.993c-0.345-0.272-0.714-0.506-1.121-0.792c0.154-0.072,0.243-0.114,0.498-0.235
				c-0.393-0.039-0.624-0.072-0.857-0.084c-0.852-0.045-1.568-0.706-2.49-0.51c-0.312,0.069-2.013,0.581-2.163,0.896
				c-0.354,0.733-0.688,1.488-0.931,2.266c-0.142,0.458-0.19,0.995-0.109,1.467c0.206,1.224,1.921,2.738,3.155,2.66
				c0.942-0.061,1.942-0.286,2.773-0.714c0.899-0.463,1.533-1.335,1.936-2.306c0.023-0.058,0.037-0.12,0.055-0.179v-1.292
				C51.154,203.702,50.899,203.272,50.54,202.993z M48.977,203.834c-0.369-0.105-0.735-0.259-1.109-0.29
				c-0.253-0.022-0.518,0.137-0.778,0.211c-0.333,0.094-0.222,0.337-0.257,0.581c-0.064,0.424-0.267,0.828-0.403,1.22
				c-0.41-0.365-0.339-1.135,0.214-1.806c0.62-0.749,1.42-0.773,2.373-0.068C49.003,203.73,48.991,203.783,48.977,203.834z"/>
			<path fill="#1D1D1B" d="M27.425,206.813c-0.172,0.806-0.051,1.661,0.681,2.242c0.261,0.206,0.561,0.364,0.852,0.522
				c0.823,0.445,1.665,0.261,2.289-0.439c0.142-0.153,0.405-0.204,0.619-0.282c0.404-0.149,0.899-0.189,1.202-0.451
				c0.305-0.267,0.424-0.745,0.627-1.129c0.523-1.004,0.37-1.922-0.292-2.816c-0.355-0.482-0.846-0.62-1.36-0.845
				c-0.596-0.264-0.981-0.153-1.355,0.125c-0.416-0.223-0.764-0.565-1.095-0.547c-0.523,0.022-1.031,0.281-1.234,0.875
				C28.043,204.985,27.623,205.875,27.425,206.813z M30.519,204.271c-0.266,0.185-0.528,0.369-0.818,0.568
				C29.676,204.291,29.891,204.083,30.519,204.271z"/>
			<path fill="#1D1D1B" d="M2.458,209.409c0.635-0.276,1.136-0.86,1.692-1.315c0.015-0.011,0.019-0.034,0.023-0.054
				c0.077-0.327,0.188-0.652,0.22-0.98c0.059-0.573,0.182-1.169,0.068-1.71c-0.139-0.647-0.496-1.246-0.739-1.816
				c-0.567-0.035-1.061-0.072-1.554-0.099c-0.414-0.019-0.748,0.177-1.089,0.384c-0.086,0.054-0.174,0.106-0.265,0.157
				c-0.302-0.452,0.079-0.7,0.265-1.069c0.017-0.033,0.034-0.065,0.047-0.102c-0.016-0.011-0.031-0.016-0.047-0.024
				c-0.29-0.183-0.536-0.225-0.838,0.129c-0.99,1.136-1.193,2.512-1.234,3.919c-0.039,1.294,0.879,1.953,1.936,2.381
				c0.042,0.019,0.093,0.032,0.138,0.049C1.53,209.429,2.089,209.57,2.458,209.409z"/>
			<path fill="#1D1D1B" d="M-11.773,203.859c-0.358-0.24-0.97-0.279-1.417-0.182c-1.051,0.226-1.909,1.547-1.942,2.741
				c0.038,0.271,0.052,0.557,0.116,0.822c0.215,0.899,0.665,1.591,1.598,1.918c0.396,0.14,0.586,0.414,1.135,0.032
				c0.628-0.434,1.256-0.847,1.744-1.426c0.268-0.32,0.54-0.727,0.578-1.118c0.042-0.406-0.097-0.91-0.335-1.243
				C-10.71,204.826-11.196,204.253-11.773,203.859z"/>
			<path fill="#1D1D1B" d="M37.355,212.723c-0.174-0.541-0.408-0.972-1.018-1.071c-0.53-0.086-1.06-0.113-1.592-0.201
				c-0.067-0.012-0.149-0.044-0.198-0.022c-0.625,0.275-1.169,0.309-1.331,1.155c-0.101,0.535-0.158,1.337-0.139,1.337h4.213
				C37.464,213.922,37.539,213.281,37.355,212.723z"/>
			<path fill="#1D1D1B" d="M-28.97,206.807c-0.083-0.153-0.278-0.382-0.379-0.361c-0.293,0.06-0.72,0.159-0.809,0.365
				c-0.357,0.837-0.609,1.724-0.873,2.502c0.167,0.622,0.236,1.108,0.426,1.542c0.243,0.547,0.498,1.147,1.29,1.08
				c0.227-0.02,0.509-0.086,0.673,0.021c0.418,0.267,0.681-0.102,0.768-0.279c0.471-0.948,1.106-1.831,1.338-2.881
				c0.062-0.283,0.015-0.72-0.168-0.907c-0.265-0.271-0.729-0.339-1.053-0.573C-28.13,207.05-28.704,207.317-28.97,206.807z"/>
			<path fill="#1D1D1B" d="M13.964,199.345c0.553,0.347,1.053,0.547,1.797,0.117c0.721-0.416,1.06-1.115,1.668-1.584
				c0.148-0.116,0.132-0.447,0.169-0.593c-0.143-1.201-0.259-1.892-1.549-2.158c-0.547-0.112-1.12-0.124-1.682-0.138
				c-0.208-0.006-0.541,0.054-0.606,0.186c-0.378,0.767-0.966,1.48-0.811,2.414c0.058,0.339,0.193,0.681,0.364,0.982
				C13.482,198.86,13.692,199.176,13.964,199.345z"/>
			<path fill="#1D1D1B" d="M48.672,214.387h0.768c-0.039-0.015-0.088-0.017-0.117-0.043
				C49.054,214.074,48.872,214.292,48.672,214.387z"/>
			<path fill="#1D1D1B" d="M-7.839,198.088c0.37,0.323,1.031,0.358,1.572,0.411c0.169,0.017,0.388-0.32,0.556-0.518
				c0.104-0.12,0.135-0.3,0.236-0.417c0.346-0.398,0.72-0.767,1.064-1.165c0.333-0.39,0.215-0.83-0.089-1.122
				c-0.338-0.33-0.784-0.547-1.194-0.791c-0.545-0.331-1.253-0.403-1.526-1.138c-0.124-0.333-0.573-0.316-0.697,0.011
				c-0.349,0.913-0.65,1.851-0.971,2.777c0.051,0.018,0.104,0.037,0.157,0.053C-8.787,196.988-8.359,197.635-7.839,198.088z"/>
			<path fill="#1D1D1B" d="M35.428,197.396c0.021,0.467,0.302,0.957,0.573,1.367c0.519,0.767,1.713,0.775,2.107,0.088
				c0.146-0.257,0.354-0.514,0.597-0.678c0.794-0.534,1.012-1.691,0.409-2.405c-0.076-0.09-0.188-0.161-0.297-0.21
				c-0.529-0.239-1.067-0.463-1.594-0.702c-0.049-0.022-0.047-0.163-0.104-0.39c-0.483,0.588-0.929,1.024-1.24,1.545
				C35.63,196.425,35.405,196.938,35.428,197.396z"/>
			<path fill="#010101" d="M-84.109,96.332c-0.652,0.069-1.312,0.324-1.747,0.899c-0.245,0.325-0.458,0.67-0.696,1.004
				c-0.77,1.057-0.686,2.14,0.076,3.204c0.268,0.375,0.687,0.558,0.902,0.931c0.529,0.911,1.522,0.98,2.443,1.485
				c0.689-0.302,1.535-0.475,2.096-0.971c0.713-0.624,1.234-1.482,1.764-2.291c0.758-1.152,0.5-2.3-0.549-3.197
				C-81.086,96.318-82.571,96.169-84.109,96.332z"/>
			<path fill="#010101" d="M-76.98,182.929c0.283,1.07,0.855,1.906,1.925,2.341c0.743,0.302,1.831,0.21,2.125-0.343
				c0.501-0.945,0.938-1.941,0.609-3.071c-0.051-0.182-0.028-0.384-0.04-0.538c0.243,0.09,0.421,0.229,0.53,0.187
				c1.223-0.465,1.748-1.371,1.621-2.485c-0.181-0.271-0.287-0.417-0.38-0.573c-0.096-0.151-0.145-0.349-0.272-0.465
				c-1.277-1.15-2.852-1.28-4.437-1.104c-0.814,0.088-1.334,0.819-1.805,1.444c-0.574,0.774-0.515,1.685-0.356,2.573
				C-77.339,181.583-77.16,182.256-76.98,182.929z"/>
			<path fill="#010101" d="M-56.286,161.894c0.858,0.389,2.071,0.116,2.67-0.602c0.281-0.333,0.53-0.692,0.829-1.09
				c0.066,0.157,0.104,0.245,0.217,0.504c0.052-0.39,0.093-0.622,0.113-0.853c0.076-0.85,0.762-1.545,0.593-2.473
				c-0.056-0.312-0.514-2.033-0.822-2.191c-0.722-0.38-1.463-0.738-2.233-1.006c-0.455-0.159-0.988-0.228-1.461-0.161
				c-1.231,0.167-2.802,1.828-2.764,3.066c0.028,0.942,0.219,1.948,0.619,2.79C-58.096,160.797-57.243,161.458-56.286,161.894z
				 M-54.244,157.373c0.727,0.646,0.724,1.444-0.01,2.375c-0.051-0.018-0.101-0.027-0.149-0.043c0.114-0.369,0.281-0.726,0.324-1.1
				c0.029-0.253-0.122-0.524-0.185-0.787c-0.084-0.339-0.333-0.233-0.571-0.276c-0.422-0.079-0.821-0.292-1.208-0.444
				C-55.662,156.701-54.894,156.797-54.244,157.373z"/>
			<path fill="#010101" d="M-87.938,170.13c0.455-0.261,0.987-1.812,1.125-2.43c0.11-0.49,0.033-0.91-0.082-1.368
				c-0.07-0.284,0.048-0.616-0.011-0.906c-0.092-0.471-0.15-1.008-0.419-1.369c-0.615-0.833-1.598-0.918-2.548-0.982
				c-0.797-0.06-1.514-0.118-2.277,0.477c-0.832,0.646-1.241,1.324-1.235,2.326c-0.005,1.316,0.224,2.565,1.155,3.578
				c0.742,0.804,1.546,1.519,2.776,1.179C-88.938,170.491-88.39,170.389-87.938,170.13z"/>
			<path fill="#010101" d="M-58.034,173.656c-0.286-0.426-0.568-0.883-0.955-1.206c-1.167-0.976-2.412-1.734-4.042-1.759
				c-0.752-0.011-1.332,0.09-1.802,0.661c-0.524,0.639-1.138,1.231-0.841,2.215c0.088,0.295-0.014,0.675-0.109,0.99
				c-0.201,0.668-0.138,1.253,0.412,1.72c0.64,0.545,1.325,1.04,2.17,1.182c0.715,0.119,1.493,0.345,2.151,0.172
				c0.573-0.153,1.124-0.727,1.482-1.249c0.295-0.428,0.295-1.057,0.42-1.577c0.23-0.09,0.519-0.127,0.694-0.287
				C-58.212,174.304-57.718,174.131-58.034,173.656z"/>
			<path fill="#010101" d="M-77.939,123.589c1.4-0.586,2.646-1.365,2.815-3.091c0.005-0.055,0.052-0.098,0.076-0.151
				c0.385-0.891,0.185-1.763-0.317-2.479c-0.797-1.138-2.044-1.506-3.509-1.613c-0.193,0.023-0.504,0.074-0.82,0.1
				c-1.427,0.105-2.784,1.867-2.443,3.236c0.206,0.82,0.502,1.616,0.774,2.414c0.042,0.125,0.162,0.239,0.27,0.326
				c0.204,0.161,0.536,0.255,0.619,0.459c0.231,0.566,0.698,0.751,1.207,0.825C-78.831,123.681-78.322,123.75-77.939,123.589z
				 M-79.645,120.563c0.358,0.323,0.701,0.662,1.051,0.99c0.438,0.408,1.126,0.298,1.841-0.222
				c-0.111,0.163-0.194,0.356-0.337,0.485c-0.804,0.721-1.331,0.837-2.019,0.07c-0.381-0.427-0.837-0.763-0.926-1.473
				C-79.858,120.485-79.724,120.493-79.645,120.563z"/>
			<path fill="#010101" d="M-69.64,107.328c0.516,0.465,0.734,1.051,1.121,1.555c0.238,0.312,0.555,0.581,0.885,0.8
				c0.156,0.104,0.485-0.039,0.623,0.072c0.633,0.498,1.125,0.088,1.487-0.294c0.717-0.757,1.343-1.603,1.989-2.424
				c0.349-0.442,0.371-0.937,0.323-1.51c-0.044-0.531-0.061-1.083-0.399-1.451c-0.376-0.411-0.883-0.74-1.391-0.983
				c-1.061-0.506-2.22-0.287-3.343-0.337c-0.066-0.006-0.147,0.033-0.198,0.08c-0.813,0.763-1.765,1.451-1.497,2.812
				c-0.051,0.002-0.103,0.008-0.154,0.01C-70.021,106.226-70.018,106.986-69.64,107.328z"/>
			<path fill="#010101" d="M-51.38,135.117c-0.903-0.343-1.78-0.796-2.712-1.025c-0.799-0.196-1.654-0.105-2.261,0.607
				c-0.214,0.253-0.383,0.547-0.551,0.833c-0.473,0.811-0.315,1.655,0.36,2.304c0.153,0.145,0.191,0.41,0.262,0.626
				c0.139,0.412,0.162,0.904,0.414,1.214c0.253,0.317,0.73,0.451,1.105,0.667c0.986,0.558,1.909,0.437,2.824-0.195
				c0.492-0.342,0.65-0.826,0.893-1.332c0.282-0.588,0.184-0.978-0.083-1.361c0.237-0.405,0.592-0.742,0.586-1.072
				C-50.55,135.858-50.794,135.34-51.38,135.117z M-51.652,137.27c-0.176-0.27-0.353-0.54-0.544-0.835
				C-51.645,136.429-51.444,136.65-51.652,137.27z"/>
			<path fill="#010101" d="M-80.08,161.88c0.428,0.33,0.619,1.206,1.48,0.525c0,0.059,0.002,0.12,0.003,0.181
				c0.146-0.071,0.318-0.11,0.432-0.214c0.759-0.694,1.539-1.367,1.74-2.471c0.043-0.235,0.281-0.457,0.472-0.638
				c0.215-0.206,0.611-1.376,0.437-1.534c-0.397-0.357-0.798-0.735-1.263-0.988c-0.829-0.451-1.716-0.549-2.682-0.479
				c-1.083,0.077-1.915,0.485-2.595,1.269c-0.162,0.185-0.334,0.512-0.277,0.712c0.153,0.531-0.183,1.21,0.458,1.6
				c0.055,0.033,0.028,0.184,0.07,0.26c0.139,0.271,0.241,0.588,0.454,0.788C-80.963,161.256-80.505,161.552-80.08,161.88z"/>
			<path fill="#010101" d="M-97.669,97.798c-0.118-0.215-0.108-0.502-0.13-0.613c-0.35-0.183-0.623-0.331-0.9-0.469
				c-0.212-0.103-0.63-0.208-0.63-0.31v5.165c0-0.083,0.191-0.18,0.272-0.302c0.472-0.716,1.134-1.316,1.373-2.207
				C-97.565,98.612-97.418,98.248-97.669,97.798z"/>
			<path fill="#010101" d="M-47.721,115.702c0.219-0.304,0.286-0.555-0.073-0.893c-1.102-1.023-2.471-1.274-3.876-1.361
				c-1.295-0.083-1.982,0.811-2.445,1.854c-0.205,0.463-0.411,1.099-0.248,1.508c0.254,0.645,0.823,1.167,1.259,1.739
				c0.011,0.015,0.032,0.019,0.051,0.023c0.323,0.086,0.644,0.208,0.973,0.251c0.567,0.079,1.159,0.222,1.704,0.124
				c0.652-0.114,1.265-0.453,1.84-0.675c0.056-0.566,0.109-1.06,0.149-1.553c0.043-0.517-0.257-0.916-0.496-1.367
				C-48.379,115.037-48.144,115.529-47.721,115.702z"/>
			<path fill="#010101" d="M-92.434,117.406c0.729,0.436,1.474,0.671,2.234,0.047c0.26-0.211,0.559-0.382,0.798-0.611
				c0.244-0.241,0.475-0.509,0.639-0.803c0.195-0.351,0.286-0.759,0.472-1.113c0.376-0.723,0.301-1.135-0.354-1.648
				c-0.277-0.218-0.533-0.479-0.839-0.644c-0.778-0.414-1.637-0.71-2.501-0.598c-0.457,0.061-0.991,0.446-1.253,0.845
				c-0.338,0.518-0.441,1.188-0.58,1.599C-93.835,115.243-92.895,117.129-92.434,117.406z"/>
			<path fill="#010101" d="M-98.214,181.954c0.146-0.08,0.252-0.276,0.31-0.443c0.062-0.179,0.044-0.387,0.061-0.583
				c-0.117-0.141-0.264-0.267-0.343-0.424c-0.266-0.525-0.14-1.041-1.144-1.205v4.9c0-0.284,0.381-0.604,0.319-0.958
				C-99.147,182.452-98.724,182.238-98.214,181.954z"/>
			<path fill="#010101" d="M-98.824,152.839c-0.117-0.393-0.506-0.741-0.506-1.052v2.042c0-0.044,0.173-0.102,0.253-0.153
				C-98.796,153.496-98.704,153.241-98.824,152.839z"/>
			<path fill="#010101" d="M-61.101,214.119c0.067-0.11,0.121-0.111,0.193-0.222c0.048-0.068,0.119-0.128,0.172-0.126
				c1.068,0.068,1.52-0.721,2.092-1.392c-0.364-0.328-0.689-0.599-1.01-0.891c-1.046-0.965-2.202-1.442-3.677-1.084
				c-1.514,0.367-2.28,1.188-1.821,2.831c0.113,0.405,0.247,0.663,0.543,0.906c0.004,0.004,0.01-0.221,0.015-0.221h3.468
				C-61.116,213.922-61.109,214.132-61.101,214.119z"/>
			<path fill="#010101" d="M-47.932,181.636c-0.264-0.538-0.781-1.042-1.313-1.333c-1.339-0.724-2.13-0.891-3.321,0.013
				c-0.294,0.224-0.477,0.596-0.711,0.903c-0.039-0.034-0.08-0.067-0.124-0.104c-0.117,0.568-0.236,1.132-0.355,1.701l0.209-0.028
				c0.149,0.208,0.277,0.439,0.455,0.62c0.232,0.234,0.472,0.524,0.764,0.625c0.522,0.17,1.091,0.195,1.637,0.312
				c0.315,0.071,0.618,0.21,0.925,0.316c0.198,0.026,0.487-0.004,0.675-0.161c0.447-0.369,1.007-0.724,1.213-1.216
				C-47.679,182.815-47.704,182.097-47.932,181.636z"/>
			<path fill="#010101" d="M-56.338,100.089c0.311,0.274,0.711,0.563,1.099,0.614c0.404,0.057,0.912-0.067,1.253-0.294
				c0.591-0.391,1.178-0.858,1.592-1.424c0.255-0.35,0.315-0.959,0.23-1.406c-0.193-1.063-1.484-1.961-2.674-2.033
				c-0.274,0.024-0.56,0.028-0.829,0.086c-0.903,0.187-1.609,0.611-1.969,1.531c-0.151,0.393-0.432,0.573-0.07,1.136
				C-57.292,98.94-56.901,99.581-56.338,100.089z"/>
			<path fill="#010101" d="M-53.886,200.29c0.344-0.155,0.603-0.217,0.773,0.043c0.272-0.008,0.47-0.024,0.665-0.018
				c0.287,0.014,0.857-0.832,0.756-1.104c-0.052-0.146-0.052-0.314-0.05-0.477c0.002-0.574,0.229-1.137,0.086-1.712
				c-0.051-0.204-0.238-0.371-0.303-0.573c-0.288-0.923-1.167-1.115-1.874-1.506c-0.177-0.098-0.481-0.026-0.707,0.033
				c-0.942,0.253-1.292,1.019-1.539,1.86c-0.094,0.312-0.198,0.62-0.287,0.935c-0.062,0.235-0.133,0.471-0.161,0.71
				c-0.071,0.669,0.416,1.094,0.786,1.522C-55.099,200.743-54.79,200.698-53.886,200.29z"/>
			<path fill="#010101" d="M-90.288,186.408c0.043-0.187,0.338-0.312,0.518-0.469c0.044,0.037,0.088,0.078,0.132,0.116
				c0.089-0.891-0.265-1.647-0.696-2.406c-0.648-1.147-1.5-1.448-2.598-0.761c-0.466,0.292-0.938,0.667-1.247,1.114
				c-0.337,0.497-0.487,1.118-0.682,1.593c0.202,0.2,0.427,0.317,0.437,0.449c0.04,0.627,0.441,1.045,0.802,1.485
				c0.323,0.398,0.699,0.564,1.26,0.433C-91.418,187.747-90.544,187.539-90.288,186.408z"/>
			<path fill="#010101" d="M-66.58,146.705c0.319,0.397,0.88,0.35,1.257,0.564c0.708,0.396,1.293,0.776,2.189,0.516
				c0.548-0.157,1.104-0.373,1.222-0.977c0.105-0.525,0.208-1.056,0.313-1.581c0.014-0.069,0.077-0.149,0.056-0.202
				c-0.258-0.631-0.487-1.182-1.33-1.375c-1.17-0.259-2.253-0.323-3.341,0.227c-0.558,0.281-0.879,0.98-0.719,1.586
				c0.049,0.183,0.015,0.388,0.018,0.5C-66.787,146.256-66.73,146.517-66.58,146.705z"/>
			<path fill="#010101" d="M-69.058,89.087c-0.172,0.243-0.209,0.584-0.301,0.873c0.035,0.127,0.04,0.249,0.095,0.33
				c0.21,0.3,0.412,0.616,0.667,0.871c0.216,0.218,0.488,0.463,0.769,0.512c0.445,0.075,0.918-0.016,1.379-0.006
				c0.215,0.002,0.462,0.15,0.643,0.086c0.906-0.326,1.61-0.859,1.72-1.924c0.032-0.302,0.194-0.594,0.201-0.897
				c0.014-0.475-0.407-0.712-0.699-0.994c-0.548-0.533-1.278-0.729-1.998-0.694C-67.78,87.299-68.438,88.205-69.058,89.087z"/>
			<path fill="#010101" d="M-82.588,195.911c0.549-0.19,0.942-0.665,0.983-1.227c0.014-0.189-0.011-0.387,0.031-0.568
				c0.241-1.036-0.045-1.276-0.81-1.86c-0.292-0.221-0.658-0.347-0.999-0.502c-1.444-0.665-2.604,0.079-3.168,1.432
				c-0.19,0.455,0.263,0.777,0.276,1.186c0.023,0.745,0.574,1.102,1.125,1.304c0.579,0.214,1.239,0.204,1.859,0.29
				c0.001-0.006-0.025,0.102-0.063,0.272C-83.053,196.109-82.828,195.994-82.588,195.911z"/>
			<path fill="#010101" d="M-59.668,82.631c0.935,0.502,1.795,1.169,2.837,1.436c0.284,0.073,0.722,0.039,0.911-0.137
				c0.284-0.259,0.364-0.718,0.606-1.036c0.282-0.363,0.032-0.944,0.553-1.193c0.154-0.074,0.389-0.27,0.372-0.371
				c-0.049-0.29-0.134-0.723-0.337-0.816c-0.825-0.386-1.7-0.668-2.473-0.957c-0.626,0.147-1.115,0.2-1.551,0.375
				c-0.557,0.227-1.165,0.461-1.123,1.251c0.009,0.229,0.065,0.517-0.043,0.672C-60.199,82.265-59.839,82.541-59.668,82.631z"/>
			<path fill="#010101" d="M-99.333,213.934v0.453h0.932C-98.705,214.204-99.033,214.077-99.333,213.934z"/>
			<path fill="#010101" d="M-43.175,129.921c0.131-0.545,0.161-1.113,0.193-1.677c0.015-0.209-0.034-0.543-0.164-0.614
				c-0.753-0.403-1.449-1.014-2.386-0.89c-0.341,0.047-0.687,0.172-0.991,0.333c-0.296,0.155-0.619,0.356-0.798,0.622
				c-0.363,0.539-0.582,1.033-0.179,1.791c0.396,0.736,1.083,1.098,1.53,1.724c0.109,0.153,0.443,0.146,0.585,0.188
				C-44.174,131.296-43.482,131.202-43.175,129.921z"/>
			<path fill="#010101" d="M-83.708,137.658c0.099,0.041,0.127,0.229,0.217,0.314c0.213,0.201,0.429,0.521,0.67,0.547
				c0.422,0.047,1.01,0.061,1.27-0.187c0.769-0.724,1.399-1.589,1.349-2.571c-0.225-1.564-0.081-1.506-1.481-1.726
				c-0.11-0.017-0.212-0.075-0.321-0.093c-0.881-0.117-1.737-0.047-2.413,0.595c-0.255,0.238-0.554,0.625-0.537,0.928
				C-84.899,136.366-84.688,137.244-83.708,137.658z"/>
			<path fill="#010101" d="M-69.058,161.741c0.397,0.249,0.951,0.555,1.325,0.446c0.491-0.14,1.138-0.134,1.475-0.72
				c0.201-0.351,0.457-0.693,0.923-0.792c0.105-0.022,0.183-0.255,0.239-0.403c0.071-0.19,0.048-0.457,0.174-0.573
				c0.292-0.276,0.037-0.473-0.038-0.685c-0.074-0.212-0.206-0.404-0.311-0.605c0.044-0.043,0.091-0.083,0.136-0.124
				c-0.324-0.107-0.646-0.277-0.98-0.306c-0.724-0.057-1.459-0.09-2.182-0.033c-0.384,0.029-0.832,0.083-0.975,0.637
				c-0.079,0.301-0.352,0.565-0.568,0.815c-0.319,0.369-0.37,1.049-0.056,1.424C-69.629,161.143-69.395,161.529-69.058,161.741z"/>
			<path fill="#010101" d="M-88.412,149.191c0.131,0.169,0.403,0.237,0.615,0.341c0.605,0.296,1.231,0.118,1.852,0.073
				c0.197-0.017,0.487-0.015,0.569-0.136c0.387-0.558,0.831-1.122,0.626-1.889c-0.023-0.086-0.043-0.187-0.025-0.272
				c0.164-0.8-0.159-1.29-0.957-1.461c-0.141-0.031-0.285-0.061-0.415-0.122c-0.907-0.423-1.809-0.306-2.644,0.139
				c-0.6,0.324-0.659,0.98-0.668,1.581C-89.595,148.331-88.825,148.66-88.412,149.191z"/>
			<path fill="#010101" d="M-46.608,166.92c0.328-0.569,0.65-1.141,0.975-1.706c0.116,0.049,0.236,0.1,0.341,0.146
				c0.086-0.167,0.167-0.323,0.239-0.463c-0.544-1.21-1.547-1.724-2.789-1.843c-1.424-0.139-2.207,0.612-2.516,1.875
				c0.538,0.774,1.066,1.561,1.615,2.33c0.104,0.15,0.273,0.288,0.444,0.351C-47.886,167.763-46.839,167.316-46.608,166.92z"/>
			<path fill="#010101" d="M-46.723,105.243c0.116,0.104,0.294,0.142,0.408,0.249c0.384,0.361,0.744,0.745,1.129,1.103
				c0.381,0.343,0.823,0.242,1.125-0.054c0.337-0.326,0.569-0.763,0.832-1.162c0.346-0.536,0.442-1.242,1.185-1.491
				c0.338-0.114,0.338-0.559,0.014-0.694c-0.905-0.382-1.826-0.714-2.744-1.062c-0.02,0.049-0.038,0.1-0.058,0.153
				c-0.795-0.083-1.458,0.323-1.926,0.827c-0.335,0.359-0.393,1.019-0.465,1.56C-47.243,104.837-46.915,105.068-46.723,105.243z"/>
			<path fill="#010101" d="M-89.534,85.439c-1.357,0.534-2.214,1.187-1.246,2.722c0.173,0.271,0.431,0.496,0.675,0.716
				c0.531,0.479,1.201,0.557,1.871,0.557c0.295-0.004,0.592-0.131,0.888-0.203c0.04,0.036,0.083,0.074,0.122,0.111
				c0.256-0.787,0.511-1.57,0.791-2.436c0.087-0.02,0.291-0.073,0.583-0.146c-0.208-0.284-0.314-0.591-0.517-0.681
				C-87.37,85.628-88.37,84.98-89.534,85.439z"/>
			<path fill="#010101" d="M-94.368,134.997c0.701,0.255,1.8-0.194,1.942-0.91c0.112-0.565,0.12-1.153,0.164-1.734
				c0.004-0.062-0.044-0.14-0.091-0.189c-0.626-0.729-1.332-1.308-2.37-1.333c-0.272,0.037-0.627-0.021-0.797,0.135
				c-0.37,0.332-0.678,0.749-0.938,1.177c-0.115,0.19-0.148,0.545-0.045,0.729C-95.992,133.768-95.417,134.61-94.368,134.997z"/>
			<path fill="#010101" d="M-68.638,124.701c0.473,0.326,0.976,0.612,1.449,0.938c0.808,0.555,1.76,0.333,2.164-0.555
				c0.196-0.433,0.34-0.891,0.458-1.35c0.125-0.485-0.401-1.234-0.902-1.316c-0.534-0.084-1.075-0.139-1.45-0.188
				c-1.001,0.017-1.935-0.176-2.264,0.945c-0.086,0.296-0.208,0.653-0.117,0.912C-69.214,124.342-68.888,124.526-68.638,124.701z"/>
			<path fill="#010101" d="M-74.328,201.506c0.264,0.27,0.594,0.473,0.846,0.67c0.393-0.111,0.853-0.218,1.294-0.371
				c0.181-0.062,0.365-0.186,0.479-0.335c0.444-0.583,0.598-1.242,0.419-2.016c0.208,0.045,0.36,0.081,0.511,0.112
				c0.095-0.702-0.306-1.278-0.953-1.492c-0.906-0.302-1.724-0.107-2.515,0.348c-0.083,0.045-0.164,0.129-0.203,0.218
				c-0.128,0.277-0.228,0.569-0.357,0.851c-0.159,0.347-0.608,0.616-0.242,1.084C-74.807,200.884-74.602,201.228-74.328,201.506z"/>
			<path fill="#010101" d="M-44.645,148.166c-0.574-0.504-0.996-0.961-1.505-1.292c-0.403-0.261-0.911-0.502-1.368-0.493
				c-0.467,0.006-0.965,0.265-1.383,0.526c-0.786,0.488-0.836,1.683-0.158,2.101c0.251,0.155,0.5,0.373,0.654,0.62
				c0.506,0.813,1.656,1.069,2.39,0.488c0.093-0.075,0.168-0.181,0.222-0.287c0.254-0.522,0.495-1.055,0.754-1.57
				C-45.014,148.209-44.877,148.215-44.645,148.166z"/>
			<path fill="#010101" d="M-86.558,212.177c0.218,0.284,0.412,0.486,0.792,0.371c0.377-0.114,0.758-0.228,1.138-0.349
				c0.046-0.014,0.117-0.088,0.11-0.12c-0.124-0.447,0.322-0.52,0.498-0.771c0.083-0.12,0.244-0.231,0.246-0.348
				c0.015-0.832-0.115-1.629-0.798-2.197c-0.185-0.153-0.434-0.276-0.669-0.316c-0.734-0.124-1.314,0.151-1.871,0.663
				c-0.921,0.847-1.105,1.828-0.473,2.74C-87.023,211.622-86.999,211.606-86.558,212.177z"/>
			<path fill="#010101" d="M-89.535,75.371c-0.354-0.201-0.712-0.403-1.082-0.577c-0.953-0.453-2.347-0.17-2.995,0.647
				c-0.119,0.149-0.155,0.482-0.069,0.651c0.211,0.418,0.45,0.862,0.796,1.154c0.532,0.449,0.977,1.1,1.855,1.171
				c0.248-0.131,0.486-0.281,0.745-0.386c0.713-0.294,0.755-1.016,1.063-1.581C-88.941,75.94-89.09,75.626-89.535,75.371z"/>
			<path fill="#010101" d="M-98.815,86.909c0.08-0.292,0.191-0.438,0.529-0.432c0.187,0,0.375-0.167,0.628-0.29
				c-0.144-0.145-0.205-0.23-0.288-0.281c-0.452-0.292-0.881-0.631-1.366-0.849c-0.007-0.003-0.02-0.006-0.02-0.009v2.601
				C-99.33,87.465-98.906,87.24-98.815,86.909z"/>
			<path fill="#010101" d="M-95.025,203.361c0.067,0.008,0.129,0.081,0.199,0.1c0.261,0.081,0.586,0.286,0.775,0.198
				c0.535-0.245,1.293-0.282,1.319-1.15c0.009-0.243,0.116-0.494,0.211-0.724c0.252-0.601-0.187-1.484-0.823-1.575
				c-0.431-0.064-0.867-0.083-1.359-0.125c-0.703-0.111-1.004,0.608-1.526,0.914c-0.19,0.108-0.354,0.688-0.247,0.806
				C-96.019,202.342-95.987,203.303-95.025,203.361z"/>
			<path fill="#010101" d="M-74.754,142.549c0.415,0.488,0.939,0.648,1.523,0.414c0.251-0.1,0.526-0.139,0.828-0.216
				c0.188-0.373,0.433-0.815,0.649-1.275c0.302-0.638,0.062-1.167-0.605-1.362c-0.158-0.049-0.314-0.114-0.476-0.146
				c-0.858-0.167-1.702-0.353-2.527,0.202c-0.549,0.369-0.687,1.291-0.172,1.741C-75.279,142.129-74.968,142.298-74.754,142.549z"/>
			<path fill="#010101" d="M-59.127,188.716c-0.127-0.151-0.419-0.223-0.642-0.233c-1.149-0.065-2.123,0.869-2.114,1.999
				c0.005,0.52,1.309,1.337,2.121,1.329c0.813-0.006,1.486-0.695,1.519-1.651C-57.883,189.375-58.752,189.173-59.127,188.716z"/>
			<path fill="#010101" d="M-71.937,212.145c0.091,0.129,0.498,0.212,0.625,0.123c0.546-0.382,0.917-0.939,1.27-1.497
				c0.038-0.062-0.004-0.167,0.009-0.247c0.105-0.581-0.356-0.841-0.668-1.181c-0.771-0.837-1.577-0.865-2.409-0.097
				c-0.198,0.184-0.386,0.371-0.573,0.555c0.127,0.391,0.135,0.848,0.347,0.981C-72.763,211.149-72.319,211.594-71.937,212.145z"/>
			<path fill="#010101" d="M-98.634,75.818c-0.231-0.09-0.696-0.137-0.696-0.157v2.936c0-0.185,0.845-0.57,0.805-0.825
				c-0.098-0.616,0.291-0.902,0.694-1.271C-98.117,76.248-98.337,75.932-98.634,75.818z"/>
			<path fill="#010101" d="M-78.477,87.642c0.1,0.073,0.287,0.092,0.415,0.062c0.465-0.107,1.402-1.231,1.416-1.706
				c0.004-0.146-0.077-0.375-0.188-0.436c-0.544-0.29-1.109-0.535-1.666-0.798c-0.009,0.051-0.021,0.105-0.03,0.157
				c-0.758-0.282-1.079,0.208-1.284,0.744c-0.103,0.27-0.117,0.719,0.042,0.906C-79.415,86.991-78.929,87.309-78.477,87.642z"/>
			<path fill="#010101" d="M36.321,133.432c0.283,1.071,0.855,1.904,1.926,2.341c0.743,0.304,1.829,0.21,2.125-0.343
				c0.501-0.945,0.938-1.939,0.61-3.072c-0.052-0.181-0.028-0.378-0.04-0.535c0.242,0.088,0.421,0.228,0.528,0.185
				c1.224-0.465,1.749-1.371,1.621-2.483c-0.182-0.272-0.288-0.419-0.381-0.575c-0.094-0.151-0.145-0.347-0.272-0.465
				c-1.276-1.15-2.852-1.28-4.438-1.107c-0.813,0.089-1.335,0.822-1.804,1.447c-0.575,0.773-0.515,1.685-0.356,2.572
				C35.964,132.086,36.142,132.759,36.321,133.432z"/>
			<path fill="#010101" d="M19.919,116.38c-0.005,1.316,0.223,2.565,1.154,3.576c0.743,0.808,1.547,1.522,2.778,1.181
				c0.514-0.139,1.061-0.243,1.514-0.502c0.453-0.265,0.986-1.814,1.124-2.432c0.109-0.49,0.033-0.908-0.082-1.369
				c-0.069-0.283,0.05-0.615-0.009-0.905c-0.094-0.471-0.151-1.004-0.42-1.371c-0.613-0.832-1.598-0.916-2.548-0.98
				c-0.796-0.06-1.513-0.118-2.277,0.477C20.322,114.697,19.911,115.378,19.919,116.38z"/>
			<path fill="#010101" d="M47.93,126.782c0.642,0.547,1.325,1.04,2.171,1.181c0.386,0.065,0.789,0.156,1.183,0.203v-6.849
				c-0.322-0.069-0.656-0.115-1.012-0.121c-0.755-0.011-1.332,0.09-1.8,0.66c-0.527,0.64-1.14,1.232-0.844,2.216
				c0.088,0.294-0.014,0.674-0.109,0.992C47.32,125.73,47.38,126.315,47.93,126.782z"/>
			<path fill="#010101" d="M33.223,112.383c0.426,0.33,0.618,1.206,1.479,0.526c0,0.059,0.003,0.118,0.003,0.18
				c0.145-0.069,0.318-0.108,0.433-0.214c0.76-0.694,1.54-1.367,1.74-2.471c0.043-0.235,0.282-0.457,0.471-0.639
				c0.215-0.205,0.612-1.375,0.438-1.533c-0.398-0.358-0.799-0.735-1.264-0.988c-0.826-0.451-1.717-0.549-2.682-0.479
				c-1.083,0.077-1.916,0.485-2.597,1.269c-0.161,0.187-0.333,0.514-0.276,0.71c0.152,0.533-0.183,1.212,0.459,1.602
				c0.054,0.033,0.029,0.182,0.068,0.262c0.142,0.269,0.243,0.588,0.454,0.786C32.337,111.764,32.796,112.056,33.223,112.383z"/>
			<path fill="#010101" d="M-16.555,148.356c-0.911-0.29-1.84-0.523-2.756-0.798c-0.891-0.266-1.622,0.092-2.33,0.559
				c-0.362,0.241-0.434,0.559-0.313,0.981c0.19,0.669,0.331,1.352,0.487,2.031c0.031,0.129-0.007,0.291,0.058,0.397
				c0.46,0.771,0.924,1.523,1.97,1.615c0.484,0.041,1.368-0.191,1.64-0.598c0.118-0.178,0.137-0.425,0.259-0.604
				c0.061-0.089,0.245-0.097,0.375-0.14c0.065,0.045,0.128,0.09,0.194,0.131c0.085-0.493,0.28-1.004,0.227-1.487
				c-0.062-0.542-0.017-0.978,0.34-1.389C-16.171,148.78-16.18,148.474-16.555,148.356z"/>
			<path fill="#010101" d="M13.526,129.584c-0.562-0.383-1.192-0.422-1.801-0.222c-0.588,0.191-1.262,0.373-1.277,1.21
				c0,0.063-0.079,0.124-0.109,0.186c-0.331,0.655-0.475,1.391-0.231,2.045c0.3,0.808,0.793,1.543,1.245,2.287
				c0.121,0.195,0.431,0.448,0.594,0.412c0.454-0.105,0.879-0.346,1.317-0.529c0.026-0.01,0.059-0.004,0.099-0.004
				c-0.016,0.08-0.029,0.161-0.058,0.306c0.611-0.386,1.097-0.908,0.986-1.53c-0.114-0.66,0.171-0.915,0.564-1.15
				c0.077-0.046,0.152-0.091,0.235-0.138c0.146-0.081,0.252-0.277,0.31-0.443c0.062-0.179,0.044-0.386,0.06-0.583
				c-0.117-0.141-0.265-0.265-0.343-0.422c-0.247-0.493-0.499-0.972-1.03-1.168c-0.087-0.033-0.165-0.076-0.269-0.09
				C13.713,129.737,13.617,129.649,13.526,129.584z"/>
			<path fill="#010101" d="M-34.232,126.191c0.192-0.353,0.278-0.763,0.403-1.125c0.564,0.124,0.902,0.125,1.099-0.538
				c0.206-0.688,0.278-0.996-0.241-1.345c-0.448-0.298-0.916-0.579-1.4-0.814c-0.981-0.476-1.985-0.521-2.962,0.016
				c-0.323,0.178-0.59,0.451-0.896,0.659c-0.604,0.403-0.831,1.909-0.347,2.459c0.234,0.269,0.51,0.491,0.755,0.751
				c0.204,0.216,0.414,0.654,0.575,0.633c0.539-0.068,0.829,0.351,1.254,0.473c0.185,0.051,0.375,0.108,0.562,0.104
				C-34.609,127.451-34.515,126.715-34.232,126.191z"/>
			<path fill="#010101" d="M9.292,101.674c-0.901,0.753-1.214,2.373-0.571,3.289c0.592,0.838,1.542,1.011,2.442,1.26
				c0.045,0.013,0.091,0.024,0.138,0.038c0.103,0.03,0.26-0.041,0.361-0.112c0.684-0.479,1.416-0.926,1.407-1.914
				c0-0.026,0.044-0.057,0.115-0.133c0.053,0.021,0.123,0.023,0.145,0.059c0.286,0.438,0.626,0.196,0.892,0.021
				c0.281-0.181,0.375-0.434,0.253-0.837c-0.221-0.743-0.625-1.337-1.204-1.804c-0.553-0.443-1.194-0.678-1.904-0.736
				c-0.113-0.01-0.222-0.024-0.337-0.024C10.273,100.781,9.81,101.24,9.292,101.674z"/>
			<path fill="#010101" d="M48.695,164.88c0.406,0.333,0.969,0.488,1.479,0.685c0.459,0.174,0.81,0.224,1.109,0.139v-4.875
				c-0.41-0.044-0.842-0.024-1.311,0.088c-1.516,0.363-2.28,1.181-1.821,2.824C48.265,164.149,48.396,164.639,48.695,164.88z"/>
			<path fill="#010101" d="M18.88,136.548c0.04,0.625,0.44,1.043,0.801,1.485c0.323,0.397,0.699,0.562,1.259,0.434
				c0.941-0.218,1.816-0.428,2.073-1.555c0.043-0.188,0.339-0.313,0.518-0.471c0.044,0.041,0.089,0.078,0.133,0.116
				c0.089-0.892-0.266-1.646-0.694-2.405c-0.648-1.147-1.5-1.45-2.598-0.761c-0.467,0.292-0.94,0.665-1.247,1.112
				c-0.337,0.496-0.487,1.117-0.681,1.592C18.645,136.297,18.87,136.415,18.88,136.548z"/>
			<path fill="#010101" d="M46.372,95.965c0.05,0.181,0.015,0.386,0.015,0.5c0.127,0.29,0.185,0.553,0.335,0.745
				c0.319,0.395,0.881,0.346,1.257,0.558c0.708,0.399,1.292,0.778,2.191,0.52c0.456-0.132,0.903-0.318,1.113-0.725v-2.921
				c-0.191-0.224-0.452-0.398-0.854-0.49c-1.168-0.261-2.253-0.321-3.339,0.229C46.532,94.659,46.209,95.359,46.372,95.965z"/>
			<path fill="#010101" d="M-2.521,164.198c0.088-0.318,0.072-0.672,0.175-0.985c0.148-0.441,0.294-0.916,0.567-1.281
				c0.339-0.457,0.333-0.729-0.175-1c-0.248-0.131-0.492-0.3-0.683-0.497c-0.559-0.584-1.271-0.92-2.01-0.717
				c-0.601,0.171-1.122,0.657-1.644,1.048c-0.073,0.053,0.071,0.362,0.052,0.547c-0.044,0.477-0.18,0.95-0.173,1.43
				c0.003,0.308,0.106,0.71,0.318,0.896c0.377,0.335,0.85,0.603,1.328,0.776c0.438,0.159,0.276,0.296,0.045,0.564
				c0.323-0.021,0.578-0.077,0.82-0.041C-3.26,165.027-2.668,164.743-2.521,164.198z"/>
			<path fill="#010101" d="M30.714,146.417c0.549-0.191,0.942-0.664,0.984-1.228c0.014-0.189-0.012-0.386,0.029-0.568
				c0.242-1.036-0.043-1.276-0.808-1.86c-0.292-0.219-0.659-0.347-0.998-0.502c-1.445-0.665-2.607,0.079-3.171,1.432
				c-0.19,0.455,0.263,0.779,0.277,1.186c0.023,0.744,0.573,1.1,1.125,1.302c0.579,0.216,1.238,0.206,1.859,0.292
				c0.001-0.004-0.026,0.104-0.063,0.272C30.249,146.613,30.475,146.497,30.714,146.417z"/>
			<path fill="#010101" d="M-49.294,210.457c0.549-0.188,0.942-0.663,0.983-1.226c0.015-0.19-0.009-0.386,0.031-0.569
				c0.242-1.032-0.045-1.275-0.808-1.859c-0.293-0.222-0.659-0.345-0.999-0.502c-1.445-0.665-2.604,0.078-3.17,1.433
				c-0.189,0.453,0.265,0.777,0.278,1.183c0.023,0.746,0.573,1.104,1.125,1.305c0.578,0.212,1.239,0.203,1.857,0.29
				c0.001-0.008-0.025,0.103-0.062,0.271C-49.758,210.653-49.534,210.539-49.294,210.457z"/>
			<path fill="#010101" d="M-21.198,202.62c0.549-0.19,0.942-0.663,0.984-1.228c0.014-0.189-0.012-0.386,0.03-0.567
				c0.242-1.034-0.044-1.277-0.809-1.859c-0.292-0.222-0.66-0.346-0.998-0.502c-1.445-0.667-2.604,0.076-3.168,1.432
				c-0.189,0.455,0.262,0.778,0.277,1.185c0.024,0.747,0.571,1.1,1.124,1.304c0.578,0.212,1.239,0.202,1.858,0.29
				c0.001-0.006-0.023,0.103-0.064,0.27C-21.663,202.816-21.436,202.703-21.198,202.62z"/>
			<path fill="#010101" d="M-33.191,143.183c0.214,0.153,0.397,0.35,0.6,0.519c0.339,0.28,0.686,0.555,1.026,0.831
				c0.271-0.356,0.605-0.073,0.873-0.034c0.625,0.094,1.034-0.015,1.206-0.562c0.213-0.686,0.245-1.43,0.752-2.004
				c0.038-0.045,0.007-0.197-0.042-0.263c-0.228-0.304-0.509-0.566-0.703-0.888c-0.422-0.7-1.071-0.888-1.822-0.896
				c-1.118-0.125-1.792,0.655-2.538,1.276c-0.082,0.071-0.056,0.31-0.032,0.463c0.042,0.265,0.228,0.555,0.165,0.779
				C-33.854,142.924-33.468,142.988-33.191,143.183z"/>
			<path fill="#010101" d="M11.991,163.549c-0.976,0.428-2.08,0.749-2.377,1.99c-0.048,0.197-0.006,0.426-0.067,0.615
				c-0.154,0.467,0.086,0.804,0.395,1.045c0.642,0.51,1.332,0.959,2.033,1.457c0.345-0.294,0.696-0.549,0.993-0.858
				c0.226-0.236,0.333-0.604,0.584-0.787c0.301-0.227,0.273-0.418,0.176-0.698c-0.031-0.088,0.098-0.324,0.13-0.32
				c0.709,0.099,0.873-0.583,1.405-0.843c-0.745-0.676-1.894-0.654-2.191-1.586C12.683,163.551,12.279,163.421,11.991,163.549z"/>
			<path fill="#010101" d="M-38.333,205.979c0.708,0.099,0.872-0.583,1.405-0.841c-0.747-0.679-1.894-0.657-2.19-1.59
				c-0.389-0.014-0.792-0.14-1.082-0.014c-0.975,0.428-2.08,0.75-2.378,1.992c-0.047,0.198-0.006,0.422-0.067,0.614
				c-0.155,0.469,0.086,0.804,0.396,1.047c0.643,0.506,1.332,0.959,2.033,1.457c0.345-0.296,0.697-0.549,0.993-0.859
				c0.226-0.234,0.333-0.602,0.584-0.788c0.303-0.225,0.273-0.416,0.176-0.698C-38.498,206.213-38.367,205.974-38.333,205.979z"/>
			<path fill="#010101" d="M-5.741,96.532c0.08-0.312-0.075-0.691-0.159-1.034c-0.043-0.168-0.124-0.378-0.255-0.471
				c-0.607-0.423-1.238-0.824-1.846-0.794c-1.393-0.07-2.094,0.786-2.881,1.479c-0.044,0.038-0.024,0.179-0.004,0.263
				c0.054,0.198,0.183,0.395,0.175,0.59c-0.013,0.424,0.122,0.743,0.458,0.994c0.284,0.208,0.611,0.391,0.825,0.658
				c0.51,0.642,0.907,0.584,1.733,0.35c0.458-0.131,0.973-0.302,1.279-0.627C-6.075,97.573-5.868,97.03-5.741,96.532z"/>
			<path fill="#010101" d="M5.339,119.391c0.042-0.023,0.112-0.01,0.168,0.005c0.438,0.096,0.661-0.221,0.877-0.49
				c0.444-0.551,0.853-1.126,1.209-1.604c-0.133-0.451-0.255-0.865-0.388-1.318c-0.145-0.084-0.328-0.165-0.483-0.282
				c-0.839-0.644-1.776-0.814-2.793-0.57c-0.794,0.191-1.139,0.827-1.444,1.497c-0.044,0.097-0.107,0.229-0.077,0.309
				c0.19,0.506,0.401,1.004,0.622,1.499c0.064,0.15,0.147,0.341,0.274,0.405C3.946,119.147,4.471,119.918,5.339,119.391z"/>
			<path fill="#010101" d="M44.245,112.244c0.396,0.247,0.952,0.555,1.326,0.446c0.492-0.142,1.137-0.133,1.471-0.72
				c0.204-0.351,0.459-0.691,0.924-0.792c0.108-0.022,0.185-0.255,0.241-0.403c0.072-0.19,0.049-0.457,0.174-0.573
				c0.292-0.274,0.037-0.473-0.037-0.688c-0.077-0.21-0.206-0.401-0.312-0.602c0.045-0.041,0.092-0.084,0.135-0.124
				c-0.323-0.107-0.644-0.28-0.977-0.306c-0.726-0.058-1.458-0.09-2.183-0.036c-0.384,0.032-0.833,0.084-0.978,0.64
				c-0.077,0.3-0.349,0.563-0.564,0.814c-0.321,0.371-0.37,1.049-0.057,1.424C43.672,111.646,43.906,112.032,44.245,112.244z"/>
			<path fill="#010101" d="M23.843,97.95c-0.134,0.884,0.634,1.212,1.045,1.743c0.133,0.171,0.402,0.238,0.618,0.341
				c0.604,0.298,1.23,0.12,1.848,0.073c0.2-0.015,0.489-0.013,0.57-0.134c0.389-0.557,0.831-1.121,0.626-1.889
				c-0.023-0.086-0.042-0.187-0.023-0.271c0.162-0.8-0.158-1.291-0.958-1.461c-0.14-0.031-0.285-0.062-0.415-0.122
				c-0.907-0.423-1.811-0.306-2.644,0.14C23.913,96.692,23.853,97.348,23.843,97.95z"/>
			<path fill="#010101" d="M2.612,133.875c0.048-0.155,0.12-0.305,0.179-0.458c0.256-0.646,0.545-1.281,0.753-1.943
				c0.131-0.411-0.306-0.963-0.755-1.021c-0.566-0.073-1.14-0.129-1.711-0.165c-0.042-0.002-0.085-0.01-0.127-0.012
				c-0.629-0.031-1.583,0.607-1.789,1.156c-0.189,0.502-0.37,1.006-0.54,1.463c0.197,0.186,0.374,0.272,0.431,0.414
				c0.376,0.917,1.161,1.207,2.025,1.408c0.019,0.005,0.037,0.01,0.055,0.014C1.851,134.893,2.41,134.585,2.612,133.875z"/>
			<path fill="#010101" d="M-19.146,158.287c-0.568-0.159-1.168-0.196-1.749-0.313c-1.037-0.208-1.918,0.204-2.738,0.732
				c-0.292,0.187-0.54,0.553-0.348,1.017c0.115,0.279,0.137,0.6,0.212,0.958c0.798,0.482,1.688,1.017,2.708,1.628
				c0.21-0.364,0.522-0.759,0.67-1.201c0.151-0.466,0.315-0.731,0.859-0.723c0.584,0.006,0.841-0.333,0.788-0.881
				c-0.008-0.084-0.053-0.165-0.086-0.265c0.12,0.025,0.204,0.041,0.292,0.061C-18.345,158.715-18.689,158.413-19.146,158.287z"/>
			<path fill="#010101" d="M33.295,167.62c0.033,0.333,0.044,0.67,0.068,1.029c0.723,0.088,1.172,0.534,1.398,0.889
				c0.884,0.214,1.496,0.584,2.221,0.83c0.032-0.032,0.059-0.066,0.089-0.098c0.882-0.924,1.236-2.034,0.842-3.385
				c-0.147-0.006-0.336-0.01-0.534-0.019c-0.022-0.152-0.04-0.276-0.054-0.373c-0.142-0.004-0.295,0.038-0.389-0.02
				c-0.873-0.545-1.732-0.583-2.669-0.11c-0.2,0.101-0.379,0.203-0.539,0.319C33.446,166.889,33.25,167.15,33.295,167.62z"/>
			<path fill="#010101" d="M-34.613,109.532c0.36,0.189,0.774,0.289,1.108,0.514c0.563,0.378,1.301,0.23,1.54-0.408
				c0.15-0.392,0.184-0.827,0.321-1.226c0.207-0.607,0.456-1.202,0.688-1.798c-1.394-0.858-3.57-0.724-4.644,0.316
				c-0.157,0.152-0.204,0.46-0.219,0.703C-35.885,108.551-35.368,109.132-34.613,109.532z"/>
			<path fill="#010101" d="M8.569,143.526c-0.396,0.428-0.591,1.04-0.859,1.579c-0.02,0.035,0.082,0.135,0.129,0.204
				c0.277,0.371,0.583,0.724,0.817,1.12c0.196,0.332,0.311,0.736,0.766,0.765c0.477,0.025,0.907,0.39,1.461-0.047
				c0.615-0.481,0.916-1.124,1.326-1.722c0.331-0.482,0.165-0.978-0.104-1.291c-0.57-0.665-1.376-0.984-2.452-1.038
				C9.398,143.19,8.846,143.228,8.569,143.526z"/>
			<path fill="#010101" d="M-13.601,125.013c0.139-0.541,0.259-1.09,0.389-1.635c-0.142-0.065-0.362-0.09-0.412-0.196
				c-0.354-0.784-1.132-0.83-1.792-1.055c-0.612-0.209-1.925,0.226-2.139,0.765c-0.235,0.592-0.343,1.287,0.075,1.869
				c0.291,0.408,0.71,0.722,1.014,1.124c0.24,0.312,0.536,0.394,0.887,0.417C-14.903,126.353-13.752,125.613-13.601,125.013z"/>
			<path fill="#010101" d="M-8.023,135.303c-0.193-0.537-0.648-0.327-0.977-0.384c-0.607-0.105-1.233-0.131-1.852-0.131
				c-0.725-0.003-0.821,0.753-1.246,1.121c-0.286,0.249-0.28,0.521-0.028,0.858c0.681,0.916,1.634,1.434,2.628,1.903
				c0.049,0.024,0.114,0.013,0.116,0.013c0.369-0.037,0.706-0.013,0.989-0.124c0.311-0.124,0.705-0.251,0.546-0.794
				c-0.062-0.21,0.044-0.629,0.206-0.716c0.477-0.262,0.208-0.614,0.138-0.867C-7.589,135.866-7.91,135.619-8.023,135.303z"/>
			<path fill="#010101" d="M38.975,152.012c0.265,0.27,0.592,0.471,0.845,0.668c0.394-0.112,0.854-0.218,1.295-0.367
				c0.179-0.062,0.364-0.189,0.48-0.339c0.442-0.583,0.597-1.242,0.417-2.012c0.208,0.043,0.36,0.076,0.512,0.108
				c0.097-0.702-0.306-1.277-0.953-1.493c-0.906-0.302-1.724-0.104-2.514,0.347c-0.084,0.045-0.165,0.129-0.204,0.219
				c-0.128,0.277-0.228,0.574-0.355,0.851c-0.162,0.347-0.609,0.62-0.245,1.084C38.495,151.388,38.701,151.731,38.975,152.012z"/>
			<path fill="#010101" d="M26.191,159.615c-0.924,0.845-1.107,1.826-0.475,2.738c0.563-0.228,0.586-0.242,1.027,0.328
				c0.217,0.284,0.412,0.486,0.792,0.373c0.376-0.116,0.758-0.229,1.137-0.351c0.047-0.017,0.119-0.088,0.11-0.12
				c-0.123-0.447,0.324-0.519,0.498-0.772c0.068-0.094,0.182-0.187,0.226-0.281c0.01-0.022,0.021-0.044,0.021-0.067
				c0.014-0.829-0.115-1.627-0.798-2.196c-0.187-0.153-0.435-0.274-0.67-0.313c-0.16-0.028-0.309-0.028-0.454-0.019
				C27.08,158.966,26.626,159.214,26.191,159.615z"/>
			<path fill="#010101" d="M1.992,105.278c0.062-0.137,0.274-0.208,0.44-0.324c0.009-0.289,0.107-0.643,0.016-0.939
				c-0.184-0.595-0.722-1.163-1.367-1.484c-0.7-0.35-1.527-0.408-2.18,0.131c-0.892,0.736-0.774,1.218-0.299,2.296
				c0.265,0.606,0.883,0.746,1.236,1.214c0.112,0.148,0.498,0.195,0.718,0.137c0.181-0.05,0.355-0.112,0.525-0.185
				C1.461,105.961,1.798,105.721,1.992,105.278z"/>
			<path fill="#010101" d="M-6.048,124.45c0.464-0.15,0.959-0.294,1.172-0.862c0.128-0.343,0.417-0.624,0.604-0.947
				c0.078-0.135,0.157-0.355,0.101-0.475c-0.468-1.008-1.294-1.471-2.396-1.475c-0.036-0.002-0.075,0.004-0.112-0.005
				C-7.75,120.499-8.19,121.368-8.71,122c-0.121,0.141,0.226,0.685,0.377,1.036c0.088,0.206,0.207,0.394,0.321,0.584
				C-7.689,124.144-6.622,124.634-6.048,124.45z"/>
			<path fill="#010101" d="M-24.043,114.888c0.009,0.553,0.106,1.106,0.159,1.59c0.228,0.094,0.486,0.122,0.554,0.247
				c0.334,0.613,0.839,0.481,1.352,0.371c0.305-0.064,0.626-0.095,0.911-0.208c0.243-0.097,0.6-0.071,0.611-0.519
				c0.009-0.322,0.102-0.667,0.251-0.95c0.27-0.513,0.104-1.144-0.404-1.404c-0.629-0.324-1.276-0.5-1.988-0.469
				C-23.154,113.57-24.055,114.327-24.043,114.888z"/>
			<path fill="#010101" d="M-24.882,100.201c-0.027,0.163,0.004,0.406,0.111,0.516c0.682,0.694,1.423,1.304,2.554,1.36
				c0.347-0.231,1.071,0.143,1.255-0.605c0.158-0.641,0.285-1.294,0.355-1.95c0.014-0.144-0.251-0.414-0.43-0.459
				c-0.594-0.147-1.207-0.229-1.812-0.314C-23.685,98.624-24.739,99.374-24.882,100.201z"/>
			<path fill="#010101" d="M-2.945,110.054c-0.076-0.074-0.229-0.062-0.337-0.111c-0.464-0.21-0.912-0.472-1.395-0.635
				c-0.903-0.296-2.173,0.603-2.173,1.556c0.152,0.355,0.126,0.773,0.486,1.171c0.774,0.853,1.487,1.074,2.45,0.455
				c0.719-0.459,1.054-1.198,1.285-1.974C-2.595,110.399-2.81,110.187-2.945,110.054z"/>
			<path fill="#010101" d="M1.514,145.073c-0.025-0.452-0.175-0.941-0.41-1.331c-0.007-0.014-0.017-0.022-0.025-0.034
				c-0.525-0.84-1.481-0.877-2.3-0.825c-0.479,0.029-0.976,0.547-1.363,0.943c-0.161,0.167-0.299,0.6,0.083,0.891
				c0.119,0.092,0.146,0.332,0.172,0.512c0.029,0.21,0,0.316,0.327,0.347c0.364,0.037,0.701,0.356,1.055,0.537
				c0.238,0.126,0.483,0.235,0.727,0.354c0.324-0.038,0.899-0.375,1.298-0.735C1.338,145.497,1.523,145.252,1.514,145.073z"/>
			<path fill="#010101" d="M18.274,153.865c0.07,0.007,0.131,0.083,0.201,0.101c0.26,0.081,0.587,0.286,0.774,0.2
				c0.535-0.247,1.295-0.285,1.32-1.151c0.009-0.245,0.114-0.494,0.213-0.724c0.251-0.601-0.189-1.481-0.823-1.577
				c-0.432-0.062-0.869-0.079-1.359-0.122c-0.704-0.113-1.005,0.61-1.527,0.912c-0.189,0.112-0.353,0.688-0.246,0.806
				C17.284,152.845,17.314,153.806,18.274,153.865z"/>
			<path fill="#010101" d="M-25.108,130.839c0.38-0.486,0.935-1.049,0.927-1.572c-0.007-0.644-0.34-1.445-1.157-1.661
				c-0.623-0.163-1.302-0.363-1.903-0.253c-0.358,0.066-0.611,0.706-0.91,1.09c-0.044,0.055-0.085,0.112-0.101,0.133
				c0.114,0.261,0.215,0.477,0.304,0.698c0.143,0.358,0.968,1.122,1.299,1.22c0.067,0.02,0.103,0.131,0.163,0.191
				c0.096,0.095,0.188,0.202,0.303,0.262C-25.804,131.149-25.376,131.179-25.108,130.839z"/>
			<path fill="#010101" d="M-32.549,154.536c0.236,0.17,0.419,0.341,0.632,0.442c0.808,0.391,1.041,0.255,1.193-0.637
				c0.086-0.492,0.123-1.002,0.297-1.461c0.138-0.357,0.03-0.496-0.22-0.691c-0.683-0.53-1.487-0.394-2.243-0.382
				c-0.339,0.006-0.785,0.218-0.986,0.486c-0.352,0.461-0.019,1.583,0.483,1.945c0.201,0.146,0.433,0.247,0.651,0.369
				c-0.061,0.071-0.122,0.142-0.184,0.208C-32.799,154.72-32.674,154.628-32.549,154.536z"/>
			<path fill="#010101" d="M41.365,162.65c0.091,0.133,0.498,0.21,0.625,0.122c0.547-0.38,0.918-0.939,1.271-1.497
				c0.037-0.062-0.006-0.167,0.009-0.245c0.104-0.581-0.357-0.841-0.668-1.182c-0.771-0.837-1.576-0.866-2.41-0.096
				c-0.198,0.181-0.387,0.373-0.573,0.553c0.125,0.395,0.136,0.848,0.346,0.983C40.54,161.652,40.982,162.1,41.365,162.65z"/>
			<path fill="#010101" d="M5.639,155.597c0.008-0.002,0.002-0.416-0.087-0.461c-0.568-0.291-1.18-0.5-1.747-0.796
				c-0.891-0.471-1.447,0.088-2.035,0.592c-0.383,0.332-0.205,0.735-0.008,0.998c0.326,0.445,0.772,0.798,1.171,1.193
				c0.466-0.141,0.913-0.186,1.253-0.397C4.699,156.402,4.964,155.744,5.639,155.597z"/>
			<path fill="#010101" d="M-18.058,108.706c-0.265,0.648-0.062,1.103,0.61,1.276c0.39,0.1,0.77,0.236,1.154,0.362
				c0.467,0.155,1.208,0.021,1.305-0.284c0.168-0.52,0.289-1.057,0.423-1.576c-0.252-0.147-0.466-0.292-0.699-0.396
				c-0.25-0.111-0.515-0.206-0.781-0.261C-17.009,107.629-17.6,107.586-18.058,108.706z"/>
			<path fill="#010101" d="M-9.271,149.59c0.035,0.027,0.175-0.047,0.25-0.096c0.726-0.463,1.282-1.02,1.092-1.987
				c-0.146-0.003-0.296,0.03-0.415-0.019c-0.44-0.171-0.863-0.392-1.305-0.555c-0.719-0.261-1.498,0.021-1.767,0.644
				c-0.099,0.23-0.12,0.494-0.178,0.749c0.125,0.083,0.344,0.149,0.417,0.284C-10.77,149.397-9.827,149.115-9.271,149.59z"/>
			<path fill="#010101" d="M-63.133,24.494c-0.651,0.066-1.311,0.324-1.746,0.899c-0.245,0.32-0.458,0.668-0.697,1.002
				c-0.769,1.059-0.685,2.138,0.079,3.204c0.267,0.376,0.684,0.56,0.9,0.929c0.53,0.912,1.524,0.983,2.445,1.487
				c0.688-0.302,1.534-0.475,2.097-0.969c0.711-0.626,1.233-1.484,1.763-2.291c0.758-1.155,0.5-2.305-0.549-3.199
				C-60.108,24.477-61.593,24.33-63.133,24.494z"/>
			<path fill="#010101" d="M-57.897,44.417c-0.194,0.021-0.504,0.075-0.823,0.099c-1.425,0.107-2.781,1.866-2.44,3.238
				c0.206,0.818,0.5,1.614,0.773,2.414c0.043,0.125,0.161,0.239,0.272,0.326c0.203,0.161,0.535,0.255,0.617,0.457
				c0.232,0.565,0.699,0.751,1.206,0.827c0.437,0.064,0.947,0.132,1.328-0.027c1.401-0.584,2.646-1.363,2.816-3.092
				c0.006-0.051,0.052-0.099,0.077-0.149c0.385-0.89,0.184-1.765-0.318-2.48C-55.187,44.894-56.431,44.521-57.897,44.417z
				 M-56.111,49.977c-0.804,0.725-1.332,0.841-2.02,0.072c-0.381-0.427-0.836-0.761-0.925-1.473
				c0.176,0.065,0.309,0.079,0.388,0.148c0.357,0.322,0.701,0.661,1.052,0.988c0.437,0.408,1.126,0.298,1.84-0.222
				C-55.884,49.657-55.968,49.852-56.111,49.977z"/>
			<path fill="#010101" d="M-42.632,32.235c-0.376-0.41-0.881-0.737-1.391-0.981c-1.061-0.51-2.22-0.288-3.341-0.339
				c-0.066-0.006-0.148,0.033-0.199,0.08c-0.815,0.763-1.765,1.45-1.497,2.812c-0.051,0.002-0.104,0.004-0.156,0.01
				c0.173,0.572,0.177,1.33,0.554,1.671c0.515,0.467,0.732,1.051,1.121,1.555c0.239,0.312,0.555,0.583,0.885,0.8
				c0.155,0.106,0.484-0.039,0.624,0.073c0.633,0.5,1.125,0.09,1.486-0.292c0.717-0.759,1.343-1.603,1.989-2.424
				c0.35-0.444,0.372-0.939,0.324-1.512C-42.277,33.158-42.293,32.607-42.632,32.235z"/>
			<path fill="#010101" d="M-42.748,68.254c-0.212,0.253-0.381,0.547-0.55,0.835c-0.472,0.808-0.316,1.655,0.36,2.304
				c0.152,0.144,0.191,0.41,0.262,0.624c0.138,0.412,0.161,0.904,0.414,1.216c0.255,0.313,0.729,0.451,1.106,0.667
				c0.985,0.555,1.909,0.435,2.825-0.196c0.493-0.343,0.648-0.824,0.891-1.333c0.282-0.586,0.185-0.976-0.08-1.361
				c0.235-0.406,0.59-0.743,0.585-1.073c-0.01-0.522-0.253-1.039-0.837-1.267c-0.904-0.343-1.781-0.794-2.71-1.023
				C-41.284,67.45-42.139,67.542-42.748,68.254z M-38.046,70.825c-0.176-0.27-0.351-0.539-0.545-0.837
				C-38.04,69.984-37.838,70.206-38.046,70.825z"/>
			<path fill="#010101" d="M-82.547,25.614c-0.339,0.471-0.834,1.5-0.548,1.981c0.412,0.691,0.898,1.36,1.463,1.924
				c0.293,0.29,0.815,0.423,1.252,0.482c0.827,0.11,1.769,0.229,2.298-0.571c0.473-0.718,1.136-1.316,1.374-2.203
				c0.12-0.449,0.268-0.818,0.016-1.268c-0.12-0.214-0.108-0.502-0.13-0.613c-0.35-0.183-0.624-0.333-0.902-0.468
				c-1.009-0.487-1.953-1.102-3.159-0.319C-81.427,24.912-82.104,25.004-82.547,25.614z"/>
			<path fill="#010101" d="M-36.652,48.898c-0.207,0.462-0.412,1.096-0.25,1.51c0.255,0.642,0.825,1.16,1.26,1.736
				c0.01,0.014,0.033,0.021,0.051,0.021c0.323,0.09,0.643,0.21,0.973,0.253c0.567,0.079,1.161,0.224,1.706,0.124
				c0.648-0.114,1.262-0.451,1.837-0.675c0.056-0.564,0.108-1.058,0.149-1.549c0.044-0.519-0.256-0.917-0.493-1.371
				c0.5-0.314,0.736,0.178,1.161,0.349c0.216-0.304,0.287-0.555-0.074-0.891c-1.101-1.027-2.472-1.276-3.878-1.365
				C-35.504,46.962-36.191,47.855-36.652,48.898z"/>
			<path fill="#010101" d="M-71.458,45.564c0.729,0.435,1.475,0.674,2.236,0.049c0.261-0.212,0.559-0.38,0.797-0.616
				c0.243-0.236,0.474-0.504,0.64-0.798c0.195-0.351,0.286-0.757,0.472-1.113c0.378-0.725,0.302-1.138-0.352-1.646
				c-0.276-0.221-0.533-0.48-0.839-0.643c-0.778-0.416-1.636-0.714-2.501-0.6c-0.457,0.059-0.991,0.446-1.253,0.845
				c-0.338,0.516-0.442,1.188-0.58,1.598C-72.859,43.405-71.917,45.292-71.458,45.564z"/>
			<path fill="#010101" d="M-95.441,52.764c0.608-0.804,0.545-1.7,0.379-2.604c-0.03-0.167-0.18-0.344-0.325-0.441
				c-0.889-0.59-1.92-0.533-2.921-0.604c-0.037-0.002-0.071,0.025-0.105,0.038c-0.317,0.118-0.915,0.245-0.915,0.397v3.916
				c0,0.238,0.758,0.423,1.157,0.535C-97.002,54.046-96.045,53.563-95.441,52.764z"/>
			<path fill="#010101" d="M-50.479,2.051c-0.275,0.025-0.558,0.029-0.829,0.086c-0.904,0.188-1.609,0.612-1.969,1.533
				c-0.154,0.391-0.432,0.572-0.069,1.134c0.412,0.643,0.802,1.282,1.368,1.791c0.308,0.277,0.709,0.565,1.098,0.617
				c0.405,0.054,0.912-0.068,1.253-0.298c0.591-0.393,1.177-0.858,1.591-1.424c0.255-0.345,0.314-0.957,0.231-1.405
				C-48,3.026-49.29,2.124-50.479,2.051z"/>
			<path fill="#010101" d="M-84.538,65.36c-0.491-0.241-0.754,0.157-1.065,0.261c-0.672,0.225-1.557,0.298-1.723,1.276
				c-0.023,0.141-0.209,0.257-0.347,0.417c0.075,0.12,0.203,0.236,0.178,0.304c-0.196,0.539,0.104,0.939,0.322,1.386
				c0.239,0.494,0.623,0.737,1.121,0.881c0.186,0.054,0.345,0.189,0.528,0.249c0.267,0.088,0.561,0.237,0.812,0.19
				c1.014-0.189,1.789-0.757,2.475-1.536c0.735-0.835,0.725-1.021,0.168-1.759C-82.712,66.172-83.631,65.805-84.538,65.36z"/>
			<path fill="#010101" d="M-97.396,36.932c-0.117-0.05-0.194-0.204-0.287-0.313c-0.061-0.071-0.1-0.188-0.169-0.208
				c-0.18-0.049-0.38-0.024-0.556-0.084c-0.314-0.1-0.922-0.208-0.922-0.313v4.743c1.004,0.104,1.115,0.022,1.575-0.429
				c0.34-0.335,0.756-1.06,0.613-1.318c-0.256-0.465,0.021-0.757,0.066-1.086C-97.015,37.5-96.871,37.146-97.396,36.932z"/>
			<path fill="#010101" d="M-87.22,31.639c-0.218-0.231-0.619-0.294-0.931-0.445c-0.932-0.459-1.946-0.454-2.778,0.025
				c-0.772,0.443-1.229,1.289-1.165,2.19c0.262,0.251,0.446,0.402,0.604,0.579c0.437,0.49,0.824,1.03,1.3,1.48
				c0.558,0.516,1.8,0.44,2.359-0.073c0.376-0.343,0.629-0.7,0.77-1.246c0.127-0.492,0.41-0.967,0.317-1.484
				C-86.811,32.299-86.974,31.899-87.22,31.639z"/>
			<path fill="#010101" d="M-43.607,16.099c-0.549-0.535-1.278-0.729-1.999-0.696c-1.197,0.059-1.856,0.965-2.475,1.846
				c-0.172,0.247-0.208,0.584-0.302,0.873c0.036,0.129,0.04,0.249,0.096,0.332c0.21,0.3,0.412,0.613,0.667,0.869
				c0.216,0.218,0.488,0.465,0.769,0.514c0.443,0.075,0.918-0.014,1.378-0.008c0.214,0.002,0.462,0.148,0.644,0.086
				c0.907-0.328,1.609-0.859,1.72-1.924c0.031-0.302,0.194-0.592,0.201-0.896C-42.894,16.618-43.316,16.381-43.607,16.099z"/>
			<path fill="#010101" d="M-38.692,10.792c0.936,0.502,1.795,1.168,2.837,1.436c0.283,0.072,0.72,0.037,0.911-0.138
				c0.283-0.259,0.363-0.718,0.607-1.033c0.279-0.365,0.031-0.945,0.551-1.196c0.155-0.075,0.39-0.267,0.374-0.369
				c-0.049-0.291-0.135-0.724-0.338-0.815c-0.824-0.388-1.7-0.669-2.472-0.959c-0.627,0.147-1.116,0.2-1.551,0.376
				c-0.557,0.225-1.166,0.462-1.124,1.251c0.01,0.23,0.064,0.515-0.043,0.672C-39.223,10.427-38.863,10.702-38.692,10.792z"/>
			<path fill="#010101" d="M-94.06,13.284c-0.488,0.04-0.949,0.406-1.423,0.632c-0.936,0.441-1.113,1.069-0.703,1.987
				c0.325,0.722,1.62,1.649,2.458,1.746c0.377-0.159,0.77-0.294,1.135-0.479c0.848-0.422,1.206-1.289,1.734-1.992
				c0.124-0.163,0.133-0.595,0.007-0.73C-91.705,13.502-92.847,13.187-94.06,13.284z"/>
			<path fill="#010101" d="M-85.193,44.68c-0.081,0.206-0.07,0.461-0.051,0.69c0.072,0.835,0.561,1.428,1.185,1.928
				c0.303,0.247,0.617,0.673,0.932,0.682c0.524,0.01,1.1-0.167,1.567-0.418c0.952-0.517,1.184-1.429,1.12-2.448
				c-0.025-0.257-0.027-0.521-0.083-0.772c-0.028-0.122-0.131-0.279-0.239-0.322c-0.603-0.222-1.204-0.486-1.832-0.598
				C-83.735,43.215-84.659,43.327-85.193,44.68z"/>
			<path fill="#010101" d="M-36.854,60.163c0.393,0.736,1.081,1.098,1.528,1.724c0.109,0.151,0.441,0.147,0.584,0.186
				c1.211-0.1,1.903-0.193,2.209-1.475c0.129-0.545,0.162-1.115,0.196-1.679c0.013-0.208-0.035-0.541-0.165-0.612
				c-0.753-0.405-1.449-1.016-2.386-0.892c-0.34,0.047-0.687,0.174-0.994,0.333c-0.295,0.155-0.616,0.356-0.796,0.624
				C-37.038,58.91-37.259,59.406-36.854,60.163z"/>
			<path fill="#010101" d="M-90.945,3.855c-0.339,0.047-0.686,0.172-0.992,0.335c-0.296,0.153-0.617,0.355-0.798,0.622
				c-0.362,0.537-0.583,1.031-0.177,1.789c0.395,0.736,1.081,1.1,1.528,1.724c0.109,0.155,0.443,0.147,0.585,0.188
				c1.21-0.102,1.902-0.196,2.211-1.475c0.13-0.545,0.161-1.118,0.194-1.681c0.013-0.206-0.035-0.539-0.166-0.608
				C-89.311,4.344-90.007,3.732-90.945,3.855z"/>
			<path fill="#010101" d="M-72.916,53.001c0.394,0.736,1.082,1.1,1.528,1.724c0.109,0.153,0.443,0.146,0.585,0.188
				c1.21-0.102,1.901-0.195,2.209-1.477c0.13-0.545,0.162-1.116,0.196-1.679c0.013-0.208-0.035-0.541-0.167-0.612
				c-0.75-0.403-1.447-1.014-2.387-0.89c-0.338,0.047-0.684,0.172-0.99,0.333c-0.296,0.155-0.618,0.357-0.799,0.624
				C-73.1,51.75-73.32,52.244-72.916,53.001z"/>
			<path fill="#010101" d="M-60.575,66.495c0.769-0.726,1.4-1.59,1.349-2.571c-0.225-1.564-0.08-1.508-1.481-1.729
				c-0.108-0.016-0.211-0.073-0.321-0.09c-0.88-0.118-1.736-0.047-2.412,0.59c-0.254,0.241-0.553,0.629-0.537,0.932
				c0.056,0.898,0.269,1.777,1.248,2.191c0.098,0.041,0.125,0.228,0.215,0.313c0.214,0.203,0.429,0.522,0.671,0.547
				C-61.425,66.727-60.835,66.74-60.575,66.495z"/>
			<path fill="#010101" d="M-71.142,76.671c0.385,0.356,0.744,0.745,1.131,1.099c0.378,0.347,0.821,0.244,1.124-0.05
				c0.336-0.327,0.569-0.765,0.833-1.166c0.344-0.535,0.442-1.237,1.185-1.488c0.336-0.112,0.336-0.561,0.012-0.696
				c-0.902-0.38-1.824-0.712-2.741-1.063c-0.021,0.051-0.04,0.102-0.06,0.153c-0.793-0.082-1.456,0.323-1.926,0.832
				c-0.333,0.358-0.392,1.018-0.462,1.557c-0.021,0.167,0.309,0.396,0.501,0.57C-71.434,76.526-71.258,76.563-71.142,76.671z"/>
			<path fill="#010101" d="M-29.511,18.242c-0.901-0.378-1.826-0.714-2.741-1.064c-0.021,0.052-0.041,0.103-0.062,0.157
				c-0.794-0.082-1.456,0.322-1.926,0.826c-0.334,0.36-0.392,1.018-0.463,1.561c-0.021,0.167,0.309,0.397,0.5,0.571
				c0.115,0.105,0.292,0.143,0.407,0.251c0.385,0.356,0.743,0.745,1.131,1.096c0.377,0.351,0.821,0.247,1.124-0.047
				c0.336-0.328,0.57-0.765,0.83-1.167c0.347-0.531,0.444-1.239,1.187-1.485C-29.186,18.827-29.186,18.377-29.511,18.242z"/>
			<path fill="#010101" d="M-65.392,14.241c-1.002-0.453-2.002-1.1-3.166-0.641c-1.356,0.536-2.213,1.187-1.246,2.722
				c0.172,0.271,0.432,0.5,0.676,0.716c0.53,0.479,1.201,0.557,1.87,0.557c0.297-0.004,0.595-0.129,0.889-0.201
				c0.04,0.036,0.082,0.073,0.122,0.109c0.255-0.787,0.51-1.57,0.79-2.436c0.088-0.021,0.289-0.07,0.582-0.143
				C-65.084,14.638-65.189,14.333-65.392,14.241z"/>
			<path fill="#010101" d="M-74.543,59.122c-0.37,0.335-0.679,0.751-0.939,1.181c-0.114,0.189-0.147,0.545-0.044,0.726
				c0.509,0.9,1.085,1.743,2.133,2.125c0.701,0.262,1.8-0.189,1.943-0.905c0.112-0.565,0.119-1.151,0.164-1.733
				c0.005-0.062-0.044-0.141-0.091-0.193c-0.627-0.725-1.332-1.307-2.371-1.332C-74.017,59.027-74.375,58.973-74.543,59.122z"/>
			<path fill="#010101" d="M-47.662,52.858c0.474,0.331,0.976,0.614,1.449,0.94c0.809,0.555,1.759,0.333,2.164-0.552
				c0.196-0.434,0.341-0.893,0.459-1.354c0.125-0.483-0.403-1.234-0.903-1.312c-0.535-0.084-1.075-0.143-1.449-0.19
				c-1.003,0.021-1.935-0.174-2.265,0.945c-0.086,0.298-0.208,0.652-0.116,0.916C-48.237,52.501-47.912,52.689-47.662,52.858z"/>
			<path fill="#010101" d="M-68.558,3.532c-0.355-0.204-0.712-0.402-1.081-0.579c-0.952-0.453-2.348-0.168-2.998,0.648
				c-0.117,0.146-0.154,0.483-0.067,0.652c0.213,0.416,0.451,0.863,0.797,1.153c0.533,0.447,0.977,1.102,1.855,1.173
				c0.248-0.134,0.486-0.283,0.746-0.387c0.713-0.294,0.755-1.016,1.062-1.579C-67.965,4.103-68.113,3.787-68.558,3.532z"/>
			<path fill="#010101" d="M-81.669,14.43c0.021,0.939,0.866,1.332,1.543,1.773c0.226,0.149,0.631,0.251,0.839,0.143
				c0.578-0.291,1.246-0.547,1.446-1.275c0.081-0.294,0.193-0.437,0.53-0.433c0.188,0,0.376-0.165,0.63-0.291
				c-0.144-0.146-0.205-0.23-0.286-0.28c-0.452-0.292-0.884-0.631-1.369-0.851c-0.895-0.404-1.833-0.486-2.651,0.167
				C-81.303,13.637-81.677,14.079-81.669,14.43z"/>
			<path fill="#010101" d="M-54.558,70.068c0.253,0.222,0.567,0.39,0.781,0.644c0.413,0.488,0.938,0.645,1.522,0.414
				c0.252-0.101,0.528-0.144,0.83-0.218c0.189-0.373,0.433-0.818,0.649-1.277c0.302-0.637,0.062-1.165-0.605-1.362
				c-0.158-0.048-0.315-0.114-0.476-0.146c-0.858-0.163-1.703-0.351-2.526,0.204C-54.933,68.696-55.069,69.617-54.558,70.068z"/>
			<path fill="#010101" d="M-86.188,54.886c-0.316,0.051-0.726,0.047-0.884,0.537c-0.099,0.306-0.472,0.512-0.648,0.806
				c-0.104,0.17-0.122,0.442-0.073,0.643c0.082,0.343,0.245,0.669,0.405,1.075c0.401-0.309,0.688-0.278,1.017,0.051
				c0.348,0.347,0.784,0.371,1.188,0.021c0.549-0.479,0.968-1.038,1.078-1.779c0.068-0.469-0.335-1.287-0.668-1.322
				C-85.246,54.872-85.73,54.813-86.188,54.886z"/>
			<path fill="#010101" d="M-97.19,61.499c0.289,0.113,0.499,0.451,0.724,0.708c0.457,0.52,0.718,0.536,1.224,0.049
				c0.055-0.055,0.109-0.127,0.174-0.146c0.896-0.226,0.671-1.134,1.022-1.69c0.018-0.028-0.017-0.122-0.053-0.147
				c-0.492-0.32-0.988-0.639-1.282-0.828c-1.055-0.032-1.874,0.621-2.016,1.394C-97.438,61.073-97.618,61.328-97.19,61.499z"/>
			<path fill="#010101" d="M-55.859,13.724c-0.543-0.29-1.109-0.535-1.667-0.796c-0.009,0.051-0.021,0.102-0.029,0.154
				c-0.758-0.282-1.078,0.208-1.285,0.745c-0.103,0.27-0.116,0.721,0.043,0.906c0.358,0.417,0.844,0.734,1.296,1.065
				c0.101,0.079,0.287,0.095,0.414,0.067c0.465-0.11,1.403-1.231,1.417-1.706C-55.667,14.014-55.749,13.785-55.859,13.724z"/>
			<path fill="#010101" d="M-61.156,0.051h-3.367c0.399,0,0.918,0.441,1.394,0.625C-62.178,1.039-61.682,0.051-61.156,0.051z"/>
			<path fill="#010101" d="M-99.333,0.62c0.611,0.009,0.792-0.602,1.294-0.845c-0.087-0.081-0.183-0.149-0.28-0.212h-1.014
				L-99.333,0.62L-99.333,0.62z"/>
			<path fill="#010101" d="M-75.922,1.49c-0.021-0.152-0.04-0.275-0.053-0.371c-0.141-0.006-0.296,0.037-0.389-0.022
				c-0.873-0.543-1.733-0.581-2.669-0.105c-0.556,0.279-1.045,0.52-0.974,1.253c0.033,0.333,0.044,0.671,0.068,1.029
				c0.723,0.09,1.172,0.53,1.399,0.891c0.883,0.212,1.495,0.582,2.219,0.827c0.954-0.944,1.338-2.084,0.932-3.485
				C-75.536,1.502-75.723,1.498-75.922,1.49z"/>
		</g>
	</g>
</g>
</svg>
