<?xml version="1.0" encoding="utf-8"?>
<!-- Generator: Adobe Illustrator 15.0.0, SVG Export Plug-In . SVG Version: 6.00 Build 0)  -->
<!DOCTYPE svg PUBLIC "-//W3C//DTD SVG 1.1//EN" "http://www.w3.org/Graphics/SVG/1.1/DTD/svg11.dtd">
<svg version="1.1" id="Layer_1" xmlns="http://www.w3.org/2000/svg" xmlns:xlink="http://www.w3.org/1999/xlink" x="0px" y="0px"
	 width="99.993px" height="213.951px" viewBox="0.008 -0.004 99.993 213.951" enable-background="new 0.008 -0.004 99.993 213.951"
	 xml:space="preserve">
<g>
	<defs>
		<rect id="SVGID_1_" x="0.008" y="-0.004" width="99.993" height="213.951"/>
	</defs>
	<clipPath id="SVGID_2_">
		<use xlink:href="#SVGID_1_"  overflow="visible"/>
	</clipPath>
	<path clip-path="url(#SVGID_2_)" fill="#B4DBD0" d="M100.001-31.516V68.951c-0.319-0.836-0.646-1.654-0.978-2.479
		c-0.225-0.561-0.465-1.121-0.703-1.67c-0.487-1.143-1-2.289-1.534-3.405c-0.228-0.49-0.468-0.979-0.707-1.47
		c-4.146-8.481-9.39-16.324-15.539-23.356c-0.869-0.99-1.763-1.98-2.67-2.933c-0.451-0.479-0.906-0.967-1.371-1.432
		c-0.604-0.619-1.228-1.238-1.847-1.832c-0.623-0.609-1.252-1.205-1.883-1.801c-0.586-0.537-1.182-1.086-1.776-1.611
		c-0.572-0.512-1.154-1.022-1.75-1.522c-0.349-0.3-0.691-0.587-1.039-0.871c-0.44-0.369-0.894-0.738-1.347-1.099
		c-0.682-0.547-1.373-1.084-2.062-1.606c-0.598-0.453-1.192-0.906-1.789-1.347c-0.164-0.12-0.332-0.252-0.512-0.37
		c-0.597-0.416-1.181-0.835-1.774-1.24c-0.511-0.367-1.035-0.726-1.572-1.07c-0.357-0.24-0.703-0.477-1.062-0.707
		c-1.285-0.832-2.586-1.631-3.906-2.418c-0.49-0.285-0.979-0.572-1.479-0.844c-0.467-0.277-0.932-0.525-1.396-0.775
		c-1.549-0.858-3.135-1.684-4.729-2.455c-0.535-0.264-1.084-0.522-1.646-0.774c-1.502-0.703-3.025-1.357-4.576-1.99
		c-0.355-0.154-0.725-0.297-1.096-0.439c-0.57-0.229-1.133-0.454-1.717-0.657c-0.904-0.345-1.822-0.679-2.74-0.988
		c-0.834-0.297-1.68-0.572-2.527-0.836c-0.82-0.26-1.645-0.51-2.467-0.75c-0.059-0.012-0.107-0.023-0.154-0.035
		c-0.629-0.191-1.275-0.369-1.932-0.537c-0.428-0.117-0.846-0.238-1.275-0.332c-0.631-0.168-1.275-0.334-1.93-0.479
		C23.8,2.654,23.097,2.486,22.37,2.343c-0.404-0.094-0.822-0.178-1.229-0.25c-0.18-0.047-0.357-0.084-0.535-0.106
		c-0.596-0.119-1.18-0.238-1.775-0.334c-0.764-0.146-1.525-0.265-2.289-0.381c-0.785-0.134-1.586-0.24-2.383-0.349
		c-0.264-0.035-0.527-0.069-0.799-0.106c-0.752-0.095-1.504-0.179-2.254-0.248C10.295,0.482,9.473,0.4,8.651,0.339
		C7.84,0.271,7.018,0.222,6.196,0.175C5.78,0.15,5.362,0.126,4.932,0.114C4.444,0.089,3.967,0.067,3.479,0.052
		C3.108,0.04,2.729,0.031,2.346,0.031C1.573,0.008,0.797-0.004,0.008-0.004H-99.995v213.953h99.992V213.9
		c45.693,0,84.68-28.642,100.004-68.947v68.994h99.994v-345.459C199.995-76.283,155.229-31.516,100.001-31.516 M-0.003,196.906
		c-49.686,0-89.957-40.273-89.957-89.959c0-49.688,40.271-89.972,89.957-89.972s89.971,40.283,89.971,89.972
		C89.968,156.633,49.683,196.906-0.003,196.906"/>
</g>
</svg>
