<svg version="1.1" id="Layer_1" xmlns="http://www.w3.org/2000/svg" x="0" y="0" viewBox="0 0 100 199.5" xml:space="preserve"><style>.st0{fill:#b4dbd0}.st1{fill:#1d1d1b}.st2{fill:#010101}</style><path class="st0" d="M93.1 136.9c.4.1.8.4 1.2.5h.4c.2.9-.3 1.4-1 1.8-.1 0-.2.1-.2.1-.4-.3-.9-.3-1.3-.5-2.3 5.3-5 10.4-8.1 15.3.4.2.6.5.3 1s-.3 1.2-.9 1.5c-.2.1-.4.3-.7.4-.2 0-.4-.1-.6-.1-1.8 2.5-3.6 5-5.6 7.3.1 0 .1.1.2.1s.1.1.3.2c-.2.1-.4.3-.6.3-.3 0-.4.2-.5.4-.1.7-.8 1-1.3 1.3h-.2c-6 6.7-12.9 12.6-20.4 17.5 0 .3-.1.6-.1.9v.4c.1.2-.4 1-.7 1h-.6c-.2-.2-.4-.2-.7 0-.8.3-1.1.4-1.6-.1-8.3 4.9-17.3 8.6-26.9 10.9v.2l-.1.1c-.4.1-.7.2-1.1.3-.3.1-.4 0-.6-.2-3.7.8-7.4 1.4-11.2 1.8 0 0 .1 0 .1.1H10c-3.3.3-6.6.5-10 .5l100-.5v-25.1c-.2-.4-.3-.8-.4-1.3.1-.5.3-1 .4-1.5v-19.9c0 .1 0 .1-.1.2-.1.3-.1.6-.2.9-.1.5-.7.8-1.3.7h-.8c.2-.2.4-.4 0-.5-.4-.2-.9-.4-1.2-.7-.2-.2-.3-.5-.3-.8 0-.4.1-.9.2-1.3 0-.2-.1-.5 0-.5.5-.4 1-.8 1.5-1 .7-.2 1.3.1 1.9.7l.3.3v-14.2c0-.1 0-.1-.1-.2 0-.2 0-.4-.2-.5-.4-.3-.2-.7-.1-.8l.3-.3V100c0 13-2.5 25.4-7 36.8.1 0 .2 0 .2.1zm-56 59.2c-.3.5-.7 1-1.2 1.4-.1.1-.5 0-.6-.1-.4-.5-.8-.9-1.3-1.3-.2-.1-.2-.5-.3-.9l.5-.5c.8-.7 1.5-.7 2.2.1.3.3.7.6.6 1.1 0 .1.1.2.1.2zm8.6 2.9l-.2.2c-.1.1-.1.2-.2.3v.1h-3.2c-.3-.2-.4-.7-.5-1.1-.4-1.5.3-2.3 1.7-2.6 1.4-.3 2.4.1 3.4 1 .3.3.6.5.9.8-.5.6-.9 1.3-1.9 1.3zm11.6-4.8v.5c0 .5-.4 1-.9 1.1-.2.1-.4.2-.7.3 0-.2.1-.3.1-.3-.6-.1-1.2-.1-1.7-.3-.5-.2-1-.5-1-1.2 0-.4-.4-.7-.3-1.1.5-1.3 1.6-1.9 2.9-1.3.3.1.7.3.9.5.6.6.9.8.7 1.8zm9.2-2.5s-.2.2-.1.3c.1.3.1.4-.2.6-.2.2-.3.5-.5.7-.3.3-.6.5-.9.8-.7-.5-1.3-.9-1.9-1.4-.3-.2-.5-.5-.4-1 .1-.2 0-.4.1-.6.3-1.2 1.3-1.5 2.2-1.8.3-.1.6 0 1 0 .3.9 1.3.8 2 1.5-.5.3-.6 1-1.3.9zm2-8.2c-.1.5-.3.9-.6 1.2-.5.5-1.6.6-2.2.2-.5-.4-.9-.9-1.3-1.3-.2-.2-.3-.3-.6-.5-.1-.8.3-1.6 1-2.1s1.7-.5 2.6-.2c.3.1.7.2.9.4.2.2.4.6.5.9.1.4-.2.9-.3 1.4zm9 10.8c-.2 1-.8 1.8-1.2 2.7-.1.2-.3.5-.7.3-.2-.1-.4 0-.6 0-.7.1-1-.5-1.2-1-.2-.4-.2-.8-.4-1.4.2-.7.5-1.5.8-2.3.1-.2.5-.3.8-.3.1 0 .3.2.4.3.2.5.8.2 1.1.5.3.2.7.3 1 .5v.7zm.3-17.8c-.2.8-.8 1.4-1.2 2.1-.4.8-1.3.7-2.1.6-.4 0-.9-.1-1.2-.4-.6-.5-1-1.1-1.5-1.7-.3-.4.1-1.4.4-1.9.4-.6 1-.7 1.5-1.1 1.1-.8 2-.3 2.9.1.3.1.5.2.9.4 0 .1 0 .4.2.6.3.5.2.9.1 1.3zm5.6 10.4v.5c0 .5-.4 1-.9 1.1-.2.1-.4.2-.7.3 0-.2.1-.3.1-.3-.6-.1-1.2-.1-1.7-.3-.5-.2-1-.5-1-1.2 0-.4-.4-.7-.3-1.1.5-1.3 1.6-1.9 2.9-1.3.3.1.7.3.9.5.6.6.9.8.7 1.8zm3.6-20l-.1-.1c-.3.1-.5.2-.8.2-.6 0-1.2 0-1.8-.4-.2-.2-.5-.4-.7-.6-1-1.4-.2-2 1-2.6 1.1-.5 2 .1 3 .4.2.1.3.3.5.6-.3.1-.5.1-.5.2-.2.8-.4 1.6-.6 2.3zm5.3 26.4c-.5.5-1 .9-1.6 1.3-.5.4-.7.1-1.1 0-.9-.3-1.3-.9-1.5-1.8-.1-.2-.1-.5-.1-.8 0-1.1.8-2.3 1.8-2.5.4-.1 1-.1 1.3.2.5.4 1 .9 1.4 1.4.2.3.4.8.3 1.2 0 .4-.2.7-.5 1zm-.8-13.1c-.9-.4-1.8-.4-2.3-1.2-.2-.3-.6-.5-.9-.8-.8-.9-.9-1.9-.2-3 .2-.3.4-.7.6-1 .4-.6 1-.8 1.6-.9 1.4-.2 2.8-.2 4 .8 1 .8 1.3 1.8.7 2.9-.4.8-.9 1.6-1.5 2.2-.6.4-1.4.7-2 1zm6.4 1.5c.3.3.4.7.1 1-.3.4-.7.7-1 1.1-.1.1-.1.3-.2.4-.2.2-.4.5-.5.5-.5 0-1.1-.1-1.5-.4-.5-.4-.9-1-.8-1.8h-.1c.3-.9.6-1.7.9-2.6.1-.3.5-.3.6 0 .3.7.9.8 1.4 1.1.4.2.8.4 1.1.7zm-3.1-19.5c.5.2 1.1.4 1.6.6.1.1.2.3.2.4 0 .4-.8 1.5-1.2 1.7H95c-.4-.3-.9-.6-1.3-.9-.2-.2-.2-.6-.1-.8.2-.5.4-1 1.1-.8.1-.1.1-.1.1-.2z"/><path class="st1" d="M94.3 174c-1.2-.9-2.6-1-4-.8-.6.1-1.2.4-1.6.9-.2.3-.4.6-.6 1-.7 1-.5 2 .2 3 .3.3.7.5.9.8.5.8 1.5.8 2.3 1.2.6-.3 1.4-.5 1.9-1 .6-.6 1.1-1.4 1.5-2.2.7-1.1.4-2.1-.6-2.9zm-16.7.8c-.3-.1-.6-.3-.9-.4-1-.4-1.9-.9-2.9-.1-.5.4-1.1.5-1.5 1.1-.3.5-.7 1.4-.4 1.9.4.6.9 1.2 1.5 1.7.3.3.8.3 1.2.4.8.1 1.7.1 2.1-.6.4-.7 1-1.3 1.2-2.1.1-.4.2-.8-.1-1.2-.2-.4-.2-.6-.2-.7zm-9.3 6.3c-.2-.2-.6-.2-.9-.4-.9-.4-1.8-.3-2.6.2-.7.5-1.1 1.3-1 2.1.3.2.4.3.6.5.4.4.8.9 1.3 1.3.5.5 1.7.3 2.2-.2.3-.3.5-.7.6-1.2.1-.5.3-.9.2-1.4 0-.3-.2-.6-.4-.9zm19.3-17.2c-1-.4-1.9-.9-3-.4-1.2.6-2 1.2-1 2.6.2.2.4.4.7.6.5.4 1.1.5 1.8.4.3 0 .5-.2.8-.2l.1.1c.2-.7.4-1.5.6-2.3.1 0 .3-.1.5-.2-.2-.3-.3-.6-.5-.6zm-4.1-7.3c.6-.3.6-1 .9-1.5.2-.5.1-.8-.3-1-.6.9-1.2 1.8-1.8 2.8.2.1.4.1.6.1.2-.1.4-.3.6-.4zm-7.4 8.7c.1-.3.2-.4.5-.4.2 0 .3-.2.6-.3-.1-.1-.2-.2-.3-.2-.1 0-.1-.1-.2-.1l-2.1 2.4h.2c.5-.5 1.2-.7 1.3-1.4zm23.9 9.1v-2.8c-.2.5-.3 1-.4 1.5.1.5.2.9.4 1.3zm-6.4-11.3c-.1.3-.1.7.1.8.4.4.8.6 1.3.9.1.1.3.1.4 0 .4-.1 1.2-1.2 1.2-1.7 0-.1-.1-.3-.2-.4-.5-.2-1.1-.4-1.6-.6v.1c-.7 0-1 .4-1.2.9zm-2.4 26.6c-.3-.2-.9-.3-1.3-.2-1 .2-1.8 1.4-1.8 2.5 0 .3 0 .5.1.8.2.8.6 1.5 1.5 1.8.4.1.5.4 1.1 0 .6-.4 1.2-.8 1.6-1.3.2-.3.5-.7.5-1 0-.4-.1-.8-.3-1.2-.5-.5-.9-1-1.4-1.4zm-14.9 3.2c-.3-.2-.9 0-1.1-.5-.1-.1-.3-.4-.4-.3-.3.1-.7.1-.8.3-.3.8-.6 1.6-.8 2.3.2.6.2 1 .4 1.4.2.5.5 1.1 1.2 1 .2 0 .5-.1.6 0 .4.2.6-.1.7-.3.4-.9 1-1.7 1.2-2.7.1-.3 0-.7-.2-.8-.1-.1-.5-.2-.8-.4zm19.1-13c-.1-.3-.5-.3-.6 0-.3.9-.6 1.7-.9 2.6h.1c-.1.7.3 1.3.8 1.8.3.3 1 .3 1.5.4.2 0 .4-.3.5-.5.1-.1.1-.3.2-.4.3-.4.7-.7 1-1.1.3-.4.2-.8-.1-1-.3-.3-.7-.5-1.1-.7-.5-.3-1.2-.4-1.4-1.1z"/><path class="st2" d="M43.3 195.8c-1.4.3-2.1 1.1-1.7 2.6.1.4.2.8.5 1.1h3.2v-.1c.1-.1.1-.2.2-.3 0-.1.1-.2.2-.2 1 .1 1.4-.7 1.9-1.3-.3-.3-.6-.6-.9-.8-1-.9-2-1.3-3.4-1zm8.8-9.4c.3-.1.6-.2.7 0h.6c.3 0 .8-.8.7-1v-.4c0-.3.1-.6.1-.9-1.2.8-2.4 1.5-3.6 2.2.4.5.7.4 1.5.1zm-41.5 13c-.2 0-.4 0-.7.1h.8l-.1-.1zm11.9-1.6c.4-.1.7-.2 1.1-.3l.1-.1v-.2c-.6.1-1.2.3-1.8.4.1.2.3.3.6.2zm13.9-3c-.7-.8-1.5-.8-2.2-.1-.2.2-.4.3-.5.5.1.4.1.8.3.9.5.3.9.8 1.3 1.3.1.1.5.2.6.1.5-.4.9-.9 1.2-1.4v-.2c.1-.5-.4-.8-.7-1.1zm61.4-46.1c-.6.2-1 .6-1.5 1-.1.1.1.3 0 .5 0 .4-.2.9-.2 1.3 0 .3.1.7.3.8.3.3.8.6 1.2.7.4.1.3.3 0 .5.3 0 .5-.1.8 0 .6.1 1.1-.2 1.3-.7.1-.3.1-.6.2-.9 0-.1 0-.1.1-.2v-2.1l-.3-.3c-.6-.5-1.2-.8-1.9-.6zm-41.3 43.7c-.3-.2-.6-.3-.9-.5-1.3-.6-2.4.1-2.9 1.3-.2.4.2.7.3 1.1 0 .7.5 1 1 1.2.5.2 1.1.2 1.7.3 0 0 0 .1-.1.3.3-.1.5-.2.7-.3.5-.2.9-.6.9-1.1v-.5c.3-1 0-1.2-.7-1.8zm26.1-7.2c-.3-.2-.6-.3-.9-.5-1.3-.6-2.4.1-2.9 1.3-.2.4.2.7.3 1.1 0 .7.5 1 1 1.2.5.2 1.1.2 1.7.3 0 0 0 .1-.1.3.3-.1.5-.2.7-.3.5-.2.9-.6.9-1.1v-.5c.3-1.1 0-1.3-.7-1.8zm-16.8 4.2c-.4 0-.7-.1-1 0-.9.4-1.9.7-2.2 1.8 0 .2 0 .4-.1.6-.1.4.1.7.4 1 .6.5 1.2.9 1.9 1.4.3-.3.6-.5.9-.8.2-.2.3-.6.5-.7.3-.2.3-.4.2-.6 0-.1.1-.3.1-.3.7.1.8-.5 1.3-.8-.7-.7-1.8-.7-2-1.6zm34-54.6c.1.1.1.3.2.5 0 .1 0 .2.1.2v-1.8l-.3.3c-.3.1-.4.5 0 .8zm-6.1 4.4c.7-.4 1.2-.9 1-1.8h-.4c-.4-.2-.8-.4-1.2-.5h-.2c-.3.7-.5 1.3-.8 2 .4.2 1 .2 1.3.5.1-.1.2-.1.3-.2z"/><path class="st0" d="M0-.5c3.4 0 6.7.2 10 .5h.8s-.1 0-.1.1c3.8.4 7.6 1 11.2 1.8.2-.2.3-.3.6-.2.4.1.7.2 1.1.3l.1.1v.2c9.6 2.3 18.6 6 26.9 10.9.5-.5.8-.4 1.6-.1.3.1.6.2.7 0h.6c.3 0 .8.8.7 1v.4c0 .3.1.6.1.9 7.6 4.9 14.5 10.8 20.4 17.5h.2c.5.3 1.1.6 1.3 1.3.1.3.2.4.5.4.2 0 .3.2.6.3-.1.1-.2.2-.3.2-.1 0-.1.1-.2.1 2 2.4 3.8 4.8 5.6 7.3.2-.1.4-.1.6-.1.2.1.4.3.7.4.6.3.6 1 .9 1.5.2.5.1.8-.3 1 3.1 4.8 5.8 9.9 8.1 15.3.4-.2 1-.2 1.3-.5 0 0 .2 0 .2.1.7.4 1.2.9 1 1.8h-.4c-.4.2-.8.4-1.2.5h-.2c4.5 11.4 7 23.8 7 36.8V65.8l-.3-.3c-.2-.2-.3-.6.1-.8.1-.1.1-.3.2-.5 0-.1 0-.2.1-.2V49.8l-.3.3c-.5.5-1.2.9-1.9.7-.6-.2-1-.6-1.5-1-.1-.1.1-.3 0-.5 0-.4-.2-.9-.2-1.3 0-.3.1-.7.3-.8.3-.3.8-.6 1.2-.7.4-.1.3-.3 0-.5.3 0 .5.1.8 0 .6-.1 1.1.2 1.3.7.1.3.1.6.2.9 0 .1 0 .1.1.2V27.9c-.2-.5-.3-1-.4-1.5.2-.5.3-1 .4-1.3V0L0-.5zm37.1 4.1c.1.5-.3.8-.6 1.1-.7.8-1.5.8-2.2.1-.2-.2-.4-.3-.5-.5.1-.4.1-.8.3-.9.5-.3.9-.8 1.3-1.3 0-.1.4-.2.5-.1.5.4.9.9 1.2 1.4 0 0-.1.1 0 .2zm9.6-.9c-1 .9-2 1.3-3.4 1-1.4-.3-2.1-1.1-1.7-2.6.1-.4.2-.8.5-1.1h3.2v.1c.1.1.1.2.2.3 0 .1.1.2.2.2 1-.1 1.4.7 1.9 1.3-.3.3-.6.5-.9.8zm9.8 4.4c-.3.2-.6.3-.9.5-1.3.6-2.4-.1-2.9-1.3-.2-.4.2-.7.3-1.1 0-.7.5-1 1-1.2.5-.2 1.1-.2 1.7-.3 0 0 0-.1-.1-.3.3.1.5.2.7.3.5.2.9.6.9 1.1v.5c.3 1 0 1.2-.7 1.8zm6.1 1.1c0-.2 0-.4-.1-.6-.1-.4.1-.7.4-1 .6-.5 1.2-.9 1.9-1.4.3.3.6.5.9.8.2.2.3.6.5.7.3.2.3.4.2.6 0 .1.1.3.1.3.7-.1.8.5 1.3.8-.7.6-1.8.6-2 1.5-.4 0-.7.1-1 0-.9-.2-2-.5-2.2-1.7zm6.2 9.2c-.1.3-.3.7-.5.9-.2.2-.6.2-.9.4-.9.4-1.8.3-2.6-.2-.7-.5-1.1-1.3-1-2.1.3-.2.4-.3.6-.5.4-.4.8-.9 1.3-1.3.5-.5 1.7-.3 2.2.2.3.3.5.7.6 1.2.1.5.4 1 .3 1.4zM88.1 6.7c.2-.8.6-1.5 1.5-1.8.4-.1.5-.4 1.1 0 .6.4 1.2.8 1.6 1.3.2.3.5.7.5 1 0 .4-.1.8-.3 1.2-.4.5-.8 1.1-1.4 1.4-.3.2-.9.3-1.3.2-1-.2-1.8-1.4-1.8-2.5.1-.3.1-.6.1-.8zM73.7 3.3c.2-.5.5-1.1 1.2-1 .2 0 .5.1.6 0 .4-.2.6.1.7.3.4.9 1 1.7 1.2 2.7.1.3 0 .7-.2.8-.2.3-.7.3-1 .5-.3.2-.9 0-1.1.5-.1.1-.3.4-.4.3-.3-.1-.7-.1-.8-.3-.3-.8-.6-1.6-.8-2.3.3-.7.4-1.1.6-1.5zm4 20.9c-.1.2-.1.5-.2.6-.3.1-.6.3-.9.4-1 .4-1.9.9-2.9.1-.5-.4-1.1-.5-1.5-1.1-.3-.5-.7-1.4-.4-1.9.4-.6.9-1.2 1.5-1.7.3-.3.8-.3 1.2-.4.8-.1 1.7-.1 2.1.6.4.7 1 1.3 1.2 2.1.1.5.2.9-.1 1.3zm4.9-9.9c-.3.2-.6.3-.9.5-1.3.6-2.4-.1-2.9-1.3-.2-.4.2-.7.3-1.1 0-.7.5-1 1-1.2.5-.2 1.1-.2 1.7-.3 0 0 0-.1-.1-.3.3.1.5.2.7.3.5.2.9.6.9 1.1v.5c.3 1.1 0 1.3-.7 1.8zm5 21.3c-1 .4-1.9.9-3 .4-1.2-.6-2-1.2-1-2.6.2-.2.4-.4.7-.6.5-.4 1.1-.5 1.8-.4.3 0 .5.2.8.2l.1-.1c.2.7.4 1.5.6 2.3.1 0 .3.1.5.2-.2.3-.3.6-.5.6zm2.6-9.3c-.6-.1-1.2-.4-1.6-.9-.2-.3-.4-.6-.6-1-.7-1-.5-2 .2-3 .3-.3.7-.5.9-.8.5-.8 1.5-.8 2.3-1.2.6.3 1.4.5 1.9 1 .6.6 1.1 1.4 1.5 2.2.6 1.1.3 2.2-.7 2.9-1.1.9-2.5 1-3.9.8zm6.2 10.3c-.5.2-1.1.4-1.6.6v-.1c-.7.2-1-.2-1.1-.8-.1-.3-.1-.7.1-.8.4-.4.8-.6 1.3-.9.1-.1.3-.1.4 0 .4.1 1.2 1.2 1.2 1.7-.1.1-.2.3-.3.3zm1.5-18.8c-.3.3-.7.5-1.1.7-.5.3-1.2.4-1.4 1.1-.1.3-.5.3-.6 0-.3-.9-.6-1.7-.9-2.6h.1c-.1-.7.3-1.3.8-1.8.3-.3 1-.3 1.5-.4.2 0 .4.3.5.5.1.1.1.3.2.4.3.4.7.7 1 1.1.3.3.2.7-.1 1z"/><path class="st1" d="M94.9 22.6c-.4-.8-.9-1.6-1.5-2.2-.5-.5-1.3-.7-1.9-1-.9.4-1.8.4-2.3 1.2-.2.3-.6.5-.9.8-.8.9-.9 1.9-.2 3 .2.3.4.7.6 1 .4.6 1 .8 1.6.9 1.4.2 2.8.2 4-.8 1-.8 1.3-1.8.6-2.9zm-18.3-1.7c-.4-.8-1.3-.7-2.1-.6-.4 0-.9.1-1.2.4-.6.5-1 1.1-1.5 1.7-.3.4.1 1.4.4 1.9.4.6 1 .7 1.5 1.1 1.1.8 2 .3 2.9-.1.3-.1.5-.2.9-.4 0-.1 0-.4.2-.6.3-.4.1-.8.1-1.2-.2-.9-.8-1.5-1.2-2.2zm-8.7-6.1c-.5-.5-1.6-.6-2.2-.2-.5.4-.9.9-1.3 1.3-.2.2-.3.3-.6.5-.1.8.3 1.6 1 2.1s1.7.5 2.6.2c.3-.1.7-.2.9-.4.2-.2.4-.6.5-.9.1-.5-.1-.9-.2-1.4-.2-.5-.4-.8-.7-1.2zM87 32.6l-.1.1c-.3-.1-.5-.2-.8-.2-.6 0-1.2 0-1.8.4-.2.2-.5.4-.7.6-1 1.4-.2 2 1 2.6 1.1.5 2-.1 3-.4.2-.1.3-.3.5-.6-.3-.1-.5-.1-.5-.2-.2-.8-.4-1.6-.6-2.3zm-2.6 11.8c-.3-.5-.3-1.2-.9-1.5-.2-.1-.4-.3-.7-.4-.2 0-.4.1-.6.1.6.9 1.2 1.8 1.8 2.8.5-.2.7-.5.4-1zm-7.3-9.5c-.2-.1-.4-.3-.6-.3-.3 0-.4-.2-.5-.4-.1-.7-.8-1-1.3-1.3h-.2l2.1 2.4c.1 0 .1-.1.2-.1.1-.1.2-.1.3-.3zm22.9-7v-2.8c-.2.4-.3.8-.4 1.3.1.5.2 1 .4 1.5zm-4.6 6.7H95c-.4.3-.9.6-1.3.9-.2.2-.2.6-.1.8.2.5.4 1 1.1.8v.1c.5-.2 1.1-.4 1.6-.6.1-.1.2-.3.2-.4.1-.4-.7-1.5-1.1-1.6zM89.8 10c.4.1 1 .1 1.3-.2.5-.4 1-.9 1.4-1.4.2-.3.4-.8.3-1.2 0-.4-.3-.7-.5-1-.5-.5-1-.9-1.6-1.3-.5-.4-.7-.1-1.1 0-.9.3-1.3.9-1.5 1.8-.1.2-.1.5-.1.8.1 1 .9 2.2 1.8 2.5zm-15-2.6c.1 0 .3-.2.4-.3.2-.5.8-.2 1.1-.5.3-.2.7-.3 1-.5.2-.2.2-.6.2-.8-.2-1-.8-1.8-1.2-2.7-.1-.2-.3-.5-.7-.3-.2.1-.4 0-.6 0-.7-.1-1 .5-1.2 1-.2.4-.2.8-.4 1.4.2.7.5 1.5.8 2.3 0 .2.4.3.6.4zM97 15.6c-.1-.1-.1-.3-.2-.4-.2-.2-.4-.5-.5-.5-.5 0-1.1.1-1.5.4-.5.4-.9 1-.8 1.8h-.1c.3.9.6 1.7.9 2.6.1.3.5.3.6 0 .3-.7.9-.8 1.4-1.1.4-.2.8-.4 1.1-.7.3-.3.4-.7.1-1-.3-.4-.7-.7-1-1.1z"/><path class="st2" d="M45.7.5l-.2-.2c-.1-.1-.1-.2-.2-.3v-.1h-3.2c-.3.2-.4.7-.5 1.1-.4 1.5.3 2.3 1.7 2.6 1.4.3 2.4-.1 3.4-1 .3-.3.6-.5.9-.8-.5-.6-.9-1.3-1.9-1.3zm8.4 13.6c.1-.2-.4-1-.7-1h-.6c-.2.2-.4.2-.7 0-.8-.3-1.1-.4-1.6.1 1.2.7 2.4 1.5 3.6 2.2 0-.3-.1-.6-.1-.9 0-.1 0-.3.1-.4zM10 0c.2 0 .4 0 .7.1 0 0 .1 0 .1-.1H10zm13.5 2c-.4-.1-.7-.2-1.1-.3-.3-.1-.4 0-.6.2.6.1 1.2.3 1.8.4v-.2l-.1-.1zm12.4 0c-.1-.1-.5 0-.6.1-.4.5-.8.9-1.3 1.3-.2.1-.2.5-.3.9l.5.5c.8.7 1.5.7 2.2-.1.3-.3.7-.6.6-1.1v-.2c-.3-.5-.6-1.1-1.1-1.4zm63.8 44.6c-.1-.5-.7-.8-1.3-.7h-.8c.2.2.4.4 0 .5-.4.2-.9.4-1.2.7-.2.2-.3.5-.3.8 0 .4.1.9.2 1.3 0 .2-.1.5 0 .5.5.4 1 .8 1.5 1 .7.2 1.3-.1 1.9-.7l.3-.3v-2.1c0-.1 0-.1-.1-.2-.1-.2-.1-.5-.2-.8zM57.2 4.8c0-.5-.4-1-.9-1.1-.2-.1-.4-.2-.7-.3 0 .2.1.3.1.3-.6.1-1.2.1-1.7.3-.5.2-1 .5-1 1.2 0 .4-.4.7-.3 1.1.5 1.3 1.6 1.9 2.9 1.3.3-.1.7-.3.9-.5.7-.5 1-.8.8-1.7-.1-.2-.1-.4-.1-.6zm26.2 7.8v-.5c0-.5-.4-1-.9-1.1-.2-.1-.4-.2-.7-.3 0 .2.1.3.1.3-.7 0-1.3 0-1.9.2-.5.2-1 .5-1 1.2 0 .4-.4.7-.3 1.1.5 1.3 1.6 1.9 2.9 1.3.3-.1.7-.3.9-.5.8-.5 1.1-.7.9-1.7zm-17.6-2.5c.3-.9 1.3-.8 2-1.5-.5-.2-.6-.9-1.3-.8 0 0-.2-.2-.1-.3.1-.3.1-.4-.2-.6-.2-.2-.3-.5-.5-.7-.3-.3-.6-.5-.9-.8-.7.5-1.3.9-1.9 1.4-.3.2-.5.5-.4 1 .1.2 0 .4.1.6.3 1.2 1.3 1.5 2.2 1.8.2 0 .6-.1 1-.1zm34 54.6c-.4.3-.2.7-.1.8l.3.3V64c0 .1 0 .1-.1.2 0 .2 0 .4-.1.5zm-5.5-2.6h.4c.2-.9-.3-1.4-1-1.8-.1 0-.2-.1-.2-.1-.4.3-.9.3-1.3.5.3.7.6 1.3.8 2h.2c.3-.2.7-.4 1.1-.6z"/></svg>