<svg xmlns="http://www.w3.org/2000/svg" xmlns:xlink="http://www.w3.org/1999/xlink" width="99.979" height="168.224" viewBox="0.011 0 99.979 168.224"><path fill="#EDC9C9" d="M84.13 84.118c0 46.457-37.662 84.105-84.119 84.105V0C46.468 0 84.13 37.663 84.13 84.118"/><defs><path id="a" d="M84.13 84.118c0 46.457-37.662 84.105-84.119 84.105V0C46.468 0 84.13 37.663 84.13 84.118"/></defs><clipPath id="b"><use xlink:href="#a" overflow="visible"/></clipPath><g clip-path="url(#b)"><defs><path id="c" d="M.026-15.641h99.979v199.505H.026z"/></defs><clipPath id="d"><use xlink:href="#c" overflow="visible"/></clipPath><path clip-path="url(#d)" fill-rule="evenodd" clip-rule="evenodd" fill="#1D1D1B" d="M96.657 2.931c-.437.869-.472 1.793-1.304 2.314-.334.211-.493.605-.832.865-.965.74-1.965.852-2.973.172-.314-.211-.643-.398-.951-.617-.547-.385-.807-.988-.889-1.592-.199-1.423-.107-2.807.855-4.015.799-1 1.852-1.278 2.949-.609.766.467 1.578.924 2.18 1.565.477.508.662 1.287.965 1.917M97.915-9.276c-1.258.292-1.924-.569-2.66-1.302-.043-.044-.084-.12-.08-.18.014-1.042-.227-2.113.211-3.112.211-.479.5-.959.869-1.322.332-.327.842-.359 1.336-.416.527-.062.99-.056 1.408.252.785.575 1.588 1.13 2.314 1.771.365.325.76.767.316 1.37-.098.132.045.435-.045.582a3.41 3.41 0 01-.717.846c-.453.375-.994.596-1.406 1.087-.307.362-1.01.389-1.535.566a6.782 6.782 0 00-.011-.142M90.927 16.751c.1-.024.369-.023.566-.141.404-.247.752-.121 1.174-.024.832.193 1.408.79 2.088 1.206.758.466.676 1.345.6 2.114-.041.408-.145.897-.406 1.178a9.331 9.331 0 01-1.742 1.418c-.438.279-1.406-.148-1.854-.449-.58-.391-.686-1.015-1.031-1.51-.764-1.094-.221-1.989.199-2.94.117-.265.246-.522.406-.852M88.067-23.067c.027-1.106.824-2.33 1.801-2.544.416-.09.984-.053 1.314.172.535.366.986.897 1.371 1.433.221.31.352.777.311 1.153-.035.362-.287.743-.537 1.04-.453.538-1.033.919-1.617 1.324-.512.354-.688.099-1.055-.03-.865-.305-1.283-.946-1.482-1.778-.063-.251-.074-.514-.106-.77M98.886 30.669a2.163 2.163 0 01-2.072-1.012c-.471-.757-.506-1.698-.107-2.578.131-.293.172-.667.381-.876.238-.237.602-.401.936-.474.48-.103.93.144 1.391.246.51.114.85.339 1.182.676.492.503.6 1.654.137 2.187-.398.456-.887.832-1.326 1.253-.163.152-.3.327-.522.578M83.337-9.416c-.271-.079-.584-.102-.82-.254-.84-.545-1.699-1.129-1.789-2.239-.053-.667.104-1.349.584-1.875.252-.279.461-.676.902-.68.275-.002.555.14.836.159.99.07 1.506.705 1.838 1.537.064.166-.064.398-.061.599.008.428.105.863.049 1.28-.037.26-.256.52-.449.728-.23.246-.516.442-.787.644-.077.056-.186.064-.303.101M73.304-20.376c.242-.724.477-1.545.809-2.323.084-.191.482-.284.75-.338.096-.021.279.192.352.335.25.473.783.225 1.129.472.301.216.729.279.979.532.168.171.213.576.154.842-.217.975-.807 1.794-1.242 2.676-.078.164-.322.505-.711.258-.152-.097-.414-.037-.625-.019-.736.062-.973-.496-1.197-1.005-.178-.401-.242-.852-.398-1.43M84.312 32.678c-.066.78-.885 2.012-1.545 2.334-.84.411-1.428.265-1.865-.59-.225-.432-.58-.848-.631-1.3-.129-1.123.129-2.193.979-3.014.123-.121.523-.126.678-.016.668.468 1.486.773 1.902 1.547.179.335.321.693.482 1.039M93.862-32.611c.297-.86.574-1.728.9-2.578.115-.304.529-.32.646-.011.258.684.91.751 1.418 1.056.381.228.793.431 1.107.733.285.274.393.68.082 1.043-.316.371-.662.715-.984 1.083-.096.109-.123.278-.219.387-.158.183-.361.497-.518.482-.504-.049-1.117-.083-1.461-.381-.482-.421-.879-1.023-.828-1.762-.047-.019-.094-.034-.143-.052M81.036 6.524l2.283.658-.098.115c.074.274.203.543.215.819.018.621-.033 1.245-.457 1.752-.195.234-.398.481-.645.65-1.396.946-2.027.169-2.564-1.073-.461-1.064.105-2.013.496-2.955.078-.19.355-.3.613-.502.081.269.132.456.157.536M73.3 11.051c-.037.819-.629 1.251-1.029 1.758-.26.332-.67.567-1.047.776-.152.084-.467.062-.609-.043-.773-.577-1.082-1.862-.693-2.76.154-.348.326-.687.504-1.021.225-.421.51-.568.994-.324.531.266 1.205.283 1.5.935.104.236.251.453.38.679M80.716 16.96c.123.232.283.404.285.577.01.312.148.412.422.478.682.162.938.775 1.227 1.303.107.188.023.568-.105.782-.389.643-.723 1.439-1.596 1.487-.324.018-.75-.315-.996-.601-.629-.738-.582-1.611-.234-2.455.186-.456.49-.867.746-1.295.046-.078.122-.138.251-.276M71.733 17.426c.354.362.629.715 1.203.604.334-.065.953.779.898 1.14-.088.593-.262 1.136-.75 1.563-.377.332-.764.323-1.09.086-.861-.62-1.221-1.641-.871-2.628.099-.278.386-.493.61-.765M78.8-.77c.225-.525.434-1.059.688-1.57.051-.105.264-.188.398-.188.443-.003 1.514.832 1.627 1.259.035.119.023.291-.045.387-.295.43-.574.889-.953 1.236-.164.154-.584.154-.836.068-.508-.175-.971-.457-.73-1.169L78.8-.77M91.554 164.528c-.879-.42-1.805-.43-2.346-1.25-.219-.334-.613-.48-.881-.812-.766-.949-.9-1.947-.24-2.969.203-.318.381-.652.594-.965.369-.557.969-.83 1.568-.928 1.42-.229 2.807-.168 4.033.766 1.02.773 1.32 1.824.676 2.936-.447.773-.887 1.598-1.512 2.213-.498.488-1.271.693-1.892 1.009M77.604 159.114c.025.104.031.369.154.562.256.402.137.752.051 1.176-.174.838-.76 1.428-1.16 2.113-.445.771-1.326.709-2.1.65-.406-.031-.898-.127-1.184-.381a8.98 8.98 0 01-1.459-1.709c-.289-.428.113-1.408.406-1.861.377-.588.998-.709 1.486-1.068 1.078-.787 1.984-.268 2.943.135.268.112.53.235.863.383M63.872 167.394a2.164 2.164 0 01.965-2.096c.746-.486 1.686-.543 2.574-.166.297.125.668.158.887.363.242.229.414.59.494.924.113.477-.123.93-.217 1.393-.104.514-.316.859-.646 1.199-.492.502-1.643.639-2.184.188-.463-.391-.852-.869-1.283-1.303-.156-.153-.332-.286-.59-.502M66.341 157.528c-.779-.047-2.029-.838-2.367-1.488-.432-.83-.299-1.424.547-1.879.424-.232.834-.598 1.285-.658 1.117-.158 2.195.076 3.035.904.121.121.137.521.031.68-.453.676-.738 1.504-1.504 1.938-.33.187-.685.335-1.027.503M63.856 149.585c-.781-.047-2.029-.838-2.367-1.49-.434-.83-.297-1.42.547-1.879.424-.232.834-.598 1.285-.658 1.117-.156 2.195.076 3.035.906.121.121.137.52.033.678-.455.68-.74 1.504-1.506 1.938-.329.187-.685.335-1.027.505M65.153 135.886c-.783-.047-2.029-.838-2.369-1.49-.43-.83-.299-1.422.547-1.879.426-.234.836-.598 1.287-.658 1.117-.156 2.195.076 3.035.904.121.123.139.521.031.68-.451.68-.742 1.504-1.504 1.939-.327.185-.685.336-1.027.504M87.603 148.993c-.217.814-.412 1.557-.607 2.297-.037-.033-.078-.062-.117-.096-.271.082-.539.217-.812.234-.623.037-1.248-.002-1.764-.418-.238-.189-.49-.385-.664-.629-.979-1.373-.215-2.021 1.014-2.588 1.055-.486 2.016.061 2.967.43.193.074.305.348.516.602l-.533.168M82.897 141.362c-.82-.02-1.266-.6-1.781-.988-.336-.252-.58-.652-.799-1.027-.09-.152-.072-.465.027-.609.559-.789 1.836-1.127 2.744-.758.352.143.693.311 1.033.48.426.215.58.494.348.986-.256.539-.256 1.209-.902 1.52-.234.111-.445.263-.67.396M77.159 148.913c-.227.127-.395.291-.57.301-.309.014-.406.156-.465.428-.148.688-.756.959-1.275 1.264-.188.105-.568.031-.785-.094-.652-.373-1.453-.689-1.523-1.561-.025-.324.297-.756.58-1.008.723-.646 1.596-.619 2.445-.295.463.18.881.473 1.316.719.076.045.139.121.277.246M99.577 157.44c.217-.734.42-1.564.723-2.354.078-.193.471-.303.738-.363.092-.023.285.18.363.32.268.465.789.195 1.143.432.311.201.742.248 1 .494.174.164.234.568.186.836-.18.982-.738 1.822-1.145 2.719-.07.168-.301.516-.699.283-.156-.09-.416-.021-.625.004-.732.09-.99-.459-1.232-.957-.194-.394-.276-.841-.452-1.414M76.489 139.942c-.355.363-.701.648-.576 1.217.072.332-.758.973-1.121.926-.596-.076-1.141-.236-1.58-.713-.338-.369-.338-.758-.111-1.09.6-.875 1.615-1.256 2.609-.93.279.092.5.372.779.59M86.946 68.846c-.082.094-.229.186-.232.285-.014.199.086.406.074.606-.027.451-.627 1.055-1.033 1.248-.883.415-1.607.03-2.338-.372-.102-.055-.146-.201-.232-.291-.441-.47-.879-.952-1.342-1.399-.293-.28-.385-.569-.209-.933.35-.705.766-1.334 1.607-1.539.859-.21 1.711-.459 2.58-.656.355-.078.506.16.445.492-.09.498.074.867.379 1.272.27.36.354.863.52 1.302l-.219-.015M93.702 38.052c-.082.093-.227.186-.232.286-.014.199.088.405.074.605-.029.451-.627 1.056-1.033 1.248-.881.416-1.607.031-2.338-.371-.102-.054-.146-.202-.232-.291-.441-.471-.875-.953-1.342-1.4-.293-.28-.387-.569-.207-.931.348-.707.766-1.335 1.605-1.542.861-.209 1.713-.458 2.58-.654.355-.081.508.158.447.491-.094.499.074.867.379 1.273.27.361.354.863.52 1.3l-.221-.014M68.649 62.634c.07.351.191.718.205 1.092.018.551.287 1.186-.365 1.581-.146.092-.326.135-.5.18-.393.104-.824-.098-1.223.211-.121.092-.496-.162-.762-.24-.312-.092-.643-.143-.953-.247-.646-.213-1.17-1.526-.879-2.134.148-.31.234-.654.412-.949.529-.889 1.357-1.32 2.365-1.4a10.94 10.94 0 011.504-.004c.58.035.666.314.824.967.154.62-.118.776-.628.943M65.083 70.273c.605-.345 1.213-.501 1.881-.136.309.164.658.246.98.381.07.029.166.137.154.191-.135.699.189 1.312.34 1.961.119.516-.158.795-.703 1.015-.236.093-.637.024-.686.436-.402-.062-.807-.12-1.209-.185-.242-.04-.482-.11-.727-.132-.309-.027-.65.102-.775-.384-.057-.211-.34-.355-.5-.549-.09-.111-.225-.291-.189-.385.307-.845.483-1.785 1.434-2.213M98.329 53.69c-.08-.444-.172-.933-.258-1.423-.09-.537.377-1.497.893-1.767a22.855 22.855 0 011.557-.721c.389-.164.994.074 1.086.465.143.626.207 1.271.305 1.909.023.151.035.306.072.454.168.662-.135 1.17-.785 1.376-.805.254-1.584.408-2.334-.163-.11-.085-.294-.074-.536-.13M84.378 51.613c.15.498.312.994.457 1.494.16.553-.418 1.683-.98 1.959-.295.146-.57.22-.908.081-.434-.178-.916-.232-1.34-.423-.609-.271-.848-.878-.936-1.462-.084-.534.766-1.497 1.352-1.617.635-.13 1.283-.455 1.932.003.087.062.278-.021.423-.035M94.626 62.082c-.006.001-.049.04-.098.044-1.02.088-2.023.121-3-.291-.359-.152-.492-.369-.379-.702.166-.493-.107-1.146.471-1.483.498-.288 1.01-.561 1.547-.763.291-.109.557-.489.963-.152.236.201.609.248.828.46.172.171.555.329.295.759-.088.145.023.532.174.673.381.36.123.646-.068.89-.172.226-.46.36-.733.565M88.442 46.344c.883-.514 1.762-.531 2.613.059.1.069.139.281.141.426.002.348-.098.708-.039 1.041.096.557-.236.903-.537 1.241-.371.419-1.455.525-1.959.255a4.5 4.5 0 01-.531-.315c-.287-.211-.818-.484-.791-.655.123-.748.068-1.65 1.014-2.001.029-.015.06-.034.089-.051M76.769 41.27c.412-.196.77-.388 1.146-.538.553-.223 1.316.275 1.398.875.029.233.062.482.17.681.387.708-.207 1.093-.518 1.54-.111.159-.469.148-.717.205-.064.017-.148-.014-.205.013-.801.406-1.273-.351-1.893-.564-.141-.049-.281-.587-.18-.763.277-.491.179-1.211.799-1.449M56.21 65.083c.414-.197.77-.389 1.148-.539.551-.223 1.314.275 1.396.876.029.231.062.48.17.681.387.707-.205 1.093-.518 1.539-.111.158-.467.147-.715.205-.066.018-.15-.016-.207.014-.801.404-1.271-.354-1.893-.566-.139-.05-.279-.586-.178-.764.275-.489.18-1.208.797-1.446M49.583 100.569c.414-.195.773-.387 1.148-.539.553-.223 1.316.277 1.398.877.031.23.062.48.17.68.387.709-.207 1.092-.52 1.539-.109.158-.469.148-.715.205-.064.018-.148-.014-.205.014-.799.404-1.271-.354-1.893-.566-.143-.049-.281-.586-.182-.76.279-.493.182-1.209.799-1.45M62.31 112.679c.412-.195.77-.387 1.146-.539.551-.223 1.316.277 1.398.877.029.23.062.48.168.68.387.709-.205 1.094-.518 1.539-.111.16-.469.148-.715.205-.066.018-.148-.014-.205.016-.801.402-1.273-.354-1.893-.566-.143-.049-.281-.586-.182-.764.279-.489.183-1.208.801-1.448M74.765 62.832c.004-.024.008-.089.018-.155.061-.446-.037-1.075.219-1.297.43-.371 1.07-.529 1.643-.691.758-.211 1.398.275 1.709.787.25.417.072 1.129-.008 1.697-.055.395-.412.572-.809.59-.121.004-.246-.038-.367-.068-.076-.019-.156-.092-.221-.076-.312.076-1.328-.148-1.613-.369-.175-.136-.357-.263-.571-.418M79.304 85.993c-.057.131-.111.266-.17.4l.049-.252c-.23.006-.463.029-.695.01-.572-.055-1.365-.799-1.301-1.332.037-.309.295-.688.562-.854.604-.363 1.182-.852 1.979-.744.293.039.445.098.5.449.076.451.287.879.447 1.311.299.787.176 1.006-.656 1.072-.221.016-.446-.034-.715-.06M97.376 70.848c-.074-.231-.18-.455-.209-.686-.074-.623.416-1.217 1.115-1.342.428-.079.871-.101 1.303-.168.119-.02.227-.115.346-.18.602.682.416 1.391.053 2.102-.037.076-.113.201-.152.194-.672-.118-1.293.55-1.986.11-.126-.075-.329-.024-.47-.03M94.843 146.591c.529.211 1.068.412 1.584.65.109.053.193.26.197.396.016.439-.795 1.529-1.219 1.654-.119.035-.291.029-.389-.037-.438-.285-.902-.553-1.26-.924-.156-.162-.164-.582-.084-.834.158-.512.434-.982 1.146-.76l.025-.145M96.657 202.438c-.438.867-.473 1.793-1.305 2.312-.334.213-.492.607-.832.867-.965.74-1.965.852-2.973.17-.314-.211-.643-.398-.951-.613-.547-.387-.807-.99-.889-1.594-.199-1.424-.107-2.807.855-4.016.799-.998 1.852-1.275 2.949-.607.766.465 1.578.922 2.18 1.564.478.505.663 1.287.966 1.917M97.915 190.231c-1.258.291-1.924-.57-2.66-1.303-.043-.043-.084-.119-.08-.178.014-1.045-.227-2.115.211-3.115.211-.477.5-.957.869-1.318.332-.33.842-.361 1.336-.418.527-.061.99-.057 1.408.252.785.578 1.588 1.131 2.314 1.773.365.324.76.768.316 1.369-.098.133.045.434-.045.582a3.4 3.4 0 01-.717.844c-.453.377-.994.596-1.406 1.088-.307.363-1.01.391-1.535.568a6.478 6.478 0 00-.011-.144M90.927 216.257c.1-.025.369-.021.566-.141.404-.246.752-.119 1.174-.023.832.193 1.408.789 2.088 1.205.758.467.676 1.346.6 2.115-.041.408-.145.896-.406 1.178a9.214 9.214 0 01-1.742 1.418c-.438.281-1.406-.148-1.854-.449-.58-.391-.686-1.016-1.031-1.51-.764-1.094-.221-1.99.199-2.943.117-.262.246-.52.406-.85M88.067 176.438c.027-1.104.824-2.328 1.801-2.543.416-.092.984-.055 1.314.172.535.365.986.896 1.371 1.434.221.309.352.777.311 1.152-.035.361-.287.744-.537 1.039-.453.537-1.033.92-1.617 1.324-.512.354-.688.1-1.055-.031-.865-.305-1.283-.945-1.482-1.777-.063-.25-.074-.512-.106-.77M98.886 230.179a2.166 2.166 0 01-2.072-1.016c-.471-.756-.506-1.697-.107-2.576.131-.293.172-.666.381-.877.238-.238.602-.402.936-.475.48-.102.93.146 1.391.248.51.113.85.338 1.182.676.492.502.6 1.654.137 2.186-.398.455-.887.832-1.326 1.254-.163.15-.3.328-.522.58M83.337 190.093c-.271-.08-.584-.104-.82-.254-.84-.549-1.699-1.133-1.789-2.24-.053-.666.104-1.35.584-1.877.252-.279.461-.678.902-.68.275-.002.555.141.836.16.99.068 1.506.703 1.838 1.535.064.168-.064.398-.061.602.008.428.105.863.049 1.277-.037.26-.256.521-.449.729-.23.248-.516.441-.787.648-.077.055-.186.059-.303.1M73.304 179.13c.242-.723.477-1.545.809-2.322.084-.191.482-.283.75-.338.096-.021.279.193.352.334.25.475.783.225 1.129.473.301.215.729.277.979.531.168.172.213.578.154.842-.217.977-.807 1.797-1.242 2.676-.078.162-.322.506-.711.258-.152-.098-.414-.037-.625-.02-.736.061-.973-.494-1.197-1.004-.178-.401-.242-.85-.398-1.43M84.312 232.185c-.066.781-.885 2.012-1.545 2.334-.84.41-1.428.266-1.865-.59-.225-.43-.58-.848-.631-1.299-.129-1.125.129-2.193.979-3.016.123-.121.523-.125.678-.016.668.467 1.486.771 1.902 1.549.179.332.321.69.482 1.038M93.862 166.896c.297-.861.574-1.727.9-2.578.115-.303.529-.32.646-.01.258.682.91.752 1.418 1.057.381.229.793.43 1.107.732.285.273.393.678.082 1.043-.316.371-.662.715-.984 1.082-.096.109-.123.275-.219.387-.158.182-.361.496-.518.482-.504-.049-1.117-.084-1.461-.383-.482-.42-.879-1.021-.828-1.762-.047-.017-.094-.035-.143-.05M81.036 206.03c.811.232 1.547.445 2.283.658l-.098.113c.074.275.203.545.215.82.018.621-.033 1.244-.457 1.754-.195.234-.398.48-.645.648-1.396.947-2.027.17-2.564-1.072-.461-1.064.105-2.014.496-2.955.078-.191.355-.297.613-.502.081.269.132.456.157.536M73.3 210.558c-.037.818-.629 1.25-1.029 1.76-.26.33-.67.564-1.047.775-.152.084-.467.061-.609-.045-.773-.578-1.082-1.859-.693-2.76.154-.348.326-.686.504-1.021.225-.42.51-.566.994-.322.531.266 1.205.281 1.5.936.104.235.251.45.38.677M80.716 216.468c.123.232.283.402.285.574.01.312.148.414.422.48.682.162.938.775 1.227 1.301.107.189.023.57-.105.783-.389.645-.723 1.439-1.596 1.488-.324.016-.75-.316-.996-.602-.629-.738-.582-1.611-.234-2.457.186-.457.49-.865.746-1.295.046-.075.122-.136.251-.272M71.733 216.931c.354.363.629.717 1.203.607.334-.068.953.779.898 1.139-.088.594-.262 1.137-.75 1.564-.377.33-.764.32-1.09.086-.861-.619-1.221-1.641-.871-2.629.099-.279.386-.494.61-.767M78.8 198.737c.225-.527.434-1.059.688-1.572.051-.104.264-.188.398-.188.443-.004 1.514.834 1.627 1.258.035.121.023.295-.045.389-.295.43-.574.887-.953 1.236-.164.154-.584.154-.836.068-.508-.174-.971-.457-.73-1.168-.05-.009-.1-.017-.149-.023M-102.847 2.931c-.441.869-.473 1.793-1.307 2.314-.336.211-.492.604-.832.865-.967.74-1.965.852-2.973.172-.314-.211-.643-.398-.951-.617-.547-.385-.805-.988-.889-1.592-.199-1.423-.107-2.807.855-4.015.799-1 1.854-1.278 2.947-.609.768.467 1.582.924 2.182 1.565.478.508.664 1.287.968 1.917M-33.497-11.4c1.025-.154 1.885.307 2.355 1.426.041.1-.082.271-.158.497.145-.013.332-.001.498-.055 1.039-.338 1.975.037 2.867.474.52.256.643 1.26.385 1.959-.371 1.008-1.129 1.564-2.113 1.86-.619.186-1.236.373-1.867.508-.818.174-1.668.259-2.4-.25-.598-.417-1.291-.878-1.398-1.629-.213-1.469-.139-2.931.891-4.154.102-.121.279-.173.42-.265s.274-.193.52-.371M-51.046-27.197l-.461.215c.379.266.719.486 1.041.735.682.534.973 1.649.639 2.458-.375.902-.961 1.712-1.799 2.143-.77.397-1.699.606-2.572.662-1.145.071-2.736-1.333-2.93-2.47a2.978 2.978 0 01.104-1.361c.225-.722.533-1.421.861-2.103.143-.293 1.721-.77 2.012-.832.855-.184 1.52.429 2.311.471.216.013.431.044.794.082m-.871 1.732l.035-.141c-.885-.653-1.627-.631-2.203.065-.514.622-.58 1.336-.199 1.677.127-.366.314-.74.375-1.134.033-.226-.072-.451.236-.54.244-.068.49-.216.725-.198.349.031.689.175 1.031.271M-44.976 10.515c-.93.036-1.574-.323-2.197-1.073-.572-.69-.543-1.357-.512-2.099.033-.883.076-1.8.83-2.396.328-.261.824-.33 1.258-.431.27-.062.58.038.844-.037.422-.119.807-.205 1.268-.119.574.109 2.029.555 2.287.969.256.41.369.915.518 1.387.352 1.133-.287 1.9-1.01 2.615-.911.896-2.063 1.147-3.286 1.184M-37.757-21.534c.488.101 1.072.081 1.479.34.494.318 1.043.81 1.203 1.335.182.606-.002 1.336-.09 2.004-.105.79-.541 1.439-1.027 2.049-.418.526-.957.602-1.584.436-.299-.079-.654-.163-.926-.07-.902.306-1.471-.245-2.08-.711-.545-.417-.658-.952-.672-1.651-.025-1.514.641-2.694 1.51-3.806.285-.367.703-.646 1.086-.923.43-.31.607.146.816.362.152.16.197.423.285.635M-91.472-1.405c.051-1.362.355-2.533 1.387-3.306.648-.487 1.453-.702 2.287-.373.049.021.098.062.143.065 1.609.105 2.373 1.236 2.957 2.518.16.35.113.824.066 1.231-.053.474-.209.912-.73 1.146-.186.083-.26.394-.404.588-.08.103-.18.219-.291.262-.736.277-1.465.577-2.219.792-1.26.36-2.936-.845-3.082-2.165-.03-.291-.086-.579-.114-.758m4.643-2.128c.506.647.627 1.285.264 1.701-.293.337-.598.665-.885 1.007-.062.077-.07.199-.123.365.654-.104.953-.537 1.334-.904.693-.663.566-1.147-.129-1.87-.123-.129-.303-.202-.461-.299M-101.591-9.276c-1.258.292-1.926-.569-2.658-1.302a.294.294 0 01-.082-.18c.014-1.042-.227-2.113.213-3.112.209-.479.498-.959.865-1.322.336-.327.844-.359 1.338-.416.529-.062.986-.056 1.408.252.785.575 1.588 1.13 2.314 1.771.365.325.762.767.316 1.37-.098.132.047.435-.047.582a3.32 3.32 0 01-.715.846c-.453.375-.992.596-1.408 1.087-.305.362-1.008.389-1.533.566a2.261 2.261 0 01-.011-.142M-72.661-27.813c.344-.258.703-.361 1.254-.117.48.209.934.338 1.268.785.611.829.756 1.683.266 2.615-.186.357-.297.802-.58 1.047s-.738.283-1.115.421c-.199.072-.445.12-.574.263-.582.649-1.359.821-2.125.406-.271-.146-.551-.294-.791-.485-.68-.541-.791-1.332-.633-2.08.184-.871.574-1.698.865-2.548.189-.549.662-.792 1.146-.816.308-.015.63.303 1.019.509m-.918 1.023c.268-.187.516-.358.76-.531-.582-.174-.784.018-.76.531M-48.657-3.097c.66.778-.15.982-.443 1.39-.289.405-.547.838-.873 1.211-.182.203-.471.306-.719.445-.072.041-.209.021-.236.074-.346.607-.986.315-1.473.473-.184.059-.492-.089-.67-.234-.748-.606-1.154-1.366-1.26-2.367-.092-.895-.029-1.723.363-2.505.219-.439.557-.824.875-1.203.141-.168 1.242.165 1.436.358.178.172.389.384.609.416 1.031.153 1.678.857 2.348 1.54.102.103.141.261.209.393a4.491 4.491 0 00-.166.009M-108.581 16.751c.104-.024.371-.023.566-.141.408-.247.754-.121 1.176-.024.832.193 1.41.79 2.088 1.206.758.466.676 1.345.6 2.114-.039.408-.145.897-.406 1.178a9.28 9.28 0 01-1.744 1.418c-.434.279-1.404-.148-1.852-.449-.582-.391-.688-1.015-1.031-1.51-.762-1.094-.223-1.989.197-2.94.117-.265.248-.522.406-.852M-92.958-30.298c-.143.399-.596.631-.289 1.088.412-.234.773-.525 1.256-.502.459.022.918.056 1.445.09.223.528.557 1.086.684 1.686.107.502-.006 1.057-.061 1.586-.031.306-.135.606-.203.911-.008.018-.01.038-.023.047-.518.424-.982.968-1.572 1.226-.373.162-.973-.01-1.408-.186-.982-.396-1.834-1.004-1.797-2.21.039-1.306.227-2.586 1.145-3.641.3-.341.534-.287.823-.095M-92.657 12.517c-.381-.116-1.01-.19-1.502-.49-.373-.23-.752-.714-.82-1.135-.135-.799.117-1.604.477-2.34.143-.29.377-.534.57-.799.455-.624.838-.707 1.516-.378.338.163.719.234 1.049.403.281.145.535.349.764.568.221.214.391.485.596.72.602.687.402 1.388.023 2.076-.242.437-1.96 1.368-2.673 1.375M-10.952 43.826c.043.118.055.29.141.343.17.106.398.116.568.221.385.24.631 1.053.605 1.502-.053.975-.738 1.429-1.439 1.882-.094.061-.246.032-.363.064-.627.166-1.256.317-1.871.515-.389.123-.686.067-.918-.261-.457-.641-.812-1.311-.59-2.146.225-.856.412-1.727.652-2.581.098-.352.379-.37.641-.16.396.318.799.348 1.303.273.445-.067.926.1 1.389.163l-.118.185zM-30.87 14.184c.182.009.375-.015.543.038.156.048.344.142.422.273.283.465.494.854 1.217.702.576-.12 1.076.313 1.453.867a36.779 36.779 0 00-.283-.043c0 .037-.004.067.004.09.186.4.424.787.535 1.208.039.148-.188.444-.367.562-.674.442-1.344.923-2.078 1.227-.604.248-1.289.134-1.908-.15-.061-.029-.117-.098-.176-.097-.777.011-.969-.608-1.166-1.148-.203-.559-.186-1.142.152-1.677.055-.088.137-.179.143-.274.078-.692.605-.959 1.129-1.245.144-.08.255-.221.38-.333M-35.239 60.12c.34.104.721.173 1.055.338.494.247 1.182.312 1.219 1.074.012.173-.037.352-.08.524-.098.397-.479.679-.398 1.177.023.148-.379.357-.572.553-.23.234-.43.499-.67.725-.494.465-1.902.303-2.295-.244-.203-.279-.463-.52-.639-.812-.529-.889-.518-1.822-.105-2.749.203-.456.445-.899.711-1.321.307-.495.594-.437 1.24-.268.622.16.627.475.534 1.003M-56.161 17.146c.074.06.104.103.129.102.92-.039 1.355.626 1.82 1.246.066.092.141.236.113.332-.223.879-.324 1.831-1.125 2.433-.826.628-2.342.388-3.066-.425-.416-.468-.861-.881-.885-1.583-.029-.788.18-1.493.639-2.105a3.297 3.297 0 011.631-1.173c.371-.126.611-.044.789.208.172.243.406.549.006.831-.03.019-.032.084-.051.134M-2.878-23.173c.646.509 1.416.904 1.389 1.898-.004.05.107.112.174.152.104.063.215.111.318.17.854.48 1.037.935.723 1.86-.166.479-.291 1.005-.59 1.394-.215.281-.666.422-1.041.54-1.51.476-2.291-.21-2.678-1.604-.377-1.355.035-2.444.898-3.446.262-.305.518-.617.807-.964M-81.323 35.673c-.215.855-.711 1.702-1.607 2.29-.713.471-.904.399-1.611-.08-.686-.465-.982-1.133-1.277-1.835-.012-.033-.039-.065-.037-.097.037-.933-.051-1.89.471-2.731.084-.138.25-.282.398-.314.836-.184 1.662-.271 2.43.268.758.535 1.239 1.41 1.233 2.499M-31.987-27.182c-.289-.208-.645-.364-.861-.631-.873-1.079-.746-1.817-.113-3.082.254-.503.705-.999 1.197-1.26.42-.225 1.084-.271 1.529-.102.461.176.811.686 1.164 1.087.15.171.189.438.17.623-.09.29-.205.573-.264.869-.094.508-.1 1.037-.24 1.529-.08.274-.344.505-.559.728-.162.17-.369.296-.561.441.012.066.021.13.033.194l-1.586-.278c.03-.04.059-.08.091-.118M-111.44-23.067c.029-1.106.826-2.33 1.803-2.544.414-.09.984-.053 1.314.172.535.366.988.897 1.373 1.433.219.31.35.777.311 1.153-.037.362-.289.743-.537 1.04-.453.538-1.035.919-1.619 1.324-.512.354-.686.099-1.055-.03-.867-.305-1.281-.946-1.482-1.778-.064-.251-.075-.514-.108-.77M-14.253-27.928c-.236.165-.172.405-.02.719.408.825.459 1.111-.203 1.73-.385.356-.766.821-1.389.774-.225-.016-.445-.073-.662-.126-.295-.071-.586-.159-.881-.235-.787-.203-1.504-.504-1.77-1.369-.064-.21-.137-.488-.053-.658.336-.667.49-1.487 1.336-1.785.188-.065.338-.246.525-.299.529-.151 1.059.042 1.59.029.148-.004.307-.008.441-.064.248-.101 1.051.4 1.049.669 0 .181.021.362.037.615M-69.298 25.513c-.156-.124-.268-.29-.398-.309-.914-.123-1.008-.943-1.236-1.558-.107-.287-.482-.518-.277-.982.385-.855.697-1.718 1.471-2.342.67-.541.844-.555 1.641.101.742.612 1.297 1.313 1.5 2.249.051.233-.078.51-.148.759-.051.173-.172.325-.215.499-.117.466-.332.828-.783 1.065-.406.217-.768.506-1.279.342-.061-.019-.17.102-.276.176M-98.167 37.899c.137-.448.307-.952.451-1.458.047-.166.02-.351.059-.52.014-.067.125-.105.189-.165.098-.088.236-.165.277-.276.186-.493.516-.37.914-.33.307.033.584.283 1.01.03.234-.141.92.224 1.242.528.59.562.551 1.277.301 2.057-.305.963-1.01 1.573-1.66 2.247-.277.287-1.242.332-1.48.038-.41-.5-.775-1.036-1.135-1.572-.092-.133-.098-.324-.168-.579M-26.632 11.27c-.447-.167-1.029-.286-1.5-.584-.424-.271-.785-.696-1.07-1.123-.676-.998-.42-1.794.623-2.435.691-.422 1.381-.773 2.211-.72-.033.043-.068.085-.102.126.148.162.277.431.451.465 1.055.203 1.279 1.009 1.508 1.875.137.516-.008.872-.363 1.184-.396.349-.773.734-1.354.79-.123.014-.226.228-.404.422M-100.62 30.669a2.163 2.163 0 01-2.072-1.012c-.471-.757-.506-1.698-.109-2.578.133-.293.176-.667.385-.876.234-.237.602-.401.936-.474.479-.103.928.144 1.389.246.512.114.852.339 1.182.676.492.503.6 1.654.137 2.187-.398.456-.887.832-1.328 1.253-.163.152-.297.327-.52.578M-64.278-13.43c-.105.006-.297-.021-.465.03-.559.17-1.215-.106-1.496-.615-.543-.993-.518-2-.311-3.094.15-.789.654-1.019 1.234-1.276.047-.021.121.034.188.045.49.082.984.162 1.479.243.564.091.781.601.943 1.103.27.825-.064 1.38-.412 2.05-.188.355-.125.875-.482 1.183-.169.144-.413.206-.678.331M-116.173-9.416c-.268-.079-.582-.102-.816-.254-.838-.545-1.699-1.129-1.789-2.239-.053-.667.104-1.349.582-1.875.254-.279.463-.676.904-.68.279-.002.553.14.836.159.99.07 1.506.705 1.838 1.537.064.166-.064.398-.061.599.008.428.107.863.049 1.28-.035.26-.256.52-.449.728-.229.246-.518.442-.787.644-.074.056-.186.064-.307.101M.89 31.866c-.258-.207-.387-.351-.523.058a3.884 3.884 0 01-.682 1.258c-.164.202-.535.309-.818.323-.441.02-.887-.089-1.332-.118-.174-.01-.451.134-.506.065-.379-.472-.846-.939-1.023-1.49-.213-.681.076-1.353.598-1.889.182-.185.332-.416.445-.649.234-.479.488-.494.922-.195.35.243.791.364 1.205.487.297.087.623.062.922.134.51.119.793.658.727 1.256-.025.226.035.459.065.76M-17.112.262l-.252-.049c-.064.575-.033 1.188-.215 1.731-.172.519-.482 1.038-1.172 1.083-.379.026-.666.457-1.09.295-1.277-.481-2.004-1.536-1.43-2.896.135-.32.238-.667.434-.943.518-.727.73-.999 1.703-.809.166.033.352.004.525.011.523.022.975.371 1.168.875.085.221.2.427.329.702M-126.202-20.376c.242-.724.475-1.545.811-2.323.082-.191.479-.284.75-.338.092-.021.275.192.35.335.248.473.783.225 1.129.472.301.216.73.279.977.532.172.171.215.576.156.842-.215.975-.805 1.794-1.24 2.676-.082.164-.326.505-.715.258-.152-.097-.414-.037-.625-.019-.732.062-.971-.496-1.195-1.005-.179-.401-.244-.852-.398-1.43M-115.196 32.678c-.064.78-.885 2.012-1.543 2.334-.84.411-1.43.265-1.867-.59-.223-.432-.578-.848-.629-1.3-.129-1.123.129-2.193.977-3.014.123-.121.523-.126.68-.016.67.468 1.484.773 1.902 1.547.181.335.322.693.48 1.039M-21.569 57.312c-.016-.696.137-1.305.775-1.719.289-.19.529-.459.801-.681.061-.046.201-.08.242-.046.551.453 1.244.458 1.885.637.514.142.627.518.559 1.101-.027.25-.279.568.061.808-.246.326-.492.654-.74.979-.152.193-.328.371-.463.575-.17.26-.219.619-.705.5-.211-.051-.475.131-.721.178-.141.027-.363.06-.428-.017-.598-.671-1.343-1.273-1.266-2.315M-90.124 19.493c.943-.092 1.799.094 2.307.961.248.427.43.956.434 1.442.006.293-.381.595-.6.887-.447.593-.979 1.063-1.754 1.158-.211.025-.449.042-.641-.026-1.273-.454-1.406-1.308-1.25-2.372.086-.585.312-1.152.5-1.719.033-.1.18-.202.289-.229.233-.059.477-.072.715-.102M-.976 15.399c.854-.306.799-1.369 1.404-2.083.258.486.895.618.826 1.277-.006.031.221.143.299.113.262-.101.436-.134.654.139.18.229.523.317.75.52.293.266.543.582.824.892-.438.667-.834 1.321-1.287 1.935-.217.293-.52.525-.957.399-.18-.052-.389-.007-.572-.045-1.164-.238-1.498-1.252-1.924-2.143-.126-.265-.017-.643-.017-1.004M-64.657 37.112c-.045-.563.305-1.16.68-1.739.082-.124.273-.206.432-.249.312-.089.658-.244.951-.181.469.104.979.276 1.328.583.311.272.486.749.621 1.166.246.759.312 1.125-.268 1.621-.242.207-.4.514-.588.783-.221.32-.514.456-.908.456-.18 0-.357.126-.541.182-.078.022-.207.045-.244.006-.67-.709-1.483-1.334-1.463-2.628M-78.466-32.954c-.033.133-.018.441-.156.549-.564.434-.879 1.083-1.549 1.471-.691.399-1.156.211-1.67-.109-.254-.159-.445-.451-.604-.721a2.892 2.892 0 01-.336-.911c-.145-.867.4-1.532.752-2.243.061-.124.371-.177.561-.171.523.013 1.055.024 1.564.129 1.198.247 1.307.888 1.438 2.006M-44.95 22.322c.418-.137.797-.264 1.213-.4.453.317 1 .679 1.527 1.072.258.194.557.391.48.799-.012.052-.021.12.002.156.52.791-.182 1.3-.451 1.904-.055.12-.229.204-.363.27-.451.217-.912.429-1.375.622-.074.032-.197-.024-.285-.062-.631-.261-1.234-.56-1.436-1.292-.26-.936-.131-1.809.441-2.609.106-.149.173-.323.247-.46M-73.329-.779c.91-.077 1.73.481 2.428 1.171.236.233.238.781.211 1.172-.018.224-.305.437-.486.639-.078.086-.248.118-.285.211-.354.921-1.162 1.146-1.996 1.226-.279.024-.646-.24-.881-.47-.611-.607-.705-1.399-.619-2.222.008-.102.059-.198.07-.299.158-1.306.115-1.17 1.558-1.428M-52.778-15.343c.182-.105.357-.23.549-.307.197-.077.371-.32.635-.057.113.115.359.084.537.144.141.048.359.113.381.209.109.431.436.657.768.833.551.294.566.892.713 1.345.113.343-.156.869-.373 1.243-.188.322-.537.55-.826.807-.338.304-.971.278-1.324-.008-.238-.194-.49-.437-.771-.501-.52-.116-.584-.531-.625-.886a13.31 13.31 0 01-.033-2.027c.014-.309.162-.611.25-.916.041.04.08.08.119.121M-62.2 7.445c-.561.011-1.17-.024-1.484-.57-.441-.761-.578-1.593-.217-2.449.053-.122.078-.257.102-.389.135-.747.58-1.06 1.326-.935a.555.555 0 00.252-.03c.705-.215 1.24.178 1.773.521.115.073.121.342.143.526.062.571.246 1.148-.01 1.717-.092.201-.145.454-.297.583-.483.402-.764 1.125-1.588 1.026M-28.983 29.761c-.43-.142-.906-.295-1.375-.454-.518-.173-1.139-1.04-1.129-1.624.008-.573.051-1.145.104-1.714.039-.418.537-.839.928-.732.619.173 1.217.422 1.824.638.145.052.283.115.432.153.662.167.967.675.84 1.345-.158.828-.396 1.588-1.256 1.974-.13.058-.206.225-.368.414M-47.19-29.384c-1.184-.247-1.904-.952-1.82-2.276.07-1.156.516-2.103 1.621-2.645l.436.208c-.037.099-.078.209-.123.321.537.284 1.074.566 1.611.851.379.201.826 1.159.695 1.546a.935.935 0 01-.311.425c-.697.533-1.408 1.049-2.109 1.57M-105.644-32.611c.295-.86.574-1.728.902-2.578.115-.304.529-.32.646-.011.256.684.91.751 1.416 1.056.383.228.795.431 1.109.733.283.274.391.68.08 1.043-.314.371-.662.715-.986 1.083-.096.109-.123.278-.219.387-.156.183-.357.497-.516.482-.504-.049-1.115-.083-1.461-.381-.484-.421-.881-1.023-.83-1.762-.047-.019-.094-.034-.141-.052M-3.95 44.865c-.014.082-.029.159-.047.273.09-.036.164-.079.242-.09.508-.067.828.161.84.703.014.506.262.65.699.777.418.121.789.397 1.135.584-.535.965-1.004 1.805-1.424 2.561-.334.083-.627.113-.885.23-.426.19-.77-.029-.951-.293-.518-.745-.926-1.55-.768-2.52.092-.542.107-1.1.238-1.631.102-.428.374-.755.921-.594M-118.47 6.524l2.283.658-.098.115c.072.274.201.543.213.819.021.621-.031 1.245-.455 1.752-.197.234-.398.481-.646.65-1.396.946-2.025.169-2.562-1.073-.463-1.064.105-2.013.494-2.955.08-.19.357-.3.615-.502.078.269.131.456.156.536M3.112-3.59c-.334.032-.646.055-.957.095-.676.088-.914-.359-1.195-.866-.465-.851-.457-1.653.021-2.481.051-.087.008-.229.008-.359l.342-.063v-.493c1.287-.422 2.355-.1 3.262.754-.205.68-.531 1.26-.701 2.086a1.789 1.789 0 00-.78 1.327M-52.452 58.031c.561.195 1.117.409 1.688.581.375.115.781.133 1.152.257.594.202.756.884.422 1.421-.195.314-.275.701-.441 1.042-.35.712-.869 1.208-1.725 1.18-.225-.009-.514-.04-.66-.183-.999-.963-1.192-2.981-.436-4.298M-19.864 19.207c.018-1.002.285-1.759.885-2.308.285-.26.736-.431 1.197-.136.57.361 1.174.62 1.639 1.175.424.5.098.91.088 1.356-.01.422-.385.54-.686.733-.361.229-.678.525-1.016.792-.061.049-.148.144-.184.129-.508-.231-1.086-.396-1.492-.749-.281-.246-.338-.759-.431-.992M-37.452 41.042c.514.102 1.021.198 1.531.308.564.122 1.283 1.165 1.26 1.796-.014.326-.082.603-.363.836-.359.295-.641.693-1.01.978-.529.406-1.176.326-1.732.128-.508-.183-.951-1.388-.777-1.961.186-.62.209-1.346.922-1.697.097-.05.112-.255.169-.388M-71.569 39.572l-.16.482c.047.012.078.031.094.023.146-.072.283-.184.436-.217.777-.167 1.502.039 2 .619.236.271.352.849.234 1.185-.373 1.056-1.242 1.616-2.303 1.867-.139.032-.365-.062-.467-.173-.455-.49-.906-.99-1.305-1.526-.238-.314.016-1.78.35-1.969.302-.172.697-.188 1.121-.291M-23.368 37.009c0 .003.012.063-.006.108-.408.937-.857 1.836-1.688 2.5-.303.244-.555.255-.795-.001-.355-.382-1.059-.45-1.078-1.122-.02-.574-.014-1.156.064-1.722.039-.306-.164-.723.324-.917.287-.114.51-.42.797-.51.23-.073.557-.334.811.101.086.146.479.232.674.167.498-.165.625.199.752.483.114.258.098.574.145.913M-77.454 12.847c-.01-.963.508-1.636 1.162-2.24.047-.043.117-.091.176-.089.537.021 1.082.01 1.611.097.67.11 1.121 1.116.902 1.771-.322.987-1.09 1.547-1.906 2.05-.164.101-.494.081-.678-.019-.402-.228-.801-.502-1.121-.834-.146-.152-.105-.484-.146-.736M-86.3-12.686c.033-.348.068-.851.129-1.35.057-.467.736-.979 1.189-.879.432.094.863.215 1.27.383.836.349 1.068 1.225.58 1.991-.287.449-.533.924-.822 1.373-.152.238-.314.545-.547.636-.24.092-.574-.01-.852-.083-1.052-.269-.9-1.14-.947-2.071M-14.413-11.513c-.025.143-.055.283-.088.478.707-.189 1.328-.066 1.881.326a.95.95 0 01.326.433c.154.407.271.829.385 1.192-.176.239-.354.551-.596.805-.25.262-.562.464-.844.699-.418.354-.689-.055-1.012-.192-.266-.11-.537-.192-.801-.304a.498.498 0 01-.213-.183c-.443-.719-.648-1.473-.396-2.324.178-.605.698-.998 1.358-.93M-62.927-34.162c.053.213.051.339.096.361.488.226.986.432 1.48.652a.792.792 0 01.277.197c.559.665.355 1.739-.383 2.233a1.948 1.948 0 00-.555.627c-.363.642-1.475.631-1.953-.083-.252-.378-.514-.833-.533-1.268-.021-.423.188-.904.416-1.285.292-.48.704-.887 1.155-1.434M-2.493 3.702c-.83.616-1.746.474-2.559-.354-.494-.501-.764-1.03-.674-1.716.029-.221.137-.454.273-.631.508-.653 1.244-.798 2.012-.809.112-.001.221.144.333.218.236.153.32.567.732.437.025-.007.1.058.113.101.125.347.24.697.361 1.045.119.347-.064.534-.318.745-.517.428-.502.45-.273.964M-55.034 27.099c.113.147.186.344.314.395.6.24.834.761 1 1.305.064.201.033.56-.102.669-.426.342-.535.92-1.086 1.186-.986.476-1.43.598-2.143-.207-1.002-1.133.008-2.941 1.146-3.333.271-.094.603-.015.871-.015M-40.149 34.958c-.029-1.021.373-1.803 1.295-2.27.107-.054.312.011.443.079.305.163.574.422.896.53.533.18.68.636.836 1.063.189.526-.232 1.53-.709 1.845-.174.113-.348.229-.531.317-.322.15-.816.488-.953.382-.602-.462-1.42-.842-1.277-1.841.003-.035 0-.07 0-.105M-126.206 11.051c-.037.819-.631 1.251-1.029 1.758-.26.332-.668.567-1.047.776-.154.084-.467.062-.607-.043-.775-.577-1.086-1.862-.693-2.76.15-.348.322-.687.504-1.021.223-.421.508-.568.994-.324.529.266 1.201.283 1.496.935.107.236.253.453.382.679M-43.521 51.158c-.449.064-.959.172-1.471.198-.52.024-1.252-.786-1.291-1.298-.051-.663.094-1.268.373-1.862.227-.479.807-.651 1.291-.418.27.128.59.204.889.202.416-.003.404.33.5.552.117.262.154.559.227.84.117.472.256.936-.305 1.266-.117.068-.132.306-.213.52M-56.935 50.06c-.02 1.052-.561 1.758-1.184 2.412-.098.102-.322.139-.477.118-.771-.106-1.5-1.062-1.41-1.842.062-.564.119-1.136.234-1.692.037-.165.279-.421.414-.411.609.044 1.221.143 1.82.27.701.146.377.829.603 1.145M-118.79 16.96c.121.232.281.404.285.577.008.312.148.412.42.478.682.162.939.775 1.232 1.303.104.188.02.568-.109.782-.389.643-.725 1.439-1.598 1.487-.322.018-.748-.315-.994-.601-.629-.738-.582-1.611-.234-2.455.188-.456.488-.867.744-1.295.047-.078.125-.138.254-.276M-49.261 35.526c-.883.03-1.756-1.121-1.51-1.968.135-.452.363-.876.541-1.314.045-.102.027-.244.096-.317.117-.129.311-.335.418-.306.727.189 1.424.479 1.873 1.131.605.873.424 1.542-.348 2.287-.355.347-.746.336-1.07.487M-16.429 28.264c-.102.23-.195.462-.307.686-.16.334-.439.656-.463.997-.018.303-.117.279-.314.313-.164.028-.389.063-.471.176-.256.364-.662.25-.822.104-.381-.347-.875-.792-.92-1.236-.072-.768-.07-1.673.727-2.184a2.822 2.822 0 011.223-.42c.425-.037 1.271 1.071 1.347 1.564M-13.188 10.673c.025-.458.025-.865.072-1.266.068-.592.871-1.028 1.438-.812.217.082.453.172.68.172.805-.003.863.702 1.107 1.189.086.173-.096.482-.16.726-.02.065-.084.125-.088.188-.025.896-.912.952-1.395 1.395-.111.102-.65-.031-.76-.204-.299-.476-.975-.733-.894-1.388M-32.159 54.834c-.018-.014-.074-.051-.125-.09-.363-.266-.965-.479-1.039-.809-.121-.553.045-1.192.174-1.773.174-.768.906-1.1 1.508-1.128.484-.023 1.023.474 1.486.813.322.236.309.635.137.992-.053.109-.152.198-.236.291-.053.058-.154.095-.172.157-.08.311-.764 1.1-1.094 1.244-.202.09-.399.189-.639.303M-67.091-8.237c.078.278.123.533.225.764.236.534.105 1.027-.334 1.425-.229.206-.373.502-.574.745-.4.488-1.262.391-1.621-.108-.541-.746-.393-1.536-.266-2.338.023-.152.08-.297.119-.448.162-.622.645-.862 1.244-.604.436.189.856.4 1.207.564M-77.999 25.542c-.373.16-.67.322-.984.409-.184.05-.436.043-.598-.046-.279-.156-.482-.496-.771-.579-.455-.131-.465-.511-.523-.802-.084-.423-.043-.875-.014-1.311.021-.312.768-.711 1.203-.662.691.078 1.221.448 1.682.944.34.364.334.771.021 1.103-.295.313-.313.579-.016.944M-7.935 58.015l.273.338-.201-.163c-.104.206-.191.425-.32.617-.324.478-1.352.822-1.791.51-.256-.18-.467-.586-.48-.9-.035-.702-.189-1.444.283-2.094.174-.238.299-.343.635-.227.432.149.906.167 1.365.231.832.114.967.325.629 1.087-.09.203-.242.377-.393.601M-23.536-22.852c.887.001 1.547.603 1.58 1.359.033.753-.686 1.988-1.168 2.006-1.045.045-1.943-.829-1.92-1.897.004-.206.057-.479.197-.6.412-.365.575-1.176 1.311-.868M-4.827-9.133c-.176-.171-.36-.34-.533-.517-.738-.748-.738-1.497.016-2.238.305-.3.533-.737 1.072-.657.076.012.174-.032.229.002.533.308 1.061.635 1.432 1.131.086.117.025.497-.096.585-.5.372-.898.797-1.219 1.339-.12.201-.542.222-.901.355M-127.772 17.426c.354.362.629.715 1.201.604.334-.065.955.779.9 1.14-.088.593-.264 1.136-.75 1.563-.379.332-.764.323-1.092.086-.861-.62-1.219-1.641-.869-2.628.098-.278.385-.493.61-.765M-6.64 25.011c-.354.379-.668.806-1.068 1.121-.24.19-.609.37-.926.024-.486-.531-1.021-1.028-.615-1.871.256-.534.434-1.106.686-1.645.039-.086.424-.103.426-.096.154.62.775.848 1.092 1.314.208.31.261.724.405 1.153M-76.362 32.912c.168-.278.445-.749.73-1.216.023-.035.107-.07.135-.055.529.309 1.361.071 1.602.897.02.06.09.106.139.155.469.454.463.697-.006 1.138-.232.217-.539.422-.635.694-.146.403-.387.244-.605.212-.726-.107-1.356-.846-1.36-1.825M-51.231 42.759c.488.111.99.204 1.477.344.287.083.436.764.307 1.203-.105.36-.223.716-.301 1.082-.139.628-.557.833-1.162.607-1.055-.391-1.035-.94-.881-1.841.043-.25.123-.498.217-.734.085-.221.216-.422.343-.661M-14.347 38.763c-.24-.047-.486-.06-.703-.144-.584-.229-.869-.944-.652-1.62.137-.415.328-.812.475-1.227.041-.113.008-.252.008-.387.887-.206 1.422.294 1.875.952.049.069.119.197.096.229-.426.532-.131 1.396-.848 1.8-.128.072-.178.275-.251.397M-120.706-.77c.225-.525.436-1.059.688-1.57.053-.105.262-.188.398-.188.441-.003 1.512.832 1.629 1.259.031.119.02.291-.049.387-.295.43-.572.889-.951 1.236-.164.154-.586.154-.836.068-.508-.175-.973-.457-.734-1.169l-.145-.023"/><path clip-path="url(#d)" fill-rule="evenodd" clip-rule="evenodd" fill="#010101" d="M24.927 81.212c-.854-.469-1.773-.531-2.266-1.379-.201-.346-.59-.514-.838-.861-.709-.992-.789-1.994-.07-2.979.221-.306.418-.629.645-.93.404-.533 1.014-.771 1.619-.835 1.432-.153 2.811-.013 3.986.99.973.829 1.215 1.896.51 2.968-.492.75-.979 1.547-1.637 2.127-.523.458-1.309.618-1.949.899M36.925 151.005c.121 1.031-.369 1.875-1.506 2.305-.1.041-.266-.088-.49-.172.012.145-.01.332.039.5.301 1.049-.104 1.971-.568 2.852-.275.512-1.283.598-1.971.318-.994-.408-1.529-1.184-1.789-2.178-.164-.623-.334-1.246-.447-1.883-.146-.822-.201-1.672.332-2.391.434-.582.92-1.262 1.676-1.342 1.473-.164 2.932-.043 4.119 1.025.119.107.166.291.252.434.085.141.183.278.353.532M53.302 133.999l-.199-.471c-.279.371-.51.705-.77 1.016-.557.664-1.682.92-2.48.555-.889-.402-1.678-1.016-2.08-1.865-.371-.785-.549-1.721-.572-2.594-.035-1.148 1.424-2.693 2.564-2.848a3.03 3.03 0 011.357.15c.713.248 1.402.582 2.074.93.285.152.711 1.746.764 2.037.152.863-.482 1.508-.549 2.297-.019.217-.06.43-.109.793m-1.701-.93l.141.039c.68-.863.686-1.604.01-2.205-.605-.535-1.318-.625-1.67-.254.357.141.729.34 1.119.412.223.043.455-.055.531.256.059.244.199.496.172.73-.04.347-.196.682-.303 1.022M15.409 138.8c-.008-.932.373-1.562 1.145-2.162.711-.549 1.373-.494 2.115-.443.881.064 1.795.141 2.365.914.25.338.305.836.391 1.271.053.271-.057.578.01.84.104.428.176.818.074 1.273-.127.572-.623 2.012-1.047 2.254-.416.244-.926.34-1.402.473-1.143.314-1.889-.352-2.58-1.1-.864-.937-1.079-2.099-1.071-3.32M47.198 147.089c-.119.484-.119 1.068-.389 1.467-.338.486-.846 1.018-1.379 1.156-.609.162-1.334-.047-1.998-.158-.785-.131-1.422-.586-2.016-1.096-.51-.434-.564-.977-.383-1.596.09-.295.186-.648.104-.922-.275-.914.293-1.461.781-2.057.438-.531.975-.621 1.672-.611 1.514.02 2.67.727 3.754 1.631.357.299.621.723.887 1.119.293.441-.166.602-.391.801-.163.147-.429.182-.642.266M28.88 92.728c1.359.1 2.52.441 3.26 1.496.465.664.652 1.477.293 2.301-.02.049-.066.092-.068.141-.158 1.604-1.316 2.328-2.615 2.871-.357.148-.828.086-1.234.025-.471-.07-.906-.24-1.119-.77-.078-.188-.387-.275-.576-.426-.1-.08-.211-.184-.25-.301-.254-.742-.525-1.484-.719-2.24-.318-1.271.943-2.906 2.266-3.006.291-.021.582-.07.762-.091m1.971 4.714c-.662.479-1.305.58-1.709.203-.324-.303-.646-.619-.979-.918-.072-.064-.195-.076-.359-.137.082.66.506.971.859 1.367.639.715 1.127.6 1.875-.066.135-.119.211-.298.313-.449M37.087 82.876c-.248-1.262.631-1.904 1.391-2.609a.257.257 0 01.18-.076c1.041.049 2.123-.156 3.105.314.471.227.941.529 1.291.91.314.346.33.857.369 1.354.045.527.023.988-.301 1.4-.6.762-1.182 1.547-1.844 2.248-.34.357-.795.738-1.381.273-.127-.102-.438.031-.58-.064a3.345 3.345 0 01-.822-.746c-.357-.467-.562-1.012-1.039-1.441-.352-.318-.354-1.021-.512-1.555.045-.002.094-.004.143-.008M54.642 112.413c.248.354.34.715.076 1.258-.225.473-.371.924-.828 1.24-.85.586-1.707.697-2.621.182-.352-.199-.791-.326-1.027-.619-.236-.289-.254-.748-.383-1.127-.066-.201-.105-.447-.244-.582-.629-.604-.773-1.387-.336-2.139.158-.268.314-.539.514-.775.561-.66 1.355-.748 2.098-.562.865.213 1.682.633 2.52.953.545.207.77.688.777 1.174.002.304-.326.616-.546.997m-.991-.949c.178.271.34.523.506.773.192-.574.006-.779-.506-.773M29.136 135.577c-.801.633-.977-.184-1.373-.49-.396-.305-.822-.576-1.182-.914-.195-.186-.291-.482-.42-.732-.039-.074-.016-.211-.066-.24-.598-.363-.283-.994-.426-1.486-.053-.186.107-.49.256-.662.633-.727 1.404-1.107 2.41-1.18.898-.064 1.723.027 2.49.447.432.234.807.584 1.174.914.16.148-.207 1.236-.404 1.426-.18.17-.398.375-.439.592-.186 1.025-.908 1.65-1.613 2.297-.107.096-.268.133-.4.195-.003-.056-.007-.112-.007-.167M11.31 75.02c.02.104.01.371.123.569.23.415.094.759-.018 1.177-.221.826-.836 1.381-1.275 2.047-.492.74-1.367.631-2.133.529-.408-.055-.895-.178-1.162-.447a9.167 9.167 0 01-1.361-1.789c-.264-.445.193-1.399.512-1.836.41-.567 1.037-.652 1.545-.98 1.117-.727 1.996-.156 2.932.297.258.124.512.263.837.433M57.808 92.214c-.393-.16-.613-.619-1.078-.326.219.42.498.791.459 1.271-.037.457-.088.914-.137 1.441-.539.207-1.107.52-1.709.627-.506.09-1.059-.043-1.584-.113-.305-.045-.604-.154-.902-.238-.02-.004-.041-.008-.047-.02-.404-.531-.934-1.016-1.174-1.615-.148-.379.041-.971.236-1.398.428-.969 1.066-1.799 2.266-1.723 1.305.08 2.576.314 3.6 1.266.335.31.271.545.07.828M15.007 91.077c.127-.379.223-1.002.537-1.482.242-.369.742-.73 1.164-.785.803-.105 1.6.172 2.324.557.283.15.518.395.777.594.605.479.678.861.326 1.531-.174.332-.254.709-.436 1.035-.154.271-.369.52-.594.742-.221.215-.498.373-.74.57-.707.58-1.4.357-2.076-.043-.427-.258-1.302-2.008-1.282-2.719M-19.028 171.687c-.117.039-.287.047-.346.127-.111.168-.129.396-.238.564-.254.373-1.074.594-1.521.555-.973-.088-1.404-.785-1.832-1.5-.059-.102-.023-.25-.055-.371-.145-.629-.271-1.264-.451-1.885-.109-.391-.045-.689.293-.908.658-.436 1.336-.768 2.162-.52.854.254 1.715.471 2.559.738.35.109.355.393.139.65-.332.381-.373.783-.318 1.289.053.445-.127.922-.205 1.383-.064-.038-.125-.081-.187-.122M11.271 152.774c-.02.182 0 .373-.059.541-.053.156-.152.338-.285.412-.477.266-.871.463-.744 1.193.104.578-.35 1.064-.916 1.424.027-.137.041-.207.053-.285-.035 0-.066-.006-.09.004-.408.172-.801.396-1.223.492-.152.035-.439-.201-.553-.385-.418-.689-.877-1.373-1.156-2.119-.225-.609-.09-1.293.217-1.9.029-.061.102-.115.104-.174.012-.777.637-.945 1.184-1.125.566-.188 1.15-.148 1.672.207.084.059.174.141.268.154.691.098.941.635 1.207 1.168.074.147.209.265.321.393M-34.493 146.864c-.119.338-.197.719-.375 1.045-.264.486-.352 1.168-1.113 1.184-.174.002-.354-.051-.523-.1-.393-.111-.662-.5-1.16-.436-.152.02-.346-.391-.535-.592-.229-.238-.486-.449-.701-.695-.449-.51-.238-1.91.32-2.285.287-.191.535-.445.834-.611.906-.498 1.838-.453 2.75-.014.447.219.883.477 1.299.754.482.326.414.611.225 1.252-.185.615-.5.613-1.021.498M9.157 127.397c-.064.074-.107.1-.107.125.01.922-.67 1.334-1.307 1.777-.096.062-.24.133-.338.105-.869-.254-1.814-.389-2.393-1.207-.598-.852-.307-2.354.533-3.055.479-.4.906-.83 1.609-.83.787-.002 1.484.23 2.08.709.537.432.912.984 1.119 1.672.113.373.023.611-.234.779-.246.16-.562.387-.828-.02-.02-.031-.087-.035-.134-.055M47.665 182.005c-.529.623-.951 1.383-1.943 1.32-.049-.002-.113.104-.16.17-.064.102-.117.211-.18.314-.508.836-.969 1.006-1.881.656-.475-.18-.994-.324-1.373-.633-.275-.225-.4-.68-.506-1.059-.426-1.525.287-2.285 1.691-2.625 1.373-.33 2.443.119 3.416 1.014.295.273.598.54.936.843M-8.515 101.626a3.768 3.768 0 01-2.236-1.678c-.447-.732-.369-.924.133-1.613.486-.668 1.168-.943 1.877-1.213.031-.012.064-.035.098-.033.93.068 1.891.014 2.715.561.135.09.271.26.303.41.152.84.211 1.672-.352 2.418-.561.742-1.454 1.191-2.538 1.148M52.649 153.042c.215-.281.383-.629.658-.838 1.109-.834 1.842-.684 3.084-.008.496.268.977.738 1.217 1.234.213.43.236 1.096.053 1.533-.191.455-.713.785-1.125 1.131-.178.145-.445.172-.631.146-.283-.098-.562-.225-.855-.293-.506-.109-1.035-.133-1.521-.295-.27-.088-.496-.359-.707-.576-.166-.17-.283-.385-.424-.576-.064.006-.131.016-.195.025.111-.525.221-1.049.33-1.576.042.03.079.064.116.093M51.2 73.497c1.104.068 2.301.905 2.482 1.889.074.418.02.985-.217 1.307-.385.525-.926.955-1.477 1.322a1.84 1.84 0 01-1.164.273c-.359-.049-.732-.314-1.021-.572-.521-.469-.885-1.066-1.268-1.663-.338-.521-.078-.691.064-1.054.334-.854.988-1.249 1.826-1.423.254-.05.517-.054.775-.079M52.8 170.792c-.158-.242-.4-.184-.719-.039-.842.377-1.127.42-1.723-.264-.342-.398-.793-.793-.727-1.414.021-.223.09-.441.148-.658.08-.293.178-.582.264-.869.23-.783.557-1.488 1.43-1.727.209-.057.494-.119.656-.029.656.359 1.471.541 1.738 1.396.061.189.234.346.283.533.131.533-.078 1.057-.08 1.588-.002.15-.002.311.045.445.096.248-.434 1.035-.699 1.023-.181-.008-.364.007-.616.015M1.233 113.985c.129-.148.301-.256.322-.387.154-.908.977-.975 1.602-1.182.287-.1.531-.467.988-.244.84.414 1.695.756 2.289 1.547.52.688.529.861-.154 1.635-.635.725-1.355 1.254-2.299 1.428-.232.043-.504-.096-.75-.176-.174-.059-.322-.182-.492-.23-.463-.135-.82-.359-1.041-.82-.203-.414-.48-.783-.297-1.287.02-.061-.097-.172-.168-.284M-10.179 84.718c.445.154.941.338 1.443.5.164.053.352.029.518.074.064.02.104.131.156.195.088.1.158.244.27.289.486.201.352.525.295.924-.041.305-.299.574-.062 1.01.135.24-.254.908-.566 1.221-.586.572-1.297.51-2.068.234-.951-.338-1.537-1.062-2.189-1.736-.275-.283-.289-1.252.012-1.482.514-.391 1.062-.736 1.609-1.08.135-.087.324-.087.582-.149M14.038 157.104c.18-.439.322-1.016.633-1.477.287-.416.725-.76 1.16-1.033 1.018-.641 1.809-.357 2.41.707.398.705.73 1.404.646 2.23-.043-.033-.082-.068-.123-.104-.166.145-.439.262-.48.436-.24 1.051-1.051 1.242-1.924 1.443-.521.119-.869-.037-1.172-.402-.332-.408-.707-.797-.744-1.381-.007-.122-.22-.231-.406-.419M-2.868 82.509a2.164 2.164 0 011.078-2.037c.775-.443 1.715-.447 2.582-.023.287.145.66.199.863.416.227.244.381.613.441.951.086.48-.174.92-.293 1.379-.131.506-.365.838-.715 1.156-.52.475-1.674.547-2.189.064-.443-.412-.801-.916-1.209-1.367-.144-.166-.316-.309-.558-.539M39.987 120.31c-.002-.104.029-.295-.016-.467-.15-.561.146-1.209.666-1.471 1.01-.512 2.016-.453 3.1-.211.787.178 1 .689 1.236 1.279.02.047-.039.121-.051.184-.098.49-.193.98-.293 1.469-.109.564-.627.762-1.135.908-.832.242-1.375-.111-2.031-.482-.352-.197-.871-.15-1.166-.52-.142-.174-.193-.418-.31-.689M37.716 68.311c.086-.266.121-.582.279-.809.574-.818 1.188-1.66 2.299-1.713.67-.031 1.348.149 1.857.644.27.265.658.485.648.925-.006.28-.158.551-.191.832-.1.988-.75 1.482-1.594 1.784-.168.062-.398-.077-.598-.08-.43-.006-.867.077-1.281.007-.258-.045-.51-.273-.713-.475-.236-.236-.422-.528-.617-.807-.054-.076-.056-.189-.089-.308M-7.468 183.921c.213-.246.363-.375-.043-.521a3.963 3.963 0 01-1.232-.723c-.195-.174-.291-.549-.295-.832-.006-.443.117-.885.16-1.328.016-.172-.117-.455-.049-.506.486-.363.967-.814 1.525-.973.688-.191 1.35.121 1.865.662.18.188.408.34.635.463.475.252.48.506.166.93-.256.34-.389.777-.527 1.189-.098.291-.086.617-.164.914-.135.506-.684.77-1.279.688-.227-.033-.461.017-.762.037M24.72 166.989c.035-.154.061-.256.059-.25-.574-.08-1.188-.074-1.725-.271-.512-.189-1.021-.518-1.043-1.209-.012-.381-.436-.68-.258-1.1.523-1.258 1.6-1.949 2.941-1.33.314.145.656.26.93.465.709.541.975.766.752 1.727-.043.17-.018.352-.031.527-.039.521-.406.963-.912 1.139-.223.076-.434.181-.713.302M49.007 58.653c.717.268 1.525.529 2.293.888.189.087.266.489.312.761.016.094-.201.271-.348.341-.48.231-.25.772-.508 1.11-.227.293-.301.721-.564.959-.176.165-.58.195-.846.129-.967-.249-1.766-.866-2.633-1.332-.162-.086-.494-.342-.234-.721.104-.148.051-.414.039-.625-.037-.735.531-.953 1.045-1.16.407-.166.858-.215 1.444-.35M-4.388 67.874c-.777-.09-1.979-.951-2.279-1.621-.383-.852-.219-1.436.652-1.846.438-.207.865-.549 1.316-.586 1.129-.09 2.188.203 2.98 1.078.119.128.109.527-.004.679-.492.653-.826 1.46-1.609 1.851-.341.169-.702.297-1.056.445M-32.147 160.622c.697.008 1.299.182 1.693.834.176.299.441.545.65.824.047.057.072.199.039.24-.471.535-.498 1.23-.699 1.865-.16.506-.537.607-1.121.521-.248-.039-.557-.299-.807.031-.318-.258-.641-.516-.955-.773-.188-.156-.359-.338-.557-.479-.256-.184-.613-.242-.479-.725.061-.209-.113-.479-.152-.725-.021-.143-.047-.363.029-.428.694-.572 1.319-1.296 2.359-1.185M7.95 93.376c.059.945-.158 1.793-1.039 2.271-.436.234-.971.396-1.459.385-.293-.002-.578-.4-.861-.629-.58-.465-1.035-1.014-1.1-1.791-.021-.211-.031-.449.047-.637.494-1.262 1.352-1.363 2.41-1.174.586.107 1.143.352 1.703.559.098.037.193.186.221.295.051.237.053.481.078.721M9.052 182.608c.275.865 1.34.846 2.033 1.475-.494.24-.645.873-1.305.783-.027-.004-.148.217-.121.295.094.264.117.443-.16.65-.234.172-.336.512-.545.73-.273.285-.6.525-.922.797-.65-.461-1.289-.881-1.887-1.354-.289-.225-.51-.535-.369-.971.059-.176.02-.385.064-.57.277-1.154 1.301-1.453 2.205-1.852.272-.113.643.006 1.007.017M-10.513 118.239c.564-.027 1.148.34 1.713.736.121.084.197.279.236.436.076.318.221.67.148.959-.121.465-.311.969-.629 1.309-.283.301-.762.459-1.186.582-.768.221-1.135.271-1.609-.324-.197-.248-.5-.418-.766-.611-.312-.232-.438-.529-.426-.924.008-.178-.113-.363-.162-.549-.021-.078-.039-.207.002-.244.73-.643 1.384-1.438 2.679-1.37M59.978 106.786c-.133-.039-.443-.033-.543-.174-.42-.58-1.057-.916-1.42-1.598-.377-.705-.172-1.164.162-1.666.17-.246.465-.432.74-.576.285-.15.605-.266.926-.309.867-.117 1.514.451 2.211.824.125.066.168.379.156.57-.031.52-.062 1.053-.184 1.559-.285 1.188-.927 1.274-2.048 1.37M3.606 138.429l.359 1.225c-.332.441-.715.979-1.125 1.492-.199.248-.406.541-.812.451-.051-.014-.117-.025-.154-.002-.809.49-1.295-.227-1.889-.514-.119-.059-.195-.236-.256-.373a27.84 27.84 0 01-.578-1.393c-.029-.076.031-.197.07-.287.283-.621.604-1.215 1.342-1.393.943-.225 1.812-.066 2.596.533.141.11.311.183.447.261M27.646 110.839c.049.91-.537 1.715-1.252 2.389-.24.229-.787.215-1.178.17-.227-.023-.426-.318-.623-.506-.084-.084-.107-.254-.201-.291-.906-.385-1.105-1.201-1.156-2.035-.02-.281.262-.641.498-.863.627-.594 1.42-.658 2.24-.551.102.016.197.068.297.084 1.3.204 1.166.152 1.375 1.603M41.513 131.868c.098.186.219.363.289.561s.307.379.035.635c-.117.109-.096.357-.162.531-.053.137-.127.355-.225.375-.432.094-.668.412-.857.736-.311.543-.91.537-1.365.67-.35.098-.865-.186-1.232-.416-.314-.197-.529-.557-.777-.854-.291-.348-.246-.977.053-1.32.201-.232.453-.477.527-.756.133-.516.549-.566.904-.592.672-.053 1.355-.023 2.029.031.309.025.605.184.906.283l-.125.116zM19.054 121.687c.008-.559.064-1.168.619-1.465.775-.416 1.611-.523 2.453-.129.123.055.258.082.385.111.746.158 1.041.613.889 1.355a.6.6 0 00.025.254c.189.711-.221 1.234-.58 1.756-.08.109-.348.109-.531.123-.572.043-1.154.205-1.719-.066-.195-.1-.447-.162-.57-.318-.383-.496-1.096-.801-.971-1.621M-4.362 154.136c.156-.424.326-.893.5-1.361.189-.506 1.074-1.1 1.66-1.07.572.025 1.141.088 1.707.162.418.055.822.566.701.947-.193.615-.463 1.203-.697 1.803-.059.143-.127.285-.17.432-.189.65-.705.943-1.371.791-.822-.189-1.574-.449-1.932-1.32-.053-.13-.217-.212-.398-.384M55.36 137.921c.283-1.172 1.014-1.869 2.334-1.742 1.152.113 2.082.59 2.59 1.711a36.91 36.91 0 01-.225.43l-.314-.135c-.303.527-.604 1.055-.906 1.582-.215.367-1.186.785-1.566.643a.98.98 0 01-.416-.326c-.508-.714-1.001-1.442-1.497-2.163M60.544 79.61c.85.324 1.709.635 2.547.988.301.125.301.541-.012.646-.691.229-.781.887-1.104 1.381-.238.371-.459.779-.77 1.082-.281.275-.691.371-1.043.047-.361-.33-.693-.688-1.051-1.021-.107-.098-.271-.133-.379-.232-.18-.162-.484-.375-.463-.531.062-.5.119-1.113.428-1.447.438-.469 1.053-.844 1.791-.768.019-.049.036-.098.056-.145M-20.296 178.649l-.273-.057c.033.092.074.168.082.246.051.508-.189.822-.73.816-.508-.004-.66.238-.801.672-.135.412-.426.773-.621 1.113-.947-.566-1.77-1.062-2.512-1.51-.072-.334-.092-.629-.199-.889-.18-.432.053-.77.322-.945.76-.488 1.58-.871 2.545-.678.537.107 1.096.145 1.621.289.425.121.742.4.566.943M21.862 65.478c-.264.802-.498 1.53-.736 2.261l-.111-.102c-.275.065-.551.185-.824.186-.623 0-1.242-.074-1.736-.516-.229-.203-.469-.412-.629-.665-.898-1.427-.104-2.032 1.16-2.527 1.076-.426 2.006.177 2.938.596.186.085.285.366.479.632l-.541.135M27.892 187.331c-.021-.332-.031-.645-.064-.957-.062-.68.389-.906.906-1.164.871-.439 1.666-.404 2.479.102.086.055.232.014.361.02.012.088.029.205.051.344.182.008.357.014.494.018.375 1.299.021 2.357-.865 3.234-.672-.227-1.242-.574-2.061-.771a1.805 1.805 0 00-1.301-.826M-31.831 129.733c-.213.553-.443 1.104-.637 1.668-.129.371-.158.775-.295 1.141-.223.588-.91.727-1.434.377-.309-.207-.691-.303-1.027-.48-.701-.371-1.18-.906-1.121-1.758.018-.227.059-.516.203-.654.998-.967 3.018-1.092 4.311-.294M5.88 163.606c1 .049 1.748.344 2.273.961.252.291.408.75.098 1.199-.379.559-.658 1.152-1.229 1.602-.516.404-.914.064-1.359.039-.422-.023-.525-.402-.709-.707-.221-.367-.504-.697-.758-1.043-.047-.062-.141-.154-.123-.189.246-.5.432-1.068.797-1.463.258-.277.774-.313 1.01-.399M-15.354 145.296c-.119.506-.23 1.016-.361 1.518-.139.559-1.205 1.244-1.834 1.199-.326-.023-.604-.098-.824-.389-.283-.373-.672-.666-.941-1.043-.389-.541-.287-1.188-.07-1.736.197-.5 1.416-.906 1.986-.711.611.209 1.334.254 1.666.979.042.097.247.122.378.183M-12.741 111.245l-.477-.174c-.014.047-.035.074-.025.092.066.148.174.287.201.441.141.785-.088 1.5-.686 1.98-.279.225-.859.32-1.191.191-1.041-.404-1.574-1.293-1.787-2.365-.031-.139.072-.357.186-.457.51-.438 1.021-.875 1.57-1.256.324-.225 1.779.078 1.957.42.162.31.164.7.252 1.128M-11.796 159.507c-.004 0-.064.01-.107-.012-.924-.438-1.809-.916-2.443-1.768-.23-.312-.234-.564.031-.795.393-.342.484-1.043 1.152-1.043.576 0 1.156.027 1.723.121.303.055.725-.137.906.359.105.293.4.521.482.814.064.232.314.562-.129.803-.148.08-.248.473-.189.668.145.506-.221.623-.508.736-.264.105-.578.08-.918.117M14.167 106.259c.963.025 1.617.562 2.199 1.238.043.049.088.121.084.178-.039.539-.047 1.082-.154 1.607-.131.668-1.152 1.082-1.801.846-.973-.361-1.51-1.143-1.984-1.977-.096-.168-.062-.498.043-.674.24-.398.529-.785.873-1.096.156-.142.486-.089.74-.122M39.983 98.276c.344.043.848.096 1.344.174.465.072.955.768.838 1.223a7.58 7.58 0 01-.426 1.25c-.375.824-1.26 1.031-2.01.514-.438-.301-.906-.564-1.346-.867-.23-.16-.533-.332-.613-.566-.088-.242.029-.574.109-.852.304-1.04 1.171-.86 2.104-.876M36.397 170.083c-.143-.033-.281-.062-.475-.105.164.715.021 1.33-.391 1.869a.948.948 0 01-.441.314c-.412.139-.84.24-1.203.342-.236-.182-.541-.371-.787-.621-.254-.258-.445-.58-.668-.865-.34-.432.076-.686.225-1.006.121-.26.213-.531.332-.791a.494.494 0 01.188-.205c.736-.418 1.494-.6 2.338-.32.599.199.972.734.882 1.388M60.663 122.354c-.217.047-.342.041-.365.084-.242.482-.465.975-.703 1.459a.773.773 0 01-.203.27c-.684.537-1.75.299-2.221-.453a1.849 1.849 0 00-.607-.576c-.631-.387-.584-1.496.146-1.951.391-.242.85-.482 1.285-.49.424-.006.896.217 1.27.459.472.306.865.73 1.398 1.198M20.794 181.485c-.588-.85-.418-1.758.438-2.545.52-.475 1.057-.73 1.736-.613.221.035.449.148.623.291.637.531.754 1.27.74 2.041-.002.107-.15.213-.227.324-.162.23-.578.301-.461.717.006.025-.062.096-.105.109-.352.111-.705.217-1.057.324s-.531-.08-.732-.342c-.41-.532-.434-.517-.955-.306M-.829 128.192c-.152.105-.352.172-.406.299-.262.592-.785.809-1.338.959-.203.055-.561.01-.664-.127-.326-.436-.902-.564-1.148-1.125-.441-1.004-.551-1.449.279-2.135 1.166-.965 2.939.105 3.293 1.256.084.276-.008.602-.016.873M-9.185 142.802c1.021.002 1.791.434 2.225 1.371.051.111-.02.312-.094.439-.172.299-.439.561-.559.879-.199.529-.656.66-1.09.801-.533.172-1.523-.285-1.82-.773-.107-.174-.219-.354-.297-.541-.141-.326-.465-.828-.352-.961.48-.588.889-1.393 1.883-1.219.034.006.071.004.104.004M17.597 57.595c-.818-.066-1.229-.671-1.723-1.087-.322-.272-.543-.685-.74-1.072-.08-.157-.047-.468.061-.606.604-.756 1.898-1.023 2.781-.602.346.163.678.35 1.008.539.414.237.551.527.291 1.003-.285.522-.324 1.193-.988 1.466-.239.097-.462.237-.69.359M-25.261 138.892c-.049-.451-.141-.967-.148-1.479-.012-.518.826-1.225 1.34-1.244.662-.031 1.266.137 1.848.434.471.242.625.826.375 1.303a2.103 2.103 0 00-.23.885c-.014.416-.344.393-.57.479-.264.109-.561.135-.848.195-.475.105-.941.227-1.252-.346-.064-.116-.304-.14-.515-.227M-23.714 125.521c-1.053-.055-1.738-.621-2.371-1.264-.098-.1-.129-.326-.1-.48.129-.768 1.109-1.463 1.885-1.35.562.082 1.131.158 1.686.293.164.043.412.293.398.428a14.733 14.733 0 01-.33 1.811c-.17.69-.844.345-1.168.562M11.442 64.809c-.236.115-.414.27-.586.268-.312-.003-.42.133-.492.402-.188.676-.807.912-1.342 1.187-.193.099-.57.003-.779-.136-.633-.408-1.414-.771-1.436-1.645-.006-.324.34-.738.635-.973.76-.605 1.631-.529 2.463-.153.449.203.852.518 1.268.787.078.049.135.128.269.263M-9.446 133.679c0-.885 1.18-1.721 2.018-1.443.447.148.865.391 1.295.586.102.043.244.035.314.104.123.123.322.32.291.43-.215.723-.523 1.404-1.193 1.834-.893.576-1.557.369-2.273-.426-.333-.368-.31-.757-.452-1.085M-3.288 166.733c-.227-.107-.455-.209-.676-.326-.33-.17-.641-.467-.98-.5-.305-.029-.275-.127-.307-.322-.02-.168-.049-.391-.158-.477-.354-.268-.227-.672-.076-.826.361-.369.822-.852 1.268-.877.77-.047 1.676-.016 2.158.801.217.361.355.812.381 1.236.021.422-1.116 1.233-1.61 1.291M14.185 170.563c.457.041.861.055 1.262.115.59.088.996.902.764 1.461-.088.217-.186.447-.195.676-.023.803-.732.838-1.225 1.066-.178.08-.48-.113-.721-.186-.066-.018-.121-.086-.184-.092-.895-.055-.924-.945-1.35-1.443-.098-.111.055-.646.23-.748.485-.282.764-.952 1.419-.849M-29.317 150.122l.094-.123c.279-.354.512-.947.846-1.008.555-.105 1.188.082 1.768.232.758.199 1.066.941 1.074 1.543.006.484-.508 1.008-.863 1.459-.246.314-.643.287-.994.102-.107-.057-.193-.156-.281-.246-.059-.055-.092-.156-.154-.174-.307-.094-1.07-.803-1.205-1.137-.084-.205-.178-.404-.285-.648M34.892 117.325c-.281.07-.535.107-.771.201-.543.217-1.029.068-1.412-.385-.199-.236-.49-.389-.725-.598-.477-.418-.35-1.271.16-1.615.766-.516 1.547-.342 2.344-.189.152.029.295.092.443.135.619.184.842.676.562 1.266-.201.425-.428.839-.601 1.185M1.495 105.29c-.145-.377-.297-.678-.373-.998-.045-.186-.029-.438.068-.594.164-.275.512-.467.602-.752.146-.453.525-.449.822-.498.424-.068.875-.014 1.311.031.309.031.682.793.617 1.225-.1.688-.488 1.207-.998 1.65-.375.328-.781.307-1.104-.018-.304-.304-.57-.331-.945-.046M-33.306 174.226c-.117.086-.232.174-.35.262.057-.062.113-.129.17-.191-.203-.113-.418-.209-.605-.346-.469-.338-.775-1.377-.449-1.805.188-.246.602-.447.914-.451.705-.01 1.451-.141 2.084.355.232.178.332.309.205.639-.16.424-.197.902-.275 1.359-.141.828-.359.953-1.109.59-.198-.094-.366-.254-.585-.412M48.038 161.345c-.031.889-.656 1.527-1.412 1.533-.754.01-1.961-.752-1.965-1.232-.012-1.049.893-1.916 1.959-1.855.205.012.479.076.596.215.349.423 1.154.614.822 1.339M33.7 179.585c.174-.17.35-.348.531-.518.775-.713 1.521-.688 2.236.092.289.316.721.557.623 1.096-.016.074.025.172-.008.229-.328.518-.674 1.037-1.18 1.393-.119.08-.496.006-.582-.115a4.435 4.435 0 00-1.299-1.264c-.196-.126-.202-.55-.321-.913M11.28 55.815c-.375.342-.738.608-.646 1.181.053.337-.812.93-1.17.863-.592-.108-1.127-.302-1.539-.803-.316-.388-.295-.773-.049-1.093.648-.84 1.684-1.162 2.656-.78.276.107.479.399.748.632M-.366 176.628c-.367-.369-.781-.693-1.084-1.105-.182-.244-.348-.621.008-.93.547-.467 1.059-.986 1.891-.549.523.275 1.092.471 1.619.74.084.041.088.426.08.428-.625.137-.869.748-1.348 1.045-.317.201-.735.242-1.166.371M-5.923 106.679c.273.174.734.471 1.189.771.033.023.068.111.049.137-.324.516-.115 1.357-.949 1.57-.061.016-.109.082-.16.129-.469.457-.711.443-1.137-.043-.209-.236-.402-.549-.672-.654-.398-.158-.23-.395-.191-.613.129-.721.893-1.325 1.871-1.297M-16.606 131.468c-.129.482-.236.98-.395 1.463-.092.283-.777.41-1.215.268-.354-.119-.707-.248-1.068-.34-.625-.16-.814-.582-.566-1.182.424-1.043.973-1.002 1.867-.818.25.053.494.139.729.242.214.093.413.23.648.367M-13.851 168.462c.057-.238.074-.482.168-.695.248-.578.969-.842 1.639-.596.408.148.801.354 1.209.514.113.045.252.012.387.02.178.893-.342 1.41-1.012 1.842-.072.045-.203.113-.232.088-.518-.439-1.393-.178-1.771-.908-.067-.128-.268-.189-.388-.265M29.228 63.489c.516.242 1.041.472 1.545.74.104.057.18.27.174.406-.012.439-.881 1.48-1.312 1.582-.121.029-.291.012-.383-.059-.422-.309-.873-.604-1.207-.992-.146-.172-.133-.592-.037-.84.191-.5.488-.956 1.191-.693.007-.049.019-.097.029-.144M86.177 125.729c-.123.041-.293.047-.35.129-.111.166-.129.395-.24.561-.252.375-1.074.594-1.523.557-.971-.088-1.402-.785-1.828-1.5-.061-.098-.023-.248-.055-.369-.145-.633-.273-1.266-.451-1.887-.109-.391-.045-.689.291-.908.658-.436 1.338-.768 2.166-.52.848.254 1.709.471 2.557.738.348.111.357.393.137.648-.332.385-.375.787-.316 1.289.053.449-.129.924-.209 1.385-.06-.04-.121-.08-.179-.123M70.706 100.909c-.117.336-.195.717-.375 1.045-.264.484-.352 1.168-1.113 1.182-.174.004-.352-.051-.521-.1-.396-.111-.662-.5-1.164-.436-.148.02-.344-.391-.533-.59-.229-.24-.484-.449-.701-.695-.449-.512-.236-1.91.32-2.287.285-.191.535-.445.836-.611.904-.498 1.836-.455 2.748-.014.449.221.883.479 1.299.756.482.324.414.609.223 1.25-.181.615-.496.612-1.019.5M97.729 137.964c.217-.248.363-.375-.039-.521a3.842 3.842 0 01-1.232-.725c-.199-.172-.295-.545-.297-.83-.004-.441.119-.883.16-1.328.02-.17-.115-.455-.049-.506.486-.361.969-.814 1.525-.973.689-.189 1.348.121 1.867.662.18.188.404.342.633.465.473.252.48.504.166.926-.256.342-.391.779-.527 1.191-.094.291-.082.619-.162.916-.139.506-.688.77-1.283.686-.222-.033-.461.019-.762.037M55.634 180.495c.033-.156.059-.258.057-.252-.574-.08-1.186-.072-1.723-.27-.512-.186-1.023-.518-1.043-1.209-.012-.381-.436-.68-.26-1.102.523-1.256 1.602-1.947 2.941-1.328.314.145.656.258.93.463.709.543.977.768.752 1.729-.039.168-.016.35-.031.527-.039.521-.402.963-.912 1.137-.223.079-.432.184-.711.305M81.72 173.218c.037-.156.061-.258.061-.252-.578-.078-1.188-.07-1.725-.27-.512-.186-1.021-.518-1.045-1.207-.012-.383-.434-.682-.256-1.104.523-1.256 1.602-1.947 2.941-1.326.314.143.656.26.928.465.709.539.975.766.754 1.727-.041.168-.02.352-.031.525-.039.521-.404.965-.912 1.139-.223.076-.434.182-.715.303M73.052 114.667c.695.006 1.301.18 1.691.832.182.297.443.543.656.824.043.059.07.201.033.242-.469.535-.496 1.23-.699 1.863-.158.506-.537.607-1.115.521-.25-.037-.559-.299-.811.031-.318-.26-.639-.514-.955-.771-.186-.156-.357-.34-.559-.48-.254-.18-.609-.24-.475-.723.059-.209-.117-.479-.156-.727-.02-.143-.047-.363.033-.428.693-.573 1.318-1.299 2.357-1.184M65.792 173.778c.273.867 1.342.846 2.033 1.477-.492.236-.646.873-1.303.779-.031-.002-.152.217-.123.295.092.266.117.443-.162.65-.232.172-.332.514-.543.732-.275.285-.602.521-.92.797-.652-.463-1.293-.883-1.891-1.352-.287-.227-.508-.539-.365-.973.059-.178.02-.389.062-.57.277-1.152 1.301-1.453 2.207-1.85.271-.117.644.004 1.005.015M94.685 72.28c.566-.026 1.15.342 1.715.737.125.085.197.28.236.438.078.315.223.67.146.96-.117.465-.307.969-.625 1.307-.283.302-.764.459-1.188.583-.766.221-1.135.271-1.609-.325-.197-.248-.5-.416-.766-.61-.312-.233-.438-.532-.424-.923.006-.182-.113-.363-.162-.55-.021-.078-.039-.206.002-.243.729-.646 1.384-1.439 2.675-1.374M84.901 132.692c-.08-.018-.16-.033-.271-.057.033.094.074.168.084.246.049.51-.191.824-.734.818-.504-.006-.658.238-.797.67-.139.412-.426.775-.625 1.117l-2.51-1.512c-.074-.336-.092-.631-.199-.891-.18-.432.053-.771.322-.945.764-.488 1.582-.869 2.545-.678.539.107 1.098.145 1.621.291.426.119.742.4.564.941M73.37 83.774c-.217.555-.445 1.104-.637 1.668-.129.371-.16.777-.297 1.143-.223.588-.91.727-1.43.377-.311-.207-.695-.301-1.031-.479-.703-.371-1.18-.91-1.121-1.762.016-.225.061-.514.205-.654.997-.964 3.016-1.089 4.311-.293M89.847 99.339c-.121.506-.23 1.016-.361 1.52-.143.559-1.207 1.244-1.836 1.197-.326-.023-.602-.1-.822-.389-.285-.371-.674-.666-.943-1.041-.389-.543-.287-1.188-.07-1.738.199-.502 1.418-.904 1.984-.711.615.209 1.338.254 1.666.979.044.099.251.122.382.183M93.403 113.552c-.006 0-.062.01-.107-.012-.922-.438-1.805-.918-2.441-1.77-.232-.312-.236-.564.027-.793.395-.344.484-1.045 1.158-1.043.574 0 1.154.025 1.719.121.307.051.727-.139.906.357.104.291.402.521.484.814.062.234.314.562-.131.805-.15.08-.248.473-.191.666.15.506-.217.621-.504.734-.263.109-.58.084-.92.121M96.019 96.845c1.018.004 1.787.432 2.223 1.369.051.113-.021.316-.096.441-.172.301-.439.561-.561.879-.193.527-.654.66-1.088.801-.531.174-1.52-.283-1.818-.773a4.253 4.253 0 01-.301-.539c-.139-.328-.459-.83-.35-.965.482-.584.891-1.393 1.883-1.217.035.008.072.004.108.004M79.937 92.935c-.047-.451-.137-.965-.146-1.479-.01-.518.826-1.225 1.342-1.244.662-.031 1.264.135 1.848.436.471.24.623.826.373 1.303a2.116 2.116 0 00-.23.883c-.012.414-.342.391-.568.48-.266.107-.564.133-.848.193-.475.105-.943.227-1.254-.344-.064-.117-.305-.139-.517-.228M81.487 79.562c-1.051-.053-1.738-.617-2.373-1.264-.098-.1-.129-.324-.102-.479.131-.768 1.111-1.463 1.889-1.35.562.082 1.131.158 1.682.293.166.043.412.293.398.428a13.372 13.372 0 01-.332 1.811c-.168.691-.839.346-1.162.561M95.755 87.722c0-.885 1.178-1.721 2.014-1.443.451.146.867.393 1.299.584.1.047.242.035.314.105.123.123.322.322.289.43-.215.723-.525 1.404-1.193 1.834-.893.574-1.557.369-2.271-.426-.333-.368-.311-.756-.452-1.084M101.911 120.778c-.227-.109-.455-.211-.674-.326-.332-.172-.641-.467-.982-.5-.305-.031-.275-.129-.305-.324-.02-.168-.049-.391-.156-.477-.357-.268-.229-.67-.078-.826.357-.367.822-.85 1.268-.875.77-.049 1.672-.018 2.156.797.217.363.357.816.381 1.238.019.422-1.114 1.233-1.61 1.293M75.886 104.167c.014-.02.053-.074.092-.125.277-.354.512-.947.844-1.01.557-.104 1.189.084 1.768.234.76.199 1.068.943 1.076 1.543.006.486-.51 1.008-.863 1.459-.25.312-.645.287-.996.102-.107-.057-.193-.158-.283-.244-.059-.055-.088-.158-.15-.178-.311-.092-1.074-.801-1.209-1.133-.082-.205-.176-.406-.279-.648M71.892 128.269l-.346.264c.055-.064.111-.131.17-.193-.203-.113-.42-.209-.605-.344-.471-.338-.777-1.379-.449-1.807.186-.248.6-.447.912-.451.705-.012 1.451-.141 2.086.355.232.18.332.309.205.641-.164.424-.197.9-.275 1.357-.141.828-.361.953-1.109.592-.201-.096-.369-.256-.589-.414M88.593 85.509c-.127.482-.236.982-.395 1.465-.09.281-.777.406-1.213.266-.355-.117-.707-.244-1.07-.34-.625-.156-.816-.582-.568-1.182.43-1.039.975-1 1.871-.816.248.051.494.139.727.242.216.093.411.23.648.365M91.351 122.507c.053-.238.072-.484.166-.699.25-.574.973-.838 1.641-.594.41.15.801.354 1.207.514.115.043.254.014.389.018.176.896-.342 1.414-1.014 1.844-.072.045-.201.115-.23.088-.52-.439-1.393-.178-1.775-.908-.064-.126-.265-.187-.384-.263M44.407 14.51c-.855-.468-1.777-.532-2.271-1.38-.199-.344-.586-.514-.836-.862-.707-.991-.785-1.992-.07-2.977.221-.306.418-.629.646-.93.402-.534 1.016-.771 1.619-.834 1.43-.152 2.809-.014 3.984.99.973.831 1.215 1.896.512 2.968-.494.75-.979 1.547-1.639 2.126-.523.459-1.308.619-1.945.899M48.358 26.026c1.357.099 2.518.442 3.256 1.497.467.663.654 1.477.295 2.3-.02.049-.062.091-.068.14-.158 1.604-1.314 2.329-2.617 2.87-.354.148-.826.086-1.23.025-.473-.069-.904-.24-1.121-.767-.078-.188-.389-.277-.576-.425-.1-.081-.211-.185-.252-.302-.25-.743-.525-1.482-.717-2.242-.318-1.271.943-2.906 2.268-3.005.292-.022.581-.071.762-.091m1.973 4.713c-.666.481-1.307.583-1.715.206-.322-.306-.643-.622-.975-.919-.074-.064-.197-.076-.361-.136.082.658.506.97.859 1.366.641.714 1.129.602 1.875-.066.135-.121.212-.299.317-.451M56.563 16.176c-.248-1.265.631-1.903 1.391-2.612a.271.271 0 01.182-.076c1.039.048 2.121-.156 3.105.316.469.226.941.531 1.289.911.314.345.33.857.371 1.352.043.531.021.988-.301 1.399-.602.765-1.182 1.549-1.846 2.251-.338.356-.795.737-1.381.271-.129-.102-.436.032-.58-.064a3.357 3.357 0 01-.822-.744c-.357-.468-.562-1.013-1.041-1.444-.348-.318-.354-1.022-.512-1.554.05-.001.097-.004.145-.006M67.274 50.72c.246.354.34.715.076 1.26-.227.471-.371.921-.828 1.238-.85.586-1.705.699-2.621.182-.352-.199-.791-.326-1.027-.618-.236-.291-.256-.749-.383-1.129-.066-.201-.105-.448-.244-.581-.631-.603-.773-1.389-.336-2.139.158-.267.314-.541.514-.775.561-.662 1.357-.747 2.098-.562.867.212 1.682.631 2.518.951.547.208.771.688.779 1.174.003.307-.325.62-.546.999m-.99-.95c.178.273.34.526.506.776.191-.574.006-.782-.506-.776M30.786 8.317c.018.104.01.372.121.57.232.416.096.758-.018 1.175-.221.827-.834 1.384-1.273 2.048-.492.741-1.367.632-2.133.53-.406-.055-.893-.178-1.162-.447-.525-.526-.977-1.147-1.361-1.789-.264-.445.195-1.4.512-1.837.41-.567 1.039-.652 1.545-.979 1.119-.727 1.996-.157 2.932.296.257.126.511.264.837.433M74.022 30.557c-.396-.159-.613-.616-1.08-.324.221.42.5.791.459 1.271-.039.458-.088.915-.139 1.441-.535.205-1.104.52-1.705.626-.508.09-1.057-.044-1.584-.114-.307-.042-.604-.154-.904-.236-.018-.005-.037-.008-.047-.021-.404-.533-.934-1.015-1.172-1.614-.15-.381.043-.971.234-1.399.428-.968 1.064-1.798 2.27-1.723 1.303.083 2.576.314 3.598 1.269.332.308.27.542.07.824M34.483 24.376c.127-.38.223-1.004.539-1.484.242-.369.738-.728 1.162-.784.803-.104 1.6.171 2.322.555.285.152.523.396.781.597.607.474.678.859.328 1.529-.176.332-.258.709-.441 1.035a3.347 3.347 0 01-.594.742c-.221.217-.498.373-.738.572-.707.577-1.4.355-2.076-.046-.425-.255-1.298-2.007-1.283-2.716M10.962 34.925a3.764 3.764 0 01-2.236-1.679c-.445-.732-.369-.923.133-1.613.486-.667 1.166-.943 1.877-1.212.035-.012.066-.037.1-.034.93.066 1.887.014 2.715.562.133.088.271.256.301.409.152.839.213 1.671-.352 2.418-.563.74-1.452 1.191-2.538 1.149M55.247-13.31c1.104.068 2.303.905 2.48 1.887.078.419.023.985-.215 1.308-.383.523-.93.958-1.477 1.323-.32.21-.789.324-1.162.275-.363-.05-.736-.314-1.025-.574-.518-.47-.883-1.065-1.266-1.662-.336-.521-.078-.691.064-1.054.334-.854.988-1.25 1.83-1.423.252-.052.513-.055.771-.08M20.712 47.284c.127-.149.299-.256.32-.388.156-.91.979-.975 1.6-1.184.289-.095.533-.466.99-.242.842.412 1.693.753 2.291 1.547.52.688.527.862-.158 1.636-.635.722-1.352 1.253-2.297 1.426-.232.042-.506-.095-.752-.177-.172-.056-.32-.181-.49-.231-.463-.133-.818-.359-1.039-.818-.203-.416-.484-.786-.301-1.287.021-.059-.098-.17-.164-.282M9.298 18.017c.443.154.941.337 1.445.499.166.052.352.031.518.076.062.02.1.131.156.196.086.099.156.243.266.287.488.201.354.526.299.923-.043.307-.301.576-.061 1.01.131.24-.258.911-.572 1.221-.58.572-1.293.508-2.066.235-.951-.338-1.539-1.063-2.189-1.736-.275-.285-.289-1.253.014-1.483.512-.392 1.061-.738 1.607-1.08.138-.086.329-.087.583-.148M16.608 15.807a2.163 2.163 0 011.078-2.037c.775-.443 1.715-.449 2.58-.023.289.143.662.199.867.415.227.243.379.612.439.951.086.48-.174.921-.293 1.378-.131.507-.367.838-.715 1.157-.52.476-1.672.546-2.189.064-.443-.413-.803-.913-1.207-1.369-.146-.163-.317-.305-.56-.536M3.759 6.805a2.162 2.162 0 011.08-2.038c.773-.444 1.713-.447 2.578-.022.289.143.662.198.867.415.229.243.379.613.439.95.089.481-.173.922-.29 1.38-.133.505-.368.837-.717 1.156-.52.475-1.67.546-2.191.064-.441-.415-.799-.915-1.205-1.37-.147-.163-.319-.304-.561-.535M57.192 1.609c.086-.266.121-.581.279-.809.574-.818 1.188-1.66 2.299-1.712.67-.032 1.346.149 1.855.645.271.263.66.484.65.925-.006.278-.16.549-.189.831-.102.989-.754 1.482-1.596 1.784-.168.061-.396-.078-.598-.08-.428-.006-.867.077-1.281.006-.258-.044-.51-.273-.711-.474-.238-.237-.424-.529-.621-.808-.051-.076-.053-.188-.087-.308M68.481-8.049c.717.268 1.529.529 2.295.888.189.088.27.489.312.761.018.094-.199.271-.346.341-.482.232-.25.773-.51 1.111-.227.293-.301.721-.562.961-.178.163-.584.192-.85.127-.965-.25-1.764-.867-2.631-1.332-.16-.086-.492-.342-.234-.722.102-.148.051-.413.043-.624-.04-.736.526-.955 1.042-1.162.406-.164.857-.214 1.441-.349M15.087 1.173c-.777-.092-1.979-.953-2.279-1.622-.383-.853-.217-1.436.654-1.845.438-.206.865-.55 1.318-.586 1.127-.091 2.186.203 2.98 1.078.115.127.107.528-.008.679-.49.653-.82 1.459-1.607 1.85-.343.169-.703.297-1.058.446M27.427 26.673c.059.945-.154 1.795-1.037 2.27-.439.237-.975.398-1.457.389-.293-.006-.582-.401-.867-.631-.578-.463-1.033-1.014-1.098-1.79-.02-.213-.031-.45.045-.64.498-1.26 1.355-1.361 2.412-1.17.584.106 1.145.352 1.705.557.098.038.193.186.219.296.05.235.052.479.078.719M69.856 42.42c-.131-.038-.441-.032-.541-.175-.418-.58-1.057-.916-1.42-1.6-.377-.702-.172-1.163.164-1.663.17-.248.467-.434.742-.578.283-.149.604-.266.92-.307.873-.117 1.516.451 2.215.825.123.066.166.377.154.57-.031.521-.061 1.052-.184 1.557-.284 1.189-.927 1.276-2.05 1.371M17.81-7.31c-.133-.04-.443-.032-.545-.176-.416-.58-1.055-.915-1.418-1.598-.377-.704-.172-1.164.164-1.664.17-.248.467-.434.738-.578.287-.148.605-.266.922-.308.871-.117 1.518.451 2.217.827.123.065.164.376.154.568-.031.521-.061 1.052-.182 1.557-.287 1.189-.929 1.277-2.05 1.372M36.376 35.771c-.135-.038-.441-.032-.543-.175-.416-.58-1.055-.915-1.42-1.599-.375-.703-.17-1.162.166-1.664.166-.248.465-.434.74-.578.283-.149.604-.266.92-.307.871-.118 1.52.45 2.217.824.121.066.164.378.154.569-.033.521-.064 1.053-.182 1.558-.288 1.19-.931 1.276-2.052 1.372M47.126 44.138c.047.91-.541 1.714-1.256 2.388-.24.226-.785.213-1.178.169-.227-.024-.424-.319-.623-.508-.086-.08-.109-.253-.201-.292-.908-.384-1.105-1.2-1.156-2.035-.016-.28.26-.64.498-.863.627-.592 1.422-.659 2.24-.548.102.013.197.067.297.082 1.303.205 1.166.156 1.379 1.607M37.493 52.849c.85.326 1.709.634 2.547.988.299.126.299.541-.012.646-.691.233-.781.887-1.104 1.382-.24.374-.459.78-.771 1.083-.283.275-.691.37-1.043.047-.359-.33-.693-.689-1.049-1.023-.107-.098-.275-.132-.381-.232-.178-.163-.484-.375-.463-.531.062-.501.119-1.112.428-1.448.438-.468 1.053-.843 1.789-.768.022-.049.038-.097.059-.144M72.169.736c.85.326 1.707.634 2.547.986.301.127.301.542-.012.648-.691.231-.781.885-1.104 1.381-.24.373-.459.779-.77 1.083-.283.274-.691.368-1.043.047-.361-.33-.693-.689-1.051-1.022-.105-.099-.275-.133-.381-.232-.178-.164-.482-.376-.461-.532.062-.5.117-1.113.428-1.447.438-.468 1.053-.845 1.787-.769.023-.048.038-.096.06-.143M41.337-1.224l-.732 2.261c-.037-.034-.076-.067-.113-.102-.276.065-.55.186-.825.187-.621.001-1.244-.074-1.736-.516-.229-.203-.469-.413-.629-.666-.898-1.427-.1-2.031 1.158-2.527 1.078-.426 2.008.175 2.938.595.189.085.289.366.48.633l-.541.135M6.735 44.543l-.477-.174c-.012.048-.035.076-.025.092.068.148.174.286.201.44.143.784-.088 1.502-.684 1.981-.281.224-.861.321-1.193.192-1.041-.407-1.574-1.294-1.789-2.366-.027-.138.074-.357.189-.457.508-.438 1.02-.875 1.568-1.256.324-.224 1.779.079 1.955.42.166.31.167.7.255 1.128M33.642 39.556c.965.025 1.619.565 2.201 1.237.043.048.088.123.084.181-.041.538-.047 1.082-.152 1.607-.131.666-1.154 1.083-1.803.843-.975-.357-1.506-1.141-1.984-1.974-.096-.168-.062-.5.043-.675.24-.398.529-.785.873-1.095.154-.141.486-.088.738-.124M59.46 31.573c.348.045.848.096 1.344.174.465.074.953.77.838 1.222a7.698 7.698 0 01-.424 1.253c-.377.822-1.262 1.029-2.012.513-.438-.302-.904-.564-1.346-.869-.23-.161-.531-.333-.615-.566-.086-.243.031-.572.111-.85.305-1.04 1.17-.861 2.104-.877M37.073-9.106c-.818-.066-1.229-.672-1.723-1.087-.322-.272-.545-.686-.74-1.073-.08-.156-.045-.467.062-.606.602-.755 1.898-1.022 2.783-.6.342.161.674.348 1.002.539.414.236.551.525.291 1.003-.283.522-.32 1.192-.984 1.465-.24.097-.462.236-.691.359M30.919-1.894c-.238.116-.414.271-.586.269-.312-.004-.42.133-.492.401-.186.678-.807.913-1.342 1.187-.195.099-.572.003-.781-.135-.629-.408-1.412-.772-1.434-1.645-.006-.325.34-.737.635-.974.76-.605 1.633-.529 2.463-.153.449.204.85.518 1.27.788.076.05.132.129.267.262M54.37 50.623c-.283.07-.539.106-.773.2-.543.215-1.029.07-1.41-.382-.201-.237-.492-.391-.727-.598-.479-.421-.348-1.274.16-1.619.766-.515 1.547-.339 2.344-.186.15.027.295.089.445.133.617.185.84.675.561 1.266-.201.425-.426.842-.6 1.186M20.972 38.589c-.145-.379-.297-.68-.373-.999-.045-.186-.029-.437.066-.597.166-.272.514-.465.604-.749.146-.454.525-.45.82-.498.426-.068.875-.013 1.311.029.311.033.684.793.623 1.226-.104.688-.492 1.208-1.002 1.653-.377.325-.781.306-1.104-.019-.305-.306-.568-.334-.945-.046M13.554 39.977c.271.176.732.472 1.189.771.033.023.068.109.051.137-.324.515-.119 1.358-.949 1.57-.062.016-.111.083-.162.132-.469.454-.711.44-1.137-.045-.209-.237-.402-.549-.67-.656-.398-.158-.232-.395-.191-.613.13-.719.888-1.323 1.869-1.296M48.702-3.213c.52.242 1.045.472 1.549.741.102.056.176.268.172.405-.012.439-.881 1.481-1.311 1.584-.121.027-.293.011-.387-.06-.42-.31-.869-.604-1.201-.993-.15-.172-.137-.592-.041-.839.191-.501.488-.957 1.191-.693.011-.049.02-.096.028-.145M24.927-118.293c-.854-.469-1.773-.533-2.266-1.381-.201-.344-.59-.513-.838-.861-.709-.991-.789-1.993-.07-2.978.221-.306.418-.628.645-.93.404-.534 1.014-.77 1.619-.834 1.432-.153 2.811-.013 3.986.989.973.831 1.215 1.897.51 2.968-.492.75-.979 1.548-1.637 2.127-.523.459-1.309.619-1.949.9M36.925-48.502c.121 1.03-.369 1.875-1.506 2.307-.1.038-.266-.091-.49-.174.012.146-.01.332.039.499.301 1.051-.104 1.973-.568 2.851-.275.513-1.283.601-1.971.319-.994-.405-1.529-1.181-1.789-2.175-.164-.624-.334-1.249-.447-1.883-.146-.824-.201-1.674.332-2.391.434-.583.92-1.261 1.676-1.343 1.473-.163 2.932-.041 4.119 1.026.119.107.166.291.252.433.085.142.183.278.353.531M53.302-65.509l-.199-.469c-.279.37-.51.704-.77 1.014-.557.666-1.682.92-2.48.557-.889-.403-1.678-1.017-2.08-1.868-.371-.783-.549-1.718-.572-2.593-.035-1.147 1.424-2.692 2.564-2.849a3.03 3.03 0 011.357.151c.713.248 1.402.581 2.074.933.285.15.711 1.745.764 2.035.152.861-.482 1.507-.549 2.297-.019.216-.06.43-.109.792m-1.701-.929l.141.039c.68-.862.686-1.605.01-2.204-.605-.536-1.318-.625-1.67-.254.357.139.729.339 1.119.411.223.042.455-.057.531.256.059.245.199.497.172.73-.04.347-.196.683-.303 1.022M15.409-60.708c-.008-.931.373-1.561 1.145-2.159.711-.55 1.373-.496 2.115-.443.881.062 1.795.139 2.365.911.25.337.305.836.391 1.273.053.271-.057.577.01.84.104.428.176.817.074 1.274-.127.571-.623 2.009-1.047 2.254-.416.242-.926.338-1.402.469-1.143.314-1.889-.349-2.58-1.098-.864-.937-1.079-2.098-1.071-3.321M47.198-52.417c-.119.483-.119 1.068-.389 1.466-.338.486-.846 1.017-1.379 1.157-.609.163-1.334-.048-1.998-.158-.785-.132-1.422-.589-2.016-1.095-.51-.434-.564-.976-.383-1.596.09-.294.186-.649.104-.923-.275-.912.293-1.46.781-2.057.438-.53.975-.623 1.672-.612 1.514.021 2.67.729 3.754 1.632.357.3.621.724.887 1.12.293.441-.166.601-.391.801-.163.145-.429.181-.642.265M28.88-106.778c1.359.099 2.52.442 3.26 1.497.465.662.652 1.477.293 2.302-.02.047-.066.09-.068.139-.158 1.604-1.316 2.328-2.615 2.87-.357.148-.828.086-1.234.026-.471-.071-.906-.241-1.119-.769-.078-.188-.387-.275-.576-.425-.1-.08-.211-.184-.25-.301-.254-.743-.525-1.482-.719-2.243-.318-1.27.943-2.904 2.266-3.005.291-.022.582-.07.762-.091m1.971 4.713c-.662.481-1.305.583-1.709.205-.324-.305-.646-.621-.979-.917-.072-.066-.195-.077-.359-.137.082.658.506.97.859 1.366.639.715 1.127.602 1.875-.065.135-.121.211-.301.313-.452M37.087-116.629c-.248-1.264.631-1.904 1.391-2.612a.27.27 0 01.18-.076c1.041.048 2.123-.155 3.105.315.471.227.941.531 1.291.912.314.345.33.855.369 1.351.045.529.023.988-.301 1.4-.6.763-1.182 1.547-1.844 2.251-.34.354-.795.735-1.381.271-.127-.103-.438.031-.58-.066a3.337 3.337 0 01-.822-.744c-.357-.467-.562-1.013-1.039-1.443-.352-.318-.354-1.021-.512-1.554.045 0 .094-.002.143-.005M54.642-87.094c.248.355.34.715.076 1.26-.225.47-.371.922-.828 1.238-.85.585-1.707.699-2.621.181-.352-.199-.791-.325-1.027-.617-.236-.291-.254-.749-.383-1.129-.066-.201-.105-.448-.244-.58-.629-.603-.773-1.389-.336-2.139.158-.267.314-.54.514-.774.561-.662 1.355-.748 2.098-.564.865.213 1.682.633 2.52.953.545.207.77.687.777 1.173.002.306-.326.619-.546.998m-.991-.95c.178.274.34.526.506.776.192-.575.006-.781-.506-.776M29.136-63.931c-.801.632-.977-.183-1.373-.488-.396-.304-.822-.576-1.182-.916-.195-.184-.291-.481-.42-.731-.039-.074-.016-.21-.066-.241-.598-.365-.283-.994-.426-1.486-.053-.185.107-.489.256-.663.633-.725 1.404-1.105 2.41-1.177.898-.065 1.723.026 2.49.444.432.234.807.585 1.174.917.16.146-.207 1.235-.404 1.425-.18.168-.398.373-.439.593-.186 1.023-.908 1.65-1.613 2.294-.107.096-.268.133-.4.198-.003-.057-.007-.113-.007-.169M11.31-124.486c.02.103.01.372.123.57.23.416.094.758-.018 1.175-.221.827-.836 1.383-1.275 2.047-.492.741-1.367.63-2.133.528-.408-.054-.895-.175-1.162-.447-.527-.524-.979-1.146-1.361-1.788-.264-.444.193-1.399.512-1.836.41-.567 1.037-.652 1.545-.981 1.117-.725 1.996-.156 2.932.298.258.126.512.264.837.434M57.808-107.294c-.393-.158-.613-.617-1.078-.325.219.421.498.792.459 1.272-.037.458-.088.915-.137 1.441-.539.206-1.107.52-1.709.628-.506.089-1.059-.044-1.584-.115-.305-.042-.604-.155-.902-.236-.02-.004-.041-.01-.047-.021-.404-.532-.934-1.016-1.174-1.613-.148-.381.041-.973.236-1.401.428-.968 1.066-1.797 2.266-1.721 1.305.081 2.576.313 3.6 1.267.335.308.271.541.07.824M15.007-108.429c.127-.379.223-1.003.537-1.484.242-.368.742-.728 1.164-.784.803-.105 1.6.171 2.324.556.283.152.518.396.777.596.605.476.678.86.326 1.529-.174.333-.254.71-.436 1.036a3.447 3.447 0 01-.594.743c-.221.216-.498.373-.74.57-.707.578-1.4.358-2.076-.045-.427-.255-1.302-2.006-1.282-2.717M-19.028-27.821c-.117.041-.287.047-.346.13-.111.166-.129.395-.238.56-.254.377-1.074.595-1.521.556-.973-.086-1.404-.783-1.832-1.5-.059-.099-.023-.248-.055-.368-.145-.632-.271-1.266-.451-1.886-.109-.392-.045-.689.293-.911.658-.434 1.336-.766 2.162-.519.854.254 1.715.472 2.559.74.35.109.355.392.139.648-.332.383-.373.787-.318 1.29.053.448-.127.924-.205 1.384l-.187-.124M11.271-46.732c-.02.181 0 .375-.059.541-.053.155-.152.336-.285.411-.477.266-.871.462-.744 1.195.104.577-.35 1.063-.916 1.42.027-.133.041-.207.053-.283-.035.001-.066-.007-.09.003-.408.172-.801.397-1.223.492-.152.034-.439-.201-.553-.383-.418-.689-.877-1.374-1.156-2.122-.225-.608-.09-1.292.217-1.899.029-.059.102-.115.104-.175.012-.777.637-.944 1.184-1.122.566-.187 1.15-.15 1.672.207.084.057.174.139.268.153.691.097.941.636 1.207 1.168.074.148.209.264.321.394M-34.493-52.642c-.119.336-.197.717-.375 1.047-.264.482-.352 1.167-1.113 1.18-.174.004-.354-.051-.523-.099-.393-.11-.662-.501-1.16-.436-.152.019-.346-.391-.535-.59-.229-.239-.486-.45-.701-.696-.449-.51-.238-1.91.32-2.285.287-.192.535-.447.834-.611.906-.5 1.838-.457 2.75-.014.447.219.883.478 1.299.754.482.326.414.61.225 1.251-.185.616-.5.612-1.021.499M9.157-72.107c-.064.074-.107.099-.107.124.01.92-.67 1.335-1.307 1.776-.096.065-.24.134-.338.106-.869-.255-1.814-.391-2.393-1.208-.598-.85-.307-2.355.533-3.053.479-.399.906-.83 1.609-.831.787-.001 1.484.231 2.08.711.537.43.912.982 1.119 1.669.113.375.023.612-.234.781-.246.162-.562.386-.828-.019-.02-.032-.087-.038-.134-.056M47.665-17.502c-.529.625-.951 1.382-1.943 1.322-.049-.004-.113.103-.16.169-.064.101-.117.21-.18.313-.508.836-.969 1.006-1.881.657-.475-.18-.994-.323-1.373-.633-.275-.225-.4-.681-.506-1.059-.426-1.526.287-2.284 1.691-2.624 1.373-.331 2.443.117 3.416 1.014.295.273.598.537.936.841M-8.515-97.879a3.775 3.775 0 01-2.236-1.68c-.447-.731-.369-.922.133-1.612.486-.668 1.168-.944 1.877-1.212.031-.012.064-.036.098-.034.93.067 1.891.013 2.715.562.135.087.271.257.303.409.152.839.211 1.67-.352 2.418-.561.74-1.454 1.191-2.538 1.149M52.649-46.462c.215-.284.383-.632.658-.84 1.109-.836 1.842-.685 3.084-.009.496.269.977.738 1.217 1.237.213.429.236 1.093.053 1.531-.191.456-.713.788-1.125 1.13-.178.145-.445.175-.631.148-.283-.099-.562-.226-.855-.292-.506-.109-1.035-.134-1.521-.293-.27-.09-.496-.361-.707-.58-.166-.168-.283-.382-.424-.576l-.195.026c.111-.526.221-1.051.33-1.577.042.03.079.062.116.095M51.2-126.009c1.104.067 2.301.904 2.482 1.886.074.418.02.986-.217 1.309-.385.524-.926.958-1.477 1.322-.318.21-.789.325-1.164.275-.359-.05-.732-.316-1.021-.574-.521-.47-.885-1.065-1.268-1.662-.338-.523-.078-.691.064-1.054.334-.854.988-1.25 1.826-1.423.254-.05.517-.054.775-.079M52.8-28.715c-.158-.242-.4-.182-.719-.04-.842.378-1.127.421-1.723-.265-.342-.394-.793-.791-.727-1.412.021-.223.09-.441.148-.658.08-.292.178-.58.264-.872.23-.779.557-1.486 1.43-1.722.209-.059.494-.122.656-.031.656.359 1.471.54 1.738 1.396.061.189.234.345.283.535.131.531-.078 1.057-.08 1.587-.002.148-.002.308.045.444.096.25-.434 1.036-.699 1.023-.181-.008-.364.008-.616.015M1.233-85.521c.129-.149.301-.256.322-.387.154-.909.977-.975 1.602-1.184.287-.096.531-.465.988-.241.84.412 1.695.752 2.289 1.546.52.688.529.862-.154 1.635-.635.723-1.355 1.253-2.299 1.426-.232.043-.504-.095-.75-.176-.174-.056-.322-.181-.492-.23-.463-.133-.82-.36-1.041-.82-.203-.415-.48-.785-.297-1.287.02-.058-.097-.171-.168-.282M-10.179-114.789c.445.155.941.338 1.443.501.164.052.352.031.518.076.064.018.104.13.156.194.088.1.158.243.27.287.486.201.352.528.295.924-.041.305-.299.575-.062 1.009.135.24-.254.911-.566 1.222-.586.572-1.297.508-2.068.235-.951-.337-1.537-1.063-2.189-1.737-.275-.284-.289-1.252.012-1.482.514-.391 1.062-.736 1.609-1.08.135-.086.324-.087.582-.149M14.038-42.401c.18-.44.322-1.018.633-1.477.287-.417.725-.763 1.16-1.035 1.018-.64 1.809-.359 2.41.707.398.706.73 1.405.646 2.232-.043-.034-.082-.07-.123-.104-.166.143-.439.262-.48.435-.24 1.048-1.051 1.242-1.924 1.443-.521.118-.869-.037-1.172-.403-.332-.409-.707-.795-.744-1.379-.007-.123-.22-.233-.406-.419M-2.868-116.997a2.159 2.159 0 011.078-2.036c.775-.445 1.715-.449 2.582-.023.287.143.66.198.863.415.227.244.381.613.441.95.086.481-.174.923-.293 1.38-.131.507-.365.838-.715 1.158-.52.474-1.674.544-2.189.063-.443-.413-.801-.914-1.209-1.368-.144-.166-.316-.308-.558-.539M39.987-79.197c-.002-.105.029-.295-.016-.465-.15-.563.146-1.211.666-1.473 1.01-.511 2.016-.454 3.1-.211.787.178 1 .69 1.236 1.279.02.046-.039.121-.051.185-.098.49-.193.978-.293 1.468-.109.562-.627.76-1.135.907-.832.243-1.375-.111-2.031-.48-.352-.197-.871-.152-1.166-.522-.142-.173-.193-.417-.31-.688M37.716-131.195c.086-.267.121-.581.279-.809.574-.82 1.188-1.662 2.299-1.714.67-.031 1.348.149 1.857.645.27.263.658.485.648.926-.006.278-.158.549-.191.831-.1.988-.75 1.483-1.594 1.784-.168.061-.398-.077-.598-.08-.43-.005-.867.078-1.281.006-.258-.045-.51-.272-.713-.473-.236-.237-.422-.529-.617-.808-.054-.076-.056-.188-.089-.308M-7.468-15.585c.213-.25.363-.375-.043-.522a3.988 3.988 0 01-1.232-.725c-.195-.172-.291-.546-.295-.829-.006-.442.117-.885.16-1.328.016-.172-.117-.456-.049-.508.486-.362.967-.814 1.525-.971.688-.192 1.35.121 1.865.663.18.186.408.34.635.463.475.251.48.505.166.927-.256.34-.389.779-.527 1.191-.098.291-.086.617-.164.915-.135.505-.684.77-1.279.686-.227-.032-.461.019-.762.038M24.72-32.518c.035-.156.061-.258.059-.251-.574-.08-1.188-.072-1.725-.27-.512-.188-1.021-.517-1.043-1.209-.012-.38-.436-.678-.258-1.102.523-1.256 1.6-1.947 2.941-1.329.314.144.656.261.93.466.709.541.975.765.752 1.727-.043.168-.018.351-.031.526-.039.522-.406.963-.912 1.138-.223.078-.434.184-.713.304M49.007-140.854c.717.268 1.525.53 2.293.888.189.088.266.489.312.76.016.094-.201.271-.348.341-.48.232-.25.772-.508 1.11-.227.294-.301.722-.564.96-.176.163-.58.194-.846.127-.967-.248-1.766-.865-2.633-1.331-.162-.086-.494-.341-.234-.721.104-.148.051-.413.039-.625-.037-.735.531-.953 1.045-1.162.407-.161.858-.211 1.444-.347M-4.388-131.632c-.777-.091-1.979-.951-2.279-1.621-.383-.853-.219-1.436.652-1.846.438-.207.865-.55 1.316-.586 1.129-.09 2.188.203 2.98 1.078.119.128.109.528-.004.679-.492.655-.826 1.459-1.609 1.85-.341.171-.702.298-1.056.446M-32.147-38.884c.697.008 1.299.181 1.693.832.176.298.441.544.65.826.047.059.072.201.039.241-.471.537-.498 1.229-.699 1.863-.16.507-.537.61-1.121.523-.248-.038-.557-.3-.807.03-.318-.258-.641-.513-.955-.771-.188-.157-.359-.339-.557-.48-.256-.181-.613-.241-.479-.724.061-.209-.113-.478-.152-.725-.021-.143-.047-.364.029-.429.694-.575 1.319-1.298 2.359-1.186M7.95-106.132c.059.945-.158 1.795-1.039 2.271-.436.236-.971.398-1.459.389-.293-.006-.578-.4-.861-.631-.58-.466-1.035-1.016-1.1-1.79-.021-.212-.031-.449.047-.64.494-1.261 1.352-1.361 2.41-1.172.586.106 1.143.352 1.703.558.098.037.193.185.221.297.051.234.053.479.078.718M9.052-16.898c.275.864 1.34.846 2.033 1.474-.494.241-.645.873-1.305.782-.027-.003-.148.216-.121.295.094.264.117.442-.16.649-.234.172-.336.514-.545.733-.273.285-.6.522-.922.796-.65-.463-1.289-.881-1.887-1.353-.289-.226-.51-.537-.369-.97.059-.179.02-.387.064-.57.277-1.155 1.301-1.453 2.205-1.851.272-.117.643.003 1.007.015M-10.513-81.27c.564-.026 1.148.343 1.713.737.121.085.197.28.236.438.076.317.221.67.148.96-.121.464-.311.969-.629 1.307-.283.303-.762.46-1.186.582-.768.222-1.135.272-1.609-.324-.197-.248-.5-.416-.766-.61-.312-.233-.438-.531-.426-.924.008-.181-.113-.363-.162-.549-.021-.078-.039-.206.002-.244.73-.644 1.384-1.437 2.679-1.373M59.978-92.72c-.133-.039-.443-.032-.543-.174-.42-.581-1.057-.916-1.42-1.6-.377-.703-.172-1.162.162-1.664.17-.248.465-.432.74-.578.285-.149.605-.265.926-.307.867-.117 1.514.451 2.211.826.125.065.168.376.156.568-.031.522-.062 1.054-.184 1.558-.285 1.188-.927 1.275-2.048 1.371M3.606-61.078l.359 1.225c-.332.442-.715.977-1.125 1.488-.199.251-.406.545-.812.454-.051-.011-.117-.025-.154-.002-.809.49-1.295-.226-1.889-.513-.119-.059-.195-.237-.256-.375a25.98 25.98 0 01-.578-1.392c-.029-.075.031-.195.07-.285.283-.623.604-1.215 1.342-1.391.943-.227 1.812-.068 2.596.529.141.111.311.185.447.262M27.646-88.666c.049.909-.537 1.713-1.252 2.388-.24.226-.787.213-1.178.169-.227-.023-.426-.319-.623-.507-.084-.081-.107-.254-.201-.292-.906-.385-1.105-1.2-1.156-2.035-.02-.281.262-.641.498-.862.627-.594 1.42-.661 2.24-.549.102.014.197.067.297.082 1.3.204 1.166.154 1.375 1.606M41.513-67.639c.098.186.219.364.289.56.07.197.307.38.035.635-.117.109-.096.357-.162.531-.053.139-.127.354-.225.375-.432.092-.668.41-.857.736-.311.544-.91.537-1.365.668-.35.1-.865-.184-1.232-.414-.314-.198-.529-.556-.777-.853-.291-.348-.246-.978.053-1.32.201-.234.453-.478.527-.757.133-.517.549-.568.904-.593.672-.051 1.355-.022 2.029.032.309.024.605.185.906.282-.043.042-.084.08-.125.118M19.054-77.82c.008-.56.064-1.167.619-1.465.775-.415 1.611-.523 2.453-.131.123.056.258.084.385.113.746.159 1.041.614.889 1.356a.6.6 0 00.025.254c.189.71-.221 1.234-.58 1.754-.08.111-.348.11-.531.124-.572.043-1.154.207-1.719-.067-.195-.096-.447-.161-.57-.318-.383-.494-1.096-.799-.971-1.62M-4.362-45.373c.156-.424.326-.892.5-1.358.189-.509 1.074-1.103 1.66-1.074a20.71 20.71 0 011.707.165c.418.053.822.563.701.948-.193.613-.463 1.202-.697 1.802-.059.142-.127.282-.17.429-.189.653-.705.943-1.371.792-.822-.188-1.574-.45-1.932-1.32-.053-.128-.217-.211-.398-.384M55.36-61.585c.283-1.172 1.014-1.871 2.334-1.744 1.152.113 2.082.589 2.59 1.712a30.52 30.52 0 01-.225.429l-.314-.136c-.303.526-.604 1.056-.906 1.583-.215.37-1.186.786-1.566.644a.98.98 0 01-.416-.326c-.508-.713-1.001-1.441-1.497-2.162M60.544-119.897c.85.326 1.709.636 2.547.988.301.126.301.542-.012.647-.691.231-.781.885-1.104 1.381-.238.372-.459.778-.77 1.083-.281.274-.691.369-1.043.048-.361-.331-.693-.69-1.051-1.023-.107-.098-.271-.132-.379-.232-.18-.163-.484-.376-.463-.532.062-.501.119-1.113.428-1.447.438-.468 1.053-.846 1.791-.769.019-.049.036-.096.056-.144M-20.296-20.857a16.577 16.577 0 01-.273-.059c.033.095.074.17.082.247.051.508-.189.824-.73.819-.508-.006-.66.237-.801.668-.135.414-.426.777-.621 1.118-.947-.571-1.77-1.065-2.512-1.514-.072-.333-.092-.629-.199-.889-.18-.432.053-.769.322-.944.76-.489 1.58-.87 2.545-.679.537.109 1.096.145 1.621.291.425.12.742.399.566.942M21.862-134.028c-.264.802-.498 1.531-.736 2.261l-.111-.101c-.275.065-.551.183-.824.185-.623 0-1.242-.073-1.736-.515-.229-.204-.469-.413-.629-.666-.898-1.427-.104-2.032 1.16-2.527 1.076-.426 2.006.174 2.938.595.186.084.285.366.479.632l-.541.136M27.892-12.175c-.021-.333-.031-.646-.064-.957-.062-.68.389-.904.906-1.165.871-.438 1.666-.404 2.479.103.086.053.232.013.361.018.012.09.029.205.051.346.182.006.357.011.494.017.375 1.299.021 2.359-.865 3.235-.672-.228-1.242-.575-2.061-.771a1.8 1.8 0 00-1.301-.826M-31.831-69.773c-.213.553-.443 1.104-.637 1.668-.129.37-.158.775-.295 1.142-.223.587-.91.727-1.434.376-.309-.208-.691-.301-1.027-.479-.701-.372-1.18-.908-1.121-1.761.018-.225.059-.512.203-.653.998-.966 3.018-1.091 4.311-.293M5.88-35.9c1 .05 1.748.344 2.273.962.252.291.408.749.098 1.199-.379.556-.658 1.151-1.229 1.599-.516.405-.914.067-1.359.042-.422-.024-.525-.403-.709-.71-.221-.367-.504-.696-.758-1.041-.047-.062-.141-.154-.123-.189.246-.501.432-1.069.797-1.465.258-.275.774-.312 1.01-.397M-15.354-54.211c-.119.506-.23 1.015-.361 1.52-.139.557-1.205 1.243-1.834 1.197-.326-.023-.604-.099-.824-.389-.283-.371-.672-.663-.941-1.042-.389-.542-.287-1.187-.07-1.738.197-.501 1.416-.903 1.986-.71.611.208 1.334.254 1.666.979.042.098.247.123.378.183M-12.741-88.262c-.225-.083-.35-.126-.477-.172-.014.046-.035.074-.025.091.066.148.174.286.201.441.141.785-.088 1.5-.686 1.98-.279.224-.859.322-1.191.192-1.041-.407-1.574-1.295-1.787-2.366-.031-.138.072-.357.186-.456.51-.439 1.021-.875 1.57-1.256.324-.224 1.779.078 1.957.419.162.308.164.7.252 1.127M-11.796-39.999c-.004 0-.064.009-.107-.012-.924-.438-1.809-.917-2.443-1.769-.23-.313-.234-.564.031-.794.393-.343.484-1.043 1.152-1.043.576.002 1.156.026 1.723.123.303.051.725-.14.906.355.105.292.4.522.482.816.064.233.314.563-.129.804-.148.082-.248.473-.189.668.145.504-.221.621-.508.735-.264.105-.578.08-.918.117M14.167-93.248c.963.024 1.617.563 2.199 1.237.043.049.088.122.084.179-.039.539-.047 1.083-.154 1.607-.131.667-1.152 1.083-1.801.845-.973-.359-1.51-1.142-1.984-1.975-.096-.169-.062-.5.043-.675.24-.398.529-.786.873-1.095.156-.141.486-.088.74-.123M39.983-101.23c.344.044.848.096 1.344.174.465.073.955.769.838 1.221a7.55 7.55 0 01-.426 1.253c-.375.824-1.26 1.03-2.01.512-.438-.301-.906-.563-1.346-.867-.23-.161-.533-.334-.613-.568-.088-.241.029-.572.109-.849.304-1.041 1.171-.861 2.104-.876M36.397-29.425l-.475-.104c.164.714.021 1.33-.391 1.87a.968.968 0 01-.441.313c-.412.14-.84.24-1.203.341-.236-.181-.541-.371-.787-.621-.254-.258-.445-.578-.668-.865-.34-.433.076-.685.225-1.007.121-.258.213-.531.332-.791a.48.48 0 01.188-.204c.736-.419 1.494-.598 2.338-.319.599.199.972.732.882 1.387M60.663-77.151c-.217.046-.342.039-.365.083-.242.482-.465.975-.703 1.459a.773.773 0 01-.203.27c-.684.537-1.75.299-2.221-.455a1.88 1.88 0 00-.607-.576c-.631-.387-.584-1.496.146-1.95.391-.242.85-.485 1.285-.492.424-.006.896.218 1.27.459.472.308.865.733 1.398 1.202M20.794-18.022c-.588-.848-.418-1.758.438-2.543.52-.475 1.057-.729 1.736-.615.221.036.449.151.623.292.637.53.754 1.269.74 2.04-.002.108-.15.214-.227.324-.162.233-.578.301-.461.718.006.026-.062.095-.105.11-.352.112-.705.215-1.057.324-.352.107-.531-.08-.732-.343-.41-.534-.434-.519-.955-.307M-.829-71.315c-.152.106-.352.171-.406.299-.262.592-.785.808-1.338.959-.203.055-.561.011-.664-.126-.326-.436-.902-.565-1.148-1.126-.441-1.004-.551-1.45.279-2.133 1.166-.965 2.939.106 3.293 1.255.084.274-.008.603-.016.872M-9.185-56.705c1.021.003 1.791.431 2.225 1.37.051.111-.02.313-.094.439-.172.302-.439.56-.559.88-.199.528-.656.66-1.09.8-.533.172-1.523-.284-1.82-.771-.107-.177-.219-.354-.297-.543-.141-.325-.465-.828-.352-.962.48-.584.889-1.392 1.883-1.217.034.007.071.004.104.004M17.597-141.911c-.818-.066-1.229-.671-1.723-1.087-.322-.271-.543-.687-.74-1.072-.08-.157-.047-.469.061-.606.604-.756 1.898-1.022 2.781-.601.346.163.678.349 1.008.539.414.237.551.526.291 1.003-.285.523-.324 1.193-.988 1.466-.239.098-.462.236-.69.358M-25.261-60.616c-.049-.452-.141-.963-.148-1.478-.012-.519.826-1.223 1.34-1.245.662-.03 1.266.135 1.848.435.471.241.625.827.375 1.304a2.09 2.09 0 00-.23.883c-.014.416-.344.391-.57.481-.264.106-.561.134-.848.194-.475.104-.941.227-1.252-.345-.064-.117-.304-.141-.515-.229M-23.714-73.987c-1.053-.052-1.738-.618-2.371-1.262-.098-.102-.129-.327-.1-.48.129-.767 1.109-1.462 1.885-1.351.562.082 1.131.159 1.686.294.164.042.412.293.398.425a14.662 14.662 0 01-.33 1.813c-.17.691-.844.344-1.168.561M11.442-134.697c-.236.114-.414.271-.586.268-.312-.003-.42.133-.492.402-.188.677-.807.914-1.342 1.187-.193.098-.57.003-.779-.135-.633-.41-1.414-.773-1.436-1.645-.006-.325.34-.738.635-.974.76-.605 1.631-.529 2.463-.152.449.203.852.517 1.268.787.078.049.135.128.269.262M-9.446-65.829c0-.883 1.18-1.719 2.018-1.442.447.148.865.391 1.295.585.102.044.244.035.314.102.123.125.322.324.291.432-.215.721-.523 1.404-1.193 1.834-.893.574-1.557.368-2.273-.426-.333-.366-.31-.755-.452-1.085M-3.288-32.773c-.227-.109-.455-.211-.676-.326-.33-.17-.641-.465-.98-.498-.305-.031-.275-.13-.307-.326-.02-.166-.049-.391-.158-.475-.354-.268-.227-.671-.076-.827.361-.368.822-.848 1.268-.875.77-.048 1.676-.016 2.158.798.217.364.355.817.381 1.238.021.421-1.116 1.231-1.61 1.291M14.185-28.943c.457.04.861.055 1.262.116.59.087.996.903.764 1.461-.088.216-.186.447-.195.675-.023.805-.732.839-1.225 1.067-.178.081-.48-.111-.721-.184-.066-.021-.121-.088-.184-.093-.895-.055-.924-.948-1.35-1.444-.098-.115.055-.648.23-.75.485-.283.764-.951 1.419-.848M-29.317-49.384c.016-.018.055-.073.094-.124.279-.353.512-.947.846-1.009.555-.104 1.188.082 1.768.234.758.199 1.066.942 1.074 1.542.006.485-.508 1.009-.863 1.458-.246.315-.643.288-.994.103-.107-.056-.193-.157-.281-.246-.059-.055-.092-.157-.154-.175-.307-.092-1.07-.802-1.205-1.134-.084-.204-.178-.407-.285-.649M34.892-82.181c-.281.072-.535.107-.771.2-.543.215-1.029.07-1.412-.384-.199-.236-.49-.389-.725-.598-.477-.418-.35-1.272.16-1.616.766-.515 1.547-.34 2.344-.188.152.027.295.089.443.133.619.185.842.675.562 1.266-.201.427-.428.842-.601 1.187M1.495-94.216c-.145-.378-.297-.68-.373-.999-.045-.186-.029-.438.068-.596.164-.273.512-.465.602-.75.146-.454.525-.45.822-.498.424-.068.875-.013 1.311.031.309.032.682.792.617 1.224-.1.689-.488 1.208-.998 1.652-.375.327-.781.307-1.104-.018-.304-.305-.57-.333-.945-.046M-33.306-25.28c-.117.084-.232.173-.35.26.057-.062.113-.128.17-.191-.203-.113-.418-.209-.605-.345-.469-.336-.775-1.377-.449-1.805.188-.249.602-.447.914-.452.705-.011 1.451-.14 2.084.354.232.181.332.312.205.643-.16.424-.197.9-.275 1.357-.141.828-.359.953-1.109.591-.198-.094-.366-.254-.585-.412M48.038-38.162c-.031.888-.656 1.527-1.412 1.533-.754.008-1.961-.751-1.965-1.234-.012-1.047.893-1.916 1.959-1.856.205.012.479.077.596.218.349.424 1.154.613.822 1.339M33.7-19.922c.174-.17.35-.348.531-.516.775-.715 1.521-.689 2.236.09.289.313.721.556.623 1.096-.016.075.025.172-.008.228-.328.52-.674 1.038-1.18 1.392-.119.081-.496.008-.582-.115a4.444 4.444 0 00-1.299-1.263c-.196-.126-.202-.549-.321-.912M11.28-143.691c-.375.342-.738.606-.646 1.181.053.337-.812.929-1.17.863-.592-.107-1.127-.302-1.539-.803-.316-.387-.295-.774-.049-1.093.648-.84 1.684-1.162 2.656-.782.276.108.479.4.748.634M-.366-22.879c-.367-.365-.781-.694-1.084-1.106-.182-.244-.348-.62.008-.926.547-.468 1.059-.988 1.891-.552.523.276 1.092.472 1.619.74.084.042.088.427.08.429-.625.137-.869.748-1.348 1.048-.317.197-.735.238-1.166.367M-5.923-92.827c.273.175.734.47 1.189.771.033.022.068.109.049.136-.324.516-.115 1.358-.949 1.57-.061.016-.109.083-.16.132-.469.455-.711.441-1.137-.044-.209-.239-.402-.55-.672-.657-.398-.158-.23-.393-.191-.612.129-.719.893-1.324 1.871-1.296M-16.606-68.04c-.129.482-.236.982-.395 1.465-.092.281-.777.407-1.215.264-.354-.115-.707-.245-1.068-.336-.625-.16-.814-.582-.566-1.183.424-1.042.973-1.001 1.867-.818.25.051.494.14.729.242.214.094.413.231.648.366M-13.851-31.043c.057-.237.074-.483.168-.697.248-.576.969-.84 1.639-.597.408.151.801.354 1.209.515.113.044.252.013.387.018.178.894-.342 1.413-1.012 1.842-.072.045-.203.116-.232.089-.518-.44-1.393-.178-1.771-.907-.067-.128-.268-.187-.388-.263M29.228-136.017c.516.243 1.041.472 1.545.741.104.056.18.268.174.404-.012.441-.881 1.483-1.312 1.585-.121.027-.291.009-.383-.06-.422-.31-.873-.605-1.207-.993-.146-.172-.133-.591-.037-.84.191-.5.488-.956 1.191-.691.007-.049.019-.097.029-.146"/></g></svg>