<?xml version="1.0" encoding="utf-8"?>
<!-- Generator: Adobe Illustrator 15.0.0, SVG Export Plug-In . SVG Version: 6.00 Build 0)  -->
<!DOCTYPE svg PUBLIC "-//W3C//DTD SVG 1.1//EN" "http://www.w3.org/Graphics/SVG/1.1/DTD/svg11.dtd">
<svg version="1.1" id="Layer_1" xmlns="http://www.w3.org/2000/svg" xmlns:xlink="http://www.w3.org/1999/xlink" x="0px" y="0px"
	 width="100px" height="710px" viewBox="0 0 100 710" enable-background="new 0 0 100 710" xml:space="preserve">
<g>
	<path d="M43.244,121.417c-0.303,0.271-0.65,0.733-0.621,1.081c0.073,0.932,0.935,1.273,1.635,1.674
		c0.232,0.134,0.643,0.214,0.842,0.098c0.559-0.324,1.209-0.616,1.367-1.352c0.062-0.294,0.167-0.445,0.5-0.461
		c0.189-0.01,0.365-0.186,0.612-0.322c-0.151-0.137-0.218-0.218-0.302-0.266c-0.465-0.264-0.913-0.574-1.407-0.766
		C44.959,120.75,44.02,120.723,43.244,121.417z"/>
	<path d="M46.023,111.88c-1.067-0.35-2.154,0.058-2.798,0.997c-0.244,0.358-0.244,0.772,0.119,1.166
		c0.471,0.515,1.058,0.689,1.696,0.769c0.389,0.048,1.277-0.637,1.199-0.995c-0.131-0.608,0.24-0.916,0.619-1.303
		C46.561,112.279,46.324,111.979,46.023,111.88z"/>
	<path d="M40.645,86.674c-0.082,0.068-0.057,0.307-0.032,0.459c0.044,0.264,0.228,0.553,0.165,0.777
		c-0.146,0.518,0.236,0.582,0.511,0.776c0.215,0.151,0.397,0.346,0.599,0.514c0.338,0.278,0.683,0.552,1.023,0.829
		c0.27-0.356,0.602-0.074,0.868-0.034c0.622,0.093,1.03-0.017,1.201-0.56c0.213-0.681,0.244-1.424,0.749-1.998
		c0.039-0.045,0.007-0.195-0.042-0.26c-0.226-0.301-0.506-0.565-0.699-0.885c-0.422-0.698-1.069-0.884-1.815-0.893
		C42.059,85.28,41.387,86.057,40.645,86.674z"/>
	<path d="M47.354,30.645c0.066-0.018,0.154,0.06,0.236,0.08c0.129,0.033,0.264,0.079,0.394,0.075
		c0.427-0.019,0.808-0.208,0.867-0.633c0.084-0.609,0.276-1.372,0.007-1.819c-0.332-0.55-1.02-1.071-1.832-0.845
		c-0.616,0.174-1.303,0.343-1.762,0.741c-0.275,0.239-0.168,0.913-0.233,1.392c-0.011,0.069-0.017,0.141-0.021,0.166
		c0.229,0.167,0.424,0.302,0.611,0.448C45.927,30.485,47.018,30.726,47.354,30.645z"/>
	<path d="M48.527,9.65c0.061-0.03,0.149,0.003,0.222-0.013c0.266-0.064,0.646-0.052,0.767-0.222c0.336-0.479,0.97-0.892,0.556-1.65
		c-0.114-0.215-0.15-0.482-0.183-0.73c-0.086-0.644-0.906-1.179-1.5-0.941c-0.403,0.163-0.787,0.369-1.23,0.579
		C46.497,6.93,46.6,7.701,46.305,8.226c-0.107,0.19,0.043,0.766,0.193,0.818C47.162,9.272,47.67,10.083,48.527,9.65z"/>
	<path d="M51.344,19.535c0.096,0.626,0.351,1.277,1.004,1.57c0.457,0.203,0.974,0.263,1.438,0.452
		c0.365,0.149,0.658,0.069,0.973-0.085c0.607-0.297,1.225-1.509,1.053-2.103c-0.154-0.536-0.326-1.069-0.49-1.603
		c-0.154,0.016-0.357,0.104-0.451,0.038c-0.697-0.493-1.395-0.144-2.072-0.003C52.166,17.929,51.256,18.962,51.344,19.535z"/>
	<path d="M38.671,53.281c-0.062,0.915,0.449,1.492,1.202,1.891c0.358,0.19,0.771,0.289,1.104,0.511
		c0.562,0.377,1.299,0.228,1.536-0.402c0.146-0.394,0.183-0.827,0.317-1.225c0.205-0.606,0.455-1.196,0.684-1.79
		c-1.387-0.855-3.554-0.722-4.624,0.313C38.733,52.731,38.687,53.041,38.671,53.281z"/>
	<path d="M37.47,41.442c0.584-0.234,0.881-0.534,0.754-1.088c-0.159-0.696-0.508-1.353-0.363-2.104
		c0.012-0.057-0.092-0.172-0.166-0.205c-0.348-0.145-0.723-0.231-1.051-0.409c-0.716-0.391-1.369-0.223-2.018,0.147
		c-1.021,0.458-1.211,1.467-1.539,2.374c-0.036,0.102,0.106,0.293,0.204,0.413c0.169,0.206,0.476,0.361,0.535,0.589
		c0.135,0.52,0.499,0.381,0.833,0.409c0.262,0.024,0.518,0.099,0.777,0.142c0.433,0.07,0.867,0.133,1.3,0.198
		C36.789,41.467,37.22,41.543,37.47,41.442z"/>
	<path d="M34.7,108.16c0.369-0.18,0.747-0.338,1.104-0.541c0.816-0.465,1.126-1.348,1.61-2.078c0.114-0.169,0.099-0.598-0.033-0.729
		c-0.902-0.889-2.056-1.139-3.256-0.973c-0.483,0.066-0.923,0.459-1.38,0.707c-0.904,0.49-1.048,1.126-0.585,2.016
		C32.521,107.262,33.861,108.111,34.7,108.16z"/>
	<path d="M31.845,17.811c0.136,0.41,0.158,0.9,0.411,1.211c0.253,0.313,0.726,0.447,1.101,0.662
		c0.982,0.555,1.902,0.434,2.812-0.194c0.491-0.34,0.648-0.822,0.889-1.328c0.281-0.584,0.184-0.972-0.081-1.352
		c0.235-0.408,0.589-0.742,0.585-1.07c-0.01-0.523-0.252-1.036-0.836-1.26c-0.9-0.342-1.773-0.792-2.7-1.02
		c-0.796-0.197-1.648-0.104-2.253,0.604c-0.213,0.251-0.381,0.545-0.549,0.831c-0.471,0.804-0.316,1.646,0.359,2.294
		C31.733,17.331,31.772,17.595,31.845,17.811z"/>
	<path d="M66.449,92.994c-0.145-0.004-0.295,0.027-0.414-0.02c-0.438-0.172-0.857-0.391-1.299-0.553
		c-0.716-0.26-1.492,0.021-1.759,0.641c-0.101,0.229-0.12,0.492-0.179,0.747c0.127,0.083,0.344,0.147,0.415,0.282
		c0.405,0.783,1.345,0.502,1.899,0.973c0.034,0.028,0.172-0.046,0.248-0.094C66.084,94.51,66.639,93.953,66.449,92.994z"/>
	<path d="M33.017,86.245c0.062-0.028,0.15,0.004,0.223-0.013c0.264-0.063,0.646-0.05,0.766-0.221
		c0.336-0.479,0.971-0.893,0.557-1.652c-0.115-0.214-0.151-0.479-0.184-0.729c-0.086-0.644-0.905-1.179-1.499-0.939
		c-0.402,0.161-0.788,0.367-1.231,0.576c-0.66,0.258-0.558,1.029-0.854,1.555c-0.107,0.188,0.042,0.764,0.195,0.816
		C31.652,85.867,32.161,86.68,33.017,86.245z"/>
	<path d="M27.317,50.329c-0.021,0.168,0.305,0.396,0.496,0.571c0.116,0.104,0.293,0.141,0.406,0.249
		c0.385,0.356,0.74,0.742,1.127,1.095c0.378,0.345,0.817,0.244,1.121-0.05c0.334-0.327,0.566-0.763,0.826-1.161
		c0.343-0.532,0.439-1.235,1.182-1.483c0.334-0.113,0.334-0.558,0.012-0.693c-0.899-0.379-1.818-0.71-2.73-1.06
		c-0.021,0.05-0.039,0.102-0.06,0.155c-0.792-0.083-1.45,0.321-1.919,0.824C27.445,49.135,27.388,49.792,27.317,50.329z"/>
	<path d="M36.63,27.544c-1.085,0.084-1.972,0.549-2.539,1.503c-0.188,0.314-0.281,0.684-0.44,1.017
		c-0.315,0.65,0.249,2.061,0.941,2.29c0.333,0.111,0.686,0.165,1.024,0.265c0.283,0.082,0.686,0.354,0.814,0.257
		c0.427-0.332,0.889-0.116,1.312-0.228c0.184-0.047,0.38-0.093,0.537-0.191c0.697-0.425,0.408-1.106,0.391-1.697
		c-0.013-0.4-0.146-0.794-0.221-1.17c0.547-0.179,0.841-0.347,0.675-1.014c-0.172-0.699-0.261-0.998-0.885-1.036
		C37.706,27.507,37.163,27.504,36.63,27.544z"/>
	<path d="M53.469,47.145c0.158-0.639,0.285-1.291,0.355-1.945c0.014-0.14-0.25-0.41-0.429-0.455c-0.591-0.146-1.2-0.228-1.804-0.316
		c-0.834-0.12-1.884,0.625-2.025,1.448c-0.027,0.165,0.003,0.407,0.109,0.515c0.678,0.692,1.418,1.299,2.543,1.356
		C52.564,47.516,53.287,47.888,53.469,47.145z"/>
	<path d="M49.879,54.645c0.288,0.027,0.53,0.083,0.768,0.064c0.891-0.071,1.022-0.305,0.704-1.149
		c-0.175-0.464-0.4-0.923-0.479-1.405c-0.062-0.378-0.225-0.442-0.537-0.485c-0.854-0.113-1.477,0.411-2.121,0.8
		c-0.29,0.175-0.564,0.583-0.604,0.915c-0.07,0.573,0.779,1.369,1.395,1.429c0.247,0.024,0.498-0.004,0.748-0.009
		c-0.019,0.089-0.035,0.18-0.053,0.27C49.759,54.93,49.819,54.785,49.879,54.645z"/>
	<path d="M58.119,55.981c0.465,0.153,1.201,0.017,1.301-0.284c0.168-0.518,0.285-1.052,0.422-1.571
		c-0.253-0.145-0.465-0.291-0.695-0.393c-0.25-0.108-0.514-0.204-0.779-0.259c-0.961-0.198-1.549-0.24-2.006,0.877
		c-0.264,0.643-0.061,1.097,0.609,1.268C57.357,55.717,57.736,55.855,58.119,55.981z"/>
	<path d="M51.11,62.336c0.333,0.612,0.835,0.482,1.347,0.37c0.305-0.066,0.622-0.095,0.906-0.208
		c0.242-0.097,0.598-0.072,0.609-0.516c0.01-0.321,0.102-0.664,0.25-0.948c0.268-0.509,0.104-1.14-0.403-1.399
		c-0.625-0.32-1.27-0.497-1.981-0.466c-0.551,0.024-1.447,0.779-1.438,1.336c0.009,0.55,0.105,1.101,0.158,1.583
		C50.785,62.186,51.041,62.21,51.11,62.336z"/>
	<path d="M57.857,93.836c-0.907-0.287-1.831-0.52-2.743-0.792c-0.887-0.266-1.616,0.091-2.321,0.556
		c-0.36,0.238-0.432,0.557-0.312,0.975c0.188,0.667,0.327,1.348,0.483,2.023c0.031,0.131-0.006,0.291,0.058,0.396
		c0.459,0.769,0.923,1.518,1.964,1.61c0.48,0.04,1.361-0.193,1.632-0.596c0.119-0.178,0.137-0.425,0.257-0.602
		c0.061-0.088,0.246-0.096,0.372-0.141c0.065,0.046,0.13,0.09,0.196,0.134c0.082-0.494,0.277-1.002,0.225-1.483
		c-0.062-0.54-0.017-0.973,0.338-1.384C58.24,94.258,58.23,93.954,57.857,93.836z"/>
	<path d="M66.356,80.837c-0.192-0.532-0.646-0.326-0.974-0.382c-0.605-0.104-1.228-0.13-1.846-0.132
		c-0.72-0.001-0.816,0.75-1.239,1.118c-0.283,0.248-0.28,0.517-0.03,0.854c0.68,0.912,1.629,1.427,2.619,1.896
		c0.047,0.023,0.111,0.012,0.115,0.012c0.367-0.037,0.703-0.012,0.986-0.123c0.308-0.124,0.701-0.248,0.543-0.789
		c-0.062-0.211,0.046-0.628,0.205-0.717c0.475-0.257,0.206-0.612,0.137-0.863C66.787,81.398,66.469,81.151,66.356,80.837z"/>
	<path d="M68.322,70.028c0.463-0.151,0.955-0.292,1.168-0.859c0.127-0.341,0.416-0.618,0.6-0.942
		c0.076-0.136,0.156-0.354,0.101-0.472c-0.468-1.007-1.29-1.467-2.386-1.47c-0.037,0-0.074,0.003-0.113-0.004
		c-1.062-0.187-1.5,0.679-2.019,1.306c-0.12,0.143,0.226,0.683,0.374,1.032c0.09,0.204,0.206,0.394,0.322,0.583
		C66.688,69.725,67.752,70.213,68.322,70.028z"/>
	<path d="M66.986,26.715c0.279-0.462-0.131-0.633-0.316-0.815c-0.232-0.228-0.633-0.279-0.889-0.493
		c-0.436-0.36-0.723,0.043-1.032,0.163c-0.575,0.216-1.128,0.507-1.659,0.817c-0.623,0.363-0.326,1.062-0.505,1.591
		c-0.12,0.357,0.021,0.588,0.405,0.752c1.047,0.442,2.127,0.409,3.217,0.314c0.053-0.004,0.102-0.046,0.107-0.049
		c0.294-0.218,0.599-0.365,0.786-0.605c0.204-0.262,0.479-0.569,0.071-0.955C67.012,27.285,66.892,26.87,66.986,26.715z"/>
	<path d="M68.628,42.224c0.079-0.311-0.075-0.689-0.159-1.028c-0.042-0.17-0.121-0.379-0.252-0.469
		c-0.606-0.424-1.233-0.821-1.838-0.792c-1.388-0.068-2.088,0.784-2.871,1.474c-0.044,0.039-0.024,0.176-0.002,0.261
		c0.053,0.199,0.182,0.394,0.174,0.588c-0.012,0.421,0.122,0.739,0.458,0.989c0.28,0.208,0.606,0.389,0.819,0.658
		c0.509,0.637,0.902,0.583,1.727,0.346c0.453-0.13,0.968-0.3,1.272-0.625C68.297,43.262,68.5,42.723,68.628,42.224z"/>
	<path d="M59.848,3.305c0.5,0.48,0.967,0.997,1.441,1.501c0.09,0.096,0.139,0.254,0.248,0.312c0.783,0.432,1.562,0.844,2.508,0.399
		c0.436-0.208,1.078-0.855,1.107-1.339c0.014-0.214-0.097-0.437-0.08-0.649c0.006-0.107,0.162-0.206,0.25-0.308
		c0.078,0.005,0.158,0.011,0.234,0.017C65.381,2.768,65.291,2.229,65,1.842c-0.324-0.433-0.504-0.83-0.406-1.365
		c0.066-0.355-0.096-0.613-0.479-0.527c-0.928,0.212-1.844,0.478-2.768,0.704c-0.9,0.219-1.35,0.895-1.723,1.652
		C59.435,2.693,59.535,3.004,59.848,3.305z"/>
	<path d="M60.801,70.591c0.137-0.542,0.258-1.087,0.385-1.631c-0.139-0.065-0.361-0.091-0.408-0.196
		c-0.354-0.778-1.131-0.827-1.787-1.051c-0.609-0.208-1.916,0.225-2.129,0.764c-0.234,0.588-0.343,1.28,0.074,1.861
		c0.291,0.407,0.707,0.72,1.012,1.118c0.237,0.311,0.533,0.393,0.883,0.417C59.504,71.923,60.649,71.188,60.801,70.591z"/>
	<path d="M62.592,13.753c-0.061-0.358,0.045-0.743,0.043-1.116c0-0.156-0.045-0.383-0.15-0.458
		c-0.912-0.633-1.855-0.614-2.803-0.062c-0.033,0.017-0.065,0.04-0.1,0.052c-1.014,0.377-0.953,1.345-1.086,2.147
		c-0.029,0.185,0.543,0.475,0.849,0.702c0.177,0.129,0.376,0.234,0.569,0.339c0.541,0.29,1.705,0.177,2.104-0.272
		C62.341,14.722,62.696,14.351,62.592,13.753z"/>
	<path d="M52.378,35.336c-0.19,0.387-0.091,0.698,0.224,0.999c0.5,0.48,0.965,0.997,1.439,1.502
		c0.092,0.097,0.141,0.252,0.248,0.312c0.785,0.432,1.563,0.844,2.508,0.396c0.436-0.206,1.079-0.853,1.108-1.337
		c0.013-0.213-0.095-0.435-0.081-0.649c0.008-0.107,0.162-0.206,0.25-0.307c0.079,0.005,0.157,0.011,0.236,0.017
		c-0.178-0.47-0.267-1.009-0.558-1.396c-0.324-0.436-0.505-0.831-0.405-1.365c0.064-0.356-0.097-0.612-0.479-0.527
		c-0.93,0.211-1.844,0.479-2.77,0.704C53.2,33.904,52.751,34.579,52.378,35.336z"/>
	<path d="M31.347,75.479c0.131-0.542,0.16-1.111,0.195-1.671c0.012-0.207-0.035-0.54-0.164-0.61
		c-0.748-0.403-1.443-1.01-2.377-0.885c-0.34,0.044-0.683,0.169-0.988,0.33c-0.296,0.154-0.615,0.354-0.795,0.62
		c-0.36,0.538-0.578,1.03-0.176,1.784c0.392,0.733,1.076,1.093,1.523,1.714c0.107,0.152,0.439,0.147,0.581,0.188
		C30.352,76.846,31.04,76.753,31.347,75.479z"/>
	<path d="M54.037,106.533c0.151-0.462,0.316-0.723,0.858-0.717c0.581,0.006,0.839-0.332,0.784-0.877
		c-0.009-0.084-0.053-0.164-0.088-0.265c0.121,0.026,0.204,0.043,0.291,0.062c0.191-0.582-0.148-0.883-0.604-1.01
		c-0.565-0.155-1.163-0.195-1.741-0.311c-1.032-0.206-1.912,0.202-2.729,0.729c-0.289,0.187-0.537,0.549-0.346,1.012
		c0.113,0.279,0.135,0.596,0.213,0.955c0.797,0.479,1.68,1.01,2.695,1.621C53.582,107.369,53.893,106.978,54.037,106.533z"/>
	<path d="M66.672,135.426c0.689-1.19,0.365-2.316-0.727-3.146c-1.318-1.004-2.805-1.068-4.326-0.818
		c-0.645,0.104-1.284,0.395-1.685,0.992c-0.226,0.334-0.419,0.693-0.637,1.033c-0.706,1.1-0.562,2.168,0.258,3.186
		c0.286,0.357,0.713,0.515,0.948,0.871c0.578,0.879,1.57,0.89,2.513,1.342c0.669-0.34,1.499-0.559,2.03-1.082
		C65.72,137.141,66.19,136.258,66.672,135.426z"/>
	<path d="M58.129,124.686c0.21-0.795,0.42-1.592,0.65-2.466c0.086-0.026,0.285-0.089,0.57-0.177
		c-0.224-0.273-0.346-0.568-0.553-0.65c-1.021-0.393-2.053-0.98-3.182-0.458c-1.32,0.607-2.137,1.304-1.086,2.776
		c0.186,0.262,0.455,0.472,0.711,0.676c0.555,0.443,1.226,0.484,1.891,0.445c0.295-0.018,0.58-0.161,0.872-0.25
		C58.045,124.617,58.088,124.652,58.129,124.686z"/>
	<path d="M55.419,111.98c0.249-0.525,0.083-0.827-0.371-1.058c-0.364-0.182-0.733-0.362-1.108-0.517
		c-0.974-0.395-2.344-0.033-2.943,0.813c-0.11,0.154-0.125,0.489-0.031,0.651c0.234,0.404,0.498,0.834,0.857,1.105
		c0.554,0.416,1.033,1.039,1.911,1.06c0.239-0.144,0.47-0.307,0.72-0.426C55.146,113.277,55.146,112.559,55.419,111.98z"/>
	<path d="M48.057,133.077c-0.359-0.161-0.638-0.294-0.923-0.413c-1.03-0.428-2.005-0.986-3.158-0.141
		c-0.522,0.382-1.19,0.512-1.596,1.145c-0.312,0.486-0.747,1.537-0.435,1.996c0.447,0.665,0.969,1.303,1.564,1.834
		c0.306,0.272,0.832,0.374,1.271,0.408c0.827,0.062,1.772,0.127,2.252-0.696c0.43-0.737,1.055-1.37,1.242-2.271
		c0.094-0.453,0.221-0.828-0.055-1.26C48.088,133.475,48.082,133.188,48.057,133.077z"/>
	<path d="M41.928,99.992c0.238,0.168,0.418,0.34,0.63,0.441c0.805,0.389,1.036,0.254,1.188-0.635
		c0.086-0.488,0.123-0.999,0.297-1.455c0.138-0.355,0.029-0.494-0.22-0.688c-0.679-0.531-1.479-0.393-2.234-0.381
		c-0.337,0.004-0.78,0.218-0.982,0.484c-0.349,0.458-0.02,1.575,0.481,1.936c0.201,0.146,0.434,0.248,0.65,0.37
		c-0.062,0.068-0.122,0.138-0.182,0.206C41.682,100.176,41.807,100.083,41.928,99.992z"/>
	<path d="M49.111,73.172c-0.619-0.161-1.298-0.363-1.895-0.25c-0.358,0.066-0.608,0.703-0.905,1.083
		c-0.044,0.055-0.086,0.114-0.102,0.133c0.114,0.261,0.214,0.477,0.302,0.696c0.145,0.357,0.964,1.117,1.295,1.217
		c0.066,0.02,0.102,0.128,0.162,0.188c0.098,0.094,0.189,0.202,0.303,0.263c0.377,0.199,0.803,0.228,1.068-0.109
		c0.381-0.482,0.932-1.044,0.925-1.566C50.258,74.185,49.926,73.387,49.111,73.172z"/>
	<path d="M71.634,36.045c-0.464,0.073-0.937,0.097-1.399,0.18c-0.748,0.134-1.276,0.771-1.193,1.439
		c0.029,0.248,0.146,0.487,0.223,0.735c0.15,0.006,0.37-0.049,0.501,0.034c0.745,0.47,1.411-0.247,2.13-0.119
		c0.043,0.008,0.125-0.127,0.168-0.207c0.391-0.764,0.586-1.522-0.06-2.255C71.874,35.921,71.762,36.025,71.634,36.045z"/>
	<path d="M74.129,18.346c-0.105-0.684-0.176-1.375-0.329-2.048c-0.097-0.418-0.749-0.673-1.163-0.498
		c-0.564,0.239-1.125,0.492-1.67,0.774c-0.557,0.291-1.055,1.318-0.956,1.896c0.092,0.524,0.188,1.05,0.273,1.527
		c0.261,0.059,0.459,0.047,0.576,0.139c0.803,0.613,1.64,0.447,2.503,0.175c0.698-0.22,1.021-0.767,0.844-1.477
		C74.167,18.675,74.154,18.509,74.129,18.346z"/>
	<path d="M74.502,0.464c-0.045,0.119-0.165,0.201-0.27,0.296c-0.068,0.062-0.17,0.105-0.188,0.175
		c-0.043,0.181-0.006,0.38-0.057,0.558c-0.155,0.544-0.328,1.084-0.48,1.565c0.076,0.273,0.086,0.477,0.184,0.622
		c0.388,0.575,0.72,1.149,1.156,1.686C74.895,5.422,75,5.463,75,5.497V0.065C75,0.057,74.629,0.121,74.502,0.464z"/>
	<path d="M68.658,143.26c0.102-0.117,0.135-0.296,0.236-0.413c0.345-0.396,0.717-0.765,1.057-1.163
		c0.334-0.389,0.217-0.825-0.088-1.117c-0.336-0.324-0.779-0.543-1.188-0.788c-0.543-0.325-1.248-0.397-1.521-1.131
		c-0.123-0.33-0.568-0.315-0.693,0.011c-0.348,0.912-0.648,1.843-0.968,2.767c0.052,0.018,0.104,0.035,0.156,0.054
		c-0.055,0.793,0.37,1.438,0.89,1.889c0.369,0.32,1.027,0.357,1.566,0.41C68.273,143.793,68.49,143.457,68.658,143.26z"/>
	<path d="M71.077,55.58c-0.464-0.209-0.909-0.47-1.39-0.629c-0.898-0.298-2.165,0.6-2.165,1.546
		c0.152,0.355,0.127,0.771,0.483,1.167c0.771,0.851,1.482,1.07,2.441,0.454c0.715-0.459,1.048-1.192,1.278-1.968
		c0.036-0.114-0.179-0.327-0.312-0.461C71.337,55.615,71.184,55.628,71.077,55.58z"/>
	<path d="M69.717,105.153c-0.599,0.167-1.116,0.654-1.635,1.041c-0.076,0.057,0.07,0.362,0.051,0.545
		c-0.045,0.476-0.178,0.95-0.174,1.425c0.006,0.305,0.107,0.705,0.318,0.891c0.377,0.334,0.847,0.603,1.323,0.775
		c0.433,0.157,0.274,0.295,0.043,0.561c0.323-0.02,0.575-0.074,0.817-0.04c0.639,0.089,1.229-0.193,1.375-0.736
		c0.086-0.318,0.07-0.669,0.175-0.981c0.146-0.441,0.292-0.912,0.563-1.277c0.338-0.451,0.33-0.725-0.174-0.994
		c-0.248-0.132-0.49-0.297-0.682-0.498C71.163,105.281,70.454,104.947,69.717,105.153z"/>
	<path d="M23.175,80.653c-0.899-0.343-1.772-0.792-2.699-1.021c-0.798-0.197-1.649-0.105-2.254,0.604
		c-0.212,0.251-0.381,0.544-0.549,0.83c-0.471,0.806-0.315,1.647,0.359,2.295c0.15,0.143,0.19,0.407,0.261,0.623
		c0.136,0.408,0.16,0.9,0.411,1.211c0.253,0.312,0.726,0.448,1.103,0.661c0.981,0.556,1.901,0.435,2.813-0.194
		c0.49-0.339,0.646-0.822,0.887-1.326c0.281-0.584,0.185-0.971-0.08-1.354c0.234-0.406,0.588-0.742,0.583-1.07
		C24.001,81.391,23.759,80.876,23.175,80.653z"/>
	<path d="M9.585,70.659c0.194-0.43,0.34-0.886,0.457-1.343c0.123-0.486-0.401-1.231-0.9-1.31C8.61,67.922,8.072,67.867,7.7,67.82
		c-1.001,0.016-1.928-0.176-2.256,0.94c-0.087,0.296-0.207,0.652-0.117,0.911c0.086,0.251,0.411,0.436,0.661,0.608
		c0.471,0.325,0.971,0.609,1.441,0.932C8.233,71.764,9.182,71.544,9.585,70.659z"/>
	<path d="M6.987,55.324c0.155,0.103,0.484-0.04,0.621,0.069c0.632,0.498,1.12,0.089,1.48-0.292c0.715-0.752,1.338-1.595,1.981-2.415
		c0.348-0.441,0.369-0.933,0.323-1.5c-0.044-0.53-0.061-1.081-0.399-1.45c-0.373-0.408-0.878-0.734-1.385-0.977
		c-1.055-0.506-2.211-0.287-3.328-0.339c-0.064-0.005-0.147,0.035-0.196,0.082c-0.812,0.759-1.759,1.446-1.491,2.8
		c-0.051,0.003-0.103,0.005-0.154,0.009c0.17,0.57,0.175,1.325,0.552,1.667c0.511,0.46,0.729,1.046,1.114,1.547
		C6.344,54.836,6.659,55.105,6.987,55.324z"/>
	<path d="M21.874,100.641c-0.72-0.378-1.459-0.734-2.225-1c-0.452-0.158-0.984-0.227-1.456-0.161
		c-1.226,0.166-2.789,1.823-2.753,3.054c0.028,0.939,0.22,1.941,0.616,2.781c0.432,0.913,1.278,1.572,2.232,2.004
		c0.856,0.389,2.062,0.115,2.66-0.598c0.278-0.332,0.526-0.691,0.825-1.088c0.066,0.156,0.103,0.246,0.214,0.504
		c0.054-0.389,0.094-0.617,0.114-0.85c0.075-0.846,0.758-1.538,0.59-2.463C22.637,102.512,22.181,100.802,21.874,100.641z"/>
	<path d="M11.731,89.15c-1.166-0.261-2.244-0.322-3.328,0.225c-0.555,0.281-0.875,0.976-0.715,1.582
		c0.049,0.18,0.015,0.385,0.017,0.496c0.125,0.291,0.183,0.553,0.332,0.738c0.318,0.396,0.876,0.349,1.252,0.561
		c0.705,0.396,1.286,0.775,2.182,0.516c0.543-0.158,1.098-0.369,1.218-0.973c0.104-0.525,0.206-1.051,0.311-1.574
		c0.015-0.07,0.077-0.149,0.057-0.199C12.8,89.89,12.571,89.339,11.731,89.15z"/>
	<path d="M41.75,70.108c0.204-0.688,0.277-0.994-0.24-1.341c-0.445-0.298-0.912-0.574-1.395-0.809
		c-0.977-0.475-1.976-0.521-2.948,0.014c-0.32,0.178-0.588,0.45-0.896,0.656c-0.6,0.403-0.825,1.903-0.343,2.452
		c0.232,0.264,0.508,0.49,0.75,0.746c0.203,0.214,0.414,0.654,0.573,0.633c0.537-0.069,0.827,0.35,1.249,0.468
		c0.183,0.051,0.373,0.11,0.56,0.105c0.816-0.013,0.912-0.748,1.193-1.267c0.19-0.351,0.277-0.76,0.402-1.122
		C41.218,70.765,41.555,70.769,41.75,70.108z"/>
	<path d="M18,70.279c-0.662,0.258-0.559,1.028-0.854,1.554c-0.108,0.189,0.041,0.765,0.194,0.818
		c0.663,0.229,1.172,1.041,2.028,0.607c0.061-0.03,0.149,0.002,0.222-0.015c0.265-0.063,0.647-0.05,0.767-0.221
		c0.335-0.478,0.97-0.891,0.555-1.651c-0.114-0.214-0.149-0.48-0.182-0.73c-0.086-0.643-0.907-1.176-1.5-0.938
		C18.828,69.863,18.443,70.069,18,70.279z"/>
	<path d="M18.237,45.766c0.309,0.277,0.706,0.563,1.095,0.614c0.402,0.055,0.909-0.068,1.247-0.293
		c0.589-0.391,1.174-0.856,1.586-1.418c0.253-0.347,0.312-0.955,0.23-1.403c-0.194-1.054-1.479-1.952-2.663-2.024
		c-0.274,0.027-0.556,0.031-0.825,0.086c-0.9,0.186-1.604,0.609-1.962,1.526c-0.151,0.389-0.43,0.569-0.069,1.129
		C17.287,44.623,17.677,45.262,18.237,45.766z"/>
	<path d="M27.023,91.868c-0.465,0.007-0.964,0.267-1.38,0.526c-0.781,0.488-0.833,1.676-0.156,2.092
		c0.249,0.154,0.497,0.369,0.65,0.617c0.506,0.808,1.649,1.063,2.381,0.487c0.094-0.073,0.169-0.181,0.222-0.288
		c0.253-0.52,0.493-1.049,0.752-1.564c0.024-0.048,0.159-0.041,0.391-0.091c-0.57-0.501-0.993-0.958-1.497-1.288
		C27.983,92.101,27.477,91.859,27.023,91.868z"/>
	<path d="M34.414,122.313c0.816-0.467,1.126-1.35,1.61-2.079c0.113-0.169,0.098-0.597-0.034-0.729
		c-0.901-0.889-2.056-1.137-3.257-0.972c-0.483,0.066-0.92,0.458-1.379,0.706c-0.903,0.491-1.047,1.127-0.586,2.016
		c0.362,0.699,1.703,1.549,2.541,1.598C33.679,122.676,34.058,122.516,34.414,122.313z"/>
	<path d="M35.399,127.055c-0.483,0.066-0.922,0.461-1.381,0.708c-0.903,0.491-1.047,1.126-0.586,2.015
		c0.362,0.699,1.703,1.549,2.541,1.599c0.369-0.179,0.748-0.338,1.104-0.542c0.817-0.465,1.126-1.349,1.61-2.077
		c0.113-0.17,0.098-0.599-0.034-0.729C37.753,127.139,36.599,126.89,35.399,127.055z"/>
	<path d="M26.476,35.193c0.062-0.032,0.15,0.002,0.223-0.015c0.264-0.063,0.646-0.051,0.766-0.222
		c0.336-0.478,0.971-0.892,0.557-1.651c-0.115-0.215-0.151-0.482-0.184-0.729c-0.086-0.644-0.906-1.178-1.499-0.94
		c-0.403,0.162-0.788,0.368-1.231,0.579c-0.662,0.257-0.558,1.027-0.854,1.553c-0.107,0.189,0.042,0.765,0.194,0.817
		C25.111,34.815,25.619,35.625,26.476,35.193z"/>
	<path d="M26.155,62.333c0.045-0.516-0.255-0.914-0.491-1.366c0.499-0.312,0.733,0.178,1.157,0.349
		c0.217-0.303,0.283-0.553-0.074-0.886c-1.098-1.022-2.464-1.271-3.862-1.358c-1.289-0.082-1.973,0.808-2.433,1.847
		c-0.205,0.459-0.41,1.094-0.249,1.502c0.255,0.642,0.821,1.161,1.255,1.73c0.012,0.013,0.033,0.018,0.051,0.024
		c0.322,0.087,0.642,0.208,0.97,0.253c0.564,0.076,1.155,0.219,1.698,0.122c0.648-0.115,1.257-0.452,1.831-0.672
		C26.063,63.312,26.116,62.823,26.155,62.333z"/>
	<path d="M26.7,108.475c-1.418-0.136-2.199,0.612-2.505,1.869c0.532,0.773,1.061,1.555,1.608,2.32
		c0.104,0.148,0.271,0.288,0.441,0.35c0.41,0.152,1.453-0.295,1.682-0.689c0.326-0.565,0.648-1.133,0.97-1.697
		c0.12,0.05,0.237,0.1,0.342,0.146c0.086-0.166,0.167-0.323,0.238-0.462C28.935,109.107,27.937,108.596,26.7,108.475z"/>
	<path d="M44.428,4.357c0.982-0.447,1.976-0.874,2.979-1.278C46.402,3.483,45.41,3.911,44.428,4.357z"/>
	<path d="M15.014,28.396c0.741-1.02,1.504-2.021,2.294-3C16.518,26.376,15.754,27.377,15.014,28.396z"/>
	<path d="M12.736,31.726c0.719-1.114,1.466-2.208,2.242-3.28C14.202,29.518,13.456,30.612,12.736,31.726z"/>
	<path d="M9.592,37.048c0.308-0.575,0.629-1.14,0.95-1.706C10.221,35.908,9.898,36.473,9.592,37.048z"/>
	<path d="M10.586,35.266c0.658-1.155,1.347-2.289,2.062-3.404C11.932,32.977,11.244,34.111,10.586,35.266z"/>
	<path d="M0.962,68.539c0.01-0.226,0.02-0.452,0.031-0.677C0.981,68.087,0.972,68.313,0.962,68.539z"/>
	<path d="M42.094,5.463c0.59-0.293,1.185-0.578,1.783-0.856C43.278,4.885,42.684,5.169,42.094,5.463z"/>
	<path d="M73.189,48.33c-0.889,0.735-0.743,1.213-0.269,2.288c0.264,0.603,0.896,0.741,1.248,1.208
		c0.111,0.148,0.442,0.194,0.661,0.136c0.076-0.021,0.17-0.048,0.17-0.072v-3.812C74,47.856,73.75,47.868,73.189,48.33z"/>
	<path d="M31.964,11.562c0.978-0.699,1.972-1.376,2.984-2.028C33.936,10.187,32.941,10.863,31.964,11.562z"/>
	<path d="M35.259,9.334c1.026-0.654,2.069-1.285,3.129-1.889C37.328,8.05,36.285,8.68,35.259,9.334z"/>
	<path d="M2.298,57.48c0.064-0.322,0.13-0.643,0.197-0.963C2.428,56.837,2.362,57.158,2.298,57.48z"/>
	<path d="M48.35,2.707c0.823-0.318,1.653-0.622,2.49-0.912C50.003,2.085,49.173,2.389,48.35,2.707z"/>
	<path d="M1.678,61.074c0.028-0.189,0.051-0.38,0.08-0.569C1.729,60.694,1.706,60.885,1.678,61.074z"/>
	<path d="M3.156,53.652c0.078-0.308,0.166-0.612,0.248-0.919C3.322,53.04,3.234,53.344,3.156,53.652z"/>
	<path d="M1.241,64.602c0.021-0.219,0.048-0.436,0.071-0.653C1.289,64.166,1.263,64.383,1.241,64.602z"/>
	<path d="M4.004,50.62c0.113-0.377,0.224-0.756,0.343-1.131C4.228,49.864,4.117,50.243,4.004,50.62z"/>
	<path d="M6.335,44.013c0.268-0.657,0.544-1.309,0.829-1.956C6.879,42.704,6.603,43.355,6.335,44.013z"/>
	<path d="M7.824,40.596C8.046,40.122,8.27,39.648,8.5,39.18C8.27,39.648,8.046,40.122,7.824,40.596z"/>
	<path d="M5.194,46.984c0.156-0.437,0.319-0.87,0.483-1.303C5.514,46.114,5.351,46.547,5.194,46.984z"/>
	<path d="M28.687,14.044c0.981-0.788,1.984-1.551,3.006-2.289C30.671,12.494,29.668,13.256,28.687,14.044z"/>
	<path d="M52.163,1.348c0.496-0.162,0.994-0.321,1.494-0.473C53.156,1.026,52.66,1.186,52.163,1.348z"/>
	<path d="M73.582,128.711c-0.088-0.15-0.293-0.37-0.393-0.346c-0.285,0.068-0.707,0.186-0.789,0.393
		c-0.326,0.848-0.545,1.737-0.775,2.523c0.188,0.615,0.275,1.094,0.48,1.516c0.229,0.47,0.471,0.979,1.054,1.035
		c0.083,0.008,0.174,0.007,0.271-0.005c0.112-0.015,0.238-0.04,0.357-0.05c0.118-0.01,0.229-0.004,0.312,0.045
		c0.107,0.062,0.203,0.085,0.288,0.082c0.211-0.008,0.354-0.18,0.43-0.314c0.016-0.026-0.034-0.052-0.024-0.074
		c0.082-0.186,0.207-0.366,0.207-0.549v-3.64c0-0.044-0.158-0.091-0.254-0.154C74.367,128.923,73.865,129.209,73.582,128.711z"/>
	<path d="M9.276,106.105c0.104-0.021,0.184-0.252,0.239-0.401c0.071-0.188,0.049-0.454,0.174-0.571
		c0.293-0.272,0.037-0.469-0.039-0.682c-0.074-0.209-0.203-0.4-0.308-0.6c0.045-0.041,0.09-0.083,0.135-0.123
		c-0.324-0.107-0.644-0.278-0.974-0.306c-0.219-0.018-0.438-0.024-0.657-0.035c-0.55-1.176-1.067-2.369-1.557-3.577
		c3.112,7.688,7.473,14.731,12.834,20.888c-3.853-4.426-7.189-9.312-9.919-14.566C9.23,106.124,9.25,106.111,9.276,106.105z
		 M7.877,103.455c0.395,0.843,0.811,1.673,1.236,2.497C8.688,105.128,8.271,104.298,7.877,103.455z"/>
	<path d="M2.886,86.981c0.3-0.634,0.06-1.161-0.603-1.357c-0.048-0.015-0.095-0.027-0.143-0.044
		c-0.202-1.094-0.382-2.195-0.538-3.305c0.158,1.137,0.344,2.264,0.553,3.384c0.121,0.653,0.246,1.307,0.384,1.955
		c0.01,0.042,0.021,0.083,0.029,0.126c-0.006-0.028-0.014-0.056-0.02-0.084C2.66,87.439,2.776,87.212,2.886,86.981z"/>
	<path d="M26.611,126.982c-0.265-0.535-0.779-1.038-1.309-1.328c-0.816-0.442-1.428-0.672-2.051-0.58
		c-0.67-0.654-1.324-1.322-1.969-2.001c7.546,7.947,16.824,14.223,27.239,18.222c-8.015-3.084-15.364-7.512-21.765-13.015
		C26.836,127.849,26.786,127.34,26.611,126.982z M23.858,125.651c0.854,0.814,1.726,1.611,2.618,2.386
		C25.584,127.263,24.712,126.466,23.858,125.651z"/>
	<path d="M73.451,76.984c-0.188,0.5-0.339,1.002-0.507,1.457c0.197,0.183,0.389,0.272,0.444,0.412
		c0.25,0.605,0.477,0.936,1.022,1.148C74.594,80.072,75,80.13,75,80.18v-4.334C74,75.918,73.639,76.486,73.451,76.984z"/>
	<path d="M74.234,119.154c-0.043,0.136-0.029,0.316-0.017,0.484c0.014,0.168,0.011,0.324,0.095,0.412
		c0.214,0.223,0.688,0.41,0.688,0.587v-2.35C75,118.318,74.373,118.72,74.234,119.154z"/>
	<path d="M73.07,88.385c-0.477,0.03-0.943,0.545-1.33,0.941c-0.16,0.166-0.282,0.598,0.098,0.887c0.09,0.067,0.137,0.221,0.16,0.368
		c0.008,0.049,0.018,0.097,0.023,0.142c0.031,0.209,0.004,0.314,0.329,0.347c0.362,0.036,0.699,0.353,1.051,0.536
		c0.238,0.124,0.423,0.232,0.667,0.35C74.314,91.926,75,91.719,75,91.465v-2.609C74,88.367,73.748,88.343,73.07,88.385z"/>
	<path d="M10.521,35.549c0.01-0.089,0.032-0.178,0.057-0.267c-0.012,0.02-0.023,0.04-0.035,0.06c-0.321,0.566-0.643,1.13-0.95,1.706
		c-0.004,0.008-0.008,0.017-0.013,0.024C10.082,36.739,10.445,36.272,10.521,35.549z"/>
	<path d="M63.263-1.334c0.266-0.043,0.529-0.09,0.796-0.13C63.792-1.424,63.528-1.377,63.263-1.334z"/>
	<path d="M59.705-0.675c0.361-0.077,0.725-0.147,1.088-0.218C60.43-0.822,60.066-0.751,59.705-0.675z"/>
	<path d="M67.12-1.853c0.257-0.027,0.514-0.055,0.771-0.08C67.634-1.908,67.377-1.88,67.12-1.853z"/>
	<path d="M56.015,0.206c0.424-0.113,0.851-0.219,1.277-0.324C56.865-0.013,56.438,0.093,56.015,0.206z"/>
	<path d="M38.741,7.242c-0.04,0.022-0.079,0.046-0.118,0.068c0.04-0.022,0.081-0.042,0.121-0.064
		C38.743,7.245,38.742,7.243,38.741,7.242z"/>
	<path d="M28.601,14.111c-4.13,3.325-7.896,7.08-11.229,11.202C20.706,21.191,24.471,17.435,28.601,14.111z"/>
	<path d="M38.744,7.246c0.15,0.146,0.295,0.299,0.42,0.473c0.109,0.153,0.439,0.146,0.582,0.188
		c1.205-0.101,1.893-0.195,2.201-1.469c0.076-0.318,0.115-0.645,0.144-0.973c-1.134,0.564-2.249,1.158-3.349,1.777
		c1.094-0.617,2.203-1.207,3.331-1.768C40.946,6.035,39.838,6.629,38.744,7.246z"/>
	<path d="M18.653,29.673c0.28-0.256,0.361-0.715,0.604-1.03c0.278-0.363,0.032-0.941,0.548-1.192
		c0.155-0.074,0.389-0.265,0.374-0.366c-0.051-0.29-0.136-0.721-0.339-0.814c-0.82-0.386-1.691-0.667-2.461-0.954
		c-0.004,0.001-0.008,0.002-0.013,0.003c-0.021,0.024-0.039,0.05-0.059,0.075c-0.79,0.98-1.553,1.981-2.294,3
		c-0.007,0.009-0.013,0.019-0.02,0.027c0.902,0.495,1.741,1.126,2.752,1.386C18.028,29.881,18.463,29.848,18.653,29.673z"/>
	<path d="M71.086-2.175c0.194-0.011,0.39-0.017,0.584-0.026C71.476-2.192,71.28-2.186,71.086-2.175z"/>
	<path d="M4.631,95.291c-0.302-0.916-0.586-1.84-0.854-2.77C4.045,93.452,4.329,94.375,4.631,95.291z"/>
	<path d="M5.998,99.072c-0.373-0.951-0.728-1.911-1.062-2.881C5.271,97.161,5.625,98.121,5.998,99.072z"/>
	<path d="M67.908,145.868c-0.521-0.051-1.036-0.117-1.553-0.179C66.872,145.751,67.388,145.817,67.908,145.868z"/>
	<polygon points="75.125,146.223 75.125,146.223 75.116,146.223 	"/>
	<path d="M71.487,146.131c-0.427-0.021-0.848-0.06-1.272-0.088C70.64,146.071,71.061,146.11,71.487,146.131z"/>
	<path d="M64.392,145.44c-0.568-0.083-1.132-0.178-1.696-0.273C63.26,145.262,63.823,145.357,64.392,145.44z"/>
	<path d="M21.118,122.899c-0.637-0.674-1.26-1.36-1.871-2.059C19.858,121.539,20.481,122.226,21.118,122.899z"/>
	<path d="M54.354,143.257c-0.694-0.202-1.387-0.408-2.071-0.63C52.969,142.849,53.66,143.055,54.354,143.257z"/>
	<path d="M57.596,144.123c-0.644-0.157-1.286-0.319-1.924-0.492C56.31,143.804,56.951,143.967,57.596,144.123z"/>
	<path d="M51.276,142.286c-0.772-0.262-1.543-0.526-2.303-0.813C49.734,141.759,50.504,142.024,51.276,142.286z"/>
	<path d="M75.125,30.669v-1.77c-0.003,0.325-0.288,0.742-0.377,1.098C74.699,30.194,75.122,30.543,75.125,30.669z"/>
	<path d="M2.539,87.614c-0.138-0.648-0.263-1.302-0.384-1.955C2.276,86.313,2.4,86.967,2.539,87.614z"/>
	<path d="M1.585,82.138c-0.146-1.05-0.271-2.107-0.372-3.17C1.312,80.032,1.441,81.087,1.585,82.138z"/>
	<path d="M3.488,91.503c-0.158-0.581-0.312-1.165-0.456-1.752C3.177,90.338,3.33,90.921,3.488,91.503z"/>
	<path d="M1.14,78.004c-0.067-0.813-0.134-1.627-0.174-2.447C1.005,76.378,1.074,77.19,1.14,78.004z"/>
	<path d="M66.731,122.502c0.104,0.07,0.289,0.077,0.417,0.04c0.455-0.136,1.322-1.304,1.31-1.776
		c-0.003-0.147-0.098-0.369-0.21-0.422c-0.557-0.26-1.133-0.473-1.703-0.701c-0.006,0.053-0.014,0.105-0.021,0.158
		c-0.769-0.24-1.061,0.266-1.234,0.814c-0.086,0.271-0.074,0.721,0.092,0.896C65.764,121.908,66.264,122.197,66.731,122.502z"/>
	<path d="M60.95,144.855c-0.605-0.117-1.209-0.244-1.81-0.376C59.742,144.611,60.344,144.738,60.95,144.855z"/>
	<path fill="none" stroke="#EDC9C9" stroke-width="0" stroke-linecap="round" stroke-linejoin="round" d="M23.858,125.651
		c0.854,0.814,1.726,1.611,2.618,2.386"/>
	<path fill="none" stroke="#EDC9C9" stroke-width="0" stroke-linecap="round" stroke-linejoin="round" d="M9.113,105.952
		c-0.426-0.824-0.842-1.654-1.236-2.497"/>
	<path fill="none" stroke="#EDC9C9" stroke-width="0" stroke-linecap="round" stroke-linejoin="round" d="M2.539,87.614
		c-0.138-0.648-0.263-1.302-0.384-1.955"/>
	
		<line fill="none" stroke="#EDC9C9" stroke-width="0" stroke-linecap="round" stroke-linejoin="round" x1="2.126" y1="88" x2="2.126" y2="88"/>
	
		<line fill="none" stroke="#EDC9C9" stroke-width="0" stroke-linecap="round" stroke-linejoin="round" x1="2.152" y1="85.647" x2="2.155" y2="85.659"/>
	<path fill="none" stroke="#EDC9C9" stroke-width="0" stroke-linecap="round" stroke-linejoin="round" d="M10.552,35.325
		c-0.003,0.006-0.006,0.012-0.01,0.017"/>
	
		<line fill="none" stroke="#EDC9C9" stroke-width="0" stroke-linecap="round" stroke-linejoin="round" x1="9.584" y1="37.062" x2="9.592" y2="37.048"/>
	<path fill="none" stroke="#EDC9C9" stroke-width="0" stroke-linecap="round" stroke-linejoin="round" d="M9.592,37.048
		c0.308-0.575,0.629-1.14,0.95-1.706"/>
	<path fill="none" stroke="#EDC9C9" stroke-width="0" stroke-linecap="round" stroke-linejoin="round" d="M17.331,25.365
		c-0.009,0.01-0.016,0.021-0.023,0.031"/>
	
		<line fill="none" stroke="#EDC9C9" stroke-width="0" stroke-linecap="round" stroke-linejoin="round" x1="15.006" y1="28.407" x2="15.014" y2="28.396"/>
	<path fill="none" stroke="#EDC9C9" stroke-width="0" stroke-linecap="round" stroke-linejoin="round" d="M15.014,28.396
		c0.741-1.02,1.504-2.021,2.294-3"/>
	
		<line fill="none" stroke="#EDC9C9" stroke-width="0" stroke-linecap="round" stroke-linejoin="round" x1="75.126" y1="29" x2="75.126" y2="29"/>
	
		<line fill="none" stroke="#EDC9C9" stroke-width="0" stroke-linecap="round" stroke-linejoin="round" x1="75.126" y1="31" x2="75.126" y2="31"/>
	<path fill="#EDC9C9" d="M74.911,5.118c-0.437-0.537-0.83-0.987-1.218-1.562c-0.098-0.145-0.105-0.286-0.182-0.559
		c0.152-0.48,0.329-0.99,0.484-1.534c0.051-0.178,0.021-0.361,0.064-0.542c0.018-0.07,0.135-0.105,0.203-0.167
		c0.104-0.095,0.257-0.207,0.301-0.325C74.692,0.084,75.059,0,75.062,0H75v-2h0.062c-1.16,0-2.278-0.109-3.424-0.057
		c-0.194,0.009-0.374-0.057-0.568-0.046c-1.071,0.058-2.128,0.104-3.187,0.207c-0.258,0.025-0.511,0.034-0.768,0.062
		c-1.026,0.111-2.046,0.228-3.06,0.38c-0.267,0.04-0.529,0.083-0.795,0.125c-0.828,0.133-1.651,0.278-2.47,0.439
		c-0.363,0.071-0.726,0.14-1.087,0.217c-0.81,0.171-1.613,0.358-2.413,0.556c-0.427,0.105-0.854,0.211-1.277,0.324
		c-0.791,0.21-1.577,0.433-2.357,0.668c-0.5,0.151-0.998,0.311-1.494,0.473c-0.443,0.144-0.884,0.295-1.323,0.448
		c-0.837,0.29-1.667,0.593-2.49,0.912c-0.315,0.123-0.63,0.246-0.942,0.372c-1.004,0.405-1.997,0.831-2.979,1.278
		c-0.183,0.083-0.368,0.164-0.551,0.249c-0.599,0.278-1.193,0.563-1.783,0.856c-0.001,0-0.002,0.001-0.003,0.001l0,0
		c-0.028,0.329-0.067,0.655-0.144,0.973c-0.309,1.274-0.996,1.368-2.201,1.469c-0.143-0.042-0.473-0.035-0.582-0.188
		c-0.125-0.174-0.27-0.327-0.42-0.473c-0.04,0.022-0.081,0.042-0.121,0.064c-0.079,0.045-0.156,0.09-0.235,0.135
		c-1.06,0.604-2.103,1.235-3.129,1.889c-0.104,0.066-0.207,0.133-0.311,0.2c-1.013,0.652-2.007,1.329-2.984,2.028
		c-0.09,0.064-0.182,0.128-0.271,0.193c-1.021,0.738-2.024,1.5-3.006,2.289c-0.029,0.023-0.059,0.045-0.086,0.067
		c-4.13,3.324-7.895,7.08-11.229,11.202c-0.002,0.003-0.005,0.005-0.007,0.008c0.001,0,0.001,0,0.001,0
		c0.005-0.001,0.009-0.001,0.013-0.003c0.77,0.287,1.641,0.568,2.461,0.954c0.203,0.093,0.288,0.524,0.339,0.814
		c0.015,0.101-0.219,0.292-0.374,0.366c-0.516,0.25-0.27,0.829-0.548,1.192c-0.242,0.314-0.323,0.773-0.604,1.03
		c-0.19,0.175-0.625,0.208-0.907,0.136c-1.011-0.26-1.85-0.891-2.752-1.386l0,0c-0.006,0.007-0.01,0.015-0.016,0.022
		c-0.776,1.072-1.523,2.167-2.242,3.28c-0.029,0.045-0.059,0.091-0.088,0.136c-0.716,1.115-1.693,2.249-2.351,3.404
		C10.294,35.271,10,35.276,10,35.281c0,0,0,0.001,0,0.001c0,0.088,0.242,0.141,0.232,0.23C10.157,36.236,9.969,37,9.467,37h0.056
		c-0.371,1-0.701,1.435-1.051,2.144c-0.23,0.469-0.439,0.96-0.661,1.435c-0.227,0.483-0.438,0.98-0.653,1.469
		c-0.285,0.647-0.559,1.304-0.825,1.961c-0.226,0.553-0.444,1.11-0.656,1.67c-0.164,0.433-0.326,0.868-0.482,1.305
		c-0.296,0.829-0.579,1.664-0.847,2.505c-0.119,0.375-0.229,0.753-0.343,1.131c-0.21,0.7-0.409,1.405-0.6,2.114
		c-0.082,0.307-0.17,0.611-0.248,0.919c-0.24,0.947-0.457,1.903-0.661,2.865c-0.067,0.32-0.133,0.641-0.197,0.963
		c-0.198,1.002-0.382,2.009-0.54,3.025c-0.029,0.189-0.052,0.38-0.08,0.569c-0.141,0.952-0.261,1.911-0.365,2.874
		c-0.023,0.218-0.05,0.435-0.071,0.653c-0.106,1.08-0.188,2.167-0.248,3.261c-0.012,0.225-0.021,0.451-0.031,0.677
		c-0.053,1.139-0.088,2.282-0.088,3.434c0,1.202,0.033,2.396,0.092,3.584c0.04,0.82,0.106,1.634,0.174,2.447
		c0.026,0.32,0.042,0.644,0.073,0.963c0.102,1.063,0.227,2.12,0.372,3.17c0.007,0.046,0.011,0.092,0.018,0.138
		c0.156,1.109,0.336,2.211,0.538,3.305c0.048,0.017,0.095,0.029,0.143,0.044c0.662,0.196,0.902,0.724,0.603,1.357
		c-0.109,0.23-0.226,0.458-0.337,0.675c0.006,0.028,0.014,0.056,0.02,0.084c0.146,0.674,0.3,1.344,0.464,2.011
		c0.145,0.587,0.298,1.171,0.456,1.752c0.093,0.341,0.191,0.679,0.289,1.019c0.268,0.93,0.552,1.854,0.854,2.77
		c0.101,0.301,0.202,0.601,0.306,0.9c0.334,0.97,0.688,1.93,1.062,2.881c0.097,0.246,0.192,0.493,0.292,0.738
		c0.489,1.208,1.007,2.401,1.557,3.577c0.219,0.011,0.438,0.018,0.657,0.035c0.33,0.027,0.649,0.198,0.974,0.306
		c-0.045,0.04-0.09,0.082-0.135,0.123c0.104,0.199,0.233,0.391,0.308,0.6c0.076,0.213,0.332,0.409,0.039,0.682
		c-0.125,0.117-0.103,0.383-0.174,0.571c-0.056,0.149-0.135,0.38-0.239,0.401c-0.026,0.006-0.046,0.019-0.071,0.026
		c2.729,5.255,6.066,10.141,9.919,14.566c0.041,0.048,0.082,0.096,0.123,0.143c0.611,0.698,1.234,1.385,1.871,2.059
		c0.055,0.059,0.11,0.116,0.165,0.174c0.645,0.679,1.299,1.347,1.969,2.001c0.623-0.092,1.234,0.138,2.051,0.58
		c0.529,0.29,1.044,0.793,1.309,1.328c0.175,0.357,0.225,0.866,0.146,1.298c6.4,5.503,13.75,9.931,21.765,13.015
		c0.151,0.059,0.3,0.121,0.451,0.178c0.76,0.287,1.53,0.552,2.303,0.813c0.335,0.114,0.669,0.231,1.007,0.341
		c0.685,0.222,1.377,0.428,2.071,0.63c0.438,0.128,0.876,0.254,1.317,0.374c0.638,0.173,1.28,0.335,1.924,0.492
		c0.514,0.124,1.028,0.242,1.545,0.356c0.601,0.132,1.204,0.259,1.81,0.376c0.579,0.112,1.162,0.213,1.745,0.312
		c0.564,0.096,1.128,0.19,1.696,0.273c0.651,0.095,1.308,0.172,1.964,0.249c0.517,0.062,1.032,0.128,1.553,0.179
		c0.765,0.073,1.535,0.124,2.307,0.175c0.425,0.028,0.846-0.044,1.272-0.023c1.203,0.058,2.412-0.02,3.629-0.02
		c0.003,0-0.116,0-0.116,0v0.223v-13.26c0,0.002,0,0.003,0,0.004c0,0.183-0.124,0.363-0.207,0.549
		c-0.01,0.022,0.009,0.048-0.007,0.074c-0.076,0.135-0.203,0.307-0.414,0.314c-0.085,0.003-0.173-0.02-0.28-0.082
		c-0.083-0.049-0.189-0.055-0.308-0.045c-0.119,0.01-0.243,0.035-0.355,0.05c-0.098,0.012-0.188,0.013-0.271,0.005
		c-0.583-0.057-0.824-0.565-1.053-1.035c-0.205-0.422-0.292-0.9-0.48-1.516c0.23-0.786,0.449-1.676,0.775-2.523
		c0.082-0.207,0.504-0.324,0.789-0.393c0.1-0.024,0.305,0.195,0.393,0.346c0.283,0.498,0.848,0.049,1.228,0.299
		c0.095,0.062,0.249-0.01,0.252-0.01H75v-8.36c0-0.001,0-0.001,0-0.002c0-0.177-0.458-0.364-0.672-0.587
		c-0.084-0.088-0.097-0.244-0.11-0.412c-0.013-0.168,0.021-0.492,0.064-0.629c0.138-0.434,0.767-1.01,0.772-1.01H75V91.462
		c0,0.001,0,0.002,0,0.003c0,0.254-0.686,0.461-0.932,0.49c-0.244-0.117-0.459-0.226-0.697-0.35c-0.352-0.184-0.672-0.5-1.034-0.536
		c-0.325-0.032-0.288-0.138-0.319-0.347c-0.006-0.045-0.008-0.093-0.016-0.142c-0.023-0.147-0.061-0.301-0.15-0.368
		c-0.38-0.289-0.241-0.721-0.081-0.887c0.387-0.396,0.886-0.839,1.362-0.869C73.811,88.415,74.062,88,75.062,89H75v-9h0.062
		c-0.25,0-0.43-0.018-0.612-0.088c-0.546-0.212-0.812-0.498-1.062-1.103c-0.056-0.14-0.224-0.207-0.421-0.39
		c0.168-0.455,0.355-0.869,0.542-1.369c0.188-0.499,0.551-1.05,1.55-1.05H75V52h0.062c-0.002,0-0.117-0.004-0.193,0.017
		c-0.219,0.058-0.589-0.016-0.7-0.164c-0.352-0.467-0.961-0.619-1.225-1.222c-0.475-1.075-0.585-1.6,0.304-2.334
		C73.809,47.835,74.061,48,75.06,48H75V30.671c0,0,0-0.001,0-0.002c0-0.126-0.426-0.475-0.377-0.672
		C74.711,29.641,75,29.224,75,28.899c0-0.001,0-0.003,0-0.005V5h0.062C75.059,5,74.958,5.174,74.911,5.118z M65.289,120.615
		c0.174-0.549,0.466-1.055,1.234-0.814c0.008-0.053,0.016-0.105,0.021-0.158c0.57,0.229,1.146,0.441,1.703,0.701
		c0.112,0.053,0.207,0.274,0.21,0.422c0.013,0.473-0.854,1.641-1.31,1.776c-0.128,0.037-0.312,0.03-0.417-0.04
		c-0.468-0.305-0.968-0.594-1.351-0.99C65.215,121.336,65.203,120.887,65.289,120.615z M65.113,95.064
		c-0.555-0.471-1.494-0.189-1.899-0.973c-0.071-0.135-0.288-0.199-0.415-0.282c0.059-0.255,0.078-0.519,0.179-0.747
		c0.267-0.619,1.043-0.9,1.759-0.641c0.441,0.162,0.861,0.381,1.299,0.553c0.119,0.047,0.27,0.016,0.414,0.02
		c0.189,0.959-0.365,1.516-1.088,1.977C65.285,95.019,65.147,95.093,65.113,95.064z M66.736,82.574
		c-0.159,0.089-0.268,0.506-0.205,0.717c0.158,0.541-0.235,0.665-0.543,0.789c-0.283,0.111-0.619,0.086-0.986,0.123
		c-0.004,0-0.068,0.012-0.115-0.012c-0.99-0.469-1.939-0.984-2.619-1.896c-0.25-0.336-0.253-0.605,0.03-0.854
		c0.423-0.368,0.52-1.119,1.239-1.118c0.618,0.001,1.24,0.028,1.846,0.132c0.328,0.056,0.781-0.15,0.974,0.382
		c0.112,0.314,0.431,0.561,0.517,0.874C66.942,81.962,67.211,82.317,66.736,82.574z M57.668,95.916
		c0.053,0.481-0.143,0.989-0.225,1.483c-0.066-0.044-0.131-0.088-0.196-0.134c-0.126,0.045-0.312,0.053-0.372,0.141
		c-0.12,0.177-0.138,0.424-0.257,0.602c-0.271,0.402-1.151,0.636-1.632,0.596c-1.041-0.093-1.505-0.842-1.964-1.61
		c-0.063-0.104-0.026-0.265-0.058-0.396c-0.156-0.676-0.295-1.356-0.483-2.023c-0.12-0.418-0.049-0.736,0.312-0.975
		c0.705-0.465,1.435-0.821,2.321-0.556c0.912,0.272,1.836,0.505,2.743,0.792c0.373,0.118,0.383,0.422,0.148,0.696
		C57.651,94.943,57.606,95.376,57.668,95.916z M49.004,54.814c-0.615-0.06-1.465-0.856-1.395-1.429
		c0.039-0.332,0.313-0.739,0.604-0.915c0.645-0.39,1.267-0.914,2.121-0.8c0.312,0.042,0.475,0.107,0.537,0.485
		c0.079,0.481,0.305,0.94,0.479,1.405c0.318,0.844,0.187,1.078-0.704,1.149c-0.237,0.018-0.479-0.038-0.768-0.064
		c-0.06,0.141-0.12,0.285-0.18,0.43c0.018-0.09,0.034-0.18,0.053-0.27C49.502,54.81,49.251,54.838,49.004,54.814z M49.566,45.877
		c0.142-0.823,1.191-1.568,2.025-1.448c0.604,0.088,1.213,0.169,1.804,0.316c0.179,0.045,0.442,0.315,0.429,0.455
		c-0.07,0.654-0.197,1.306-0.355,1.945c-0.182,0.743-0.904,0.371-1.25,0.603c-1.125-0.057-1.865-0.664-2.543-1.356
		C49.569,46.284,49.539,46.042,49.566,45.877z M51.838,59.169c0.712-0.031,1.356,0.146,1.981,0.466
		c0.507,0.259,0.671,0.89,0.403,1.399c-0.148,0.284-0.24,0.627-0.25,0.948c-0.012,0.444-0.367,0.419-0.609,0.516
		c-0.284,0.113-0.602,0.142-0.906,0.208c-0.512,0.112-1.014,0.242-1.347-0.37c-0.069-0.126-0.325-0.151-0.552-0.248
		c-0.053-0.483-0.149-1.033-0.158-1.583C50.391,59.949,51.287,59.193,51.838,59.169z M56.361,54.351
		c0.457-1.117,1.045-1.075,2.006-0.877c0.266,0.055,0.529,0.15,0.779,0.259c0.23,0.103,0.442,0.248,0.695,0.393
		c-0.137,0.519-0.254,1.054-0.422,1.571c-0.1,0.301-0.836,0.438-1.301,0.284c-0.383-0.126-0.762-0.264-1.148-0.363
		C56.301,55.448,56.098,54.994,56.361,54.351z M57.947,71.457c-0.305-0.398-0.721-0.711-1.012-1.118
		c-0.417-0.581-0.309-1.273-0.074-1.861c0.213-0.539,1.52-0.971,2.129-0.764c0.656,0.224,1.434,0.272,1.787,1.051
		c0.047,0.104,0.27,0.131,0.408,0.196c-0.127,0.543-0.248,1.088-0.385,1.631c-0.151,0.598-1.297,1.333-1.971,1.282
		C58.48,71.849,58.185,71.768,57.947,71.457z M59.914,15.357c-0.193-0.104-0.393-0.209-0.569-0.339
		c-0.306-0.227-0.878-0.518-0.849-0.702c0.133-0.802,0.072-1.771,1.086-2.147c0.034-0.012,0.066-0.035,0.1-0.052
		c0.947-0.552,1.891-0.57,2.803,0.062c0.105,0.075,0.15,0.302,0.15,0.458c0.002,0.373-0.104,0.758-0.043,1.116
		c0.104,0.598-0.251,0.969-0.574,1.332C61.619,15.534,60.455,15.647,59.914,15.357z M66.369,69.201
		c-0.116-0.189-0.232-0.378-0.322-0.583c-0.148-0.349-0.494-0.889-0.374-1.032c0.519-0.627,0.956-1.493,2.019-1.306
		c0.039,0.007,0.076,0.004,0.113,0.004c1.096,0.003,1.918,0.463,2.386,1.47c0.056,0.118-0.024,0.336-0.101,0.472
		c-0.184,0.324-0.473,0.601-0.6,0.942c-0.213,0.568-0.705,0.708-1.168,0.859C67.752,70.213,66.688,69.725,66.369,69.201z
		 M66.684,44.251c-0.824,0.237-1.218,0.292-1.727-0.346c-0.213-0.269-0.539-0.449-0.819-0.658c-0.336-0.25-0.47-0.568-0.458-0.989
		c0.008-0.194-0.121-0.389-0.174-0.588c-0.022-0.085-0.042-0.223,0.002-0.261c0.783-0.69,1.483-1.542,2.871-1.474
		c0.604-0.028,1.231,0.368,1.838,0.792c0.131,0.09,0.21,0.299,0.252,0.469c0.084,0.339,0.238,0.717,0.159,1.028
		c-0.128,0.499-0.331,1.038-0.672,1.402C67.651,43.951,67.137,44.121,66.684,44.251z M67.101,28.391
		c-0.188,0.241-0.492,0.387-0.786,0.605c-0.006,0.002-0.055,0.044-0.107,0.049c-1.09,0.094-2.17,0.128-3.217-0.314
		c-0.385-0.164-0.525-0.395-0.405-0.752c0.179-0.53-0.118-1.228,0.505-1.591c0.531-0.31,1.084-0.602,1.659-0.817
		c0.31-0.12,0.597-0.523,1.032-0.163c0.256,0.213,0.656,0.265,0.889,0.493c0.186,0.182,0.596,0.353,0.316,0.815
		c-0.095,0.155,0.025,0.57,0.186,0.721C67.58,27.822,67.305,28.128,67.101,28.391z M61.348,0.654
		c0.924-0.226,1.84-0.492,2.768-0.704c0.383-0.086,0.545,0.171,0.479,0.527C64.496,1.013,64.676,1.409,65,1.842
		c0.291,0.387,0.381,0.926,0.557,1.396C65.48,3.232,65.4,3.226,65.322,3.221c-0.088,0.102-0.244,0.2-0.25,0.308
		c-0.017,0.213,0.094,0.435,0.08,0.649c-0.029,0.484-0.672,1.131-1.107,1.339c-0.946,0.445-1.725,0.033-2.508-0.399
		c-0.109-0.058-0.158-0.216-0.248-0.312c-0.475-0.505-0.941-1.021-1.441-1.501c-0.312-0.3-0.413-0.611-0.223-0.999
		C59.998,1.549,60.447,0.874,61.348,0.654z M57.348,33.508c-0.1,0.534,0.081,0.93,0.405,1.365c0.291,0.387,0.38,0.926,0.558,1.396
		c-0.079-0.006-0.157-0.012-0.236-0.017c-0.088,0.101-0.242,0.2-0.25,0.307c-0.014,0.214,0.094,0.436,0.081,0.649
		c-0.029,0.484-0.673,1.132-1.108,1.337c-0.944,0.448-1.723,0.036-2.508-0.396c-0.107-0.06-0.156-0.215-0.248-0.312
		c-0.475-0.505-0.939-1.022-1.439-1.502c-0.314-0.301-0.414-0.612-0.224-0.999c0.373-0.757,0.822-1.433,1.722-1.652
		c0.926-0.225,1.84-0.492,2.77-0.704C57.251,32.896,57.412,33.152,57.348,33.508z M54.869,17.804
		c0.094,0.067,0.297-0.021,0.451-0.038c0.164,0.534,0.336,1.066,0.49,1.603c0.172,0.594-0.445,1.806-1.053,2.103
		c-0.314,0.155-0.607,0.234-0.973,0.085c-0.464-0.189-0.98-0.249-1.438-0.452c-0.653-0.292-0.908-0.943-1.004-1.57
		c-0.088-0.573,0.822-1.606,1.453-1.734C53.475,17.661,54.172,17.311,54.869,17.804z M46.305,8.226
		c0.295-0.524,0.192-1.295,0.854-1.553c0.443-0.209,0.827-0.416,1.23-0.579c0.594-0.238,1.414,0.297,1.5,0.941
		c0.032,0.248,0.068,0.515,0.183,0.73c0.414,0.758-0.22,1.172-0.556,1.65c-0.12,0.17-0.501,0.158-0.767,0.222
		c-0.072,0.017-0.161-0.017-0.222,0.013c-0.857,0.433-1.365-0.378-2.029-0.607C46.348,8.991,46.197,8.416,46.305,8.226z
		 M45.03,29.635c0.065-0.479-0.042-1.153,0.233-1.392c0.459-0.398,1.146-0.567,1.762-0.741c0.812-0.226,1.5,0.294,1.832,0.845
		c0.27,0.447,0.077,1.21-0.007,1.819c-0.06,0.425-0.44,0.614-0.867,0.633c-0.13,0.004-0.265-0.042-0.394-0.075
		c-0.082-0.02-0.17-0.097-0.236-0.08c-0.336,0.081-1.427-0.16-1.732-0.396c-0.188-0.146-0.383-0.281-0.611-0.448
		C45.014,29.776,45.02,29.705,45.03,29.635z M46.24,113.816c0.078,0.358-0.811,1.043-1.199,0.995
		c-0.639-0.079-1.226-0.254-1.696-0.769c-0.363-0.394-0.363-0.808-0.119-1.166c0.644-0.939,1.73-1.347,2.798-0.997
		c0.301,0.099,0.537,0.399,0.836,0.634C46.48,112.9,46.109,113.208,46.24,113.816z M47.277,121.869
		c0.084,0.048,0.15,0.129,0.302,0.266c-0.247,0.137-0.423,0.312-0.612,0.322c-0.333,0.016-0.438,0.167-0.5,0.461
		c-0.158,0.735-0.809,1.027-1.367,1.352c-0.199,0.116-0.609,0.036-0.842-0.098c-0.7-0.4-1.562-0.742-1.635-1.674
		c-0.029-0.348,0.318-0.811,0.621-1.081c0.775-0.694,1.715-0.667,2.626-0.313C46.364,121.295,46.812,121.605,47.277,121.869z
		 M44.987,86.293c0.193,0.319,0.474,0.584,0.699,0.885c0.049,0.064,0.081,0.215,0.042,0.26c-0.505,0.574-0.536,1.317-0.749,1.998
		c-0.171,0.543-0.579,0.652-1.201,0.56c-0.267-0.04-0.599-0.322-0.868,0.034c-0.341-0.277-0.686-0.551-1.023-0.829
		c-0.201-0.168-0.384-0.362-0.599-0.514c-0.274-0.194-0.657-0.259-0.511-0.776c0.062-0.225-0.121-0.514-0.165-0.777
		c-0.024-0.152-0.05-0.391,0.032-0.459c0.742-0.617,1.414-1.394,2.527-1.273C43.918,85.409,44.565,85.595,44.987,86.293z
		 M43.514,52.266c-0.229,0.594-0.479,1.184-0.684,1.79c-0.135,0.398-0.171,0.832-0.317,1.225c-0.237,0.63-0.974,0.779-1.536,0.402
		c-0.332-0.223-0.745-0.321-1.104-0.511c-0.753-0.399-1.264-0.976-1.202-1.891c0.016-0.24,0.062-0.55,0.219-0.702
		C39.96,51.543,42.127,51.41,43.514,52.266z M39.125,28.576c0.166,0.667-0.128,0.835-0.675,1.014c0.074,0.375,0.208,0.77,0.221,1.17
		c0.018,0.591,0.307,1.272-0.391,1.697c-0.157,0.098-0.354,0.144-0.537,0.191c-0.424,0.111-0.886-0.104-1.312,0.228
		c-0.129,0.098-0.531-0.175-0.814-0.257c-0.339-0.1-0.691-0.154-1.024-0.265c-0.692-0.229-1.257-1.64-0.941-2.29
		c0.159-0.333,0.253-0.703,0.44-1.017c0.567-0.954,1.454-1.418,2.539-1.503c0.533-0.04,1.076-0.038,1.61-0.005
		C38.864,27.578,38.953,27.877,39.125,28.576z M30.794,84.822c0.296-0.525,0.193-1.297,0.854-1.555
		c0.443-0.209,0.829-0.416,1.231-0.576c0.594-0.239,1.413,0.295,1.499,0.939c0.032,0.249,0.068,0.515,0.184,0.729
		c0.414,0.76-0.221,1.174-0.557,1.652c-0.119,0.171-0.502,0.157-0.766,0.221c-0.072,0.017-0.161-0.016-0.223,0.013
		c-0.855,0.435-1.364-0.378-2.027-0.606C30.836,85.586,30.687,85.011,30.794,84.822z M29.146,76.948
		c-0.142-0.042-0.474-0.036-0.581-0.188c-0.447-0.621-1.132-0.98-1.523-1.714c-0.402-0.754-0.185-1.246,0.176-1.784
		c0.18-0.266,0.499-0.465,0.795-0.62c0.306-0.161,0.648-0.286,0.988-0.33c0.934-0.125,1.629,0.482,2.377,0.885
		c0.129,0.07,0.176,0.403,0.164,0.61c-0.035,0.56-0.064,1.129-0.195,1.671C31.04,76.753,30.352,76.846,29.146,76.948z
		 M32.745,104.547c0.457-0.248,0.896-0.641,1.38-0.707c1.2-0.166,2.354,0.084,3.256,0.973c0.132,0.131,0.147,0.56,0.033,0.729
		c-0.484,0.73-0.794,1.613-1.61,2.078c-0.356,0.203-0.734,0.361-1.104,0.541c-0.839-0.049-2.179-0.898-2.54-1.598
		C31.697,105.673,31.841,105.037,32.745,104.547z M34.659,41.569c-0.334-0.028-0.698,0.11-0.833-0.409
		c-0.06-0.229-0.366-0.383-0.535-0.589c-0.098-0.12-0.24-0.311-0.204-0.413c0.328-0.907,0.518-1.916,1.539-2.374
		c0.648-0.37,1.302-0.538,2.018-0.147c0.328,0.178,0.703,0.264,1.051,0.409c0.074,0.032,0.178,0.147,0.166,0.205
		c-0.145,0.751,0.204,1.408,0.363,2.104c0.127,0.555-0.17,0.854-0.754,1.088c-0.25,0.101-0.681,0.025-0.733,0.467
		c-0.433-0.065-0.867-0.128-1.3-0.198C35.177,41.668,34.921,41.593,34.659,41.569z M31.224,14.894
		c0.168-0.286,0.336-0.58,0.549-0.831c0.604-0.708,1.457-0.801,2.253-0.604c0.927,0.229,1.8,0.678,2.7,1.02
		c0.584,0.224,0.826,0.737,0.836,1.26c0.004,0.329-0.35,0.663-0.585,1.07c0.265,0.38,0.362,0.768,0.081,1.352
		c-0.24,0.506-0.397,0.988-0.889,1.328c-0.91,0.627-1.83,0.749-2.812,0.194c-0.375-0.214-0.848-0.348-1.101-0.662
		c-0.253-0.311-0.275-0.801-0.411-1.211c-0.072-0.216-0.111-0.48-0.262-0.623C30.907,16.54,30.753,15.698,31.224,14.894z
		 M29.757,47.798c0.912,0.349,1.831,0.681,2.73,1.06c0.322,0.135,0.322,0.581-0.012,0.693c-0.742,0.248-0.839,0.951-1.182,1.483
		c-0.26,0.398-0.492,0.834-0.826,1.161c-0.304,0.293-0.743,0.395-1.121,0.05c-0.387-0.353-0.742-0.739-1.127-1.095
		c-0.113-0.108-0.29-0.145-0.406-0.249c-0.191-0.176-0.518-0.403-0.496-0.571c0.07-0.538,0.128-1.194,0.461-1.553
		c0.469-0.503,1.127-0.906,1.919-0.824C29.718,47.899,29.735,47.848,29.757,47.798z M24.253,33.767
		c0.296-0.526,0.191-1.295,0.854-1.553c0.443-0.21,0.828-0.417,1.231-0.579c0.593-0.238,1.413,0.297,1.499,0.94
		c0.032,0.248,0.068,0.514,0.184,0.729c0.414,0.759-0.221,1.173-0.557,1.651c-0.119,0.17-0.502,0.159-0.766,0.222
		c-0.072,0.017-0.16-0.017-0.223,0.015c-0.856,0.432-1.364-0.378-2.028-0.608C24.295,34.532,24.146,33.957,24.253,33.767z
		 M16.945,42.854c0.358-0.917,1.062-1.34,1.962-1.526c0.27-0.056,0.551-0.06,0.825-0.086c1.185,0.072,2.469,0.97,2.663,2.024
		c0.082,0.449,0.022,1.057-0.23,1.403c-0.412,0.562-0.997,1.027-1.586,1.418c-0.338,0.226-0.845,0.348-1.247,0.293
		c-0.389-0.051-0.786-0.336-1.095-0.614c-0.561-0.504-0.95-1.143-1.361-1.783C16.516,43.423,16.794,43.243,16.945,42.854z
		 M20.73,70.641c0.032,0.25,0.067,0.516,0.182,0.73c0.415,0.761-0.22,1.174-0.555,1.651c-0.119,0.171-0.502,0.157-0.767,0.221
		c-0.072,0.017-0.161-0.016-0.222,0.015c-0.856,0.434-1.365-0.378-2.028-0.607c-0.153-0.053-0.303-0.629-0.194-0.818
		c0.295-0.525,0.191-1.295,0.854-1.554c0.443-0.21,0.828-0.416,1.23-0.577C19.823,69.464,20.645,69.998,20.73,70.641z M4.439,51.311
		c0.052-0.003,0.104-0.006,0.154-0.009c-0.268-1.354,0.68-2.041,1.491-2.8c0.049-0.046,0.132-0.086,0.196-0.082
		c1.117,0.052,2.273-0.167,3.328,0.339c0.507,0.243,1.012,0.569,1.385,0.977c0.339,0.369,0.355,0.919,0.399,1.45
		c0.046,0.567,0.024,1.059-0.323,1.5c-0.644,0.82-1.267,1.662-1.981,2.415c-0.36,0.382-0.849,0.791-1.48,0.292
		c-0.137-0.109-0.466,0.034-0.621-0.069c-0.328-0.218-0.644-0.488-0.882-0.799c-0.385-0.501-0.604-1.087-1.114-1.547
		C4.614,52.636,4.609,51.881,4.439,51.311z M5.988,70.278c-0.25-0.172-0.575-0.357-0.661-0.608c-0.09-0.259,0.03-0.614,0.117-0.911
		c0.328-1.116,1.255-0.924,2.256-0.94c0.372,0.047,0.91,0.102,1.441,0.187c0.499,0.079,1.023,0.824,0.9,1.31
		c-0.117,0.457-0.263,0.913-0.457,1.343c-0.403,0.885-1.352,1.105-2.155,0.551C6.959,70.887,6.459,70.604,5.988,70.278z
		 M12.999,90.721c-0.104,0.523-0.207,1.049-0.311,1.574c-0.12,0.604-0.675,0.814-1.218,0.973c-0.896,0.26-1.477-0.119-2.182-0.516
		c-0.376-0.212-0.934-0.164-1.252-0.561c-0.149-0.186-0.207-0.447-0.332-0.738c-0.002-0.111,0.032-0.316-0.017-0.496
		c-0.16-0.606,0.16-1.301,0.715-1.582c1.084-0.547,2.162-0.485,3.328-0.225c0.84,0.188,1.068,0.739,1.324,1.371
		C13.076,90.571,13.014,90.65,12.999,90.721z M22.103,105.287c-0.021,0.232-0.061,0.461-0.114,0.85
		c-0.111-0.258-0.147-0.348-0.214-0.504c-0.299,0.396-0.547,0.756-0.825,1.088c-0.598,0.713-1.804,0.986-2.66,0.598
		c-0.954-0.432-1.801-1.091-2.232-2.004c-0.396-0.84-0.588-1.842-0.616-2.781c-0.036-1.23,1.527-2.888,2.753-3.054
		c0.472-0.065,1.004,0.003,1.456,0.161c0.766,0.266,1.505,0.622,2.225,1c0.307,0.161,0.763,1.871,0.818,2.184
		C22.86,103.749,22.178,104.441,22.103,105.287z M23.427,82.982c0.265,0.383,0.361,0.77,0.08,1.354
		c-0.241,0.504-0.396,0.987-0.887,1.326c-0.912,0.629-1.832,0.75-2.813,0.194c-0.377-0.213-0.85-0.349-1.103-0.661
		c-0.251-0.311-0.275-0.803-0.411-1.211c-0.07-0.216-0.11-0.48-0.261-0.623c-0.675-0.647-0.83-1.489-0.359-2.295
		c0.168-0.286,0.337-0.579,0.549-0.83c0.604-0.71,1.456-0.801,2.254-0.604c0.927,0.229,1.8,0.678,2.699,1.021
		c0.584,0.223,0.826,0.738,0.835,1.259C24.015,82.241,23.661,82.577,23.427,82.982z M22.479,64.428
		c-0.328-0.045-0.647-0.166-0.97-0.253c-0.018-0.006-0.039-0.011-0.051-0.024c-0.434-0.57-1-1.089-1.255-1.73
		c-0.161-0.408,0.044-1.043,0.249-1.502c0.46-1.039,1.144-1.929,2.433-1.847c1.398,0.087,2.765,0.336,3.862,1.358
		c0.357,0.333,0.291,0.583,0.074,0.886c-0.424-0.171-0.658-0.661-1.157-0.349c0.236,0.452,0.536,0.85,0.491,1.366
		c-0.039,0.49-0.092,0.979-0.147,1.544c-0.574,0.221-1.183,0.558-1.831,0.672C23.634,64.647,23.043,64.504,22.479,64.428z
		 M29.238,110.772c-0.104-0.046-0.222-0.096-0.342-0.146c-0.321,0.564-0.644,1.132-0.97,1.697c-0.229,0.395-1.271,0.842-1.682,0.689
		c-0.17-0.062-0.337-0.201-0.441-0.35c-0.548-0.766-1.076-1.547-1.608-2.32c0.306-1.257,1.087-2.005,2.505-1.869
		c1.236,0.121,2.234,0.633,2.776,1.836C29.405,110.449,29.324,110.606,29.238,110.772z M29.492,93.738
		c-0.259,0.516-0.499,1.045-0.752,1.564c-0.053,0.107-0.128,0.215-0.222,0.288c-0.731,0.576-1.875,0.32-2.381-0.487
		c-0.153-0.248-0.401-0.463-0.65-0.617c-0.677-0.416-0.625-1.604,0.156-2.092c0.416-0.26,0.915-0.52,1.38-0.526
		c0.453-0.009,0.96,0.232,1.362,0.491c0.504,0.33,0.927,0.787,1.497,1.288C29.651,93.697,29.517,93.69,29.492,93.738z
		 M30.769,121.256c-0.461-0.889-0.317-1.524,0.586-2.016c0.459-0.248,0.896-0.64,1.379-0.706c1.201-0.165,2.355,0.083,3.257,0.972
		c0.132,0.132,0.147,0.56,0.034,0.729c-0.484,0.729-0.794,1.612-1.61,2.079c-0.356,0.202-0.735,0.362-1.104,0.54
		C32.472,122.805,31.131,121.955,30.769,121.256z M38.688,128.757c-0.484,0.729-0.793,1.612-1.61,2.077
		c-0.356,0.204-0.735,0.363-1.104,0.542c-0.838-0.05-2.179-0.899-2.541-1.599c-0.461-0.889-0.317-1.523,0.586-2.015
		c0.459-0.247,0.897-0.642,1.381-0.708c1.199-0.165,2.354,0.084,3.255,0.973C38.786,128.158,38.802,128.587,38.688,128.757z
		 M39.061,73.031c-0.187,0.005-0.377-0.055-0.56-0.105c-0.422-0.119-0.712-0.538-1.249-0.468c-0.159,0.021-0.37-0.418-0.573-0.633
		c-0.242-0.256-0.518-0.482-0.75-0.746c-0.482-0.548-0.257-2.048,0.343-2.452c0.308-0.206,0.575-0.478,0.896-0.656
		c0.973-0.534,1.972-0.489,2.948-0.014c0.482,0.235,0.949,0.511,1.395,0.809c0.518,0.347,0.444,0.653,0.24,1.341
		c-0.195,0.661-0.532,0.657-1.094,0.535c-0.125,0.361-0.212,0.771-0.402,1.122C39.973,72.283,39.877,73.018,39.061,73.031z
		 M41.088,99.695c-0.501-0.36-0.83-1.478-0.481-1.936c0.202-0.267,0.646-0.48,0.982-0.484c0.755-0.012,1.556-0.15,2.234,0.381
		c0.249,0.193,0.357,0.332,0.22,0.688c-0.174,0.456-0.211,0.967-0.297,1.455c-0.152,0.889-0.384,1.023-1.188,0.635
		c-0.212-0.102-0.392-0.273-0.63-0.441c-0.121,0.091-0.246,0.184-0.371,0.279c0.06-0.068,0.12-0.138,0.182-0.206
		C41.521,99.943,41.289,99.842,41.088,99.695z M48.275,134.939c-0.188,0.9-0.812,1.533-1.242,2.271
		c-0.479,0.823-1.425,0.758-2.252,0.696c-0.439-0.034-0.966-0.136-1.271-0.408c-0.596-0.531-1.117-1.169-1.564-1.834
		c-0.312-0.459,0.123-1.51,0.435-1.996c0.405-0.633,1.073-0.763,1.596-1.145c1.153-0.846,2.128-0.287,3.158,0.141
		c0.285,0.119,0.563,0.252,0.923,0.413c0.025,0.11,0.031,0.397,0.164,0.603C48.496,134.111,48.369,134.486,48.275,134.939z
		 M49.34,76.393c-0.266,0.337-0.691,0.309-1.068,0.109c-0.113-0.061-0.205-0.169-0.303-0.263c-0.061-0.06-0.096-0.168-0.162-0.188
		c-0.331-0.101-1.15-0.86-1.295-1.217c-0.088-0.219-0.188-0.436-0.302-0.696c0.016-0.019,0.058-0.078,0.102-0.133
		c0.297-0.379,0.547-1.017,0.905-1.083c0.597-0.113,1.275,0.089,1.895,0.25c0.814,0.214,1.146,1.013,1.153,1.654
		C50.271,75.348,49.721,75.91,49.34,76.393z M50.463,105.156c-0.191-0.463,0.057-0.825,0.346-1.012
		c0.817-0.526,1.697-0.935,2.729-0.729c0.578,0.115,1.176,0.155,1.741,0.311c0.455,0.127,0.795,0.428,0.604,1.01
		c-0.087-0.019-0.17-0.035-0.291-0.062c0.035,0.101,0.079,0.181,0.088,0.265c0.055,0.545-0.203,0.883-0.784,0.877
		c-0.542-0.006-0.707,0.255-0.858,0.717c-0.145,0.444-0.455,0.836-0.666,1.199c-1.016-0.611-1.898-1.142-2.695-1.621
		C50.598,105.752,50.576,105.436,50.463,105.156z M51.822,112.977c-0.359-0.271-0.623-0.701-0.857-1.105
		c-0.094-0.162-0.079-0.497,0.031-0.651c0.6-0.847,1.97-1.208,2.943-0.813c0.375,0.154,0.744,0.335,1.108,0.517
		c0.454,0.23,0.62,0.532,0.371,1.058c-0.272,0.578-0.272,1.297-0.966,1.63c-0.25,0.119-0.48,0.282-0.72,0.426
		C52.855,114.016,52.376,113.393,51.822,112.977z M55.24,124.387c-0.256-0.204-0.525-0.414-0.711-0.676
		c-1.051-1.473-0.234-2.169,1.086-2.776c1.129-0.522,2.16,0.065,3.182,0.458c0.207,0.082,0.329,0.377,0.553,0.65
		c-0.285,0.088-0.484,0.15-0.57,0.177c-0.23,0.874-0.44,1.671-0.65,2.466c-0.041-0.033-0.084-0.068-0.126-0.104
		c-0.292,0.089-0.577,0.232-0.872,0.25C56.466,124.871,55.795,124.83,55.24,124.387z M60.504,137.543
		c-0.235-0.356-0.662-0.514-0.948-0.871c-0.819-1.018-0.964-2.086-0.258-3.186c0.218-0.34,0.411-0.699,0.637-1.033
		c0.4-0.598,1.04-0.889,1.685-0.992c1.521-0.25,3.008-0.186,4.326,0.818c1.092,0.83,1.416,1.956,0.727,3.146
		c-0.481,0.832-0.952,1.715-1.625,2.377c-0.531,0.523-1.361,0.742-2.03,1.082C62.074,138.433,61.082,138.422,60.504,137.543z
		 M65.649,141.479c-0.052-0.019-0.104-0.036-0.156-0.054c0.319-0.924,0.62-1.854,0.968-2.767c0.125-0.326,0.57-0.341,0.693-0.011
		c0.273,0.733,0.979,0.806,1.521,1.131c0.408,0.245,0.852,0.464,1.188,0.788c0.305,0.292,0.422,0.729,0.088,1.117
		c-0.34,0.398-0.712,0.768-1.057,1.163c-0.102,0.117-0.135,0.296-0.236,0.413c-0.168,0.197-0.385,0.533-0.553,0.518
		c-0.539-0.053-1.197-0.09-1.566-0.41C66.02,142.916,65.595,142.271,65.649,141.479z M71.719,105.863
		c0.191,0.201,0.434,0.366,0.682,0.498c0.504,0.27,0.512,0.543,0.174,0.994c-0.271,0.365-0.418,0.836-0.563,1.277
		c-0.104,0.312-0.089,0.663-0.175,0.981c-0.146,0.543-0.736,0.825-1.375,0.736c-0.242-0.034-0.494,0.021-0.817,0.04
		c0.231-0.266,0.39-0.403-0.043-0.561c-0.477-0.173-0.946-0.441-1.323-0.775c-0.211-0.186-0.312-0.586-0.318-0.891
		c-0.004-0.475,0.129-0.949,0.174-1.425c0.02-0.183-0.127-0.488-0.051-0.545c0.519-0.387,1.036-0.874,1.635-1.041
		C70.454,104.947,71.163,105.281,71.719,105.863z M70.447,58.118c-0.959,0.616-1.67,0.397-2.441-0.454
		c-0.356-0.396-0.331-0.812-0.483-1.167c0-0.947,1.267-1.844,2.165-1.546c0.48,0.159,0.926,0.42,1.39,0.629
		c0.106,0.049,0.26,0.035,0.336,0.109c0.134,0.134,0.349,0.347,0.312,0.461C71.495,56.926,71.162,57.658,70.447,58.118z
		 M72.062,38.107c-0.043,0.08-0.125,0.215-0.168,0.207c-0.719-0.127-1.385,0.589-2.13,0.119c-0.131-0.083-0.351-0.028-0.501-0.034
		c-0.076-0.248-0.193-0.487-0.223-0.735c-0.083-0.668,0.445-1.305,1.193-1.439c0.463-0.083,0.936-0.107,1.399-0.18
		c0.128-0.02,0.24-0.124,0.369-0.192C72.648,36.585,72.453,37.344,72.062,38.107z M73.363,20.31c-0.863,0.272-1.7,0.438-2.503-0.175
		c-0.117-0.092-0.315-0.08-0.576-0.139c-0.085-0.477-0.182-1.003-0.273-1.527c-0.099-0.578,0.399-1.605,0.956-1.896
		c0.545-0.282,1.105-0.535,1.67-0.774c0.414-0.175,1.066,0.08,1.163,0.498c0.153,0.673,0.224,1.364,0.329,2.048
		c0.025,0.163,0.038,0.329,0.078,0.487C74.385,19.543,74.062,20.09,73.363,20.31z"/>
	<path fill="#EDC9C9" d="M42.073,5.474c-1.128,0.562-2.237,1.151-3.331,1.768l-0.001,0l0,0c0.001,0.001,0.002,0.002,0.003,0.003
		C39.838,6.629,40.946,6.035,42.073,5.474z"/>
</g>
</svg>
