<?xml version="1.0" standalone="no"?>
<!DOCTYPE svg PUBLIC "-//W3C//DTD SVG 20010904//EN"
 "http://www.w3.org/TR/2001/REC-SVG-20010904/DTD/svg10.dtd">
<svg version="1.0" xmlns="http://www.w3.org/2000/svg"
 width="320.000000pt" height="320.000000pt" viewBox="0 0 320.000000 320.000000"
 preserveAspectRatio="xMidYMid meet">
<metadata>
Created by potrace 1.11, written by Peter Selinger 2001-2013
</metadata>
<g transform="translate(0.000000,320.000000) scale(0.100000,-0.100000)"
fill="#000000" stroke="none">
<path d="M0 1600 l0 -1600 1600 0 1600 0 0 1600 0 1600 -1600 0 -1600 0 0
-1600z m1169 1371 c156 -48 294 -195 336 -356 42 -161 1 -324 -115 -464 -59
-71 -59 -89 1 -127 105 -66 185 -170 220 -287 17 -56 20 -86 17 -170 -6 -124
-35 -204 -107 -294 l-48 -60 57 -225 c32 -124 60 -231 64 -237 10 -15 51 -14
64 2 5 6 71 131 145 277 142 278 158 300 220 300 67 0 81 -19 224 -305 75
-148 141 -273 147 -277 22 -15 53 -8 63 15 6 12 36 123 67 247 230 923 262
1041 295 1074 26 26 39 31 77 31 39 0 50 -5 76 -34 30 -33 30 -37 25 -105 -3
-39 -29 -161 -57 -271 -28 -110 -103 -407 -166 -660 -176 -705 -184 -738 -196
-768 -16 -42 -54 -67 -104 -67 -75 0 -90 22 -255 354 -83 166 -158 309 -168
320 -39 38 -52 20 -217 -311 -104 -206 -169 -324 -187 -339 -42 -35 -106 -33
-148 4 -29 26 -36 48 -134 442 -92 375 -104 415 -121 411 -11 -3 -228 -6 -483
-8 -500 -4 -505 -4 -541 47 -20 27 -20 48 -20 915 l0 887 31 29 31 29 423 0
c387 0 428 -2 484 -19z m1458 -1 c41 -24 65 -71 65 -125 2 -110 -114 -178
-218 -129 -64 30 -94 136 -59 203 34 67 143 93 212 51z m-156 -333 c18 -12 44
-38 57 -57 76 -112 -67 -268 -187 -205 -40 20 -79 70 -87 110 -22 118 120 218
217 152z m-141 -339 c68 -47 89 -137 48 -198 -36 -53 -69 -72 -123 -72 -54 0
-87 19 -122 72 -83 121 76 280 197 198z m-141 -345 c79 -58 80 -177 2 -232
-63 -45 -137 -35 -191 25 -25 29 -30 43 -30 89 0 44 5 59 27 86 51 60 134 74
192 32z"/>
<path d="M452 2738 c-9 -9 -12 -86 -12 -285 0 -259 1 -273 19 -283 12 -6 128
-10 308 -10 325 0 332 2 415 79 69 63 93 120 93 221 0 76 -3 91 -30 139 -34
62 -94 114 -155 136 -56 20 -619 22 -638 3z"/>
<path d="M452 1898 c-17 -17 -17 -539 0 -556 9 -9 105 -12 370 -12 l359 0 48
25 c27 13 67 45 89 70 122 139 87 365 -72 456 l-51 29 -366 0 c-271 0 -368 -3
-377 -12z"/>
</g>
</svg>
